%TF.GenerationSoftware,Altium Limited,Altium Designer,21.6.1 (37)*%
G04 Layer_Color=16711935*
%FSLAX45Y45*%
%MOMM*%
%TF.SameCoordinates,308497C2-864B-4A42-B135-7B231B7309CE*%
%TF.FilePolarity,Negative*%
%TF.FileFunction,Soldermask,Bot*%
%TF.Part,Single*%
G01*
G75*
%TA.AperFunction,ComponentPad*%
%ADD78C,1.80000*%
%ADD82C,1.90000*%
%TA.AperFunction,ViaPad*%
%ADD84C,0.50000*%
%ADD85C,0.40000*%
%TA.AperFunction,ComponentPad*%
%ADD96C,2.80000*%
%ADD97R,2.00000X2.00000*%
%ADD98C,2.00000*%
%ADD99C,0.60000*%
%TA.AperFunction,ViaPad*%
%ADD100C,0.60000*%
D78*
X5329364Y7090000D02*
D03*
X6429364D02*
D03*
D82*
X3621000Y271000D02*
D03*
X3875000D02*
D03*
X4129000D02*
D03*
X4383000D02*
D03*
X4637000D02*
D03*
X4891000D02*
D03*
X5145000D02*
D03*
X5399000D02*
D03*
X5653000D02*
D03*
X6415000Y525000D02*
D03*
X6161000Y271000D02*
D03*
X5907000D02*
D03*
X6161000Y525000D02*
D03*
X3621000D02*
D03*
X3875000D02*
D03*
X4129000D02*
D03*
X4383000D02*
D03*
X4637000D02*
D03*
X4891000D02*
D03*
X5145000D02*
D03*
X5399000D02*
D03*
X5653000D02*
D03*
X5907000D02*
D03*
X6415000Y271000D02*
D03*
X1589000D02*
D03*
X1843000D02*
D03*
X2097000D02*
D03*
X2605000D02*
D03*
X2859000D02*
D03*
X3113000D02*
D03*
X3367000D02*
D03*
X3113000Y525000D02*
D03*
X3367000D02*
D03*
X2859000D02*
D03*
X2351000Y271000D02*
D03*
X1843000Y525000D02*
D03*
X2097000D02*
D03*
X2351000D02*
D03*
X2605000D02*
D03*
X1589000D02*
D03*
D84*
X4076864Y3892500D02*
D03*
Y3782500D02*
D03*
X2171864Y2220000D02*
D03*
X2281864D02*
D03*
D85*
X4794364Y1195000D02*
D03*
Y1305000D02*
D03*
D96*
X6129364Y6090000D02*
D03*
X5629364D02*
D03*
D97*
X4000000Y825500D02*
D03*
D98*
Y1079500D02*
D03*
D99*
X7462576Y2665500D02*
D03*
Y2284500D02*
D03*
D100*
X5950000Y2900000D02*
D03*
X5644364Y2300000D02*
D03*
%TF.MD5,31ec654da19d8fe28cb4b84ec1263c29*%
M02*
