%TF.GenerationSoftware,Altium Limited,Altium Designer,21.6.1 (37)*%
G04 Layer_Color=16711935*
%FSLAX45Y45*%
%MOMM*%
%TF.SameCoordinates,308497C2-864B-4A42-B135-7B231B7309CE*%
%TF.FilePolarity,Positive*%
%TF.FileFunction,Other,Outline*%
%TF.Part,Single*%
G01*
G75*
%TA.AperFunction,NonConductor*%
%ADD166C,0.01270*%
D166*
X8000000Y7800635D02*
G03*
X7800000Y8000635I-200000J0D01*
G01*
X7400000Y8000635D02*
G03*
X7200000Y7800635I0J-200000D01*
G01*
X7000000Y7400635D02*
G03*
X7200000Y7600635I0J200000D01*
G01*
X800000Y7600635D02*
G03*
X1000000Y7400635I200000J-0D01*
G01*
X800000Y7800635D02*
G03*
X600000Y8000635I-200000J0D01*
G01*
X200000D02*
G03*
X0Y7800635I0J-200000D01*
G01*
X0Y200635D02*
G03*
X200000Y635I200000J0D01*
G01*
X7800000D02*
G03*
X8000000Y200635I0J200000D01*
G01*
X560000Y7600635D02*
G03*
X560000Y7600635I-160000J0D01*
G01*
X7760000D02*
G03*
X7760000Y7600635I-160000J0D01*
G01*
X560000Y400635D02*
G03*
X560000Y400635I-160000J0D01*
G01*
X7760000D02*
G03*
X7760000Y400635I-160000J0D01*
G01*
X7400000Y8000635D02*
X7800000D01*
X7200000Y7600635D02*
Y7800635D01*
X1000000Y7400635D02*
X7000000D01*
X800000Y7600635D02*
Y7800635D01*
X200000Y8000635D02*
X600000D01*
X0Y200635D02*
Y7800635D01*
X200000Y635D02*
X7800000D01*
X8000000Y200635D02*
Y7800635D01*
%TF.MD5,e404d93def3767e8ffc677d8afd688ac*%
M02*
