%TF.GenerationSoftware,Altium Limited,Altium Designer,21.6.1 (37)*%
G04 Layer_Physical_Order=3*
G04 Layer_Color=16440176*
%FSLAX45Y45*%
%MOMM*%
%TF.SameCoordinates,308497C2-864B-4A42-B135-7B231B7309CE*%
%TF.FilePolarity,Positive*%
%TF.FileFunction,Copper,L3,Inr,Signal*%
%TF.Part,Single*%
G01*
G75*
%TA.AperFunction,Conductor*%
%ADD60C,0.20000*%
%TA.AperFunction,ComponentPad*%
%ADD78C,1.80000*%
%ADD79C,2.70000*%
%ADD80C,1.70000*%
%ADD81R,1.90000X1.90000*%
%ADD82C,1.90000*%
%ADD83C,0.50000*%
%TA.AperFunction,ViaPad*%
%ADD84C,0.50000*%
%ADD85C,0.40000*%
%TA.AperFunction,Conductor*%
%ADD90R,1.20000X0.60000*%
G36*
X7938826Y6411174D02*
Y3135703D01*
X7926126Y3130442D01*
X7922658Y3133910D01*
X7907956Y3140000D01*
X7892043D01*
X7877342Y3133910D01*
X7866090Y3122658D01*
X7860000Y3107956D01*
Y3092043D01*
X7866090Y3077342D01*
X7877342Y3066090D01*
X7892043Y3060000D01*
X7907956D01*
X7922658Y3066090D01*
X7926126Y3069558D01*
X7938826Y3064297D01*
Y200636D01*
X7938826Y186962D01*
X7933491Y160141D01*
X7923026Y134877D01*
X7907832Y112138D01*
X7888497Y92802D01*
X7865758Y77609D01*
X7840493Y67144D01*
X7813673Y61809D01*
X7800001Y61809D01*
X4602500D01*
Y155163D01*
X4603651Y157943D01*
Y157961D01*
X4603664Y157973D01*
X4605013Y161247D01*
X4616309Y167840D01*
X4623176Y166000D01*
X4650823D01*
X4677528Y173156D01*
X4701471Y186979D01*
X4721021Y206529D01*
X4734844Y230471D01*
X4742000Y257177D01*
Y284823D01*
X4734844Y311528D01*
X4721021Y335471D01*
X4701471Y355021D01*
X4677528Y368844D01*
X4650823Y376000D01*
X4623176D01*
X4616309Y374160D01*
X4605012Y380753D01*
X4603636Y384094D01*
X4603624Y384106D01*
Y384123D01*
X4602500Y386837D01*
Y409163D01*
X4603651Y411943D01*
Y411960D01*
X4603664Y411973D01*
X4605012Y415247D01*
X4616309Y421840D01*
X4623176Y420000D01*
X4650823D01*
X4677528Y427156D01*
X4701471Y440979D01*
X4721021Y460529D01*
X4734844Y484471D01*
X4742000Y511177D01*
Y538823D01*
X4734844Y565528D01*
X4721021Y589471D01*
X4701471Y609021D01*
X4677528Y622844D01*
X4650823Y630000D01*
X4623176D01*
X4616309Y628160D01*
X4605012Y634753D01*
X4603636Y638094D01*
X4603624Y638106D01*
Y638123D01*
X4602500Y640837D01*
Y1212010D01*
Y1861861D01*
X4602707Y1862171D01*
X4603040Y1863846D01*
X4604628Y1866221D01*
X4610551Y1869569D01*
X4617841Y1871167D01*
X4618690Y1871126D01*
X4621408Y1870000D01*
X4637321D01*
X4652022Y1876090D01*
X4663275Y1887342D01*
X4669364Y1902043D01*
Y1917957D01*
X4663275Y1932658D01*
X4652022Y1943910D01*
X4637321Y1950000D01*
X4621408D01*
X4618690Y1948874D01*
X4617841Y1948833D01*
X4610551Y1950431D01*
X4604628Y1953779D01*
X4603040Y1956156D01*
X4602707Y1957829D01*
X4602500Y1958139D01*
Y2532010D01*
X4746942D01*
X4941976Y2336976D01*
X4950245Y2331451D01*
X4960000Y2329510D01*
X5084326D01*
X5089587Y2316810D01*
X5088728Y2315952D01*
X5082639Y2301250D01*
Y2285337D01*
X5088728Y2270636D01*
X5099980Y2259384D01*
X5114682Y2253294D01*
X5130595D01*
X5145297Y2259384D01*
X5156549Y2270636D01*
X5162638Y2285337D01*
Y2301250D01*
X5156549Y2315952D01*
X5155690Y2316810D01*
X5160951Y2329510D01*
X5570000D01*
X5579755Y2331451D01*
X5588024Y2336976D01*
X5638548Y2387500D01*
X5650457D01*
X5665158Y2393590D01*
X5676410Y2404842D01*
X5682500Y2419544D01*
Y2435457D01*
X5676410Y2450158D01*
X5665158Y2461410D01*
X5664194Y2461810D01*
X5666720Y2474510D01*
X6182499D01*
X6192254Y2476450D01*
X6200523Y2481976D01*
X6677388Y2958841D01*
X6682914Y2967110D01*
X6684854Y2976865D01*
Y3368921D01*
X6693275Y3377342D01*
X6699364Y3392044D01*
Y3407957D01*
X6693275Y3422658D01*
X6682022Y3433910D01*
X6667321Y3440000D01*
X6651408D01*
X6636706Y3433910D01*
X6625454Y3422658D01*
X6619364Y3407957D01*
Y3392044D01*
X6625454Y3377342D01*
X6633875Y3368921D01*
Y2987423D01*
X6171941Y2525489D01*
X5152943D01*
X5144523Y2533910D01*
X5129821Y2539999D01*
X5113908D01*
X5099207Y2533910D01*
X5087955Y2522658D01*
X5081865Y2507956D01*
Y2492043D01*
X5087955Y2477342D01*
X5093831Y2471465D01*
X5096265Y2460837D01*
X5093249Y2455453D01*
X5085454Y2447658D01*
X5079364Y2432957D01*
Y2417043D01*
X5085454Y2402342D01*
X5094606Y2393190D01*
X5092288Y2383275D01*
X5090713Y2380490D01*
X4970558D01*
X4775524Y2575524D01*
X4767255Y2581049D01*
X4757500Y2582990D01*
X4602500D01*
Y3338049D01*
X4604784Y3349783D01*
Y3349783D01*
X5454973Y4199973D01*
X5684510Y4429510D01*
X5954442D01*
X6154510Y4229442D01*
Y3311079D01*
X6146090Y3302658D01*
X6140000Y3287957D01*
Y3272043D01*
X6146090Y3257342D01*
X6157342Y3246090D01*
X6172044Y3240000D01*
X6187957D01*
X6202658Y3246090D01*
X6213910Y3257342D01*
X6220000Y3272043D01*
Y3287957D01*
X6213910Y3302658D01*
X6205490Y3311079D01*
Y4240000D01*
X6203549Y4249755D01*
X6198024Y4258024D01*
X5983024Y4473024D01*
X5974755Y4478549D01*
X5965000Y4480490D01*
X5752083D01*
X5747223Y4492223D01*
X5805000Y4550000D01*
X7171202D01*
X7178235Y4537300D01*
X7174364Y4527956D01*
Y4512043D01*
X7180454Y4497342D01*
X7191706Y4486090D01*
X7206408Y4480000D01*
X7222321D01*
X7237022Y4486090D01*
X7243631Y4492698D01*
X7251864Y4495932D01*
X7260098Y4492698D01*
X7266706Y4486090D01*
X7281408Y4480000D01*
X7297321D01*
X7312022Y4486090D01*
X7320399Y4494466D01*
X7328114Y4496233D01*
X7335830Y4494466D01*
X7344206Y4486090D01*
X7358908Y4480000D01*
X7374821D01*
X7389522Y4486090D01*
X7393568Y4490135D01*
X7401865Y4496505D01*
X7410161Y4490135D01*
X7414206Y4486090D01*
X7428908Y4480000D01*
X7444821D01*
X7459523Y4486090D01*
X7466131Y4492698D01*
X7474365Y4495932D01*
X7482598Y4492698D01*
X7489206Y4486090D01*
X7503908Y4480000D01*
X7519821D01*
X7534522Y4486090D01*
X7545775Y4497342D01*
X7551864Y4512043D01*
Y4527956D01*
X7547994Y4537300D01*
X7555026Y4550000D01*
X7650000D01*
Y6300000D01*
X6900000Y7050000D01*
X6537795D01*
X6537793Y7050000D01*
X6536790Y7050579D01*
X6535679Y7050726D01*
X6535679Y7050726D01*
X6534887Y7051518D01*
X6530056Y7053519D01*
X6526520Y7066220D01*
X6529364Y7076835D01*
Y7103165D01*
X6522549Y7128598D01*
X6509384Y7151401D01*
X6490765Y7170020D01*
X6467962Y7183185D01*
X6442529Y7190000D01*
X6416199D01*
X6390766Y7183185D01*
X6367963Y7170020D01*
X6349344Y7151401D01*
X6336179Y7128598D01*
X6329364Y7103165D01*
Y7076835D01*
X6332209Y7066220D01*
X6328673Y7053520D01*
X6323841Y7051518D01*
X6323049Y7050726D01*
X6321940Y7050580D01*
X6320937Y7050002D01*
X6320937Y7050001D01*
X6320935Y7050000D01*
X5437795D01*
X5437794Y7050000D01*
X5436790Y7050579D01*
X5435680Y7050726D01*
X5435679Y7050726D01*
X5434887Y7051518D01*
X5430056Y7053519D01*
X5426520Y7066220D01*
X5429364Y7076835D01*
Y7103165D01*
X5422549Y7128598D01*
X5409384Y7151401D01*
X5390765Y7170020D01*
X5367963Y7183185D01*
X5342530Y7190000D01*
X5316199D01*
X5290766Y7183185D01*
X5267963Y7170020D01*
X5249345Y7151401D01*
X5236179Y7128598D01*
X5229364Y7103165D01*
Y7076835D01*
X5232209Y7066220D01*
X5228673Y7053520D01*
X5223841Y7051518D01*
X5223049Y7050726D01*
X5221940Y7050580D01*
X5220937Y7050002D01*
X5220937Y7050001D01*
X5220935Y7050000D01*
X2225000D01*
X2125000Y6950000D01*
Y6943275D01*
Y5906459D01*
Y5903229D01*
X2122717Y5897717D01*
X2120433Y5895433D01*
X2120433Y5895433D01*
X2079567Y5854567D01*
X2079567Y5854567D01*
X2077283Y5852283D01*
X2071771Y5850000D01*
X1903229D01*
X1897717Y5852283D01*
X1895433Y5854567D01*
X1895433Y5854567D01*
X1854567Y5895433D01*
X1854567Y5895433D01*
X1852283Y5897717D01*
X1850000Y5903229D01*
Y5906459D01*
Y7229084D01*
X1850445Y7231368D01*
X1854568Y7243101D01*
D01*
Y7243102D01*
X1950928Y7339461D01*
X7000000D01*
X7001495Y7339758D01*
X7003003Y7339534D01*
X7010116Y7339884D01*
X7938826Y6411174D01*
D02*
G37*
G36*
X7840494Y7934126D02*
X7865758Y7923661D01*
X7888497Y7908467D01*
X7907833Y7889132D01*
X7923026Y7866393D01*
X7933491Y7841129D01*
X7938826Y7814308D01*
Y7800635D01*
Y7135703D01*
X7926126Y7130442D01*
X7922658Y7133910D01*
X7907956Y7140000D01*
X7892043D01*
X7877342Y7133910D01*
X7866090Y7122658D01*
X7860000Y7107957D01*
Y7092043D01*
X7866090Y7077342D01*
X7877342Y7066090D01*
X7892043Y7060000D01*
X7907956D01*
X7922658Y7066090D01*
X7926126Y7069558D01*
X7938826Y7064297D01*
Y6935703D01*
X7926126Y6930442D01*
X7922658Y6933910D01*
X7907956Y6940000D01*
X7892043D01*
X7877342Y6933910D01*
X7866090Y6922658D01*
X7860000Y6907956D01*
Y6892043D01*
X7866090Y6877342D01*
X7877342Y6866090D01*
X7892043Y6860000D01*
X7907956D01*
X7922658Y6866090D01*
X7926126Y6869558D01*
X7938826Y6864297D01*
Y6450729D01*
X7927093Y6445868D01*
X7042192Y7330770D01*
X7046372Y7344550D01*
X7069992Y7349248D01*
X7075558Y7351554D01*
X7081467Y7352730D01*
X7117690Y7367733D01*
X7122700Y7371081D01*
X7128266Y7373387D01*
X7160865Y7395169D01*
X7165126Y7399429D01*
X7170135Y7402776D01*
X7197859Y7430500D01*
X7201206Y7435509D01*
X7205466Y7439770D01*
X7227248Y7472369D01*
X7229555Y7477936D01*
X7232902Y7482946D01*
X7247905Y7519168D01*
X7249081Y7525077D01*
X7251387Y7530643D01*
X7259036Y7569097D01*
Y7573631D01*
X7260137Y7578030D01*
X7261101Y7597633D01*
X7260877Y7599141D01*
X7261174Y7600635D01*
X7261174Y7800635D01*
X7261174Y7814308D01*
X7266509Y7841129D01*
X7276974Y7866393D01*
X7292167Y7889131D01*
X7311503Y7908467D01*
X7334242Y7923661D01*
X7359506Y7934126D01*
X7386326Y7939460D01*
X7400000D01*
X7800000Y7939461D01*
X7813673D01*
X7840494Y7934126D01*
D02*
G37*
G36*
X613673Y7939461D02*
X640494Y7934126D01*
X665758Y7923661D01*
X688496Y7908468D01*
X707832Y7889132D01*
X723026Y7866393D01*
X733491Y7841129D01*
X738826Y7814308D01*
X738826Y7600635D01*
X739123Y7599141D01*
X738900Y7597634D01*
X739863Y7578031D01*
X740964Y7573632D01*
Y7569097D01*
X748613Y7530644D01*
X750919Y7525077D01*
X752094Y7519168D01*
X767098Y7482945D01*
X770446Y7477935D01*
X772751Y7472369D01*
X794534Y7439769D01*
X798794Y7435509D01*
X802141Y7430499D01*
X829864Y7402776D01*
X834874Y7399429D01*
X839134Y7395169D01*
X871733Y7373386D01*
X877301Y7371080D01*
X882310Y7367733D01*
X918532Y7352729D01*
X924442Y7351554D01*
X930008Y7349248D01*
X968462Y7341599D01*
X972997D01*
X977395Y7340497D01*
X996999Y7339534D01*
X998505Y7339758D01*
X1000000Y7339461D01*
X1911373D01*
X1916233Y7327728D01*
X1840803Y7252298D01*
X1839357Y7248807D01*
X1836881Y7245952D01*
X1836960Y7244845D01*
X1836347Y7243919D01*
X1834063Y7232186D01*
X1834387Y7230589D01*
X1833764Y7229084D01*
Y5903229D01*
X1835000Y5900245D01*
Y5897015D01*
X1837284Y5891503D01*
X1839567Y5889220D01*
X1840803Y5886236D01*
X1886236Y5840803D01*
X1889220Y5839567D01*
X1891503Y5837283D01*
X1897016Y5835000D01*
X1900245D01*
X1903229Y5833764D01*
X2071771D01*
X2074755Y5835000D01*
X2077985D01*
X2083497Y5837283D01*
X2085780Y5839567D01*
X2088764Y5840803D01*
X2134197Y5886236D01*
X2135433Y5889220D01*
X2137717Y5891503D01*
X2140000Y5897016D01*
Y5900245D01*
X2141236Y5903229D01*
Y6943275D01*
X2231725Y7033764D01*
X5220935D01*
X5222867Y7034564D01*
X5223048Y7034489D01*
X5223434Y7034649D01*
X5224056Y7034482D01*
X5225168Y7034628D01*
X5226962Y7035664D01*
X5229052Y7035939D01*
X5230055Y7036518D01*
X5230055Y7036518D01*
X5234887Y7038520D01*
X5239100Y7036938D01*
X5247061Y7032555D01*
X5249345Y7028599D01*
X5267963Y7009980D01*
X5290766Y6996815D01*
X5316199Y6990000D01*
X5342530D01*
X5367963Y6996815D01*
X5390765Y7009980D01*
X5409384Y7028599D01*
X5411668Y7032555D01*
X5419633Y7036939D01*
X5423842Y7038520D01*
X5428673Y7036518D01*
X5429675Y7035940D01*
X5431766Y7035664D01*
X5433561Y7034628D01*
X5434672Y7034482D01*
X5435295Y7034649D01*
X5435680Y7034489D01*
X5435861Y7034565D01*
X5437794Y7033764D01*
X6320935D01*
X6322867Y7034564D01*
X6323048Y7034489D01*
X6323433Y7034649D01*
X6324056Y7034482D01*
X6325168Y7034628D01*
X6326962Y7035664D01*
X6329052Y7035939D01*
X6330054Y7036518D01*
X6330055Y7036518D01*
X6334886Y7038520D01*
X6339099Y7036938D01*
X6347060Y7032555D01*
X6349344Y7028599D01*
X6367963Y7009980D01*
X6390766Y6996815D01*
X6416199Y6990000D01*
X6442529D01*
X6467962Y6996815D01*
X6490765Y7009980D01*
X6509384Y7028599D01*
X6511668Y7032555D01*
X6519633Y7036939D01*
X6523842Y7038520D01*
X6528673Y7036518D01*
X6529675Y7035940D01*
X6531766Y7035664D01*
X6533561Y7034628D01*
X6534672Y7034482D01*
X6535295Y7034649D01*
X6535680Y7034489D01*
X6535861Y7034565D01*
X6537794Y7033764D01*
X6893275D01*
X7633764Y6293275D01*
Y4567500D01*
X7520303D01*
X7519821Y4580000D01*
X7534522Y4586090D01*
X7545775Y4597342D01*
X7551864Y4612043D01*
Y4627956D01*
X7545775Y4642658D01*
X7534522Y4653910D01*
X7519821Y4660000D01*
X7503908D01*
X7489206Y4653910D01*
X7482598Y4647302D01*
X7474364Y4644068D01*
X7466131Y4647302D01*
X7459523Y4653910D01*
X7444821Y4660000D01*
X7428908D01*
X7414206Y4653910D01*
X7410161Y4649865D01*
X7401864Y4643495D01*
X7393568Y4649865D01*
X7389522Y4653910D01*
X7374821Y4660000D01*
X7358908D01*
X7344206Y4653910D01*
X7335830Y4645534D01*
X7328114Y4643767D01*
X7320399Y4645534D01*
X7312022Y4653910D01*
X7297321Y4660000D01*
X7281408D01*
X7266706Y4653910D01*
X7260098Y4647302D01*
X7251864Y4644068D01*
X7243631Y4647302D01*
X7237022Y4653910D01*
X7222321Y4660000D01*
X7206408D01*
X7191706Y4653910D01*
X7180454Y4642658D01*
X7174364Y4627956D01*
Y4612043D01*
X7180454Y4597342D01*
X7191706Y4586090D01*
X7206407Y4580000D01*
X7205925Y4567500D01*
X5795000Y4567500D01*
X5707990Y4480490D01*
X5156079D01*
X5147658Y4488910D01*
X5132956Y4495000D01*
X5117043D01*
X5102342Y4488910D01*
X5091090Y4477658D01*
X5085000Y4462957D01*
Y4447043D01*
X5091090Y4432342D01*
X5102342Y4421090D01*
X5117043Y4415000D01*
X5132956D01*
X5147658Y4421090D01*
X5156079Y4429510D01*
X5640417D01*
X5645277Y4417777D01*
X4590000Y3362500D01*
Y3355631D01*
X4589381Y3354917D01*
X4589460Y3353810D01*
X4588847Y3352885D01*
X4586563Y3341151D01*
X4586887Y3339554D01*
X4586264Y3338049D01*
Y2582990D01*
X3483058D01*
X3380284Y2685763D01*
Y2697672D01*
X3374194Y2712374D01*
X3362942Y2723626D01*
X3348241Y2729716D01*
X3332328D01*
X3317626Y2723626D01*
X3306374Y2712374D01*
X3300284Y2697672D01*
Y2681759D01*
X3306374Y2667058D01*
X3317626Y2655805D01*
X3332328Y2649716D01*
X3344236D01*
X3454476Y2539476D01*
X3462745Y2533951D01*
X3472500Y2532010D01*
X4586264D01*
Y1958139D01*
X4586931Y1956528D01*
X4586795Y1956199D01*
X4586993Y1955720D01*
X4586783Y1954662D01*
X4587107Y1953031D01*
X4588521Y1950915D01*
X4588514Y1950860D01*
X4588704Y1950611D01*
X4589001Y1949118D01*
X4589208Y1948808D01*
X4590000Y1948279D01*
Y1919490D01*
X4589364Y1917957D01*
Y1902043D01*
X4590000Y1900510D01*
Y1871721D01*
X4589208Y1871192D01*
X4589001Y1870882D01*
X4588704Y1869391D01*
X4588514Y1869142D01*
X4588522Y1869086D01*
X4587108Y1866971D01*
X4586783Y1865339D01*
X4586994Y1864279D01*
X4586796Y1863800D01*
X4586931Y1863472D01*
X4586264Y1861861D01*
Y1262990D01*
X2573058D01*
X1916236Y1919812D01*
Y1950000D01*
X1911481Y1961480D01*
X1900000Y1966236D01*
X1780000D01*
X1768519Y1961480D01*
X1763764Y1950000D01*
Y1890000D01*
X1768519Y1878519D01*
X1780000Y1873764D01*
X1890188D01*
X2544476Y1219476D01*
X2552746Y1213951D01*
X2562500Y1212010D01*
X4586264D01*
Y637608D01*
X4588624Y631911D01*
X4590000Y628569D01*
Y619108D01*
X4572529Y609021D01*
X4552979Y589471D01*
X4539156Y565528D01*
X4532000Y538823D01*
Y511177D01*
X4539156Y484471D01*
X4552979Y460529D01*
X4572529Y440979D01*
X4590000Y430892D01*
Y421430D01*
X4588651Y418156D01*
X4586264Y412392D01*
Y383608D01*
X4588624Y377911D01*
X4590000Y374569D01*
Y365108D01*
X4572529Y355021D01*
X4552979Y335471D01*
X4539156Y311528D01*
X4532000Y284823D01*
Y257177D01*
X4539156Y230471D01*
X4552979Y206529D01*
X4572529Y186979D01*
X4590000Y176892D01*
Y167430D01*
X4588651Y164156D01*
X4586264Y158392D01*
Y61809D01*
X200001D01*
X186327Y61809D01*
X159506Y67144D01*
X134241Y77609D01*
X111503Y92803D01*
X92168Y112138D01*
X76974Y134877D01*
X66509Y160141D01*
X61174Y186961D01*
Y200635D01*
X61174Y7800635D01*
X61174Y7814308D01*
X66509Y7841128D01*
X76974Y7866393D01*
X92167Y7889132D01*
X111503Y7908467D01*
X134241Y7923661D01*
X159506Y7934126D01*
X186326Y7939460D01*
X200000D01*
X599999Y7939461D01*
X613673Y7939461D01*
D02*
G37*
G36*
X5620806Y2461810D02*
X5619842Y2461410D01*
X5608590Y2450158D01*
X5602500Y2435457D01*
Y2423548D01*
X5559442Y2380490D01*
X5148016D01*
X5146441Y2383275D01*
X5144123Y2393190D01*
X5153275Y2402342D01*
X5159364Y2417043D01*
Y2432957D01*
X5153275Y2447658D01*
X5147399Y2453534D01*
X5144964Y2464162D01*
X5147980Y2469546D01*
X5152943Y2474510D01*
X5618280D01*
X5620806Y2461810D01*
D02*
G37*
%LPC*%
G36*
X7519821Y4460000D02*
X7503908D01*
X7489206Y4453910D01*
X7482598Y4447302D01*
X7474364Y4444068D01*
X7466131Y4447302D01*
X7459523Y4453910D01*
X7444821Y4460000D01*
X7428908D01*
X7414206Y4453910D01*
X7410161Y4449865D01*
X7401864Y4443495D01*
X7393568Y4449865D01*
X7389522Y4453910D01*
X7374821Y4460000D01*
X7358908D01*
X7344206Y4453910D01*
X7335830Y4445534D01*
X7328114Y4443767D01*
X7320399Y4445534D01*
X7312022Y4453910D01*
X7297321Y4460000D01*
X7281408D01*
X7266706Y4453910D01*
X7260098Y4447302D01*
X7251864Y4444068D01*
X7243631Y4447302D01*
X7237022Y4453910D01*
X7222321Y4460000D01*
X7206408D01*
X7191706Y4453910D01*
X7180454Y4442658D01*
X7174364Y4427957D01*
Y4412044D01*
X7180454Y4397342D01*
X7191706Y4386090D01*
X7206408Y4380000D01*
X7222321D01*
X7237022Y4386090D01*
X7243631Y4392698D01*
X7251864Y4395932D01*
X7260098Y4392698D01*
X7266706Y4386090D01*
X7281408Y4380000D01*
X7297321D01*
X7312022Y4386090D01*
X7320399Y4394466D01*
X7328114Y4396233D01*
X7335830Y4394466D01*
X7344206Y4386090D01*
X7358908Y4380000D01*
X7374821D01*
X7389522Y4386090D01*
X7393568Y4390135D01*
X7401865Y4396505D01*
X7410161Y4390135D01*
X7414206Y4386090D01*
X7428908Y4380000D01*
X7444821D01*
X7459523Y4386090D01*
X7466131Y4392698D01*
X7474365Y4395932D01*
X7482598Y4392698D01*
X7489206Y4386090D01*
X7503908Y4380000D01*
X7519821D01*
X7534522Y4386090D01*
X7545775Y4397342D01*
X7551864Y4412044D01*
Y4427957D01*
X7545775Y4442658D01*
X7534522Y4453910D01*
X7519821Y4460000D01*
D02*
G37*
G36*
Y4360000D02*
X7503908D01*
X7489206Y4353910D01*
X7482598Y4347302D01*
X7474364Y4344068D01*
X7466131Y4347302D01*
X7459523Y4353910D01*
X7444821Y4360000D01*
X7428908D01*
X7414206Y4353910D01*
X7410161Y4349865D01*
X7401864Y4343495D01*
X7393568Y4349865D01*
X7389522Y4353910D01*
X7374821Y4360000D01*
X7358908D01*
X7344206Y4353910D01*
X7335830Y4345534D01*
X7328114Y4343767D01*
X7320399Y4345534D01*
X7312022Y4353910D01*
X7297321Y4360000D01*
X7281408D01*
X7266706Y4353910D01*
X7260098Y4347302D01*
X7251864Y4344068D01*
X7243631Y4347302D01*
X7237022Y4353910D01*
X7222321Y4360000D01*
X7206408D01*
X7191706Y4353910D01*
X7180454Y4342658D01*
X7174364Y4327957D01*
Y4312043D01*
X7180454Y4297342D01*
X7191706Y4286090D01*
X7206408Y4280000D01*
X7222321D01*
X7237022Y4286090D01*
X7243631Y4292698D01*
X7251864Y4295932D01*
X7260098Y4292698D01*
X7266706Y4286090D01*
X7281408Y4280000D01*
X7297321D01*
X7312022Y4286090D01*
X7320399Y4294466D01*
X7328114Y4296233D01*
X7335830Y4294466D01*
X7344206Y4286090D01*
X7358908Y4280000D01*
X7374821D01*
X7389522Y4286090D01*
X7393568Y4290135D01*
X7401865Y4296505D01*
X7410161Y4290135D01*
X7414206Y4286090D01*
X7428908Y4280000D01*
X7444821D01*
X7459523Y4286090D01*
X7466131Y4292698D01*
X7474365Y4295932D01*
X7482598Y4292698D01*
X7489206Y4286090D01*
X7503908Y4280000D01*
X7519821D01*
X7534522Y4286090D01*
X7545775Y4297342D01*
X7551864Y4312043D01*
Y4327957D01*
X7545775Y4342658D01*
X7534522Y4353910D01*
X7519821Y4360000D01*
D02*
G37*
G36*
Y4260000D02*
X7503908D01*
X7489206Y4253910D01*
X7482598Y4247302D01*
X7474364Y4244068D01*
X7466131Y4247302D01*
X7459523Y4253910D01*
X7444821Y4260000D01*
X7428908D01*
X7414206Y4253910D01*
X7410161Y4249865D01*
X7401864Y4243495D01*
X7393568Y4249865D01*
X7389522Y4253910D01*
X7374821Y4260000D01*
X7358908D01*
X7344206Y4253910D01*
X7335830Y4245534D01*
X7328114Y4243767D01*
X7320399Y4245534D01*
X7312022Y4253910D01*
X7297321Y4260000D01*
X7281408D01*
X7266706Y4253910D01*
X7260098Y4247302D01*
X7251864Y4244068D01*
X7243631Y4247302D01*
X7237022Y4253910D01*
X7222321Y4260000D01*
X7206408D01*
X7191706Y4253910D01*
X7180454Y4242658D01*
X7174364Y4227956D01*
Y4212043D01*
X7180454Y4197342D01*
X7191706Y4186090D01*
X7206408Y4180000D01*
X7222321D01*
X7237022Y4186090D01*
X7243631Y4192698D01*
X7251864Y4195932D01*
X7260098Y4192698D01*
X7266706Y4186090D01*
X7281408Y4180000D01*
X7297321D01*
X7312022Y4186090D01*
X7320399Y4194466D01*
X7328114Y4196233D01*
X7335830Y4194466D01*
X7344206Y4186090D01*
X7358908Y4180000D01*
X7374821D01*
X7389522Y4186090D01*
X7393568Y4190135D01*
X7401865Y4196505D01*
X7410161Y4190135D01*
X7414206Y4186090D01*
X7428908Y4180000D01*
X7444821D01*
X7459523Y4186090D01*
X7466131Y4192698D01*
X7474365Y4195932D01*
X7482598Y4192698D01*
X7489206Y4186090D01*
X7503908Y4180000D01*
X7519821D01*
X7534522Y4186090D01*
X7545775Y4197342D01*
X7551864Y4212043D01*
Y4227956D01*
X7545775Y4242658D01*
X7534522Y4253910D01*
X7519821Y4260000D01*
D02*
G37*
G36*
X7807956Y3340000D02*
X7792043D01*
X7777342Y3333910D01*
X7766090Y3322658D01*
X7760000Y3307957D01*
Y3292043D01*
X7766090Y3277342D01*
X7777342Y3266090D01*
X7792043Y3260000D01*
X7807956D01*
X7822658Y3266090D01*
X7833910Y3277342D01*
X7840000Y3292043D01*
Y3307957D01*
X7833910Y3322658D01*
X7822658Y3333910D01*
X7807956Y3340000D01*
D02*
G37*
G36*
X7507957D02*
X7492043D01*
X7477342Y3333910D01*
X7466090Y3322658D01*
X7460000Y3307957D01*
Y3292043D01*
X7466090Y3277342D01*
X7477342Y3266090D01*
X7492043Y3260000D01*
X7507957D01*
X7522658Y3266090D01*
X7533910Y3277342D01*
X7540000Y3292043D01*
Y3307957D01*
X7533910Y3322658D01*
X7522658Y3333910D01*
X7507957Y3340000D01*
D02*
G37*
G36*
X7307956D02*
X7292043D01*
X7277342Y3333910D01*
X7266090Y3322658D01*
X7260000Y3307957D01*
Y3292043D01*
X7266090Y3277342D01*
X7277342Y3266090D01*
X7292043Y3260000D01*
X7307956D01*
X7322658Y3266090D01*
X7333910Y3277342D01*
X7340000Y3292043D01*
Y3307957D01*
X7333910Y3322658D01*
X7322658Y3333910D01*
X7307956Y3340000D01*
D02*
G37*
G36*
X5905494Y3275673D02*
X5889581D01*
X5874880Y3269583D01*
X5863627Y3258331D01*
X5861451Y3253078D01*
X5846470Y3250098D01*
X5842658Y3253910D01*
X5827957Y3260000D01*
X5812043D01*
X5797342Y3253910D01*
X5786090Y3242658D01*
X5780000Y3227956D01*
Y3212043D01*
X5786090Y3197342D01*
X5797342Y3186090D01*
X5812043Y3180000D01*
X5827957D01*
X5842658Y3186090D01*
X5853910Y3197342D01*
X5856086Y3202595D01*
X5871067Y3205575D01*
X5874880Y3201762D01*
X5889581Y3195673D01*
X5905494D01*
X5920196Y3201762D01*
X5931448Y3213015D01*
X5937538Y3227716D01*
Y3243629D01*
X5931448Y3258331D01*
X5920196Y3269583D01*
X5905494Y3275673D01*
D02*
G37*
G36*
X6127321Y3210000D02*
X6111408D01*
X6096706Y3203910D01*
X6092979Y3200183D01*
X6084682Y3193299D01*
X6076386Y3200183D01*
X6072658Y3203910D01*
X6057957Y3210000D01*
X6042044D01*
X6027342Y3203910D01*
X6016090Y3192658D01*
X6010000Y3177957D01*
Y3162043D01*
X6016090Y3147342D01*
X6027342Y3136090D01*
X6042044Y3130000D01*
X6057957D01*
X6072658Y3136090D01*
X6076386Y3139817D01*
X6084682Y3146701D01*
X6092979Y3139817D01*
X6096706Y3136090D01*
X6111408Y3130000D01*
X6127321D01*
X6142023Y3136090D01*
X6153275Y3147342D01*
X6159364Y3162043D01*
Y3177957D01*
X6153275Y3192658D01*
X6142023Y3203910D01*
X6127321Y3210000D01*
D02*
G37*
G36*
X6362957Y3272500D02*
X6347043D01*
X6332342Y3266410D01*
X6321090Y3255158D01*
X6315000Y3240456D01*
Y3224543D01*
X6321090Y3209842D01*
X6332342Y3198589D01*
X6347043Y3192500D01*
X6362957D01*
X6377658Y3198589D01*
X6388910Y3209842D01*
X6395000Y3224543D01*
Y3240456D01*
X6388910Y3255158D01*
X6377658Y3266410D01*
X6362957Y3272500D01*
D02*
G37*
G36*
X7607957Y3140000D02*
X7592043D01*
X7577342Y3133910D01*
X7566090Y3122658D01*
X7560000Y3107956D01*
Y3092043D01*
X7566090Y3077342D01*
X7577342Y3066090D01*
X7592043Y3060000D01*
X7607957D01*
X7622658Y3066090D01*
X7633910Y3077342D01*
X7640000Y3092043D01*
Y3107956D01*
X7633910Y3122658D01*
X7622658Y3133910D01*
X7607957Y3140000D01*
D02*
G37*
G36*
X6297956Y2920000D02*
X6282043D01*
X6267342Y2913910D01*
X6257198Y2903766D01*
X6250000Y2903166D01*
X6242802Y2903766D01*
X6232658Y2913910D01*
X6217957Y2920000D01*
X6202043D01*
X6187342Y2913910D01*
X6176090Y2902658D01*
X6170000Y2887957D01*
Y2872044D01*
X6176090Y2857342D01*
X6185198Y2848234D01*
X6187114Y2843356D01*
X6186234Y2832802D01*
X6178590Y2825158D01*
X6172500Y2810457D01*
Y2794544D01*
X6178590Y2779842D01*
X6189842Y2768590D01*
X6204543Y2762500D01*
X6220456D01*
X6235158Y2768590D01*
X6245302Y2778734D01*
X6252500Y2779334D01*
X6259698Y2778734D01*
X6269842Y2768590D01*
X6284543Y2762500D01*
X6300456D01*
X6315158Y2768590D01*
X6326410Y2779842D01*
X6332500Y2794544D01*
Y2810457D01*
X6326410Y2825158D01*
X6317302Y2834267D01*
X6315386Y2839144D01*
X6316266Y2849698D01*
X6323910Y2857342D01*
X6330000Y2872044D01*
Y2887957D01*
X6323910Y2902658D01*
X6312658Y2913910D01*
X6297956Y2920000D01*
D02*
G37*
G36*
X7807956Y2940000D02*
X7792043D01*
X7777342Y2933910D01*
X7766090Y2922658D01*
X7760000Y2907957D01*
Y2892043D01*
X7766090Y2877342D01*
X7777342Y2866090D01*
X7792043Y2860000D01*
X7807956D01*
X7822658Y2866090D01*
X7833910Y2877342D01*
X7840000Y2892043D01*
Y2907957D01*
X7833910Y2922658D01*
X7822658Y2933910D01*
X7807956Y2940000D01*
D02*
G37*
G36*
X7507957D02*
X7492043D01*
X7477342Y2933910D01*
X7466090Y2922658D01*
X7460000Y2907957D01*
Y2892043D01*
X7466090Y2877342D01*
X7477342Y2866090D01*
X7492043Y2860000D01*
X7507957D01*
X7522658Y2866090D01*
X7533910Y2877342D01*
X7540000Y2892043D01*
Y2907957D01*
X7533910Y2922658D01*
X7522658Y2933910D01*
X7507957Y2940000D01*
D02*
G37*
G36*
X5957957D02*
X5942043D01*
X5927342Y2933910D01*
X5916090Y2922658D01*
X5910000Y2907957D01*
Y2892043D01*
X5916090Y2877342D01*
X5927342Y2866090D01*
X5942043Y2860000D01*
X5957957D01*
X5972658Y2866090D01*
X5983910Y2877342D01*
X5990000Y2892043D01*
Y2907957D01*
X5983910Y2922658D01*
X5972658Y2933910D01*
X5957957Y2940000D01*
D02*
G37*
G36*
X6957957Y3060000D02*
X6942044D01*
X6927342Y3053910D01*
X6916090Y3042658D01*
X6910000Y3027957D01*
Y3012044D01*
X6916090Y2997342D01*
X6922698Y2990733D01*
X6925932Y2982500D01*
X6922698Y2974267D01*
X6916090Y2967658D01*
X6910000Y2952957D01*
Y2937043D01*
X6916090Y2922342D01*
X6921385Y2917047D01*
X6926031Y2908750D01*
X6921385Y2900453D01*
X6916090Y2895158D01*
X6910000Y2880457D01*
Y2864543D01*
X6916090Y2849842D01*
X6927342Y2838590D01*
X6942044Y2832500D01*
X6957957D01*
X6972658Y2838590D01*
X6983910Y2849842D01*
X6990000Y2864543D01*
Y2880457D01*
X6983910Y2895158D01*
X6978615Y2900453D01*
X6973969Y2908750D01*
X6978615Y2917047D01*
X6983910Y2922342D01*
X6990000Y2937043D01*
Y2952957D01*
X6983910Y2967658D01*
X6977302Y2974267D01*
X6974068Y2982500D01*
X6977302Y2990733D01*
X6983910Y2997342D01*
X6990000Y3012044D01*
Y3027957D01*
X6983910Y3042658D01*
X6972658Y3053910D01*
X6957957Y3060000D01*
D02*
G37*
G36*
X5827957Y2900000D02*
X5812043D01*
X5797342Y2893910D01*
X5786090Y2882658D01*
X5780000Y2867957D01*
Y2852044D01*
X5786090Y2837342D01*
X5797342Y2826090D01*
X5812043Y2820000D01*
X5827957D01*
X5842658Y2826090D01*
X5853910Y2837342D01*
X5860000Y2852044D01*
Y2867957D01*
X5853910Y2882658D01*
X5842658Y2893910D01*
X5827957Y2900000D01*
D02*
G37*
G36*
X4997321Y2810000D02*
X4981408D01*
X4966706Y2803910D01*
X4955454Y2792658D01*
X4949364Y2777957D01*
Y2762043D01*
X4955454Y2747342D01*
X4966706Y2736090D01*
X4981408Y2730000D01*
X4997321D01*
X5012022Y2736090D01*
X5023275Y2747342D01*
X5029364Y2762043D01*
Y2777957D01*
X5023275Y2792658D01*
X5012022Y2803910D01*
X4997321Y2810000D01*
D02*
G37*
G36*
X7852957Y2770000D02*
X7837044D01*
X7822342Y2763910D01*
X7811090Y2752658D01*
X7805000Y2737956D01*
Y2722043D01*
X7811090Y2707342D01*
X7822342Y2696090D01*
X7837044Y2690000D01*
X7852957D01*
X7867658Y2696090D01*
X7878910Y2707342D01*
X7885000Y2722043D01*
Y2737956D01*
X7878910Y2752658D01*
X7867658Y2763910D01*
X7852957Y2770000D01*
D02*
G37*
G36*
X6684821Y2720000D02*
X6668908D01*
X6654206Y2713910D01*
X6642954Y2702658D01*
X6636864Y2687957D01*
Y2672043D01*
X6642954Y2657342D01*
X6654206Y2646090D01*
X6668908Y2640000D01*
X6684821D01*
X6699522Y2646090D01*
X6710774Y2657342D01*
X6716864Y2672043D01*
Y2687957D01*
X6710774Y2702658D01*
X6699522Y2713910D01*
X6684821Y2720000D01*
D02*
G37*
G36*
X7471462Y2733000D02*
X7453689D01*
X7436522Y2728400D01*
X7421130Y2719513D01*
X7408563Y2706946D01*
X7399676Y2691554D01*
X7395076Y2674386D01*
Y2656613D01*
X7399676Y2639446D01*
X7408563Y2624054D01*
X7421130Y2611487D01*
X7436522Y2602600D01*
X7453689Y2598000D01*
X7471462D01*
X7488630Y2602600D01*
X7504022Y2611487D01*
X7516589Y2624054D01*
X7525476Y2639446D01*
X7530076Y2656613D01*
Y2674386D01*
X7525476Y2691554D01*
X7516589Y2706946D01*
X7504022Y2719513D01*
X7488630Y2728400D01*
X7471462Y2733000D01*
D02*
G37*
G36*
X7855456Y2642500D02*
X7839543D01*
X7824842Y2636410D01*
X7813590Y2625158D01*
X7807500Y2610457D01*
Y2594543D01*
X7813590Y2579842D01*
X7824842Y2568590D01*
X7839543Y2562500D01*
X7855456D01*
X7870158Y2568590D01*
X7881410Y2579842D01*
X7887500Y2594543D01*
Y2610457D01*
X7881410Y2625158D01*
X7870158Y2636410D01*
X7855456Y2642500D01*
D02*
G37*
G36*
X7852957Y2515000D02*
X7837044D01*
X7822342Y2508910D01*
X7811090Y2497658D01*
X7805000Y2482956D01*
Y2467043D01*
X7811090Y2452342D01*
X7822342Y2441090D01*
X7837044Y2435000D01*
X7852957D01*
X7867658Y2441090D01*
X7878910Y2452342D01*
X7885000Y2467043D01*
Y2482956D01*
X7878910Y2497658D01*
X7867658Y2508910D01*
X7852957Y2515000D01*
D02*
G37*
G36*
X6617957Y2340000D02*
X6602043D01*
X6587342Y2333910D01*
X6576090Y2322658D01*
X6570000Y2307957D01*
Y2292043D01*
X6576090Y2277342D01*
X6587342Y2266090D01*
X6602043Y2260000D01*
X6617957D01*
X6632658Y2266090D01*
X6643910Y2277342D01*
X6650000Y2292043D01*
Y2307957D01*
X6643910Y2322658D01*
X6632658Y2333910D01*
X6617957Y2340000D01*
D02*
G37*
G36*
X5652321D02*
X5636408D01*
X5621706Y2333910D01*
X5610454Y2322658D01*
X5604364Y2307957D01*
Y2292043D01*
X5610454Y2277342D01*
X5621706Y2266090D01*
X5636408Y2260000D01*
X5652321D01*
X5667022Y2266090D01*
X5678275Y2277342D01*
X5684364Y2292043D01*
Y2307957D01*
X5678275Y2322658D01*
X5667022Y2333910D01*
X5652321Y2340000D01*
D02*
G37*
G36*
X7471462Y2352000D02*
X7453689D01*
X7436522Y2347400D01*
X7421130Y2338513D01*
X7408563Y2325946D01*
X7399676Y2310554D01*
X7395076Y2293386D01*
Y2275613D01*
X7399676Y2258446D01*
X7408563Y2243054D01*
X7421130Y2230487D01*
X7436522Y2221600D01*
X7453689Y2217000D01*
X7471462D01*
X7488630Y2221600D01*
X7504022Y2230487D01*
X7516589Y2243054D01*
X7525476Y2258446D01*
X7530076Y2275613D01*
Y2293386D01*
X7525476Y2310554D01*
X7516589Y2325946D01*
X7504022Y2338513D01*
X7488630Y2347400D01*
X7471462Y2352000D01*
D02*
G37*
G36*
X7845456Y2265000D02*
X7829543D01*
X7814842Y2258910D01*
X7803590Y2247658D01*
X7797500Y2232957D01*
Y2217044D01*
X7803590Y2202342D01*
X7814842Y2191090D01*
X7829543Y2185000D01*
X7845456D01*
X7860158Y2191090D01*
X7871410Y2202342D01*
X7877500Y2217044D01*
Y2232957D01*
X7871410Y2247658D01*
X7860158Y2258910D01*
X7845456Y2265000D01*
D02*
G37*
G36*
X5130605Y2173284D02*
X5114692D01*
X5099991Y2167195D01*
X5088739Y2155943D01*
X5082649Y2141241D01*
Y2125328D01*
X5088739Y2110626D01*
X5099991Y2099374D01*
X5114692Y2093285D01*
X5130605D01*
X5145307Y2099374D01*
X5156559Y2110626D01*
X5162649Y2125328D01*
Y2141241D01*
X5156559Y2155943D01*
X5145307Y2167195D01*
X5130605Y2173284D01*
D02*
G37*
G36*
X7607957Y2140000D02*
X7592043D01*
X7577342Y2133910D01*
X7566090Y2122658D01*
X7560000Y2107957D01*
Y2092044D01*
X7566090Y2077342D01*
X7577342Y2066090D01*
X7592043Y2060000D01*
X7607957D01*
X7622658Y2066090D01*
X7633910Y2077342D01*
X7640000Y2092044D01*
Y2107957D01*
X7633910Y2122658D01*
X7622658Y2133910D01*
X7607957Y2140000D01*
D02*
G37*
G36*
X7207957D02*
X7192044D01*
X7177342Y2133910D01*
X7166090Y2122658D01*
X7160000Y2107957D01*
Y2092044D01*
X7166090Y2077342D01*
X7177342Y2066090D01*
X7192044Y2060000D01*
X7207957D01*
X7222658Y2066090D01*
X7233910Y2077342D01*
X7240000Y2092044D01*
Y2107957D01*
X7233910Y2122658D01*
X7222658Y2133910D01*
X7207957Y2140000D01*
D02*
G37*
G36*
X6777321Y2050000D02*
X6761408D01*
X6746706Y2043910D01*
X6735454Y2032658D01*
X6729364Y2017957D01*
Y2002043D01*
X6735454Y1987342D01*
X6746706Y1976090D01*
X6761408Y1970000D01*
X6777321D01*
X6792022Y1976090D01*
X6803275Y1987342D01*
X6809364Y2002043D01*
Y2017957D01*
X6803275Y2032658D01*
X6792022Y2043910D01*
X6777321Y2050000D01*
D02*
G37*
G36*
X7807956Y1940000D02*
X7792043D01*
X7777342Y1933910D01*
X7766090Y1922658D01*
X7760000Y1907957D01*
Y1892043D01*
X7766090Y1877342D01*
X7777342Y1866090D01*
X7792043Y1860000D01*
X7807956D01*
X7822658Y1866090D01*
X7833910Y1877342D01*
X7840000Y1892043D01*
Y1907957D01*
X7833910Y1922658D01*
X7822658Y1933910D01*
X7807956Y1940000D01*
D02*
G37*
G36*
X7607957D02*
X7592043D01*
X7577342Y1933910D01*
X7566090Y1922658D01*
X7560000Y1907957D01*
Y1892043D01*
X7566090Y1877342D01*
X7577342Y1866090D01*
X7592043Y1860000D01*
X7607957D01*
X7622658Y1866090D01*
X7633910Y1877342D01*
X7640000Y1892043D01*
Y1907957D01*
X7633910Y1922658D01*
X7622658Y1933910D01*
X7607957Y1940000D01*
D02*
G37*
G36*
X7407956D02*
X7392043D01*
X7377342Y1933910D01*
X7366090Y1922658D01*
X7360000Y1907957D01*
Y1892043D01*
X7366090Y1877342D01*
X7377342Y1866090D01*
X7392043Y1860000D01*
X7407956D01*
X7422658Y1866090D01*
X7433910Y1877342D01*
X7440000Y1892043D01*
Y1907957D01*
X7433910Y1922658D01*
X7422658Y1933910D01*
X7407956Y1940000D01*
D02*
G37*
G36*
X7207957Y1740000D02*
X7192044D01*
X7177342Y1733910D01*
X7166090Y1722658D01*
X7160000Y1707956D01*
Y1692043D01*
X7166090Y1677342D01*
X7177342Y1666090D01*
X7192044Y1660000D01*
X7207957D01*
X7222658Y1666090D01*
X7233910Y1677342D01*
X7240000Y1692043D01*
Y1707956D01*
X7233910Y1722658D01*
X7222658Y1733910D01*
X7207957Y1740000D01*
D02*
G37*
G36*
X6907956Y1540000D02*
X6892043D01*
X6877342Y1533910D01*
X6866090Y1522658D01*
X6860000Y1507957D01*
Y1492043D01*
X6866090Y1477342D01*
X6877342Y1466090D01*
X6892043Y1460000D01*
X6907956D01*
X6922658Y1466090D01*
X6933910Y1477342D01*
X6940000Y1492043D01*
Y1507957D01*
X6933910Y1522658D01*
X6922658Y1533910D01*
X6907956Y1540000D01*
D02*
G37*
G36*
X6627321Y2640000D02*
X6611408D01*
X6596706Y2633910D01*
X6585454Y2622658D01*
X6579364Y2607956D01*
Y2592043D01*
X6585454Y2577342D01*
X6592063Y2570733D01*
X6593029Y2559142D01*
X6590964Y2555239D01*
X6581919Y2546194D01*
X6575829Y2531492D01*
Y2515579D01*
X6576727Y2513411D01*
X6543570Y2480253D01*
X6543569Y2480253D01*
X6454476Y2391160D01*
X6448951Y2382891D01*
X6447010Y2373136D01*
Y1555558D01*
X6296097Y1404645D01*
X6283510Y1410019D01*
X6278274Y1422658D01*
X6267022Y1433910D01*
X6252321Y1440000D01*
X6236408D01*
X6221706Y1433910D01*
X6210454Y1422658D01*
X6204364Y1407957D01*
Y1392043D01*
X6210454Y1377342D01*
X6221706Y1366090D01*
X6234346Y1360854D01*
X6239719Y1348267D01*
X5506976Y615524D01*
X5501451Y607255D01*
X5499510Y597500D01*
Y586310D01*
X5486810Y582907D01*
X5483021Y589471D01*
X5463471Y609021D01*
X5439528Y622844D01*
X5412823Y630000D01*
X5385176D01*
X5358471Y622844D01*
X5334529Y609021D01*
X5314979Y589471D01*
X5301156Y565528D01*
X5294000Y538823D01*
Y511177D01*
X5301156Y484471D01*
X5314979Y460529D01*
X5334529Y440979D01*
X5358471Y427156D01*
X5385176Y420000D01*
X5412823D01*
X5439528Y427156D01*
X5463471Y440979D01*
X5483021Y460529D01*
X5486810Y467093D01*
X5499510Y463690D01*
Y407558D01*
X5453012Y361059D01*
X5439528Y368844D01*
X5412823Y376000D01*
X5385176D01*
X5358471Y368844D01*
X5334529Y355021D01*
X5314979Y335471D01*
X5301156Y311528D01*
X5294000Y284823D01*
Y257177D01*
X5301156Y230471D01*
X5314979Y206529D01*
X5334529Y186979D01*
X5358471Y173156D01*
X5385176Y166000D01*
X5412823D01*
X5439528Y173156D01*
X5463471Y186979D01*
X5483021Y206529D01*
X5496844Y230471D01*
X5504000Y257177D01*
Y284823D01*
X5496844Y311528D01*
X5489059Y325012D01*
X5543024Y378976D01*
X5548549Y387246D01*
X5550490Y397000D01*
Y467153D01*
X5563190Y470556D01*
X5568979Y460529D01*
X5588529Y440979D01*
X5612471Y427156D01*
X5639176Y420000D01*
X5666823D01*
X5693528Y427156D01*
X5717471Y440979D01*
X5737021Y460529D01*
X5741810Y468825D01*
X5754510Y465422D01*
Y408558D01*
X5707012Y361059D01*
X5693528Y368844D01*
X5666823Y376000D01*
X5639176D01*
X5612471Y368844D01*
X5588529Y355021D01*
X5568979Y335471D01*
X5555156Y311528D01*
X5548000Y284823D01*
Y257177D01*
X5555156Y230471D01*
X5568979Y206529D01*
X5588529Y186979D01*
X5612471Y173156D01*
X5639176Y166000D01*
X5666823D01*
X5693528Y173156D01*
X5717471Y186979D01*
X5737021Y206529D01*
X5750844Y230471D01*
X5758000Y257177D01*
Y284823D01*
X5750844Y311528D01*
X5743059Y325012D01*
X5798024Y379976D01*
X5803549Y388246D01*
X5805490Y398000D01*
Y465421D01*
X5818190Y468824D01*
X5822979Y460529D01*
X5842529Y440979D01*
X5866471Y427156D01*
X5893176Y420000D01*
X5920823D01*
X5947528Y427156D01*
X5971471Y440979D01*
X5991021Y460529D01*
X6004844Y484471D01*
X6012000Y511177D01*
Y538823D01*
X6004844Y565528D01*
X5991021Y589471D01*
X5971471Y609021D01*
X5947528Y622844D01*
X5920823Y630000D01*
X5893176D01*
X5866471Y622844D01*
X5842529Y609021D01*
X5822979Y589471D01*
X5818190Y581176D01*
X5805490Y584579D01*
Y776942D01*
X6525524Y1496976D01*
X6531049Y1505245D01*
X6532989Y1515000D01*
Y2306942D01*
X6698024Y2471976D01*
X6703549Y2480245D01*
X6705490Y2490000D01*
Y2560000D01*
X6703549Y2569755D01*
X6698024Y2578024D01*
X6663764Y2612284D01*
X6655495Y2617809D01*
X6655264Y2617855D01*
X6653274Y2622658D01*
X6642022Y2633910D01*
X6627321Y2640000D01*
D02*
G37*
G36*
X6110456Y1440000D02*
X6094543D01*
X6079842Y1433910D01*
X6068590Y1422658D01*
X6062500Y1407957D01*
Y1392043D01*
X6068590Y1377342D01*
X6079842Y1366090D01*
X6094543Y1360000D01*
X6110456D01*
X6125158Y1366090D01*
X6136410Y1377342D01*
X6142500Y1392043D01*
Y1407957D01*
X6136410Y1422658D01*
X6125158Y1433910D01*
X6110456Y1440000D01*
D02*
G37*
G36*
X5962321D02*
X5946408D01*
X5931706Y1433910D01*
X5920454Y1422658D01*
X5914364Y1407957D01*
Y1392043D01*
X5920454Y1377342D01*
X5931706Y1366090D01*
X5946408Y1360000D01*
X5962321D01*
X5977022Y1366090D01*
X5988275Y1377342D01*
X5994364Y1392043D01*
Y1407957D01*
X5988275Y1422658D01*
X5977022Y1433910D01*
X5962321Y1440000D01*
D02*
G37*
G36*
X5634821D02*
X5618908D01*
X5604206Y1433910D01*
X5592954Y1422658D01*
X5586865Y1407957D01*
Y1392043D01*
X5592954Y1377342D01*
X5604206Y1366090D01*
X5618908Y1360000D01*
X5634821D01*
X5649523Y1366090D01*
X5660775Y1377342D01*
X5666864Y1392043D01*
Y1407957D01*
X5660775Y1422658D01*
X5649523Y1433910D01*
X5634821Y1440000D01*
D02*
G37*
G36*
X4801326Y1340000D02*
X4787402D01*
X4774538Y1334671D01*
X4764693Y1324826D01*
X4759364Y1311962D01*
Y1298038D01*
X4764693Y1285174D01*
X4774538Y1275328D01*
X4787402Y1270000D01*
X4801326D01*
X4814190Y1275328D01*
X4824036Y1285174D01*
X4829364Y1298038D01*
Y1311962D01*
X4824036Y1324826D01*
X4814190Y1334671D01*
X4801326Y1340000D01*
D02*
G37*
G36*
X5917321Y1300000D02*
X5901408D01*
X5886706Y1293910D01*
X5875454Y1282658D01*
X5869364Y1267957D01*
Y1252043D01*
X5875454Y1237342D01*
X5886706Y1226090D01*
X5901408Y1220000D01*
X5917321D01*
X5932022Y1226090D01*
X5943275Y1237342D01*
X5949364Y1252043D01*
Y1267957D01*
X5943275Y1282658D01*
X5932022Y1293910D01*
X5917321Y1300000D01*
D02*
G37*
G36*
X4801326Y1230000D02*
X4787402D01*
X4774538Y1224672D01*
X4764693Y1214826D01*
X4759364Y1201962D01*
Y1188038D01*
X4764693Y1175174D01*
X4774538Y1165329D01*
X4787402Y1160000D01*
X4801326D01*
X4814190Y1165329D01*
X4824036Y1175174D01*
X4829364Y1188038D01*
Y1201962D01*
X4824036Y1214826D01*
X4814190Y1224672D01*
X4801326Y1230000D01*
D02*
G37*
G36*
X6607957Y1240000D02*
X6592043D01*
X6577342Y1233910D01*
X6566090Y1222658D01*
X6560000Y1207956D01*
Y1192043D01*
X6566090Y1177342D01*
X6577342Y1166090D01*
X6592043Y1160000D01*
X6607957D01*
X6622658Y1166090D01*
X6633910Y1177342D01*
X6640000Y1192043D01*
Y1207956D01*
X6633910Y1222658D01*
X6622658Y1233910D01*
X6607957Y1240000D01*
D02*
G37*
G36*
X7207957Y1040000D02*
X7192044D01*
X7177342Y1033910D01*
X7166090Y1022658D01*
X7160000Y1007957D01*
Y992043D01*
X7166090Y977342D01*
X7177342Y966090D01*
X7192044Y960000D01*
X7207957D01*
X7222658Y966090D01*
X7233910Y977342D01*
X7240000Y992043D01*
Y1007957D01*
X7233910Y1022658D01*
X7222658Y1033910D01*
X7207957Y1040000D01*
D02*
G37*
G36*
X6807957D02*
X6792044D01*
X6777342Y1033910D01*
X6766090Y1022658D01*
X6760000Y1007957D01*
Y992043D01*
X6766090Y977342D01*
X6777342Y966090D01*
X6792044Y960000D01*
X6807957D01*
X6822658Y966090D01*
X6833910Y977342D01*
X6840000Y992043D01*
Y1007957D01*
X6833910Y1022658D01*
X6822658Y1033910D01*
X6807957Y1040000D01*
D02*
G37*
G36*
X6407956D02*
X6392043D01*
X6377342Y1033910D01*
X6366090Y1022658D01*
X6360000Y1007957D01*
Y992043D01*
X6366090Y977342D01*
X6377342Y966090D01*
X6392043Y960000D01*
X6407956D01*
X6422658Y966090D01*
X6433910Y977342D01*
X6440000Y992043D01*
Y1007957D01*
X6433910Y1022658D01*
X6422658Y1033910D01*
X6407956Y1040000D01*
D02*
G37*
G36*
X5507956Y940000D02*
X5492043D01*
X5477342Y933910D01*
X5466090Y922658D01*
X5460000Y907957D01*
Y892043D01*
X5466090Y877342D01*
X5477342Y866090D01*
X5492043Y860000D01*
X5507956D01*
X5522658Y866090D01*
X5533910Y877342D01*
X5540000Y892043D01*
Y907957D01*
X5533910Y922658D01*
X5522658Y933910D01*
X5507956Y940000D01*
D02*
G37*
G36*
X5107957D02*
X5092043D01*
X5077342Y933910D01*
X5066090Y922658D01*
X5060000Y907957D01*
Y892043D01*
X5066090Y877342D01*
X5077342Y866090D01*
X5092043Y860000D01*
X5107957D01*
X5122658Y866090D01*
X5133910Y877342D01*
X5140000Y892043D01*
Y907957D01*
X5133910Y922658D01*
X5122658Y933910D01*
X5107957Y940000D01*
D02*
G37*
G36*
X7407956Y840000D02*
X7392043D01*
X7377342Y833910D01*
X7366090Y822658D01*
X7360000Y807956D01*
Y792043D01*
X7366090Y777342D01*
X7377342Y766090D01*
X7392043Y760000D01*
X7407956D01*
X7422658Y766090D01*
X7433910Y777342D01*
X7440000Y792043D01*
Y807956D01*
X7433910Y822658D01*
X7422658Y833910D01*
X7407956Y840000D01*
D02*
G37*
G36*
X7007957D02*
X6992043D01*
X6977342Y833910D01*
X6966090Y822658D01*
X6960000Y807956D01*
Y792043D01*
X6966090Y777342D01*
X6977342Y766090D01*
X6992043Y760000D01*
X7007957D01*
X7022658Y766090D01*
X7033910Y777342D01*
X7040000Y792043D01*
Y807956D01*
X7033910Y822658D01*
X7022658Y833910D01*
X7007957Y840000D01*
D02*
G37*
G36*
X6607957D02*
X6592043D01*
X6577342Y833910D01*
X6566090Y822658D01*
X6560000Y807956D01*
Y792043D01*
X6566090Y777342D01*
X6577342Y766090D01*
X6592043Y760000D01*
X6607957D01*
X6622658Y766090D01*
X6633910Y777342D01*
X6640000Y792043D01*
Y807956D01*
X6633910Y822658D01*
X6622658Y833910D01*
X6607957Y840000D01*
D02*
G37*
G36*
X6207957D02*
X6192043D01*
X6177342Y833910D01*
X6166090Y822658D01*
X6160000Y807956D01*
Y792043D01*
X6166090Y777342D01*
X6177342Y766090D01*
X6192043Y760000D01*
X6207957D01*
X6222658Y766090D01*
X6233910Y777342D01*
X6240000Y792043D01*
Y807956D01*
X6233910Y822658D01*
X6222658Y833910D01*
X6207957Y840000D01*
D02*
G37*
G36*
X5307957D02*
X5292044D01*
X5277342Y833910D01*
X5266090Y822658D01*
X5260000Y807956D01*
Y792043D01*
X5266090Y777342D01*
X5277342Y766090D01*
X5292044Y760000D01*
X5307957D01*
X5322658Y766090D01*
X5333910Y777342D01*
X5340000Y792043D01*
Y807956D01*
X5333910Y822658D01*
X5322658Y833910D01*
X5307957Y840000D01*
D02*
G37*
G36*
X4907957D02*
X4892044D01*
X4877342Y833910D01*
X4866090Y822658D01*
X4860000Y807956D01*
Y792043D01*
X4866090Y777342D01*
X4877342Y766090D01*
X4892044Y760000D01*
X4907957D01*
X4922658Y766090D01*
X4933910Y777342D01*
X4940000Y792043D01*
Y807956D01*
X4933910Y822658D01*
X4922658Y833910D01*
X4907957Y840000D01*
D02*
G37*
G36*
X7207957Y640000D02*
X7192044D01*
X7177342Y633910D01*
X7166090Y622658D01*
X7160000Y607957D01*
Y592044D01*
X7166090Y577342D01*
X7177342Y566090D01*
X7192044Y560000D01*
X7207957D01*
X7222658Y566090D01*
X7233910Y577342D01*
X7240000Y592044D01*
Y607957D01*
X7233910Y622658D01*
X7222658Y633910D01*
X7207957Y640000D01*
D02*
G37*
G36*
X6807957D02*
X6792044D01*
X6777342Y633910D01*
X6766090Y622658D01*
X6760000Y607957D01*
Y592044D01*
X6766090Y577342D01*
X6777342Y566090D01*
X6792044Y560000D01*
X6807957D01*
X6822658Y566090D01*
X6833910Y577342D01*
X6840000Y592044D01*
Y607957D01*
X6833910Y622658D01*
X6822658Y633910D01*
X6807957Y640000D01*
D02*
G37*
G36*
X6428823Y630000D02*
X6401176D01*
X6374471Y622844D01*
X6350529Y609021D01*
X6330979Y589471D01*
X6317156Y565528D01*
X6310000Y538823D01*
Y511177D01*
X6317156Y484471D01*
X6330979Y460529D01*
X6350529Y440979D01*
X6374471Y427156D01*
X6401176Y420000D01*
X6428823D01*
X6455528Y427156D01*
X6479471Y440979D01*
X6499021Y460529D01*
X6512844Y484471D01*
X6520000Y511177D01*
Y538823D01*
X6512844Y565528D01*
X6499021Y589471D01*
X6479471Y609021D01*
X6455528Y622844D01*
X6428823Y630000D01*
D02*
G37*
G36*
X6174823D02*
X6147176D01*
X6120471Y622844D01*
X6096529Y609021D01*
X6076979Y589471D01*
X6063156Y565528D01*
X6056000Y538823D01*
Y511177D01*
X6063156Y484471D01*
X6076979Y460529D01*
X6096529Y440979D01*
X6120471Y427156D01*
X6147176Y420000D01*
X6174823D01*
X6201528Y427156D01*
X6225471Y440979D01*
X6245021Y460529D01*
X6258844Y484471D01*
X6266000Y511177D01*
Y538823D01*
X6258844Y565528D01*
X6245021Y589471D01*
X6225471Y609021D01*
X6201528Y622844D01*
X6174823Y630000D01*
D02*
G37*
G36*
X5158823D02*
X5131176D01*
X5104471Y622844D01*
X5080529Y609021D01*
X5060979Y589471D01*
X5047156Y565528D01*
X5040000Y538823D01*
Y511177D01*
X5047156Y484471D01*
X5060979Y460529D01*
X5080529Y440979D01*
X5104471Y427156D01*
X5131176Y420000D01*
X5158823D01*
X5185528Y427156D01*
X5209471Y440979D01*
X5229021Y460529D01*
X5242844Y484471D01*
X5250000Y511177D01*
Y538823D01*
X5242844Y565528D01*
X5229021Y589471D01*
X5209471Y609021D01*
X5185528Y622844D01*
X5158823Y630000D01*
D02*
G37*
G36*
X4904823D02*
X4877176D01*
X4850471Y622844D01*
X4826529Y609021D01*
X4806979Y589471D01*
X4793156Y565528D01*
X4786000Y538823D01*
Y511177D01*
X4793156Y484471D01*
X4806979Y460529D01*
X4826529Y440979D01*
X4850471Y427156D01*
X4877176Y420000D01*
X4904823D01*
X4931528Y427156D01*
X4955471Y440979D01*
X4975021Y460529D01*
X4988844Y484471D01*
X4996000Y511177D01*
Y538823D01*
X4988844Y565528D01*
X4975021Y589471D01*
X4955471Y609021D01*
X4931528Y622844D01*
X4904823Y630000D01*
D02*
G37*
G36*
X7007957Y440000D02*
X6992043D01*
X6977342Y433910D01*
X6966090Y422658D01*
X6960000Y407957D01*
Y392043D01*
X6966090Y377342D01*
X6977342Y366090D01*
X6992043Y360000D01*
X7007957D01*
X7022658Y366090D01*
X7033910Y377342D01*
X7040000Y392043D01*
Y407957D01*
X7033910Y422658D01*
X7022658Y433910D01*
X7007957Y440000D01*
D02*
G37*
G36*
X6607957D02*
X6592043D01*
X6577342Y433910D01*
X6566090Y422658D01*
X6560000Y407957D01*
Y392043D01*
X6566090Y377342D01*
X6577342Y366090D01*
X6592043Y360000D01*
X6607957D01*
X6622658Y366090D01*
X6633910Y377342D01*
X6640000Y392043D01*
Y407957D01*
X6633910Y422658D01*
X6622658Y433910D01*
X6607957Y440000D01*
D02*
G37*
G36*
X7615759Y621810D02*
X7584242D01*
X7578332Y620635D01*
X7572307D01*
X7541395Y614486D01*
X7535828Y612180D01*
X7529919Y611005D01*
X7500801Y598943D01*
X7495791Y595596D01*
X7490225Y593290D01*
X7464019Y575780D01*
X7459758Y571520D01*
X7454749Y568172D01*
X7432463Y545886D01*
X7429115Y540877D01*
X7424855Y536616D01*
X7407345Y510410D01*
X7405039Y504844D01*
X7401692Y499834D01*
X7389630Y470716D01*
X7388455Y464806D01*
X7386149Y459240D01*
X7380000Y428328D01*
Y422303D01*
X7378825Y416393D01*
Y384876D01*
X7380000Y378966D01*
Y372942D01*
X7386149Y342030D01*
X7388455Y336463D01*
X7389630Y330553D01*
X7401692Y301436D01*
X7405039Y296426D01*
X7407345Y290859D01*
X7424855Y264654D01*
X7429115Y260393D01*
X7432463Y255383D01*
X7454749Y233097D01*
X7459758Y229750D01*
X7464019Y225489D01*
X7490225Y207979D01*
X7495791Y205673D01*
X7500801Y202326D01*
X7529919Y190265D01*
X7535829Y189090D01*
X7541395Y186784D01*
X7572307Y180635D01*
X7578332D01*
X7584242Y179460D01*
X7615759D01*
X7621669Y180635D01*
X7627693D01*
X7658605Y186784D01*
X7664172Y189090D01*
X7670082Y190265D01*
X7699199Y202326D01*
X7704209Y205673D01*
X7709776Y207979D01*
X7735981Y225489D01*
X7740242Y229750D01*
X7745252Y233097D01*
X7767538Y255383D01*
X7770885Y260393D01*
X7775146Y264654D01*
X7792656Y290859D01*
X7794962Y296426D01*
X7798309Y301436D01*
X7810370Y330554D01*
X7811545Y336463D01*
X7813851Y342030D01*
X7820000Y372941D01*
Y378967D01*
X7821176Y384876D01*
Y416393D01*
X7820000Y422303D01*
Y428328D01*
X7813851Y459240D01*
X7811545Y464807D01*
X7810370Y470716D01*
X7798309Y499834D01*
X7794962Y504844D01*
X7792656Y510410D01*
X7775146Y536616D01*
X7770885Y540877D01*
X7767538Y545886D01*
X7745252Y568172D01*
X7740242Y571520D01*
X7735981Y575780D01*
X7709776Y593290D01*
X7704209Y595596D01*
X7699199Y598943D01*
X7670081Y611005D01*
X7664172Y612180D01*
X7658605Y614486D01*
X7627694Y620635D01*
X7621668D01*
X7615759Y621810D01*
D02*
G37*
G36*
X6428823Y376000D02*
X6401176D01*
X6374471Y368844D01*
X6350529Y355021D01*
X6330979Y335471D01*
X6317156Y311528D01*
X6310000Y284823D01*
Y257177D01*
X6317156Y230471D01*
X6330979Y206529D01*
X6350529Y186979D01*
X6374471Y173156D01*
X6401176Y166000D01*
X6428823D01*
X6455528Y173156D01*
X6479471Y186979D01*
X6499021Y206529D01*
X6512844Y230471D01*
X6520000Y257177D01*
Y284823D01*
X6512844Y311528D01*
X6499021Y335471D01*
X6479471Y355021D01*
X6455528Y368844D01*
X6428823Y376000D01*
D02*
G37*
G36*
X6174823D02*
X6147176D01*
X6120471Y368844D01*
X6096529Y355021D01*
X6076979Y335471D01*
X6063156Y311528D01*
X6056000Y284823D01*
Y257177D01*
X6063156Y230471D01*
X6076979Y206529D01*
X6096529Y186979D01*
X6120471Y173156D01*
X6147176Y166000D01*
X6174823D01*
X6201528Y173156D01*
X6225471Y186979D01*
X6245021Y206529D01*
X6258844Y230471D01*
X6266000Y257177D01*
Y284823D01*
X6258844Y311528D01*
X6245021Y335471D01*
X6225471Y355021D01*
X6201528Y368844D01*
X6174823Y376000D01*
D02*
G37*
G36*
X5920823D02*
X5893176D01*
X5866471Y368844D01*
X5842529Y355021D01*
X5822979Y335471D01*
X5809156Y311528D01*
X5802000Y284823D01*
Y257177D01*
X5809156Y230471D01*
X5822979Y206529D01*
X5842529Y186979D01*
X5866471Y173156D01*
X5893176Y166000D01*
X5920823D01*
X5947528Y173156D01*
X5971471Y186979D01*
X5991021Y206529D01*
X6004844Y230471D01*
X6012000Y257177D01*
Y284823D01*
X6004844Y311528D01*
X5991021Y335471D01*
X5971471Y355021D01*
X5947528Y368844D01*
X5920823Y376000D01*
D02*
G37*
G36*
X5158823D02*
X5131176D01*
X5104471Y368844D01*
X5080529Y355021D01*
X5060979Y335471D01*
X5047156Y311528D01*
X5040000Y284823D01*
Y257177D01*
X5047156Y230471D01*
X5060979Y206529D01*
X5080529Y186979D01*
X5104471Y173156D01*
X5131176Y166000D01*
X5158823D01*
X5185528Y173156D01*
X5209471Y186979D01*
X5229021Y206529D01*
X5242844Y230471D01*
X5250000Y257177D01*
Y284823D01*
X5242844Y311528D01*
X5229021Y335471D01*
X5209471Y355021D01*
X5185528Y368844D01*
X5158823Y376000D01*
D02*
G37*
G36*
X4904823D02*
X4877176D01*
X4850471Y368844D01*
X4826529Y355021D01*
X4806979Y335471D01*
X4793156Y311528D01*
X4786000Y284823D01*
Y257177D01*
X4793156Y230471D01*
X4806979Y206529D01*
X4826529Y186979D01*
X4850471Y173156D01*
X4877176Y166000D01*
X4904823D01*
X4931528Y173156D01*
X4955471Y186979D01*
X4975021Y206529D01*
X4988844Y230471D01*
X4996000Y257177D01*
Y284823D01*
X4988844Y311528D01*
X4975021Y335471D01*
X4955471Y355021D01*
X4931528Y368844D01*
X4904823Y376000D01*
D02*
G37*
G36*
X7207957Y240000D02*
X7192044D01*
X7177342Y233910D01*
X7166090Y222658D01*
X7160000Y207957D01*
Y192044D01*
X7166090Y177342D01*
X7177342Y166090D01*
X7192044Y160000D01*
X7207957D01*
X7222658Y166090D01*
X7233910Y177342D01*
X7240000Y192044D01*
Y207957D01*
X7233910Y222658D01*
X7222658Y233910D01*
X7207957Y240000D01*
D02*
G37*
G36*
X6807957D02*
X6792044D01*
X6777342Y233910D01*
X6766090Y222658D01*
X6760000Y207957D01*
Y192044D01*
X6766090Y177342D01*
X6777342Y166090D01*
X6792044Y160000D01*
X6807957D01*
X6822658Y166090D01*
X6833910Y177342D01*
X6840000Y192044D01*
Y207957D01*
X6833910Y222658D01*
X6822658Y233910D01*
X6807957Y240000D01*
D02*
G37*
G36*
X7615759Y7821810D02*
X7584242D01*
X7578332Y7820635D01*
X7572307D01*
X7541395Y7814486D01*
X7535828Y7812180D01*
X7529919Y7811005D01*
X7500801Y7798944D01*
X7495791Y7795596D01*
X7490225Y7793290D01*
X7464019Y7775780D01*
X7459758Y7771520D01*
X7454749Y7768172D01*
X7432463Y7745886D01*
X7429115Y7740877D01*
X7424855Y7736616D01*
X7407345Y7710411D01*
X7405039Y7704844D01*
X7401692Y7699834D01*
X7389630Y7670716D01*
X7388455Y7664806D01*
X7386149Y7659240D01*
X7380000Y7628328D01*
Y7622303D01*
X7378825Y7616393D01*
Y7584876D01*
X7380000Y7578967D01*
Y7572942D01*
X7386149Y7542030D01*
X7388455Y7536463D01*
X7389630Y7530553D01*
X7401692Y7501436D01*
X7405039Y7496426D01*
X7407345Y7490860D01*
X7424855Y7464654D01*
X7429115Y7460393D01*
X7432463Y7455383D01*
X7454749Y7433097D01*
X7459758Y7429750D01*
X7464019Y7425489D01*
X7490225Y7407979D01*
X7495791Y7405674D01*
X7500801Y7402326D01*
X7529919Y7390265D01*
X7535829Y7389090D01*
X7541395Y7386784D01*
X7572307Y7380635D01*
X7578332D01*
X7584242Y7379460D01*
X7615759D01*
X7621669Y7380635D01*
X7627693D01*
X7658605Y7386784D01*
X7664172Y7389090D01*
X7670082Y7390265D01*
X7699199Y7402326D01*
X7704209Y7405674D01*
X7709776Y7407979D01*
X7735981Y7425489D01*
X7740242Y7429750D01*
X7745252Y7433097D01*
X7767538Y7455383D01*
X7770885Y7460393D01*
X7775146Y7464654D01*
X7792656Y7490859D01*
X7794962Y7496426D01*
X7798309Y7501436D01*
X7810370Y7530554D01*
X7811545Y7536463D01*
X7813851Y7542030D01*
X7820000Y7572941D01*
Y7578967D01*
X7821176Y7584876D01*
Y7616393D01*
X7820000Y7622303D01*
Y7628328D01*
X7813851Y7659240D01*
X7811545Y7664807D01*
X7810370Y7670716D01*
X7798309Y7699834D01*
X7794962Y7704844D01*
X7792656Y7710410D01*
X7775146Y7736616D01*
X7770885Y7740877D01*
X7767538Y7745886D01*
X7745252Y7768172D01*
X7740242Y7771520D01*
X7735981Y7775780D01*
X7709776Y7793290D01*
X7704209Y7795596D01*
X7699199Y7798944D01*
X7670081Y7811005D01*
X7664172Y7812180D01*
X7658605Y7814486D01*
X7627694Y7820635D01*
X7621668D01*
X7615759Y7821810D01*
D02*
G37*
G36*
X7307956Y7440000D02*
X7292043D01*
X7277342Y7433910D01*
X7266090Y7422658D01*
X7260000Y7407956D01*
Y7392043D01*
X7266090Y7377342D01*
X7277342Y7366090D01*
X7292043Y7360000D01*
X7307956D01*
X7322658Y7366090D01*
X7333910Y7377342D01*
X7340000Y7392043D01*
Y7407956D01*
X7333910Y7422658D01*
X7322658Y7433910D01*
X7307956Y7440000D01*
D02*
G37*
G36*
X7507957Y7340000D02*
X7492043D01*
X7477342Y7333910D01*
X7466090Y7322658D01*
X7460000Y7307956D01*
Y7292043D01*
X7466090Y7277342D01*
X7477342Y7266090D01*
X7492043Y7260000D01*
X7507957D01*
X7522658Y7266090D01*
X7533910Y7277342D01*
X7540000Y7292043D01*
Y7307956D01*
X7533910Y7322658D01*
X7522658Y7333910D01*
X7507957Y7340000D01*
D02*
G37*
G36*
X7707957Y7240000D02*
X7692044D01*
X7677342Y7233910D01*
X7666090Y7222658D01*
X7660000Y7207957D01*
Y7192044D01*
X7666090Y7177342D01*
X7677342Y7166090D01*
X7692044Y7160000D01*
X7707957D01*
X7722658Y7166090D01*
X7733910Y7177342D01*
X7740000Y7192044D01*
Y7207957D01*
X7733910Y7222658D01*
X7722658Y7233910D01*
X7707957Y7240000D01*
D02*
G37*
G36*
X7307956D02*
X7292043D01*
X7277342Y7233910D01*
X7266090Y7222658D01*
X7260000Y7207957D01*
Y7192044D01*
X7266090Y7177342D01*
X7277342Y7166090D01*
X7292043Y7160000D01*
X7307956D01*
X7322658Y7166090D01*
X7333910Y7177342D01*
X7340000Y7192044D01*
Y7207957D01*
X7333910Y7222658D01*
X7322658Y7233910D01*
X7307956Y7240000D01*
D02*
G37*
G36*
X7507957Y7140000D02*
X7492043D01*
X7477342Y7133910D01*
X7466090Y7122658D01*
X7460000Y7107957D01*
Y7092043D01*
X7466090Y7077342D01*
X7477342Y7066090D01*
X7492043Y7060000D01*
X7507957D01*
X7522658Y7066090D01*
X7533910Y7077342D01*
X7540000Y7092043D01*
Y7107957D01*
X7533910Y7122658D01*
X7522658Y7133910D01*
X7507957Y7140000D01*
D02*
G37*
G36*
X7707957Y7040000D02*
X7692044D01*
X7677342Y7033910D01*
X7666090Y7022658D01*
X7660000Y7007957D01*
Y6992043D01*
X7666090Y6977342D01*
X7677342Y6966090D01*
X7692044Y6960000D01*
X7707957D01*
X7722658Y6966090D01*
X7733910Y6977342D01*
X7740000Y6992043D01*
Y7007957D01*
X7733910Y7022658D01*
X7722658Y7033910D01*
X7707957Y7040000D01*
D02*
G37*
G36*
X415759Y7821810D02*
X384242D01*
X378332Y7820635D01*
X372307D01*
X341395Y7814486D01*
X335828Y7812180D01*
X329919Y7811005D01*
X300801Y7798944D01*
X295791Y7795596D01*
X290225Y7793290D01*
X264019Y7775780D01*
X259758Y7771520D01*
X254749Y7768172D01*
X232463Y7745886D01*
X229115Y7740877D01*
X224855Y7736616D01*
X207345Y7710411D01*
X205039Y7704844D01*
X201691Y7699834D01*
X189630Y7670716D01*
X188455Y7664806D01*
X186149Y7659240D01*
X180000Y7628328D01*
Y7622303D01*
X178825Y7616393D01*
Y7584876D01*
X180000Y7578967D01*
Y7572942D01*
X186149Y7542030D01*
X188455Y7536463D01*
X189630Y7530553D01*
X201691Y7501436D01*
X205039Y7496426D01*
X207345Y7490860D01*
X224855Y7464654D01*
X229115Y7460393D01*
X232463Y7455383D01*
X254749Y7433097D01*
X259758Y7429750D01*
X264019Y7425489D01*
X290224Y7407979D01*
X295791Y7405674D01*
X300801Y7402326D01*
X329919Y7390265D01*
X335829Y7389090D01*
X341395Y7386784D01*
X372307Y7380635D01*
X378332D01*
X384242Y7379460D01*
X415759D01*
X421668Y7380635D01*
X427693D01*
X458605Y7386784D01*
X464172Y7389090D01*
X470082Y7390265D01*
X499199Y7402326D01*
X504209Y7405674D01*
X509775Y7407979D01*
X535981Y7425489D01*
X540242Y7429750D01*
X545252Y7433097D01*
X567538Y7455383D01*
X570885Y7460393D01*
X575146Y7464654D01*
X592656Y7490859D01*
X594961Y7496426D01*
X598309Y7501436D01*
X610370Y7530554D01*
X611545Y7536463D01*
X613851Y7542030D01*
X620000Y7572941D01*
Y7578967D01*
X621176Y7584876D01*
Y7616393D01*
X620000Y7622303D01*
Y7628328D01*
X613851Y7659240D01*
X611545Y7664807D01*
X610370Y7670716D01*
X598309Y7699834D01*
X594961Y7704844D01*
X592656Y7710410D01*
X575146Y7736616D01*
X570885Y7740877D01*
X567538Y7745886D01*
X545252Y7768172D01*
X540242Y7771520D01*
X535981Y7775780D01*
X509776Y7793290D01*
X504209Y7795596D01*
X499199Y7798944D01*
X470081Y7811005D01*
X464172Y7812180D01*
X458605Y7814486D01*
X427694Y7820635D01*
X421668D01*
X415759Y7821810D01*
D02*
G37*
G36*
X3887319Y6970873D02*
X3871406D01*
X3856705Y6964783D01*
X3846755Y6954834D01*
X3840941Y6953849D01*
X3832096Y6954473D01*
X3822658Y6963910D01*
X3807957Y6970000D01*
X3792043D01*
X3777342Y6963910D01*
X3766090Y6952658D01*
X3760000Y6937956D01*
Y6922043D01*
X3766090Y6907342D01*
X3770135Y6903297D01*
X3776505Y6895000D01*
X3770135Y6886703D01*
X3766090Y6882658D01*
X3760000Y6867957D01*
Y6852043D01*
X3766090Y6837342D01*
X3770135Y6833297D01*
X3776505Y6825000D01*
X3770135Y6816703D01*
X3766090Y6812658D01*
X3760000Y6797956D01*
Y6782043D01*
X3766090Y6767342D01*
X3770890Y6762541D01*
X3776587Y6754903D01*
X3770890Y6745948D01*
X3766727Y6741785D01*
X3760638Y6727083D01*
Y6711170D01*
X3766727Y6696469D01*
X3771090Y6692106D01*
X3776980Y6683809D01*
X3771090Y6675512D01*
X3766727Y6671149D01*
X3760638Y6656448D01*
Y6640535D01*
X3766727Y6625833D01*
X3777979Y6614581D01*
X3792681Y6608491D01*
X3808594D01*
X3823296Y6614581D01*
X3833245Y6624530D01*
X3839059Y6625515D01*
X3847904Y6624891D01*
X3857342Y6615454D01*
X3872044Y6609364D01*
X3887957D01*
X3902658Y6615454D01*
X3913910Y6626706D01*
X3920000Y6641408D01*
Y6657321D01*
X3913910Y6672022D01*
X3909547Y6676385D01*
X3903658Y6684682D01*
X3909547Y6692979D01*
X3913910Y6697342D01*
X3920000Y6712043D01*
Y6727956D01*
X3913910Y6742658D01*
X3909110Y6747458D01*
X3903413Y6755096D01*
X3909110Y6764052D01*
X3913273Y6768215D01*
X3919362Y6782916D01*
Y6798829D01*
X3913273Y6813531D01*
X3909228Y6817576D01*
X3902858Y6825873D01*
X3909228Y6834170D01*
X3913273Y6838215D01*
X3919362Y6852916D01*
Y6868830D01*
X3913273Y6883531D01*
X3909228Y6887576D01*
X3902858Y6895873D01*
X3909228Y6904170D01*
X3913273Y6908215D01*
X3919362Y6922916D01*
Y6938829D01*
X3913273Y6953531D01*
X3902021Y6964783D01*
X3887319Y6970873D01*
D02*
G37*
G36*
X3677319D02*
X3661406D01*
X3646704Y6964783D01*
X3636755Y6954834D01*
X3630941Y6953849D01*
X3622096Y6954473D01*
X3612658Y6963910D01*
X3597956Y6970000D01*
X3582043D01*
X3567342Y6963910D01*
X3556090Y6952658D01*
X3550000Y6937956D01*
Y6922043D01*
X3556090Y6907342D01*
X3560135Y6903297D01*
X3566505Y6895000D01*
X3560135Y6886703D01*
X3556090Y6882658D01*
X3550000Y6867957D01*
Y6852043D01*
X3556090Y6837342D01*
X3560135Y6833297D01*
X3566505Y6825000D01*
X3560135Y6816703D01*
X3556090Y6812658D01*
X3550000Y6797956D01*
Y6782043D01*
X3556090Y6767342D01*
X3560890Y6762541D01*
X3566587Y6754903D01*
X3560890Y6745948D01*
X3556727Y6741785D01*
X3550638Y6727083D01*
Y6711170D01*
X3556727Y6696469D01*
X3561090Y6692106D01*
X3566980Y6683809D01*
X3561090Y6675512D01*
X3556727Y6671149D01*
X3550638Y6656448D01*
Y6640535D01*
X3556727Y6625833D01*
X3567979Y6614581D01*
X3582681Y6608491D01*
X3598594D01*
X3613296Y6614581D01*
X3623245Y6624530D01*
X3629059Y6625515D01*
X3637904Y6624891D01*
X3647342Y6615454D01*
X3662043Y6609364D01*
X3677957D01*
X3692658Y6615454D01*
X3703910Y6626706D01*
X3710000Y6641408D01*
Y6657321D01*
X3703910Y6672022D01*
X3699547Y6676385D01*
X3693658Y6684682D01*
X3699547Y6692979D01*
X3703910Y6697342D01*
X3710000Y6712043D01*
Y6727956D01*
X3703910Y6742658D01*
X3699110Y6747458D01*
X3693413Y6755096D01*
X3699110Y6764052D01*
X3703273Y6768215D01*
X3709362Y6782916D01*
Y6798829D01*
X3703273Y6813531D01*
X3699228Y6817576D01*
X3692857Y6825873D01*
X3699228Y6834170D01*
X3703273Y6838215D01*
X3709362Y6852916D01*
Y6868830D01*
X3703273Y6883531D01*
X3699228Y6887576D01*
X3692857Y6895873D01*
X3699228Y6904170D01*
X3703273Y6908215D01*
X3709362Y6922916D01*
Y6938829D01*
X3703273Y6953531D01*
X3692021Y6964783D01*
X3677319Y6970873D01*
D02*
G37*
G36*
X6907956Y6840000D02*
X6892043D01*
X6877342Y6833910D01*
X6866090Y6822658D01*
X6860000Y6807957D01*
Y6792044D01*
X6866090Y6777342D01*
X6877342Y6766090D01*
X6892043Y6760000D01*
X6907956D01*
X6922658Y6766090D01*
X6933910Y6777342D01*
X6940000Y6792044D01*
Y6807957D01*
X6933910Y6822658D01*
X6922658Y6833910D01*
X6907956Y6840000D01*
D02*
G37*
G36*
X6607957D02*
X6592043D01*
X6577342Y6833910D01*
X6566090Y6822658D01*
X6560000Y6807957D01*
Y6792044D01*
X6566090Y6777342D01*
X6577342Y6766090D01*
X6592043Y6760000D01*
X6607957D01*
X6622658Y6766090D01*
X6633910Y6777342D01*
X6640000Y6792044D01*
Y6807957D01*
X6633910Y6822658D01*
X6622658Y6833910D01*
X6607957Y6840000D01*
D02*
G37*
G36*
X7107957Y6640000D02*
X7092043D01*
X7077342Y6633910D01*
X7066090Y6622658D01*
X7060000Y6607957D01*
Y6592043D01*
X7066090Y6577342D01*
X7077342Y6566090D01*
X7092043Y6560000D01*
X7107957D01*
X7122658Y6566090D01*
X7133910Y6577342D01*
X7140000Y6592043D01*
Y6607957D01*
X7133910Y6622658D01*
X7122658Y6633910D01*
X7107957Y6640000D01*
D02*
G37*
G36*
X6807957D02*
X6792044D01*
X6777342Y6633910D01*
X6766090Y6622658D01*
X6760000Y6607957D01*
Y6592043D01*
X6766090Y6577342D01*
X6777342Y6566090D01*
X6792044Y6560000D01*
X6807957D01*
X6822658Y6566090D01*
X6833910Y6577342D01*
X6840000Y6592043D01*
Y6607957D01*
X6833910Y6622658D01*
X6822658Y6633910D01*
X6807957Y6640000D01*
D02*
G37*
G36*
X6507957D02*
X6492043D01*
X6477342Y6633910D01*
X6466090Y6622658D01*
X6460000Y6607957D01*
Y6592043D01*
X6466090Y6577342D01*
X6477342Y6566090D01*
X6492043Y6560000D01*
X6507957D01*
X6522658Y6566090D01*
X6533910Y6577342D01*
X6540000Y6592043D01*
Y6607957D01*
X6533910Y6622658D01*
X6522658Y6633910D01*
X6507957Y6640000D01*
D02*
G37*
G36*
X7307956Y6440000D02*
X7292043D01*
X7277342Y6433910D01*
X7266090Y6422658D01*
X7260000Y6407956D01*
Y6392043D01*
X7266090Y6377342D01*
X7277342Y6366090D01*
X7292043Y6360000D01*
X7307956D01*
X7322658Y6366090D01*
X7333910Y6377342D01*
X7340000Y6392043D01*
Y6407956D01*
X7333910Y6422658D01*
X7322658Y6433910D01*
X7307956Y6440000D01*
D02*
G37*
G36*
X7007957D02*
X6992043D01*
X6977342Y6433910D01*
X6966090Y6422658D01*
X6960000Y6407956D01*
Y6392043D01*
X6966090Y6377342D01*
X6977342Y6366090D01*
X6992043Y6360000D01*
X7007957D01*
X7022658Y6366090D01*
X7033910Y6377342D01*
X7040000Y6392043D01*
Y6407956D01*
X7033910Y6422658D01*
X7022658Y6433910D01*
X7007957Y6440000D01*
D02*
G37*
G36*
X6707957D02*
X6692044D01*
X6677342Y6433910D01*
X6666090Y6422658D01*
X6660000Y6407956D01*
Y6392043D01*
X6666090Y6377342D01*
X6677342Y6366090D01*
X6692044Y6360000D01*
X6707957D01*
X6722658Y6366090D01*
X6733910Y6377342D01*
X6740000Y6392043D01*
Y6407956D01*
X6733910Y6422658D01*
X6722658Y6433910D01*
X6707957Y6440000D01*
D02*
G37*
G36*
X6407956D02*
X6392043D01*
X6377342Y6433910D01*
X6366090Y6422658D01*
X6360000Y6407956D01*
Y6392043D01*
X6366090Y6377342D01*
X6377342Y6366090D01*
X6392043Y6360000D01*
X6407956D01*
X6422658Y6366090D01*
X6433910Y6377342D01*
X6440000Y6392043D01*
Y6407956D01*
X6433910Y6422658D01*
X6422658Y6433910D01*
X6407956Y6440000D01*
D02*
G37*
G36*
X7507957Y6240000D02*
X7492043D01*
X7477342Y6233910D01*
X7466090Y6222658D01*
X7460000Y6207957D01*
Y6192043D01*
X7466090Y6177342D01*
X7477342Y6166090D01*
X7492043Y6160000D01*
X7507957D01*
X7522658Y6166090D01*
X7533910Y6177342D01*
X7540000Y6192043D01*
Y6207957D01*
X7533910Y6222658D01*
X7522658Y6233910D01*
X7507957Y6240000D01*
D02*
G37*
G36*
X7207957D02*
X7192044D01*
X7177342Y6233910D01*
X7166090Y6222658D01*
X7160000Y6207957D01*
Y6192043D01*
X7166090Y6177342D01*
X7177342Y6166090D01*
X7192044Y6160000D01*
X7207957D01*
X7222658Y6166090D01*
X7233910Y6177342D01*
X7240000Y6192043D01*
Y6207957D01*
X7233910Y6222658D01*
X7222658Y6233910D01*
X7207957Y6240000D01*
D02*
G37*
G36*
X6907956D02*
X6892043D01*
X6877342Y6233910D01*
X6866090Y6222658D01*
X6860000Y6207957D01*
Y6192043D01*
X6866090Y6177342D01*
X6877342Y6166090D01*
X6892043Y6160000D01*
X6907956D01*
X6922658Y6166090D01*
X6933910Y6177342D01*
X6940000Y6192043D01*
Y6207957D01*
X6933910Y6222658D01*
X6922658Y6233910D01*
X6907956Y6240000D01*
D02*
G37*
G36*
X6607957D02*
X6592043D01*
X6577342Y6233910D01*
X6566090Y6222658D01*
X6560000Y6207957D01*
Y6192043D01*
X6566090Y6177342D01*
X6577342Y6166090D01*
X6592043Y6160000D01*
X6607957D01*
X6622658Y6166090D01*
X6633910Y6177342D01*
X6640000Y6192043D01*
Y6207957D01*
X6633910Y6222658D01*
X6622658Y6233910D01*
X6607957Y6240000D01*
D02*
G37*
G36*
X5645162Y6250400D02*
X5642064D01*
Y6102699D01*
X5789764D01*
Y6105798D01*
X5783600Y6136787D01*
X5771509Y6165978D01*
X5753955Y6192249D01*
X5731613Y6214591D01*
X5705342Y6232145D01*
X5676151Y6244236D01*
X5645162Y6250400D01*
D02*
G37*
G36*
X5616664D02*
X5613566D01*
X5582577Y6244236D01*
X5553386Y6232145D01*
X5527115Y6214591D01*
X5504773Y6192249D01*
X5487219Y6165978D01*
X5475128Y6136787D01*
X5468964Y6105798D01*
Y6102699D01*
X5616664D01*
Y6250400D01*
D02*
G37*
G36*
X7407956Y6040000D02*
X7392043D01*
X7377342Y6033910D01*
X7366090Y6022658D01*
X7360000Y6007956D01*
Y5992043D01*
X7366090Y5977342D01*
X7377342Y5966090D01*
X7392043Y5960000D01*
X7407956D01*
X7422658Y5966090D01*
X7433910Y5977342D01*
X7440000Y5992043D01*
Y6007956D01*
X7433910Y6022658D01*
X7422658Y6033910D01*
X7407956Y6040000D01*
D02*
G37*
G36*
X7107957D02*
X7092043D01*
X7077342Y6033910D01*
X7066090Y6022658D01*
X7060000Y6007956D01*
Y5992043D01*
X7066090Y5977342D01*
X7077342Y5966090D01*
X7092043Y5960000D01*
X7107957D01*
X7122658Y5966090D01*
X7133910Y5977342D01*
X7140000Y5992043D01*
Y6007956D01*
X7133910Y6022658D01*
X7122658Y6033910D01*
X7107957Y6040000D01*
D02*
G37*
G36*
X6807957D02*
X6792044D01*
X6777342Y6033910D01*
X6766090Y6022658D01*
X6760000Y6007956D01*
Y5992043D01*
X6766090Y5977342D01*
X6777342Y5966090D01*
X6792044Y5960000D01*
X6807957D01*
X6822658Y5966090D01*
X6833910Y5977342D01*
X6840000Y5992043D01*
Y6007956D01*
X6833910Y6022658D01*
X6822658Y6033910D01*
X6807957Y6040000D01*
D02*
G37*
G36*
X6507957D02*
X6492043D01*
X6477342Y6033910D01*
X6466090Y6022658D01*
X6460000Y6007956D01*
Y5992043D01*
X6466090Y5977342D01*
X6477342Y5966090D01*
X6492043Y5960000D01*
X6507957D01*
X6522658Y5966090D01*
X6533910Y5977342D01*
X6540000Y5992043D01*
Y6007956D01*
X6533910Y6022658D01*
X6522658Y6033910D01*
X6507957Y6040000D01*
D02*
G37*
G36*
X6144138Y6240000D02*
X6114591D01*
X6085611Y6234235D01*
X6058312Y6222928D01*
X6033745Y6206513D01*
X6012852Y6185619D01*
X5996436Y6161052D01*
X5985129Y6133753D01*
X5979364Y6104774D01*
Y6075226D01*
X5985129Y6046247D01*
X5996436Y6018948D01*
X6012852Y5994381D01*
X6033745Y5973487D01*
X6058312Y5957072D01*
X6085611Y5945765D01*
X6114591Y5940000D01*
X6144138D01*
X6173117Y5945765D01*
X6200416Y5957072D01*
X6224983Y5973487D01*
X6245877Y5994381D01*
X6262292Y6018948D01*
X6273600Y6046247D01*
X6279364Y6075226D01*
Y6104774D01*
X6273600Y6133753D01*
X6262292Y6161052D01*
X6245877Y6185619D01*
X6224983Y6206513D01*
X6200416Y6222928D01*
X6173117Y6234235D01*
X6144138Y6240000D01*
D02*
G37*
G36*
X5789764Y6077299D02*
X5642064D01*
Y5929600D01*
X5645162D01*
X5676151Y5935764D01*
X5705342Y5947855D01*
X5731613Y5965409D01*
X5753955Y5987751D01*
X5771509Y6014022D01*
X5783600Y6043213D01*
X5789764Y6074202D01*
Y6077299D01*
D02*
G37*
G36*
X5616664D02*
X5468964D01*
Y6074202D01*
X5475128Y6043213D01*
X5487219Y6014022D01*
X5504773Y5987751D01*
X5527115Y5965409D01*
X5553386Y5947855D01*
X5582577Y5935764D01*
X5613566Y5929600D01*
X5616664D01*
Y6077299D01*
D02*
G37*
G36*
X2477956Y5910000D02*
X2462043D01*
X2447342Y5903910D01*
X2436090Y5892658D01*
X2430000Y5877956D01*
Y5862043D01*
X2436090Y5847342D01*
X2447342Y5836090D01*
X2462043Y5830000D01*
X2477956D01*
X2492658Y5836090D01*
X2503910Y5847342D01*
X2510000Y5862043D01*
Y5877956D01*
X2503910Y5892658D01*
X2492658Y5903910D01*
X2477956Y5910000D01*
D02*
G37*
G36*
X3317957Y5140000D02*
X3302043D01*
X3287342Y5133910D01*
X3283297Y5129865D01*
X3275000Y5123495D01*
X3266703Y5129865D01*
X3262658Y5133910D01*
X3247957Y5140000D01*
X3232044D01*
X3217342Y5133910D01*
X3206090Y5122658D01*
X3200000Y5107957D01*
Y5092043D01*
X3206090Y5077342D01*
X3217342Y5066090D01*
X3232044Y5060000D01*
X3247957D01*
X3262658Y5066090D01*
X3266703Y5070135D01*
X3275000Y5076505D01*
X3283297Y5070135D01*
X3287342Y5066090D01*
X3302043Y5060000D01*
X3317957D01*
X3332658Y5066090D01*
X3343910Y5077342D01*
X3350000Y5092043D01*
Y5107957D01*
X3343910Y5122658D01*
X3332658Y5133910D01*
X3317957Y5140000D01*
D02*
G37*
G36*
X2452321Y4965000D02*
X2436408D01*
X2421706Y4958910D01*
X2415098Y4952302D01*
X2406864Y4949068D01*
X2398631Y4952302D01*
X2392022Y4958910D01*
X2377321Y4965000D01*
X2361408D01*
X2346706Y4958910D01*
X2340098Y4952302D01*
X2331864Y4949068D01*
X2323631Y4952302D01*
X2317022Y4958910D01*
X2302321Y4965000D01*
X2286408D01*
X2271706Y4958910D01*
X2265098Y4952302D01*
X2256864Y4949068D01*
X2248631Y4952302D01*
X2242022Y4958910D01*
X2227321Y4965000D01*
X2211408D01*
X2196706Y4958910D01*
X2190098Y4952302D01*
X2181864Y4949068D01*
X2173631Y4952302D01*
X2167022Y4958910D01*
X2152321Y4965000D01*
X2136408D01*
X2121706Y4958910D01*
X2110454Y4947658D01*
X2104364Y4932957D01*
Y4917044D01*
X2110454Y4902342D01*
X2121706Y4891090D01*
X2136408Y4885000D01*
X2152321D01*
X2167022Y4891090D01*
X2173631Y4897698D01*
X2181864Y4900932D01*
X2190098Y4897698D01*
X2196706Y4891090D01*
X2211408Y4885000D01*
X2227321D01*
X2242022Y4891090D01*
X2248631Y4897698D01*
X2256864Y4900932D01*
X2265098Y4897698D01*
X2271706Y4891090D01*
X2286408Y4885000D01*
X2302321D01*
X2317022Y4891090D01*
X2323631Y4897698D01*
X2331864Y4900932D01*
X2340098Y4897698D01*
X2346706Y4891090D01*
X2361408Y4885000D01*
X2377321D01*
X2392022Y4891090D01*
X2398631Y4897698D01*
X2406864Y4900932D01*
X2415098Y4897698D01*
X2421706Y4891090D01*
X2436408Y4885000D01*
X2452321D01*
X2467022Y4891090D01*
X2478274Y4902342D01*
X2484364Y4917044D01*
Y4932957D01*
X2478274Y4947658D01*
X2467022Y4958910D01*
X2452321Y4965000D01*
D02*
G37*
G36*
X7519821Y4960000D02*
X7503908D01*
X7489206Y4953910D01*
X7482598Y4947302D01*
X7474364Y4944068D01*
X7466131Y4947302D01*
X7459523Y4953910D01*
X7444821Y4960000D01*
X7428908D01*
X7414206Y4953910D01*
X7410161Y4949865D01*
X7401864Y4943495D01*
X7393568Y4949865D01*
X7389522Y4953910D01*
X7374821Y4960000D01*
X7358908D01*
X7344206Y4953910D01*
X7335830Y4945534D01*
X7328114Y4943767D01*
X7320399Y4945534D01*
X7312022Y4953910D01*
X7297321Y4960000D01*
X7281408D01*
X7266706Y4953910D01*
X7260098Y4947302D01*
X7251864Y4944068D01*
X7243631Y4947302D01*
X7237022Y4953910D01*
X7222321Y4960000D01*
X7206408D01*
X7191706Y4953910D01*
X7180454Y4942658D01*
X7174364Y4927957D01*
Y4912044D01*
X7180454Y4897342D01*
X7191706Y4886090D01*
X7206408Y4880000D01*
X7222321D01*
X7237022Y4886090D01*
X7243631Y4892698D01*
X7251864Y4895932D01*
X7260098Y4892698D01*
X7266706Y4886090D01*
X7281408Y4880000D01*
X7297321D01*
X7312022Y4886090D01*
X7320399Y4894466D01*
X7328114Y4896233D01*
X7335830Y4894466D01*
X7344206Y4886090D01*
X7358908Y4880000D01*
X7374821D01*
X7389522Y4886090D01*
X7393568Y4890135D01*
X7401865Y4896505D01*
X7410161Y4890135D01*
X7414206Y4886090D01*
X7428908Y4880000D01*
X7444821D01*
X7459523Y4886090D01*
X7466131Y4892698D01*
X7474365Y4895932D01*
X7482598Y4892698D01*
X7489206Y4886090D01*
X7503908Y4880000D01*
X7519821D01*
X7534522Y4886090D01*
X7545775Y4897342D01*
X7551864Y4912044D01*
Y4927957D01*
X7545775Y4942658D01*
X7534522Y4953910D01*
X7519821Y4960000D01*
D02*
G37*
G36*
X2452321Y4865000D02*
X2436408D01*
X2421706Y4858910D01*
X2415098Y4852302D01*
X2406864Y4849068D01*
X2398631Y4852302D01*
X2392022Y4858910D01*
X2377321Y4865000D01*
X2361408D01*
X2346706Y4858910D01*
X2340098Y4852302D01*
X2331864Y4849068D01*
X2323631Y4852302D01*
X2317022Y4858910D01*
X2302321Y4865000D01*
X2286408D01*
X2271706Y4858910D01*
X2265098Y4852302D01*
X2256864Y4849068D01*
X2248631Y4852302D01*
X2242022Y4858910D01*
X2227321Y4865000D01*
X2211408D01*
X2196706Y4858910D01*
X2190098Y4852302D01*
X2181864Y4849068D01*
X2173631Y4852302D01*
X2167022Y4858910D01*
X2152321Y4865000D01*
X2136408D01*
X2121706Y4858910D01*
X2110454Y4847658D01*
X2104364Y4832957D01*
Y4817043D01*
X2110454Y4802342D01*
X2121706Y4791090D01*
X2136408Y4785000D01*
X2152321D01*
X2167022Y4791090D01*
X2173631Y4797698D01*
X2181864Y4800932D01*
X2190098Y4797698D01*
X2196706Y4791090D01*
X2211408Y4785000D01*
X2227321D01*
X2242022Y4791090D01*
X2248631Y4797698D01*
X2256864Y4800932D01*
X2265098Y4797698D01*
X2271706Y4791090D01*
X2286408Y4785000D01*
X2302321D01*
X2317022Y4791090D01*
X2323631Y4797698D01*
X2331864Y4800932D01*
X2340098Y4797698D01*
X2346706Y4791090D01*
X2361408Y4785000D01*
X2377321D01*
X2392022Y4791090D01*
X2398631Y4797698D01*
X2406864Y4800932D01*
X2415098Y4797698D01*
X2421706Y4791090D01*
X2436408Y4785000D01*
X2452321D01*
X2467022Y4791090D01*
X2478274Y4802342D01*
X2484364Y4817043D01*
Y4832957D01*
X2478274Y4847658D01*
X2467022Y4858910D01*
X2452321Y4865000D01*
D02*
G37*
G36*
X7519821Y4860000D02*
X7503908D01*
X7489206Y4853910D01*
X7482598Y4847302D01*
X7474364Y4844068D01*
X7466131Y4847302D01*
X7459523Y4853910D01*
X7444821Y4860000D01*
X7428908D01*
X7414206Y4853910D01*
X7410161Y4849865D01*
X7401864Y4843495D01*
X7393568Y4849865D01*
X7389522Y4853910D01*
X7374821Y4860000D01*
X7358908D01*
X7344206Y4853910D01*
X7335830Y4845534D01*
X7328114Y4843767D01*
X7320399Y4845534D01*
X7312022Y4853910D01*
X7297321Y4860000D01*
X7281408D01*
X7266706Y4853910D01*
X7260098Y4847302D01*
X7251864Y4844068D01*
X7243631Y4847302D01*
X7237022Y4853910D01*
X7222321Y4860000D01*
X7206408D01*
X7191706Y4853910D01*
X7180454Y4842658D01*
X7174364Y4827957D01*
Y4812043D01*
X7180454Y4797342D01*
X7191706Y4786090D01*
X7206408Y4780000D01*
X7222321D01*
X7237022Y4786090D01*
X7243631Y4792698D01*
X7251864Y4795932D01*
X7260098Y4792698D01*
X7266706Y4786090D01*
X7281408Y4780000D01*
X7297321D01*
X7312022Y4786090D01*
X7320399Y4794466D01*
X7328114Y4796233D01*
X7335830Y4794466D01*
X7344206Y4786090D01*
X7358908Y4780000D01*
X7374821D01*
X7389522Y4786090D01*
X7393568Y4790135D01*
X7401865Y4796505D01*
X7410161Y4790135D01*
X7414206Y4786090D01*
X7428908Y4780000D01*
X7444821D01*
X7459523Y4786090D01*
X7466131Y4792698D01*
X7474365Y4795932D01*
X7482598Y4792698D01*
X7489206Y4786090D01*
X7503908Y4780000D01*
X7519821D01*
X7534522Y4786090D01*
X7545775Y4797342D01*
X7551864Y4812043D01*
Y4827957D01*
X7545775Y4842658D01*
X7534522Y4853910D01*
X7519821Y4860000D01*
D02*
G37*
G36*
X3857956Y4850000D02*
X3842043D01*
X3827342Y4843910D01*
X3823297Y4839865D01*
X3815000Y4833495D01*
X3806703Y4839865D01*
X3802658Y4843910D01*
X3787957Y4850000D01*
X3772044D01*
X3757342Y4843910D01*
X3747393Y4833961D01*
X3741578Y4832976D01*
X3732733Y4833600D01*
X3723296Y4843037D01*
X3708594Y4849127D01*
X3692681D01*
X3677979Y4843037D01*
X3666727Y4831785D01*
X3660638Y4817084D01*
Y4801170D01*
X3666727Y4786469D01*
X3676067Y4777129D01*
X3676878Y4768717D01*
X3675803Y4762372D01*
X3666090Y4752658D01*
X3660000Y4737956D01*
Y4722043D01*
X3666090Y4707342D01*
X3676234Y4697198D01*
X3676834Y4690000D01*
X3676234Y4682802D01*
X3666090Y4672658D01*
X3660000Y4657956D01*
Y4642043D01*
X3666090Y4627342D01*
X3670135Y4623297D01*
X3676505Y4615000D01*
X3670135Y4606703D01*
X3666090Y4602658D01*
X3660000Y4587957D01*
Y4572043D01*
X3666090Y4557342D01*
X3670135Y4553297D01*
X3676505Y4545000D01*
X3670135Y4536703D01*
X3666090Y4532658D01*
X3660000Y4517956D01*
Y4502043D01*
X3666090Y4487342D01*
X3670890Y4482541D01*
X3676587Y4474903D01*
X3670890Y4465948D01*
X3666727Y4461785D01*
X3660638Y4447083D01*
Y4431170D01*
X3666727Y4416469D01*
X3671090Y4412106D01*
X3676980Y4403809D01*
X3671090Y4395512D01*
X3666727Y4391149D01*
X3660638Y4376448D01*
Y4360535D01*
X3666727Y4345833D01*
X3677979Y4334581D01*
X3692681Y4328491D01*
X3708594D01*
X3723296Y4334581D01*
X3733245Y4344530D01*
X3739059Y4345515D01*
X3747904Y4344891D01*
X3757342Y4335454D01*
X3772044Y4329364D01*
X3787957D01*
X3802658Y4335454D01*
X3806703Y4339499D01*
X3815000Y4345869D01*
X3823297Y4339499D01*
X3827342Y4335454D01*
X3842043Y4329364D01*
X3857956D01*
X3872658Y4335454D01*
X3883910Y4346706D01*
X3890000Y4361408D01*
Y4377321D01*
X3883910Y4392022D01*
X3879547Y4396385D01*
X3873657Y4404682D01*
X3879547Y4412979D01*
X3883910Y4417342D01*
X3890000Y4432043D01*
Y4447956D01*
X3883910Y4462658D01*
X3879110Y4467458D01*
X3873413Y4475096D01*
X3879110Y4484052D01*
X3883273Y4488215D01*
X3889362Y4502916D01*
Y4518829D01*
X3883273Y4533531D01*
X3879227Y4537576D01*
X3872857Y4545873D01*
X3879227Y4554170D01*
X3883273Y4558215D01*
X3889362Y4572916D01*
Y4588830D01*
X3883273Y4603531D01*
X3879227Y4607576D01*
X3872857Y4615873D01*
X3879227Y4624170D01*
X3883273Y4628215D01*
X3889362Y4642916D01*
Y4658829D01*
X3883273Y4673531D01*
X3873128Y4683675D01*
X3872528Y4690873D01*
X3873128Y4698071D01*
X3883273Y4708215D01*
X3889362Y4722916D01*
Y4738829D01*
X3883273Y4753531D01*
X3873933Y4762871D01*
X3873122Y4771283D01*
X3874196Y4777628D01*
X3883910Y4787342D01*
X3890000Y4802043D01*
Y4817957D01*
X3883910Y4832658D01*
X3872658Y4843910D01*
X3857956Y4850000D01*
D02*
G37*
G36*
X4258594Y4849127D02*
X4242681D01*
X4227979Y4843037D01*
X4223934Y4838992D01*
X4215637Y4832622D01*
X4207341Y4838992D01*
X4203296Y4843037D01*
X4188594Y4849127D01*
X4172681D01*
X4157979Y4843037D01*
X4148030Y4833088D01*
X4142216Y4832103D01*
X4133371Y4832727D01*
X4123933Y4842164D01*
X4109232Y4848254D01*
X4093318D01*
X4078617Y4842164D01*
X4067365Y4830912D01*
X4061275Y4816211D01*
Y4800297D01*
X4067365Y4785596D01*
X4076705Y4776256D01*
X4077516Y4767844D01*
X4076441Y4761499D01*
X4066727Y4751785D01*
X4060638Y4737083D01*
Y4721170D01*
X4066727Y4706469D01*
X4076871Y4696325D01*
X4077471Y4689127D01*
X4076871Y4681929D01*
X4066727Y4671785D01*
X4060638Y4657083D01*
Y4641170D01*
X4066727Y4626469D01*
X4070772Y4622424D01*
X4077142Y4614127D01*
X4070772Y4605830D01*
X4066727Y4601785D01*
X4060638Y4587084D01*
Y4571170D01*
X4066727Y4556469D01*
X4070772Y4552424D01*
X4077142Y4544127D01*
X4070772Y4535830D01*
X4066727Y4531785D01*
X4060638Y4517083D01*
Y4501170D01*
X4066727Y4486469D01*
X4071528Y4481668D01*
X4077225Y4474030D01*
X4071528Y4465075D01*
X4067365Y4460912D01*
X4061275Y4446210D01*
Y4430297D01*
X4067365Y4415596D01*
X4071728Y4411233D01*
X4077617Y4402936D01*
X4071728Y4394639D01*
X4067365Y4390276D01*
X4061275Y4375575D01*
Y4359662D01*
X4067365Y4344960D01*
X4078617Y4333708D01*
X4093318Y4327618D01*
X4109232D01*
X4123933Y4333708D01*
X4133882Y4343657D01*
X4139697Y4344642D01*
X4148542Y4344018D01*
X4157979Y4334581D01*
X4172681Y4328491D01*
X4188594D01*
X4203296Y4334581D01*
X4207341Y4338626D01*
X4215637Y4344996D01*
X4223934Y4338626D01*
X4227979Y4334581D01*
X4242681Y4328491D01*
X4258594D01*
X4273295Y4334581D01*
X4284548Y4345833D01*
X4290637Y4360535D01*
Y4376448D01*
X4284548Y4391149D01*
X4280185Y4395512D01*
X4274295Y4403809D01*
X4280185Y4412106D01*
X4284548Y4416469D01*
X4290637Y4431170D01*
Y4447083D01*
X4284548Y4461785D01*
X4279747Y4466585D01*
X4274050Y4474223D01*
X4279747Y4483179D01*
X4283910Y4487342D01*
X4290000Y4502043D01*
Y4517956D01*
X4283910Y4532658D01*
X4279865Y4536703D01*
X4273495Y4545000D01*
X4279865Y4553297D01*
X4283910Y4557342D01*
X4290000Y4572043D01*
Y4587957D01*
X4283910Y4602658D01*
X4279865Y4606703D01*
X4273495Y4615000D01*
X4279865Y4623297D01*
X4283910Y4627342D01*
X4290000Y4642043D01*
Y4657956D01*
X4283910Y4672658D01*
X4273766Y4682802D01*
X4273166Y4690000D01*
X4273766Y4697198D01*
X4283910Y4707342D01*
X4290000Y4722043D01*
Y4737956D01*
X4283910Y4752658D01*
X4274570Y4761998D01*
X4273759Y4770410D01*
X4274834Y4776755D01*
X4284548Y4786469D01*
X4290637Y4801170D01*
Y4817084D01*
X4284548Y4831785D01*
X4273295Y4843037D01*
X4258594Y4849127D01*
D02*
G37*
G36*
X2452321Y4765000D02*
X2436408D01*
X2421706Y4758910D01*
X2415098Y4752302D01*
X2406864Y4749068D01*
X2398631Y4752302D01*
X2392022Y4758910D01*
X2377321Y4765000D01*
X2361408D01*
X2346706Y4758910D01*
X2340098Y4752302D01*
X2331864Y4749068D01*
X2323631Y4752302D01*
X2317022Y4758910D01*
X2302321Y4765000D01*
X2286408D01*
X2271706Y4758910D01*
X2265098Y4752302D01*
X2256864Y4749068D01*
X2248631Y4752302D01*
X2242022Y4758910D01*
X2227321Y4765000D01*
X2211408D01*
X2196706Y4758910D01*
X2190098Y4752302D01*
X2181864Y4749068D01*
X2173631Y4752302D01*
X2167022Y4758910D01*
X2152321Y4765000D01*
X2136408D01*
X2121706Y4758910D01*
X2110454Y4747658D01*
X2104364Y4732956D01*
Y4717043D01*
X2110454Y4702342D01*
X2121706Y4691090D01*
X2136408Y4685000D01*
X2152321D01*
X2167022Y4691090D01*
X2173631Y4697698D01*
X2181864Y4700932D01*
X2190098Y4697698D01*
X2196706Y4691090D01*
X2211408Y4685000D01*
X2227321D01*
X2242022Y4691090D01*
X2248631Y4697698D01*
X2256864Y4700932D01*
X2265098Y4697698D01*
X2271706Y4691090D01*
X2286408Y4685000D01*
X2302321D01*
X2317022Y4691090D01*
X2323631Y4697698D01*
X2331864Y4700932D01*
X2340098Y4697698D01*
X2346706Y4691090D01*
X2361408Y4685000D01*
X2377321D01*
X2392022Y4691090D01*
X2398631Y4697698D01*
X2406864Y4700932D01*
X2415098Y4697698D01*
X2421706Y4691090D01*
X2436408Y4685000D01*
X2452321D01*
X2467022Y4691090D01*
X2478274Y4702342D01*
X2484364Y4717043D01*
Y4732956D01*
X2478274Y4747658D01*
X2467022Y4758910D01*
X2452321Y4765000D01*
D02*
G37*
G36*
X7519821Y4760000D02*
X7503908D01*
X7489206Y4753910D01*
X7482598Y4747302D01*
X7474364Y4744068D01*
X7466131Y4747302D01*
X7459523Y4753910D01*
X7444821Y4760000D01*
X7428908D01*
X7414206Y4753910D01*
X7410161Y4749865D01*
X7401864Y4743495D01*
X7393568Y4749865D01*
X7389522Y4753910D01*
X7374821Y4760000D01*
X7358908D01*
X7344206Y4753910D01*
X7335830Y4745534D01*
X7328114Y4743767D01*
X7320399Y4745534D01*
X7312022Y4753910D01*
X7297321Y4760000D01*
X7281408D01*
X7266706Y4753910D01*
X7260098Y4747302D01*
X7251864Y4744068D01*
X7243631Y4747302D01*
X7237022Y4753910D01*
X7222321Y4760000D01*
X7206408D01*
X7191706Y4753910D01*
X7180454Y4742658D01*
X7174364Y4727957D01*
Y4712043D01*
X7180454Y4697342D01*
X7191706Y4686090D01*
X7206408Y4680000D01*
X7222321D01*
X7237022Y4686090D01*
X7243631Y4692698D01*
X7251864Y4695932D01*
X7260098Y4692698D01*
X7266706Y4686090D01*
X7281408Y4680000D01*
X7297321D01*
X7312022Y4686090D01*
X7320399Y4694466D01*
X7328114Y4696233D01*
X7335830Y4694466D01*
X7344206Y4686090D01*
X7358908Y4680000D01*
X7374821D01*
X7389522Y4686090D01*
X7393568Y4690135D01*
X7401865Y4696505D01*
X7410161Y4690135D01*
X7414206Y4686090D01*
X7428908Y4680000D01*
X7444821D01*
X7459523Y4686090D01*
X7466131Y4692698D01*
X7474365Y4695932D01*
X7482598Y4692698D01*
X7489206Y4686090D01*
X7503908Y4680000D01*
X7519821D01*
X7534522Y4686090D01*
X7545775Y4697342D01*
X7551864Y4712043D01*
Y4727957D01*
X7545775Y4742658D01*
X7534522Y4753910D01*
X7519821Y4760000D01*
D02*
G37*
G36*
X2452321Y4665000D02*
X2436408D01*
X2421706Y4658910D01*
X2415098Y4652302D01*
X2406864Y4649068D01*
X2398631Y4652302D01*
X2392022Y4658910D01*
X2377321Y4665000D01*
X2361408D01*
X2346706Y4658910D01*
X2340098Y4652302D01*
X2331864Y4649068D01*
X2323631Y4652302D01*
X2317022Y4658910D01*
X2302321Y4665000D01*
X2286408D01*
X2271706Y4658910D01*
X2265098Y4652302D01*
X2256864Y4649068D01*
X2248631Y4652302D01*
X2242022Y4658910D01*
X2227321Y4665000D01*
X2211408D01*
X2196706Y4658910D01*
X2190098Y4652302D01*
X2181864Y4649068D01*
X2173631Y4652302D01*
X2167022Y4658910D01*
X2152321Y4665000D01*
X2136408D01*
X2121706Y4658910D01*
X2110454Y4647658D01*
X2104364Y4632956D01*
Y4617043D01*
X2110454Y4602342D01*
X2121706Y4591090D01*
X2136408Y4585000D01*
X2152321D01*
X2167022Y4591090D01*
X2173631Y4597698D01*
X2181864Y4600932D01*
X2190098Y4597698D01*
X2196706Y4591090D01*
X2211408Y4585000D01*
X2227321D01*
X2242022Y4591090D01*
X2248631Y4597698D01*
X2256864Y4600932D01*
X2265098Y4597698D01*
X2271706Y4591090D01*
X2286408Y4585000D01*
X2302321D01*
X2317022Y4591090D01*
X2323631Y4597698D01*
X2331864Y4600932D01*
X2340098Y4597698D01*
X2346706Y4591090D01*
X2361408Y4585000D01*
X2377321D01*
X2392022Y4591090D01*
X2398631Y4597698D01*
X2406864Y4600932D01*
X2415098Y4597698D01*
X2421706Y4591090D01*
X2436408Y4585000D01*
X2452321D01*
X2467022Y4591090D01*
X2478274Y4602342D01*
X2484364Y4617043D01*
Y4632956D01*
X2478274Y4647658D01*
X2467022Y4658910D01*
X2452321Y4665000D01*
D02*
G37*
G36*
Y4565000D02*
X2436408D01*
X2421706Y4558910D01*
X2415098Y4552302D01*
X2406864Y4549068D01*
X2398631Y4552302D01*
X2392022Y4558910D01*
X2377321Y4565000D01*
X2361408D01*
X2346706Y4558910D01*
X2340098Y4552302D01*
X2331864Y4549068D01*
X2323631Y4552302D01*
X2317022Y4558910D01*
X2302321Y4565000D01*
X2286408D01*
X2271706Y4558910D01*
X2265098Y4552302D01*
X2256864Y4549068D01*
X2248631Y4552302D01*
X2242022Y4558910D01*
X2227321Y4565000D01*
X2211408D01*
X2196706Y4558910D01*
X2190098Y4552302D01*
X2181864Y4549068D01*
X2173631Y4552302D01*
X2167022Y4558910D01*
X2152321Y4565000D01*
X2136408D01*
X2121706Y4558910D01*
X2110454Y4547658D01*
X2104364Y4532956D01*
Y4517043D01*
X2110454Y4502342D01*
X2121706Y4491090D01*
X2136408Y4485000D01*
X2152321D01*
X2167022Y4491090D01*
X2173631Y4497698D01*
X2181864Y4500932D01*
X2190098Y4497698D01*
X2196706Y4491090D01*
X2211408Y4485000D01*
X2227321D01*
X2242022Y4491090D01*
X2248631Y4497698D01*
X2256864Y4500932D01*
X2265098Y4497698D01*
X2271706Y4491090D01*
X2286408Y4485000D01*
X2302321D01*
X2317022Y4491090D01*
X2323631Y4497698D01*
X2331864Y4500932D01*
X2340098Y4497698D01*
X2346706Y4491090D01*
X2361408Y4485000D01*
X2377321D01*
X2392022Y4491090D01*
X2398631Y4497698D01*
X2406864Y4500932D01*
X2415098Y4497698D01*
X2421706Y4491090D01*
X2436408Y4485000D01*
X2452321D01*
X2467022Y4491090D01*
X2478274Y4502342D01*
X2484364Y4517043D01*
Y4532956D01*
X2478274Y4547658D01*
X2467022Y4558910D01*
X2452321Y4565000D01*
D02*
G37*
G36*
Y4465000D02*
X2436408D01*
X2421706Y4458910D01*
X2415098Y4452302D01*
X2406864Y4449068D01*
X2398631Y4452302D01*
X2392022Y4458910D01*
X2377321Y4465000D01*
X2361408D01*
X2346706Y4458910D01*
X2340098Y4452302D01*
X2331864Y4449068D01*
X2323631Y4452302D01*
X2317022Y4458910D01*
X2302321Y4465000D01*
X2286408D01*
X2271706Y4458910D01*
X2265098Y4452302D01*
X2256864Y4449068D01*
X2248631Y4452302D01*
X2242022Y4458910D01*
X2227321Y4465000D01*
X2211408D01*
X2196706Y4458910D01*
X2190098Y4452302D01*
X2181864Y4449068D01*
X2173631Y4452302D01*
X2167022Y4458910D01*
X2152321Y4465000D01*
X2136408D01*
X2121706Y4458910D01*
X2110454Y4447658D01*
X2104364Y4432957D01*
Y4417043D01*
X2110454Y4402342D01*
X2121706Y4391090D01*
X2136408Y4385000D01*
X2152321D01*
X2167022Y4391090D01*
X2173631Y4397698D01*
X2181864Y4400932D01*
X2190098Y4397698D01*
X2196706Y4391090D01*
X2211408Y4385000D01*
X2227321D01*
X2242022Y4391090D01*
X2248631Y4397698D01*
X2256864Y4400932D01*
X2265098Y4397698D01*
X2271706Y4391090D01*
X2286408Y4385000D01*
X2302321D01*
X2317022Y4391090D01*
X2323631Y4397698D01*
X2331864Y4400932D01*
X2340098Y4397698D01*
X2346706Y4391090D01*
X2361408Y4385000D01*
X2377321D01*
X2392022Y4391090D01*
X2398631Y4397698D01*
X2406864Y4400932D01*
X2415098Y4397698D01*
X2421706Y4391090D01*
X2436408Y4385000D01*
X2452321D01*
X2467022Y4391090D01*
X2478274Y4402342D01*
X2484364Y4417043D01*
Y4432957D01*
X2478274Y4447658D01*
X2467022Y4458910D01*
X2452321Y4465000D01*
D02*
G37*
G36*
Y4365000D02*
X2436408D01*
X2421706Y4358910D01*
X2415098Y4352302D01*
X2406864Y4349068D01*
X2398631Y4352302D01*
X2392022Y4358910D01*
X2377321Y4365000D01*
X2361408D01*
X2346706Y4358910D01*
X2340098Y4352302D01*
X2331864Y4349068D01*
X2323631Y4352302D01*
X2317022Y4358910D01*
X2302321Y4365000D01*
X2286408D01*
X2271706Y4358910D01*
X2265098Y4352302D01*
X2256864Y4349068D01*
X2248631Y4352302D01*
X2242022Y4358910D01*
X2227321Y4365000D01*
X2211408D01*
X2196706Y4358910D01*
X2190098Y4352302D01*
X2181864Y4349068D01*
X2173631Y4352302D01*
X2167022Y4358910D01*
X2152321Y4365000D01*
X2136408D01*
X2121706Y4358910D01*
X2110454Y4347658D01*
X2104364Y4332957D01*
Y4317043D01*
X2110454Y4302342D01*
X2121706Y4291090D01*
X2136408Y4285000D01*
X2152321D01*
X2167022Y4291090D01*
X2173631Y4297698D01*
X2181864Y4300932D01*
X2190098Y4297698D01*
X2196706Y4291090D01*
X2211408Y4285000D01*
X2227321D01*
X2242022Y4291090D01*
X2248631Y4297698D01*
X2256864Y4300932D01*
X2265098Y4297698D01*
X2271706Y4291090D01*
X2286408Y4285000D01*
X2302321D01*
X2317022Y4291090D01*
X2323631Y4297698D01*
X2331864Y4300932D01*
X2340098Y4297698D01*
X2346706Y4291090D01*
X2361408Y4285000D01*
X2377321D01*
X2392022Y4291090D01*
X2398631Y4297698D01*
X2406864Y4300932D01*
X2415098Y4297698D01*
X2421706Y4291090D01*
X2436408Y4285000D01*
X2452321D01*
X2467022Y4291090D01*
X2478274Y4302342D01*
X2484364Y4317043D01*
Y4332957D01*
X2478274Y4347658D01*
X2467022Y4358910D01*
X2452321Y4365000D01*
D02*
G37*
G36*
Y4265000D02*
X2436408D01*
X2421706Y4258910D01*
X2415098Y4252302D01*
X2406864Y4249068D01*
X2398631Y4252302D01*
X2392022Y4258910D01*
X2377321Y4265000D01*
X2361408D01*
X2346706Y4258910D01*
X2340098Y4252302D01*
X2331864Y4249068D01*
X2323631Y4252302D01*
X2317022Y4258910D01*
X2302321Y4265000D01*
X2286408D01*
X2271706Y4258910D01*
X2265098Y4252302D01*
X2256864Y4249068D01*
X2248631Y4252302D01*
X2242022Y4258910D01*
X2227321Y4265000D01*
X2211408D01*
X2196706Y4258910D01*
X2190098Y4252302D01*
X2181864Y4249068D01*
X2173631Y4252302D01*
X2167022Y4258910D01*
X2152321Y4265000D01*
X2136408D01*
X2121706Y4258910D01*
X2110454Y4247658D01*
X2104364Y4232956D01*
Y4217043D01*
X2110454Y4202342D01*
X2121706Y4191090D01*
X2136408Y4185000D01*
X2152321D01*
X2167022Y4191090D01*
X2173631Y4197698D01*
X2181864Y4200932D01*
X2190098Y4197698D01*
X2196706Y4191090D01*
X2211408Y4185000D01*
X2227321D01*
X2242022Y4191090D01*
X2248631Y4197698D01*
X2256864Y4200932D01*
X2265098Y4197698D01*
X2271706Y4191090D01*
X2286408Y4185000D01*
X2302321D01*
X2317022Y4191090D01*
X2323631Y4197698D01*
X2331864Y4200932D01*
X2340098Y4197698D01*
X2346706Y4191090D01*
X2361408Y4185000D01*
X2377321D01*
X2392022Y4191090D01*
X2398631Y4197698D01*
X2406864Y4200932D01*
X2415098Y4197698D01*
X2421706Y4191090D01*
X2436408Y4185000D01*
X2452321D01*
X2467022Y4191090D01*
X2478274Y4202342D01*
X2484364Y4217043D01*
Y4232956D01*
X2478274Y4247658D01*
X2467022Y4258910D01*
X2452321Y4265000D01*
D02*
G37*
G36*
X4264821Y4062500D02*
X4248908D01*
X4234206Y4056410D01*
X4222954Y4045158D01*
X4216864Y4030457D01*
Y4014543D01*
X4222954Y3999842D01*
X4234206Y3988590D01*
X4248908Y3982500D01*
X4264821D01*
X4279522Y3988590D01*
X4290775Y3999842D01*
X4296864Y4014543D01*
Y4030457D01*
X4290775Y4045158D01*
X4279522Y4056410D01*
X4264821Y4062500D01*
D02*
G37*
G36*
X5037957Y3980000D02*
X5022044D01*
X5007342Y3973910D01*
X5002979Y3969547D01*
X4994682Y3963658D01*
X4986386Y3969547D01*
X4982022Y3973910D01*
X4967321Y3980000D01*
X4951408D01*
X4936706Y3973910D01*
X4925454Y3962658D01*
X4919364Y3947957D01*
Y3932043D01*
X4925454Y3917342D01*
X4936706Y3906090D01*
X4951408Y3900000D01*
X4967321D01*
X4982022Y3906090D01*
X4986386Y3910453D01*
X4994682Y3916342D01*
X5002979Y3910453D01*
X5007342Y3906090D01*
X5022044Y3900000D01*
X5037957D01*
X5052658Y3906090D01*
X5063910Y3917342D01*
X5070000Y3932043D01*
Y3947957D01*
X5063910Y3962658D01*
X5052658Y3973910D01*
X5037957Y3980000D01*
D02*
G37*
G36*
X4083826Y3927500D02*
X4069902D01*
X4057038Y3922171D01*
X4047193Y3912326D01*
X4041864Y3899462D01*
Y3885538D01*
X4047193Y3872674D01*
X4057038Y3862828D01*
X4069902Y3857500D01*
X4083826D01*
X4096690Y3862828D01*
X4106536Y3872674D01*
X4111864Y3885538D01*
Y3899462D01*
X4106536Y3912326D01*
X4096690Y3922171D01*
X4083826Y3927500D01*
D02*
G37*
G36*
Y3817500D02*
X4069902D01*
X4057038Y3812171D01*
X4047193Y3802326D01*
X4041864Y3789462D01*
Y3775538D01*
X4047193Y3762674D01*
X4057038Y3752828D01*
X4069902Y3747500D01*
X4083826D01*
X4096690Y3752828D01*
X4106536Y3762674D01*
X4111864Y3775538D01*
Y3789462D01*
X4106536Y3802326D01*
X4096690Y3812171D01*
X4083826Y3817500D01*
D02*
G37*
G36*
X3737956Y3580000D02*
X3722043D01*
X3707342Y3573910D01*
X3697198Y3563766D01*
X3690000Y3563166D01*
X3682802Y3563766D01*
X3672658Y3573910D01*
X3657957Y3580000D01*
X3642044D01*
X3627342Y3573910D01*
X3616090Y3562658D01*
X3610000Y3547957D01*
Y3532043D01*
X3616090Y3517342D01*
X3621385Y3512047D01*
X3626031Y3503750D01*
X3621385Y3495453D01*
X3616090Y3490158D01*
X3610000Y3475457D01*
Y3459543D01*
X3616090Y3444842D01*
X3627342Y3433590D01*
X3642044Y3427500D01*
X3657957D01*
X3672658Y3433590D01*
X3682802Y3443734D01*
X3690000Y3444334D01*
X3697198Y3443734D01*
X3707342Y3433590D01*
X3722043Y3427500D01*
X3737956D01*
X3752658Y3433590D01*
X3763910Y3444842D01*
X3770000Y3459543D01*
Y3475457D01*
X3763910Y3490158D01*
X3758615Y3495453D01*
X3753969Y3503750D01*
X3758615Y3512047D01*
X3763910Y3517342D01*
X3770000Y3532043D01*
Y3547957D01*
X3763910Y3562658D01*
X3752658Y3573910D01*
X3737956Y3580000D01*
D02*
G37*
G36*
X1194821Y3205000D02*
X1178907D01*
X1164206Y3198910D01*
X1152954Y3187658D01*
X1146864Y3172957D01*
Y3157043D01*
X1152954Y3142342D01*
X1164206Y3131090D01*
X1178907Y3125000D01*
X1194821D01*
X1209522Y3131090D01*
X1220774Y3142342D01*
X1226864Y3157043D01*
Y3172957D01*
X1220774Y3187658D01*
X1209522Y3198910D01*
X1194821Y3205000D01*
D02*
G37*
G36*
X2922321Y2877500D02*
X2906407D01*
X2891706Y2871411D01*
X2880454Y2860158D01*
X2874364Y2845457D01*
Y2829544D01*
X2880454Y2814842D01*
X2891546Y2803750D01*
X2880454Y2792658D01*
X2874364Y2777957D01*
Y2762044D01*
X2880454Y2747342D01*
X2891706Y2736090D01*
X2906407Y2730000D01*
X2922321D01*
X2937022Y2736090D01*
X2948274Y2747342D01*
X2954364Y2762044D01*
Y2777957D01*
X2948274Y2792658D01*
X2937182Y2803750D01*
X2948274Y2814842D01*
X2954364Y2829544D01*
Y2845457D01*
X2948274Y2860158D01*
X2937022Y2871411D01*
X2922321Y2877500D01*
D02*
G37*
G36*
X2097321Y2760000D02*
X2081408D01*
X2066706Y2753910D01*
X2055454Y2742658D01*
X2049364Y2727956D01*
Y2712043D01*
X2055454Y2697342D01*
X2065598Y2687198D01*
X2066198Y2680000D01*
X2065598Y2672802D01*
X2055454Y2662658D01*
X2049364Y2647957D01*
Y2632044D01*
X2055454Y2617342D01*
X2065598Y2607198D01*
X2066198Y2600000D01*
X2065598Y2592802D01*
X2055454Y2582658D01*
X2049364Y2567957D01*
Y2552043D01*
X2055454Y2537342D01*
X2066706Y2526090D01*
X2081408Y2520000D01*
X2097321D01*
X2112022Y2526090D01*
X2123274Y2537342D01*
X2129364Y2552043D01*
Y2567957D01*
X2123274Y2582658D01*
X2113130Y2592802D01*
X2112530Y2600000D01*
X2113130Y2607198D01*
X2123274Y2617342D01*
X2129364Y2632044D01*
Y2647957D01*
X2123274Y2662658D01*
X2113130Y2672802D01*
X2112530Y2680000D01*
X2113130Y2687198D01*
X2123274Y2697342D01*
X2129364Y2712043D01*
Y2727956D01*
X2123274Y2742658D01*
X2112022Y2753910D01*
X2097321Y2760000D01*
D02*
G37*
G36*
X1199821Y2595000D02*
X1183907D01*
X1169206Y2588910D01*
X1157954Y2577658D01*
X1151864Y2562957D01*
Y2547043D01*
X1157954Y2532342D01*
X1169206Y2521090D01*
X1183907Y2515000D01*
X1199821D01*
X1214522Y2521090D01*
X1225774Y2532342D01*
X1231864Y2547043D01*
Y2562957D01*
X1225774Y2577658D01*
X1214522Y2588910D01*
X1199821Y2595000D01*
D02*
G37*
G36*
X3247320Y2690000D02*
X3231407D01*
X3216706Y2683911D01*
X3205454Y2672658D01*
X3199364Y2657957D01*
Y2642044D01*
X3205454Y2627342D01*
X3209499Y2623297D01*
X3215869Y2615000D01*
X3209499Y2606704D01*
X3205454Y2602658D01*
X3199364Y2587957D01*
Y2572044D01*
X3205454Y2557342D01*
X3209499Y2553297D01*
X3215869Y2545000D01*
X3209499Y2536704D01*
X3205454Y2532658D01*
X3199364Y2517957D01*
Y2502044D01*
X3205454Y2487342D01*
X3216706Y2476090D01*
X3231407Y2470000D01*
X3247320D01*
X3262022Y2476090D01*
X3273274Y2487342D01*
X3279364Y2502044D01*
Y2517957D01*
X3273274Y2532658D01*
X3269229Y2536704D01*
X3262859Y2545000D01*
X3269229Y2553297D01*
X3273274Y2557342D01*
X3279364Y2572044D01*
Y2587957D01*
X3273274Y2602658D01*
X3269229Y2606704D01*
X3262859Y2615000D01*
X3269229Y2623297D01*
X3273274Y2627342D01*
X3279364Y2642044D01*
Y2657957D01*
X3273274Y2672658D01*
X3262022Y2683911D01*
X3247320Y2690000D01*
D02*
G37*
G36*
X2712321Y2430000D02*
X2696408D01*
X2681706Y2423910D01*
X2670454Y2412658D01*
X2664364Y2397957D01*
Y2382043D01*
X2670454Y2367342D01*
X2681706Y2356090D01*
X2696408Y2350000D01*
X2712321D01*
X2727022Y2356090D01*
X2738274Y2367342D01*
X2744364Y2382043D01*
Y2397957D01*
X2738274Y2412658D01*
X2727022Y2423910D01*
X2712321Y2430000D01*
D02*
G37*
G36*
X1872321Y2357500D02*
X1856408D01*
X1841706Y2351410D01*
X1830454Y2340158D01*
X1824364Y2325457D01*
Y2309544D01*
X1830454Y2294842D01*
X1841706Y2283590D01*
X1856408Y2277500D01*
X1872321D01*
X1887022Y2283590D01*
X1898274Y2294842D01*
X1904364Y2309544D01*
Y2325457D01*
X1898274Y2340158D01*
X1887022Y2351410D01*
X1872321Y2357500D01*
D02*
G37*
G36*
X2609821Y2357500D02*
X2593908D01*
X2579206Y2351410D01*
X2567954Y2340158D01*
X2561864Y2325456D01*
Y2309543D01*
X2567954Y2294842D01*
X2579206Y2283590D01*
X2593908Y2277500D01*
X2609821D01*
X2624522Y2283590D01*
X2635775Y2294842D01*
X2641864Y2309543D01*
Y2325456D01*
X2635775Y2340158D01*
X2624522Y2351410D01*
X2609821Y2357500D01*
D02*
G37*
G36*
X3817957Y2280000D02*
X3802043D01*
X3787342Y2273910D01*
X3783297Y2269865D01*
X3775000Y2263495D01*
X3766703Y2269865D01*
X3762658Y2273910D01*
X3747956Y2280000D01*
X3732043D01*
X3717342Y2273910D01*
X3706090Y2262658D01*
X3700000Y2247957D01*
Y2232044D01*
X3706090Y2217342D01*
X3717342Y2206090D01*
X3732043Y2200000D01*
X3747956D01*
X3762658Y2206090D01*
X3766703Y2210135D01*
X3775000Y2216505D01*
X3783297Y2210135D01*
X3787342Y2206090D01*
X3802043Y2200000D01*
X3817957D01*
X3832658Y2206090D01*
X3843910Y2217342D01*
X3850000Y2232044D01*
Y2247957D01*
X3843910Y2262658D01*
X3832658Y2273910D01*
X3817957Y2280000D01*
D02*
G37*
G36*
X2288826Y2255000D02*
X2274902D01*
X2262038Y2249671D01*
X2252192Y2239826D01*
X2246864Y2226962D01*
Y2213038D01*
X2252192Y2200174D01*
X2262038Y2190328D01*
X2274902Y2185000D01*
X2288826D01*
X2301690Y2190328D01*
X2311535Y2200174D01*
X2316864Y2213038D01*
Y2226962D01*
X2311535Y2239826D01*
X2301690Y2249671D01*
X2288826Y2255000D01*
D02*
G37*
G36*
X2178826D02*
X2164902D01*
X2152038Y2249671D01*
X2142193Y2239826D01*
X2136864Y2226962D01*
Y2213038D01*
X2142193Y2200174D01*
X2152038Y2190328D01*
X2164902Y2185000D01*
X2178826D01*
X2191690Y2190328D01*
X2201536Y2200174D01*
X2206864Y2213038D01*
Y2226962D01*
X2201536Y2239826D01*
X2191690Y2249671D01*
X2178826Y2255000D01*
D02*
G37*
G36*
X1869821Y2227500D02*
X1853908D01*
X1839206Y2221410D01*
X1827954Y2210158D01*
X1821864Y2195457D01*
Y2179544D01*
X1827954Y2164842D01*
X1839206Y2153590D01*
X1853908Y2147500D01*
X1869821D01*
X1884522Y2153590D01*
X1895774Y2164842D01*
X1901864Y2179544D01*
Y2195457D01*
X1895774Y2210158D01*
X1884522Y2221410D01*
X1869821Y2227500D01*
D02*
G37*
G36*
X3527321Y2105000D02*
X3511408D01*
X3496706Y2098911D01*
X3485614Y2087819D01*
X3474522Y2098911D01*
X3459821Y2105000D01*
X3443908D01*
X3429206Y2098911D01*
X3417954Y2087659D01*
X3411864Y2072957D01*
Y2057044D01*
X3417954Y2042342D01*
X3429206Y2031090D01*
X3443908Y2025001D01*
X3459821D01*
X3474522Y2031090D01*
X3485614Y2042182D01*
X3496706Y2031090D01*
X3511408Y2025001D01*
X3527321D01*
X3542022Y2031090D01*
X3553274Y2042342D01*
X3559364Y2057044D01*
Y2072957D01*
X3553274Y2087659D01*
X3542022Y2098911D01*
X3527321Y2105000D01*
D02*
G37*
G36*
X4027320Y2167500D02*
X4011407D01*
X3996706Y2161411D01*
X3985454Y2150159D01*
X3979364Y2135457D01*
Y2119544D01*
X3985454Y2104842D01*
X3996705Y2093590D01*
X3996758Y2093326D01*
X3986090Y2082658D01*
X3980000Y2067956D01*
Y2052043D01*
X3986090Y2037342D01*
X3997342Y2026090D01*
X4012044Y2020000D01*
X4027957D01*
X4042658Y2026090D01*
X4053910Y2037342D01*
X4060000Y2052043D01*
Y2067956D01*
X4053910Y2082658D01*
X4042658Y2093910D01*
X4042606Y2094174D01*
X4053274Y2104842D01*
X4059364Y2119544D01*
Y2135457D01*
X4053274Y2150159D01*
X4042022Y2161411D01*
X4027320Y2167500D01*
D02*
G37*
G36*
X587957Y1960000D02*
X572044D01*
X557342Y1953910D01*
X553297Y1949865D01*
X545000Y1943495D01*
X536704Y1949865D01*
X532658Y1953910D01*
X517957Y1960000D01*
X502044D01*
X487342Y1953910D01*
X477393Y1943961D01*
X471578Y1942976D01*
X462733Y1943600D01*
X453296Y1953037D01*
X438594Y1959127D01*
X422681D01*
X407980Y1953037D01*
X396727Y1941785D01*
X390638Y1927084D01*
Y1911170D01*
X396727Y1896469D01*
X406068Y1887129D01*
X406879Y1878717D01*
X405804Y1872372D01*
X396090Y1862658D01*
X390000Y1847956D01*
Y1832043D01*
X396090Y1817342D01*
X406234Y1807198D01*
X406834Y1800000D01*
X406234Y1792802D01*
X396090Y1782658D01*
X390000Y1767956D01*
Y1752043D01*
X396090Y1737342D01*
X400135Y1733297D01*
X406505Y1725000D01*
X400135Y1716703D01*
X396090Y1712658D01*
X390000Y1697956D01*
Y1682043D01*
X396090Y1667342D01*
X400135Y1663297D01*
X406505Y1655000D01*
X400135Y1646703D01*
X396090Y1642658D01*
X390000Y1627956D01*
Y1612043D01*
X396090Y1597342D01*
X400890Y1592541D01*
X406587Y1584903D01*
X400890Y1575948D01*
X396727Y1571785D01*
X390638Y1557083D01*
Y1541170D01*
X396727Y1526469D01*
X401090Y1522106D01*
X406980Y1513809D01*
X401090Y1505512D01*
X396727Y1501149D01*
X390638Y1486448D01*
Y1470535D01*
X396727Y1455833D01*
X407980Y1444581D01*
X422681Y1438491D01*
X438594D01*
X453296Y1444581D01*
X463245Y1454530D01*
X469060Y1455515D01*
X477905Y1454891D01*
X487342Y1445454D01*
X502044Y1439364D01*
X517957D01*
X532658Y1445454D01*
X536704Y1449499D01*
X545000Y1455869D01*
X553297Y1449499D01*
X557342Y1445454D01*
X572044Y1439364D01*
X587957D01*
X602658Y1445454D01*
X613910Y1456706D01*
X620000Y1471408D01*
Y1487321D01*
X613910Y1502022D01*
X609547Y1506385D01*
X603658Y1514682D01*
X609547Y1522979D01*
X613910Y1527342D01*
X620000Y1542043D01*
Y1557956D01*
X613910Y1572658D01*
X609110Y1577458D01*
X603413Y1585096D01*
X609110Y1594052D01*
X613273Y1598215D01*
X619362Y1612916D01*
Y1628829D01*
X613273Y1643531D01*
X609228Y1647576D01*
X602858Y1655873D01*
X609228Y1664170D01*
X613273Y1668215D01*
X619362Y1682916D01*
Y1698829D01*
X613273Y1713531D01*
X609228Y1717576D01*
X602858Y1725873D01*
X609228Y1734170D01*
X613273Y1738215D01*
X619362Y1752916D01*
Y1768829D01*
X613273Y1783531D01*
X603129Y1793675D01*
X602529Y1800873D01*
X603129Y1808071D01*
X613273Y1818215D01*
X619362Y1832916D01*
Y1848829D01*
X613273Y1863531D01*
X603933Y1872871D01*
X603122Y1881282D01*
X604197Y1887628D01*
X613910Y1897342D01*
X620000Y1912043D01*
Y1927957D01*
X613910Y1942658D01*
X602658Y1953910D01*
X587957Y1960000D01*
D02*
G37*
G36*
X297956D02*
X282043D01*
X267342Y1953910D01*
X263297Y1949865D01*
X255000Y1943495D01*
X246703Y1949865D01*
X242658Y1953910D01*
X227957Y1960000D01*
X212044D01*
X197342Y1953910D01*
X187393Y1943961D01*
X181578Y1942976D01*
X172733Y1943600D01*
X163296Y1953037D01*
X148594Y1959127D01*
X132681D01*
X117979Y1953037D01*
X106727Y1941785D01*
X100638Y1927084D01*
Y1911170D01*
X106727Y1896469D01*
X116067Y1887129D01*
X116878Y1878717D01*
X115803Y1872372D01*
X106090Y1862658D01*
X100000Y1847956D01*
Y1832043D01*
X106090Y1817342D01*
X116234Y1807198D01*
X116834Y1800000D01*
X116234Y1792802D01*
X106090Y1782658D01*
X100000Y1767956D01*
Y1752043D01*
X106090Y1737342D01*
X110135Y1733297D01*
X116505Y1725000D01*
X110135Y1716703D01*
X106090Y1712658D01*
X100000Y1697956D01*
Y1682043D01*
X106090Y1667342D01*
X110135Y1663297D01*
X116505Y1655000D01*
X110135Y1646703D01*
X106090Y1642658D01*
X100000Y1627956D01*
Y1612043D01*
X106090Y1597342D01*
X110890Y1592541D01*
X116587Y1584903D01*
X110890Y1575948D01*
X106727Y1571785D01*
X100638Y1557083D01*
Y1541170D01*
X106727Y1526469D01*
X111090Y1522106D01*
X116980Y1513809D01*
X111090Y1505512D01*
X106727Y1501149D01*
X100638Y1486448D01*
Y1470535D01*
X106727Y1455833D01*
X117979Y1444581D01*
X132681Y1438491D01*
X148594D01*
X163296Y1444581D01*
X173245Y1454530D01*
X179059Y1455515D01*
X187904Y1454891D01*
X197342Y1445454D01*
X212044Y1439364D01*
X227957D01*
X242658Y1445454D01*
X246703Y1449499D01*
X255000Y1455869D01*
X263297Y1449499D01*
X267342Y1445454D01*
X282043Y1439364D01*
X297956D01*
X312658Y1445454D01*
X323910Y1456706D01*
X330000Y1471408D01*
Y1487321D01*
X323910Y1502022D01*
X319547Y1506385D01*
X313657Y1514682D01*
X319547Y1522979D01*
X323910Y1527342D01*
X330000Y1542043D01*
Y1557956D01*
X323910Y1572658D01*
X319110Y1577458D01*
X313413Y1585096D01*
X319110Y1594052D01*
X323273Y1598215D01*
X329362Y1612916D01*
Y1628829D01*
X323273Y1643531D01*
X319227Y1647576D01*
X312857Y1655873D01*
X319227Y1664170D01*
X323273Y1668215D01*
X329362Y1682916D01*
Y1698829D01*
X323273Y1713531D01*
X319227Y1717576D01*
X312857Y1725873D01*
X319227Y1734170D01*
X323273Y1738215D01*
X329362Y1752916D01*
Y1768829D01*
X323273Y1783531D01*
X313128Y1793675D01*
X312528Y1800873D01*
X313128Y1808071D01*
X323273Y1818215D01*
X329362Y1832916D01*
Y1848829D01*
X323273Y1863531D01*
X313933Y1872871D01*
X313122Y1881282D01*
X314196Y1887628D01*
X323910Y1897342D01*
X330000Y1912043D01*
Y1927957D01*
X323910Y1942658D01*
X312658Y1953910D01*
X297956Y1960000D01*
D02*
G37*
G36*
X2609821Y1947500D02*
X2593908D01*
X2579206Y1941410D01*
X2567954Y1930158D01*
X2561864Y1915456D01*
Y1899543D01*
X2567954Y1884842D01*
X2579206Y1873590D01*
X2593908Y1867500D01*
X2609821D01*
X2624522Y1873590D01*
X2635775Y1884842D01*
X2641864Y1899543D01*
Y1915456D01*
X2635775Y1930158D01*
X2624522Y1941410D01*
X2609821Y1947500D01*
D02*
G37*
G36*
X1767321Y1070000D02*
X1751407D01*
X1736706Y1063910D01*
X1725454Y1052658D01*
X1719364Y1037957D01*
Y1022043D01*
X1725454Y1007342D01*
X1736706Y996090D01*
X1751407Y990000D01*
X1767321D01*
X1782022Y996090D01*
X1793274Y1007342D01*
X1799364Y1022043D01*
Y1037957D01*
X1793274Y1052658D01*
X1782022Y1063910D01*
X1767321Y1070000D01*
D02*
G37*
G36*
X4014482Y1189500D02*
X3985518D01*
X3957541Y1182003D01*
X3932458Y1167521D01*
X3911978Y1147041D01*
X3897496Y1121958D01*
X3890000Y1093982D01*
Y1065018D01*
X3897496Y1037041D01*
X3911978Y1011958D01*
X3932458Y991478D01*
X3957541Y976996D01*
X3985518Y969500D01*
X4014482D01*
X4042458Y976996D01*
X4067541Y991478D01*
X4088022Y1011958D01*
X4102503Y1037041D01*
X4110000Y1065018D01*
Y1093982D01*
X4102503Y1121958D01*
X4088022Y1147041D01*
X4067541Y1167521D01*
X4042458Y1182003D01*
X4014482Y1189500D01*
D02*
G37*
G36*
X4120400Y945900D02*
X4012700D01*
Y838200D01*
X4120400D01*
Y945900D01*
D02*
G37*
G36*
X3987300D02*
X3879600D01*
Y838200D01*
X3987300D01*
Y945900D01*
D02*
G37*
G36*
X4120400Y812800D02*
X4012700D01*
Y705100D01*
X4120400D01*
Y812800D01*
D02*
G37*
G36*
X3987300D02*
X3879600D01*
Y705100D01*
X3987300D01*
Y812800D01*
D02*
G37*
G36*
X1914821Y780000D02*
X1898908D01*
X1884206Y773910D01*
X1872954Y762658D01*
X1866864Y747957D01*
Y732043D01*
X1872954Y717342D01*
X1884206Y706090D01*
X1898908Y700000D01*
X1914821D01*
X1929522Y706090D01*
X1940774Y717342D01*
X1946864Y732043D01*
Y747957D01*
X1940774Y762658D01*
X1929522Y773910D01*
X1914821Y780000D01*
D02*
G37*
G36*
X4396823Y630000D02*
X4369176D01*
X4342471Y622844D01*
X4318529Y609021D01*
X4298979Y589471D01*
X4285156Y565528D01*
X4278000Y538823D01*
Y511177D01*
X4285156Y484471D01*
X4298979Y460529D01*
X4318529Y440979D01*
X4342471Y427156D01*
X4369176Y420000D01*
X4396823D01*
X4423528Y427156D01*
X4447471Y440979D01*
X4467021Y460529D01*
X4480844Y484471D01*
X4488000Y511177D01*
Y538823D01*
X4480844Y565528D01*
X4467021Y589471D01*
X4447471Y609021D01*
X4423528Y622844D01*
X4396823Y630000D01*
D02*
G37*
G36*
X4142823D02*
X4115176D01*
X4088471Y622844D01*
X4064529Y609021D01*
X4044979Y589471D01*
X4031156Y565528D01*
X4024000Y538823D01*
Y511177D01*
X4031156Y484471D01*
X4044979Y460529D01*
X4064529Y440979D01*
X4088471Y427156D01*
X4115176Y420000D01*
X4142823D01*
X4169528Y427156D01*
X4193471Y440979D01*
X4213021Y460529D01*
X4226844Y484471D01*
X4234000Y511177D01*
Y538823D01*
X4226844Y565528D01*
X4213021Y589471D01*
X4193471Y609021D01*
X4169528Y622844D01*
X4142823Y630000D01*
D02*
G37*
G36*
X3888823D02*
X3861176D01*
X3834471Y622844D01*
X3810529Y609021D01*
X3790979Y589471D01*
X3777156Y565528D01*
X3770000Y538823D01*
Y511177D01*
X3777156Y484471D01*
X3790979Y460529D01*
X3810529Y440979D01*
X3834471Y427156D01*
X3861176Y420000D01*
X3888823D01*
X3915528Y427156D01*
X3939471Y440979D01*
X3959021Y460529D01*
X3972844Y484471D01*
X3980000Y511177D01*
Y538823D01*
X3972844Y565528D01*
X3959021Y589471D01*
X3939471Y609021D01*
X3915528Y622844D01*
X3888823Y630000D01*
D02*
G37*
G36*
X3634823D02*
X3607176D01*
X3580471Y622844D01*
X3556529Y609021D01*
X3536979Y589471D01*
X3523156Y565528D01*
X3516000Y538823D01*
Y511177D01*
X3523156Y484471D01*
X3536979Y460529D01*
X3556529Y440979D01*
X3580471Y427156D01*
X3607176Y420000D01*
X3634823D01*
X3661528Y427156D01*
X3685471Y440979D01*
X3705021Y460529D01*
X3718844Y484471D01*
X3726000Y511177D01*
Y538823D01*
X3718844Y565528D01*
X3705021Y589471D01*
X3685471Y609021D01*
X3661528Y622844D01*
X3634823Y630000D01*
D02*
G37*
G36*
X3380823D02*
X3353176D01*
X3326471Y622844D01*
X3302529Y609021D01*
X3282979Y589471D01*
X3269156Y565528D01*
X3262000Y538823D01*
Y511177D01*
X3269156Y484471D01*
X3282979Y460529D01*
X3302529Y440979D01*
X3326471Y427156D01*
X3353176Y420000D01*
X3380823D01*
X3407528Y427156D01*
X3431471Y440979D01*
X3451021Y460529D01*
X3464844Y484471D01*
X3472000Y511177D01*
Y538823D01*
X3464844Y565528D01*
X3451021Y589471D01*
X3431471Y609021D01*
X3407528Y622844D01*
X3380823Y630000D01*
D02*
G37*
G36*
X3126823D02*
X3099176D01*
X3072471Y622844D01*
X3048529Y609021D01*
X3028979Y589471D01*
X3015156Y565528D01*
X3008000Y538823D01*
Y511177D01*
X3015156Y484471D01*
X3028979Y460529D01*
X3048529Y440979D01*
X3072471Y427156D01*
X3099176Y420000D01*
X3126823D01*
X3153528Y427156D01*
X3177471Y440979D01*
X3197021Y460529D01*
X3210844Y484471D01*
X3218000Y511177D01*
Y538823D01*
X3210844Y565528D01*
X3197021Y589471D01*
X3177471Y609021D01*
X3153528Y622844D01*
X3126823Y630000D01*
D02*
G37*
G36*
X2872823D02*
X2845176D01*
X2818471Y622844D01*
X2794529Y609021D01*
X2774979Y589471D01*
X2761156Y565528D01*
X2754000Y538823D01*
Y511177D01*
X2761156Y484471D01*
X2774979Y460529D01*
X2794529Y440979D01*
X2818471Y427156D01*
X2845176Y420000D01*
X2872823D01*
X2899528Y427156D01*
X2923471Y440979D01*
X2943021Y460529D01*
X2956844Y484471D01*
X2964000Y511177D01*
Y538823D01*
X2956844Y565528D01*
X2943021Y589471D01*
X2923471Y609021D01*
X2899528Y622844D01*
X2872823Y630000D01*
D02*
G37*
G36*
X2618823D02*
X2591176D01*
X2564471Y622844D01*
X2540529Y609021D01*
X2520979Y589471D01*
X2507156Y565528D01*
X2500000Y538823D01*
Y511177D01*
X2507156Y484471D01*
X2520979Y460529D01*
X2540529Y440979D01*
X2564471Y427156D01*
X2591176Y420000D01*
X2618823D01*
X2645528Y427156D01*
X2669471Y440979D01*
X2689021Y460529D01*
X2702844Y484471D01*
X2710000Y511177D01*
Y538823D01*
X2702844Y565528D01*
X2689021Y589471D01*
X2669471Y609021D01*
X2645528Y622844D01*
X2618823Y630000D01*
D02*
G37*
G36*
X2364823D02*
X2337176D01*
X2310471Y622844D01*
X2286529Y609021D01*
X2266979Y589471D01*
X2253156Y565528D01*
X2246000Y538823D01*
Y511177D01*
X2253156Y484471D01*
X2266979Y460529D01*
X2286529Y440979D01*
X2310471Y427156D01*
X2337176Y420000D01*
X2364823D01*
X2391528Y427156D01*
X2415471Y440979D01*
X2435021Y460529D01*
X2448844Y484471D01*
X2456000Y511177D01*
Y538823D01*
X2448844Y565528D01*
X2435021Y589471D01*
X2415471Y609021D01*
X2391528Y622844D01*
X2364823Y630000D01*
D02*
G37*
G36*
X2110823D02*
X2083176D01*
X2056471Y622844D01*
X2032529Y609021D01*
X2012979Y589471D01*
X1999156Y565528D01*
X1992000Y538823D01*
Y511177D01*
X1999156Y484471D01*
X2012979Y460529D01*
X2032529Y440979D01*
X2056471Y427156D01*
X2083176Y420000D01*
X2110823D01*
X2137528Y427156D01*
X2161471Y440979D01*
X2181021Y460529D01*
X2194844Y484471D01*
X2202000Y511177D01*
Y538823D01*
X2194844Y565528D01*
X2181021Y589471D01*
X2161471Y609021D01*
X2137528Y622844D01*
X2110823Y630000D01*
D02*
G37*
G36*
X1856823D02*
X1829176D01*
X1802471Y622844D01*
X1778529Y609021D01*
X1758979Y589471D01*
X1745156Y565528D01*
X1738000Y538823D01*
Y511177D01*
X1745156Y484471D01*
X1758979Y460529D01*
X1778529Y440979D01*
X1802471Y427156D01*
X1829176Y420000D01*
X1856823D01*
X1883528Y427156D01*
X1907471Y440979D01*
X1927021Y460529D01*
X1940844Y484471D01*
X1948000Y511177D01*
Y538823D01*
X1940844Y565528D01*
X1927021Y589471D01*
X1907471Y609021D01*
X1883528Y622844D01*
X1856823Y630000D01*
D02*
G37*
G36*
X1602823D02*
X1575176D01*
X1548471Y622844D01*
X1524529Y609021D01*
X1504979Y589471D01*
X1491156Y565528D01*
X1484000Y538823D01*
Y511177D01*
X1491156Y484471D01*
X1504979Y460529D01*
X1524529Y440979D01*
X1548471Y427156D01*
X1575176Y420000D01*
X1602823D01*
X1629528Y427156D01*
X1653471Y440979D01*
X1673021Y460529D01*
X1686844Y484471D01*
X1694000Y511177D01*
Y538823D01*
X1686844Y565528D01*
X1673021Y589471D01*
X1653471Y609021D01*
X1629528Y622844D01*
X1602823Y630000D01*
D02*
G37*
G36*
X415759Y621810D02*
X384242D01*
X378332Y620635D01*
X372307D01*
X341395Y614486D01*
X335828Y612180D01*
X329919Y611005D01*
X300801Y598943D01*
X295791Y595596D01*
X290225Y593290D01*
X264019Y575780D01*
X259758Y571520D01*
X254749Y568172D01*
X232463Y545886D01*
X229115Y540877D01*
X224855Y536616D01*
X207345Y510410D01*
X205039Y504844D01*
X201691Y499834D01*
X189630Y470716D01*
X188455Y464806D01*
X186149Y459240D01*
X180000Y428328D01*
Y422303D01*
X178825Y416393D01*
Y384876D01*
X180000Y378966D01*
Y372942D01*
X186149Y342030D01*
X188455Y336463D01*
X189630Y330553D01*
X201691Y301436D01*
X205039Y296426D01*
X207345Y290859D01*
X224855Y264654D01*
X229115Y260393D01*
X232463Y255383D01*
X254749Y233097D01*
X259758Y229750D01*
X264019Y225489D01*
X290224Y207979D01*
X295791Y205673D01*
X300801Y202326D01*
X329919Y190265D01*
X335829Y189090D01*
X341395Y186784D01*
X372307Y180635D01*
X378332D01*
X384242Y179460D01*
X415759D01*
X421668Y180635D01*
X427693D01*
X458605Y186784D01*
X464172Y189090D01*
X470082Y190265D01*
X499199Y202326D01*
X504209Y205673D01*
X509775Y207979D01*
X535981Y225489D01*
X540242Y229750D01*
X545252Y233097D01*
X567538Y255383D01*
X570885Y260393D01*
X575146Y264654D01*
X592656Y290859D01*
X594961Y296426D01*
X598309Y301436D01*
X610370Y330554D01*
X611545Y336463D01*
X613851Y342030D01*
X620000Y372941D01*
Y378967D01*
X621176Y384876D01*
Y416393D01*
X620000Y422303D01*
Y428328D01*
X613851Y459240D01*
X611545Y464807D01*
X610370Y470716D01*
X598309Y499834D01*
X594961Y504844D01*
X592656Y510410D01*
X575146Y536616D01*
X570885Y540877D01*
X567538Y545886D01*
X545252Y568172D01*
X540242Y571520D01*
X535981Y575780D01*
X509776Y593290D01*
X504209Y595596D01*
X499199Y598943D01*
X470081Y611005D01*
X464172Y612180D01*
X458605Y614486D01*
X427694Y620635D01*
X421668D01*
X415759Y621810D01*
D02*
G37*
G36*
X4396823Y376000D02*
X4369176D01*
X4342471Y368844D01*
X4318529Y355021D01*
X4298979Y335471D01*
X4285156Y311528D01*
X4278000Y284823D01*
Y257177D01*
X4285156Y230471D01*
X4298979Y206529D01*
X4318529Y186979D01*
X4342471Y173156D01*
X4369176Y166000D01*
X4396823D01*
X4423528Y173156D01*
X4447471Y186979D01*
X4467021Y206529D01*
X4480844Y230471D01*
X4488000Y257177D01*
Y284823D01*
X4480844Y311528D01*
X4467021Y335471D01*
X4447471Y355021D01*
X4423528Y368844D01*
X4396823Y376000D01*
D02*
G37*
G36*
X4142823D02*
X4115176D01*
X4088471Y368844D01*
X4064529Y355021D01*
X4044979Y335471D01*
X4031156Y311528D01*
X4024000Y284823D01*
Y257177D01*
X4031156Y230471D01*
X4044979Y206529D01*
X4064529Y186979D01*
X4088471Y173156D01*
X4115176Y166000D01*
X4142823D01*
X4169528Y173156D01*
X4193471Y186979D01*
X4213021Y206529D01*
X4226844Y230471D01*
X4234000Y257177D01*
Y284823D01*
X4226844Y311528D01*
X4213021Y335471D01*
X4193471Y355021D01*
X4169528Y368844D01*
X4142823Y376000D01*
D02*
G37*
G36*
X3888823D02*
X3861176D01*
X3834471Y368844D01*
X3810529Y355021D01*
X3790979Y335471D01*
X3777156Y311528D01*
X3770000Y284823D01*
Y257177D01*
X3777156Y230471D01*
X3790979Y206529D01*
X3810529Y186979D01*
X3834471Y173156D01*
X3861176Y166000D01*
X3888823D01*
X3915528Y173156D01*
X3939471Y186979D01*
X3959021Y206529D01*
X3972844Y230471D01*
X3980000Y257177D01*
Y284823D01*
X3972844Y311528D01*
X3959021Y335471D01*
X3939471Y355021D01*
X3915528Y368844D01*
X3888823Y376000D01*
D02*
G37*
G36*
X3634823D02*
X3607176D01*
X3580471Y368844D01*
X3556529Y355021D01*
X3536979Y335471D01*
X3523156Y311528D01*
X3516000Y284823D01*
Y257177D01*
X3523156Y230471D01*
X3536979Y206529D01*
X3556529Y186979D01*
X3580471Y173156D01*
X3607176Y166000D01*
X3634823D01*
X3661528Y173156D01*
X3685471Y186979D01*
X3705021Y206529D01*
X3718844Y230471D01*
X3726000Y257177D01*
Y284823D01*
X3718844Y311528D01*
X3705021Y335471D01*
X3685471Y355021D01*
X3661528Y368844D01*
X3634823Y376000D01*
D02*
G37*
G36*
X3380823D02*
X3353176D01*
X3326471Y368844D01*
X3302529Y355021D01*
X3282979Y335471D01*
X3269156Y311528D01*
X3262000Y284823D01*
Y257177D01*
X3269156Y230471D01*
X3282979Y206529D01*
X3302529Y186979D01*
X3326471Y173156D01*
X3353176Y166000D01*
X3380823D01*
X3407528Y173156D01*
X3431471Y186979D01*
X3451021Y206529D01*
X3464844Y230471D01*
X3472000Y257177D01*
Y284823D01*
X3464844Y311528D01*
X3451021Y335471D01*
X3431471Y355021D01*
X3407528Y368844D01*
X3380823Y376000D01*
D02*
G37*
G36*
X3126823D02*
X3099176D01*
X3072471Y368844D01*
X3048529Y355021D01*
X3028979Y335471D01*
X3015156Y311528D01*
X3008000Y284823D01*
Y257177D01*
X3015156Y230471D01*
X3028979Y206529D01*
X3048529Y186979D01*
X3072471Y173156D01*
X3099176Y166000D01*
X3126823D01*
X3153528Y173156D01*
X3177471Y186979D01*
X3197021Y206529D01*
X3210844Y230471D01*
X3218000Y257177D01*
Y284823D01*
X3210844Y311528D01*
X3197021Y335471D01*
X3177471Y355021D01*
X3153528Y368844D01*
X3126823Y376000D01*
D02*
G37*
G36*
X2872823D02*
X2845176D01*
X2818471Y368844D01*
X2794529Y355021D01*
X2774979Y335471D01*
X2761156Y311528D01*
X2754000Y284823D01*
Y257177D01*
X2761156Y230471D01*
X2774979Y206529D01*
X2794529Y186979D01*
X2818471Y173156D01*
X2845176Y166000D01*
X2872823D01*
X2899528Y173156D01*
X2923471Y186979D01*
X2943021Y206529D01*
X2956844Y230471D01*
X2964000Y257177D01*
Y284823D01*
X2956844Y311528D01*
X2943021Y335471D01*
X2923471Y355021D01*
X2899528Y368844D01*
X2872823Y376000D01*
D02*
G37*
G36*
X2618823D02*
X2591176D01*
X2564471Y368844D01*
X2540529Y355021D01*
X2520979Y335471D01*
X2507156Y311528D01*
X2500000Y284823D01*
Y257177D01*
X2507156Y230471D01*
X2520979Y206529D01*
X2540529Y186979D01*
X2564471Y173156D01*
X2591176Y166000D01*
X2618823D01*
X2645528Y173156D01*
X2669471Y186979D01*
X2689021Y206529D01*
X2702844Y230471D01*
X2710000Y257177D01*
Y284823D01*
X2702844Y311528D01*
X2689021Y335471D01*
X2669471Y355021D01*
X2645528Y368844D01*
X2618823Y376000D01*
D02*
G37*
G36*
X2364823D02*
X2337176D01*
X2310471Y368844D01*
X2286529Y355021D01*
X2266979Y335471D01*
X2253156Y311528D01*
X2246000Y284823D01*
Y257177D01*
X2253156Y230471D01*
X2266979Y206529D01*
X2286529Y186979D01*
X2310471Y173156D01*
X2337176Y166000D01*
X2364823D01*
X2391528Y173156D01*
X2415471Y186979D01*
X2435021Y206529D01*
X2448844Y230471D01*
X2456000Y257177D01*
Y284823D01*
X2448844Y311528D01*
X2435021Y335471D01*
X2415471Y355021D01*
X2391528Y368844D01*
X2364823Y376000D01*
D02*
G37*
G36*
X2110823D02*
X2083176D01*
X2056471Y368844D01*
X2032529Y355021D01*
X2012979Y335471D01*
X1999156Y311528D01*
X1992000Y284823D01*
Y257177D01*
X1999156Y230471D01*
X2012979Y206529D01*
X2032529Y186979D01*
X2056471Y173156D01*
X2083176Y166000D01*
X2110823D01*
X2137528Y173156D01*
X2161471Y186979D01*
X2181021Y206529D01*
X2194844Y230471D01*
X2202000Y257177D01*
Y284823D01*
X2194844Y311528D01*
X2181021Y335471D01*
X2161471Y355021D01*
X2137528Y368844D01*
X2110823Y376000D01*
D02*
G37*
G36*
X1856823D02*
X1829176D01*
X1802471Y368844D01*
X1778529Y355021D01*
X1758979Y335471D01*
X1745156Y311528D01*
X1738000Y284823D01*
Y257177D01*
X1745156Y230471D01*
X1758979Y206529D01*
X1778529Y186979D01*
X1802471Y173156D01*
X1829176Y166000D01*
X1856823D01*
X1883528Y173156D01*
X1907471Y186979D01*
X1927021Y206529D01*
X1940844Y230471D01*
X1948000Y257177D01*
Y284823D01*
X1940844Y311528D01*
X1927021Y335471D01*
X1907471Y355021D01*
X1883528Y368844D01*
X1856823Y376000D01*
D02*
G37*
G36*
X1602823D02*
X1575176D01*
X1548471Y368844D01*
X1524529Y355021D01*
X1504979Y335471D01*
X1491156Y311528D01*
X1484000Y284823D01*
Y257177D01*
X1491156Y230471D01*
X1504979Y206529D01*
X1524529Y186979D01*
X1548471Y173156D01*
X1575176Y166000D01*
X1602823D01*
X1629528Y173156D01*
X1653471Y186979D01*
X1673021Y206529D01*
X1686844Y230471D01*
X1694000Y257177D01*
Y284823D01*
X1686844Y311528D01*
X1673021Y335471D01*
X1653471Y355021D01*
X1629528Y368844D01*
X1602823Y376000D01*
D02*
G37*
%LPD*%
D60*
X6619364Y2600000D02*
X6625104Y2594260D01*
X6645741D02*
X6680000Y2560000D01*
Y2490000D02*
Y2560000D01*
X6625104Y2594260D02*
X6645741D01*
X6507500Y1515000D02*
Y2317500D01*
X6680000Y2490000D01*
X6561593Y2462229D02*
X6615829Y2516465D01*
Y2523535D01*
X1842500Y1915000D02*
X1885000D01*
X2562500Y1237500D02*
X4632500D01*
X1885000Y1915000D02*
X2562500Y1237500D01*
X5570000Y2355000D02*
X5642500Y2427500D01*
X4757500Y2557500D02*
X4960000Y2355000D01*
X5570000D01*
X3340284Y2689716D02*
X3472500Y2557500D01*
X4757500D01*
X6182499Y2500000D02*
X6659364Y2976865D01*
X5121865Y2500000D02*
X6182499D01*
X6659364Y2976865D02*
Y3400000D01*
X5780000Y787500D02*
X6507500Y1515000D01*
X5780000Y398000D02*
Y787500D01*
X5653000Y271000D02*
X5780000Y398000D01*
X5525000Y597500D02*
X6472500Y1545000D01*
Y2373136D01*
X5525000Y397000D02*
Y597500D01*
X6472500Y2373136D02*
X6561593Y2462229D01*
X6561593D01*
X5399000Y271000D02*
X5525000Y397000D01*
X5125000Y4455000D02*
X5965000D01*
X6180000Y4240000D01*
Y3280000D02*
Y4240000D01*
D78*
X3621000Y271000D02*
D03*
X3875000D02*
D03*
X4129000D02*
D03*
X4383000D02*
D03*
X4637000D02*
D03*
X4891000D02*
D03*
X5145000D02*
D03*
X5399000D02*
D03*
X5653000D02*
D03*
X6415000Y525000D02*
D03*
X6161000Y271000D02*
D03*
X5907000D02*
D03*
X6161000Y525000D02*
D03*
X3621000D02*
D03*
X3875000D02*
D03*
X4129000D02*
D03*
X4383000D02*
D03*
X4637000D02*
D03*
X4891000D02*
D03*
X5145000D02*
D03*
X5399000D02*
D03*
X5653000D02*
D03*
X5907000D02*
D03*
X6415000Y271000D02*
D03*
X1589000D02*
D03*
X1843000D02*
D03*
X2097000D02*
D03*
X2605000D02*
D03*
X2859000D02*
D03*
X3113000D02*
D03*
X3367000D02*
D03*
X3113000Y525000D02*
D03*
X3367000D02*
D03*
X2859000D02*
D03*
X2351000Y271000D02*
D03*
X1843000Y525000D02*
D03*
X2097000D02*
D03*
X2351000D02*
D03*
X2605000D02*
D03*
X1589000D02*
D03*
D79*
X6129364Y6090000D02*
D03*
X5629364D02*
D03*
D80*
X5329364Y7090000D02*
D03*
X6429364D02*
D03*
D81*
X4000000Y825500D02*
D03*
D82*
Y1079500D02*
D03*
D83*
X7462576Y2665500D02*
D03*
Y2284500D02*
D03*
D84*
X6102500Y1400000D02*
D03*
X5954364D02*
D03*
X6615829Y2523535D02*
D03*
X6292500Y2802500D02*
D03*
X6212500D02*
D03*
X6290000Y2880000D02*
D03*
X6210000D02*
D03*
X6500000Y2960000D02*
D03*
X6430000D02*
D03*
X5950000Y2900000D02*
D03*
X5820000Y2860000D02*
D03*
X5122638Y2293294D02*
D03*
X2470000Y5870000D02*
D03*
X3310000Y5100000D02*
D03*
X3240000D02*
D03*
X5030000Y3940000D02*
D03*
X4350000Y760000D02*
D03*
Y820000D02*
D03*
Y880000D02*
D03*
X1806803Y1919016D02*
D03*
X4020000Y2060000D02*
D03*
X3740000Y2240000D02*
D03*
X3810000D02*
D03*
X3800638Y6648491D02*
D03*
X3880000Y6649364D02*
D03*
Y6720000D02*
D03*
X3800638Y6719127D02*
D03*
X3879363Y6790873D02*
D03*
X3800000Y6790000D02*
D03*
Y6860000D02*
D03*
X3879363Y6860873D02*
D03*
Y6930873D02*
D03*
X3800000Y6930000D02*
D03*
X3590637Y6648491D02*
D03*
X3670000Y6649364D02*
D03*
Y6720000D02*
D03*
X3590637Y6719127D02*
D03*
X3669362Y6790873D02*
D03*
X3590000Y6790000D02*
D03*
Y6860000D02*
D03*
X3669362Y6860873D02*
D03*
Y6930873D02*
D03*
X3590000Y6930000D02*
D03*
X580000Y1479364D02*
D03*
X430638Y1478491D02*
D03*
X510000Y1479364D02*
D03*
Y1550000D02*
D03*
X580000D02*
D03*
X430638Y1549127D02*
D03*
X509363Y1620873D02*
D03*
X430000Y1620000D02*
D03*
X579363Y1620873D02*
D03*
Y1690873D02*
D03*
X430000Y1690000D02*
D03*
X509363Y1690873D02*
D03*
Y1760873D02*
D03*
X579363D02*
D03*
X430000Y1760000D02*
D03*
X579363Y1840873D02*
D03*
X509363D02*
D03*
X430000Y1840000D02*
D03*
X430638Y1919127D02*
D03*
X510000Y1920000D02*
D03*
X580000D02*
D03*
X290000Y1479364D02*
D03*
X140638Y1478491D02*
D03*
X220000Y1479364D02*
D03*
Y1550000D02*
D03*
X290000D02*
D03*
X140638Y1549127D02*
D03*
X219363Y1620873D02*
D03*
X140000Y1620000D02*
D03*
X289362Y1620873D02*
D03*
Y1690873D02*
D03*
X140000Y1690000D02*
D03*
X219363Y1690873D02*
D03*
Y1760873D02*
D03*
X289362D02*
D03*
X140000Y1760000D02*
D03*
X289362Y1840873D02*
D03*
X219363D02*
D03*
X140000Y1840000D02*
D03*
X140638Y1919127D02*
D03*
X220000Y1920000D02*
D03*
X290000D02*
D03*
X6050000Y3170000D02*
D03*
X5820000Y3220000D02*
D03*
X5897538Y3235673D02*
D03*
X3850000Y4369364D02*
D03*
X3700638Y4368491D02*
D03*
X3780000Y4369364D02*
D03*
Y4440000D02*
D03*
X3850000D02*
D03*
X3700638Y4439127D02*
D03*
X3779363Y4510873D02*
D03*
X3700000Y4510000D02*
D03*
X3849362Y4510873D02*
D03*
Y4580873D02*
D03*
X3700000Y4580000D02*
D03*
X3779363Y4580873D02*
D03*
Y4650873D02*
D03*
X3849362D02*
D03*
X3700000Y4650000D02*
D03*
X3849362Y4730873D02*
D03*
X3779363D02*
D03*
X3700000Y4730000D02*
D03*
X3700638Y4809127D02*
D03*
X3780000Y4810000D02*
D03*
X3850000D02*
D03*
X4250637Y4368491D02*
D03*
X4101275Y4367618D02*
D03*
X4180638Y4368491D02*
D03*
Y4439127D02*
D03*
X4250637D02*
D03*
X4101275Y4438254D02*
D03*
X4180000Y4510000D02*
D03*
X4100637Y4509127D02*
D03*
X4250000Y4510000D02*
D03*
Y4580000D02*
D03*
X4100637Y4579127D02*
D03*
X4180000Y4580000D02*
D03*
Y4650000D02*
D03*
X4250000D02*
D03*
X4100637Y4649127D02*
D03*
X4250000Y4730000D02*
D03*
X4180000D02*
D03*
X4100637Y4729127D02*
D03*
X4101275Y4808254D02*
D03*
X4180638Y4809127D02*
D03*
X4250637D02*
D03*
X4400237Y3800638D02*
D03*
X4399364Y3950000D02*
D03*
X4400237Y3870637D02*
D03*
X4470873D02*
D03*
Y3800638D02*
D03*
X4470000Y3950000D02*
D03*
X4541746Y3871275D02*
D03*
X4540873Y3950638D02*
D03*
X4541746Y3801275D02*
D03*
X4611746D02*
D03*
X4610873Y3950638D02*
D03*
X4611746Y3871275D02*
D03*
X4681746D02*
D03*
Y3801275D02*
D03*
X4680873Y3950638D02*
D03*
X4761746Y3801275D02*
D03*
Y3871275D02*
D03*
X4760873Y3950638D02*
D03*
X4840000Y3950000D02*
D03*
X4840873Y3870637D02*
D03*
Y3800638D02*
D03*
X3650000Y3800000D02*
D03*
Y3870000D02*
D03*
X3649127Y3949362D02*
D03*
X3570000Y3950000D02*
D03*
X3570873Y3870637D02*
D03*
Y3800638D02*
D03*
X3490000Y3950000D02*
D03*
X3490873Y3800638D02*
D03*
Y3870637D02*
D03*
X3420873D02*
D03*
X3420000Y3950000D02*
D03*
X3420873Y3800638D02*
D03*
X3350873D02*
D03*
X3350000Y3950000D02*
D03*
X3350873Y3870637D02*
D03*
X3279127Y3949362D02*
D03*
X3280000Y3800000D02*
D03*
Y3870000D02*
D03*
X7900000Y6900000D02*
D03*
Y7100000D02*
D03*
X7700000Y7000000D02*
D03*
Y7200000D02*
D03*
X7500000Y7100000D02*
D03*
X7200000Y200000D02*
D03*
X6800000D02*
D03*
X6600000Y400000D02*
D03*
X7000000D02*
D03*
X7200000Y600000D02*
D03*
X6800000D02*
D03*
X7300000Y7400000D02*
D03*
X7500000Y7300000D02*
D03*
X7300000Y7200000D02*
D03*
X6500000Y6000000D02*
D03*
X6800000D02*
D03*
X7100000D02*
D03*
X7400000D02*
D03*
X7500000Y6200000D02*
D03*
X7200000D02*
D03*
X6900000D02*
D03*
X6600000D02*
D03*
X6400000Y6400000D02*
D03*
X6700000D02*
D03*
X7000000D02*
D03*
X7300000D02*
D03*
X7100000Y6600000D02*
D03*
X6900000Y6800000D02*
D03*
X6800000Y6600000D02*
D03*
X6500000D02*
D03*
X6600000Y6800000D02*
D03*
X7600000Y1900000D02*
D03*
X4900000Y800000D02*
D03*
X5100000Y900000D02*
D03*
X5300000Y800000D02*
D03*
X5500000Y900000D02*
D03*
X7300000Y3300000D02*
D03*
X7800000Y2900000D02*
D03*
X7500000D02*
D03*
X7900000Y3100000D02*
D03*
X7600000D02*
D03*
X7800000Y3300000D02*
D03*
X7500000D02*
D03*
X7200000Y2100000D02*
D03*
X7800000Y1900000D02*
D03*
X7600000Y2100000D02*
D03*
X7400000Y1900000D02*
D03*
X7200000Y1700000D02*
D03*
X6900000Y1500000D02*
D03*
X6600000Y1200000D02*
D03*
X7400000Y800000D02*
D03*
X7200000Y1000000D02*
D03*
X7000000Y800000D02*
D03*
X6800000Y1000000D02*
D03*
X6600000Y800000D02*
D03*
X6400000Y1000000D02*
D03*
X6200000Y800000D02*
D03*
X3650000Y3540000D02*
D03*
X3730000D02*
D03*
X4959364Y3940000D02*
D03*
X3650000Y3467500D02*
D03*
X3730000D02*
D03*
X6950000Y3020000D02*
D03*
Y2945000D02*
D03*
Y2872500D02*
D03*
X1955000Y5885000D02*
D03*
X2022500D02*
D03*
X1874178Y1919265D02*
D03*
X4429364Y1460000D02*
D03*
Y1530000D02*
D03*
X4519364D02*
D03*
X6244364Y1400000D02*
D03*
X6610000Y2300000D02*
D03*
X7837500Y2225000D02*
D03*
X7845000Y2475000D02*
D03*
X7847500Y2602500D02*
D03*
X7845000Y2730000D02*
D03*
X7260000Y3030000D02*
D03*
X7185000Y3032500D02*
D03*
X7257500Y3110000D02*
D03*
X7185000D02*
D03*
X5122649Y2133285D02*
D03*
X5642500Y2427500D02*
D03*
X3340284Y2689716D02*
D03*
X5460636Y1302500D02*
D03*
X5390000D02*
D03*
X4519364Y1460000D02*
D03*
X5844364Y1042500D02*
D03*
X5626865Y1400000D02*
D03*
X2601864Y1907500D02*
D03*
X3239364Y2650000D02*
D03*
X4339364Y1460000D02*
D03*
X6355000Y3232500D02*
D03*
X4994364Y3077500D02*
D03*
X6619364Y2600000D02*
D03*
X5125000Y4455000D02*
D03*
X6180000Y3280000D02*
D03*
X7436864Y4720000D02*
D03*
Y4420000D02*
D03*
X7366864D02*
D03*
Y4620000D02*
D03*
X7436864Y4320000D02*
D03*
Y4520000D02*
D03*
X7511864Y4220000D02*
D03*
X7366864Y4820000D02*
D03*
X7436864Y4220000D02*
D03*
X7214364Y4720000D02*
D03*
X7289364Y4520000D02*
D03*
X7436864Y4620000D02*
D03*
Y4920000D02*
D03*
X7214364Y4820000D02*
D03*
X7366864Y4720000D02*
D03*
X7511864Y4920000D02*
D03*
X7289364Y4820000D02*
D03*
X7214364Y4920000D02*
D03*
X7289364Y4220000D02*
D03*
X7436864Y4820000D02*
D03*
X7289364Y4420000D02*
D03*
Y4620000D02*
D03*
X7511864Y4820000D02*
D03*
X7366864Y4220000D02*
D03*
X7214364D02*
D03*
Y4520000D02*
D03*
Y4420000D02*
D03*
X7289364Y4720000D02*
D03*
X7511864D02*
D03*
X7214364Y4320000D02*
D03*
X7289364Y4920000D02*
D03*
X7511864Y4320000D02*
D03*
X7214364Y4620000D02*
D03*
X7511864Y4520000D02*
D03*
X7366864Y4920000D02*
D03*
X7511864Y4420000D02*
D03*
Y4620000D02*
D03*
X7366864Y4320000D02*
D03*
X7289364D02*
D03*
X7366864Y4520000D02*
D03*
X5390000Y1370000D02*
D03*
X5460000D02*
D03*
X4629364Y1910000D02*
D03*
X5909364Y1260000D02*
D03*
X6769364Y2010000D02*
D03*
X6659364Y3400000D02*
D03*
X4019364Y2127500D02*
D03*
X6761864Y2680000D02*
D03*
X5121865Y2500000D02*
D03*
X5119364Y2425000D02*
D03*
X7016864Y1950000D02*
D03*
X4636864Y2017500D02*
D03*
X5644364Y2300000D02*
D03*
X2704364Y2390000D02*
D03*
X2601864Y2317500D02*
D03*
X1906864Y740000D02*
D03*
X1759364Y1030000D02*
D03*
X1864364Y2317500D02*
D03*
X1861864Y2187500D02*
D03*
X1191864Y2555000D02*
D03*
X1186864Y3165000D02*
D03*
X2089364Y2560000D02*
D03*
Y2640000D02*
D03*
Y2720000D02*
D03*
X3519364Y2065000D02*
D03*
X3451864D02*
D03*
X2914364Y2770000D02*
D03*
Y2837500D02*
D03*
X3239364Y2510000D02*
D03*
Y2580000D02*
D03*
X4210000Y880000D02*
D03*
X4280000D02*
D03*
X4210000Y760000D02*
D03*
X4280000D02*
D03*
Y820000D02*
D03*
X4210000D02*
D03*
X5130000Y1840000D02*
D03*
X5129364Y1770000D02*
D03*
X4839364Y2700000D02*
D03*
X6676864Y2680000D02*
D03*
X6119364Y3170000D02*
D03*
X6269364Y3400000D02*
D03*
X5969364D02*
D03*
X5420115Y3231750D02*
D03*
X6613614Y1623250D02*
D03*
X5370115Y1618250D02*
D03*
X4339364Y1530000D02*
D03*
X4989364Y2770000D02*
D03*
X2444364Y4925000D02*
D03*
X2369364D02*
D03*
X2294364D02*
D03*
X2144364D02*
D03*
X2219364D02*
D03*
Y4225000D02*
D03*
X2144364D02*
D03*
X2294364D02*
D03*
X2369364D02*
D03*
X2444364D02*
D03*
X2219364Y4325000D02*
D03*
X2144364D02*
D03*
X2294364D02*
D03*
X2369364D02*
D03*
X2444364D02*
D03*
X2219364Y4425000D02*
D03*
X2144364D02*
D03*
X2294364D02*
D03*
X2369364D02*
D03*
X2444364D02*
D03*
X2219364Y4525000D02*
D03*
X2144364D02*
D03*
X2294364D02*
D03*
X2369364D02*
D03*
X2444364D02*
D03*
X2219364Y4625000D02*
D03*
X2144364D02*
D03*
X2294364D02*
D03*
X2369364D02*
D03*
X2444364D02*
D03*
X2219364Y4725000D02*
D03*
X2144364D02*
D03*
X2294364D02*
D03*
X2369364D02*
D03*
X2444364D02*
D03*
X2219364Y4825000D02*
D03*
X2144364D02*
D03*
X2294364D02*
D03*
X2369364D02*
D03*
X2444364D02*
D03*
X4256864Y4022500D02*
D03*
X3209364Y3870000D02*
D03*
X3208491Y3949362D02*
D03*
X3209364Y3800000D02*
D03*
D85*
X4794364Y1195000D02*
D03*
Y1305000D02*
D03*
X4076864Y3892500D02*
D03*
Y3782500D02*
D03*
X2171864Y2220000D02*
D03*
X2281864D02*
D03*
D90*
X1840000Y1920000D02*
D03*
%TF.MD5,287ad3c641b0d84a7f6d9e977074fdf9*%
M02*
