%TF.GenerationSoftware,Altium Limited,Altium Designer,21.6.1 (37)*%
G04 Layer_Color=2752767*
%FSLAX45Y45*%
%MOMM*%
%TF.SameCoordinates,308497C2-864B-4A42-B135-7B231B7309CE*%
%TF.FilePolarity,Positive*%
%TF.FileFunction,Drawing*%
%TF.Part,Single*%
G01*
G75*
%TA.AperFunction,NonConductor*%
%ADD175C,0.12700*%
%ADD176C,0.16933*%
D175*
X3570200Y220200D02*
Y321800D01*
X3671800D01*
Y220200D01*
X3570200D01*
X3824200D02*
Y321800D01*
X3925800D01*
Y220200D01*
X3824200D01*
X4078200D02*
Y321800D01*
X4179800D01*
Y220200D01*
X4078200D01*
X4332200D02*
Y321800D01*
X4433800D01*
Y220200D01*
X4332200D01*
X4586200D02*
Y321800D01*
X4687800D01*
Y220200D01*
X4586200D01*
X4840200D02*
Y321800D01*
X4941800D01*
Y220200D01*
X4840200D01*
X5094200D02*
Y321800D01*
X5195800D01*
Y220200D01*
X5094200D01*
X5348200D02*
Y321800D01*
X5449800D01*
Y220200D01*
X5348200D01*
X5602200D02*
Y321800D01*
X5703800D01*
Y220200D01*
X5602200D01*
X6364200Y474200D02*
Y575800D01*
X6465800D01*
Y474200D01*
X6364200D01*
X6110200Y220200D02*
Y321800D01*
X6211800D01*
Y220200D01*
X6110200D01*
X5856200D02*
Y321800D01*
X5957800D01*
Y220200D01*
X5856200D01*
X6110200Y474200D02*
Y575800D01*
X6211800D01*
Y474200D01*
X6110200D01*
X3570200D02*
Y575800D01*
X3671800D01*
Y474200D01*
X3570200D01*
X3824200D02*
Y575800D01*
X3925800D01*
Y474200D01*
X3824200D01*
X4078200D02*
Y575800D01*
X4179800D01*
Y474200D01*
X4078200D01*
X4332200D02*
Y575800D01*
X4433800D01*
Y474200D01*
X4332200D01*
X4586200D02*
Y575800D01*
X4687800D01*
Y474200D01*
X4586200D01*
X4840200D02*
Y575800D01*
X4941800D01*
Y474200D01*
X4840200D01*
X5094200D02*
Y575800D01*
X5195800D01*
Y474200D01*
X5094200D01*
X5348200D02*
Y575800D01*
X5449800D01*
Y474200D01*
X5348200D01*
X5602200D02*
Y575800D01*
X5703800D01*
Y474200D01*
X5602200D01*
X5856200D02*
Y575800D01*
X5957800D01*
Y474200D01*
X5856200D01*
X6364200Y220200D02*
Y321800D01*
X6465800D01*
Y220200D01*
X6364200D01*
X1538200D02*
Y321800D01*
X1639800D01*
Y220200D01*
X1538200D01*
X1792200D02*
Y321800D01*
X1893800D01*
Y220200D01*
X1792200D01*
X2046200D02*
Y321800D01*
X2147800D01*
Y220200D01*
X2046200D01*
X2554200D02*
Y321800D01*
X2655800D01*
Y220200D01*
X2554200D01*
X2808200D02*
Y321800D01*
X2909800D01*
Y220200D01*
X2808200D01*
X3062200D02*
Y321800D01*
X3163800D01*
Y220200D01*
X3062200D01*
X3316200D02*
Y321800D01*
X3417800D01*
Y220200D01*
X3316200D01*
X3062200Y474200D02*
Y575800D01*
X3163800D01*
Y474200D01*
X3062200D01*
X3316200D02*
Y575800D01*
X3417800D01*
Y474200D01*
X3316200D01*
X2808200D02*
Y575800D01*
X2909800D01*
Y474200D01*
X2808200D01*
X2300200Y220200D02*
Y321800D01*
X2401800D01*
Y220200D01*
X2300200D01*
X1792200Y474200D02*
Y575800D01*
X1893800D01*
Y474200D01*
X1792200D01*
X2046200D02*
Y575800D01*
X2147800D01*
Y474200D01*
X2046200D01*
X2300200D02*
Y575800D01*
X2401800D01*
Y474200D01*
X2300200D01*
X2554200D02*
Y575800D01*
X2655800D01*
Y474200D01*
X2554200D01*
X1538200D02*
Y575800D01*
X1639800D01*
Y474200D01*
X1538200D01*
X5329364Y7039200D02*
X5278564Y7140800D01*
X5380164D01*
X5329364Y7039200D01*
X6429364D02*
X6378564Y7140800D01*
X6480164D01*
X6429364Y7039200D01*
X3949200Y774700D02*
Y876300D01*
X4050800D01*
Y774700D01*
X3949200D01*
Y1028700D02*
Y1130300D01*
X4050800D01*
Y1028700D01*
X3949200D01*
X7462576Y2614700D02*
X7487976Y2640100D01*
X7513376D01*
X7487976Y2665500D01*
X7513376Y2690900D01*
X7487976D01*
X7462576Y2716300D01*
X7437176Y2690900D01*
X7411776D01*
X7437176Y2665500D01*
X7411776Y2640100D01*
X7437176D01*
X7462576Y2614700D01*
Y2233700D02*
X7487976Y2259100D01*
X7513376D01*
X7487976Y2284500D01*
X7513376Y2309900D01*
X7487976D01*
X7462576Y2335300D01*
X7437176Y2309900D01*
X7411776D01*
X7437176Y2284500D01*
X7411776Y2259100D01*
X7437176D01*
X7462576Y2233700D01*
X6051700Y1349200D02*
X6077100Y1400000D01*
X6051700Y1450800D01*
X6102500Y1425400D01*
X6153300Y1450800D01*
X6127900Y1400000D01*
X6153300Y1349200D01*
X6102500Y1374600D01*
X6051700Y1349200D01*
X5903564D02*
X5928964Y1400000D01*
X5903564Y1450800D01*
X5954364Y1425400D01*
X6005164Y1450800D01*
X5979764Y1400000D01*
X6005164Y1349200D01*
X5954364Y1374600D01*
X5903564Y1349200D01*
X6565029Y2472735D02*
X6590429Y2523535D01*
X6565029Y2574335D01*
X6615829Y2548935D01*
X6666629Y2574335D01*
X6641229Y2523535D01*
X6666629Y2472735D01*
X6615829Y2498135D01*
X6565029Y2472735D01*
X6241700Y2751700D02*
X6267100Y2802500D01*
X6241700Y2853300D01*
X6292500Y2827900D01*
X6343300Y2853300D01*
X6317900Y2802500D01*
X6343300Y2751700D01*
X6292500Y2777100D01*
X6241700Y2751700D01*
X6161700D02*
X6187100Y2802500D01*
X6161700Y2853300D01*
X6212500Y2827900D01*
X6263300Y2853300D01*
X6237900Y2802500D01*
X6263300Y2751700D01*
X6212500Y2777100D01*
X6161700Y2751700D01*
X6239200Y2829200D02*
X6264600Y2880000D01*
X6239200Y2930800D01*
X6290000Y2905400D01*
X6340800Y2930800D01*
X6315400Y2880000D01*
X6340800Y2829200D01*
X6290000Y2854600D01*
X6239200Y2829200D01*
X6159200D02*
X6184600Y2880000D01*
X6159200Y2930800D01*
X6210000Y2905400D01*
X6260800Y2930800D01*
X6235400Y2880000D01*
X6260800Y2829200D01*
X6210000Y2854600D01*
X6159200Y2829200D01*
X6449200Y2909200D02*
X6474600Y2960000D01*
X6449200Y3010800D01*
X6500000Y2985400D01*
X6550800Y3010800D01*
X6525400Y2960000D01*
X6550800Y2909200D01*
X6500000Y2934600D01*
X6449200Y2909200D01*
X6379200D02*
X6404600Y2960000D01*
X6379200Y3010800D01*
X6430000Y2985400D01*
X6480800Y3010800D01*
X6455400Y2960000D01*
X6480800Y2909200D01*
X6430000Y2934600D01*
X6379200Y2909200D01*
X5899200Y2849200D02*
X5924600Y2900000D01*
X5899200Y2950800D01*
X5950000Y2925400D01*
X6000800Y2950800D01*
X5975400Y2900000D01*
X6000800Y2849200D01*
X5950000Y2874600D01*
X5899200Y2849200D01*
X5769200Y2809200D02*
X5794600Y2860000D01*
X5769200Y2910800D01*
X5820000Y2885400D01*
X5870800Y2910800D01*
X5845400Y2860000D01*
X5870800Y2809200D01*
X5820000Y2834600D01*
X5769200Y2809200D01*
X5071838Y2242494D02*
X5097238Y2293294D01*
X5071838Y2344094D01*
X5122638Y2318694D01*
X5173438Y2344094D01*
X5148038Y2293294D01*
X5173438Y2242494D01*
X5122638Y2267894D01*
X5071838Y2242494D01*
X2419200Y5819200D02*
X2444600Y5870000D01*
X2419200Y5920800D01*
X2470000Y5895400D01*
X2520800Y5920800D01*
X2495400Y5870000D01*
X2520800Y5819200D01*
X2470000Y5844600D01*
X2419200Y5819200D01*
X3259200Y5049200D02*
X3284600Y5100000D01*
X3259200Y5150800D01*
X3310000Y5125400D01*
X3360800Y5150800D01*
X3335400Y5100000D01*
X3360800Y5049200D01*
X3310000Y5074600D01*
X3259200Y5049200D01*
X3189200D02*
X3214600Y5100000D01*
X3189200Y5150800D01*
X3240000Y5125400D01*
X3290800Y5150800D01*
X3265400Y5100000D01*
X3290800Y5049200D01*
X3240000Y5074600D01*
X3189200Y5049200D01*
X4979200Y3889200D02*
X5004600Y3940000D01*
X4979200Y3990800D01*
X5030000Y3965400D01*
X5080800Y3990800D01*
X5055400Y3940000D01*
X5080800Y3889200D01*
X5030000Y3914600D01*
X4979200Y3889200D01*
X4299200Y709200D02*
X4324600Y760000D01*
X4299200Y810800D01*
X4350000Y785400D01*
X4400800Y810800D01*
X4375400Y760000D01*
X4400800Y709200D01*
X4350000Y734600D01*
X4299200Y709200D01*
Y769200D02*
X4324600Y820000D01*
X4299200Y870800D01*
X4350000Y845400D01*
X4400800Y870800D01*
X4375400Y820000D01*
X4400800Y769200D01*
X4350000Y794600D01*
X4299200Y769200D01*
Y829200D02*
X4324600Y880000D01*
X4299200Y930800D01*
X4350000Y905400D01*
X4400800Y930800D01*
X4375400Y880000D01*
X4400800Y829200D01*
X4350000Y854600D01*
X4299200Y829200D01*
X1756003Y1868216D02*
X1781403Y1919016D01*
X1756003Y1969816D01*
X1806803Y1944416D01*
X1857603Y1969816D01*
X1832203Y1919016D01*
X1857603Y1868216D01*
X1806803Y1893616D01*
X1756003Y1868216D01*
X3969200Y2009200D02*
X3994600Y2060000D01*
X3969200Y2110800D01*
X4020000Y2085400D01*
X4070800Y2110800D01*
X4045400Y2060000D01*
X4070800Y2009200D01*
X4020000Y2034600D01*
X3969200Y2009200D01*
X3689200Y2189200D02*
X3714600Y2240000D01*
X3689200Y2290800D01*
X3740000Y2265400D01*
X3790800Y2290800D01*
X3765400Y2240000D01*
X3790800Y2189200D01*
X3740000Y2214600D01*
X3689200Y2189200D01*
X3759200D02*
X3784600Y2240000D01*
X3759200Y2290800D01*
X3810000Y2265400D01*
X3860800Y2290800D01*
X3835400Y2240000D01*
X3860800Y2189200D01*
X3810000Y2214600D01*
X3759200Y2189200D01*
X3749838Y6597691D02*
X3775238Y6648491D01*
X3749838Y6699291D01*
X3800638Y6673891D01*
X3851438Y6699291D01*
X3826038Y6648491D01*
X3851438Y6597691D01*
X3800638Y6623091D01*
X3749838Y6597691D01*
X3829200Y6598564D02*
X3854600Y6649364D01*
X3829200Y6700164D01*
X3880000Y6674764D01*
X3930800Y6700164D01*
X3905400Y6649364D01*
X3930800Y6598564D01*
X3880000Y6623964D01*
X3829200Y6598564D01*
Y6669200D02*
X3854600Y6720000D01*
X3829200Y6770800D01*
X3880000Y6745400D01*
X3930800Y6770800D01*
X3905400Y6720000D01*
X3930800Y6669200D01*
X3880000Y6694600D01*
X3829200Y6669200D01*
X3749838Y6668327D02*
X3775238Y6719127D01*
X3749838Y6769927D01*
X3800638Y6744527D01*
X3851438Y6769927D01*
X3826038Y6719127D01*
X3851438Y6668327D01*
X3800638Y6693727D01*
X3749838Y6668327D01*
X3828563Y6740073D02*
X3853963Y6790873D01*
X3828563Y6841673D01*
X3879363Y6816273D01*
X3930163Y6841673D01*
X3904763Y6790873D01*
X3930163Y6740073D01*
X3879363Y6765473D01*
X3828563Y6740073D01*
X3749200Y6739200D02*
X3774600Y6790000D01*
X3749200Y6840800D01*
X3800000Y6815400D01*
X3850800Y6840800D01*
X3825400Y6790000D01*
X3850800Y6739200D01*
X3800000Y6764600D01*
X3749200Y6739200D01*
Y6809200D02*
X3774600Y6860000D01*
X3749200Y6910800D01*
X3800000Y6885400D01*
X3850800Y6910800D01*
X3825400Y6860000D01*
X3850800Y6809200D01*
X3800000Y6834600D01*
X3749200Y6809200D01*
X3828563Y6810073D02*
X3853963Y6860873D01*
X3828563Y6911673D01*
X3879363Y6886273D01*
X3930163Y6911673D01*
X3904763Y6860873D01*
X3930163Y6810073D01*
X3879363Y6835473D01*
X3828563Y6810073D01*
Y6880073D02*
X3853963Y6930873D01*
X3828563Y6981673D01*
X3879363Y6956273D01*
X3930163Y6981673D01*
X3904763Y6930873D01*
X3930163Y6880073D01*
X3879363Y6905473D01*
X3828563Y6880073D01*
X3749200Y6879200D02*
X3774600Y6930000D01*
X3749200Y6980800D01*
X3800000Y6955400D01*
X3850800Y6980800D01*
X3825400Y6930000D01*
X3850800Y6879200D01*
X3800000Y6904600D01*
X3749200Y6879200D01*
X3539837Y6597691D02*
X3565237Y6648491D01*
X3539837Y6699291D01*
X3590637Y6673891D01*
X3641437Y6699291D01*
X3616037Y6648491D01*
X3641437Y6597691D01*
X3590637Y6623091D01*
X3539837Y6597691D01*
X3619200Y6598564D02*
X3644600Y6649364D01*
X3619200Y6700164D01*
X3670000Y6674764D01*
X3720800Y6700164D01*
X3695400Y6649364D01*
X3720800Y6598564D01*
X3670000Y6623964D01*
X3619200Y6598564D01*
Y6669200D02*
X3644600Y6720000D01*
X3619200Y6770800D01*
X3670000Y6745400D01*
X3720800Y6770800D01*
X3695400Y6720000D01*
X3720800Y6669200D01*
X3670000Y6694600D01*
X3619200Y6669200D01*
X3539837Y6668327D02*
X3565237Y6719127D01*
X3539837Y6769927D01*
X3590637Y6744527D01*
X3641437Y6769927D01*
X3616037Y6719127D01*
X3641437Y6668327D01*
X3590637Y6693727D01*
X3539837Y6668327D01*
X3618562Y6740073D02*
X3643962Y6790873D01*
X3618562Y6841673D01*
X3669362Y6816273D01*
X3720162Y6841673D01*
X3694762Y6790873D01*
X3720162Y6740073D01*
X3669362Y6765473D01*
X3618562Y6740073D01*
X3539200Y6739200D02*
X3564600Y6790000D01*
X3539200Y6840800D01*
X3590000Y6815400D01*
X3640800Y6840800D01*
X3615400Y6790000D01*
X3640800Y6739200D01*
X3590000Y6764600D01*
X3539200Y6739200D01*
Y6809200D02*
X3564600Y6860000D01*
X3539200Y6910800D01*
X3590000Y6885400D01*
X3640800Y6910800D01*
X3615400Y6860000D01*
X3640800Y6809200D01*
X3590000Y6834600D01*
X3539200Y6809200D01*
X3618562Y6810073D02*
X3643962Y6860873D01*
X3618562Y6911673D01*
X3669362Y6886273D01*
X3720162Y6911673D01*
X3694762Y6860873D01*
X3720162Y6810073D01*
X3669362Y6835473D01*
X3618562Y6810073D01*
Y6880073D02*
X3643962Y6930873D01*
X3618562Y6981673D01*
X3669362Y6956273D01*
X3720162Y6981673D01*
X3694762Y6930873D01*
X3720162Y6880073D01*
X3669362Y6905473D01*
X3618562Y6880073D01*
X3539200Y6879200D02*
X3564600Y6930000D01*
X3539200Y6980800D01*
X3590000Y6955400D01*
X3640800Y6980800D01*
X3615400Y6930000D01*
X3640800Y6879200D01*
X3590000Y6904600D01*
X3539200Y6879200D01*
X529200Y1428564D02*
X554600Y1479364D01*
X529200Y1530164D01*
X580000Y1504764D01*
X630800Y1530164D01*
X605400Y1479364D01*
X630800Y1428564D01*
X580000Y1453964D01*
X529200Y1428564D01*
X379838Y1427691D02*
X405238Y1478491D01*
X379838Y1529291D01*
X430638Y1503891D01*
X481438Y1529291D01*
X456038Y1478491D01*
X481438Y1427691D01*
X430638Y1453091D01*
X379838Y1427691D01*
X459200Y1428564D02*
X484600Y1479364D01*
X459200Y1530164D01*
X510000Y1504764D01*
X560800Y1530164D01*
X535400Y1479364D01*
X560800Y1428564D01*
X510000Y1453964D01*
X459200Y1428564D01*
Y1499200D02*
X484600Y1550000D01*
X459200Y1600800D01*
X510000Y1575400D01*
X560800Y1600800D01*
X535400Y1550000D01*
X560800Y1499200D01*
X510000Y1524600D01*
X459200Y1499200D01*
X529200D02*
X554600Y1550000D01*
X529200Y1600800D01*
X580000Y1575400D01*
X630800Y1600800D01*
X605400Y1550000D01*
X630800Y1499200D01*
X580000Y1524600D01*
X529200Y1499200D01*
X379838Y1498327D02*
X405238Y1549127D01*
X379838Y1599927D01*
X430638Y1574527D01*
X481438Y1599927D01*
X456038Y1549127D01*
X481438Y1498327D01*
X430638Y1523727D01*
X379838Y1498327D01*
X458563Y1570073D02*
X483963Y1620873D01*
X458563Y1671673D01*
X509363Y1646273D01*
X560163Y1671673D01*
X534763Y1620873D01*
X560163Y1570073D01*
X509363Y1595473D01*
X458563Y1570073D01*
X379200Y1569200D02*
X404600Y1620000D01*
X379200Y1670800D01*
X430000Y1645400D01*
X480800Y1670800D01*
X455400Y1620000D01*
X480800Y1569200D01*
X430000Y1594600D01*
X379200Y1569200D01*
X528563Y1570073D02*
X553963Y1620873D01*
X528563Y1671673D01*
X579363Y1646273D01*
X630163Y1671673D01*
X604763Y1620873D01*
X630163Y1570073D01*
X579363Y1595473D01*
X528563Y1570073D01*
Y1640073D02*
X553963Y1690873D01*
X528563Y1741673D01*
X579363Y1716273D01*
X630163Y1741673D01*
X604763Y1690873D01*
X630163Y1640073D01*
X579363Y1665473D01*
X528563Y1640073D01*
X379200Y1639200D02*
X404600Y1690000D01*
X379200Y1740800D01*
X430000Y1715400D01*
X480800Y1740800D01*
X455400Y1690000D01*
X480800Y1639200D01*
X430000Y1664600D01*
X379200Y1639200D01*
X458563Y1640073D02*
X483963Y1690873D01*
X458563Y1741673D01*
X509363Y1716273D01*
X560163Y1741673D01*
X534763Y1690873D01*
X560163Y1640073D01*
X509363Y1665473D01*
X458563Y1640073D01*
Y1710073D02*
X483963Y1760873D01*
X458563Y1811673D01*
X509363Y1786273D01*
X560163Y1811673D01*
X534763Y1760873D01*
X560163Y1710073D01*
X509363Y1735473D01*
X458563Y1710073D01*
X528563D02*
X553963Y1760873D01*
X528563Y1811673D01*
X579363Y1786273D01*
X630163Y1811673D01*
X604763Y1760873D01*
X630163Y1710073D01*
X579363Y1735473D01*
X528563Y1710073D01*
X379200Y1709200D02*
X404600Y1760000D01*
X379200Y1810800D01*
X430000Y1785400D01*
X480800Y1810800D01*
X455400Y1760000D01*
X480800Y1709200D01*
X430000Y1734600D01*
X379200Y1709200D01*
X528563Y1790073D02*
X553963Y1840873D01*
X528563Y1891673D01*
X579363Y1866273D01*
X630163Y1891673D01*
X604763Y1840873D01*
X630163Y1790073D01*
X579363Y1815473D01*
X528563Y1790073D01*
X458563D02*
X483963Y1840873D01*
X458563Y1891673D01*
X509363Y1866273D01*
X560163Y1891673D01*
X534763Y1840873D01*
X560163Y1790073D01*
X509363Y1815473D01*
X458563Y1790073D01*
X379200Y1789200D02*
X404600Y1840000D01*
X379200Y1890800D01*
X430000Y1865400D01*
X480800Y1890800D01*
X455400Y1840000D01*
X480800Y1789200D01*
X430000Y1814600D01*
X379200Y1789200D01*
X379838Y1868327D02*
X405238Y1919127D01*
X379838Y1969927D01*
X430638Y1944527D01*
X481438Y1969927D01*
X456038Y1919127D01*
X481438Y1868327D01*
X430638Y1893727D01*
X379838Y1868327D01*
X459200Y1869200D02*
X484600Y1920000D01*
X459200Y1970800D01*
X510000Y1945400D01*
X560800Y1970800D01*
X535400Y1920000D01*
X560800Y1869200D01*
X510000Y1894600D01*
X459200Y1869200D01*
X529200D02*
X554600Y1920000D01*
X529200Y1970800D01*
X580000Y1945400D01*
X630800Y1970800D01*
X605400Y1920000D01*
X630800Y1869200D01*
X580000Y1894600D01*
X529200Y1869200D01*
X239200Y1428564D02*
X264600Y1479364D01*
X239200Y1530164D01*
X290000Y1504764D01*
X340800Y1530164D01*
X315400Y1479364D01*
X340800Y1428564D01*
X290000Y1453964D01*
X239200Y1428564D01*
X89838Y1427691D02*
X115238Y1478491D01*
X89838Y1529291D01*
X140638Y1503891D01*
X191438Y1529291D01*
X166038Y1478491D01*
X191438Y1427691D01*
X140638Y1453091D01*
X89838Y1427691D01*
X169200Y1428564D02*
X194600Y1479364D01*
X169200Y1530164D01*
X220000Y1504764D01*
X270800Y1530164D01*
X245400Y1479364D01*
X270800Y1428564D01*
X220000Y1453964D01*
X169200Y1428564D01*
Y1499200D02*
X194600Y1550000D01*
X169200Y1600800D01*
X220000Y1575400D01*
X270800Y1600800D01*
X245400Y1550000D01*
X270800Y1499200D01*
X220000Y1524600D01*
X169200Y1499200D01*
X239200D02*
X264600Y1550000D01*
X239200Y1600800D01*
X290000Y1575400D01*
X340800Y1600800D01*
X315400Y1550000D01*
X340800Y1499200D01*
X290000Y1524600D01*
X239200Y1499200D01*
X89838Y1498327D02*
X115238Y1549127D01*
X89838Y1599927D01*
X140638Y1574527D01*
X191438Y1599927D01*
X166038Y1549127D01*
X191438Y1498327D01*
X140638Y1523727D01*
X89838Y1498327D01*
X168563Y1570073D02*
X193963Y1620873D01*
X168563Y1671673D01*
X219363Y1646273D01*
X270163Y1671673D01*
X244763Y1620873D01*
X270163Y1570073D01*
X219363Y1595473D01*
X168563Y1570073D01*
X89200Y1569200D02*
X114600Y1620000D01*
X89200Y1670800D01*
X140000Y1645400D01*
X190800Y1670800D01*
X165400Y1620000D01*
X190800Y1569200D01*
X140000Y1594600D01*
X89200Y1569200D01*
X238562Y1570073D02*
X263962Y1620873D01*
X238562Y1671673D01*
X289362Y1646273D01*
X340162Y1671673D01*
X314762Y1620873D01*
X340162Y1570073D01*
X289362Y1595473D01*
X238562Y1570073D01*
Y1640073D02*
X263962Y1690873D01*
X238562Y1741673D01*
X289362Y1716273D01*
X340162Y1741673D01*
X314762Y1690873D01*
X340162Y1640073D01*
X289362Y1665473D01*
X238562Y1640073D01*
X89200Y1639200D02*
X114600Y1690000D01*
X89200Y1740800D01*
X140000Y1715400D01*
X190800Y1740800D01*
X165400Y1690000D01*
X190800Y1639200D01*
X140000Y1664600D01*
X89200Y1639200D01*
X168563Y1640073D02*
X193963Y1690873D01*
X168563Y1741673D01*
X219363Y1716273D01*
X270163Y1741673D01*
X244763Y1690873D01*
X270163Y1640073D01*
X219363Y1665473D01*
X168563Y1640073D01*
Y1710073D02*
X193963Y1760873D01*
X168563Y1811673D01*
X219363Y1786273D01*
X270163Y1811673D01*
X244763Y1760873D01*
X270163Y1710073D01*
X219363Y1735473D01*
X168563Y1710073D01*
X238562D02*
X263962Y1760873D01*
X238562Y1811673D01*
X289362Y1786273D01*
X340162Y1811673D01*
X314762Y1760873D01*
X340162Y1710073D01*
X289362Y1735473D01*
X238562Y1710073D01*
X89200Y1709200D02*
X114600Y1760000D01*
X89200Y1810800D01*
X140000Y1785400D01*
X190800Y1810800D01*
X165400Y1760000D01*
X190800Y1709200D01*
X140000Y1734600D01*
X89200Y1709200D01*
X238562Y1790073D02*
X263962Y1840873D01*
X238562Y1891673D01*
X289362Y1866273D01*
X340162Y1891673D01*
X314762Y1840873D01*
X340162Y1790073D01*
X289362Y1815473D01*
X238562Y1790073D01*
X168563D02*
X193963Y1840873D01*
X168563Y1891673D01*
X219363Y1866273D01*
X270163Y1891673D01*
X244763Y1840873D01*
X270163Y1790073D01*
X219363Y1815473D01*
X168563Y1790073D01*
X89200Y1789200D02*
X114600Y1840000D01*
X89200Y1890800D01*
X140000Y1865400D01*
X190800Y1890800D01*
X165400Y1840000D01*
X190800Y1789200D01*
X140000Y1814600D01*
X89200Y1789200D01*
X89838Y1868327D02*
X115238Y1919127D01*
X89838Y1969927D01*
X140638Y1944527D01*
X191438Y1969927D01*
X166038Y1919127D01*
X191438Y1868327D01*
X140638Y1893727D01*
X89838Y1868327D01*
X169200Y1869200D02*
X194600Y1920000D01*
X169200Y1970800D01*
X220000Y1945400D01*
X270800Y1970800D01*
X245400Y1920000D01*
X270800Y1869200D01*
X220000Y1894600D01*
X169200Y1869200D01*
X239200D02*
X264600Y1920000D01*
X239200Y1970800D01*
X290000Y1945400D01*
X340800Y1970800D01*
X315400Y1920000D01*
X340800Y1869200D01*
X290000Y1894600D01*
X239200Y1869200D01*
X5999200Y3119200D02*
X6024600Y3170000D01*
X5999200Y3220800D01*
X6050000Y3195400D01*
X6100800Y3220800D01*
X6075400Y3170000D01*
X6100800Y3119200D01*
X6050000Y3144600D01*
X5999200Y3119200D01*
X5769200Y3169200D02*
X5794600Y3220000D01*
X5769200Y3270800D01*
X5820000Y3245400D01*
X5870800Y3270800D01*
X5845400Y3220000D01*
X5870800Y3169200D01*
X5820000Y3194600D01*
X5769200Y3169200D01*
X5846738Y3184873D02*
X5872138Y3235673D01*
X5846738Y3286473D01*
X5897538Y3261073D01*
X5948338Y3286473D01*
X5922938Y3235673D01*
X5948338Y3184873D01*
X5897538Y3210273D01*
X5846738Y3184873D01*
X3799200Y4318564D02*
X3824600Y4369364D01*
X3799200Y4420164D01*
X3850000Y4394764D01*
X3900800Y4420164D01*
X3875400Y4369364D01*
X3900800Y4318564D01*
X3850000Y4343964D01*
X3799200Y4318564D01*
X3649838Y4317691D02*
X3675238Y4368491D01*
X3649838Y4419291D01*
X3700638Y4393891D01*
X3751438Y4419291D01*
X3726038Y4368491D01*
X3751438Y4317691D01*
X3700638Y4343091D01*
X3649838Y4317691D01*
X3729200Y4318564D02*
X3754600Y4369364D01*
X3729200Y4420164D01*
X3780000Y4394764D01*
X3830800Y4420164D01*
X3805400Y4369364D01*
X3830800Y4318564D01*
X3780000Y4343964D01*
X3729200Y4318564D01*
Y4389200D02*
X3754600Y4440000D01*
X3729200Y4490800D01*
X3780000Y4465400D01*
X3830800Y4490800D01*
X3805400Y4440000D01*
X3830800Y4389200D01*
X3780000Y4414600D01*
X3729200Y4389200D01*
X3799200D02*
X3824600Y4440000D01*
X3799200Y4490800D01*
X3850000Y4465400D01*
X3900800Y4490800D01*
X3875400Y4440000D01*
X3900800Y4389200D01*
X3850000Y4414600D01*
X3799200Y4389200D01*
X3649838Y4388327D02*
X3675238Y4439127D01*
X3649838Y4489927D01*
X3700638Y4464527D01*
X3751438Y4489927D01*
X3726038Y4439127D01*
X3751438Y4388327D01*
X3700638Y4413727D01*
X3649838Y4388327D01*
X3728563Y4460073D02*
X3753963Y4510873D01*
X3728563Y4561673D01*
X3779363Y4536273D01*
X3830163Y4561673D01*
X3804763Y4510873D01*
X3830163Y4460073D01*
X3779363Y4485473D01*
X3728563Y4460073D01*
X3649200Y4459200D02*
X3674600Y4510000D01*
X3649200Y4560800D01*
X3700000Y4535400D01*
X3750800Y4560800D01*
X3725400Y4510000D01*
X3750800Y4459200D01*
X3700000Y4484600D01*
X3649200Y4459200D01*
X3798562Y4460073D02*
X3823962Y4510873D01*
X3798562Y4561673D01*
X3849362Y4536273D01*
X3900162Y4561673D01*
X3874762Y4510873D01*
X3900162Y4460073D01*
X3849362Y4485473D01*
X3798562Y4460073D01*
Y4530073D02*
X3823962Y4580873D01*
X3798562Y4631673D01*
X3849362Y4606273D01*
X3900162Y4631673D01*
X3874762Y4580873D01*
X3900162Y4530073D01*
X3849362Y4555473D01*
X3798562Y4530073D01*
X3649200Y4529200D02*
X3674600Y4580000D01*
X3649200Y4630800D01*
X3700000Y4605400D01*
X3750800Y4630800D01*
X3725400Y4580000D01*
X3750800Y4529200D01*
X3700000Y4554600D01*
X3649200Y4529200D01*
X3728563Y4530073D02*
X3753963Y4580873D01*
X3728563Y4631673D01*
X3779363Y4606273D01*
X3830163Y4631673D01*
X3804763Y4580873D01*
X3830163Y4530073D01*
X3779363Y4555473D01*
X3728563Y4530073D01*
Y4600073D02*
X3753963Y4650873D01*
X3728563Y4701673D01*
X3779363Y4676273D01*
X3830163Y4701673D01*
X3804763Y4650873D01*
X3830163Y4600073D01*
X3779363Y4625473D01*
X3728563Y4600073D01*
X3798562D02*
X3823962Y4650873D01*
X3798562Y4701673D01*
X3849362Y4676273D01*
X3900162Y4701673D01*
X3874762Y4650873D01*
X3900162Y4600073D01*
X3849362Y4625473D01*
X3798562Y4600073D01*
X3649200Y4599200D02*
X3674600Y4650000D01*
X3649200Y4700800D01*
X3700000Y4675400D01*
X3750800Y4700800D01*
X3725400Y4650000D01*
X3750800Y4599200D01*
X3700000Y4624600D01*
X3649200Y4599200D01*
X3798562Y4680073D02*
X3823962Y4730873D01*
X3798562Y4781673D01*
X3849362Y4756273D01*
X3900162Y4781673D01*
X3874762Y4730873D01*
X3900162Y4680073D01*
X3849362Y4705473D01*
X3798562Y4680073D01*
X3728563D02*
X3753963Y4730873D01*
X3728563Y4781673D01*
X3779363Y4756273D01*
X3830163Y4781673D01*
X3804763Y4730873D01*
X3830163Y4680073D01*
X3779363Y4705473D01*
X3728563Y4680073D01*
X3649200Y4679200D02*
X3674600Y4730000D01*
X3649200Y4780800D01*
X3700000Y4755400D01*
X3750800Y4780800D01*
X3725400Y4730000D01*
X3750800Y4679200D01*
X3700000Y4704600D01*
X3649200Y4679200D01*
X3649838Y4758327D02*
X3675238Y4809127D01*
X3649838Y4859927D01*
X3700638Y4834527D01*
X3751438Y4859927D01*
X3726038Y4809127D01*
X3751438Y4758327D01*
X3700638Y4783727D01*
X3649838Y4758327D01*
X3729200Y4759200D02*
X3754600Y4810000D01*
X3729200Y4860800D01*
X3780000Y4835400D01*
X3830800Y4860800D01*
X3805400Y4810000D01*
X3830800Y4759200D01*
X3780000Y4784600D01*
X3729200Y4759200D01*
X3799200D02*
X3824600Y4810000D01*
X3799200Y4860800D01*
X3850000Y4835400D01*
X3900800Y4860800D01*
X3875400Y4810000D01*
X3900800Y4759200D01*
X3850000Y4784600D01*
X3799200Y4759200D01*
X4199837Y4317691D02*
X4225237Y4368491D01*
X4199837Y4419291D01*
X4250637Y4393891D01*
X4301437Y4419291D01*
X4276037Y4368491D01*
X4301437Y4317691D01*
X4250637Y4343091D01*
X4199837Y4317691D01*
X4050475Y4316818D02*
X4075875Y4367618D01*
X4050475Y4418418D01*
X4101275Y4393018D01*
X4152075Y4418418D01*
X4126675Y4367618D01*
X4152075Y4316818D01*
X4101275Y4342218D01*
X4050475Y4316818D01*
X4129838Y4317691D02*
X4155238Y4368491D01*
X4129838Y4419291D01*
X4180638Y4393891D01*
X4231438Y4419291D01*
X4206038Y4368491D01*
X4231438Y4317691D01*
X4180638Y4343091D01*
X4129838Y4317691D01*
Y4388327D02*
X4155238Y4439127D01*
X4129838Y4489927D01*
X4180638Y4464527D01*
X4231438Y4489927D01*
X4206038Y4439127D01*
X4231438Y4388327D01*
X4180638Y4413727D01*
X4129838Y4388327D01*
X4199837D02*
X4225237Y4439127D01*
X4199837Y4489927D01*
X4250637Y4464527D01*
X4301437Y4489927D01*
X4276037Y4439127D01*
X4301437Y4388327D01*
X4250637Y4413727D01*
X4199837Y4388327D01*
X4050475Y4387454D02*
X4075875Y4438254D01*
X4050475Y4489054D01*
X4101275Y4463654D01*
X4152075Y4489054D01*
X4126675Y4438254D01*
X4152075Y4387454D01*
X4101275Y4412854D01*
X4050475Y4387454D01*
X4129200Y4459200D02*
X4154600Y4510000D01*
X4129200Y4560800D01*
X4180000Y4535400D01*
X4230800Y4560800D01*
X4205400Y4510000D01*
X4230800Y4459200D01*
X4180000Y4484600D01*
X4129200Y4459200D01*
X4049837Y4458327D02*
X4075237Y4509127D01*
X4049837Y4559927D01*
X4100637Y4534527D01*
X4151437Y4559927D01*
X4126037Y4509127D01*
X4151437Y4458327D01*
X4100637Y4483727D01*
X4049837Y4458327D01*
X4199200Y4459200D02*
X4224600Y4510000D01*
X4199200Y4560800D01*
X4250000Y4535400D01*
X4300800Y4560800D01*
X4275400Y4510000D01*
X4300800Y4459200D01*
X4250000Y4484600D01*
X4199200Y4459200D01*
Y4529200D02*
X4224600Y4580000D01*
X4199200Y4630800D01*
X4250000Y4605400D01*
X4300800Y4630800D01*
X4275400Y4580000D01*
X4300800Y4529200D01*
X4250000Y4554600D01*
X4199200Y4529200D01*
X4049837Y4528327D02*
X4075237Y4579127D01*
X4049837Y4629927D01*
X4100637Y4604527D01*
X4151437Y4629927D01*
X4126037Y4579127D01*
X4151437Y4528327D01*
X4100637Y4553727D01*
X4049837Y4528327D01*
X4129200Y4529200D02*
X4154600Y4580000D01*
X4129200Y4630800D01*
X4180000Y4605400D01*
X4230800Y4630800D01*
X4205400Y4580000D01*
X4230800Y4529200D01*
X4180000Y4554600D01*
X4129200Y4529200D01*
Y4599200D02*
X4154600Y4650000D01*
X4129200Y4700800D01*
X4180000Y4675400D01*
X4230800Y4700800D01*
X4205400Y4650000D01*
X4230800Y4599200D01*
X4180000Y4624600D01*
X4129200Y4599200D01*
X4199200D02*
X4224600Y4650000D01*
X4199200Y4700800D01*
X4250000Y4675400D01*
X4300800Y4700800D01*
X4275400Y4650000D01*
X4300800Y4599200D01*
X4250000Y4624600D01*
X4199200Y4599200D01*
X4049837Y4598327D02*
X4075237Y4649127D01*
X4049837Y4699927D01*
X4100637Y4674527D01*
X4151437Y4699927D01*
X4126037Y4649127D01*
X4151437Y4598327D01*
X4100637Y4623727D01*
X4049837Y4598327D01*
X4199200Y4679200D02*
X4224600Y4730000D01*
X4199200Y4780800D01*
X4250000Y4755400D01*
X4300800Y4780800D01*
X4275400Y4730000D01*
X4300800Y4679200D01*
X4250000Y4704600D01*
X4199200Y4679200D01*
X4129200D02*
X4154600Y4730000D01*
X4129200Y4780800D01*
X4180000Y4755400D01*
X4230800Y4780800D01*
X4205400Y4730000D01*
X4230800Y4679200D01*
X4180000Y4704600D01*
X4129200Y4679200D01*
X4049837Y4678327D02*
X4075237Y4729127D01*
X4049837Y4779927D01*
X4100637Y4754527D01*
X4151437Y4779927D01*
X4126037Y4729127D01*
X4151437Y4678327D01*
X4100637Y4703727D01*
X4049837Y4678327D01*
X4050475Y4757454D02*
X4075875Y4808254D01*
X4050475Y4859054D01*
X4101275Y4833654D01*
X4152075Y4859054D01*
X4126675Y4808254D01*
X4152075Y4757454D01*
X4101275Y4782854D01*
X4050475Y4757454D01*
X4129838Y4758327D02*
X4155238Y4809127D01*
X4129838Y4859927D01*
X4180638Y4834527D01*
X4231438Y4859927D01*
X4206038Y4809127D01*
X4231438Y4758327D01*
X4180638Y4783727D01*
X4129838Y4758327D01*
X4199837D02*
X4225237Y4809127D01*
X4199837Y4859927D01*
X4250637Y4834527D01*
X4301437Y4859927D01*
X4276037Y4809127D01*
X4301437Y4758327D01*
X4250637Y4783727D01*
X4199837Y4758327D01*
X4349437Y3749838D02*
X4374837Y3800638D01*
X4349437Y3851438D01*
X4400237Y3826038D01*
X4451037Y3851438D01*
X4425637Y3800638D01*
X4451037Y3749838D01*
X4400237Y3775238D01*
X4349437Y3749838D01*
X4348564Y3899200D02*
X4373964Y3950000D01*
X4348564Y4000800D01*
X4399364Y3975400D01*
X4450164Y4000800D01*
X4424764Y3950000D01*
X4450164Y3899200D01*
X4399364Y3924600D01*
X4348564Y3899200D01*
X4349437Y3819837D02*
X4374837Y3870637D01*
X4349437Y3921437D01*
X4400237Y3896037D01*
X4451037Y3921437D01*
X4425637Y3870637D01*
X4451037Y3819837D01*
X4400237Y3845237D01*
X4349437Y3819837D01*
X4420073D02*
X4445473Y3870637D01*
X4420073Y3921437D01*
X4470873Y3896037D01*
X4521673Y3921437D01*
X4496273Y3870637D01*
X4521673Y3819837D01*
X4470873Y3845237D01*
X4420073Y3819837D01*
Y3749838D02*
X4445473Y3800638D01*
X4420073Y3851438D01*
X4470873Y3826038D01*
X4521673Y3851438D01*
X4496273Y3800638D01*
X4521673Y3749838D01*
X4470873Y3775238D01*
X4420073Y3749838D01*
X4419200Y3899200D02*
X4444600Y3950000D01*
X4419200Y4000800D01*
X4470000Y3975400D01*
X4520800Y4000800D01*
X4495400Y3950000D01*
X4520800Y3899200D01*
X4470000Y3924600D01*
X4419200Y3899200D01*
X4490946Y3820475D02*
X4516346Y3871275D01*
X4490946Y3922075D01*
X4541746Y3896675D01*
X4592546Y3922075D01*
X4567146Y3871275D01*
X4592546Y3820475D01*
X4541746Y3845875D01*
X4490946Y3820475D01*
X4490073Y3899838D02*
X4515473Y3950638D01*
X4490073Y4001438D01*
X4540873Y3976038D01*
X4591673Y4001438D01*
X4566273Y3950638D01*
X4591673Y3899838D01*
X4540873Y3925238D01*
X4490073Y3899838D01*
X4490946Y3750475D02*
X4516346Y3801275D01*
X4490946Y3852075D01*
X4541746Y3826675D01*
X4592546Y3852075D01*
X4567146Y3801275D01*
X4592546Y3750475D01*
X4541746Y3775875D01*
X4490946Y3750475D01*
X4560946D02*
X4586346Y3801275D01*
X4560946Y3852075D01*
X4611746Y3826675D01*
X4662546Y3852075D01*
X4637146Y3801275D01*
X4662546Y3750475D01*
X4611746Y3775875D01*
X4560946Y3750475D01*
X4560073Y3899838D02*
X4585473Y3950638D01*
X4560073Y4001438D01*
X4610873Y3976038D01*
X4661673Y4001438D01*
X4636273Y3950638D01*
X4661673Y3899838D01*
X4610873Y3925238D01*
X4560073Y3899838D01*
X4560946Y3820475D02*
X4586346Y3871275D01*
X4560946Y3922075D01*
X4611746Y3896675D01*
X4662546Y3922075D01*
X4637146Y3871275D01*
X4662546Y3820475D01*
X4611746Y3845875D01*
X4560946Y3820475D01*
X4630946D02*
X4656346Y3871275D01*
X4630946Y3922075D01*
X4681746Y3896675D01*
X4732546Y3922075D01*
X4707146Y3871275D01*
X4732546Y3820475D01*
X4681746Y3845875D01*
X4630946Y3820475D01*
Y3750475D02*
X4656346Y3801275D01*
X4630946Y3852075D01*
X4681746Y3826675D01*
X4732546Y3852075D01*
X4707146Y3801275D01*
X4732546Y3750475D01*
X4681746Y3775875D01*
X4630946Y3750475D01*
X4630073Y3899838D02*
X4655473Y3950638D01*
X4630073Y4001438D01*
X4680873Y3976038D01*
X4731673Y4001438D01*
X4706273Y3950638D01*
X4731673Y3899838D01*
X4680873Y3925238D01*
X4630073Y3899838D01*
X4710946Y3750475D02*
X4736346Y3801275D01*
X4710946Y3852075D01*
X4761746Y3826675D01*
X4812546Y3852075D01*
X4787146Y3801275D01*
X4812546Y3750475D01*
X4761746Y3775875D01*
X4710946Y3750475D01*
Y3820475D02*
X4736346Y3871275D01*
X4710946Y3922075D01*
X4761746Y3896675D01*
X4812546Y3922075D01*
X4787146Y3871275D01*
X4812546Y3820475D01*
X4761746Y3845875D01*
X4710946Y3820475D01*
X4710073Y3899838D02*
X4735473Y3950638D01*
X4710073Y4001438D01*
X4760873Y3976038D01*
X4811673Y4001438D01*
X4786273Y3950638D01*
X4811673Y3899838D01*
X4760873Y3925238D01*
X4710073Y3899838D01*
X4789200Y3899200D02*
X4814600Y3950000D01*
X4789200Y4000800D01*
X4840000Y3975400D01*
X4890800Y4000800D01*
X4865400Y3950000D01*
X4890800Y3899200D01*
X4840000Y3924600D01*
X4789200Y3899200D01*
X4790073Y3819837D02*
X4815473Y3870637D01*
X4790073Y3921437D01*
X4840873Y3896037D01*
X4891673Y3921437D01*
X4866273Y3870637D01*
X4891673Y3819837D01*
X4840873Y3845237D01*
X4790073Y3819837D01*
Y3749838D02*
X4815473Y3800638D01*
X4790073Y3851438D01*
X4840873Y3826038D01*
X4891673Y3851438D01*
X4866273Y3800638D01*
X4891673Y3749838D01*
X4840873Y3775238D01*
X4790073Y3749838D01*
X3599200Y3749200D02*
X3624600Y3800000D01*
X3599200Y3850800D01*
X3650000Y3825400D01*
X3700800Y3850800D01*
X3675400Y3800000D01*
X3700800Y3749200D01*
X3650000Y3774600D01*
X3599200Y3749200D01*
Y3819200D02*
X3624600Y3870000D01*
X3599200Y3920800D01*
X3650000Y3895400D01*
X3700800Y3920800D01*
X3675400Y3870000D01*
X3700800Y3819200D01*
X3650000Y3844600D01*
X3599200Y3819200D01*
X3598327Y3898562D02*
X3623727Y3949362D01*
X3598327Y4000162D01*
X3649127Y3974762D01*
X3699927Y4000162D01*
X3674527Y3949362D01*
X3699927Y3898562D01*
X3649127Y3923962D01*
X3598327Y3898562D01*
X3519200Y3899200D02*
X3544600Y3950000D01*
X3519200Y4000800D01*
X3570000Y3975400D01*
X3620800Y4000800D01*
X3595400Y3950000D01*
X3620800Y3899200D01*
X3570000Y3924600D01*
X3519200Y3899200D01*
X3520073Y3819837D02*
X3545473Y3870637D01*
X3520073Y3921437D01*
X3570873Y3896037D01*
X3621673Y3921437D01*
X3596273Y3870637D01*
X3621673Y3819837D01*
X3570873Y3845237D01*
X3520073Y3819837D01*
Y3749838D02*
X3545473Y3800638D01*
X3520073Y3851438D01*
X3570873Y3826038D01*
X3621673Y3851438D01*
X3596273Y3800638D01*
X3621673Y3749838D01*
X3570873Y3775238D01*
X3520073Y3749838D01*
X3439200Y3899200D02*
X3464600Y3950000D01*
X3439200Y4000800D01*
X3490000Y3975400D01*
X3540800Y4000800D01*
X3515400Y3950000D01*
X3540800Y3899200D01*
X3490000Y3924600D01*
X3439200Y3899200D01*
X3440073Y3749838D02*
X3465473Y3800638D01*
X3440073Y3851438D01*
X3490873Y3826038D01*
X3541673Y3851438D01*
X3516273Y3800638D01*
X3541673Y3749838D01*
X3490873Y3775238D01*
X3440073Y3749838D01*
Y3819837D02*
X3465473Y3870637D01*
X3440073Y3921437D01*
X3490873Y3896037D01*
X3541673Y3921437D01*
X3516273Y3870637D01*
X3541673Y3819837D01*
X3490873Y3845237D01*
X3440073Y3819837D01*
X3370073D02*
X3395473Y3870637D01*
X3370073Y3921437D01*
X3420873Y3896037D01*
X3471673Y3921437D01*
X3446273Y3870637D01*
X3471673Y3819837D01*
X3420873Y3845237D01*
X3370073Y3819837D01*
X3369200Y3899200D02*
X3394600Y3950000D01*
X3369200Y4000800D01*
X3420000Y3975400D01*
X3470800Y4000800D01*
X3445400Y3950000D01*
X3470800Y3899200D01*
X3420000Y3924600D01*
X3369200Y3899200D01*
X3370073Y3749838D02*
X3395473Y3800638D01*
X3370073Y3851438D01*
X3420873Y3826038D01*
X3471673Y3851438D01*
X3446273Y3800638D01*
X3471673Y3749838D01*
X3420873Y3775238D01*
X3370073Y3749838D01*
X3300073D02*
X3325473Y3800638D01*
X3300073Y3851438D01*
X3350873Y3826038D01*
X3401673Y3851438D01*
X3376273Y3800638D01*
X3401673Y3749838D01*
X3350873Y3775238D01*
X3300073Y3749838D01*
X3299200Y3899200D02*
X3324600Y3950000D01*
X3299200Y4000800D01*
X3350000Y3975400D01*
X3400800Y4000800D01*
X3375400Y3950000D01*
X3400800Y3899200D01*
X3350000Y3924600D01*
X3299200Y3899200D01*
X3300073Y3819837D02*
X3325473Y3870637D01*
X3300073Y3921437D01*
X3350873Y3896037D01*
X3401673Y3921437D01*
X3376273Y3870637D01*
X3401673Y3819837D01*
X3350873Y3845237D01*
X3300073Y3819837D01*
X3228327Y3898562D02*
X3253727Y3949362D01*
X3228327Y4000162D01*
X3279127Y3974762D01*
X3329927Y4000162D01*
X3304527Y3949362D01*
X3329927Y3898562D01*
X3279127Y3923962D01*
X3228327Y3898562D01*
X3229200Y3749200D02*
X3254600Y3800000D01*
X3229200Y3850800D01*
X3280000Y3825400D01*
X3330800Y3850800D01*
X3305400Y3800000D01*
X3330800Y3749200D01*
X3280000Y3774600D01*
X3229200Y3749200D01*
Y3819200D02*
X3254600Y3870000D01*
X3229200Y3920800D01*
X3280000Y3895400D01*
X3330800Y3920800D01*
X3305400Y3870000D01*
X3330800Y3819200D01*
X3280000Y3844600D01*
X3229200Y3819200D01*
X7849200Y6849200D02*
X7874600Y6900000D01*
X7849200Y6950800D01*
X7900000Y6925400D01*
X7950800Y6950800D01*
X7925400Y6900000D01*
X7950800Y6849200D01*
X7900000Y6874600D01*
X7849200Y6849200D01*
Y7049200D02*
X7874600Y7100000D01*
X7849200Y7150800D01*
X7900000Y7125400D01*
X7950800Y7150800D01*
X7925400Y7100000D01*
X7950800Y7049200D01*
X7900000Y7074600D01*
X7849200Y7049200D01*
X7649200Y6949200D02*
X7674600Y7000000D01*
X7649200Y7050800D01*
X7700000Y7025400D01*
X7750800Y7050800D01*
X7725400Y7000000D01*
X7750800Y6949200D01*
X7700000Y6974600D01*
X7649200Y6949200D01*
Y7149200D02*
X7674600Y7200000D01*
X7649200Y7250800D01*
X7700000Y7225400D01*
X7750800Y7250800D01*
X7725400Y7200000D01*
X7750800Y7149200D01*
X7700000Y7174600D01*
X7649200Y7149200D01*
X7449200Y7049200D02*
X7474600Y7100000D01*
X7449200Y7150800D01*
X7500000Y7125400D01*
X7550800Y7150800D01*
X7525400Y7100000D01*
X7550800Y7049200D01*
X7500000Y7074600D01*
X7449200Y7049200D01*
X7149200Y149200D02*
X7174600Y200000D01*
X7149200Y250800D01*
X7200000Y225400D01*
X7250800Y250800D01*
X7225400Y200000D01*
X7250800Y149200D01*
X7200000Y174600D01*
X7149200Y149200D01*
X6749200D02*
X6774600Y200000D01*
X6749200Y250800D01*
X6800000Y225400D01*
X6850800Y250800D01*
X6825400Y200000D01*
X6850800Y149200D01*
X6800000Y174600D01*
X6749200Y149200D01*
X6549200Y349200D02*
X6574600Y400000D01*
X6549200Y450800D01*
X6600000Y425400D01*
X6650800Y450800D01*
X6625400Y400000D01*
X6650800Y349200D01*
X6600000Y374600D01*
X6549200Y349200D01*
X6949200D02*
X6974600Y400000D01*
X6949200Y450800D01*
X7000000Y425400D01*
X7050800Y450800D01*
X7025400Y400000D01*
X7050800Y349200D01*
X7000000Y374600D01*
X6949200Y349200D01*
X7149200Y549200D02*
X7174600Y600000D01*
X7149200Y650800D01*
X7200000Y625400D01*
X7250800Y650800D01*
X7225400Y600000D01*
X7250800Y549200D01*
X7200000Y574600D01*
X7149200Y549200D01*
X6749200D02*
X6774600Y600000D01*
X6749200Y650800D01*
X6800000Y625400D01*
X6850800Y650800D01*
X6825400Y600000D01*
X6850800Y549200D01*
X6800000Y574600D01*
X6749200Y549200D01*
X7249200Y7349200D02*
X7274600Y7400000D01*
X7249200Y7450800D01*
X7300000Y7425400D01*
X7350800Y7450800D01*
X7325400Y7400000D01*
X7350800Y7349200D01*
X7300000Y7374600D01*
X7249200Y7349200D01*
X7449200Y7249200D02*
X7474600Y7300000D01*
X7449200Y7350800D01*
X7500000Y7325400D01*
X7550800Y7350800D01*
X7525400Y7300000D01*
X7550800Y7249200D01*
X7500000Y7274600D01*
X7449200Y7249200D01*
X7249200Y7149200D02*
X7274600Y7200000D01*
X7249200Y7250800D01*
X7300000Y7225400D01*
X7350800Y7250800D01*
X7325400Y7200000D01*
X7350800Y7149200D01*
X7300000Y7174600D01*
X7249200Y7149200D01*
X6449200Y5949200D02*
X6474600Y6000000D01*
X6449200Y6050800D01*
X6500000Y6025400D01*
X6550800Y6050800D01*
X6525400Y6000000D01*
X6550800Y5949200D01*
X6500000Y5974600D01*
X6449200Y5949200D01*
X6749200D02*
X6774600Y6000000D01*
X6749200Y6050800D01*
X6800000Y6025400D01*
X6850800Y6050800D01*
X6825400Y6000000D01*
X6850800Y5949200D01*
X6800000Y5974600D01*
X6749200Y5949200D01*
X7049200D02*
X7074600Y6000000D01*
X7049200Y6050800D01*
X7100000Y6025400D01*
X7150800Y6050800D01*
X7125400Y6000000D01*
X7150800Y5949200D01*
X7100000Y5974600D01*
X7049200Y5949200D01*
X7349200D02*
X7374600Y6000000D01*
X7349200Y6050800D01*
X7400000Y6025400D01*
X7450800Y6050800D01*
X7425400Y6000000D01*
X7450800Y5949200D01*
X7400000Y5974600D01*
X7349200Y5949200D01*
X7449200Y6149200D02*
X7474600Y6200000D01*
X7449200Y6250800D01*
X7500000Y6225400D01*
X7550800Y6250800D01*
X7525400Y6200000D01*
X7550800Y6149200D01*
X7500000Y6174600D01*
X7449200Y6149200D01*
X7149200D02*
X7174600Y6200000D01*
X7149200Y6250800D01*
X7200000Y6225400D01*
X7250800Y6250800D01*
X7225400Y6200000D01*
X7250800Y6149200D01*
X7200000Y6174600D01*
X7149200Y6149200D01*
X6849200D02*
X6874600Y6200000D01*
X6849200Y6250800D01*
X6900000Y6225400D01*
X6950800Y6250800D01*
X6925400Y6200000D01*
X6950800Y6149200D01*
X6900000Y6174600D01*
X6849200Y6149200D01*
X6549200D02*
X6574600Y6200000D01*
X6549200Y6250800D01*
X6600000Y6225400D01*
X6650800Y6250800D01*
X6625400Y6200000D01*
X6650800Y6149200D01*
X6600000Y6174600D01*
X6549200Y6149200D01*
X6349200Y6349200D02*
X6374600Y6400000D01*
X6349200Y6450800D01*
X6400000Y6425400D01*
X6450800Y6450800D01*
X6425400Y6400000D01*
X6450800Y6349200D01*
X6400000Y6374600D01*
X6349200Y6349200D01*
X6649200D02*
X6674600Y6400000D01*
X6649200Y6450800D01*
X6700000Y6425400D01*
X6750800Y6450800D01*
X6725400Y6400000D01*
X6750800Y6349200D01*
X6700000Y6374600D01*
X6649200Y6349200D01*
X6949200D02*
X6974600Y6400000D01*
X6949200Y6450800D01*
X7000000Y6425400D01*
X7050800Y6450800D01*
X7025400Y6400000D01*
X7050800Y6349200D01*
X7000000Y6374600D01*
X6949200Y6349200D01*
X7249200D02*
X7274600Y6400000D01*
X7249200Y6450800D01*
X7300000Y6425400D01*
X7350800Y6450800D01*
X7325400Y6400000D01*
X7350800Y6349200D01*
X7300000Y6374600D01*
X7249200Y6349200D01*
X7049200Y6549200D02*
X7074600Y6600000D01*
X7049200Y6650800D01*
X7100000Y6625400D01*
X7150800Y6650800D01*
X7125400Y6600000D01*
X7150800Y6549200D01*
X7100000Y6574600D01*
X7049200Y6549200D01*
X6849200Y6749200D02*
X6874600Y6800000D01*
X6849200Y6850800D01*
X6900000Y6825400D01*
X6950800Y6850800D01*
X6925400Y6800000D01*
X6950800Y6749200D01*
X6900000Y6774600D01*
X6849200Y6749200D01*
X6749200Y6549200D02*
X6774600Y6600000D01*
X6749200Y6650800D01*
X6800000Y6625400D01*
X6850800Y6650800D01*
X6825400Y6600000D01*
X6850800Y6549200D01*
X6800000Y6574600D01*
X6749200Y6549200D01*
X6449200D02*
X6474600Y6600000D01*
X6449200Y6650800D01*
X6500000Y6625400D01*
X6550800Y6650800D01*
X6525400Y6600000D01*
X6550800Y6549200D01*
X6500000Y6574600D01*
X6449200Y6549200D01*
X6549200Y6749200D02*
X6574600Y6800000D01*
X6549200Y6850800D01*
X6600000Y6825400D01*
X6650800Y6850800D01*
X6625400Y6800000D01*
X6650800Y6749200D01*
X6600000Y6774600D01*
X6549200Y6749200D01*
X7549200Y1849200D02*
X7574600Y1900000D01*
X7549200Y1950800D01*
X7600000Y1925400D01*
X7650800Y1950800D01*
X7625400Y1900000D01*
X7650800Y1849200D01*
X7600000Y1874600D01*
X7549200Y1849200D01*
X4849200Y749200D02*
X4874600Y800000D01*
X4849200Y850800D01*
X4900000Y825400D01*
X4950800Y850800D01*
X4925400Y800000D01*
X4950800Y749200D01*
X4900000Y774600D01*
X4849200Y749200D01*
X5049200Y849200D02*
X5074600Y900000D01*
X5049200Y950800D01*
X5100000Y925400D01*
X5150800Y950800D01*
X5125400Y900000D01*
X5150800Y849200D01*
X5100000Y874600D01*
X5049200Y849200D01*
X5249200Y749200D02*
X5274600Y800000D01*
X5249200Y850800D01*
X5300000Y825400D01*
X5350800Y850800D01*
X5325400Y800000D01*
X5350800Y749200D01*
X5300000Y774600D01*
X5249200Y749200D01*
X5449200Y849200D02*
X5474600Y900000D01*
X5449200Y950800D01*
X5500000Y925400D01*
X5550800Y950800D01*
X5525400Y900000D01*
X5550800Y849200D01*
X5500000Y874600D01*
X5449200Y849200D01*
X7249200Y3249200D02*
X7274600Y3300000D01*
X7249200Y3350800D01*
X7300000Y3325400D01*
X7350800Y3350800D01*
X7325400Y3300000D01*
X7350800Y3249200D01*
X7300000Y3274600D01*
X7249200Y3249200D01*
X7749200Y2849200D02*
X7774600Y2900000D01*
X7749200Y2950800D01*
X7800000Y2925400D01*
X7850800Y2950800D01*
X7825400Y2900000D01*
X7850800Y2849200D01*
X7800000Y2874600D01*
X7749200Y2849200D01*
X7449200D02*
X7474600Y2900000D01*
X7449200Y2950800D01*
X7500000Y2925400D01*
X7550800Y2950800D01*
X7525400Y2900000D01*
X7550800Y2849200D01*
X7500000Y2874600D01*
X7449200Y2849200D01*
X7849200Y3049200D02*
X7874600Y3100000D01*
X7849200Y3150800D01*
X7900000Y3125400D01*
X7950800Y3150800D01*
X7925400Y3100000D01*
X7950800Y3049200D01*
X7900000Y3074600D01*
X7849200Y3049200D01*
X7549200D02*
X7574600Y3100000D01*
X7549200Y3150800D01*
X7600000Y3125400D01*
X7650800Y3150800D01*
X7625400Y3100000D01*
X7650800Y3049200D01*
X7600000Y3074600D01*
X7549200Y3049200D01*
X7749200Y3249200D02*
X7774600Y3300000D01*
X7749200Y3350800D01*
X7800000Y3325400D01*
X7850800Y3350800D01*
X7825400Y3300000D01*
X7850800Y3249200D01*
X7800000Y3274600D01*
X7749200Y3249200D01*
X7449200D02*
X7474600Y3300000D01*
X7449200Y3350800D01*
X7500000Y3325400D01*
X7550800Y3350800D01*
X7525400Y3300000D01*
X7550800Y3249200D01*
X7500000Y3274600D01*
X7449200Y3249200D01*
X7149200Y2049200D02*
X7174600Y2100000D01*
X7149200Y2150800D01*
X7200000Y2125400D01*
X7250800Y2150800D01*
X7225400Y2100000D01*
X7250800Y2049200D01*
X7200000Y2074600D01*
X7149200Y2049200D01*
X7749200Y1849200D02*
X7774600Y1900000D01*
X7749200Y1950800D01*
X7800000Y1925400D01*
X7850800Y1950800D01*
X7825400Y1900000D01*
X7850800Y1849200D01*
X7800000Y1874600D01*
X7749200Y1849200D01*
X7549200Y2049200D02*
X7574600Y2100000D01*
X7549200Y2150800D01*
X7600000Y2125400D01*
X7650800Y2150800D01*
X7625400Y2100000D01*
X7650800Y2049200D01*
X7600000Y2074600D01*
X7549200Y2049200D01*
X7349200Y1849200D02*
X7374600Y1900000D01*
X7349200Y1950800D01*
X7400000Y1925400D01*
X7450800Y1950800D01*
X7425400Y1900000D01*
X7450800Y1849200D01*
X7400000Y1874600D01*
X7349200Y1849200D01*
X7149200Y1649200D02*
X7174600Y1700000D01*
X7149200Y1750800D01*
X7200000Y1725400D01*
X7250800Y1750800D01*
X7225400Y1700000D01*
X7250800Y1649200D01*
X7200000Y1674600D01*
X7149200Y1649200D01*
X6849200Y1449200D02*
X6874600Y1500000D01*
X6849200Y1550800D01*
X6900000Y1525400D01*
X6950800Y1550800D01*
X6925400Y1500000D01*
X6950800Y1449200D01*
X6900000Y1474600D01*
X6849200Y1449200D01*
X6549200Y1149200D02*
X6574600Y1200000D01*
X6549200Y1250800D01*
X6600000Y1225400D01*
X6650800Y1250800D01*
X6625400Y1200000D01*
X6650800Y1149200D01*
X6600000Y1174600D01*
X6549200Y1149200D01*
X7349200Y749200D02*
X7374600Y800000D01*
X7349200Y850800D01*
X7400000Y825400D01*
X7450800Y850800D01*
X7425400Y800000D01*
X7450800Y749200D01*
X7400000Y774600D01*
X7349200Y749200D01*
X7149200Y949200D02*
X7174600Y1000000D01*
X7149200Y1050800D01*
X7200000Y1025400D01*
X7250800Y1050800D01*
X7225400Y1000000D01*
X7250800Y949200D01*
X7200000Y974600D01*
X7149200Y949200D01*
X6949200Y749200D02*
X6974600Y800000D01*
X6949200Y850800D01*
X7000000Y825400D01*
X7050800Y850800D01*
X7025400Y800000D01*
X7050800Y749200D01*
X7000000Y774600D01*
X6949200Y749200D01*
X6749200Y949200D02*
X6774600Y1000000D01*
X6749200Y1050800D01*
X6800000Y1025400D01*
X6850800Y1050800D01*
X6825400Y1000000D01*
X6850800Y949200D01*
X6800000Y974600D01*
X6749200Y949200D01*
X6549200Y749200D02*
X6574600Y800000D01*
X6549200Y850800D01*
X6600000Y825400D01*
X6650800Y850800D01*
X6625400Y800000D01*
X6650800Y749200D01*
X6600000Y774600D01*
X6549200Y749200D01*
X6349200Y949200D02*
X6374600Y1000000D01*
X6349200Y1050800D01*
X6400000Y1025400D01*
X6450800Y1050800D01*
X6425400Y1000000D01*
X6450800Y949200D01*
X6400000Y974600D01*
X6349200Y949200D01*
X6149200Y749200D02*
X6174600Y800000D01*
X6149200Y850800D01*
X6200000Y825400D01*
X6250800Y850800D01*
X6225400Y800000D01*
X6250800Y749200D01*
X6200000Y774600D01*
X6149200Y749200D01*
X3599200Y3489200D02*
X3624600Y3540000D01*
X3599200Y3590800D01*
X3650000Y3565400D01*
X3700800Y3590800D01*
X3675400Y3540000D01*
X3700800Y3489200D01*
X3650000Y3514600D01*
X3599200Y3489200D01*
X3679200D02*
X3704600Y3540000D01*
X3679200Y3590800D01*
X3730000Y3565400D01*
X3780800Y3590800D01*
X3755400Y3540000D01*
X3780800Y3489200D01*
X3730000Y3514600D01*
X3679200Y3489200D01*
X4908564Y3889200D02*
X4933964Y3940000D01*
X4908564Y3990800D01*
X4959364Y3965400D01*
X5010164Y3990800D01*
X4984764Y3940000D01*
X5010164Y3889200D01*
X4959364Y3914600D01*
X4908564Y3889200D01*
X3599200Y3416700D02*
X3624600Y3467500D01*
X3599200Y3518300D01*
X3650000Y3492900D01*
X3700800Y3518300D01*
X3675400Y3467500D01*
X3700800Y3416700D01*
X3650000Y3442100D01*
X3599200Y3416700D01*
X3679200D02*
X3704600Y3467500D01*
X3679200Y3518300D01*
X3730000Y3492900D01*
X3780800Y3518300D01*
X3755400Y3467500D01*
X3780800Y3416700D01*
X3730000Y3442100D01*
X3679200Y3416700D01*
X6899200Y2969200D02*
X6924600Y3020000D01*
X6899200Y3070800D01*
X6950000Y3045400D01*
X7000800Y3070800D01*
X6975400Y3020000D01*
X7000800Y2969200D01*
X6950000Y2994600D01*
X6899200Y2969200D01*
Y2894200D02*
X6924600Y2945000D01*
X6899200Y2995800D01*
X6950000Y2970400D01*
X7000800Y2995800D01*
X6975400Y2945000D01*
X7000800Y2894200D01*
X6950000Y2919600D01*
X6899200Y2894200D01*
Y2821700D02*
X6924600Y2872500D01*
X6899200Y2923300D01*
X6950000Y2897900D01*
X7000800Y2923300D01*
X6975400Y2872500D01*
X7000800Y2821700D01*
X6950000Y2847100D01*
X6899200Y2821700D01*
X1904200Y5834200D02*
X1929600Y5885000D01*
X1904200Y5935800D01*
X1955000Y5910400D01*
X2005800Y5935800D01*
X1980400Y5885000D01*
X2005800Y5834200D01*
X1955000Y5859600D01*
X1904200Y5834200D01*
X1971700D02*
X1997100Y5885000D01*
X1971700Y5935800D01*
X2022500Y5910400D01*
X2073300Y5935800D01*
X2047900Y5885000D01*
X2073300Y5834200D01*
X2022500Y5859600D01*
X1971700Y5834200D01*
X1823378Y1868465D02*
X1848778Y1919265D01*
X1823378Y1970065D01*
X1874178Y1944665D01*
X1924978Y1970065D01*
X1899578Y1919265D01*
X1924978Y1868465D01*
X1874178Y1893865D01*
X1823378Y1868465D01*
X4378564Y1409200D02*
X4403964Y1460000D01*
X4378564Y1510800D01*
X4429364Y1485400D01*
X4480164Y1510800D01*
X4454764Y1460000D01*
X4480164Y1409200D01*
X4429364Y1434600D01*
X4378564Y1409200D01*
Y1479200D02*
X4403964Y1530000D01*
X4378564Y1580800D01*
X4429364Y1555400D01*
X4480164Y1580800D01*
X4454764Y1530000D01*
X4480164Y1479200D01*
X4429364Y1504600D01*
X4378564Y1479200D01*
X4468564D02*
X4493964Y1530000D01*
X4468564Y1580800D01*
X4519364Y1555400D01*
X4570164Y1580800D01*
X4544764Y1530000D01*
X4570164Y1479200D01*
X4519364Y1504600D01*
X4468564Y1479200D01*
X6193564Y1349200D02*
X6218964Y1400000D01*
X6193564Y1450800D01*
X6244364Y1425400D01*
X6295164Y1450800D01*
X6269764Y1400000D01*
X6295164Y1349200D01*
X6244364Y1374600D01*
X6193564Y1349200D01*
X6559200Y2249200D02*
X6584600Y2300000D01*
X6559200Y2350800D01*
X6610000Y2325400D01*
X6660800Y2350800D01*
X6635400Y2300000D01*
X6660800Y2249200D01*
X6610000Y2274600D01*
X6559200Y2249200D01*
X7786700Y2174200D02*
X7812100Y2225000D01*
X7786700Y2275800D01*
X7837500Y2250400D01*
X7888300Y2275800D01*
X7862900Y2225000D01*
X7888300Y2174200D01*
X7837500Y2199600D01*
X7786700Y2174200D01*
X7794200Y2424200D02*
X7819600Y2475000D01*
X7794200Y2525800D01*
X7845000Y2500400D01*
X7895800Y2525800D01*
X7870400Y2475000D01*
X7895800Y2424200D01*
X7845000Y2449600D01*
X7794200Y2424200D01*
X7796700Y2551700D02*
X7822100Y2602500D01*
X7796700Y2653300D01*
X7847500Y2627900D01*
X7898300Y2653300D01*
X7872900Y2602500D01*
X7898300Y2551700D01*
X7847500Y2577100D01*
X7796700Y2551700D01*
X7794200Y2679200D02*
X7819600Y2730000D01*
X7794200Y2780800D01*
X7845000Y2755400D01*
X7895800Y2780800D01*
X7870400Y2730000D01*
X7895800Y2679200D01*
X7845000Y2704600D01*
X7794200Y2679200D01*
X7209200Y2979200D02*
X7234600Y3030000D01*
X7209200Y3080800D01*
X7260000Y3055400D01*
X7310800Y3080800D01*
X7285400Y3030000D01*
X7310800Y2979200D01*
X7260000Y3004600D01*
X7209200Y2979200D01*
X7134200Y2981700D02*
X7159600Y3032500D01*
X7134200Y3083300D01*
X7185000Y3057900D01*
X7235800Y3083300D01*
X7210400Y3032500D01*
X7235800Y2981700D01*
X7185000Y3007100D01*
X7134200Y2981700D01*
X7206700Y3059200D02*
X7232100Y3110000D01*
X7206700Y3160800D01*
X7257500Y3135400D01*
X7308300Y3160800D01*
X7282900Y3110000D01*
X7308300Y3059200D01*
X7257500Y3084600D01*
X7206700Y3059200D01*
X7134200D02*
X7159600Y3110000D01*
X7134200Y3160800D01*
X7185000Y3135400D01*
X7235800Y3160800D01*
X7210400Y3110000D01*
X7235800Y3059200D01*
X7185000Y3084600D01*
X7134200Y3059200D01*
X5071849Y2082485D02*
X5097249Y2133285D01*
X5071849Y2184085D01*
X5122649Y2158685D01*
X5173449Y2184085D01*
X5148049Y2133285D01*
X5173449Y2082485D01*
X5122649Y2107885D01*
X5071849Y2082485D01*
X5591700Y2376700D02*
X5617100Y2427500D01*
X5591700Y2478300D01*
X5642500Y2452900D01*
X5693300Y2478300D01*
X5667900Y2427500D01*
X5693300Y2376700D01*
X5642500Y2402100D01*
X5591700Y2376700D01*
X3289484Y2638916D02*
X3314884Y2689716D01*
X3289484Y2740516D01*
X3340284Y2715116D01*
X3391084Y2740516D01*
X3365684Y2689716D01*
X3391084Y2638916D01*
X3340284Y2664316D01*
X3289484Y2638916D01*
X5409836Y1251700D02*
X5435236Y1302500D01*
X5409836Y1353300D01*
X5460636Y1327900D01*
X5511436Y1353300D01*
X5486036Y1302500D01*
X5511436Y1251700D01*
X5460636Y1277100D01*
X5409836Y1251700D01*
X5339200D02*
X5364600Y1302500D01*
X5339200Y1353300D01*
X5390000Y1327900D01*
X5440800Y1353300D01*
X5415400Y1302500D01*
X5440800Y1251700D01*
X5390000Y1277100D01*
X5339200Y1251700D01*
X4468564Y1409200D02*
X4493964Y1460000D01*
X4468564Y1510800D01*
X4519364Y1485400D01*
X4570164Y1510800D01*
X4544764Y1460000D01*
X4570164Y1409200D01*
X4519364Y1434600D01*
X4468564Y1409200D01*
X5793564Y991700D02*
X5818964Y1042500D01*
X5793564Y1093300D01*
X5844364Y1067900D01*
X5895164Y1093300D01*
X5869764Y1042500D01*
X5895164Y991700D01*
X5844364Y1017100D01*
X5793564Y991700D01*
X5576065Y1349200D02*
X5601465Y1400000D01*
X5576065Y1450800D01*
X5626865Y1425400D01*
X5677665Y1450800D01*
X5652265Y1400000D01*
X5677665Y1349200D01*
X5626865Y1374600D01*
X5576065Y1349200D01*
X2551064Y1856700D02*
X2576464Y1907500D01*
X2551064Y1958300D01*
X2601864Y1932900D01*
X2652664Y1958300D01*
X2627264Y1907500D01*
X2652664Y1856700D01*
X2601864Y1882100D01*
X2551064Y1856700D01*
X3188564Y2599200D02*
X3213964Y2650000D01*
X3188564Y2700800D01*
X3239364Y2675400D01*
X3290164Y2700800D01*
X3264764Y2650000D01*
X3290164Y2599200D01*
X3239364Y2624600D01*
X3188564Y2599200D01*
X4288564Y1409200D02*
X4313964Y1460000D01*
X4288564Y1510800D01*
X4339364Y1485400D01*
X4390164Y1510800D01*
X4364764Y1460000D01*
X4390164Y1409200D01*
X4339364Y1434600D01*
X4288564Y1409200D01*
X6304200Y3181700D02*
X6329600Y3232500D01*
X6304200Y3283300D01*
X6355000Y3257900D01*
X6405800Y3283300D01*
X6380400Y3232500D01*
X6405800Y3181700D01*
X6355000Y3207100D01*
X6304200Y3181700D01*
X4943564Y3026700D02*
X4968964Y3077500D01*
X4943564Y3128300D01*
X4994364Y3102900D01*
X5045164Y3128300D01*
X5019764Y3077500D01*
X5045164Y3026700D01*
X4994364Y3052100D01*
X4943564Y3026700D01*
X6568564Y2549200D02*
X6593964Y2600000D01*
X6568564Y2650800D01*
X6619364Y2625400D01*
X6670164Y2650800D01*
X6644764Y2600000D01*
X6670164Y2549200D01*
X6619364Y2574600D01*
X6568564Y2549200D01*
X5074200Y4404200D02*
X5099600Y4455000D01*
X5074200Y4505800D01*
X5125000Y4480400D01*
X5175800Y4505800D01*
X5150400Y4455000D01*
X5175800Y4404200D01*
X5125000Y4429600D01*
X5074200Y4404200D01*
X6129200Y3229200D02*
X6154600Y3280000D01*
X6129200Y3330800D01*
X6180000Y3305400D01*
X6230800Y3330800D01*
X6205400Y3280000D01*
X6230800Y3229200D01*
X6180000Y3254600D01*
X6129200Y3229200D01*
X7386064Y4669200D02*
X7411464Y4720000D01*
X7386064Y4770800D01*
X7436864Y4745400D01*
X7487664Y4770800D01*
X7462264Y4720000D01*
X7487664Y4669200D01*
X7436864Y4694600D01*
X7386064Y4669200D01*
Y4369200D02*
X7411464Y4420000D01*
X7386064Y4470800D01*
X7436864Y4445400D01*
X7487664Y4470800D01*
X7462264Y4420000D01*
X7487664Y4369200D01*
X7436864Y4394600D01*
X7386064Y4369200D01*
X7316064D02*
X7341464Y4420000D01*
X7316064Y4470800D01*
X7366864Y4445400D01*
X7417664Y4470800D01*
X7392264Y4420000D01*
X7417664Y4369200D01*
X7366864Y4394600D01*
X7316064Y4369200D01*
Y4569200D02*
X7341464Y4620000D01*
X7316064Y4670800D01*
X7366864Y4645400D01*
X7417664Y4670800D01*
X7392264Y4620000D01*
X7417664Y4569200D01*
X7366864Y4594600D01*
X7316064Y4569200D01*
X7386064Y4269200D02*
X7411464Y4320000D01*
X7386064Y4370800D01*
X7436864Y4345400D01*
X7487664Y4370800D01*
X7462264Y4320000D01*
X7487664Y4269200D01*
X7436864Y4294600D01*
X7386064Y4269200D01*
Y4469200D02*
X7411464Y4520000D01*
X7386064Y4570800D01*
X7436864Y4545400D01*
X7487664Y4570800D01*
X7462264Y4520000D01*
X7487664Y4469200D01*
X7436864Y4494600D01*
X7386064Y4469200D01*
X7461064Y4169200D02*
X7486464Y4220000D01*
X7461064Y4270800D01*
X7511864Y4245400D01*
X7562664Y4270800D01*
X7537264Y4220000D01*
X7562664Y4169200D01*
X7511864Y4194600D01*
X7461064Y4169200D01*
X7316064Y4769200D02*
X7341464Y4820000D01*
X7316064Y4870800D01*
X7366864Y4845400D01*
X7417664Y4870800D01*
X7392264Y4820000D01*
X7417664Y4769200D01*
X7366864Y4794600D01*
X7316064Y4769200D01*
X7386064Y4169200D02*
X7411464Y4220000D01*
X7386064Y4270800D01*
X7436864Y4245400D01*
X7487664Y4270800D01*
X7462264Y4220000D01*
X7487664Y4169200D01*
X7436864Y4194600D01*
X7386064Y4169200D01*
X7163564Y4669200D02*
X7188964Y4720000D01*
X7163564Y4770800D01*
X7214364Y4745400D01*
X7265164Y4770800D01*
X7239764Y4720000D01*
X7265164Y4669200D01*
X7214364Y4694600D01*
X7163564Y4669200D01*
X7238564Y4469200D02*
X7263964Y4520000D01*
X7238564Y4570800D01*
X7289364Y4545400D01*
X7340164Y4570800D01*
X7314764Y4520000D01*
X7340164Y4469200D01*
X7289364Y4494600D01*
X7238564Y4469200D01*
X7386064Y4569200D02*
X7411464Y4620000D01*
X7386064Y4670800D01*
X7436864Y4645400D01*
X7487664Y4670800D01*
X7462264Y4620000D01*
X7487664Y4569200D01*
X7436864Y4594600D01*
X7386064Y4569200D01*
Y4869200D02*
X7411464Y4920000D01*
X7386064Y4970800D01*
X7436864Y4945400D01*
X7487664Y4970800D01*
X7462264Y4920000D01*
X7487664Y4869200D01*
X7436864Y4894600D01*
X7386064Y4869200D01*
X7163564Y4769200D02*
X7188964Y4820000D01*
X7163564Y4870800D01*
X7214364Y4845400D01*
X7265164Y4870800D01*
X7239764Y4820000D01*
X7265164Y4769200D01*
X7214364Y4794600D01*
X7163564Y4769200D01*
X7316064Y4669200D02*
X7341464Y4720000D01*
X7316064Y4770800D01*
X7366864Y4745400D01*
X7417664Y4770800D01*
X7392264Y4720000D01*
X7417664Y4669200D01*
X7366864Y4694600D01*
X7316064Y4669200D01*
X7461064Y4869200D02*
X7486464Y4920000D01*
X7461064Y4970800D01*
X7511864Y4945400D01*
X7562664Y4970800D01*
X7537264Y4920000D01*
X7562664Y4869200D01*
X7511864Y4894600D01*
X7461064Y4869200D01*
X7238564Y4769200D02*
X7263964Y4820000D01*
X7238564Y4870800D01*
X7289364Y4845400D01*
X7340164Y4870800D01*
X7314764Y4820000D01*
X7340164Y4769200D01*
X7289364Y4794600D01*
X7238564Y4769200D01*
X7163564Y4869200D02*
X7188964Y4920000D01*
X7163564Y4970800D01*
X7214364Y4945400D01*
X7265164Y4970800D01*
X7239764Y4920000D01*
X7265164Y4869200D01*
X7214364Y4894600D01*
X7163564Y4869200D01*
X7238564Y4169200D02*
X7263964Y4220000D01*
X7238564Y4270800D01*
X7289364Y4245400D01*
X7340164Y4270800D01*
X7314764Y4220000D01*
X7340164Y4169200D01*
X7289364Y4194600D01*
X7238564Y4169200D01*
X7386064Y4769200D02*
X7411464Y4820000D01*
X7386064Y4870800D01*
X7436864Y4845400D01*
X7487664Y4870800D01*
X7462264Y4820000D01*
X7487664Y4769200D01*
X7436864Y4794600D01*
X7386064Y4769200D01*
X7238564Y4369200D02*
X7263964Y4420000D01*
X7238564Y4470800D01*
X7289364Y4445400D01*
X7340164Y4470800D01*
X7314764Y4420000D01*
X7340164Y4369200D01*
X7289364Y4394600D01*
X7238564Y4369200D01*
Y4569200D02*
X7263964Y4620000D01*
X7238564Y4670800D01*
X7289364Y4645400D01*
X7340164Y4670800D01*
X7314764Y4620000D01*
X7340164Y4569200D01*
X7289364Y4594600D01*
X7238564Y4569200D01*
X7461064Y4769200D02*
X7486464Y4820000D01*
X7461064Y4870800D01*
X7511864Y4845400D01*
X7562664Y4870800D01*
X7537264Y4820000D01*
X7562664Y4769200D01*
X7511864Y4794600D01*
X7461064Y4769200D01*
X7316064Y4169200D02*
X7341464Y4220000D01*
X7316064Y4270800D01*
X7366864Y4245400D01*
X7417664Y4270800D01*
X7392264Y4220000D01*
X7417664Y4169200D01*
X7366864Y4194600D01*
X7316064Y4169200D01*
X7163564D02*
X7188964Y4220000D01*
X7163564Y4270800D01*
X7214364Y4245400D01*
X7265164Y4270800D01*
X7239764Y4220000D01*
X7265164Y4169200D01*
X7214364Y4194600D01*
X7163564Y4169200D01*
Y4469200D02*
X7188964Y4520000D01*
X7163564Y4570800D01*
X7214364Y4545400D01*
X7265164Y4570800D01*
X7239764Y4520000D01*
X7265164Y4469200D01*
X7214364Y4494600D01*
X7163564Y4469200D01*
Y4369200D02*
X7188964Y4420000D01*
X7163564Y4470800D01*
X7214364Y4445400D01*
X7265164Y4470800D01*
X7239764Y4420000D01*
X7265164Y4369200D01*
X7214364Y4394600D01*
X7163564Y4369200D01*
X7238564Y4669200D02*
X7263964Y4720000D01*
X7238564Y4770800D01*
X7289364Y4745400D01*
X7340164Y4770800D01*
X7314764Y4720000D01*
X7340164Y4669200D01*
X7289364Y4694600D01*
X7238564Y4669200D01*
X7461064D02*
X7486464Y4720000D01*
X7461064Y4770800D01*
X7511864Y4745400D01*
X7562664Y4770800D01*
X7537264Y4720000D01*
X7562664Y4669200D01*
X7511864Y4694600D01*
X7461064Y4669200D01*
X7163564Y4269200D02*
X7188964Y4320000D01*
X7163564Y4370800D01*
X7214364Y4345400D01*
X7265164Y4370800D01*
X7239764Y4320000D01*
X7265164Y4269200D01*
X7214364Y4294600D01*
X7163564Y4269200D01*
X7238564Y4869200D02*
X7263964Y4920000D01*
X7238564Y4970800D01*
X7289364Y4945400D01*
X7340164Y4970800D01*
X7314764Y4920000D01*
X7340164Y4869200D01*
X7289364Y4894600D01*
X7238564Y4869200D01*
X7461064Y4269200D02*
X7486464Y4320000D01*
X7461064Y4370800D01*
X7511864Y4345400D01*
X7562664Y4370800D01*
X7537264Y4320000D01*
X7562664Y4269200D01*
X7511864Y4294600D01*
X7461064Y4269200D01*
X7163564Y4569200D02*
X7188964Y4620000D01*
X7163564Y4670800D01*
X7214364Y4645400D01*
X7265164Y4670800D01*
X7239764Y4620000D01*
X7265164Y4569200D01*
X7214364Y4594600D01*
X7163564Y4569200D01*
X7461064Y4469200D02*
X7486464Y4520000D01*
X7461064Y4570800D01*
X7511864Y4545400D01*
X7562664Y4570800D01*
X7537264Y4520000D01*
X7562664Y4469200D01*
X7511864Y4494600D01*
X7461064Y4469200D01*
X7316064Y4869200D02*
X7341464Y4920000D01*
X7316064Y4970800D01*
X7366864Y4945400D01*
X7417664Y4970800D01*
X7392264Y4920000D01*
X7417664Y4869200D01*
X7366864Y4894600D01*
X7316064Y4869200D01*
X7461064Y4369200D02*
X7486464Y4420000D01*
X7461064Y4470800D01*
X7511864Y4445400D01*
X7562664Y4470800D01*
X7537264Y4420000D01*
X7562664Y4369200D01*
X7511864Y4394600D01*
X7461064Y4369200D01*
Y4569200D02*
X7486464Y4620000D01*
X7461064Y4670800D01*
X7511864Y4645400D01*
X7562664Y4670800D01*
X7537264Y4620000D01*
X7562664Y4569200D01*
X7511864Y4594600D01*
X7461064Y4569200D01*
X7316064Y4269200D02*
X7341464Y4320000D01*
X7316064Y4370800D01*
X7366864Y4345400D01*
X7417664Y4370800D01*
X7392264Y4320000D01*
X7417664Y4269200D01*
X7366864Y4294600D01*
X7316064Y4269200D01*
X7238564D02*
X7263964Y4320000D01*
X7238564Y4370800D01*
X7289364Y4345400D01*
X7340164Y4370800D01*
X7314764Y4320000D01*
X7340164Y4269200D01*
X7289364Y4294600D01*
X7238564Y4269200D01*
X7316064Y4469200D02*
X7341464Y4520000D01*
X7316064Y4570800D01*
X7366864Y4545400D01*
X7417664Y4570800D01*
X7392264Y4520000D01*
X7417664Y4469200D01*
X7366864Y4494600D01*
X7316064Y4469200D01*
X4768964Y1169600D02*
Y1144200D01*
X4819764D01*
Y1169600D01*
X4845164D01*
Y1220400D01*
X4819764D01*
Y1245800D01*
X4768964D01*
Y1220400D01*
X4743564D01*
Y1169600D01*
X4768964D01*
Y1279600D02*
Y1254200D01*
X4819764D01*
Y1279600D01*
X4845164D01*
Y1330400D01*
X4819764D01*
Y1355800D01*
X4768964D01*
Y1330400D01*
X4743564D01*
Y1279600D01*
X4768964D01*
X5339200Y1319200D02*
X5364600Y1370000D01*
X5339200Y1420800D01*
X5390000Y1395400D01*
X5440800Y1420800D01*
X5415400Y1370000D01*
X5440800Y1319200D01*
X5390000Y1344600D01*
X5339200Y1319200D01*
X5409200D02*
X5434600Y1370000D01*
X5409200Y1420800D01*
X5460000Y1395400D01*
X5510800Y1420800D01*
X5485400Y1370000D01*
X5510800Y1319200D01*
X5460000Y1344600D01*
X5409200Y1319200D01*
X4051464Y3867100D02*
Y3841700D01*
X4102264D01*
Y3867100D01*
X4127664D01*
Y3917900D01*
X4102264D01*
Y3943300D01*
X4051464D01*
Y3917900D01*
X4026064D01*
Y3867100D01*
X4051464D01*
Y3757100D02*
Y3731700D01*
X4102264D01*
Y3757100D01*
X4127664D01*
Y3807900D01*
X4102264D01*
Y3833300D01*
X4051464D01*
Y3807900D01*
X4026064D01*
Y3757100D01*
X4051464D01*
X2146464Y2194600D02*
Y2169200D01*
X2197264D01*
Y2194600D01*
X2222664D01*
Y2245400D01*
X2197264D01*
Y2270800D01*
X2146464D01*
Y2245400D01*
X2121064D01*
Y2194600D01*
X2146464D01*
X2256464D02*
Y2169200D01*
X2307264D01*
Y2194600D01*
X2332664D01*
Y2245400D01*
X2307264D01*
Y2270800D01*
X2256464D01*
Y2245400D01*
X2231064D01*
Y2194600D01*
X2256464D01*
X4578564Y1859200D02*
X4603964Y1910000D01*
X4578564Y1960800D01*
X4629364Y1935400D01*
X4680164Y1960800D01*
X4654764Y1910000D01*
X4680164Y1859200D01*
X4629364Y1884600D01*
X4578564Y1859200D01*
X5858564Y1209200D02*
X5883964Y1260000D01*
X5858564Y1310800D01*
X5909364Y1285400D01*
X5960164Y1310800D01*
X5934764Y1260000D01*
X5960164Y1209200D01*
X5909364Y1234600D01*
X5858564Y1209200D01*
X6718564Y1959200D02*
X6743964Y2010000D01*
X6718564Y2060800D01*
X6769364Y2035400D01*
X6820164Y2060800D01*
X6794764Y2010000D01*
X6820164Y1959200D01*
X6769364Y1984600D01*
X6718564Y1959200D01*
X6608564Y3349200D02*
X6633964Y3400000D01*
X6608564Y3450800D01*
X6659364Y3425400D01*
X6710164Y3450800D01*
X6684764Y3400000D01*
X6710164Y3349200D01*
X6659364Y3374600D01*
X6608564Y3349200D01*
X3968564Y2076700D02*
X3993964Y2127500D01*
X3968564Y2178300D01*
X4019364Y2152900D01*
X4070164Y2178300D01*
X4044764Y2127500D01*
X4070164Y2076700D01*
X4019364Y2102100D01*
X3968564Y2076700D01*
X6711064Y2629200D02*
X6736464Y2680000D01*
X6711064Y2730800D01*
X6761864Y2705400D01*
X6812664Y2730800D01*
X6787264Y2680000D01*
X6812664Y2629200D01*
X6761864Y2654600D01*
X6711064Y2629200D01*
X5071065Y2449200D02*
X5096465Y2500000D01*
X5071065Y2550800D01*
X5121865Y2525400D01*
X5172665Y2550800D01*
X5147265Y2500000D01*
X5172665Y2449200D01*
X5121865Y2474600D01*
X5071065Y2449200D01*
X5068564Y2374200D02*
X5093964Y2425000D01*
X5068564Y2475800D01*
X5119364Y2450400D01*
X5170164Y2475800D01*
X5144764Y2425000D01*
X5170164Y2374200D01*
X5119364Y2399600D01*
X5068564Y2374200D01*
X6966064Y1899200D02*
X6991464Y1950000D01*
X6966064Y2000800D01*
X7016864Y1975400D01*
X7067664Y2000800D01*
X7042264Y1950000D01*
X7067664Y1899200D01*
X7016864Y1924600D01*
X6966064Y1899200D01*
X4586064Y1966700D02*
X4611464Y2017500D01*
X4586064Y2068300D01*
X4636864Y2042900D01*
X4687664Y2068300D01*
X4662264Y2017500D01*
X4687664Y1966700D01*
X4636864Y1992100D01*
X4586064Y1966700D01*
X5593564Y2249200D02*
X5618964Y2300000D01*
X5593564Y2350800D01*
X5644364Y2325400D01*
X5695164Y2350800D01*
X5669764Y2300000D01*
X5695164Y2249200D01*
X5644364Y2274600D01*
X5593564Y2249200D01*
X2653564Y2339200D02*
X2678964Y2390000D01*
X2653564Y2440800D01*
X2704364Y2415400D01*
X2755164Y2440800D01*
X2729764Y2390000D01*
X2755164Y2339200D01*
X2704364Y2364600D01*
X2653564Y2339200D01*
X2551064Y2266700D02*
X2576464Y2317500D01*
X2551064Y2368300D01*
X2601864Y2342900D01*
X2652664Y2368300D01*
X2627264Y2317500D01*
X2652664Y2266700D01*
X2601864Y2292100D01*
X2551064Y2266700D01*
X1856064Y689200D02*
X1881464Y740000D01*
X1856064Y790800D01*
X1906864Y765400D01*
X1957664Y790800D01*
X1932264Y740000D01*
X1957664Y689200D01*
X1906864Y714600D01*
X1856064Y689200D01*
X1708564Y979200D02*
X1733964Y1030000D01*
X1708564Y1080800D01*
X1759364Y1055400D01*
X1810164Y1080800D01*
X1784764Y1030000D01*
X1810164Y979200D01*
X1759364Y1004600D01*
X1708564Y979200D01*
X1813564Y2266700D02*
X1838964Y2317500D01*
X1813564Y2368300D01*
X1864364Y2342900D01*
X1915164Y2368300D01*
X1889764Y2317500D01*
X1915164Y2266700D01*
X1864364Y2292100D01*
X1813564Y2266700D01*
X1811064Y2136700D02*
X1836464Y2187500D01*
X1811064Y2238300D01*
X1861864Y2212900D01*
X1912664Y2238300D01*
X1887264Y2187500D01*
X1912664Y2136700D01*
X1861864Y2162100D01*
X1811064Y2136700D01*
X1141064Y2504200D02*
X1166464Y2555000D01*
X1141064Y2605800D01*
X1191864Y2580400D01*
X1242664Y2605800D01*
X1217264Y2555000D01*
X1242664Y2504200D01*
X1191864Y2529600D01*
X1141064Y2504200D01*
X1136064Y3114200D02*
X1161464Y3165000D01*
X1136064Y3215800D01*
X1186864Y3190400D01*
X1237664Y3215800D01*
X1212264Y3165000D01*
X1237664Y3114200D01*
X1186864Y3139600D01*
X1136064Y3114200D01*
X2038564Y2509200D02*
X2063964Y2560000D01*
X2038564Y2610800D01*
X2089364Y2585400D01*
X2140164Y2610800D01*
X2114764Y2560000D01*
X2140164Y2509200D01*
X2089364Y2534600D01*
X2038564Y2509200D01*
Y2589200D02*
X2063964Y2640000D01*
X2038564Y2690800D01*
X2089364Y2665400D01*
X2140164Y2690800D01*
X2114764Y2640000D01*
X2140164Y2589200D01*
X2089364Y2614600D01*
X2038564Y2589200D01*
Y2669200D02*
X2063964Y2720000D01*
X2038564Y2770800D01*
X2089364Y2745400D01*
X2140164Y2770800D01*
X2114764Y2720000D01*
X2140164Y2669200D01*
X2089364Y2694600D01*
X2038564Y2669200D01*
X3468564Y2014200D02*
X3493964Y2065000D01*
X3468564Y2115800D01*
X3519364Y2090400D01*
X3570164Y2115800D01*
X3544764Y2065000D01*
X3570164Y2014200D01*
X3519364Y2039600D01*
X3468564Y2014200D01*
X3401064D02*
X3426464Y2065000D01*
X3401064Y2115800D01*
X3451864Y2090400D01*
X3502664Y2115800D01*
X3477264Y2065000D01*
X3502664Y2014200D01*
X3451864Y2039600D01*
X3401064Y2014200D01*
X2863564Y2719200D02*
X2888964Y2770000D01*
X2863564Y2820800D01*
X2914364Y2795400D01*
X2965164Y2820800D01*
X2939764Y2770000D01*
X2965164Y2719200D01*
X2914364Y2744600D01*
X2863564Y2719200D01*
Y2786700D02*
X2888964Y2837500D01*
X2863564Y2888300D01*
X2914364Y2862900D01*
X2965164Y2888300D01*
X2939764Y2837500D01*
X2965164Y2786700D01*
X2914364Y2812100D01*
X2863564Y2786700D01*
X3188564Y2459200D02*
X3213964Y2510000D01*
X3188564Y2560800D01*
X3239364Y2535400D01*
X3290164Y2560800D01*
X3264764Y2510000D01*
X3290164Y2459200D01*
X3239364Y2484600D01*
X3188564Y2459200D01*
Y2529200D02*
X3213964Y2580000D01*
X3188564Y2630800D01*
X3239364Y2605400D01*
X3290164Y2630800D01*
X3264764Y2580000D01*
X3290164Y2529200D01*
X3239364Y2554600D01*
X3188564Y2529200D01*
X4159200Y829200D02*
X4184600Y880000D01*
X4159200Y930800D01*
X4210000Y905400D01*
X4260800Y930800D01*
X4235400Y880000D01*
X4260800Y829200D01*
X4210000Y854600D01*
X4159200Y829200D01*
X4229200D02*
X4254600Y880000D01*
X4229200Y930800D01*
X4280000Y905400D01*
X4330800Y930800D01*
X4305400Y880000D01*
X4330800Y829200D01*
X4280000Y854600D01*
X4229200Y829200D01*
X4159200Y709200D02*
X4184600Y760000D01*
X4159200Y810800D01*
X4210000Y785400D01*
X4260800Y810800D01*
X4235400Y760000D01*
X4260800Y709200D01*
X4210000Y734600D01*
X4159200Y709200D01*
X4229200D02*
X4254600Y760000D01*
X4229200Y810800D01*
X4280000Y785400D01*
X4330800Y810800D01*
X4305400Y760000D01*
X4330800Y709200D01*
X4280000Y734600D01*
X4229200Y709200D01*
Y769200D02*
X4254600Y820000D01*
X4229200Y870800D01*
X4280000Y845400D01*
X4330800Y870800D01*
X4305400Y820000D01*
X4330800Y769200D01*
X4280000Y794600D01*
X4229200Y769200D01*
X4159200D02*
X4184600Y820000D01*
X4159200Y870800D01*
X4210000Y845400D01*
X4260800Y870800D01*
X4235400Y820000D01*
X4260800Y769200D01*
X4210000Y794600D01*
X4159200Y769200D01*
X5079200Y1789200D02*
X5104600Y1840000D01*
X5079200Y1890800D01*
X5130000Y1865400D01*
X5180800Y1890800D01*
X5155400Y1840000D01*
X5180800Y1789200D01*
X5130000Y1814600D01*
X5079200Y1789200D01*
X5078564Y1719200D02*
X5103964Y1770000D01*
X5078564Y1820800D01*
X5129364Y1795400D01*
X5180164Y1820800D01*
X5154764Y1770000D01*
X5180164Y1719200D01*
X5129364Y1744600D01*
X5078564Y1719200D01*
X4788564Y2649200D02*
X4813964Y2700000D01*
X4788564Y2750800D01*
X4839364Y2725400D01*
X4890164Y2750800D01*
X4864764Y2700000D01*
X4890164Y2649200D01*
X4839364Y2674600D01*
X4788564Y2649200D01*
X6626064Y2629200D02*
X6651464Y2680000D01*
X6626064Y2730800D01*
X6676864Y2705400D01*
X6727664Y2730800D01*
X6702264Y2680000D01*
X6727664Y2629200D01*
X6676864Y2654600D01*
X6626064Y2629200D01*
X6068564Y3119200D02*
X6093964Y3170000D01*
X6068564Y3220800D01*
X6119364Y3195400D01*
X6170164Y3220800D01*
X6144764Y3170000D01*
X6170164Y3119200D01*
X6119364Y3144600D01*
X6068564Y3119200D01*
X6218564Y3349200D02*
X6243964Y3400000D01*
X6218564Y3450800D01*
X6269364Y3425400D01*
X6320164Y3450800D01*
X6294764Y3400000D01*
X6320164Y3349200D01*
X6269364Y3374600D01*
X6218564Y3349200D01*
X5918564D02*
X5943964Y3400000D01*
X5918564Y3450800D01*
X5969364Y3425400D01*
X6020164Y3450800D01*
X5994764Y3400000D01*
X6020164Y3349200D01*
X5969364Y3374600D01*
X5918564Y3349200D01*
X5369315Y3180950D02*
X5394715Y3231750D01*
X5369315Y3282550D01*
X5420115Y3257150D01*
X5470915Y3282550D01*
X5445515Y3231750D01*
X5470915Y3180950D01*
X5420115Y3206350D01*
X5369315Y3180950D01*
X6562814Y1572450D02*
X6588214Y1623250D01*
X6562814Y1674050D01*
X6613614Y1648650D01*
X6664414Y1674050D01*
X6639014Y1623250D01*
X6664414Y1572450D01*
X6613614Y1597850D01*
X6562814Y1572450D01*
X5319315Y1567450D02*
X5344715Y1618250D01*
X5319315Y1669050D01*
X5370115Y1643650D01*
X5420915Y1669050D01*
X5395515Y1618250D01*
X5420915Y1567450D01*
X5370115Y1592850D01*
X5319315Y1567450D01*
X4288564Y1479200D02*
X4313964Y1530000D01*
X4288564Y1580800D01*
X4339364Y1555400D01*
X4390164Y1580800D01*
X4364764Y1530000D01*
X4390164Y1479200D01*
X4339364Y1504600D01*
X4288564Y1479200D01*
X4938564Y2719200D02*
X4963964Y2770000D01*
X4938564Y2820800D01*
X4989364Y2795400D01*
X5040164Y2820800D01*
X5014764Y2770000D01*
X5040164Y2719200D01*
X4989364Y2744600D01*
X4938564Y2719200D01*
X2393564Y4874200D02*
X2418964Y4925000D01*
X2393564Y4975800D01*
X2444364Y4950400D01*
X2495164Y4975800D01*
X2469764Y4925000D01*
X2495164Y4874200D01*
X2444364Y4899600D01*
X2393564Y4874200D01*
X2318564D02*
X2343964Y4925000D01*
X2318564Y4975800D01*
X2369364Y4950400D01*
X2420164Y4975800D01*
X2394764Y4925000D01*
X2420164Y4874200D01*
X2369364Y4899600D01*
X2318564Y4874200D01*
X2243564D02*
X2268964Y4925000D01*
X2243564Y4975800D01*
X2294364Y4950400D01*
X2345164Y4975800D01*
X2319764Y4925000D01*
X2345164Y4874200D01*
X2294364Y4899600D01*
X2243564Y4874200D01*
X2093564D02*
X2118964Y4925000D01*
X2093564Y4975800D01*
X2144364Y4950400D01*
X2195164Y4975800D01*
X2169764Y4925000D01*
X2195164Y4874200D01*
X2144364Y4899600D01*
X2093564Y4874200D01*
X2168564D02*
X2193964Y4925000D01*
X2168564Y4975800D01*
X2219364Y4950400D01*
X2270164Y4975800D01*
X2244764Y4925000D01*
X2270164Y4874200D01*
X2219364Y4899600D01*
X2168564Y4874200D01*
Y4174200D02*
X2193964Y4225000D01*
X2168564Y4275800D01*
X2219364Y4250400D01*
X2270164Y4275800D01*
X2244764Y4225000D01*
X2270164Y4174200D01*
X2219364Y4199600D01*
X2168564Y4174200D01*
X2093564D02*
X2118964Y4225000D01*
X2093564Y4275800D01*
X2144364Y4250400D01*
X2195164Y4275800D01*
X2169764Y4225000D01*
X2195164Y4174200D01*
X2144364Y4199600D01*
X2093564Y4174200D01*
X2243564D02*
X2268964Y4225000D01*
X2243564Y4275800D01*
X2294364Y4250400D01*
X2345164Y4275800D01*
X2319764Y4225000D01*
X2345164Y4174200D01*
X2294364Y4199600D01*
X2243564Y4174200D01*
X2318564D02*
X2343964Y4225000D01*
X2318564Y4275800D01*
X2369364Y4250400D01*
X2420164Y4275800D01*
X2394764Y4225000D01*
X2420164Y4174200D01*
X2369364Y4199600D01*
X2318564Y4174200D01*
X2393564D02*
X2418964Y4225000D01*
X2393564Y4275800D01*
X2444364Y4250400D01*
X2495164Y4275800D01*
X2469764Y4225000D01*
X2495164Y4174200D01*
X2444364Y4199600D01*
X2393564Y4174200D01*
X2168564Y4274200D02*
X2193964Y4325000D01*
X2168564Y4375800D01*
X2219364Y4350400D01*
X2270164Y4375800D01*
X2244764Y4325000D01*
X2270164Y4274200D01*
X2219364Y4299600D01*
X2168564Y4274200D01*
X2093564D02*
X2118964Y4325000D01*
X2093564Y4375800D01*
X2144364Y4350400D01*
X2195164Y4375800D01*
X2169764Y4325000D01*
X2195164Y4274200D01*
X2144364Y4299600D01*
X2093564Y4274200D01*
X2243564D02*
X2268964Y4325000D01*
X2243564Y4375800D01*
X2294364Y4350400D01*
X2345164Y4375800D01*
X2319764Y4325000D01*
X2345164Y4274200D01*
X2294364Y4299600D01*
X2243564Y4274200D01*
X2318564D02*
X2343964Y4325000D01*
X2318564Y4375800D01*
X2369364Y4350400D01*
X2420164Y4375800D01*
X2394764Y4325000D01*
X2420164Y4274200D01*
X2369364Y4299600D01*
X2318564Y4274200D01*
X2393564D02*
X2418964Y4325000D01*
X2393564Y4375800D01*
X2444364Y4350400D01*
X2495164Y4375800D01*
X2469764Y4325000D01*
X2495164Y4274200D01*
X2444364Y4299600D01*
X2393564Y4274200D01*
X2168564Y4374200D02*
X2193964Y4425000D01*
X2168564Y4475800D01*
X2219364Y4450400D01*
X2270164Y4475800D01*
X2244764Y4425000D01*
X2270164Y4374200D01*
X2219364Y4399600D01*
X2168564Y4374200D01*
X2093564D02*
X2118964Y4425000D01*
X2093564Y4475800D01*
X2144364Y4450400D01*
X2195164Y4475800D01*
X2169764Y4425000D01*
X2195164Y4374200D01*
X2144364Y4399600D01*
X2093564Y4374200D01*
X2243564D02*
X2268964Y4425000D01*
X2243564Y4475800D01*
X2294364Y4450400D01*
X2345164Y4475800D01*
X2319764Y4425000D01*
X2345164Y4374200D01*
X2294364Y4399600D01*
X2243564Y4374200D01*
X2318564D02*
X2343964Y4425000D01*
X2318564Y4475800D01*
X2369364Y4450400D01*
X2420164Y4475800D01*
X2394764Y4425000D01*
X2420164Y4374200D01*
X2369364Y4399600D01*
X2318564Y4374200D01*
X2393564D02*
X2418964Y4425000D01*
X2393564Y4475800D01*
X2444364Y4450400D01*
X2495164Y4475800D01*
X2469764Y4425000D01*
X2495164Y4374200D01*
X2444364Y4399600D01*
X2393564Y4374200D01*
X2168564Y4474200D02*
X2193964Y4525000D01*
X2168564Y4575800D01*
X2219364Y4550400D01*
X2270164Y4575800D01*
X2244764Y4525000D01*
X2270164Y4474200D01*
X2219364Y4499600D01*
X2168564Y4474200D01*
X2093564D02*
X2118964Y4525000D01*
X2093564Y4575800D01*
X2144364Y4550400D01*
X2195164Y4575800D01*
X2169764Y4525000D01*
X2195164Y4474200D01*
X2144364Y4499600D01*
X2093564Y4474200D01*
X2243564D02*
X2268964Y4525000D01*
X2243564Y4575800D01*
X2294364Y4550400D01*
X2345164Y4575800D01*
X2319764Y4525000D01*
X2345164Y4474200D01*
X2294364Y4499600D01*
X2243564Y4474200D01*
X2318564D02*
X2343964Y4525000D01*
X2318564Y4575800D01*
X2369364Y4550400D01*
X2420164Y4575800D01*
X2394764Y4525000D01*
X2420164Y4474200D01*
X2369364Y4499600D01*
X2318564Y4474200D01*
X2393564D02*
X2418964Y4525000D01*
X2393564Y4575800D01*
X2444364Y4550400D01*
X2495164Y4575800D01*
X2469764Y4525000D01*
X2495164Y4474200D01*
X2444364Y4499600D01*
X2393564Y4474200D01*
X2168564Y4574200D02*
X2193964Y4625000D01*
X2168564Y4675800D01*
X2219364Y4650400D01*
X2270164Y4675800D01*
X2244764Y4625000D01*
X2270164Y4574200D01*
X2219364Y4599600D01*
X2168564Y4574200D01*
X2093564D02*
X2118964Y4625000D01*
X2093564Y4675800D01*
X2144364Y4650400D01*
X2195164Y4675800D01*
X2169764Y4625000D01*
X2195164Y4574200D01*
X2144364Y4599600D01*
X2093564Y4574200D01*
X2243564D02*
X2268964Y4625000D01*
X2243564Y4675800D01*
X2294364Y4650400D01*
X2345164Y4675800D01*
X2319764Y4625000D01*
X2345164Y4574200D01*
X2294364Y4599600D01*
X2243564Y4574200D01*
X2318564D02*
X2343964Y4625000D01*
X2318564Y4675800D01*
X2369364Y4650400D01*
X2420164Y4675800D01*
X2394764Y4625000D01*
X2420164Y4574200D01*
X2369364Y4599600D01*
X2318564Y4574200D01*
X2393564D02*
X2418964Y4625000D01*
X2393564Y4675800D01*
X2444364Y4650400D01*
X2495164Y4675800D01*
X2469764Y4625000D01*
X2495164Y4574200D01*
X2444364Y4599600D01*
X2393564Y4574200D01*
X2168564Y4674200D02*
X2193964Y4725000D01*
X2168564Y4775800D01*
X2219364Y4750400D01*
X2270164Y4775800D01*
X2244764Y4725000D01*
X2270164Y4674200D01*
X2219364Y4699600D01*
X2168564Y4674200D01*
X2093564D02*
X2118964Y4725000D01*
X2093564Y4775800D01*
X2144364Y4750400D01*
X2195164Y4775800D01*
X2169764Y4725000D01*
X2195164Y4674200D01*
X2144364Y4699600D01*
X2093564Y4674200D01*
X2243564D02*
X2268964Y4725000D01*
X2243564Y4775800D01*
X2294364Y4750400D01*
X2345164Y4775800D01*
X2319764Y4725000D01*
X2345164Y4674200D01*
X2294364Y4699600D01*
X2243564Y4674200D01*
X2318564D02*
X2343964Y4725000D01*
X2318564Y4775800D01*
X2369364Y4750400D01*
X2420164Y4775800D01*
X2394764Y4725000D01*
X2420164Y4674200D01*
X2369364Y4699600D01*
X2318564Y4674200D01*
X2393564D02*
X2418964Y4725000D01*
X2393564Y4775800D01*
X2444364Y4750400D01*
X2495164Y4775800D01*
X2469764Y4725000D01*
X2495164Y4674200D01*
X2444364Y4699600D01*
X2393564Y4674200D01*
X2168564Y4774200D02*
X2193964Y4825000D01*
X2168564Y4875800D01*
X2219364Y4850400D01*
X2270164Y4875800D01*
X2244764Y4825000D01*
X2270164Y4774200D01*
X2219364Y4799600D01*
X2168564Y4774200D01*
X2093564D02*
X2118964Y4825000D01*
X2093564Y4875800D01*
X2144364Y4850400D01*
X2195164Y4875800D01*
X2169764Y4825000D01*
X2195164Y4774200D01*
X2144364Y4799600D01*
X2093564Y4774200D01*
X2243564D02*
X2268964Y4825000D01*
X2243564Y4875800D01*
X2294364Y4850400D01*
X2345164Y4875800D01*
X2319764Y4825000D01*
X2345164Y4774200D01*
X2294364Y4799600D01*
X2243564Y4774200D01*
X2318564D02*
X2343964Y4825000D01*
X2318564Y4875800D01*
X2369364Y4850400D01*
X2420164Y4875800D01*
X2394764Y4825000D01*
X2420164Y4774200D01*
X2369364Y4799600D01*
X2318564Y4774200D01*
X2393564D02*
X2418964Y4825000D01*
X2393564Y4875800D01*
X2444364Y4850400D01*
X2495164Y4875800D01*
X2469764Y4825000D01*
X2495164Y4774200D01*
X2444364Y4799600D01*
X2393564Y4774200D01*
X4206064Y3971700D02*
X4231464Y4022500D01*
X4206064Y4073300D01*
X4256864Y4047900D01*
X4307664Y4073300D01*
X4282264Y4022500D01*
X4307664Y3971700D01*
X4256864Y3997100D01*
X4206064Y3971700D01*
X3158564Y3819200D02*
X3183964Y3870000D01*
X3158564Y3920800D01*
X3209364Y3895400D01*
X3260164Y3920800D01*
X3234764Y3870000D01*
X3260164Y3819200D01*
X3209364Y3844600D01*
X3158564Y3819200D01*
X3157691Y3898562D02*
X3183091Y3949362D01*
X3157691Y4000162D01*
X3208491Y3974762D01*
X3259291Y4000162D01*
X3233891Y3949362D01*
X3259291Y3898562D01*
X3208491Y3923962D01*
X3157691Y3898562D01*
X3158564Y3749200D02*
X3183964Y3800000D01*
X3158564Y3850800D01*
X3209364Y3825400D01*
X3260164Y3850800D01*
X3234764Y3800000D01*
X3260164Y3749200D01*
X3209364Y3774600D01*
X3158564Y3749200D01*
D176*
X6180164Y6090000D02*
G03*
X6180164Y6090000I-50800J0D01*
G01*
X5680164D02*
G03*
X5680164Y6090000I-50800J0D01*
G01*
%TF.MD5,68b960e6b4ada442c1d2af1ba53f7936*%
M02*
