%TF.GenerationSoftware,Altium Limited,Altium Designer,21.6.1 (37)*%
G04 Layer_Color=8388736*
%FSLAX45Y45*%
%MOMM*%
%TF.SameCoordinates,308497C2-864B-4A42-B135-7B231B7309CE*%
%TF.FilePolarity,Negative*%
%TF.FileFunction,Soldermask,Top*%
%TF.Part,Single*%
G01*
G75*
%TA.AperFunction,ComponentPad*%
%ADD78C,1.80000*%
%ADD82C,1.90000*%
%TA.AperFunction,ViaPad*%
%ADD84C,0.50000*%
%ADD85C,0.40000*%
%TA.AperFunction,ComponentPad*%
%ADD96C,2.80000*%
%ADD97R,2.00000X2.00000*%
%ADD98C,2.00000*%
%ADD99C,0.60000*%
%TA.AperFunction,ViaPad*%
%ADD100C,0.60000*%
%TA.AperFunction,SMDPad,SMDef*%
G04:AMPARAMS|DCode=109|XSize=2mm|YSize=1.9mm|CornerRadius=0.05mm|HoleSize=0mm|Usage=FLASHONLY|Rotation=180.000|XOffset=0mm|YOffset=0mm|HoleType=Round|Shape=RoundedRectangle|*
%AMROUNDEDRECTD109*
21,1,2.00000,1.80000,0,0,180.0*
21,1,1.90000,1.90000,0,0,180.0*
1,1,0.10000,-0.95000,0.90000*
1,1,0.10000,0.95000,0.90000*
1,1,0.10000,0.95000,-0.90000*
1,1,0.10000,-0.95000,-0.90000*
%
%ADD109ROUNDEDRECTD109*%
G04:AMPARAMS|DCode=113|XSize=2mm|YSize=1.9mm|CornerRadius=0.05mm|HoleSize=0mm|Usage=FLASHONLY|Rotation=270.000|XOffset=0mm|YOffset=0mm|HoleType=Round|Shape=RoundedRectangle|*
%AMROUNDEDRECTD113*
21,1,2.00000,1.80000,0,0,270.0*
21,1,1.90000,1.90000,0,0,270.0*
1,1,0.10000,-0.90000,-0.95000*
1,1,0.10000,-0.90000,0.95000*
1,1,0.10000,0.90000,0.95000*
1,1,0.10000,0.90000,-0.95000*
%
%ADD113ROUNDEDRECTD113*%
%TA.AperFunction,NonConductor*%
%ADD117R,4.80000X1.30000*%
%TA.AperFunction,SMDPad,CuDef*%
%ADD118R,0.45000X0.76000*%
%ADD119R,0.45000X0.53000*%
%ADD120R,1.35000X1.20000*%
%ADD121R,0.76000X0.45000*%
%ADD122R,0.53000X0.45000*%
%ADD123R,1.20000X1.35000*%
%ADD124R,0.70000X0.65000*%
%ADD125C,1.10000*%
%ADD126R,0.75000X0.65000*%
%ADD127R,1.10000X1.05000*%
%ADD128R,1.10000X3.50000*%
%ADD129R,1.60000X3.70000*%
G04:AMPARAMS|DCode=130|XSize=0.55mm|YSize=0.4mm|CornerRadius=0.11mm|HoleSize=0mm|Usage=FLASHONLY|Rotation=180.000|XOffset=0mm|YOffset=0mm|HoleType=Round|Shape=RoundedRectangle|*
%AMROUNDEDRECTD130*
21,1,0.55000,0.18000,0,0,180.0*
21,1,0.33000,0.40000,0,0,180.0*
1,1,0.22000,-0.16500,0.09000*
1,1,0.22000,0.16500,0.09000*
1,1,0.22000,0.16500,-0.09000*
1,1,0.22000,-0.16500,-0.09000*
%
%ADD130ROUNDEDRECTD130*%
G04:AMPARAMS|DCode=131|XSize=1.1mm|YSize=1.7mm|CornerRadius=0.11mm|HoleSize=0mm|Usage=FLASHONLY|Rotation=180.000|XOffset=0mm|YOffset=0mm|HoleType=Round|Shape=RoundedRectangle|*
%AMROUNDEDRECTD131*
21,1,1.10000,1.48000,0,0,180.0*
21,1,0.88000,1.70000,0,0,180.0*
1,1,0.22000,-0.44000,0.74000*
1,1,0.22000,0.44000,0.74000*
1,1,0.22000,0.44000,-0.74000*
1,1,0.22000,-0.44000,-0.74000*
%
%ADD131ROUNDEDRECTD131*%
%ADD132R,1.60000X1.00000*%
G04:AMPARAMS|DCode=133|XSize=0.55mm|YSize=1.5mm|CornerRadius=0.0995mm|HoleSize=0mm|Usage=FLASHONLY|Rotation=0.000|XOffset=0mm|YOffset=0mm|HoleType=Round|Shape=RoundedRectangle|*
%AMROUNDEDRECTD133*
21,1,0.55000,1.30100,0,0,0.0*
21,1,0.35100,1.50000,0,0,0.0*
1,1,0.19900,0.17550,-0.65050*
1,1,0.19900,-0.17550,-0.65050*
1,1,0.19900,-0.17550,0.65050*
1,1,0.19900,0.17550,0.65050*
%
%ADD133ROUNDEDRECTD133*%
%ADD134R,1.05000X1.10000*%
%ADD135R,0.65000X0.75000*%
%ADD136R,0.52000X0.76000*%
%ADD137R,0.58000X0.58000*%
%ADD138R,12.60000X3.25000*%
%ADD139R,1.62000X1.70000*%
%ADD140R,2.30000X3.30000*%
%ADD141R,0.85000X0.68500*%
%ADD142R,2.70000X2.87000*%
G04:AMPARAMS|DCode=143|XSize=0.55mm|YSize=1.5mm|CornerRadius=0.0995mm|HoleSize=0mm|Usage=FLASHONLY|Rotation=90.000|XOffset=0mm|YOffset=0mm|HoleType=Round|Shape=RoundedRectangle|*
%AMROUNDEDRECTD143*
21,1,0.55000,1.30100,0,0,90.0*
21,1,0.35100,1.50000,0,0,90.0*
1,1,0.19900,0.65050,0.17550*
1,1,0.19900,0.65050,-0.17550*
1,1,0.19900,-0.65050,-0.17550*
1,1,0.19900,-0.65050,0.17550*
%
%ADD143ROUNDEDRECTD143*%
%ADD144R,0.76000X0.52000*%
%ADD145R,0.58000X0.58000*%
%ADD146R,0.40000X0.71000*%
%ADD147R,1.30000X1.15000*%
%ADD148R,0.40000X0.48000*%
%ADD149R,0.35000X0.90000*%
%ADD150R,0.90000X0.35000*%
%ADD151R,1.02500X0.35000*%
%ADD152R,0.30000X0.32000*%
%TA.AperFunction,BGAPad,CuDef*%
%ADD153R,0.20000X0.20000*%
%TA.AperFunction,SMDPad,CuDef*%
%ADD154R,1.90000X2.90000*%
%ADD155R,2.40000X1.50000*%
%ADD156R,0.75000X0.90000*%
%ADD157R,1.15000X0.90000*%
%ADD158R,1.00000X1.60000*%
%ADD159R,0.40000X1.30000*%
%ADD160R,1.30000X0.40000*%
%ADD161R,0.68500X0.85000*%
%ADD162R,1.40000X1.70000*%
%ADD163R,1.35000X1.95000*%
%ADD164R,0.70000X1.30000*%
%ADD165R,2.72000X0.90000*%
G36*
X3438844Y4406928D02*
X3439787Y4406642D01*
X3440655Y4406178D01*
X3441417Y4405554D01*
X3442041Y4404792D01*
X3442506Y4403923D01*
X3442792Y4402981D01*
X3442888Y4402001D01*
Y4252025D01*
X3492364D01*
X3493344Y4251929D01*
X3494287Y4251642D01*
X3495155Y4251178D01*
X3495917Y4250554D01*
X3496541Y4249792D01*
X3497006Y4248923D01*
X3497292Y4247981D01*
X3497388Y4247001D01*
Y4190001D01*
X3497292Y4189021D01*
X3497006Y4188078D01*
X3496541Y4187210D01*
X3495917Y4186448D01*
X3495155Y4185823D01*
X3494287Y4185359D01*
X3493344Y4185073D01*
X3492364Y4184977D01*
X3442888D01*
Y4172001D01*
X3442792Y4171021D01*
X3442506Y4170078D01*
X3442041Y4169210D01*
X3441417Y4168448D01*
X3440655Y4167824D01*
X3439787Y4167359D01*
X3438844Y4167073D01*
X3437864Y4166977D01*
X3200864D01*
X3199884Y4167073D01*
X3198942Y4167359D01*
X3198073Y4167824D01*
X3197312Y4168448D01*
X3196687Y4169210D01*
X3196223Y4170078D01*
X3195937Y4171021D01*
X3195840Y4172001D01*
Y4184977D01*
X3146364D01*
X3145384Y4185073D01*
X3144442Y4185359D01*
X3143573Y4185823D01*
X3142812Y4186448D01*
X3142187Y4187210D01*
X3141723Y4188078D01*
X3141437Y4189021D01*
X3141340Y4190001D01*
Y4247001D01*
X3141437Y4247981D01*
X3141723Y4248923D01*
X3142187Y4249792D01*
X3142812Y4250554D01*
X3143573Y4251178D01*
X3144442Y4251642D01*
X3145384Y4251929D01*
X3146364Y4252025D01*
X3195840D01*
Y4402001D01*
X3195937Y4402981D01*
X3196223Y4403923D01*
X3196687Y4404792D01*
X3197312Y4405554D01*
X3198073Y4406178D01*
X3198942Y4406642D01*
X3199884Y4406928D01*
X3200864Y4407025D01*
X3242864D01*
X3243844Y4406928D01*
X3244787Y4406642D01*
X3245655Y4406178D01*
X3246417Y4405554D01*
X3247042Y4404792D01*
X3247506Y4403923D01*
X3247792Y4402981D01*
X3247888Y4402001D01*
Y4360025D01*
X3260840D01*
Y4402001D01*
X3260937Y4402981D01*
X3261223Y4403923D01*
X3261687Y4404792D01*
X3262311Y4405554D01*
X3263073Y4406178D01*
X3263942Y4406642D01*
X3264884Y4406928D01*
X3265864Y4407025D01*
X3307864D01*
X3308844Y4406928D01*
X3309787Y4406642D01*
X3310655Y4406178D01*
X3311417Y4405554D01*
X3312041Y4404792D01*
X3312506Y4403923D01*
X3312792Y4402981D01*
X3312888Y4402001D01*
Y4360025D01*
X3325840D01*
Y4402001D01*
X3325937Y4402981D01*
X3326223Y4403923D01*
X3326687Y4404792D01*
X3327312Y4405554D01*
X3328073Y4406178D01*
X3328942Y4406642D01*
X3329884Y4406928D01*
X3330864Y4407025D01*
X3372864D01*
X3373844Y4406928D01*
X3374787Y4406642D01*
X3375655Y4406178D01*
X3376417Y4405554D01*
X3377042Y4404792D01*
X3377506Y4403923D01*
X3377792Y4402981D01*
X3377888Y4402001D01*
Y4360025D01*
X3390840D01*
Y4402001D01*
X3390937Y4402981D01*
X3391223Y4403923D01*
X3391687Y4404792D01*
X3392311Y4405554D01*
X3393073Y4406178D01*
X3393942Y4406642D01*
X3394884Y4406928D01*
X3395864Y4407025D01*
X3437864D01*
X3438844Y4406928D01*
D02*
G37*
G36*
X4638844Y4406428D02*
X4639787Y4406142D01*
X4640655Y4405677D01*
X4641417Y4405053D01*
X4642042Y4404291D01*
X4642506Y4403422D01*
X4642792Y4402480D01*
X4642888Y4401500D01*
Y4251524D01*
X4692364D01*
X4693344Y4251428D01*
X4694287Y4251142D01*
X4695155Y4250677D01*
X4695917Y4250053D01*
X4696542Y4249291D01*
X4697006Y4248423D01*
X4697292Y4247480D01*
X4697388Y4246500D01*
Y4189500D01*
X4697292Y4188520D01*
X4697006Y4187577D01*
X4696542Y4186709D01*
X4695917Y4185947D01*
X4695155Y4185323D01*
X4694287Y4184858D01*
X4693344Y4184572D01*
X4692364Y4184476D01*
X4642888D01*
Y4171500D01*
X4642792Y4170520D01*
X4642506Y4169577D01*
X4642042Y4168709D01*
X4641417Y4167947D01*
X4640655Y4167323D01*
X4639787Y4166858D01*
X4638844Y4166572D01*
X4637864Y4166476D01*
X4400864D01*
X4399884Y4166572D01*
X4398942Y4166858D01*
X4398073Y4167323D01*
X4397312Y4167947D01*
X4396687Y4168709D01*
X4396223Y4169577D01*
X4395937Y4170520D01*
X4395840Y4171500D01*
Y4184476D01*
X4346364D01*
X4345384Y4184572D01*
X4344442Y4184858D01*
X4343573Y4185323D01*
X4342812Y4185947D01*
X4342187Y4186709D01*
X4341723Y4187577D01*
X4341437Y4188520D01*
X4341340Y4189500D01*
Y4246500D01*
X4341437Y4247480D01*
X4341723Y4248423D01*
X4342187Y4249291D01*
X4342812Y4250053D01*
X4343573Y4250677D01*
X4344442Y4251142D01*
X4345384Y4251428D01*
X4346364Y4251524D01*
X4395840D01*
Y4401500D01*
X4395937Y4402480D01*
X4396223Y4403422D01*
X4396687Y4404291D01*
X4397312Y4405053D01*
X4398073Y4405677D01*
X4398942Y4406142D01*
X4399884Y4406428D01*
X4400864Y4406524D01*
X4442864D01*
X4443845Y4406428D01*
X4444787Y4406142D01*
X4445656Y4405677D01*
X4446417Y4405053D01*
X4447042Y4404291D01*
X4447506Y4403422D01*
X4447792Y4402480D01*
X4447888Y4401500D01*
Y4359524D01*
X4460840D01*
Y4401500D01*
X4460937Y4402480D01*
X4461223Y4403422D01*
X4461687Y4404291D01*
X4462312Y4405053D01*
X4463073Y4405677D01*
X4463942Y4406142D01*
X4464884Y4406428D01*
X4465864Y4406524D01*
X4507864D01*
X4508844Y4406428D01*
X4509787Y4406142D01*
X4510655Y4405677D01*
X4511417Y4405053D01*
X4512042Y4404291D01*
X4512506Y4403422D01*
X4512792Y4402480D01*
X4512888Y4401500D01*
Y4359524D01*
X4525840D01*
Y4401500D01*
X4525937Y4402480D01*
X4526223Y4403422D01*
X4526687Y4404291D01*
X4527312Y4405053D01*
X4528073Y4405677D01*
X4528942Y4406142D01*
X4529884Y4406428D01*
X4530864Y4406524D01*
X4572864D01*
X4573845Y4406428D01*
X4574787Y4406142D01*
X4575656Y4405677D01*
X4576417Y4405053D01*
X4577042Y4404291D01*
X4577506Y4403422D01*
X4577792Y4402480D01*
X4577888Y4401500D01*
Y4359524D01*
X4590840D01*
Y4401500D01*
X4590937Y4402480D01*
X4591223Y4403422D01*
X4591687Y4404291D01*
X4592312Y4405053D01*
X4593073Y4405677D01*
X4593942Y4406142D01*
X4594884Y4406428D01*
X4595864Y4406524D01*
X4637864D01*
X4638844Y4406428D01*
D02*
G37*
G36*
X1318844Y3042927D02*
X1319787Y3042641D01*
X1320655Y3042177D01*
X1321417Y3041552D01*
X1322041Y3040791D01*
X1322506Y3039922D01*
X1322792Y3038980D01*
X1322888Y3038000D01*
Y2988524D01*
X1335864D01*
X1336844Y2988427D01*
X1337787Y2988141D01*
X1338655Y2987677D01*
X1339417Y2987052D01*
X1340041Y2986291D01*
X1340506Y2985422D01*
X1340792Y2984480D01*
X1340888Y2983500D01*
Y2746500D01*
X1340792Y2745520D01*
X1340506Y2744577D01*
X1340041Y2743709D01*
X1339417Y2742947D01*
X1338655Y2742323D01*
X1337787Y2741858D01*
X1336844Y2741572D01*
X1335864Y2741476D01*
X1322888D01*
Y2692000D01*
X1322792Y2691020D01*
X1322506Y2690077D01*
X1322041Y2689209D01*
X1321417Y2688447D01*
X1320655Y2687823D01*
X1319787Y2687358D01*
X1318844Y2687072D01*
X1317864Y2686976D01*
X1260864D01*
X1259884Y2687072D01*
X1258941Y2687358D01*
X1258073Y2687823D01*
X1257311Y2688447D01*
X1256687Y2689209D01*
X1256222Y2690077D01*
X1255936Y2691020D01*
X1255840Y2692000D01*
Y2741476D01*
X1105864D01*
X1104884Y2741572D01*
X1103941Y2741858D01*
X1103073Y2742323D01*
X1102311Y2742947D01*
X1101687Y2743709D01*
X1101222Y2744577D01*
X1100936Y2745520D01*
X1100840Y2746500D01*
Y2788500D01*
X1100936Y2789480D01*
X1101222Y2790422D01*
X1101687Y2791291D01*
X1102311Y2792053D01*
X1103073Y2792677D01*
X1103941Y2793141D01*
X1104884Y2793427D01*
X1105864Y2793524D01*
X1147840D01*
Y2806476D01*
X1105864D01*
X1104884Y2806572D01*
X1103941Y2806858D01*
X1103073Y2807323D01*
X1102311Y2807947D01*
X1101687Y2808709D01*
X1101222Y2809577D01*
X1100936Y2810520D01*
X1100840Y2811500D01*
Y2853500D01*
X1100936Y2854480D01*
X1101222Y2855422D01*
X1101687Y2856291D01*
X1102311Y2857052D01*
X1103073Y2857677D01*
X1103941Y2858141D01*
X1104884Y2858427D01*
X1105864Y2858524D01*
X1147840D01*
Y2871476D01*
X1105864D01*
X1104884Y2871572D01*
X1103941Y2871858D01*
X1103073Y2872323D01*
X1102311Y2872947D01*
X1101687Y2873709D01*
X1101222Y2874577D01*
X1100936Y2875520D01*
X1100840Y2876500D01*
Y2918500D01*
X1100936Y2919480D01*
X1101222Y2920422D01*
X1101687Y2921291D01*
X1102311Y2922053D01*
X1103073Y2922677D01*
X1103941Y2923141D01*
X1104884Y2923427D01*
X1105864Y2923524D01*
X1147840D01*
Y2936476D01*
X1105864D01*
X1104884Y2936572D01*
X1103941Y2936858D01*
X1103073Y2937323D01*
X1102311Y2937947D01*
X1101687Y2938709D01*
X1101222Y2939577D01*
X1100936Y2940520D01*
X1100840Y2941500D01*
Y2983500D01*
X1100936Y2984480D01*
X1101222Y2985422D01*
X1101687Y2986291D01*
X1102311Y2987052D01*
X1103073Y2987677D01*
X1103941Y2988141D01*
X1104884Y2988427D01*
X1105864Y2988524D01*
X1255840D01*
Y3038000D01*
X1255936Y3038980D01*
X1256222Y3039922D01*
X1256687Y3040791D01*
X1257311Y3041552D01*
X1258073Y3042177D01*
X1258941Y3042641D01*
X1259884Y3042927D01*
X1260864Y3043024D01*
X1317864D01*
X1318844Y3042927D01*
D02*
G37*
G36*
X3540344Y2387428D02*
X3541287Y2387142D01*
X3542155Y2386678D01*
X3542917Y2386053D01*
X3543541Y2385292D01*
X3544006Y2384423D01*
X3544292Y2383481D01*
X3544388Y2382500D01*
Y2232500D01*
X3544292Y2231520D01*
X3544006Y2230578D01*
X3543541Y2229709D01*
X3542917Y2228948D01*
X3542155Y2228323D01*
X3541287Y2227859D01*
X3540344Y2227573D01*
X3539364Y2227476D01*
X3469364D01*
X3468384Y2227573D01*
X3467442Y2227859D01*
X3466573Y2228323D01*
X3465811Y2228948D01*
X3465187Y2229709D01*
X3464723Y2230578D01*
X3464437Y2231520D01*
X3464340Y2232500D01*
Y2382500D01*
X3464437Y2383481D01*
X3464723Y2384423D01*
X3465187Y2385292D01*
X3465811Y2386053D01*
X3466573Y2386678D01*
X3467442Y2387142D01*
X3468384Y2387428D01*
X3469364Y2387525D01*
X3489364D01*
X3490344Y2387428D01*
X3491287Y2387142D01*
X3492155Y2386678D01*
X3492917Y2386053D01*
X3493541Y2385292D01*
X3494006Y2384423D01*
X3494292Y2383481D01*
X3494388Y2382500D01*
Y2337524D01*
X3514340D01*
Y2382500D01*
X3514436Y2383481D01*
X3514722Y2384423D01*
X3515187Y2385292D01*
X3515811Y2386053D01*
X3516573Y2386678D01*
X3517442Y2387142D01*
X3518384Y2387428D01*
X3519364Y2387525D01*
X3539364D01*
X3540344Y2387428D01*
D02*
G37*
G36*
X3617844Y2387428D02*
X3618787Y2387142D01*
X3619655Y2386677D01*
X3620417Y2386053D01*
X3621041Y2385291D01*
X3621506Y2384423D01*
X3621792Y2383480D01*
X3621888Y2382500D01*
Y2340024D01*
X3684364D01*
X3685344Y2339928D01*
X3686287Y2339642D01*
X3687155Y2339177D01*
X3687917Y2338553D01*
X3688541Y2337791D01*
X3689006Y2336923D01*
X3689292Y2335980D01*
X3689388Y2335000D01*
Y2310000D01*
X3689292Y2309020D01*
X3689006Y2308078D01*
X3688541Y2307209D01*
X3687917Y2306448D01*
X3687155Y2305823D01*
X3686287Y2305359D01*
X3685344Y2305073D01*
X3684364Y2304976D01*
X3591864D01*
X3590884Y2305073D01*
X3589942Y2305359D01*
X3589073Y2305823D01*
X3588311Y2306448D01*
X3587687Y2307209D01*
X3587222Y2308078D01*
X3586936Y2309020D01*
X3586840Y2310000D01*
Y2382500D01*
X3586936Y2383480D01*
X3587222Y2384423D01*
X3587687Y2385291D01*
X3588311Y2386053D01*
X3589073Y2386677D01*
X3589942Y2387142D01*
X3590884Y2387428D01*
X3591864Y2387524D01*
X3616864D01*
X3617844Y2387428D01*
D02*
G37*
G36*
X3417844D02*
X3418787Y2387142D01*
X3419655Y2386677D01*
X3420417Y2386053D01*
X3421041Y2385291D01*
X3421506Y2384423D01*
X3421792Y2383480D01*
X3421888Y2382500D01*
Y2310000D01*
X3421792Y2309020D01*
X3421506Y2308078D01*
X3421041Y2307209D01*
X3420417Y2306448D01*
X3419655Y2305823D01*
X3418787Y2305359D01*
X3417844Y2305073D01*
X3416864Y2304976D01*
X3324364D01*
X3323384Y2305073D01*
X3322442Y2305359D01*
X3321573Y2305823D01*
X3320811Y2306448D01*
X3320187Y2307209D01*
X3319723Y2308078D01*
X3319437Y2309020D01*
X3319340Y2310000D01*
Y2335000D01*
X3319437Y2335980D01*
X3319723Y2336923D01*
X3320187Y2337791D01*
X3320811Y2338553D01*
X3321573Y2339177D01*
X3322442Y2339642D01*
X3323384Y2339928D01*
X3324364Y2340024D01*
X3386840D01*
Y2382500D01*
X3386937Y2383480D01*
X3387223Y2384423D01*
X3387687Y2385291D01*
X3388311Y2386053D01*
X3389073Y2386677D01*
X3389942Y2387142D01*
X3390884Y2387428D01*
X3391864Y2387524D01*
X3416864D01*
X3417844Y2387428D01*
D02*
G37*
G36*
X3685344Y2274928D02*
X3686287Y2274642D01*
X3687155Y2274178D01*
X3687917Y2273553D01*
X3688541Y2272791D01*
X3689006Y2271923D01*
X3689292Y2270980D01*
X3689388Y2270000D01*
Y2250000D01*
X3689292Y2249020D01*
X3689006Y2248078D01*
X3688541Y2247209D01*
X3687917Y2246448D01*
X3687155Y2245823D01*
X3686287Y2245359D01*
X3685344Y2245073D01*
X3684364Y2244976D01*
X3639388D01*
Y2225025D01*
X3684364D01*
X3685344Y2224928D01*
X3686287Y2224642D01*
X3687155Y2224178D01*
X3687917Y2223553D01*
X3688541Y2222792D01*
X3689006Y2221923D01*
X3689292Y2220981D01*
X3689388Y2220000D01*
Y2200000D01*
X3689292Y2199020D01*
X3689006Y2198078D01*
X3688541Y2197209D01*
X3687917Y2196448D01*
X3687155Y2195823D01*
X3686287Y2195359D01*
X3685344Y2195073D01*
X3684364Y2194976D01*
X3591864D01*
X3590884Y2195073D01*
X3589942Y2195359D01*
X3589073Y2195823D01*
X3588311Y2196448D01*
X3587687Y2197209D01*
X3587222Y2198078D01*
X3586936Y2199020D01*
X3586840Y2200000D01*
Y2270000D01*
X3586936Y2270980D01*
X3587222Y2271923D01*
X3587687Y2272791D01*
X3588311Y2273553D01*
X3589073Y2274178D01*
X3589942Y2274642D01*
X3590884Y2274928D01*
X3591864Y2275024D01*
X3684364D01*
X3685344Y2274928D01*
D02*
G37*
G36*
X3417844D02*
X3418787Y2274642D01*
X3419655Y2274178D01*
X3420417Y2273553D01*
X3421041Y2272791D01*
X3421506Y2271923D01*
X3421792Y2270980D01*
X3421888Y2270000D01*
Y2200000D01*
X3421792Y2199020D01*
X3421506Y2198078D01*
X3421041Y2197209D01*
X3420417Y2196448D01*
X3419655Y2195823D01*
X3418787Y2195359D01*
X3417844Y2195073D01*
X3416864Y2194976D01*
X3324364D01*
X3323384Y2195073D01*
X3322442Y2195359D01*
X3321573Y2195823D01*
X3320811Y2196448D01*
X3320187Y2197209D01*
X3319723Y2198078D01*
X3319437Y2199020D01*
X3319340Y2200000D01*
Y2220000D01*
X3319437Y2220981D01*
X3319723Y2221923D01*
X3320187Y2222792D01*
X3320811Y2223553D01*
X3321573Y2224178D01*
X3322442Y2224642D01*
X3323384Y2224928D01*
X3324364Y2225025D01*
X3369340D01*
Y2244976D01*
X3324364D01*
X3323384Y2245073D01*
X3322442Y2245359D01*
X3321573Y2245823D01*
X3320811Y2246448D01*
X3320187Y2247209D01*
X3319723Y2248078D01*
X3319437Y2249020D01*
X3319340Y2250000D01*
Y2270000D01*
X3319437Y2270980D01*
X3319723Y2271923D01*
X3320187Y2272791D01*
X3320811Y2273553D01*
X3321573Y2274178D01*
X3322442Y2274642D01*
X3323384Y2274928D01*
X3324364Y2275024D01*
X3416864D01*
X3417844Y2274928D01*
D02*
G37*
G36*
X1318844Y2402928D02*
X1319787Y2402642D01*
X1320655Y2402178D01*
X1321417Y2401553D01*
X1322041Y2400791D01*
X1322506Y2399923D01*
X1322792Y2398980D01*
X1322888Y2398000D01*
Y2348524D01*
X1335864D01*
X1336844Y2348428D01*
X1337787Y2348142D01*
X1338655Y2347678D01*
X1339417Y2347053D01*
X1340041Y2346291D01*
X1340506Y2345423D01*
X1340792Y2344480D01*
X1340888Y2343500D01*
Y2106500D01*
X1340792Y2105520D01*
X1340506Y2104578D01*
X1340041Y2103709D01*
X1339417Y2102948D01*
X1338655Y2102323D01*
X1337787Y2101859D01*
X1336844Y2101573D01*
X1335864Y2101476D01*
X1322888D01*
Y2052000D01*
X1322792Y2051020D01*
X1322506Y2050078D01*
X1322041Y2049209D01*
X1321417Y2048448D01*
X1320655Y2047823D01*
X1319787Y2047359D01*
X1318844Y2047073D01*
X1317864Y2046976D01*
X1260864D01*
X1259884Y2047073D01*
X1258941Y2047359D01*
X1258073Y2047823D01*
X1257311Y2048448D01*
X1256687Y2049209D01*
X1256222Y2050078D01*
X1255936Y2051020D01*
X1255840Y2052000D01*
Y2101476D01*
X1105864D01*
X1104884Y2101573D01*
X1103941Y2101859D01*
X1103073Y2102323D01*
X1102311Y2102948D01*
X1101687Y2103709D01*
X1101222Y2104578D01*
X1100936Y2105520D01*
X1100840Y2106500D01*
Y2148500D01*
X1100936Y2149481D01*
X1101222Y2150423D01*
X1101687Y2151292D01*
X1102311Y2152053D01*
X1103073Y2152678D01*
X1103941Y2153142D01*
X1104884Y2153428D01*
X1105864Y2153525D01*
X1147840D01*
Y2166476D01*
X1105864D01*
X1104884Y2166573D01*
X1103941Y2166859D01*
X1103073Y2167323D01*
X1102311Y2167948D01*
X1101687Y2168709D01*
X1101222Y2169578D01*
X1100936Y2170520D01*
X1100840Y2171500D01*
Y2213500D01*
X1100936Y2214480D01*
X1101222Y2215423D01*
X1101687Y2216291D01*
X1102311Y2217053D01*
X1103073Y2217678D01*
X1103941Y2218142D01*
X1104884Y2218428D01*
X1105864Y2218524D01*
X1147840D01*
Y2231476D01*
X1105864D01*
X1104884Y2231573D01*
X1103941Y2231859D01*
X1103073Y2232323D01*
X1102311Y2232948D01*
X1101687Y2233709D01*
X1101222Y2234578D01*
X1100936Y2235520D01*
X1100840Y2236500D01*
Y2278500D01*
X1100936Y2279481D01*
X1101222Y2280423D01*
X1101687Y2281292D01*
X1102311Y2282053D01*
X1103073Y2282678D01*
X1103941Y2283142D01*
X1104884Y2283428D01*
X1105864Y2283525D01*
X1147840D01*
Y2296476D01*
X1105864D01*
X1104884Y2296573D01*
X1103941Y2296859D01*
X1103073Y2297323D01*
X1102311Y2297948D01*
X1101687Y2298709D01*
X1101222Y2299578D01*
X1100936Y2300520D01*
X1100840Y2301500D01*
Y2343500D01*
X1100936Y2344480D01*
X1101222Y2345423D01*
X1101687Y2346291D01*
X1102311Y2347053D01*
X1103073Y2347678D01*
X1103941Y2348142D01*
X1104884Y2348428D01*
X1105864Y2348524D01*
X1255840D01*
Y2398000D01*
X1255936Y2398980D01*
X1256222Y2399923D01*
X1256687Y2400791D01*
X1257311Y2401553D01*
X1258073Y2402178D01*
X1258941Y2402642D01*
X1259884Y2402928D01*
X1260864Y2403024D01*
X1317864D01*
X1318844Y2402928D01*
D02*
G37*
G36*
X3685344Y1999928D02*
X3686287Y1999642D01*
X3687155Y1999178D01*
X3687917Y1998553D01*
X3688541Y1997792D01*
X3689006Y1996923D01*
X3689292Y1995981D01*
X3689388Y1995001D01*
Y1970001D01*
X3689292Y1969020D01*
X3689006Y1968078D01*
X3688541Y1967209D01*
X3687917Y1966448D01*
X3687155Y1965823D01*
X3686287Y1965359D01*
X3685344Y1965073D01*
X3684364Y1964977D01*
X3621888D01*
Y1922501D01*
X3621792Y1921520D01*
X3621506Y1920578D01*
X3621041Y1919709D01*
X3620417Y1918948D01*
X3619655Y1918323D01*
X3618787Y1917859D01*
X3617844Y1917573D01*
X3616864Y1917476D01*
X3591864D01*
X3590884Y1917573D01*
X3589942Y1917859D01*
X3589073Y1918323D01*
X3588311Y1918948D01*
X3587687Y1919709D01*
X3587222Y1920578D01*
X3586936Y1921520D01*
X3586840Y1922501D01*
Y1995001D01*
X3586936Y1995981D01*
X3587222Y1996923D01*
X3587687Y1997792D01*
X3588311Y1998553D01*
X3589073Y1999178D01*
X3589942Y1999642D01*
X3590884Y1999928D01*
X3591864Y2000025D01*
X3684364D01*
X3685344Y1999928D01*
D02*
G37*
G36*
X3417844Y1999928D02*
X3418787Y1999642D01*
X3419655Y1999178D01*
X3420417Y1998553D01*
X3421041Y1997792D01*
X3421506Y1996923D01*
X3421792Y1995981D01*
X3421888Y1995000D01*
Y1922500D01*
X3421792Y1921520D01*
X3421506Y1920578D01*
X3421041Y1919709D01*
X3420417Y1918948D01*
X3419655Y1918323D01*
X3418787Y1917859D01*
X3417844Y1917573D01*
X3416864Y1917476D01*
X3391864D01*
X3390884Y1917573D01*
X3389942Y1917859D01*
X3389073Y1918323D01*
X3388311Y1918948D01*
X3387687Y1919709D01*
X3387223Y1920578D01*
X3386937Y1921520D01*
X3386840Y1922500D01*
Y1964976D01*
X3324364D01*
X3323384Y1965073D01*
X3322442Y1965359D01*
X3321573Y1965823D01*
X3320811Y1966448D01*
X3320187Y1967209D01*
X3319723Y1968078D01*
X3319437Y1969020D01*
X3319340Y1970000D01*
Y1995000D01*
X3319437Y1995981D01*
X3319723Y1996923D01*
X3320187Y1997792D01*
X3320811Y1998553D01*
X3321573Y1999178D01*
X3322442Y1999642D01*
X3323384Y1999928D01*
X3324364Y2000024D01*
X3416864D01*
X3417844Y1999928D01*
D02*
G37*
D78*
X5329364Y7090000D02*
D03*
X6429364D02*
D03*
D82*
X3621000Y271000D02*
D03*
X3875000D02*
D03*
X4129000D02*
D03*
X4383000D02*
D03*
X4637000D02*
D03*
X4891000D02*
D03*
X5145000D02*
D03*
X5399000D02*
D03*
X5653000D02*
D03*
X6415000Y525000D02*
D03*
X6161000Y271000D02*
D03*
X5907000D02*
D03*
X6161000Y525000D02*
D03*
X3621000D02*
D03*
X3875000D02*
D03*
X4129000D02*
D03*
X4383000D02*
D03*
X4637000D02*
D03*
X4891000D02*
D03*
X5145000D02*
D03*
X5399000D02*
D03*
X5653000D02*
D03*
X5907000D02*
D03*
X6415000Y271000D02*
D03*
X1589000D02*
D03*
X1843000D02*
D03*
X2097000D02*
D03*
X2605000D02*
D03*
X2859000D02*
D03*
X3113000D02*
D03*
X3367000D02*
D03*
X3113000Y525000D02*
D03*
X3367000D02*
D03*
X2859000D02*
D03*
X2351000Y271000D02*
D03*
X1843000Y525000D02*
D03*
X2097000D02*
D03*
X2351000D02*
D03*
X2605000D02*
D03*
X1589000D02*
D03*
D84*
X4076864Y3892500D02*
D03*
Y3782500D02*
D03*
X2171864Y2220000D02*
D03*
X2281864D02*
D03*
D85*
X4794364Y1195000D02*
D03*
Y1305000D02*
D03*
D96*
X6129364Y6090000D02*
D03*
X5629364D02*
D03*
D97*
X4000000Y825500D02*
D03*
D98*
Y1079500D02*
D03*
D99*
X7462576Y2665500D02*
D03*
Y2284500D02*
D03*
D100*
X5950000Y2900000D02*
D03*
X5644364Y2300000D02*
D03*
D109*
X4076864Y3837500D02*
D03*
D113*
X2226864Y2220000D02*
D03*
D117*
X4619364Y3675000D02*
D03*
X3449364Y3685000D02*
D03*
D118*
X3256864Y4600000D02*
D03*
X4569364D02*
D03*
D119*
X3334364Y4693500D02*
D03*
X3269364D02*
D03*
X3399364D02*
D03*
X3334364Y4506500D02*
D03*
X3269364D02*
D03*
X3399364D02*
D03*
X4491865D02*
D03*
X4556864D02*
D03*
X4426864D02*
D03*
X4491865Y4693500D02*
D03*
X4556864D02*
D03*
X4426864D02*
D03*
D120*
X3362864Y4600000D02*
D03*
X4463364D02*
D03*
D121*
X7132364Y3407500D02*
D03*
X2619364Y3650000D02*
D03*
D122*
X7038865Y3485000D02*
D03*
Y3420000D02*
D03*
Y3550000D02*
D03*
X7225864Y3485000D02*
D03*
Y3420000D02*
D03*
Y3550000D02*
D03*
X2525864Y3727500D02*
D03*
Y3662500D02*
D03*
Y3792500D02*
D03*
X2712864Y3727500D02*
D03*
Y3662500D02*
D03*
Y3792500D02*
D03*
D123*
X7132364Y3513500D02*
D03*
X2619364Y3756000D02*
D03*
D124*
X2181969Y6072500D02*
D03*
X2051968D02*
D03*
X2116969Y5887500D02*
D03*
D125*
X2630000Y6050000D02*
D03*
X5559364Y1330000D02*
D03*
X2399364Y3500000D02*
D03*
X6919364Y3300000D02*
D03*
X300000Y6000000D02*
D03*
X7700000D02*
D03*
X4979364Y4310000D02*
D03*
X3799364Y2040000D02*
D03*
X1429364Y1930000D02*
D03*
X2479364Y1800000D02*
D03*
D126*
X2466968Y6032500D02*
D03*
Y5947500D02*
D03*
X4849364Y4142500D02*
D03*
Y4057500D02*
D03*
X3639364Y4150000D02*
D03*
Y4065000D02*
D03*
X1561864Y2972500D02*
D03*
Y2887500D02*
D03*
Y2327501D02*
D03*
Y2242500D02*
D03*
X3349364Y1735001D02*
D03*
Y1820001D02*
D03*
X3454364Y1735001D02*
D03*
Y1820001D02*
D03*
X3579364Y1735001D02*
D03*
Y1820001D02*
D03*
X3684364Y1735001D02*
D03*
Y1820001D02*
D03*
X5969364Y1107500D02*
D03*
Y1192500D02*
D03*
X6719364Y3232500D02*
D03*
Y3317500D02*
D03*
X5844364Y1192500D02*
D03*
Y1107500D02*
D03*
X6594364Y3317500D02*
D03*
Y3232500D02*
D03*
X6269364Y3232500D02*
D03*
Y3317500D02*
D03*
X5969364Y3232500D02*
D03*
Y3317500D02*
D03*
X5719364Y3232500D02*
D03*
Y3317500D02*
D03*
X2401864Y1182500D02*
D03*
Y1267500D02*
D03*
X2101864Y1182500D02*
D03*
Y1267500D02*
D03*
D127*
X2326968Y5917500D02*
D03*
Y6042500D02*
D03*
X5294364Y1312500D02*
D03*
Y1187500D02*
D03*
X4519364Y1312500D02*
D03*
Y1187500D02*
D03*
X4344364Y1312500D02*
D03*
Y1187500D02*
D03*
X3269364Y4837500D02*
D03*
Y4962500D02*
D03*
X4984364Y4037500D02*
D03*
Y4162500D02*
D03*
X3789364Y4167500D02*
D03*
Y4042500D02*
D03*
X5944364Y1637500D02*
D03*
Y1512500D02*
D03*
X6101864D02*
D03*
Y1637500D02*
D03*
X3229364Y890001D02*
D03*
Y1015001D02*
D03*
X3379364Y890001D02*
D03*
Y1015001D02*
D03*
X3529364Y890001D02*
D03*
Y1015001D02*
D03*
X3679364Y890001D02*
D03*
Y1015001D02*
D03*
X6376864Y1512500D02*
D03*
Y1637500D02*
D03*
X5626865D02*
D03*
Y1512500D02*
D03*
X5786864D02*
D03*
Y1637500D02*
D03*
X2101864Y1387500D02*
D03*
Y1512500D02*
D03*
X2401864D02*
D03*
Y1387500D02*
D03*
X2251864Y1512500D02*
D03*
Y1387500D02*
D03*
X1976864Y1920000D02*
D03*
Y1795000D02*
D03*
D128*
X4239364Y6405000D02*
D03*
X4039364D02*
D03*
X3839364D02*
D03*
X3639364D02*
D03*
X2249364D02*
D03*
X2049364D02*
D03*
X1849364D02*
D03*
X1649364D02*
D03*
D129*
X4469364Y7155000D02*
D03*
X3409364D02*
D03*
X2479364D02*
D03*
X1419364D02*
D03*
D130*
X4891864Y1250000D02*
D03*
Y1315000D02*
D03*
X4696864D02*
D03*
Y1185000D02*
D03*
X4891864D02*
D03*
X4696864Y1250000D02*
D03*
D131*
X4794364D02*
D03*
D132*
X5094364Y1330000D02*
D03*
Y1170000D02*
D03*
D133*
X3979364Y3617500D02*
D03*
X4044364D02*
D03*
X4174364D02*
D03*
X4109364D02*
D03*
X3979364Y4057500D02*
D03*
X4044364D02*
D03*
X4109364D02*
D03*
X4174364D02*
D03*
D134*
X4989364Y4455000D02*
D03*
X4864364D02*
D03*
X1301864Y3165000D02*
D03*
X1426864D02*
D03*
Y2555000D02*
D03*
X1301864D02*
D03*
X4116864Y2327501D02*
D03*
X3991864D02*
D03*
X3994364Y2480000D02*
D03*
X4119364D02*
D03*
X4141864Y1777500D02*
D03*
X4016864D02*
D03*
X4141864Y1627500D02*
D03*
X4016864D02*
D03*
X4141864Y1477500D02*
D03*
X4016864D02*
D03*
X4141864Y1327500D02*
D03*
X4016864D02*
D03*
X1954364Y2565000D02*
D03*
X1829364D02*
D03*
X1954364Y2715000D02*
D03*
X1829364D02*
D03*
X3141864Y2677500D02*
D03*
X3016864D02*
D03*
X3141864Y2527500D02*
D03*
X3016864D02*
D03*
X3141864Y2227500D02*
D03*
X3016864D02*
D03*
X3141864Y2377500D02*
D03*
X3016864D02*
D03*
X4881865Y1740000D02*
D03*
X5006865D02*
D03*
X6781864Y3030000D02*
D03*
X6656864D02*
D03*
X4456865Y2200000D02*
D03*
X4581865D02*
D03*
X4881865Y2575000D02*
D03*
X5006865D02*
D03*
X4881865Y2125000D02*
D03*
X5006865D02*
D03*
X4881865Y2425000D02*
D03*
X5006865D02*
D03*
X4881865Y2275000D02*
D03*
X5006865D02*
D03*
X4581865Y3000000D02*
D03*
X4456865D02*
D03*
X7256864Y2910000D02*
D03*
X7381864D02*
D03*
D135*
X2526864Y3500000D02*
D03*
X2611864D02*
D03*
X7121864Y3300000D02*
D03*
X7036864D02*
D03*
X3036864Y2802501D02*
D03*
X3121864D02*
D03*
X6944364Y2070000D02*
D03*
X6859364D02*
D03*
Y1950000D02*
D03*
X6944364D02*
D03*
X4561864Y1975000D02*
D03*
X4476864D02*
D03*
X6676864Y2750000D02*
D03*
X6761865D02*
D03*
X4986865Y2700000D02*
D03*
X4901865D02*
D03*
X4561864Y1850000D02*
D03*
X4476864D02*
D03*
D136*
X4421864Y4074500D02*
D03*
X4551864D02*
D03*
X4616864D02*
D03*
X4486864D02*
D03*
X3286864Y4075001D02*
D03*
X3416864D02*
D03*
X3351864D02*
D03*
X3221864D02*
D03*
D137*
X4519364Y4218000D02*
D03*
X3319364Y4218501D02*
D03*
D138*
X1069364Y5447500D02*
D03*
Y3912500D02*
D03*
X6269364Y5447500D02*
D03*
Y3912500D02*
D03*
D139*
X2619364Y4054000D02*
D03*
X7709364Y4064000D02*
D03*
D140*
X2619364Y4366000D02*
D03*
X7709364Y4376000D02*
D03*
D141*
X3866864Y3638250D02*
D03*
Y3551750D02*
D03*
X6499364Y1536750D02*
D03*
Y1623250D02*
D03*
X5469364Y1531750D02*
D03*
Y1618250D02*
D03*
X5519364Y3318250D02*
D03*
Y3231750D02*
D03*
D142*
X2619364Y4810000D02*
D03*
Y5390000D02*
D03*
X7709364Y4820000D02*
D03*
Y5400000D02*
D03*
D143*
X2446864Y2122500D02*
D03*
Y2187500D02*
D03*
Y2317500D02*
D03*
Y2252500D02*
D03*
X2006864Y2122500D02*
D03*
Y2187500D02*
D03*
Y2252500D02*
D03*
Y2317500D02*
D03*
D144*
X1432864Y2832500D02*
D03*
Y2962500D02*
D03*
Y2897500D02*
D03*
Y2767500D02*
D03*
Y2192500D02*
D03*
Y2322500D02*
D03*
Y2257500D02*
D03*
Y2127500D02*
D03*
D145*
X1289364Y2865000D02*
D03*
Y2225000D02*
D03*
D146*
X1856864Y833500D02*
D03*
Y1190000D02*
D03*
D147*
X1750864Y833500D02*
D03*
Y1190000D02*
D03*
D148*
X1844364Y927000D02*
D03*
Y740000D02*
D03*
X1779364Y927000D02*
D03*
X1714364D02*
D03*
Y740000D02*
D03*
X1779364D02*
D03*
Y1096500D02*
D03*
X1714364D02*
D03*
Y1283500D02*
D03*
X1779364D02*
D03*
X1844364Y1096500D02*
D03*
Y1283500D02*
D03*
D149*
X3504364Y1962501D02*
D03*
X3454364D02*
D03*
X3554364D02*
D03*
D150*
X3644364Y2082500D02*
D03*
X3364364D02*
D03*
Y2032500D02*
D03*
X3644364D02*
D03*
D151*
X3638114Y2147500D02*
D03*
X3370614D02*
D03*
D152*
X3340244Y1982007D02*
D03*
X3340284Y2322701D02*
D03*
X3668013Y2322880D02*
D03*
X3665843Y1982048D02*
D03*
D153*
X3333814Y2209502D02*
D03*
X3672557Y2209925D02*
D03*
X3529634Y2374541D02*
D03*
X3479021Y2374793D02*
D03*
X3672280Y2260440D02*
D03*
X3335497Y2259961D02*
D03*
D154*
X3704364Y1402501D02*
D03*
X3204364D02*
D03*
X2194364Y3055000D02*
D03*
X2694364D02*
D03*
D155*
X3504364Y2562500D02*
D03*
Y2742500D02*
D03*
D156*
X3126864Y2050000D02*
D03*
D157*
X3021864D02*
D03*
D158*
X2999364Y1852500D02*
D03*
X3159364D02*
D03*
X2849364Y1477500D02*
D03*
X3009364D02*
D03*
X2849364Y1277500D02*
D03*
X3009364D02*
D03*
D159*
X5569364Y1900000D02*
D03*
X5619364D02*
D03*
X5669364D02*
D03*
X5719364D02*
D03*
X5769364D02*
D03*
X5819364D02*
D03*
X5869364D02*
D03*
X5919364D02*
D03*
X5969364D02*
D03*
X6019364D02*
D03*
X6069364D02*
D03*
X6119364D02*
D03*
X6169364D02*
D03*
X6219364D02*
D03*
X6269364D02*
D03*
X5519364D02*
D03*
X5569364Y3050000D02*
D03*
X5619364D02*
D03*
X5669364D02*
D03*
X5719364D02*
D03*
X5769364D02*
D03*
X5819364D02*
D03*
X5869364D02*
D03*
X5919364D02*
D03*
X5969364D02*
D03*
X6019364D02*
D03*
X6069364D02*
D03*
X6119364D02*
D03*
X6169364D02*
D03*
X6219364D02*
D03*
X6269364D02*
D03*
X5519364D02*
D03*
D160*
X5319364Y2850000D02*
D03*
X5319365Y2100000D02*
D03*
Y2150000D02*
D03*
Y2200000D02*
D03*
Y2250000D02*
D03*
Y2300000D02*
D03*
Y2350000D02*
D03*
Y2400000D02*
D03*
Y2450000D02*
D03*
Y2500000D02*
D03*
Y2550000D02*
D03*
Y2600000D02*
D03*
Y2650000D02*
D03*
Y2700000D02*
D03*
Y2750000D02*
D03*
Y2800000D02*
D03*
X6469365D02*
D03*
Y2750000D02*
D03*
Y2700000D02*
D03*
Y2650000D02*
D03*
Y2600000D02*
D03*
Y2550000D02*
D03*
Y2500000D02*
D03*
Y2450000D02*
D03*
Y2400000D02*
D03*
Y2350000D02*
D03*
Y2300000D02*
D03*
Y2250000D02*
D03*
Y2200000D02*
D03*
Y2150000D02*
D03*
Y2100000D02*
D03*
Y2850000D02*
D03*
D161*
X4992614Y2990000D02*
D03*
X4906114D02*
D03*
X6762615Y2880000D02*
D03*
X6676114D02*
D03*
X4901115Y1870000D02*
D03*
X4987615D02*
D03*
X4901115Y2000000D02*
D03*
X4987615D02*
D03*
D162*
X4404365Y2410000D02*
D03*
Y2790000D02*
D03*
X4634365Y2410000D02*
D03*
X4630864Y2790000D02*
D03*
D163*
X2124364Y1000000D02*
D03*
X2379364D02*
D03*
D164*
X2346864Y1690000D02*
D03*
X2156864D02*
D03*
Y1910000D02*
D03*
X2251864D02*
D03*
X2346864D02*
D03*
D165*
X7656576Y2221000D02*
D03*
Y2348000D02*
D03*
Y2475000D02*
D03*
Y2602000D02*
D03*
Y2729000D02*
D03*
X7268576Y2221000D02*
D03*
Y2348000D02*
D03*
Y2475000D02*
D03*
Y2602000D02*
D03*
Y2729000D02*
D03*
%TF.MD5,da46e1d92cabf5c0a29c8aa2baa024be*%
M02*
