%TF.GenerationSoftware,Altium Limited,Altium Designer,21.6.1 (37)*%
G04 Layer_Color=128*
%FSLAX45Y45*%
%MOMM*%
%TF.SameCoordinates,308497C2-864B-4A42-B135-7B231B7309CE*%
%TF.FilePolarity,Positive*%
%TF.FileFunction,Drillmap*%
%TF.Part,Single*%
G01*
G75*
%TA.AperFunction,NonConductor*%
%ADD175C,0.12700*%
D175*
X3566000Y271000D02*
X3676000D01*
X3621000Y216000D02*
Y326000D01*
X3820000Y271000D02*
X3930000D01*
X3875000Y216000D02*
Y326000D01*
X4074000Y271000D02*
X4184000D01*
X4129000Y216000D02*
Y326000D01*
X4328000Y271000D02*
X4438000D01*
X4383000Y216000D02*
Y326000D01*
X4582000Y271000D02*
X4692000D01*
X4637000Y216000D02*
Y326000D01*
X4836000Y271000D02*
X4946000D01*
X4891000Y216000D02*
Y326000D01*
X5090000Y271000D02*
X5200000D01*
X5145000Y216000D02*
Y326000D01*
X5344000Y271000D02*
X5454000D01*
X5399000Y216000D02*
Y326000D01*
X5598000Y271000D02*
X5708000D01*
X5653000Y216000D02*
Y326000D01*
X6360000Y525000D02*
X6470000D01*
X6415000Y470000D02*
Y580000D01*
X6106000Y271000D02*
X6216000D01*
X6161000Y216000D02*
Y326000D01*
X5852000Y271000D02*
X5962000D01*
X5907000Y216000D02*
Y326000D01*
X6106000Y525000D02*
X6216000D01*
X6161000Y470000D02*
Y580000D01*
X3566000Y525000D02*
X3676000D01*
X3621000Y470000D02*
Y580000D01*
X3820000Y525000D02*
X3930000D01*
X3875000Y470000D02*
Y580000D01*
X4074000Y525000D02*
X4184000D01*
X4129000Y470000D02*
Y580000D01*
X4328000Y525000D02*
X4438000D01*
X4383000Y470000D02*
Y580000D01*
X4582000Y525000D02*
X4692000D01*
X4637000Y470000D02*
Y580000D01*
X4836000Y525000D02*
X4946000D01*
X4891000Y470000D02*
Y580000D01*
X5090000Y525000D02*
X5200000D01*
X5145000Y470000D02*
Y580000D01*
X5344000Y525000D02*
X5454000D01*
X5399000Y470000D02*
Y580000D01*
X5598000Y525000D02*
X5708000D01*
X5653000Y470000D02*
Y580000D01*
X5852000Y525000D02*
X5962000D01*
X5907000Y470000D02*
Y580000D01*
X6360000Y271000D02*
X6470000D01*
X6415000Y216000D02*
Y326000D01*
X1534000Y271000D02*
X1644000D01*
X1589000Y216000D02*
Y326000D01*
X1788000Y271000D02*
X1898000D01*
X1843000Y216000D02*
Y326000D01*
X2042000Y271000D02*
X2152000D01*
X2097000Y216000D02*
Y326000D01*
X2550000Y271000D02*
X2660000D01*
X2605000Y216000D02*
Y326000D01*
X2804000Y271000D02*
X2914000D01*
X2859000Y216000D02*
Y326000D01*
X3058000Y271000D02*
X3168000D01*
X3113000Y216000D02*
Y326000D01*
X3312000Y271000D02*
X3422000D01*
X3367000Y216000D02*
Y326000D01*
X3058000Y525000D02*
X3168000D01*
X3113000Y470000D02*
Y580000D01*
X3312000Y525000D02*
X3422000D01*
X3367000Y470000D02*
Y580000D01*
X2804000Y525000D02*
X2914000D01*
X2859000Y470000D02*
Y580000D01*
X2296000Y271000D02*
X2406000D01*
X2351000Y216000D02*
Y326000D01*
X1788000Y525000D02*
X1898000D01*
X1843000Y470000D02*
Y580000D01*
X2042000Y525000D02*
X2152000D01*
X2097000Y470000D02*
Y580000D01*
X2296000Y525000D02*
X2406000D01*
X2351000Y470000D02*
Y580000D01*
X2550000Y525000D02*
X2660000D01*
X2605000Y470000D02*
Y580000D01*
X1534000Y525000D02*
X1644000D01*
X1589000Y470000D02*
Y580000D01*
X6039364Y6090000D02*
X6219364D01*
X6129364Y6000000D02*
Y6180000D01*
X5539364Y6090000D02*
X5719364D01*
X5629364Y6000000D02*
Y6180000D01*
X5279364Y7090000D02*
X5379364D01*
X5329364Y7040000D02*
Y7140000D01*
X6379364Y7090000D02*
X6479364D01*
X6429364Y7040000D02*
Y7140000D01*
X3945000Y825500D02*
X4055000D01*
X4000000Y770500D02*
Y880500D01*
X3945000Y1079500D02*
X4055000D01*
X4000000Y1024500D02*
Y1134500D01*
X7415076Y2665500D02*
X7510076D01*
X7462576Y2618000D02*
Y2713000D01*
X7415076Y2284500D02*
X7510076D01*
X7462576Y2237000D02*
Y2332000D01*
X6087500Y1400000D02*
X6117500D01*
X6102500Y1385000D02*
Y1415000D01*
X5939364Y1400000D02*
X5969364D01*
X5954364Y1385000D02*
Y1415000D01*
X6600829Y2523535D02*
X6630829D01*
X6615829Y2508535D02*
Y2538535D01*
X6277500Y2802500D02*
X6307500D01*
X6292500Y2787500D02*
Y2817500D01*
X6197500Y2802500D02*
X6227500D01*
X6212500Y2787500D02*
Y2817500D01*
X6275000Y2880000D02*
X6305000D01*
X6290000Y2865000D02*
Y2895000D01*
X6195000Y2880000D02*
X6225000D01*
X6210000Y2865000D02*
Y2895000D01*
X6485000Y2960000D02*
X6515000D01*
X6500000Y2945000D02*
Y2975000D01*
X6415000Y2960000D02*
X6445000D01*
X6430000Y2945000D02*
Y2975000D01*
X5935000Y2900000D02*
X5965000D01*
X5950000Y2885000D02*
Y2915000D01*
X5805000Y2860000D02*
X5835000D01*
X5820000Y2845000D02*
Y2875000D01*
X5107639Y2293294D02*
X5137638D01*
X5122638Y2278294D02*
Y2308294D01*
X2455000Y5870000D02*
X2485000D01*
X2470000Y5855000D02*
Y5885000D01*
X3295000Y5100000D02*
X3325000D01*
X3310000Y5085000D02*
Y5115000D01*
X3225000Y5100000D02*
X3255000D01*
X3240000Y5085000D02*
Y5115000D01*
X5015000Y3940000D02*
X5045000D01*
X5030000Y3925000D02*
Y3955000D01*
X4335000Y760000D02*
X4365000D01*
X4350000Y745000D02*
Y775000D01*
X4335000Y820000D02*
X4365000D01*
X4350000Y805000D02*
Y835000D01*
X4335000Y880000D02*
X4365000D01*
X4350000Y865000D02*
Y895000D01*
X1791803Y1919016D02*
X1821803D01*
X1806803Y1904016D02*
Y1934016D01*
X4005000Y2060000D02*
X4035000D01*
X4020000Y2045000D02*
Y2075000D01*
X3725000Y2240000D02*
X3755000D01*
X3740000Y2225000D02*
Y2255000D01*
X3795000Y2240000D02*
X3825000D01*
X3810000Y2225000D02*
Y2255000D01*
X3785638Y6648491D02*
X3815638D01*
X3800638Y6633491D02*
Y6663491D01*
X3865000Y6649364D02*
X3895000D01*
X3880000Y6634364D02*
Y6664364D01*
X3865000Y6720000D02*
X3895000D01*
X3880000Y6705000D02*
Y6735000D01*
X3785638Y6719127D02*
X3815638D01*
X3800638Y6704127D02*
Y6734127D01*
X3864363Y6790873D02*
X3894363D01*
X3879363Y6775873D02*
Y6805873D01*
X3785000Y6790000D02*
X3815000D01*
X3800000Y6775000D02*
Y6805000D01*
X3785000Y6860000D02*
X3815000D01*
X3800000Y6845000D02*
Y6875000D01*
X3864363Y6860873D02*
X3894363D01*
X3879363Y6845873D02*
Y6875873D01*
X3864363Y6930873D02*
X3894363D01*
X3879363Y6915873D02*
Y6945873D01*
X3785000Y6930000D02*
X3815000D01*
X3800000Y6915000D02*
Y6945000D01*
X3575638Y6648491D02*
X3605637D01*
X3590637Y6633491D02*
Y6663491D01*
X3655000Y6649364D02*
X3685000D01*
X3670000Y6634364D02*
Y6664364D01*
X3655000Y6720000D02*
X3685000D01*
X3670000Y6705000D02*
Y6735000D01*
X3575638Y6719127D02*
X3605637D01*
X3590637Y6704127D02*
Y6734127D01*
X3654363Y6790873D02*
X3684362D01*
X3669362Y6775873D02*
Y6805873D01*
X3575000Y6790000D02*
X3605000D01*
X3590000Y6775000D02*
Y6805000D01*
X3575000Y6860000D02*
X3605000D01*
X3590000Y6845000D02*
Y6875000D01*
X3654363Y6860873D02*
X3684362D01*
X3669362Y6845873D02*
Y6875873D01*
X3654363Y6930873D02*
X3684362D01*
X3669362Y6915873D02*
Y6945873D01*
X3575000Y6930000D02*
X3605000D01*
X3590000Y6915000D02*
Y6945000D01*
X565000Y1479364D02*
X595000D01*
X580000Y1464364D02*
Y1494364D01*
X415638Y1478491D02*
X445638D01*
X430638Y1463491D02*
Y1493491D01*
X495000Y1479364D02*
X525000D01*
X510000Y1464364D02*
Y1494364D01*
X495000Y1550000D02*
X525000D01*
X510000Y1535000D02*
Y1565000D01*
X565000Y1550000D02*
X595000D01*
X580000Y1535000D02*
Y1565000D01*
X415638Y1549127D02*
X445638D01*
X430638Y1534127D02*
Y1564127D01*
X494363Y1620873D02*
X524363D01*
X509363Y1605873D02*
Y1635873D01*
X415000Y1620000D02*
X445000D01*
X430000Y1605000D02*
Y1635000D01*
X564363Y1620873D02*
X594363D01*
X579363Y1605873D02*
Y1635873D01*
X564363Y1690873D02*
X594363D01*
X579363Y1675873D02*
Y1705873D01*
X415000Y1690000D02*
X445000D01*
X430000Y1675000D02*
Y1705000D01*
X494363Y1690873D02*
X524363D01*
X509363Y1675873D02*
Y1705873D01*
X494363Y1760873D02*
X524363D01*
X509363Y1745873D02*
Y1775873D01*
X564363Y1760873D02*
X594363D01*
X579363Y1745873D02*
Y1775873D01*
X415000Y1760000D02*
X445000D01*
X430000Y1745000D02*
Y1775000D01*
X564363Y1840873D02*
X594363D01*
X579363Y1825873D02*
Y1855873D01*
X494363Y1840873D02*
X524363D01*
X509363Y1825873D02*
Y1855873D01*
X415000Y1840000D02*
X445000D01*
X430000Y1825000D02*
Y1855000D01*
X415638Y1919127D02*
X445638D01*
X430638Y1904127D02*
Y1934127D01*
X495000Y1920000D02*
X525000D01*
X510000Y1905000D02*
Y1935000D01*
X565000Y1920000D02*
X595000D01*
X580000Y1905000D02*
Y1935000D01*
X275000Y1479364D02*
X305000D01*
X290000Y1464364D02*
Y1494364D01*
X125638Y1478491D02*
X155637D01*
X140638Y1463491D02*
Y1493491D01*
X205000Y1479364D02*
X235000D01*
X220000Y1464364D02*
Y1494364D01*
X205000Y1550000D02*
X235000D01*
X220000Y1535000D02*
Y1565000D01*
X275000Y1550000D02*
X305000D01*
X290000Y1535000D02*
Y1565000D01*
X125638Y1549127D02*
X155637D01*
X140638Y1534127D02*
Y1564127D01*
X204363Y1620873D02*
X234362D01*
X219363Y1605873D02*
Y1635873D01*
X125000Y1620000D02*
X155000D01*
X140000Y1605000D02*
Y1635000D01*
X274362Y1620873D02*
X304362D01*
X289362Y1605873D02*
Y1635873D01*
X274362Y1690873D02*
X304362D01*
X289362Y1675873D02*
Y1705873D01*
X125000Y1690000D02*
X155000D01*
X140000Y1675000D02*
Y1705000D01*
X204363Y1690873D02*
X234362D01*
X219363Y1675873D02*
Y1705873D01*
X204363Y1760873D02*
X234362D01*
X219363Y1745873D02*
Y1775873D01*
X274362Y1760873D02*
X304362D01*
X289362Y1745873D02*
Y1775873D01*
X125000Y1760000D02*
X155000D01*
X140000Y1745000D02*
Y1775000D01*
X274362Y1840873D02*
X304362D01*
X289362Y1825873D02*
Y1855873D01*
X204363Y1840873D02*
X234362D01*
X219363Y1825873D02*
Y1855873D01*
X125000Y1840000D02*
X155000D01*
X140000Y1825000D02*
Y1855000D01*
X125638Y1919127D02*
X155637D01*
X140638Y1904127D02*
Y1934127D01*
X205000Y1920000D02*
X235000D01*
X220000Y1905000D02*
Y1935000D01*
X275000Y1920000D02*
X305000D01*
X290000Y1905000D02*
Y1935000D01*
X6035000Y3170000D02*
X6065000D01*
X6050000Y3155000D02*
Y3185000D01*
X5805000Y3220000D02*
X5835000D01*
X5820000Y3205000D02*
Y3235000D01*
X5882538Y3235673D02*
X5912538D01*
X5897538Y3220673D02*
Y3250673D01*
X3835000Y4369364D02*
X3865000D01*
X3850000Y4354364D02*
Y4384364D01*
X3685638Y4368491D02*
X3715637D01*
X3700638Y4353491D02*
Y4383491D01*
X3765000Y4369364D02*
X3795000D01*
X3780000Y4354364D02*
Y4384364D01*
X3765000Y4440000D02*
X3795000D01*
X3780000Y4425000D02*
Y4455000D01*
X3835000Y4440000D02*
X3865000D01*
X3850000Y4425000D02*
Y4455000D01*
X3685638Y4439127D02*
X3715637D01*
X3700638Y4424127D02*
Y4454127D01*
X3764363Y4510873D02*
X3794362D01*
X3779363Y4495873D02*
Y4525873D01*
X3685000Y4510000D02*
X3715000D01*
X3700000Y4495000D02*
Y4525000D01*
X3834362Y4510873D02*
X3864362D01*
X3849362Y4495873D02*
Y4525873D01*
X3834362Y4580873D02*
X3864362D01*
X3849362Y4565873D02*
Y4595873D01*
X3685000Y4580000D02*
X3715000D01*
X3700000Y4565000D02*
Y4595000D01*
X3764363Y4580873D02*
X3794362D01*
X3779363Y4565873D02*
Y4595873D01*
X3764363Y4650873D02*
X3794362D01*
X3779363Y4635873D02*
Y4665873D01*
X3834362Y4650873D02*
X3864362D01*
X3849362Y4635873D02*
Y4665873D01*
X3685000Y4650000D02*
X3715000D01*
X3700000Y4635000D02*
Y4665000D01*
X3834362Y4730873D02*
X3864362D01*
X3849362Y4715873D02*
Y4745873D01*
X3764363Y4730873D02*
X3794362D01*
X3779363Y4715873D02*
Y4745873D01*
X3685000Y4730000D02*
X3715000D01*
X3700000Y4715000D02*
Y4745000D01*
X3685638Y4809127D02*
X3715637D01*
X3700638Y4794127D02*
Y4824127D01*
X3765000Y4810000D02*
X3795000D01*
X3780000Y4795000D02*
Y4825000D01*
X3835000Y4810000D02*
X3865000D01*
X3850000Y4795000D02*
Y4825000D01*
X4235637Y4368491D02*
X4265637D01*
X4250637Y4353491D02*
Y4383491D01*
X4086275Y4367618D02*
X4116275D01*
X4101275Y4352618D02*
Y4382618D01*
X4165638Y4368491D02*
X4195638D01*
X4180638Y4353491D02*
Y4383491D01*
X4165638Y4439127D02*
X4195638D01*
X4180638Y4424127D02*
Y4454127D01*
X4235637Y4439127D02*
X4265637D01*
X4250637Y4424127D02*
Y4454127D01*
X4086275Y4438254D02*
X4116275D01*
X4101275Y4423254D02*
Y4453254D01*
X4165000Y4510000D02*
X4195000D01*
X4180000Y4495000D02*
Y4525000D01*
X4085637Y4509127D02*
X4115637D01*
X4100637Y4494127D02*
Y4524127D01*
X4235000Y4510000D02*
X4265000D01*
X4250000Y4495000D02*
Y4525000D01*
X4235000Y4580000D02*
X4265000D01*
X4250000Y4565000D02*
Y4595000D01*
X4085637Y4579127D02*
X4115637D01*
X4100637Y4564127D02*
Y4594127D01*
X4165000Y4580000D02*
X4195000D01*
X4180000Y4565000D02*
Y4595000D01*
X4165000Y4650000D02*
X4195000D01*
X4180000Y4635000D02*
Y4665000D01*
X4235000Y4650000D02*
X4265000D01*
X4250000Y4635000D02*
Y4665000D01*
X4085637Y4649127D02*
X4115637D01*
X4100637Y4634127D02*
Y4664127D01*
X4235000Y4730000D02*
X4265000D01*
X4250000Y4715000D02*
Y4745000D01*
X4165000Y4730000D02*
X4195000D01*
X4180000Y4715000D02*
Y4745000D01*
X4085637Y4729127D02*
X4115637D01*
X4100637Y4714127D02*
Y4744127D01*
X4086275Y4808254D02*
X4116275D01*
X4101275Y4793254D02*
Y4823254D01*
X4165638Y4809127D02*
X4195638D01*
X4180638Y4794127D02*
Y4824127D01*
X4235637Y4809127D02*
X4265637D01*
X4250637Y4794127D02*
Y4824127D01*
X4385237Y3800638D02*
X4415237D01*
X4400237Y3785638D02*
Y3815638D01*
X4384364Y3950000D02*
X4414364D01*
X4399364Y3935000D02*
Y3965000D01*
X4385237Y3870637D02*
X4415237D01*
X4400237Y3855637D02*
Y3885637D01*
X4455873Y3870637D02*
X4485873D01*
X4470873Y3855637D02*
Y3885637D01*
X4455873Y3800638D02*
X4485873D01*
X4470873Y3785638D02*
Y3815638D01*
X4455000Y3950000D02*
X4485000D01*
X4470000Y3935000D02*
Y3965000D01*
X4526746Y3871275D02*
X4556746D01*
X4541746Y3856275D02*
Y3886275D01*
X4525873Y3950638D02*
X4555873D01*
X4540873Y3935638D02*
Y3965637D01*
X4526746Y3801275D02*
X4556746D01*
X4541746Y3786275D02*
Y3816275D01*
X4596746Y3801275D02*
X4626746D01*
X4611746Y3786275D02*
Y3816275D01*
X4595873Y3950638D02*
X4625873D01*
X4610873Y3935638D02*
Y3965637D01*
X4596746Y3871275D02*
X4626746D01*
X4611746Y3856275D02*
Y3886275D01*
X4666746Y3871275D02*
X4696746D01*
X4681746Y3856275D02*
Y3886275D01*
X4666746Y3801275D02*
X4696746D01*
X4681746Y3786275D02*
Y3816275D01*
X4665873Y3950638D02*
X4695873D01*
X4680873Y3935638D02*
Y3965637D01*
X4746746Y3801275D02*
X4776746D01*
X4761746Y3786275D02*
Y3816275D01*
X4746746Y3871275D02*
X4776746D01*
X4761746Y3856275D02*
Y3886275D01*
X4745873Y3950638D02*
X4775873D01*
X4760873Y3935638D02*
Y3965637D01*
X4825000Y3950000D02*
X4855000D01*
X4840000Y3935000D02*
Y3965000D01*
X4825873Y3870637D02*
X4855873D01*
X4840873Y3855637D02*
Y3885637D01*
X4825873Y3800638D02*
X4855873D01*
X4840873Y3785638D02*
Y3815638D01*
X3635000Y3800000D02*
X3665000D01*
X3650000Y3785000D02*
Y3815000D01*
X3635000Y3870000D02*
X3665000D01*
X3650000Y3855000D02*
Y3885000D01*
X3634127Y3949362D02*
X3664127D01*
X3649127Y3934362D02*
Y3964362D01*
X3555000Y3950000D02*
X3585000D01*
X3570000Y3935000D02*
Y3965000D01*
X3555873Y3870637D02*
X3585873D01*
X3570873Y3855637D02*
Y3885637D01*
X3555873Y3800638D02*
X3585873D01*
X3570873Y3785638D02*
Y3815638D01*
X3475000Y3950000D02*
X3505000D01*
X3490000Y3935000D02*
Y3965000D01*
X3475873Y3800638D02*
X3505873D01*
X3490873Y3785638D02*
Y3815638D01*
X3475873Y3870637D02*
X3505873D01*
X3490873Y3855637D02*
Y3885637D01*
X3405873Y3870637D02*
X3435873D01*
X3420873Y3855637D02*
Y3885637D01*
X3405000Y3950000D02*
X3435000D01*
X3420000Y3935000D02*
Y3965000D01*
X3405873Y3800638D02*
X3435873D01*
X3420873Y3785638D02*
Y3815638D01*
X3335873Y3800638D02*
X3365873D01*
X3350873Y3785638D02*
Y3815638D01*
X3335000Y3950000D02*
X3365000D01*
X3350000Y3935000D02*
Y3965000D01*
X3335873Y3870637D02*
X3365873D01*
X3350873Y3855637D02*
Y3885637D01*
X3264127Y3949362D02*
X3294127D01*
X3279127Y3934362D02*
Y3964362D01*
X3265000Y3800000D02*
X3295000D01*
X3280000Y3785000D02*
Y3815000D01*
X3265000Y3870000D02*
X3295000D01*
X3280000Y3855000D02*
Y3885000D01*
X7885000Y6900000D02*
X7915000D01*
X7900000Y6885000D02*
Y6915000D01*
X7885000Y7100000D02*
X7915000D01*
X7900000Y7085000D02*
Y7115000D01*
X7685000Y7000000D02*
X7715000D01*
X7700000Y6985000D02*
Y7015000D01*
X7685000Y7200000D02*
X7715000D01*
X7700000Y7185000D02*
Y7215000D01*
X7485000Y7100000D02*
X7515000D01*
X7500000Y7085000D02*
Y7115000D01*
X7185000Y200000D02*
X7215000D01*
X7200000Y185000D02*
Y215000D01*
X6785000Y200000D02*
X6815000D01*
X6800000Y185000D02*
Y215000D01*
X6585000Y400000D02*
X6615000D01*
X6600000Y385000D02*
Y415000D01*
X6985000Y400000D02*
X7015000D01*
X7000000Y385000D02*
Y415000D01*
X7185000Y600000D02*
X7215000D01*
X7200000Y585000D02*
Y615000D01*
X6785000Y600000D02*
X6815000D01*
X6800000Y585000D02*
Y615000D01*
X7285000Y7400000D02*
X7315000D01*
X7300000Y7385000D02*
Y7415000D01*
X7485000Y7300000D02*
X7515000D01*
X7500000Y7285000D02*
Y7315000D01*
X7285000Y7200000D02*
X7315000D01*
X7300000Y7185000D02*
Y7215000D01*
X6485000Y6000000D02*
X6515000D01*
X6500000Y5985000D02*
Y6015000D01*
X6785000Y6000000D02*
X6815000D01*
X6800000Y5985000D02*
Y6015000D01*
X7085000Y6000000D02*
X7115000D01*
X7100000Y5985000D02*
Y6015000D01*
X7385000Y6000000D02*
X7415000D01*
X7400000Y5985000D02*
Y6015000D01*
X7485000Y6200000D02*
X7515000D01*
X7500000Y6185000D02*
Y6215000D01*
X7185000Y6200000D02*
X7215000D01*
X7200000Y6185000D02*
Y6215000D01*
X6885000Y6200000D02*
X6915000D01*
X6900000Y6185000D02*
Y6215000D01*
X6585000Y6200000D02*
X6615000D01*
X6600000Y6185000D02*
Y6215000D01*
X6385000Y6400000D02*
X6415000D01*
X6400000Y6385000D02*
Y6415000D01*
X6685000Y6400000D02*
X6715000D01*
X6700000Y6385000D02*
Y6415000D01*
X6985000Y6400000D02*
X7015000D01*
X7000000Y6385000D02*
Y6415000D01*
X7285000Y6400000D02*
X7315000D01*
X7300000Y6385000D02*
Y6415000D01*
X7085000Y6600000D02*
X7115000D01*
X7100000Y6585000D02*
Y6615000D01*
X6885000Y6800000D02*
X6915000D01*
X6900000Y6785000D02*
Y6815000D01*
X6785000Y6600000D02*
X6815000D01*
X6800000Y6585000D02*
Y6615000D01*
X6485000Y6600000D02*
X6515000D01*
X6500000Y6585000D02*
Y6615000D01*
X6585000Y6800000D02*
X6615000D01*
X6600000Y6785000D02*
Y6815000D01*
X7585000Y1900000D02*
X7615000D01*
X7600000Y1885000D02*
Y1915000D01*
X4885000Y800000D02*
X4915000D01*
X4900000Y785000D02*
Y815000D01*
X5085000Y900000D02*
X5115000D01*
X5100000Y885000D02*
Y915000D01*
X5285000Y800000D02*
X5315000D01*
X5300000Y785000D02*
Y815000D01*
X5485000Y900000D02*
X5515000D01*
X5500000Y885000D02*
Y915000D01*
X7285000Y3300000D02*
X7315000D01*
X7300000Y3285000D02*
Y3315000D01*
X7785000Y2900000D02*
X7815000D01*
X7800000Y2885000D02*
Y2915000D01*
X7485000Y2900000D02*
X7515000D01*
X7500000Y2885000D02*
Y2915000D01*
X7885000Y3100000D02*
X7915000D01*
X7900000Y3085000D02*
Y3115000D01*
X7585000Y3100000D02*
X7615000D01*
X7600000Y3085000D02*
Y3115000D01*
X7785000Y3300000D02*
X7815000D01*
X7800000Y3285000D02*
Y3315000D01*
X7485000Y3300000D02*
X7515000D01*
X7500000Y3285000D02*
Y3315000D01*
X7185000Y2100000D02*
X7215000D01*
X7200000Y2085000D02*
Y2115000D01*
X7785000Y1900000D02*
X7815000D01*
X7800000Y1885000D02*
Y1915000D01*
X7585000Y2100000D02*
X7615000D01*
X7600000Y2085000D02*
Y2115000D01*
X7385000Y1900000D02*
X7415000D01*
X7400000Y1885000D02*
Y1915000D01*
X7185000Y1700000D02*
X7215000D01*
X7200000Y1685000D02*
Y1715000D01*
X6885000Y1500000D02*
X6915000D01*
X6900000Y1485000D02*
Y1515000D01*
X6585000Y1200000D02*
X6615000D01*
X6600000Y1185000D02*
Y1215000D01*
X7385000Y800000D02*
X7415000D01*
X7400000Y785000D02*
Y815000D01*
X7185000Y1000000D02*
X7215000D01*
X7200000Y985000D02*
Y1015000D01*
X6985000Y800000D02*
X7015000D01*
X7000000Y785000D02*
Y815000D01*
X6785000Y1000000D02*
X6815000D01*
X6800000Y985000D02*
Y1015000D01*
X6585000Y800000D02*
X6615000D01*
X6600000Y785000D02*
Y815000D01*
X6385000Y1000000D02*
X6415000D01*
X6400000Y985000D02*
Y1015000D01*
X6185000Y800000D02*
X6215000D01*
X6200000Y785000D02*
Y815000D01*
X3635000Y3540000D02*
X3665000D01*
X3650000Y3525000D02*
Y3555000D01*
X3715000Y3540000D02*
X3745000D01*
X3730000Y3525000D02*
Y3555000D01*
X4944364Y3940000D02*
X4974364D01*
X4959364Y3925000D02*
Y3955000D01*
X3635000Y3467500D02*
X3665000D01*
X3650000Y3452500D02*
Y3482500D01*
X3715000Y3467500D02*
X3745000D01*
X3730000Y3452500D02*
Y3482500D01*
X6935000Y3020000D02*
X6965000D01*
X6950000Y3005000D02*
Y3035000D01*
X6935000Y2945000D02*
X6965000D01*
X6950000Y2930000D02*
Y2960000D01*
X6935000Y2872500D02*
X6965000D01*
X6950000Y2857500D02*
Y2887500D01*
X1940000Y5885000D02*
X1970000D01*
X1955000Y5870000D02*
Y5900000D01*
X2007500Y5885000D02*
X2037500D01*
X2022500Y5870000D02*
Y5900000D01*
X1859178Y1919265D02*
X1889178D01*
X1874178Y1904265D02*
Y1934265D01*
X4414364Y1460000D02*
X4444364D01*
X4429364Y1445000D02*
Y1475000D01*
X4414364Y1530000D02*
X4444364D01*
X4429364Y1515000D02*
Y1545000D01*
X4504364Y1530000D02*
X4534364D01*
X4519364Y1515000D02*
Y1545000D01*
X6229364Y1400000D02*
X6259364D01*
X6244364Y1385000D02*
Y1415000D01*
X6595000Y2300000D02*
X6625000D01*
X6610000Y2285000D02*
Y2315000D01*
X7822500Y2225000D02*
X7852500D01*
X7837500Y2210000D02*
Y2240000D01*
X7830000Y2475000D02*
X7860000D01*
X7845000Y2460000D02*
Y2490000D01*
X7832500Y2602500D02*
X7862500D01*
X7847500Y2587500D02*
Y2617500D01*
X7830000Y2730000D02*
X7860000D01*
X7845000Y2715000D02*
Y2745000D01*
X7245000Y3030000D02*
X7275000D01*
X7260000Y3015000D02*
Y3045000D01*
X7170000Y3032500D02*
X7200000D01*
X7185000Y3017500D02*
Y3047500D01*
X7242500Y3110000D02*
X7272500D01*
X7257500Y3095000D02*
Y3125000D01*
X7170000Y3110000D02*
X7200000D01*
X7185000Y3095000D02*
Y3125000D01*
X5107649Y2133285D02*
X5137649D01*
X5122649Y2118285D02*
Y2148285D01*
X5627500Y2427500D02*
X5657500D01*
X5642500Y2412500D02*
Y2442500D01*
X3325284Y2689716D02*
X3355284D01*
X3340284Y2674716D02*
Y2704716D01*
X5445636Y1302500D02*
X5475635D01*
X5460636Y1287500D02*
Y1317500D01*
X5375000Y1302500D02*
X5405000D01*
X5390000Y1287500D02*
Y1317500D01*
X4504364Y1460000D02*
X4534364D01*
X4519364Y1445000D02*
Y1475000D01*
X5829364Y1042500D02*
X5859364D01*
X5844364Y1027500D02*
Y1057500D01*
X5611865Y1400000D02*
X5641865D01*
X5626865Y1385000D02*
Y1415000D01*
X2586864Y1907500D02*
X2616864D01*
X2601864Y1892500D02*
Y1922500D01*
X3224364Y2650000D02*
X3254364D01*
X3239364Y2635000D02*
Y2665000D01*
X4324364Y1460000D02*
X4354364D01*
X4339364Y1445000D02*
Y1475000D01*
X6340000Y3232500D02*
X6370000D01*
X6355000Y3217500D02*
Y3247500D01*
X4979364Y3077500D02*
X5009364D01*
X4994364Y3062500D02*
Y3092500D01*
X6604364Y2600000D02*
X6634364D01*
X6619364Y2585000D02*
Y2615000D01*
X5110000Y4455000D02*
X5140000D01*
X5125000Y4440000D02*
Y4470000D01*
X6165000Y3280000D02*
X6195000D01*
X6180000Y3265000D02*
Y3295000D01*
X7421865Y4720000D02*
X7451864D01*
X7436864Y4705000D02*
Y4735000D01*
X7421865Y4420000D02*
X7451864D01*
X7436864Y4405000D02*
Y4435000D01*
X7351864Y4420000D02*
X7381864D01*
X7366864Y4405000D02*
Y4435000D01*
X7351864Y4620000D02*
X7381864D01*
X7366864Y4605000D02*
Y4635000D01*
X7421865Y4320000D02*
X7451864D01*
X7436864Y4305000D02*
Y4335000D01*
X7421865Y4520000D02*
X7451864D01*
X7436864Y4505000D02*
Y4535000D01*
X7496864Y4220000D02*
X7526864D01*
X7511864Y4205000D02*
Y4235000D01*
X7351864Y4820000D02*
X7381864D01*
X7366864Y4805000D02*
Y4835000D01*
X7421865Y4220000D02*
X7451864D01*
X7436864Y4205000D02*
Y4235000D01*
X7199364Y4720000D02*
X7229364D01*
X7214364Y4705000D02*
Y4735000D01*
X7274364Y4520000D02*
X7304364D01*
X7289364Y4505000D02*
Y4535000D01*
X7421865Y4620000D02*
X7451864D01*
X7436864Y4605000D02*
Y4635000D01*
X7421865Y4920000D02*
X7451864D01*
X7436864Y4905000D02*
Y4935000D01*
X7199364Y4820000D02*
X7229364D01*
X7214364Y4805000D02*
Y4835000D01*
X7351864Y4720000D02*
X7381864D01*
X7366864Y4705000D02*
Y4735000D01*
X7496864Y4920000D02*
X7526864D01*
X7511864Y4905000D02*
Y4935000D01*
X7274364Y4820000D02*
X7304364D01*
X7289364Y4805000D02*
Y4835000D01*
X7199364Y4920000D02*
X7229364D01*
X7214364Y4905000D02*
Y4935000D01*
X7274364Y4220000D02*
X7304364D01*
X7289364Y4205000D02*
Y4235000D01*
X7421865Y4820000D02*
X7451864D01*
X7436864Y4805000D02*
Y4835000D01*
X7274364Y4420000D02*
X7304364D01*
X7289364Y4405000D02*
Y4435000D01*
X7274364Y4620000D02*
X7304364D01*
X7289364Y4605000D02*
Y4635000D01*
X7496864Y4820000D02*
X7526864D01*
X7511864Y4805000D02*
Y4835000D01*
X7351864Y4220000D02*
X7381864D01*
X7366864Y4205000D02*
Y4235000D01*
X7199364Y4220000D02*
X7229364D01*
X7214364Y4205000D02*
Y4235000D01*
X7199364Y4520000D02*
X7229364D01*
X7214364Y4505000D02*
Y4535000D01*
X7199364Y4420000D02*
X7229364D01*
X7214364Y4405000D02*
Y4435000D01*
X7274364Y4720000D02*
X7304364D01*
X7289364Y4705000D02*
Y4735000D01*
X7496864Y4720000D02*
X7526864D01*
X7511864Y4705000D02*
Y4735000D01*
X7199364Y4320000D02*
X7229364D01*
X7214364Y4305000D02*
Y4335000D01*
X7274364Y4920000D02*
X7304364D01*
X7289364Y4905000D02*
Y4935000D01*
X7496864Y4320000D02*
X7526864D01*
X7511864Y4305000D02*
Y4335000D01*
X7199364Y4620000D02*
X7229364D01*
X7214364Y4605000D02*
Y4635000D01*
X7496864Y4520000D02*
X7526864D01*
X7511864Y4505000D02*
Y4535000D01*
X7351864Y4920000D02*
X7381864D01*
X7366864Y4905000D02*
Y4935000D01*
X7496864Y4420000D02*
X7526864D01*
X7511864Y4405000D02*
Y4435000D01*
X7496864Y4620000D02*
X7526864D01*
X7511864Y4605000D02*
Y4635000D01*
X7351864Y4320000D02*
X7381864D01*
X7366864Y4305000D02*
Y4335000D01*
X7274364Y4320000D02*
X7304364D01*
X7289364Y4305000D02*
Y4335000D01*
X7351864Y4520000D02*
X7381864D01*
X7366864Y4505000D02*
Y4535000D01*
X4784364Y1195000D02*
X4804364D01*
X4794364Y1185000D02*
Y1205000D01*
X4784364Y1305000D02*
X4804364D01*
X4794364Y1295000D02*
Y1315000D01*
X5375000Y1370000D02*
X5405000D01*
X5390000Y1355000D02*
Y1385000D01*
X5445000Y1370000D02*
X5475000D01*
X5460000Y1355000D02*
Y1385000D01*
X4066864Y3892500D02*
X4086864D01*
X4076864Y3882500D02*
Y3902500D01*
X4066864Y3782500D02*
X4086864D01*
X4076864Y3772500D02*
Y3792500D01*
X2161864Y2220000D02*
X2181864D01*
X2171864Y2210000D02*
Y2230000D01*
X2271864Y2220000D02*
X2291864D01*
X2281864Y2210000D02*
Y2230000D01*
X4614364Y1910000D02*
X4644364D01*
X4629364Y1895000D02*
Y1925000D01*
X5894364Y1260000D02*
X5924364D01*
X5909364Y1245000D02*
Y1275000D01*
X6754364Y2010000D02*
X6784364D01*
X6769364Y1995000D02*
Y2025000D01*
X6644364Y3400000D02*
X6674364D01*
X6659364Y3385000D02*
Y3415000D01*
X4004364Y2127500D02*
X4034364D01*
X4019364Y2112500D02*
Y2142500D01*
X6746864Y2680000D02*
X6776864D01*
X6761864Y2665000D02*
Y2695000D01*
X5106865Y2500000D02*
X5136865D01*
X5121865Y2485000D02*
Y2515000D01*
X5104364Y2425000D02*
X5134364D01*
X5119364Y2410000D02*
Y2440000D01*
X7001864Y1950000D02*
X7031864D01*
X7016864Y1935000D02*
Y1965000D01*
X4621864Y2017500D02*
X4651864D01*
X4636864Y2002500D02*
Y2032500D01*
X5629364Y2300000D02*
X5659364D01*
X5644364Y2285000D02*
Y2315000D01*
X2689364Y2390000D02*
X2719364D01*
X2704364Y2375000D02*
Y2405000D01*
X2586864Y2317500D02*
X2616864D01*
X2601864Y2302500D02*
Y2332500D01*
X1891864Y740000D02*
X1921864D01*
X1906864Y725000D02*
Y755000D01*
X1744364Y1030000D02*
X1774364D01*
X1759364Y1015000D02*
Y1045000D01*
X1849364Y2317500D02*
X1879364D01*
X1864364Y2302500D02*
Y2332500D01*
X1846864Y2187500D02*
X1876864D01*
X1861864Y2172500D02*
Y2202500D01*
X1176864Y2555000D02*
X1206864D01*
X1191864Y2540000D02*
Y2570000D01*
X1171864Y3165000D02*
X1201864D01*
X1186864Y3150000D02*
Y3180000D01*
X2074364Y2560000D02*
X2104364D01*
X2089364Y2545000D02*
Y2575000D01*
X2074364Y2640000D02*
X2104364D01*
X2089364Y2625000D02*
Y2655000D01*
X2074364Y2720000D02*
X2104364D01*
X2089364Y2705000D02*
Y2735000D01*
X3504364Y2065000D02*
X3534364D01*
X3519364Y2050000D02*
Y2080000D01*
X3436864Y2065000D02*
X3466864D01*
X3451864Y2050000D02*
Y2080000D01*
X2899364Y2770000D02*
X2929364D01*
X2914364Y2755000D02*
Y2785000D01*
X2899364Y2837500D02*
X2929364D01*
X2914364Y2822500D02*
Y2852500D01*
X3224364Y2510000D02*
X3254364D01*
X3239364Y2495000D02*
Y2525000D01*
X3224364Y2580000D02*
X3254364D01*
X3239364Y2565000D02*
Y2595000D01*
X4195000Y880000D02*
X4225000D01*
X4210000Y865000D02*
Y895000D01*
X4265000Y880000D02*
X4295000D01*
X4280000Y865000D02*
Y895000D01*
X4195000Y760000D02*
X4225000D01*
X4210000Y745000D02*
Y775000D01*
X4265000Y760000D02*
X4295000D01*
X4280000Y745000D02*
Y775000D01*
X4265000Y820000D02*
X4295000D01*
X4280000Y805000D02*
Y835000D01*
X4195000Y820000D02*
X4225000D01*
X4210000Y805000D02*
Y835000D01*
X5115000Y1840000D02*
X5145000D01*
X5130000Y1825000D02*
Y1855000D01*
X5114364Y1770000D02*
X5144364D01*
X5129364Y1755000D02*
Y1785000D01*
X4824364Y2700000D02*
X4854364D01*
X4839364Y2685000D02*
Y2715000D01*
X6661864Y2680000D02*
X6691864D01*
X6676864Y2665000D02*
Y2695000D01*
X6104364Y3170000D02*
X6134364D01*
X6119364Y3155000D02*
Y3185000D01*
X6254364Y3400000D02*
X6284364D01*
X6269364Y3385000D02*
Y3415000D01*
X5954365Y3400000D02*
X5984364D01*
X5969364Y3385000D02*
Y3415000D01*
X5405115Y3231750D02*
X5435115D01*
X5420115Y3216750D02*
Y3246750D01*
X6598614Y1623250D02*
X6628614D01*
X6613614Y1608250D02*
Y1638250D01*
X5355115Y1618250D02*
X5385115D01*
X5370115Y1603250D02*
Y1633250D01*
X4324364Y1530000D02*
X4354364D01*
X4339364Y1515000D02*
Y1545000D01*
X4974364Y2770000D02*
X5004364D01*
X4989364Y2755000D02*
Y2785000D01*
X2429364Y4925000D02*
X2459364D01*
X2444364Y4910000D02*
Y4940000D01*
X2354364Y4925000D02*
X2384364D01*
X2369364Y4910000D02*
Y4940000D01*
X2279364Y4925000D02*
X2309364D01*
X2294364Y4910000D02*
Y4940000D01*
X2129364Y4925000D02*
X2159364D01*
X2144364Y4910000D02*
Y4940000D01*
X2204364Y4925000D02*
X2234364D01*
X2219364Y4910000D02*
Y4940000D01*
X2204364Y4225000D02*
X2234364D01*
X2219364Y4210000D02*
Y4240000D01*
X2129364Y4225000D02*
X2159364D01*
X2144364Y4210000D02*
Y4240000D01*
X2279364Y4225000D02*
X2309364D01*
X2294364Y4210000D02*
Y4240000D01*
X2354364Y4225000D02*
X2384364D01*
X2369364Y4210000D02*
Y4240000D01*
X2429364Y4225000D02*
X2459364D01*
X2444364Y4210000D02*
Y4240000D01*
X2204364Y4325000D02*
X2234364D01*
X2219364Y4310000D02*
Y4340000D01*
X2129364Y4325000D02*
X2159364D01*
X2144364Y4310000D02*
Y4340000D01*
X2279364Y4325000D02*
X2309364D01*
X2294364Y4310000D02*
Y4340000D01*
X2354364Y4325000D02*
X2384364D01*
X2369364Y4310000D02*
Y4340000D01*
X2429364Y4325000D02*
X2459364D01*
X2444364Y4310000D02*
Y4340000D01*
X2204364Y4425000D02*
X2234364D01*
X2219364Y4410000D02*
Y4440000D01*
X2129364Y4425000D02*
X2159364D01*
X2144364Y4410000D02*
Y4440000D01*
X2279364Y4425000D02*
X2309364D01*
X2294364Y4410000D02*
Y4440000D01*
X2354364Y4425000D02*
X2384364D01*
X2369364Y4410000D02*
Y4440000D01*
X2429364Y4425000D02*
X2459364D01*
X2444364Y4410000D02*
Y4440000D01*
X2204364Y4525000D02*
X2234364D01*
X2219364Y4510000D02*
Y4540000D01*
X2129364Y4525000D02*
X2159364D01*
X2144364Y4510000D02*
Y4540000D01*
X2279364Y4525000D02*
X2309364D01*
X2294364Y4510000D02*
Y4540000D01*
X2354364Y4525000D02*
X2384364D01*
X2369364Y4510000D02*
Y4540000D01*
X2429364Y4525000D02*
X2459364D01*
X2444364Y4510000D02*
Y4540000D01*
X2204364Y4625000D02*
X2234364D01*
X2219364Y4610000D02*
Y4640000D01*
X2129364Y4625000D02*
X2159364D01*
X2144364Y4610000D02*
Y4640000D01*
X2279364Y4625000D02*
X2309364D01*
X2294364Y4610000D02*
Y4640000D01*
X2354364Y4625000D02*
X2384364D01*
X2369364Y4610000D02*
Y4640000D01*
X2429364Y4625000D02*
X2459364D01*
X2444364Y4610000D02*
Y4640000D01*
X2204364Y4725000D02*
X2234364D01*
X2219364Y4710000D02*
Y4740000D01*
X2129364Y4725000D02*
X2159364D01*
X2144364Y4710000D02*
Y4740000D01*
X2279364Y4725000D02*
X2309364D01*
X2294364Y4710000D02*
Y4740000D01*
X2354364Y4725000D02*
X2384364D01*
X2369364Y4710000D02*
Y4740000D01*
X2429364Y4725000D02*
X2459364D01*
X2444364Y4710000D02*
Y4740000D01*
X2204364Y4825000D02*
X2234364D01*
X2219364Y4810000D02*
Y4840000D01*
X2129364Y4825000D02*
X2159364D01*
X2144364Y4810000D02*
Y4840000D01*
X2279364Y4825000D02*
X2309364D01*
X2294364Y4810000D02*
Y4840000D01*
X2354364Y4825000D02*
X2384364D01*
X2369364Y4810000D02*
Y4840000D01*
X2429364Y4825000D02*
X2459364D01*
X2444364Y4810000D02*
Y4840000D01*
X4241864Y4022500D02*
X4271864D01*
X4256864Y4007500D02*
Y4037500D01*
X3194364Y3870000D02*
X3224364D01*
X3209364Y3855000D02*
Y3885000D01*
X3193491Y3949362D02*
X3223491D01*
X3208491Y3934362D02*
Y3964362D01*
X3194364Y3800000D02*
X3224364D01*
X3209364Y3785000D02*
Y3815000D01*
%TF.MD5,2562cd1a7724bb8fbee5342111c40609*%
M02*
