%TF.GenerationSoftware,Altium Limited,Altium Designer,21.6.1 (37)*%
G04 Layer_Color=255*
%FSLAX45Y45*%
%MOMM*%
%TF.SameCoordinates,308497C2-864B-4A42-B135-7B231B7309CE*%
%TF.FilePolarity,Positive*%
%TF.FileFunction,Pads,Top*%
%TF.Part,Single*%
G01*
G75*
%TA.AperFunction,SMDPad,CuDef*%
%ADD10R,0.35000X0.66000*%
%ADD11R,0.35000X0.43000*%
%ADD12R,1.25000X1.10000*%
%ADD13R,0.66000X0.35000*%
%ADD14R,0.43000X0.35000*%
%ADD15R,1.10000X1.25000*%
%ADD16R,0.60000X0.55000*%
%ADD17C,1.00000*%
%ADD18R,0.65000X0.55000*%
%ADD19R,1.00000X0.95000*%
%ADD20R,1.00000X3.40000*%
%ADD21R,1.50000X3.60000*%
G04:AMPARAMS|DCode=22|XSize=0.45mm|YSize=0.3mm|CornerRadius=0.06mm|HoleSize=0mm|Usage=FLASHONLY|Rotation=180.000|XOffset=0mm|YOffset=0mm|HoleType=Round|Shape=RoundedRectangle|*
%AMROUNDEDRECTD22*
21,1,0.45000,0.18000,0,0,180.0*
21,1,0.33000,0.30000,0,0,180.0*
1,1,0.12000,-0.16500,0.09000*
1,1,0.12000,0.16500,0.09000*
1,1,0.12000,0.16500,-0.09000*
1,1,0.12000,-0.16500,-0.09000*
%
%ADD22ROUNDEDRECTD22*%
G04:AMPARAMS|DCode=23|XSize=1mm|YSize=1.6mm|CornerRadius=0.06mm|HoleSize=0mm|Usage=FLASHONLY|Rotation=180.000|XOffset=0mm|YOffset=0mm|HoleType=Round|Shape=RoundedRectangle|*
%AMROUNDEDRECTD23*
21,1,1.00000,1.48000,0,0,180.0*
21,1,0.88000,1.60000,0,0,180.0*
1,1,0.12000,-0.44000,0.74000*
1,1,0.12000,0.44000,0.74000*
1,1,0.12000,0.44000,-0.74000*
1,1,0.12000,-0.44000,-0.74000*
%
%ADD23ROUNDEDRECTD23*%
%ADD24R,1.50000X0.90000*%
G04:AMPARAMS|DCode=25|XSize=0.45mm|YSize=1.4mm|CornerRadius=0.0495mm|HoleSize=0mm|Usage=FLASHONLY|Rotation=0.000|XOffset=0mm|YOffset=0mm|HoleType=Round|Shape=RoundedRectangle|*
%AMROUNDEDRECTD25*
21,1,0.45000,1.30100,0,0,0.0*
21,1,0.35100,1.40000,0,0,0.0*
1,1,0.09900,0.17550,-0.65050*
1,1,0.09900,-0.17550,-0.65050*
1,1,0.09900,-0.17550,0.65050*
1,1,0.09900,0.17550,0.65050*
%
%ADD25ROUNDEDRECTD25*%
%TA.AperFunction,SMDPad,SMDef*%
G04:AMPARAMS|DCode=26|XSize=2.1mm|YSize=2mm|CornerRadius=0.1mm|HoleSize=0mm|Usage=FLASHONLY|Rotation=180.000|XOffset=0mm|YOffset=0mm|HoleType=Round|Shape=RoundedRectangle|*
%AMROUNDEDRECTD26*
21,1,2.10000,1.80000,0,0,180.0*
21,1,1.90000,2.00000,0,0,180.0*
1,1,0.20000,-0.95000,0.90000*
1,1,0.20000,0.95000,0.90000*
1,1,0.20000,0.95000,-0.90000*
1,1,0.20000,-0.95000,-0.90000*
%
%ADD26ROUNDEDRECTD26*%
%TA.AperFunction,SMDPad,CuDef*%
%ADD27R,0.95000X1.00000*%
%ADD28R,0.55000X0.65000*%
%ADD29R,0.42000X0.66000*%
%ADD30R,0.48000X0.48000*%
%ADD31R,12.50000X3.15000*%
%ADD32R,1.52000X1.60000*%
%ADD33R,2.20000X3.20000*%
%ADD34R,0.75000X0.58500*%
%ADD35R,2.60000X2.77000*%
G04:AMPARAMS|DCode=36|XSize=0.45mm|YSize=1.4mm|CornerRadius=0.0495mm|HoleSize=0mm|Usage=FLASHONLY|Rotation=90.000|XOffset=0mm|YOffset=0mm|HoleType=Round|Shape=RoundedRectangle|*
%AMROUNDEDRECTD36*
21,1,0.45000,1.30100,0,0,90.0*
21,1,0.35100,1.40000,0,0,90.0*
1,1,0.09900,0.65050,0.17550*
1,1,0.09900,0.65050,-0.17550*
1,1,0.09900,-0.65050,-0.17550*
1,1,0.09900,-0.65050,0.17550*
%
%ADD36ROUNDEDRECTD36*%
%TA.AperFunction,SMDPad,SMDef*%
G04:AMPARAMS|DCode=37|XSize=2.1mm|YSize=2mm|CornerRadius=0.1mm|HoleSize=0mm|Usage=FLASHONLY|Rotation=270.000|XOffset=0mm|YOffset=0mm|HoleType=Round|Shape=RoundedRectangle|*
%AMROUNDEDRECTD37*
21,1,2.10000,1.80000,0,0,270.0*
21,1,1.90000,2.00000,0,0,270.0*
1,1,0.20000,-0.90000,-0.95000*
1,1,0.20000,-0.90000,0.95000*
1,1,0.20000,0.90000,0.95000*
1,1,0.20000,0.90000,-0.95000*
%
%ADD37ROUNDEDRECTD37*%
%TA.AperFunction,SMDPad,CuDef*%
%ADD38R,0.66000X0.42000*%
%ADD39R,0.48000X0.48000*%
%ADD40R,0.35000X0.66000*%
%ADD41R,1.25000X1.10000*%
%ADD42R,0.35000X0.43000*%
%ADD43R,0.25000X0.80000*%
%ADD44R,0.80000X0.25000*%
%ADD45R,0.92500X0.25000*%
%ADD46R,0.20000X0.22000*%
%TA.AperFunction,BGAPad,CuDef*%
%ADD47R,0.10000X0.10000*%
%TA.AperFunction,SMDPad,CuDef*%
%ADD48R,1.80000X2.80000*%
%ADD49R,2.30000X1.40000*%
%ADD50R,0.65000X0.80000*%
%ADD51R,1.05000X0.80000*%
%ADD52R,0.90000X1.50000*%
%ADD53R,0.30000X1.20000*%
%ADD54R,1.20000X0.30000*%
%ADD55R,0.58500X0.75000*%
%ADD56R,1.30000X1.60000*%
%ADD57R,1.25000X1.85000*%
%ADD58R,0.60000X1.20000*%
%ADD59R,2.62000X0.80000*%
%TA.AperFunction,ComponentPad*%
%ADD78C,1.80000*%
%ADD79C,2.70000*%
%ADD80C,1.70000*%
%ADD81R,1.90000X1.90000*%
%ADD82C,1.90000*%
%ADD83C,0.50000*%
D10*
X3256864Y4600000D02*
D03*
X4569364D02*
D03*
D11*
X3334364Y4693500D02*
D03*
X3269364D02*
D03*
X3399364D02*
D03*
X3334364Y4506500D02*
D03*
X3269364D02*
D03*
X3399364D02*
D03*
X4491865D02*
D03*
X4556864D02*
D03*
X4426864D02*
D03*
X4491865Y4693500D02*
D03*
X4556864D02*
D03*
X4426864D02*
D03*
D12*
X3362864Y4600000D02*
D03*
X4463364D02*
D03*
D13*
X7132364Y3407500D02*
D03*
X2619364Y3650000D02*
D03*
D14*
X7038865Y3485000D02*
D03*
Y3420000D02*
D03*
Y3550000D02*
D03*
X7225864Y3485000D02*
D03*
Y3420000D02*
D03*
Y3550000D02*
D03*
X2525864Y3727500D02*
D03*
Y3662500D02*
D03*
Y3792500D02*
D03*
X2712864Y3727500D02*
D03*
Y3662500D02*
D03*
Y3792500D02*
D03*
D15*
X7132364Y3513500D02*
D03*
X2619364Y3756000D02*
D03*
D16*
X2181969Y6072500D02*
D03*
X2051968D02*
D03*
X2116969Y5887500D02*
D03*
D17*
X2630000Y6050000D02*
D03*
X5559364Y1330000D02*
D03*
X2399364Y3500000D02*
D03*
X6919364Y3300000D02*
D03*
X300000Y6000000D02*
D03*
X7700000D02*
D03*
X4979364Y4310000D02*
D03*
X3799364Y2040000D02*
D03*
X1429364Y1930000D02*
D03*
X2479364Y1800000D02*
D03*
D18*
X2466968Y6032500D02*
D03*
Y5947500D02*
D03*
X4849364Y4142500D02*
D03*
Y4057500D02*
D03*
X3639364Y4150000D02*
D03*
Y4065000D02*
D03*
X1561864Y2972500D02*
D03*
Y2887500D02*
D03*
Y2327501D02*
D03*
Y2242500D02*
D03*
X3349364Y1735001D02*
D03*
Y1820001D02*
D03*
X3454364Y1735001D02*
D03*
Y1820001D02*
D03*
X3579364Y1735001D02*
D03*
Y1820001D02*
D03*
X3684364Y1735001D02*
D03*
Y1820001D02*
D03*
X5969364Y1107500D02*
D03*
Y1192500D02*
D03*
X6719364Y3232500D02*
D03*
Y3317500D02*
D03*
X5844364Y1192500D02*
D03*
Y1107500D02*
D03*
X6594364Y3317500D02*
D03*
Y3232500D02*
D03*
X6269364Y3232500D02*
D03*
Y3317500D02*
D03*
X5969364Y3232500D02*
D03*
Y3317500D02*
D03*
X5719364Y3232500D02*
D03*
Y3317500D02*
D03*
X2401864Y1182500D02*
D03*
Y1267500D02*
D03*
X2101864Y1182500D02*
D03*
Y1267500D02*
D03*
D19*
X2326968Y5917500D02*
D03*
Y6042500D02*
D03*
X5294364Y1312500D02*
D03*
Y1187500D02*
D03*
X4519364Y1312500D02*
D03*
Y1187500D02*
D03*
X4344364Y1312500D02*
D03*
Y1187500D02*
D03*
X3269364Y4837500D02*
D03*
Y4962500D02*
D03*
X4984364Y4037500D02*
D03*
Y4162500D02*
D03*
X3789364Y4167500D02*
D03*
Y4042500D02*
D03*
X5944364Y1637500D02*
D03*
Y1512500D02*
D03*
X6101864D02*
D03*
Y1637500D02*
D03*
X3229364Y890001D02*
D03*
Y1015001D02*
D03*
X3379364Y890001D02*
D03*
Y1015001D02*
D03*
X3529364Y890001D02*
D03*
Y1015001D02*
D03*
X3679364Y890001D02*
D03*
Y1015001D02*
D03*
X6376864Y1512500D02*
D03*
Y1637500D02*
D03*
X5626865D02*
D03*
Y1512500D02*
D03*
X5786864D02*
D03*
Y1637500D02*
D03*
X2101864Y1387500D02*
D03*
Y1512500D02*
D03*
X2401864D02*
D03*
Y1387500D02*
D03*
X2251864Y1512500D02*
D03*
Y1387500D02*
D03*
X1976864Y1920000D02*
D03*
Y1795000D02*
D03*
D20*
X4239364Y6405000D02*
D03*
X4039364D02*
D03*
X3839364D02*
D03*
X3639364D02*
D03*
X2249364D02*
D03*
X2049364D02*
D03*
X1849364D02*
D03*
X1649364D02*
D03*
D21*
X4469364Y7155000D02*
D03*
X3409364D02*
D03*
X2479364D02*
D03*
X1419364D02*
D03*
D22*
X4891864Y1250000D02*
D03*
Y1315000D02*
D03*
X4696864D02*
D03*
Y1185000D02*
D03*
X4891864D02*
D03*
X4696864Y1250000D02*
D03*
D23*
X4794364D02*
D03*
D24*
X5094364Y1330000D02*
D03*
Y1170000D02*
D03*
D25*
X3979364Y3617500D02*
D03*
X4044364D02*
D03*
X4174364D02*
D03*
X4109364D02*
D03*
X3979364Y4057500D02*
D03*
X4044364D02*
D03*
X4109364D02*
D03*
X4174364D02*
D03*
D26*
X4076864Y3837500D02*
D03*
D27*
X4989364Y4455000D02*
D03*
X4864364D02*
D03*
X1301864Y3165000D02*
D03*
X1426864D02*
D03*
Y2555000D02*
D03*
X1301864D02*
D03*
X4116864Y2327501D02*
D03*
X3991864D02*
D03*
X3994364Y2480000D02*
D03*
X4119364D02*
D03*
X4141864Y1777500D02*
D03*
X4016864D02*
D03*
X4141864Y1627500D02*
D03*
X4016864D02*
D03*
X4141864Y1477500D02*
D03*
X4016864D02*
D03*
X4141864Y1327500D02*
D03*
X4016864D02*
D03*
X1954364Y2565000D02*
D03*
X1829364D02*
D03*
X1954364Y2715000D02*
D03*
X1829364D02*
D03*
X3141864Y2677500D02*
D03*
X3016864D02*
D03*
X3141864Y2527500D02*
D03*
X3016864D02*
D03*
X3141864Y2227500D02*
D03*
X3016864D02*
D03*
X3141864Y2377500D02*
D03*
X3016864D02*
D03*
X4881865Y1740000D02*
D03*
X5006865D02*
D03*
X6781864Y3030000D02*
D03*
X6656864D02*
D03*
X4456865Y2200000D02*
D03*
X4581865D02*
D03*
X4881865Y2575000D02*
D03*
X5006865D02*
D03*
X4881865Y2125000D02*
D03*
X5006865D02*
D03*
X4881865Y2425000D02*
D03*
X5006865D02*
D03*
X4881865Y2275000D02*
D03*
X5006865D02*
D03*
X4581865Y3000000D02*
D03*
X4456865D02*
D03*
X7256864Y2910000D02*
D03*
X7381864D02*
D03*
D28*
X2526864Y3500000D02*
D03*
X2611864D02*
D03*
X7121864Y3300000D02*
D03*
X7036864D02*
D03*
X3036864Y2802501D02*
D03*
X3121864D02*
D03*
X6944364Y2070000D02*
D03*
X6859364D02*
D03*
Y1950000D02*
D03*
X6944364D02*
D03*
X4561864Y1975000D02*
D03*
X4476864D02*
D03*
X6676864Y2750000D02*
D03*
X6761865D02*
D03*
X4986865Y2700000D02*
D03*
X4901865D02*
D03*
X4561864Y1850000D02*
D03*
X4476864D02*
D03*
D29*
X4421864Y4074500D02*
D03*
X4551864D02*
D03*
X4616864D02*
D03*
X4486864D02*
D03*
X3286864Y4075001D02*
D03*
X3416864D02*
D03*
X3351864D02*
D03*
X3221864D02*
D03*
D30*
X4519364Y4218000D02*
D03*
X3319364Y4218501D02*
D03*
D31*
X1069364Y5447500D02*
D03*
Y3912500D02*
D03*
X6269364Y5447500D02*
D03*
Y3912500D02*
D03*
D32*
X2619364Y4054000D02*
D03*
X7709364Y4064000D02*
D03*
D33*
X2619364Y4366000D02*
D03*
X7709364Y4376000D02*
D03*
D34*
X3866864Y3638250D02*
D03*
Y3551750D02*
D03*
X6499364Y1536750D02*
D03*
Y1623250D02*
D03*
X5469364Y1531750D02*
D03*
Y1618250D02*
D03*
X5519364Y3318250D02*
D03*
Y3231750D02*
D03*
D35*
X2619364Y4810000D02*
D03*
Y5390000D02*
D03*
X7709364Y4820000D02*
D03*
Y5400000D02*
D03*
D36*
X2446864Y2122500D02*
D03*
Y2187500D02*
D03*
Y2317500D02*
D03*
Y2252500D02*
D03*
X2006864Y2122500D02*
D03*
Y2187500D02*
D03*
Y2252500D02*
D03*
Y2317500D02*
D03*
D37*
X2226864Y2220000D02*
D03*
D38*
X1432864Y2832500D02*
D03*
Y2962500D02*
D03*
Y2897500D02*
D03*
Y2767500D02*
D03*
Y2192500D02*
D03*
Y2322500D02*
D03*
Y2257500D02*
D03*
Y2127500D02*
D03*
D39*
X1289364Y2865000D02*
D03*
Y2225000D02*
D03*
D40*
X1856864Y833500D02*
D03*
Y1190000D02*
D03*
D41*
X1750864Y833500D02*
D03*
Y1190000D02*
D03*
D42*
X1844364Y927000D02*
D03*
Y740000D02*
D03*
X1779364Y927000D02*
D03*
X1714364D02*
D03*
Y740000D02*
D03*
X1779364D02*
D03*
Y1096500D02*
D03*
X1714364D02*
D03*
Y1283500D02*
D03*
X1779364D02*
D03*
X1844364Y1096500D02*
D03*
Y1283500D02*
D03*
D43*
X3504364Y1962501D02*
D03*
X3454364D02*
D03*
X3554364D02*
D03*
D44*
X3644364Y2082500D02*
D03*
X3364364D02*
D03*
Y2032500D02*
D03*
X3644364D02*
D03*
D45*
X3638114Y2147500D02*
D03*
X3370614D02*
D03*
D46*
X3340244Y1982007D02*
D03*
X3340284Y2322701D02*
D03*
X3668013Y2322880D02*
D03*
X3665843Y1982048D02*
D03*
D47*
X3333814Y2209502D02*
D03*
X3672557Y2209925D02*
D03*
X3529634Y2374541D02*
D03*
X3479021Y2374793D02*
D03*
X3672280Y2260440D02*
D03*
X3335497Y2259961D02*
D03*
D48*
X3704364Y1402501D02*
D03*
X3204364D02*
D03*
X2194364Y3055000D02*
D03*
X2694364D02*
D03*
D49*
X3504364Y2562500D02*
D03*
Y2742500D02*
D03*
D50*
X3126864Y2050000D02*
D03*
D51*
X3021864D02*
D03*
D52*
X2999364Y1852500D02*
D03*
X3159364D02*
D03*
X2849364Y1477500D02*
D03*
X3009364D02*
D03*
X2849364Y1277500D02*
D03*
X3009364D02*
D03*
D53*
X5569364Y1900000D02*
D03*
X5619364D02*
D03*
X5669364D02*
D03*
X5719364D02*
D03*
X5769364D02*
D03*
X5819364D02*
D03*
X5869364D02*
D03*
X5919364D02*
D03*
X5969364D02*
D03*
X6019364D02*
D03*
X6069364D02*
D03*
X6119364D02*
D03*
X6169364D02*
D03*
X6219364D02*
D03*
X6269364D02*
D03*
X5519364D02*
D03*
X5569364Y3050000D02*
D03*
X5619364D02*
D03*
X5669364D02*
D03*
X5719364D02*
D03*
X5769364D02*
D03*
X5819364D02*
D03*
X5869364D02*
D03*
X5919364D02*
D03*
X5969364D02*
D03*
X6019364D02*
D03*
X6069364D02*
D03*
X6119364D02*
D03*
X6169364D02*
D03*
X6219364D02*
D03*
X6269364D02*
D03*
X5519364D02*
D03*
D54*
X5319364Y2850000D02*
D03*
X5319365Y2100000D02*
D03*
Y2150000D02*
D03*
Y2200000D02*
D03*
Y2250000D02*
D03*
Y2300000D02*
D03*
Y2350000D02*
D03*
Y2400000D02*
D03*
Y2450000D02*
D03*
Y2500000D02*
D03*
Y2550000D02*
D03*
Y2600000D02*
D03*
Y2650000D02*
D03*
Y2700000D02*
D03*
Y2750000D02*
D03*
Y2800000D02*
D03*
X6469365D02*
D03*
Y2750000D02*
D03*
Y2700000D02*
D03*
Y2650000D02*
D03*
Y2600000D02*
D03*
Y2550000D02*
D03*
Y2500000D02*
D03*
Y2450000D02*
D03*
Y2400000D02*
D03*
Y2350000D02*
D03*
Y2300000D02*
D03*
Y2250000D02*
D03*
Y2200000D02*
D03*
Y2150000D02*
D03*
Y2100000D02*
D03*
Y2850000D02*
D03*
D55*
X4992614Y2990000D02*
D03*
X4906114D02*
D03*
X6762615Y2880000D02*
D03*
X6676114D02*
D03*
X4901115Y1870000D02*
D03*
X4987615D02*
D03*
X4901115Y2000000D02*
D03*
X4987615D02*
D03*
D56*
X4404365Y2410000D02*
D03*
Y2790000D02*
D03*
X4634365Y2410000D02*
D03*
X4630864Y2790000D02*
D03*
D57*
X2124364Y1000000D02*
D03*
X2379364D02*
D03*
D58*
X2346864Y1690000D02*
D03*
X2156864D02*
D03*
Y1910000D02*
D03*
X2251864D02*
D03*
X2346864D02*
D03*
D59*
X7656576Y2221000D02*
D03*
Y2348000D02*
D03*
Y2475000D02*
D03*
Y2602000D02*
D03*
Y2729000D02*
D03*
X7268576Y2221000D02*
D03*
Y2348000D02*
D03*
Y2475000D02*
D03*
Y2602000D02*
D03*
Y2729000D02*
D03*
D78*
X3621000Y271000D02*
D03*
X3875000D02*
D03*
X4129000D02*
D03*
X4383000D02*
D03*
X4637000D02*
D03*
X4891000D02*
D03*
X5145000D02*
D03*
X5399000D02*
D03*
X5653000D02*
D03*
X6415000Y525000D02*
D03*
X6161000Y271000D02*
D03*
X5907000D02*
D03*
X6161000Y525000D02*
D03*
X3621000D02*
D03*
X3875000D02*
D03*
X4129000D02*
D03*
X4383000D02*
D03*
X4637000D02*
D03*
X4891000D02*
D03*
X5145000D02*
D03*
X5399000D02*
D03*
X5653000D02*
D03*
X5907000D02*
D03*
X6415000Y271000D02*
D03*
X1589000D02*
D03*
X1843000D02*
D03*
X2097000D02*
D03*
X2605000D02*
D03*
X2859000D02*
D03*
X3113000D02*
D03*
X3367000D02*
D03*
X3113000Y525000D02*
D03*
X3367000D02*
D03*
X2859000D02*
D03*
X2351000Y271000D02*
D03*
X1843000Y525000D02*
D03*
X2097000D02*
D03*
X2351000D02*
D03*
X2605000D02*
D03*
X1589000D02*
D03*
D79*
X6129364Y6090000D02*
D03*
X5629364D02*
D03*
D80*
X5329364Y7090000D02*
D03*
X6429364D02*
D03*
D81*
X4000000Y825500D02*
D03*
D82*
Y1079500D02*
D03*
D83*
X7462576Y2665500D02*
D03*
Y2284500D02*
D03*
%TF.MD5,3e3917e91ac839a5e0294bdee394885f*%
M02*
