%TF.GenerationSoftware,KiCad,Pcbnew,7.0.1*%
%TF.CreationDate,2023-05-02T11:52:01+02:00*%
%TF.ProjectId,Payload_cm4_23,5061796c-6f61-4645-9f63-6d345f32332e,rev?*%
%TF.SameCoordinates,Original*%
%TF.FileFunction,Legend,Bot*%
%TF.FilePolarity,Positive*%
%FSLAX46Y46*%
G04 Gerber Fmt 4.6, Leading zero omitted, Abs format (unit mm)*
G04 Created by KiCad (PCBNEW 7.0.1) date 2023-05-02 11:52:01*
%MOMM*%
%LPD*%
G01*
G04 APERTURE LIST*
%ADD10C,0.100000*%
%ADD11C,0.500000*%
%ADD12C,0.575000*%
%ADD13C,0.250000*%
%ADD14C,0.120000*%
%ADD15C,0.127000*%
%ADD16C,0.200000*%
G04 APERTURE END LIST*
D10*
X161800000Y-76600000D02*
X160700000Y-76600000D01*
X160300000Y-76600000D02*
X159200000Y-76600000D01*
X158800000Y-76600000D02*
X157700000Y-76600000D01*
X157300000Y-76600000D02*
X156200000Y-76600000D01*
X155800000Y-76600000D02*
X154700000Y-76600000D01*
X154300000Y-76600000D02*
X153200000Y-76600000D01*
X152800000Y-76600000D02*
X151700000Y-76600000D01*
X151300000Y-76600000D02*
X150200000Y-76600000D01*
X149800000Y-76600000D02*
X148700000Y-76600000D01*
X148300000Y-76600000D02*
X147200000Y-76600000D01*
X146800000Y-76600000D02*
X145700000Y-76600000D01*
X145300000Y-76600000D02*
X144200000Y-76600000D01*
X143800000Y-76600000D02*
X142700000Y-76600000D01*
X142300000Y-76600000D02*
X141200000Y-76600000D01*
X140800000Y-76600000D02*
X139700000Y-76600000D01*
X139300000Y-76600000D02*
X138200000Y-76600000D01*
X137800000Y-76600000D02*
X136800000Y-76600000D01*
D11*
X154000000Y-62000000D02*
X154000000Y-60000000D01*
X154000000Y-60000000D02*
X145000000Y-60000000D01*
D12*
X153537500Y-57500000D02*
G75*
G03*
X153537500Y-57500000I-287500J0D01*
G01*
X151037500Y-57500000D02*
G75*
G03*
X151037500Y-57500000I-287500J0D01*
G01*
X148537500Y-57500000D02*
G75*
G03*
X148537500Y-57500000I-287500J0D01*
G01*
D11*
X157000000Y-55000000D02*
X157000000Y-62000000D01*
D10*
X161800000Y-101600000D02*
X161800000Y-100500000D01*
X161800000Y-100100000D02*
X161800000Y-99000000D01*
X161800000Y-98600000D02*
X161800000Y-97500000D01*
X161800000Y-97100000D02*
X161800000Y-96000000D01*
X161800000Y-95600000D02*
X161800000Y-94500000D01*
X161800000Y-94100000D02*
X161800000Y-93000000D01*
X161800000Y-92600000D02*
X161800000Y-91500000D01*
X161800000Y-91100000D02*
X161800000Y-90000000D01*
X161800000Y-89600000D02*
X161800000Y-88500000D01*
X161800000Y-88100000D02*
X161800000Y-87000000D01*
X161800000Y-86600000D02*
X161800000Y-85500000D01*
X161800000Y-85100000D02*
X161800000Y-84000000D01*
X161800000Y-83600000D02*
X161800000Y-82500000D01*
X161800000Y-82100000D02*
X161800000Y-81000000D01*
X161800000Y-80600000D02*
X161800000Y-79500000D01*
X161800000Y-79100000D02*
X161800000Y-78000000D01*
X161800000Y-77600000D02*
X161800000Y-76600000D01*
D12*
X146037500Y-57500000D02*
G75*
G03*
X146037500Y-57500000I-287500J0D01*
G01*
D11*
X145000000Y-60000000D02*
X145000000Y-62000000D01*
X142000000Y-62000000D02*
X142000000Y-55000000D01*
X142000000Y-55000000D02*
X157000000Y-55000000D01*
D10*
X136800000Y-101600000D02*
X137900000Y-101600000D01*
X138300000Y-101600000D02*
X139400000Y-101600000D01*
X139800000Y-101600000D02*
X140900000Y-101600000D01*
X141300000Y-101600000D02*
X142400000Y-101600000D01*
X142800000Y-101600000D02*
X143900000Y-101600000D01*
X144300000Y-101600000D02*
X145400000Y-101600000D01*
X145800000Y-101600000D02*
X146900000Y-101600000D01*
X147300000Y-101600000D02*
X148400000Y-101600000D01*
X148800000Y-101600000D02*
X149900000Y-101600000D01*
X150300000Y-101600000D02*
X151400000Y-101600000D01*
X151800000Y-101600000D02*
X152900000Y-101600000D01*
X153300000Y-101600000D02*
X154400000Y-101600000D01*
X154800000Y-101600000D02*
X155900000Y-101600000D01*
X156300000Y-101600000D02*
X157400000Y-101600000D01*
X157800000Y-101600000D02*
X158900000Y-101600000D01*
X159300000Y-101600000D02*
X160400000Y-101600000D01*
X160800000Y-101600000D02*
X161800000Y-101600000D01*
X136800000Y-76600000D02*
X136800000Y-77700000D01*
X136800000Y-78100000D02*
X136800000Y-79200000D01*
X136800000Y-79600000D02*
X136800000Y-80700000D01*
X136800000Y-81100000D02*
X136800000Y-82200000D01*
X136800000Y-82600000D02*
X136800000Y-83700000D01*
X136800000Y-84100000D02*
X136800000Y-85200000D01*
X136800000Y-85600000D02*
X136800000Y-86700000D01*
X136800000Y-87100000D02*
X136800000Y-88200000D01*
X136800000Y-88600000D02*
X136800000Y-89700000D01*
X136800000Y-90100000D02*
X136800000Y-91200000D01*
X136800000Y-91600000D02*
X136800000Y-92700000D01*
X136800000Y-93100000D02*
X136800000Y-94200000D01*
X136800000Y-94600000D02*
X136800000Y-95700000D01*
X136800000Y-96100000D02*
X136800000Y-97200000D01*
X136800000Y-97600000D02*
X136800000Y-98700000D01*
X136800000Y-99100000D02*
X136800000Y-100200000D01*
X136800000Y-100600000D02*
X136800000Y-101600000D01*
D11*
X145000000Y-62000000D02*
X142000000Y-62000000D01*
X157000000Y-62000000D02*
X154000000Y-62000000D01*
D13*
%TO.C,HS1*%
X136300000Y-76100000D02*
X136300000Y-78850000D01*
X136300000Y-79850000D02*
X136300000Y-82600000D01*
X136300000Y-83600000D02*
X136300000Y-86350000D01*
X136300000Y-87350000D02*
X136300000Y-90100000D01*
X136300000Y-91100000D02*
X136300000Y-93850000D01*
X136300000Y-94850000D02*
X136300000Y-97600000D01*
X136300000Y-98600000D02*
X136300000Y-101350000D01*
X136300000Y-102100000D02*
X139050000Y-102100000D01*
X140050000Y-102100000D02*
X142800000Y-102100000D01*
X143800000Y-102100000D02*
X146550000Y-102100000D01*
X147550000Y-102100000D02*
X150300000Y-102100000D01*
X151300000Y-102100000D02*
X154050000Y-102100000D01*
X155050000Y-102100000D02*
X157800000Y-102100000D01*
X158800000Y-102100000D02*
X161550000Y-102100000D01*
X162300000Y-76100000D02*
X159550000Y-76100000D01*
X158550000Y-76100000D02*
X155800000Y-76100000D01*
X154800000Y-76100000D02*
X152050000Y-76100000D01*
X151050000Y-76100000D02*
X148300000Y-76100000D01*
X147300000Y-76100000D02*
X144550000Y-76100000D01*
X143550000Y-76100000D02*
X140800000Y-76100000D01*
X139800000Y-76100000D02*
X137050000Y-76100000D01*
X162300000Y-102100000D02*
X162300000Y-99350000D01*
X162300000Y-98350000D02*
X162300000Y-95600000D01*
X162300000Y-94600000D02*
X162300000Y-91850000D01*
X162300000Y-90850000D02*
X162300000Y-88100000D01*
X162300000Y-87100000D02*
X162300000Y-84350000D01*
X162300000Y-83350000D02*
X162300000Y-80600000D01*
X162300000Y-79600000D02*
X162300000Y-76850000D01*
%TO.C,kibuzzard-645040AD*%
G36*
X115682625Y-87708850D02*
G01*
X115682625Y-87715200D01*
X114774575Y-87959675D01*
X114774575Y-87464375D01*
X115682625Y-87708850D01*
G37*
G36*
X115219075Y-83514675D02*
G01*
X114336425Y-84213175D01*
X114249112Y-84117925D01*
X114225300Y-83905200D01*
X114249112Y-83695650D01*
X114323725Y-83603575D01*
X114495175Y-83552775D01*
X114723775Y-83519438D01*
X115009525Y-83508325D01*
X115219075Y-83514675D01*
G37*
G36*
X115741363Y-83675013D02*
G01*
X115774700Y-83908375D01*
X115754063Y-84108400D01*
X115681038Y-84200475D01*
X115511175Y-84254450D01*
X115293688Y-84286200D01*
X115163909Y-84295725D01*
X115000000Y-84298900D01*
X114861888Y-84295725D01*
X114714250Y-84286200D01*
X115612775Y-83575000D01*
X115741363Y-83675013D01*
G37*
G36*
X113227292Y-83908375D02*
G01*
X113888750Y-83908375D01*
X113897878Y-84129831D01*
X113925262Y-84292550D01*
X113979237Y-84412009D01*
X114068138Y-84503688D01*
X114202678Y-84575522D01*
X114393575Y-84635450D01*
X114575608Y-84668964D01*
X114778808Y-84689072D01*
X115003175Y-84695775D01*
X115233539Y-84688367D01*
X115437797Y-84666142D01*
X115615950Y-84629100D01*
X115798909Y-84569966D01*
X115928688Y-84500512D01*
X116016000Y-84410819D01*
X116071563Y-84290963D01*
X116101328Y-84126259D01*
X116111250Y-83902025D01*
X116101328Y-83678187D01*
X116071563Y-83514675D01*
X116016397Y-83396009D01*
X115930275Y-83306712D01*
X115801688Y-83237259D01*
X115619125Y-83178125D01*
X115435328Y-83141083D01*
X115222603Y-83118858D01*
X114980950Y-83111450D01*
X114811088Y-83115022D01*
X114663450Y-83125738D01*
X114526131Y-83145184D01*
X114387225Y-83174950D01*
X114199106Y-83235275D01*
X114066550Y-83308300D01*
X113978841Y-83401169D01*
X113925262Y-83521025D01*
X113897878Y-83684538D01*
X113888750Y-83908375D01*
X113227292Y-83908375D01*
X113227292Y-83111450D01*
X113227292Y-82449992D01*
X116772708Y-82449992D01*
X116772708Y-83111450D01*
X116772708Y-90388550D01*
X116772708Y-91050008D01*
X113227292Y-91050008D01*
X113227292Y-90388550D01*
X113227292Y-89537650D01*
X113888750Y-89537650D01*
X113899862Y-89744731D01*
X113933200Y-89917239D01*
X113988762Y-90055175D01*
X114122509Y-90209956D01*
X114323725Y-90312350D01*
X114502583Y-90354683D01*
X114725892Y-90380083D01*
X114993650Y-90388550D01*
X115263525Y-90380083D01*
X115488950Y-90354683D01*
X115669925Y-90312350D01*
X115873522Y-90209956D01*
X116008063Y-90055175D01*
X116063625Y-89917239D01*
X116096963Y-89744731D01*
X116108075Y-89537650D01*
X116093391Y-89286825D01*
X116049338Y-89099500D01*
X115970756Y-88965356D01*
X115852488Y-88874075D01*
X115685403Y-88819306D01*
X115460375Y-88794700D01*
X115460375Y-89191575D01*
X115607219Y-89233644D01*
X115698500Y-89296350D01*
X115746125Y-89393188D01*
X115762000Y-89537650D01*
X115744934Y-89692431D01*
X115693738Y-89807525D01*
X115601266Y-89888884D01*
X115460375Y-89942463D01*
X115261144Y-89972228D01*
X114993650Y-89982150D01*
X114729331Y-89972228D01*
X114533275Y-89942463D01*
X114394766Y-89888884D01*
X114303088Y-89807525D01*
X114251891Y-89692431D01*
X114234825Y-89537650D01*
X114249509Y-89378106D01*
X114293563Y-89274125D01*
X114517400Y-89172525D01*
X114517400Y-88775650D01*
X114297928Y-88805813D01*
X114134812Y-88864550D01*
X114019719Y-88958609D01*
X113944312Y-89094738D01*
X113902641Y-89284047D01*
X113888750Y-89537650D01*
X113227292Y-89537650D01*
X113227292Y-86810325D01*
X113917325Y-86810325D01*
X113917325Y-87213550D01*
X114434850Y-87369125D01*
X114434850Y-88054925D01*
X113917325Y-88210500D01*
X113917325Y-88613725D01*
X116076325Y-87969200D01*
X116076325Y-87454850D01*
X113917325Y-86810325D01*
X113227292Y-86810325D01*
X113227292Y-84962475D01*
X113917325Y-84962475D01*
X113917325Y-85337125D01*
X115009525Y-85337125D01*
X115571500Y-85299025D01*
X115571500Y-85311725D01*
X114638050Y-85645100D01*
X114638050Y-85965775D01*
X115571500Y-86299150D01*
X115571500Y-86311850D01*
X115009525Y-86273750D01*
X113917325Y-86273750D01*
X113917325Y-86648400D01*
X116076325Y-86648400D01*
X116076325Y-86168975D01*
X115041275Y-85822900D01*
X115041275Y-85787975D01*
X116076325Y-85435550D01*
X116076325Y-84962475D01*
X113917325Y-84962475D01*
X113227292Y-84962475D01*
X113227292Y-83908375D01*
G37*
%TO.C,kibuzzard-64503F5F*%
G36*
X146560816Y-64926150D02*
G01*
X145629747Y-64926150D01*
X145291609Y-64892812D01*
X145291609Y-64899956D01*
X146560816Y-65480981D01*
X146560816Y-65852456D01*
X144941566Y-65852456D01*
X144941566Y-65559563D01*
X145872634Y-65559563D01*
X146210772Y-65592900D01*
X146210772Y-65585756D01*
X144941566Y-65004731D01*
X144941566Y-64633256D01*
X146560816Y-64633256D01*
X146560816Y-64926150D01*
G37*
G36*
X146576794Y-66578738D02*
G01*
X146571664Y-66698065D01*
X146547057Y-66857608D01*
X146506047Y-66985931D01*
X146407523Y-67130592D01*
X146259587Y-67226437D01*
X146128751Y-67266125D01*
X145966429Y-67289937D01*
X145772622Y-67297875D01*
X145587281Y-67290996D01*
X145431309Y-67270358D01*
X145304706Y-67235963D01*
X145157962Y-67152321D01*
X145053484Y-67025222D01*
X145004272Y-66912377D01*
X144967759Y-66772280D01*
X144943947Y-66604931D01*
X144935017Y-66490631D01*
X144932702Y-66390619D01*
X145193978Y-66390619D01*
X145196955Y-66483487D01*
X145205884Y-66595406D01*
X145231780Y-66732626D01*
X145276131Y-66834722D01*
X145344592Y-66907052D01*
X145442819Y-66954975D01*
X145577657Y-66981764D01*
X145755953Y-66990694D01*
X145944370Y-66981466D01*
X146085756Y-66953784D01*
X146187257Y-66904076D01*
X146256016Y-66828769D01*
X146297687Y-66722208D01*
X146317928Y-66578738D01*
X146310784Y-66390619D01*
X145193978Y-66390619D01*
X144932702Y-66390619D01*
X144932041Y-66362044D01*
X144934422Y-66231075D01*
X144941566Y-66085819D01*
X146560816Y-66085819D01*
X146571399Y-66241658D01*
X146577749Y-66382152D01*
X146579866Y-66507300D01*
X146576794Y-66578738D01*
G37*
G36*
X145952142Y-63208872D02*
G01*
X146120020Y-63229112D01*
X146254825Y-63262847D01*
X146406630Y-63344107D01*
X146507237Y-63466444D01*
X146548909Y-63575187D01*
X146573912Y-63710919D01*
X146582247Y-63873637D01*
X146575698Y-64020084D01*
X146556053Y-64145100D01*
X146517953Y-64270711D01*
X146456041Y-64418944D01*
X145648797Y-64418944D01*
X145648797Y-63795056D01*
X145908353Y-63795056D01*
X145908353Y-64130812D01*
X146272684Y-64130812D01*
X146309594Y-64012941D01*
X146320309Y-63866494D01*
X146307808Y-63739990D01*
X146270303Y-63646228D01*
X146202735Y-63579851D01*
X146100044Y-63535500D01*
X145954490Y-63510497D01*
X145758334Y-63502162D01*
X145557714Y-63509604D01*
X145408291Y-63531928D01*
X145302325Y-63572112D01*
X145232078Y-63633131D01*
X145192787Y-63719452D01*
X145179691Y-63835537D01*
X145198741Y-64003416D01*
X145261844Y-64092713D01*
X145389241Y-64128431D01*
X145389241Y-64423706D01*
X145224934Y-64402573D01*
X145103491Y-64358222D01*
X145017766Y-64285296D01*
X144960616Y-64178437D01*
X144928469Y-64030205D01*
X144917753Y-63833156D01*
X144926088Y-63680624D01*
X144951091Y-63553227D01*
X144992762Y-63450966D01*
X145093370Y-63335773D01*
X145245175Y-63259275D01*
X145380245Y-63227525D01*
X145548917Y-63208475D01*
X145751191Y-63202125D01*
X145952142Y-63208872D01*
G37*
%TO.C,kibuzzard-64503E35*%
G36*
X175528653Y-58809893D02*
G01*
X175317197Y-58809893D01*
X175317197Y-58571768D01*
X174444707Y-58571768D01*
X174444707Y-58796558D01*
X174233252Y-58796558D01*
X174233252Y-58108852D01*
X174444707Y-58108852D01*
X174444707Y-58333643D01*
X175317197Y-58333643D01*
X175317197Y-58095517D01*
X175528653Y-58095517D01*
X175528653Y-58809893D01*
G37*
G36*
X174595202Y-59368058D02*
G01*
X174489475Y-59394728D01*
X174436135Y-59460450D01*
X174419942Y-59585228D01*
X174435182Y-59709053D01*
X174485665Y-59770965D01*
X174587582Y-59789063D01*
X174675212Y-59775728D01*
X174747602Y-59726198D01*
X174828089Y-59639996D01*
X174920958Y-59529983D01*
X174976441Y-59460688D01*
X175043830Y-59374725D01*
X175123126Y-59272093D01*
X175214327Y-59152793D01*
X175528653Y-59152793D01*
X175528653Y-60044333D01*
X175315293Y-60044333D01*
X175315293Y-59398538D01*
X175298147Y-59398538D01*
X175217926Y-59511673D01*
X175147441Y-59607241D01*
X175086692Y-59685240D01*
X174998586Y-59788348D01*
X174901907Y-59890028D01*
X174825707Y-59957179D01*
X174757127Y-59998613D01*
X174683309Y-60020044D01*
X174591392Y-60027188D01*
X174459709Y-60017186D01*
X174361840Y-59987183D01*
X174292784Y-59933604D01*
X174247540Y-59852880D01*
X174222537Y-59738342D01*
X174214202Y-59583323D01*
X174222775Y-59429256D01*
X174248492Y-59313765D01*
X174294451Y-59230898D01*
X174363745Y-59174700D01*
X174462091Y-59140648D01*
X174595202Y-59124218D01*
X174595202Y-59368058D01*
G37*
G36*
X175043513Y-60281823D02*
G01*
X175177497Y-60297063D01*
X175284812Y-60322463D01*
X175405542Y-60383899D01*
X175485790Y-60476768D01*
X175519127Y-60559529D01*
X175539130Y-60663034D01*
X175545798Y-60787283D01*
X175537463Y-60939444D01*
X175512460Y-61053030D01*
X175467216Y-61134707D01*
X175398160Y-61191143D01*
X175300291Y-61226385D01*
X175168607Y-61244483D01*
X175168607Y-61006358D01*
X175302910Y-60945398D01*
X175329342Y-60883009D01*
X175338153Y-60787283D01*
X175327913Y-60694414D01*
X175297195Y-60625358D01*
X175242188Y-60576542D01*
X175159083Y-60544395D01*
X175041449Y-60526536D01*
X174882857Y-60520583D01*
X174722361Y-60526536D01*
X174602822Y-60544395D01*
X174518288Y-60576542D01*
X174462805Y-60625358D01*
X174432087Y-60694414D01*
X174421847Y-60787283D01*
X174431372Y-60873960D01*
X174459947Y-60932063D01*
X174514716Y-60969686D01*
X174602822Y-60994928D01*
X174602822Y-61233053D01*
X174467806Y-61218289D01*
X174367555Y-61185428D01*
X174296594Y-61130659D01*
X174249445Y-61050173D01*
X174223013Y-60937778D01*
X174214202Y-60787283D01*
X174220870Y-60663034D01*
X174240872Y-60559529D01*
X174274210Y-60476768D01*
X174354934Y-60383899D01*
X174477092Y-60322463D01*
X174585677Y-60297063D01*
X174720932Y-60281823D01*
X174882857Y-60276743D01*
X175043513Y-60281823D01*
G37*
%TO.C,kibuzzard-645040B5*%
G36*
X115684213Y-49762000D02*
G01*
X115684213Y-49768350D01*
X114776163Y-50012825D01*
X114776163Y-49517525D01*
X115684213Y-49762000D01*
G37*
G36*
X113228879Y-51590800D02*
G01*
X113890337Y-51590800D01*
X113901450Y-51797881D01*
X113934788Y-51970389D01*
X113990350Y-52108325D01*
X114124097Y-52263106D01*
X114325312Y-52365500D01*
X114504171Y-52407833D01*
X114727479Y-52433233D01*
X114995238Y-52441700D01*
X115265113Y-52433233D01*
X115490538Y-52407833D01*
X115671513Y-52365500D01*
X115875109Y-52263106D01*
X116009650Y-52108325D01*
X116065213Y-51970389D01*
X116098550Y-51797881D01*
X116109663Y-51590800D01*
X116094978Y-51339975D01*
X116050925Y-51152650D01*
X115972344Y-51018506D01*
X115854075Y-50927225D01*
X115686991Y-50872456D01*
X115461963Y-50847850D01*
X115461963Y-51244725D01*
X115608806Y-51286794D01*
X115700088Y-51349500D01*
X115747713Y-51446338D01*
X115763588Y-51590800D01*
X115746522Y-51745581D01*
X115695325Y-51860675D01*
X115602853Y-51942034D01*
X115461963Y-51995613D01*
X115262731Y-52025378D01*
X114995238Y-52035300D01*
X114730919Y-52025378D01*
X114534862Y-51995613D01*
X114396353Y-51942034D01*
X114304675Y-51860675D01*
X114253478Y-51745581D01*
X114236412Y-51590800D01*
X114251097Y-51431256D01*
X114295150Y-51327275D01*
X114518988Y-51225675D01*
X114518988Y-50828800D01*
X114299516Y-50858963D01*
X114136400Y-50917700D01*
X114021306Y-51011759D01*
X113945900Y-51147888D01*
X113904228Y-51337197D01*
X113890337Y-51590800D01*
X113228879Y-51590800D01*
X113228879Y-48863475D01*
X113918913Y-48863475D01*
X113918913Y-49266700D01*
X114436437Y-49422275D01*
X114436437Y-50108075D01*
X113918913Y-50263650D01*
X113918913Y-50666875D01*
X116077913Y-50022350D01*
X116077913Y-49508000D01*
X113918913Y-48863475D01*
X113228879Y-48863475D01*
X113228879Y-47015625D01*
X113918913Y-47015625D01*
X113918913Y-47390275D01*
X115011113Y-47390275D01*
X115573088Y-47352175D01*
X115573088Y-47364875D01*
X114639638Y-47698250D01*
X114639638Y-48018925D01*
X115573088Y-48352300D01*
X115573088Y-48365000D01*
X115011113Y-48326900D01*
X113918913Y-48326900D01*
X113918913Y-48701550D01*
X116077913Y-48701550D01*
X116077913Y-48222125D01*
X115042863Y-47876050D01*
X115042863Y-47841125D01*
X116077913Y-47488700D01*
X116077913Y-47015625D01*
X113918913Y-47015625D01*
X113228879Y-47015625D01*
X113228879Y-45558300D01*
X113918913Y-45558300D01*
X113918913Y-45952000D01*
X115436563Y-45952000D01*
X115633413Y-45939300D01*
X115531813Y-46063125D01*
X115179388Y-46634625D01*
X115598488Y-46634625D01*
X116077913Y-45952000D01*
X116077913Y-45558300D01*
X113918913Y-45558300D01*
X113228879Y-45558300D01*
X113228879Y-44896842D01*
X116771121Y-44896842D01*
X116771121Y-45558300D01*
X116771121Y-52441700D01*
X116771121Y-53103158D01*
X113228879Y-53103158D01*
X113228879Y-52441700D01*
X113228879Y-51590800D01*
G37*
%TO.C,kibuzzard-64503DC6*%
G36*
X179712979Y-80985904D02*
G01*
X179712979Y-81434531D01*
X177769879Y-82011746D01*
X177769879Y-81640271D01*
X179284354Y-81217361D01*
X179284354Y-81203074D01*
X177769879Y-80780164D01*
X177769879Y-80408689D01*
X179712979Y-80985904D01*
G37*
G36*
X179712979Y-83606231D02*
G01*
X179398654Y-83606231D01*
X179398654Y-82708976D01*
X178861444Y-82708976D01*
X178861444Y-83434781D01*
X178547119Y-83434781D01*
X178547119Y-82708976D01*
X178084204Y-82708976D01*
X178084204Y-83549081D01*
X177769879Y-83549081D01*
X177769879Y-82343216D01*
X179712979Y-82343216D01*
X179712979Y-83606231D01*
G37*
G36*
X178941056Y-77856941D02*
G01*
X178962885Y-77922664D01*
X179132906Y-78025534D01*
X179712979Y-78159836D01*
X179712979Y-78551314D01*
X179107189Y-78388436D01*
X178963599Y-78339502D01*
X178870016Y-78284137D01*
X178781434Y-78105544D01*
X178755716Y-78105544D01*
X178691422Y-78308426D01*
X178562835Y-78409867D01*
X178332806Y-78439871D01*
X178137067Y-78421655D01*
X177989906Y-78367005D01*
X177884179Y-78269136D01*
X177812741Y-78121260D01*
X177782579Y-77990291D01*
X177764481Y-77827890D01*
X177758449Y-77634056D01*
X177758836Y-77611196D01*
X178075631Y-77611196D01*
X178077774Y-77712637D01*
X178084204Y-77851226D01*
X178142782Y-78031249D01*
X178318519Y-78079826D01*
X178539975Y-78032677D01*
X178601411Y-77856941D01*
X178601411Y-77488324D01*
X178078489Y-77488324D01*
X178075631Y-77611196D01*
X177758836Y-77611196D01*
X177761306Y-77465464D01*
X177772736Y-77125421D01*
X179712979Y-77125421D01*
X179712979Y-77488324D01*
X178918594Y-77488324D01*
X178918594Y-77671204D01*
X178929667Y-77822651D01*
X178941056Y-77856941D01*
G37*
G36*
X178982570Y-75341865D02*
G01*
X179184024Y-75366154D01*
X179345790Y-75406635D01*
X179527956Y-75504147D01*
X179648685Y-75650951D01*
X179698691Y-75781444D01*
X179728695Y-75944321D01*
X179738696Y-76139584D01*
X179730838Y-76315320D01*
X179707264Y-76465339D01*
X179661544Y-76616072D01*
X179587249Y-76793951D01*
X178618556Y-76793951D01*
X178618556Y-76045286D01*
X178930024Y-76045286D01*
X178930024Y-76448194D01*
X179367221Y-76448194D01*
X179411512Y-76306747D01*
X179424371Y-76131011D01*
X179409369Y-75979207D01*
X179364364Y-75866692D01*
X179283282Y-75787040D01*
X179160053Y-75733819D01*
X178985388Y-75703815D01*
X178750001Y-75693814D01*
X178509257Y-75702743D01*
X178329949Y-75729532D01*
X178202790Y-75777753D01*
X178118494Y-75850976D01*
X178071345Y-75954561D01*
X178055629Y-76093864D01*
X178078489Y-76295317D01*
X178154212Y-76402474D01*
X178307089Y-76445336D01*
X178307089Y-76799666D01*
X178109921Y-76774306D01*
X177964189Y-76721085D01*
X177861319Y-76633574D01*
X177792739Y-76505344D01*
X177754162Y-76327464D01*
X177741304Y-76091006D01*
X177751305Y-75907967D01*
X177781309Y-75755091D01*
X177831315Y-75632377D01*
X177952044Y-75494146D01*
X178134210Y-75402349D01*
X178296294Y-75364249D01*
X178498700Y-75341389D01*
X178741429Y-75333769D01*
X178982570Y-75341865D01*
G37*
G36*
X179738696Y-79497146D02*
G01*
X179728854Y-79680185D01*
X179699326Y-79833061D01*
X179650114Y-79955775D01*
X179530813Y-80093649D01*
X179350076Y-80184375D01*
X179189104Y-80221681D01*
X178988126Y-80244065D01*
X178747144Y-80251526D01*
X178502669Y-80244065D01*
X178298834Y-80221681D01*
X178135639Y-80184375D01*
X177952402Y-80093649D01*
X177831315Y-79955775D01*
X177781309Y-79833061D01*
X177751305Y-79680185D01*
X177741304Y-79497146D01*
X178055629Y-79497146D01*
X178070988Y-79633592D01*
X178117065Y-79734319D01*
X178199932Y-79805399D01*
X178325662Y-79852905D01*
X178504613Y-79879694D01*
X178747144Y-79888624D01*
X178982530Y-79879694D01*
X179157195Y-79852905D01*
X179280782Y-79805399D01*
X179362935Y-79734319D01*
X179409012Y-79633592D01*
X179424371Y-79497146D01*
X179409012Y-79360343D01*
X179362935Y-79258545D01*
X179280782Y-79186393D01*
X179157195Y-79138530D01*
X178982530Y-79111741D01*
X178747144Y-79102811D01*
X178506399Y-79111741D01*
X178327091Y-79138530D01*
X178200290Y-79186393D01*
X178117065Y-79258545D01*
X178070988Y-79360343D01*
X178055629Y-79497146D01*
X177741304Y-79497146D01*
X177751305Y-79314107D01*
X177781309Y-79161231D01*
X177831315Y-79038517D01*
X177952402Y-78900643D01*
X178135639Y-78809917D01*
X178298834Y-78772611D01*
X178502669Y-78750227D01*
X178747144Y-78742766D01*
X178988126Y-78750227D01*
X179189104Y-78772611D01*
X179350076Y-78809917D01*
X179530813Y-78900643D01*
X179650114Y-79038517D01*
X179699326Y-79161231D01*
X179728854Y-79314107D01*
X179738696Y-79497146D01*
G37*
D14*
%TO.C,TP3*%
X187800000Y-86500000D02*
G75*
G03*
X187800000Y-86500000I-1200000J0D01*
G01*
D15*
%TO.C,J10*%
X186139160Y-71675000D02*
X186139160Y-73875000D01*
X184239160Y-71675000D02*
X186139160Y-71675000D01*
X180639160Y-71675000D02*
X181349660Y-71675000D01*
X180639160Y-71675000D02*
X180639160Y-83675000D01*
X186139160Y-73875000D02*
X184849160Y-73875000D01*
X184849780Y-75326500D02*
X184849780Y-76025000D01*
X184849780Y-77326500D02*
X184849780Y-78025000D01*
X184849780Y-79323960D02*
X184849780Y-80025000D01*
X186139160Y-81475000D02*
X186139160Y-83675000D01*
X184849780Y-81475000D02*
X186139160Y-81475000D01*
X184214160Y-83675000D02*
X186139160Y-83675000D01*
X180639160Y-83675000D02*
X181349660Y-83675000D01*
%TO.C,J9*%
X186150000Y-58100000D02*
X186150000Y-60300000D01*
X184250000Y-58100000D02*
X186150000Y-58100000D01*
X180650000Y-58100000D02*
X181360500Y-58100000D01*
X180650000Y-58100000D02*
X180650000Y-70100000D01*
X186150000Y-60300000D02*
X184860000Y-60300000D01*
X184860620Y-61751500D02*
X184860620Y-62450000D01*
X184860620Y-63751500D02*
X184860620Y-64450000D01*
X184860620Y-65748960D02*
X184860620Y-66450000D01*
X186150000Y-67900000D02*
X186150000Y-70100000D01*
X184860620Y-67900000D02*
X186150000Y-67900000D01*
X184225000Y-70100000D02*
X186150000Y-70100000D01*
X180650000Y-70100000D02*
X181360500Y-70100000D01*
%TO.C,kibuzzard-645046E4*%
G36*
X187891985Y-89628337D02*
G01*
X187891985Y-89927422D01*
X186596585Y-90312232D01*
X186596585Y-90064582D01*
X187606235Y-89782642D01*
X187606235Y-89773117D01*
X186596585Y-89491177D01*
X186596585Y-89243527D01*
X187891985Y-89628337D01*
G37*
G36*
X187891985Y-92988757D02*
G01*
X187326200Y-92988757D01*
X187326200Y-93426907D01*
X187891985Y-93426907D01*
X187891985Y-93670748D01*
X186596585Y-93670748D01*
X186596585Y-93426907D01*
X187110935Y-93426907D01*
X187110935Y-92988757D01*
X186596585Y-92988757D01*
X186596585Y-92744918D01*
X187891985Y-92744918D01*
X187891985Y-92988757D01*
G37*
G36*
X187419545Y-94287967D02*
G01*
X187419545Y-94307017D01*
X187415418Y-94433806D01*
X187403035Y-94539851D01*
X187382397Y-94625153D01*
X187332629Y-94721117D01*
X187257620Y-94784220D01*
X187151416Y-94819224D01*
X187008065Y-94830893D01*
X186862809Y-94817319D01*
X186754700Y-94776600D01*
X186678262Y-94703257D01*
X186628017Y-94591815D01*
X186607380Y-94492649D01*
X186594997Y-94369142D01*
X186591774Y-94253677D01*
X186802325Y-94253677D01*
X186806849Y-94370121D01*
X186820422Y-94456560D01*
X186880430Y-94558478D01*
X187000445Y-94588958D01*
X187126175Y-94562288D01*
X187189040Y-94470847D01*
X187203327Y-94392743D01*
X187208090Y-94287967D01*
X187208090Y-94167952D01*
X186802325Y-94167952D01*
X186802325Y-94253677D01*
X186591774Y-94253677D01*
X186590870Y-94221292D01*
X186596585Y-93924112D01*
X187891985Y-93924112D01*
X187891985Y-94167952D01*
X187419545Y-94167952D01*
X187419545Y-94287967D01*
G37*
G36*
X187868172Y-88257928D02*
G01*
X187891985Y-88341510D01*
X187904844Y-88430807D01*
X187909130Y-88536772D01*
X187898653Y-88706794D01*
X187867220Y-88835857D01*
X187812451Y-88929441D01*
X187731965Y-88993020D01*
X187620999Y-89029453D01*
X187474790Y-89041597D01*
X187349774Y-89034454D01*
X187252857Y-89013022D01*
X187181182Y-88975637D01*
X187131890Y-88920630D01*
X187103315Y-88845621D01*
X187093790Y-88748227D01*
X187097600Y-88672027D01*
X187088075Y-88672027D01*
X186817565Y-88992067D01*
X186596585Y-88992067D01*
X186596585Y-88195777D01*
X186798515Y-88195777D01*
X186798515Y-88702507D01*
X187082360Y-88382467D01*
X187307150Y-88382467D01*
X187290005Y-88497720D01*
X187284290Y-88592017D01*
X187295720Y-88690125D01*
X187330010Y-88755847D01*
X187389065Y-88792995D01*
X187474790Y-88805377D01*
X187583137Y-88790376D01*
X187652907Y-88745370D01*
X187690769Y-88662741D01*
X187703390Y-88534867D01*
X187697199Y-88448904D01*
X187678625Y-88366275D01*
X187644811Y-88276502D01*
X187592900Y-88169107D01*
X187831025Y-88169107D01*
X187868172Y-88257928D01*
G37*
G36*
X187868172Y-90543928D02*
G01*
X187891985Y-90627510D01*
X187904844Y-90716807D01*
X187909130Y-90822772D01*
X187898653Y-90992794D01*
X187867220Y-91121857D01*
X187812451Y-91215441D01*
X187731965Y-91279020D01*
X187620999Y-91315453D01*
X187474790Y-91327597D01*
X187349774Y-91320454D01*
X187252857Y-91299022D01*
X187181182Y-91261637D01*
X187131890Y-91206630D01*
X187103315Y-91131621D01*
X187093790Y-91034227D01*
X187097600Y-90958027D01*
X187088075Y-90958027D01*
X186817565Y-91278067D01*
X186596585Y-91278067D01*
X186596585Y-90481777D01*
X186798515Y-90481777D01*
X186798515Y-90988507D01*
X187082360Y-90668467D01*
X187307150Y-90668467D01*
X187290005Y-90783720D01*
X187284290Y-90878017D01*
X187295720Y-90976125D01*
X187330010Y-91041847D01*
X187389065Y-91078995D01*
X187474790Y-91091377D01*
X187583137Y-91076376D01*
X187652907Y-91031370D01*
X187690769Y-90948741D01*
X187703390Y-90820867D01*
X187697199Y-90734904D01*
X187678625Y-90652275D01*
X187644811Y-90562502D01*
X187592900Y-90455107D01*
X187831025Y-90455107D01*
X187868172Y-90543928D01*
G37*
%TO.C,kibuzzard-64502B48*%
G36*
X134698090Y-88649566D02*
G01*
X134693327Y-88754341D01*
X134679040Y-88832446D01*
X134616175Y-88923886D01*
X134490445Y-88950556D01*
X134370430Y-88920076D01*
X134310422Y-88818158D01*
X134296849Y-88731719D01*
X134292325Y-88615276D01*
X134292325Y-88529551D01*
X134698090Y-88529551D01*
X134698090Y-88649566D01*
G37*
G36*
X135796005Y-85405351D02*
G01*
X135796005Y-86879821D01*
X135796005Y-88076161D01*
X135796005Y-88529551D01*
X135796005Y-89756371D01*
X135796005Y-90261196D01*
X135796005Y-90658071D01*
X134740000Y-91362074D01*
X133683995Y-90658071D01*
X133683995Y-90261196D01*
X133683995Y-90211666D01*
X134086585Y-90211666D01*
X134307565Y-90211666D01*
X134578075Y-89891626D01*
X134587600Y-89891626D01*
X134583790Y-89967826D01*
X134593315Y-90065219D01*
X134621890Y-90140228D01*
X134671182Y-90195235D01*
X134742857Y-90232621D01*
X134839774Y-90254052D01*
X134964790Y-90261196D01*
X135110999Y-90249051D01*
X135221965Y-90212618D01*
X135302451Y-90149039D01*
X135357220Y-90055456D01*
X135388653Y-89926392D01*
X135399130Y-89756371D01*
X135394844Y-89650405D01*
X135381985Y-89561108D01*
X135358172Y-89477526D01*
X135321025Y-89388706D01*
X135082900Y-89388706D01*
X135134811Y-89496100D01*
X135168625Y-89585873D01*
X135187199Y-89668503D01*
X135193390Y-89754466D01*
X135180769Y-89882339D01*
X135142907Y-89964968D01*
X135073137Y-90009974D01*
X134964790Y-90024976D01*
X134879065Y-90012593D01*
X134820010Y-89975446D01*
X134785720Y-89909723D01*
X134774290Y-89811616D01*
X134780005Y-89717318D01*
X134797150Y-89602066D01*
X134572360Y-89602066D01*
X134288515Y-89922106D01*
X134288515Y-89415376D01*
X134086585Y-89415376D01*
X134086585Y-90211666D01*
X133683995Y-90211666D01*
X133683995Y-88582891D01*
X134080870Y-88582891D01*
X134084997Y-88730740D01*
X134097380Y-88854248D01*
X134118017Y-88953413D01*
X134168262Y-89064856D01*
X134244700Y-89138198D01*
X134352809Y-89178918D01*
X134498065Y-89192491D01*
X134641416Y-89180823D01*
X134747620Y-89145818D01*
X134822629Y-89082715D01*
X134872397Y-88986751D01*
X134893035Y-88901449D01*
X134905418Y-88795404D01*
X134909545Y-88668616D01*
X134909545Y-88529551D01*
X135381985Y-88529551D01*
X135381985Y-88285711D01*
X134086585Y-88285711D01*
X134080870Y-88582891D01*
X133683995Y-88582891D01*
X133683995Y-88076161D01*
X134086585Y-88076161D01*
X135381985Y-88076161D01*
X135381985Y-87851371D01*
X134726665Y-87851371D01*
X134389480Y-87874231D01*
X134389480Y-87866611D01*
X134949550Y-87666586D01*
X134949550Y-87474181D01*
X134389480Y-87274156D01*
X134389480Y-87266536D01*
X134726665Y-87289396D01*
X135381985Y-87289396D01*
X135381985Y-87064606D01*
X134086585Y-87064606D01*
X134086585Y-87352261D01*
X134707615Y-87559906D01*
X134707615Y-87580861D01*
X134086585Y-87792316D01*
X134086585Y-88076161D01*
X133683995Y-88076161D01*
X133683995Y-86841721D01*
X134086585Y-86841721D01*
X134296135Y-86841721D01*
X134296135Y-86281651D01*
X134604745Y-86281651D01*
X134604745Y-86765521D01*
X134814295Y-86765521D01*
X134814295Y-86281651D01*
X135172435Y-86281651D01*
X135172435Y-86879821D01*
X135381985Y-86879821D01*
X135381985Y-86037811D01*
X134086585Y-86037811D01*
X134086585Y-86841721D01*
X133683995Y-86841721D01*
X133683995Y-85752061D01*
X134086585Y-85752061D01*
X134303755Y-85752061D01*
X134303755Y-85405351D01*
X135381985Y-85405351D01*
X135381985Y-85161511D01*
X134303755Y-85161511D01*
X134303755Y-84814801D01*
X134086585Y-84814801D01*
X134086585Y-85752061D01*
X133683995Y-85752061D01*
X133683995Y-84814801D01*
X133683995Y-84417926D01*
X135796005Y-84417926D01*
X135796005Y-84814801D01*
X135796005Y-85405351D01*
G37*
%TO.C,kibuzzard-64503DC6*%
G36*
X126260121Y-64019729D02*
G01*
X124745646Y-64442639D01*
X124745646Y-64456926D01*
X126260121Y-64879836D01*
X126260121Y-65251311D01*
X124317021Y-64674096D01*
X124317021Y-64225469D01*
X126260121Y-63648254D01*
X126260121Y-64019729D01*
G37*
G36*
X124631346Y-62951024D02*
G01*
X125168556Y-62951024D01*
X125168556Y-62225219D01*
X125482881Y-62225219D01*
X125482881Y-62951024D01*
X125945796Y-62951024D01*
X125945796Y-62110919D01*
X126260121Y-62110919D01*
X126260121Y-63316784D01*
X124317021Y-63316784D01*
X124317021Y-62053769D01*
X124631346Y-62053769D01*
X124631346Y-62951024D01*
G37*
G36*
X125088944Y-67803059D02*
G01*
X125067115Y-67737336D01*
X124897094Y-67634466D01*
X124317021Y-67500164D01*
X124317021Y-67108686D01*
X124922811Y-67271564D01*
X125066401Y-67320498D01*
X125159984Y-67375863D01*
X125248566Y-67554456D01*
X125274284Y-67554456D01*
X125338578Y-67351574D01*
X125467165Y-67250133D01*
X125697194Y-67220129D01*
X125892933Y-67238345D01*
X126040094Y-67292995D01*
X126145821Y-67390864D01*
X126217259Y-67538740D01*
X126247421Y-67669709D01*
X126265519Y-67832110D01*
X126271551Y-68025944D01*
X126268694Y-68194536D01*
X126257264Y-68534579D01*
X124317021Y-68534579D01*
X124317021Y-68171676D01*
X125111406Y-68171676D01*
X125428589Y-68171676D01*
X125951511Y-68171676D01*
X125954369Y-68048804D01*
X125952226Y-67947363D01*
X125945796Y-67808774D01*
X125887218Y-67628751D01*
X125711481Y-67580174D01*
X125490025Y-67627323D01*
X125428589Y-67803059D01*
X125428589Y-68171676D01*
X125111406Y-68171676D01*
X125111406Y-67988796D01*
X125100333Y-67837349D01*
X125088944Y-67803059D01*
G37*
G36*
X125920079Y-68885694D02*
G01*
X126065811Y-68938915D01*
X126168681Y-69026426D01*
X126237261Y-69154656D01*
X126275838Y-69332536D01*
X126288696Y-69568994D01*
X126278695Y-69752033D01*
X126248691Y-69904909D01*
X126198685Y-70027623D01*
X126077956Y-70165854D01*
X125895790Y-70257651D01*
X125733706Y-70295751D01*
X125531300Y-70318611D01*
X125288571Y-70326231D01*
X125047430Y-70318135D01*
X124845976Y-70293846D01*
X124684210Y-70253365D01*
X124502044Y-70155853D01*
X124381315Y-70009049D01*
X124331309Y-69878556D01*
X124301305Y-69715679D01*
X124291304Y-69520416D01*
X124299162Y-69344680D01*
X124322736Y-69194661D01*
X124368456Y-69043928D01*
X124442751Y-68866049D01*
X125411444Y-68866049D01*
X125411444Y-69614714D01*
X125099976Y-69614714D01*
X125099976Y-69211806D01*
X124662779Y-69211806D01*
X124618488Y-69353253D01*
X124605629Y-69528989D01*
X124620631Y-69680793D01*
X124665636Y-69793308D01*
X124746718Y-69872960D01*
X124869947Y-69926181D01*
X125044612Y-69956185D01*
X125279999Y-69966186D01*
X125520743Y-69957257D01*
X125700051Y-69930468D01*
X125827210Y-69882247D01*
X125911506Y-69809024D01*
X125958655Y-69705439D01*
X125974371Y-69566136D01*
X125951511Y-69364683D01*
X125875788Y-69257526D01*
X125722911Y-69214664D01*
X125722911Y-68860334D01*
X125920079Y-68885694D01*
G37*
G36*
X124291304Y-66162854D02*
G01*
X124605629Y-66162854D01*
X124620988Y-66299657D01*
X124667065Y-66401455D01*
X124749218Y-66473607D01*
X124872805Y-66521470D01*
X125047470Y-66548259D01*
X125282856Y-66557189D01*
X125523601Y-66548259D01*
X125702909Y-66521470D01*
X125829710Y-66473607D01*
X125912935Y-66401455D01*
X125959012Y-66299657D01*
X125974371Y-66162854D01*
X125959012Y-66026408D01*
X125912935Y-65925681D01*
X125830068Y-65854601D01*
X125704338Y-65807095D01*
X125525387Y-65780306D01*
X125282856Y-65771376D01*
X125047470Y-65780306D01*
X124872805Y-65807095D01*
X124749218Y-65854601D01*
X124667065Y-65925681D01*
X124620988Y-66026408D01*
X124605629Y-66162854D01*
X124291304Y-66162854D01*
X124301146Y-65979815D01*
X124330674Y-65826939D01*
X124379886Y-65704225D01*
X124499187Y-65566351D01*
X124679924Y-65475625D01*
X124840896Y-65438319D01*
X125041874Y-65415935D01*
X125282856Y-65408474D01*
X125527331Y-65415935D01*
X125731166Y-65438319D01*
X125894361Y-65475625D01*
X126077598Y-65566351D01*
X126198685Y-65704225D01*
X126248691Y-65826939D01*
X126278695Y-65979815D01*
X126288696Y-66162854D01*
X126278695Y-66345893D01*
X126248691Y-66498769D01*
X126198685Y-66621483D01*
X126077598Y-66759357D01*
X125894361Y-66850083D01*
X125731166Y-66887389D01*
X125527331Y-66909773D01*
X125282856Y-66917234D01*
X125041874Y-66909773D01*
X124840896Y-66887389D01*
X124679924Y-66850083D01*
X124499187Y-66759357D01*
X124379886Y-66621483D01*
X124330674Y-66498769D01*
X124301146Y-66345893D01*
X124291304Y-66162854D01*
G37*
%TO.C,kibuzzard-64503DEE*%
G36*
X177280558Y-76516135D02*
G01*
X177280558Y-76767595D01*
X176152797Y-76916185D01*
X176152797Y-76923805D01*
X177280558Y-77070490D01*
X177280558Y-77323855D01*
X175985157Y-77478160D01*
X175985157Y-77268610D01*
X177004332Y-77192410D01*
X177004332Y-77190505D01*
X176768113Y-77175265D01*
X175985157Y-77057155D01*
X175985157Y-76782835D01*
X176768113Y-76660915D01*
X177004332Y-76647580D01*
X177004332Y-76645675D01*
X175985157Y-76571380D01*
X175985157Y-76361830D01*
X177280558Y-76516135D01*
G37*
G36*
X177280558Y-77782960D02*
G01*
X176625237Y-77782960D01*
X176288052Y-77760100D01*
X176288052Y-77767720D01*
X176848122Y-77967745D01*
X176848122Y-78160150D01*
X176288052Y-78360175D01*
X176288052Y-78367795D01*
X176625237Y-78344935D01*
X177280558Y-78344935D01*
X177280558Y-78569725D01*
X175985157Y-78569725D01*
X175985157Y-78285880D01*
X176606187Y-78074425D01*
X176606187Y-78053470D01*
X175985157Y-77845825D01*
X175985157Y-77558170D01*
X177280558Y-77558170D01*
X177280558Y-77782960D01*
G37*
G36*
X176808118Y-75714130D02*
G01*
X176808118Y-75733180D01*
X176803990Y-75859968D01*
X176791607Y-75966013D01*
X176770970Y-76051315D01*
X176721202Y-76147279D01*
X176646192Y-76210382D01*
X176539989Y-76245387D01*
X176396637Y-76257055D01*
X176251381Y-76243482D01*
X176143272Y-76202762D01*
X176066834Y-76129420D01*
X176016590Y-76017977D01*
X175995952Y-75918812D01*
X175983570Y-75795304D01*
X175980346Y-75679840D01*
X176190897Y-75679840D01*
X176195422Y-75796283D01*
X176208995Y-75882722D01*
X176269002Y-75984640D01*
X176389017Y-76015120D01*
X176514747Y-75988450D01*
X176577612Y-75897010D01*
X176591900Y-75818905D01*
X176596663Y-75714130D01*
X176596663Y-75594115D01*
X176190897Y-75594115D01*
X176190897Y-75679840D01*
X175980346Y-75679840D01*
X175979442Y-75647455D01*
X175985157Y-75350275D01*
X177280558Y-75350275D01*
X177280558Y-75594115D01*
X176808118Y-75594115D01*
X176808118Y-75714130D01*
G37*
%TO.C,kibuzzard-64503DC6*%
G36*
X179652979Y-50145904D02*
G01*
X179652979Y-50594531D01*
X177709879Y-51171746D01*
X177709879Y-50800271D01*
X179224354Y-50377361D01*
X179224354Y-50363074D01*
X177709879Y-49940164D01*
X177709879Y-49568689D01*
X179652979Y-50145904D01*
G37*
G36*
X179652979Y-52766231D02*
G01*
X179338654Y-52766231D01*
X179338654Y-51868976D01*
X178801444Y-51868976D01*
X178801444Y-52594781D01*
X178487119Y-52594781D01*
X178487119Y-51868976D01*
X178024204Y-51868976D01*
X178024204Y-52709081D01*
X177709879Y-52709081D01*
X177709879Y-51503216D01*
X179652979Y-51503216D01*
X179652979Y-52766231D01*
G37*
G36*
X178881056Y-47016941D02*
G01*
X178902885Y-47082664D01*
X179072906Y-47185534D01*
X179652979Y-47319836D01*
X179652979Y-47711314D01*
X179047189Y-47548436D01*
X178903599Y-47499502D01*
X178810016Y-47444137D01*
X178721434Y-47265544D01*
X178695716Y-47265544D01*
X178631422Y-47468426D01*
X178502835Y-47569867D01*
X178272806Y-47599871D01*
X178077067Y-47581655D01*
X177929906Y-47527005D01*
X177824179Y-47429136D01*
X177752741Y-47281260D01*
X177722579Y-47150291D01*
X177704481Y-46987890D01*
X177698449Y-46794056D01*
X177698836Y-46771196D01*
X178015631Y-46771196D01*
X178017774Y-46872637D01*
X178024204Y-47011226D01*
X178082782Y-47191249D01*
X178258519Y-47239826D01*
X178479975Y-47192677D01*
X178541411Y-47016941D01*
X178541411Y-46648324D01*
X178018489Y-46648324D01*
X178015631Y-46771196D01*
X177698836Y-46771196D01*
X177701306Y-46625464D01*
X177712736Y-46285421D01*
X179652979Y-46285421D01*
X179652979Y-46648324D01*
X178858594Y-46648324D01*
X178858594Y-46831204D01*
X178869667Y-46982651D01*
X178881056Y-47016941D01*
G37*
G36*
X178922570Y-44501865D02*
G01*
X179124024Y-44526154D01*
X179285790Y-44566635D01*
X179467956Y-44664147D01*
X179588685Y-44810951D01*
X179638691Y-44941444D01*
X179668695Y-45104321D01*
X179678696Y-45299584D01*
X179670838Y-45475320D01*
X179647264Y-45625339D01*
X179601544Y-45776072D01*
X179527249Y-45953951D01*
X178558556Y-45953951D01*
X178558556Y-45205286D01*
X178870024Y-45205286D01*
X178870024Y-45608194D01*
X179307221Y-45608194D01*
X179351512Y-45466747D01*
X179364371Y-45291011D01*
X179349369Y-45139207D01*
X179304364Y-45026692D01*
X179223282Y-44947040D01*
X179100053Y-44893819D01*
X178925388Y-44863815D01*
X178690001Y-44853814D01*
X178449257Y-44862743D01*
X178269949Y-44889532D01*
X178142790Y-44937753D01*
X178058494Y-45010976D01*
X178011345Y-45114561D01*
X177995629Y-45253864D01*
X178018489Y-45455317D01*
X178094212Y-45562474D01*
X178247089Y-45605336D01*
X178247089Y-45959666D01*
X178049921Y-45934306D01*
X177904189Y-45881085D01*
X177801319Y-45793574D01*
X177732739Y-45665344D01*
X177694162Y-45487464D01*
X177681304Y-45251006D01*
X177691305Y-45067967D01*
X177721309Y-44915091D01*
X177771315Y-44792377D01*
X177892044Y-44654146D01*
X178074210Y-44562349D01*
X178236294Y-44524249D01*
X178438700Y-44501389D01*
X178681429Y-44493769D01*
X178922570Y-44501865D01*
G37*
G36*
X179678696Y-48657146D02*
G01*
X179668854Y-48840185D01*
X179639326Y-48993061D01*
X179590114Y-49115775D01*
X179470813Y-49253649D01*
X179290076Y-49344375D01*
X179129104Y-49381681D01*
X178928126Y-49404065D01*
X178687144Y-49411526D01*
X178442669Y-49404065D01*
X178238834Y-49381681D01*
X178075639Y-49344375D01*
X177892402Y-49253649D01*
X177771315Y-49115775D01*
X177721309Y-48993061D01*
X177691305Y-48840185D01*
X177681304Y-48657146D01*
X177995629Y-48657146D01*
X178010988Y-48793592D01*
X178057065Y-48894319D01*
X178139932Y-48965399D01*
X178265662Y-49012905D01*
X178444613Y-49039694D01*
X178687144Y-49048624D01*
X178922530Y-49039694D01*
X179097195Y-49012905D01*
X179220782Y-48965399D01*
X179302935Y-48894319D01*
X179349012Y-48793592D01*
X179364371Y-48657146D01*
X179349012Y-48520343D01*
X179302935Y-48418545D01*
X179220782Y-48346393D01*
X179097195Y-48298530D01*
X178922530Y-48271741D01*
X178687144Y-48262811D01*
X178446399Y-48271741D01*
X178267091Y-48298530D01*
X178140290Y-48346393D01*
X178057065Y-48418545D01*
X178010988Y-48520343D01*
X177995629Y-48657146D01*
X177681304Y-48657146D01*
X177691305Y-48474107D01*
X177721309Y-48321231D01*
X177771315Y-48198517D01*
X177892402Y-48060643D01*
X178075639Y-47969917D01*
X178238834Y-47932611D01*
X178442669Y-47910227D01*
X178687144Y-47902766D01*
X178928126Y-47910227D01*
X179129104Y-47932611D01*
X179290076Y-47969917D01*
X179470813Y-48060643D01*
X179590114Y-48198517D01*
X179639326Y-48321231D01*
X179668854Y-48474107D01*
X179678696Y-48657146D01*
G37*
D14*
%TO.C,U6*%
X135810000Y-92525000D02*
X135810000Y-95525000D01*
X133590000Y-94025000D02*
X133590000Y-95525000D01*
%TO.C,kibuzzard-64503F69*%
G36*
X149052481Y-65143753D02*
G01*
X149052481Y-65517609D01*
X147433231Y-65998622D01*
X147433231Y-65689059D01*
X148695294Y-65336634D01*
X148695294Y-65324728D01*
X147433231Y-64972303D01*
X147433231Y-64662741D01*
X149052481Y-65143753D01*
G37*
G36*
X148459550Y-66620128D02*
G01*
X148973900Y-66620128D01*
X148973900Y-66901116D01*
X148459550Y-66901116D01*
X148459550Y-67382128D01*
X148207137Y-67382128D01*
X148207137Y-66901116D01*
X147707075Y-66901116D01*
X147707075Y-66620128D01*
X148207137Y-66620128D01*
X148207137Y-66139116D01*
X148459550Y-66139116D01*
X148459550Y-66620128D01*
G37*
G36*
X149052481Y-69113297D02*
G01*
X149052481Y-69427622D01*
X147642781Y-69613359D01*
X147642781Y-69622884D01*
X149052481Y-69806241D01*
X149052481Y-70122947D01*
X147433231Y-70315828D01*
X147433231Y-70053891D01*
X148707200Y-69958641D01*
X148707200Y-69956259D01*
X148411925Y-69937209D01*
X147433231Y-69789572D01*
X147433231Y-69446672D01*
X148411925Y-69294272D01*
X148707200Y-69277603D01*
X148707200Y-69275222D01*
X147433231Y-69182353D01*
X147433231Y-68920416D01*
X149052481Y-69113297D01*
G37*
G36*
X149052481Y-70696828D02*
G01*
X148233331Y-70696828D01*
X147811850Y-70668253D01*
X147811850Y-70677778D01*
X148511937Y-70927809D01*
X148511937Y-71168316D01*
X147811850Y-71418347D01*
X147811850Y-71427872D01*
X148233331Y-71399297D01*
X149052481Y-71399297D01*
X149052481Y-71680284D01*
X147433231Y-71680284D01*
X147433231Y-71325478D01*
X148209519Y-71061159D01*
X148209519Y-71034966D01*
X147433231Y-70775409D01*
X147433231Y-70415841D01*
X149052481Y-70415841D01*
X149052481Y-70696828D01*
G37*
G36*
X148461931Y-68110791D02*
G01*
X148461931Y-68134603D01*
X148456772Y-68293089D01*
X148441294Y-68425645D01*
X148415497Y-68532272D01*
X148353287Y-68652227D01*
X148259525Y-68731106D01*
X148126770Y-68774862D01*
X147947581Y-68789447D01*
X147766011Y-68772480D01*
X147630875Y-68721581D01*
X147535327Y-68629903D01*
X147472522Y-68490600D01*
X147446725Y-68366643D01*
X147431247Y-68212258D01*
X147427218Y-68067928D01*
X147690406Y-68067928D01*
X147696062Y-68213482D01*
X147713028Y-68321531D01*
X147788037Y-68448928D01*
X147938056Y-68487028D01*
X148095219Y-68453691D01*
X148173800Y-68339391D01*
X148191659Y-68241759D01*
X148197612Y-68110791D01*
X148197612Y-67960772D01*
X147690406Y-67960772D01*
X147690406Y-68067928D01*
X147427218Y-68067928D01*
X147426088Y-68027447D01*
X147433231Y-67655972D01*
X149052481Y-67655972D01*
X149052481Y-67960772D01*
X148461931Y-67960772D01*
X148461931Y-68110791D01*
G37*
G36*
X149022716Y-63430741D02*
G01*
X149052481Y-63535219D01*
X149068555Y-63646840D01*
X149073912Y-63779297D01*
X149060816Y-63991823D01*
X149021525Y-64153153D01*
X148953064Y-64270132D01*
X148852456Y-64349606D01*
X148713748Y-64395148D01*
X148530987Y-64410328D01*
X148374718Y-64401398D01*
X148253572Y-64374609D01*
X148163977Y-64327877D01*
X148102362Y-64259119D01*
X148066644Y-64165357D01*
X148054737Y-64043616D01*
X148059500Y-63948366D01*
X148047594Y-63948366D01*
X147709456Y-64348416D01*
X147433231Y-64348416D01*
X147433231Y-63353053D01*
X147685644Y-63353053D01*
X147685644Y-63986466D01*
X148040450Y-63586416D01*
X148321437Y-63586416D01*
X148300006Y-63730481D01*
X148292863Y-63848353D01*
X148307150Y-63970987D01*
X148350013Y-64053141D01*
X148423831Y-64099575D01*
X148530987Y-64115053D01*
X148666421Y-64096301D01*
X148753634Y-64040044D01*
X148800962Y-63936757D01*
X148816737Y-63776916D01*
X148808998Y-63669462D01*
X148785781Y-63566175D01*
X148743514Y-63453959D01*
X148678625Y-63319716D01*
X148976281Y-63319716D01*
X149022716Y-63430741D01*
G37*
%TO.C,kibuzzard-64503EFE*%
G36*
X154058434Y-67291922D02*
G01*
X153791734Y-67291922D01*
X153791734Y-66472772D01*
X152441566Y-66472772D01*
X152441566Y-66167972D01*
X154058434Y-66167972D01*
X154058434Y-67291922D01*
G37*
G36*
X153454391Y-64686041D02*
G01*
X153621872Y-64705091D01*
X153756016Y-64736841D01*
X153906927Y-64813636D01*
X154007237Y-64929722D01*
X154048909Y-65033174D01*
X154073912Y-65162555D01*
X154082247Y-65317866D01*
X154071829Y-65508068D01*
X154040575Y-65650050D01*
X153984020Y-65752146D01*
X153897700Y-65822691D01*
X153775363Y-65866744D01*
X153610759Y-65889366D01*
X153610759Y-65591709D01*
X153778637Y-65515509D01*
X153811677Y-65437523D01*
X153822691Y-65317866D01*
X153809891Y-65201780D01*
X153771494Y-65115459D01*
X153702735Y-65054440D01*
X153598853Y-65014256D01*
X153451811Y-64991932D01*
X153253572Y-64984491D01*
X153052952Y-64991932D01*
X152903528Y-65014256D01*
X152797860Y-65054440D01*
X152728506Y-65115459D01*
X152690109Y-65201780D01*
X152677309Y-65317866D01*
X152689216Y-65426212D01*
X152724934Y-65498841D01*
X152793395Y-65545870D01*
X152903528Y-65577422D01*
X152903528Y-65875078D01*
X152734757Y-65856623D01*
X152609444Y-65815547D01*
X152520742Y-65747086D01*
X152461806Y-65646478D01*
X152428766Y-65505984D01*
X152417753Y-65317866D01*
X152426088Y-65162555D01*
X152451091Y-65033174D01*
X152492762Y-64929722D01*
X152593668Y-64813636D01*
X152746366Y-64736841D01*
X152882097Y-64705091D01*
X153051166Y-64686041D01*
X153253572Y-64679691D01*
X153454391Y-64686041D01*
G37*
G36*
X153750063Y-63223556D02*
G01*
X153882222Y-63262847D01*
X153975686Y-63337559D01*
X154037003Y-63452156D01*
X154070936Y-63614974D01*
X154082247Y-63834347D01*
X154072127Y-64047171D01*
X154041766Y-64204631D01*
X153986997Y-64315657D01*
X153903653Y-64389178D01*
X153785781Y-64430255D01*
X153627428Y-64443947D01*
X153497352Y-64432636D01*
X153392875Y-64398703D01*
X153308043Y-64338279D01*
X153236903Y-64247494D01*
X153173205Y-64119204D01*
X153110697Y-63946266D01*
X153041938Y-63746538D01*
X152983300Y-63618844D01*
X152860666Y-63527166D01*
X152748747Y-63553359D01*
X152693978Y-63640275D01*
X152677309Y-63815297D01*
X152695169Y-63985556D01*
X152754700Y-64073662D01*
X152874953Y-64108191D01*
X152874953Y-64410609D01*
X152714814Y-64398703D01*
X152596347Y-64358222D01*
X152513003Y-64285891D01*
X152458234Y-64178437D01*
X152427873Y-64027526D01*
X152417753Y-63824822D01*
X152427576Y-63617951D01*
X152457044Y-63464062D01*
X152509729Y-63355120D01*
X152589203Y-63283087D01*
X152701122Y-63242904D01*
X152851141Y-63229509D01*
X152968417Y-63240820D01*
X153063072Y-63274753D01*
X153140760Y-63335773D01*
X153207137Y-63428344D01*
X153267562Y-63559610D01*
X153327391Y-63736716D01*
X153373527Y-63878102D01*
X153416687Y-63983175D01*
X153508366Y-64108191D01*
X153629809Y-64146291D01*
X153747681Y-64120097D01*
X153806022Y-64030800D01*
X153822691Y-63853397D01*
X153817333Y-63737609D01*
X153801259Y-63652181D01*
X153726250Y-63550978D01*
X153572659Y-63512878D01*
X153572659Y-63215222D01*
X153750063Y-63223556D01*
G37*
%TO.C,kibuzzard-64503E35*%
G36*
X126922803Y-69828232D02*
G01*
X127795293Y-69828232D01*
X127795293Y-69603442D01*
X128006748Y-69603442D01*
X128006748Y-70291148D01*
X127795293Y-70291148D01*
X127795293Y-70066357D01*
X126922803Y-70066357D01*
X126922803Y-70304483D01*
X126711347Y-70304483D01*
X126711347Y-69590107D01*
X126922803Y-69590107D01*
X126922803Y-69828232D01*
G37*
G36*
X126924707Y-69001462D02*
G01*
X126941853Y-69001462D01*
X127022074Y-68888327D01*
X127092559Y-68792759D01*
X127153308Y-68714760D01*
X127241414Y-68611652D01*
X127338093Y-68509972D01*
X127414293Y-68442821D01*
X127482873Y-68401387D01*
X127556691Y-68379956D01*
X127648608Y-68372812D01*
X127780291Y-68382814D01*
X127878160Y-68412817D01*
X127947216Y-68466396D01*
X127992460Y-68547120D01*
X128017463Y-68661658D01*
X128025798Y-68816677D01*
X128017225Y-68970744D01*
X127991508Y-69086235D01*
X127945549Y-69169102D01*
X127876255Y-69225300D01*
X127777909Y-69259352D01*
X127644798Y-69275782D01*
X127644798Y-69031942D01*
X127750525Y-69005272D01*
X127803865Y-68939550D01*
X127820058Y-68814772D01*
X127804818Y-68690947D01*
X127754335Y-68629035D01*
X127652418Y-68610937D01*
X127564788Y-68624272D01*
X127492398Y-68673802D01*
X127411911Y-68760004D01*
X127319042Y-68870017D01*
X127263559Y-68939312D01*
X127196170Y-69025275D01*
X127116874Y-69127907D01*
X127025673Y-69247207D01*
X126711347Y-69247207D01*
X126711347Y-68355667D01*
X126924707Y-68355667D01*
X126924707Y-69001462D01*
G37*
G36*
X127071393Y-67393642D02*
G01*
X126937090Y-67454602D01*
X126910658Y-67516991D01*
X126901847Y-67612717D01*
X126912087Y-67705586D01*
X126942805Y-67774642D01*
X126997812Y-67823458D01*
X127080917Y-67855605D01*
X127198551Y-67873464D01*
X127357143Y-67879417D01*
X127517639Y-67873464D01*
X127637178Y-67855605D01*
X127721712Y-67823458D01*
X127777195Y-67774642D01*
X127807913Y-67705586D01*
X127818153Y-67612717D01*
X127808628Y-67526040D01*
X127780053Y-67467937D01*
X127725284Y-67430314D01*
X127637178Y-67405072D01*
X127637178Y-67166947D01*
X127772194Y-67181711D01*
X127872445Y-67214572D01*
X127943406Y-67269341D01*
X127990555Y-67349827D01*
X128016987Y-67462222D01*
X128025798Y-67612717D01*
X128019130Y-67736966D01*
X127999128Y-67840471D01*
X127965790Y-67923232D01*
X127885066Y-68016101D01*
X127762908Y-68077537D01*
X127654323Y-68102937D01*
X127519068Y-68118177D01*
X127357143Y-68123257D01*
X127196487Y-68118177D01*
X127062503Y-68102937D01*
X126955188Y-68077537D01*
X126834458Y-68016101D01*
X126754210Y-67923232D01*
X126720873Y-67840471D01*
X126700870Y-67736966D01*
X126694202Y-67612717D01*
X126702537Y-67460556D01*
X126727540Y-67346970D01*
X126772784Y-67265293D01*
X126841840Y-67208857D01*
X126939709Y-67173615D01*
X127071393Y-67155517D01*
X127071393Y-67393642D01*
G37*
%TO.C,TP2*%
X178600000Y-86500000D02*
G75*
G03*
X178600000Y-86500000I-1200000J0D01*
G01*
%TO.C,kibuzzard-64503DEE*%
G36*
X177230558Y-59236135D02*
G01*
X177230558Y-59487595D01*
X176102797Y-59636185D01*
X176102797Y-59643805D01*
X177230558Y-59790490D01*
X177230558Y-60043855D01*
X175935157Y-60198160D01*
X175935157Y-59988610D01*
X176954332Y-59912410D01*
X176954332Y-59910505D01*
X176718113Y-59895265D01*
X175935157Y-59777155D01*
X175935157Y-59502835D01*
X176718113Y-59380915D01*
X176954332Y-59367580D01*
X176954332Y-59365675D01*
X175935157Y-59291380D01*
X175935157Y-59081830D01*
X177230558Y-59236135D01*
G37*
G36*
X177230558Y-60502960D02*
G01*
X176575237Y-60502960D01*
X176238052Y-60480100D01*
X176238052Y-60487720D01*
X176798122Y-60687745D01*
X176798122Y-60880150D01*
X176238052Y-61080175D01*
X176238052Y-61087795D01*
X176575237Y-61064935D01*
X177230558Y-61064935D01*
X177230558Y-61289725D01*
X175935157Y-61289725D01*
X175935157Y-61005880D01*
X176556187Y-60794425D01*
X176556187Y-60773470D01*
X175935157Y-60565825D01*
X175935157Y-60278170D01*
X177230558Y-60278170D01*
X177230558Y-60502960D01*
G37*
G36*
X176758118Y-58434130D02*
G01*
X176758118Y-58453180D01*
X176753990Y-58579968D01*
X176741607Y-58686013D01*
X176720970Y-58771315D01*
X176671202Y-58867279D01*
X176596192Y-58930382D01*
X176489989Y-58965387D01*
X176346637Y-58977055D01*
X176201381Y-58963482D01*
X176093272Y-58922762D01*
X176016834Y-58849420D01*
X175966590Y-58737977D01*
X175945952Y-58638812D01*
X175933570Y-58515304D01*
X175930346Y-58399840D01*
X176140897Y-58399840D01*
X176145422Y-58516283D01*
X176158995Y-58602722D01*
X176219002Y-58704640D01*
X176339017Y-58735120D01*
X176464747Y-58708450D01*
X176527612Y-58617010D01*
X176541900Y-58538905D01*
X176546663Y-58434130D01*
X176546663Y-58314115D01*
X176140897Y-58314115D01*
X176140897Y-58399840D01*
X175930346Y-58399840D01*
X175929442Y-58367455D01*
X175935157Y-58070275D01*
X177230558Y-58070275D01*
X177230558Y-58314115D01*
X176758118Y-58314115D01*
X176758118Y-58434130D01*
G37*
%TO.C,kibuzzard-64503DC6*%
G36*
X179672979Y-63725904D02*
G01*
X179672979Y-64174531D01*
X177729879Y-64751746D01*
X177729879Y-64380271D01*
X179244354Y-63957361D01*
X179244354Y-63943074D01*
X177729879Y-63520164D01*
X177729879Y-63148689D01*
X179672979Y-63725904D01*
G37*
G36*
X179672979Y-66346231D02*
G01*
X179358654Y-66346231D01*
X179358654Y-65448976D01*
X178821444Y-65448976D01*
X178821444Y-66174781D01*
X178507119Y-66174781D01*
X178507119Y-65448976D01*
X178044204Y-65448976D01*
X178044204Y-66289081D01*
X177729879Y-66289081D01*
X177729879Y-65083216D01*
X179672979Y-65083216D01*
X179672979Y-66346231D01*
G37*
G36*
X178901056Y-60596941D02*
G01*
X178922885Y-60662664D01*
X179092906Y-60765534D01*
X179672979Y-60899836D01*
X179672979Y-61291314D01*
X179067189Y-61128436D01*
X178923599Y-61079502D01*
X178830016Y-61024137D01*
X178741434Y-60845544D01*
X178715716Y-60845544D01*
X178651422Y-61048426D01*
X178522835Y-61149867D01*
X178292806Y-61179871D01*
X178097067Y-61161655D01*
X177949906Y-61107005D01*
X177844179Y-61009136D01*
X177772741Y-60861260D01*
X177742579Y-60730291D01*
X177724481Y-60567890D01*
X177718449Y-60374056D01*
X177718836Y-60351196D01*
X178035631Y-60351196D01*
X178037774Y-60452637D01*
X178044204Y-60591226D01*
X178102782Y-60771249D01*
X178278519Y-60819826D01*
X178499975Y-60772677D01*
X178561411Y-60596941D01*
X178561411Y-60228324D01*
X178038489Y-60228324D01*
X178035631Y-60351196D01*
X177718836Y-60351196D01*
X177721306Y-60205464D01*
X177732736Y-59865421D01*
X179672979Y-59865421D01*
X179672979Y-60228324D01*
X178878594Y-60228324D01*
X178878594Y-60411204D01*
X178889667Y-60562651D01*
X178901056Y-60596941D01*
G37*
G36*
X178942570Y-58081865D02*
G01*
X179144024Y-58106154D01*
X179305790Y-58146635D01*
X179487956Y-58244147D01*
X179608685Y-58390951D01*
X179658691Y-58521444D01*
X179688695Y-58684321D01*
X179698696Y-58879584D01*
X179690838Y-59055320D01*
X179667264Y-59205339D01*
X179621544Y-59356072D01*
X179547249Y-59533951D01*
X178578556Y-59533951D01*
X178578556Y-58785286D01*
X178890024Y-58785286D01*
X178890024Y-59188194D01*
X179327221Y-59188194D01*
X179371512Y-59046747D01*
X179384371Y-58871011D01*
X179369369Y-58719207D01*
X179324364Y-58606692D01*
X179243282Y-58527040D01*
X179120053Y-58473819D01*
X178945388Y-58443815D01*
X178710001Y-58433814D01*
X178469257Y-58442743D01*
X178289949Y-58469532D01*
X178162790Y-58517753D01*
X178078494Y-58590976D01*
X178031345Y-58694561D01*
X178015629Y-58833864D01*
X178038489Y-59035317D01*
X178114212Y-59142474D01*
X178267089Y-59185336D01*
X178267089Y-59539666D01*
X178069921Y-59514306D01*
X177924189Y-59461085D01*
X177821319Y-59373574D01*
X177752739Y-59245344D01*
X177714162Y-59067464D01*
X177701304Y-58831006D01*
X177711305Y-58647967D01*
X177741309Y-58495091D01*
X177791315Y-58372377D01*
X177912044Y-58234146D01*
X178094210Y-58142349D01*
X178256294Y-58104249D01*
X178458700Y-58081389D01*
X178701429Y-58073769D01*
X178942570Y-58081865D01*
G37*
G36*
X179698696Y-62237146D02*
G01*
X179688854Y-62420185D01*
X179659326Y-62573061D01*
X179610114Y-62695775D01*
X179490813Y-62833649D01*
X179310076Y-62924375D01*
X179149104Y-62961681D01*
X178948126Y-62984065D01*
X178707144Y-62991526D01*
X178462669Y-62984065D01*
X178258834Y-62961681D01*
X178095639Y-62924375D01*
X177912402Y-62833649D01*
X177791315Y-62695775D01*
X177741309Y-62573061D01*
X177711305Y-62420185D01*
X177701304Y-62237146D01*
X178015629Y-62237146D01*
X178030988Y-62373592D01*
X178077065Y-62474319D01*
X178159932Y-62545399D01*
X178285662Y-62592905D01*
X178464613Y-62619694D01*
X178707144Y-62628624D01*
X178942530Y-62619694D01*
X179117195Y-62592905D01*
X179240782Y-62545399D01*
X179322935Y-62474319D01*
X179369012Y-62373592D01*
X179384371Y-62237146D01*
X179369012Y-62100343D01*
X179322935Y-61998545D01*
X179240782Y-61926393D01*
X179117195Y-61878530D01*
X178942530Y-61851741D01*
X178707144Y-61842811D01*
X178466399Y-61851741D01*
X178287091Y-61878530D01*
X178160290Y-61926393D01*
X178077065Y-61998545D01*
X178030988Y-62100343D01*
X178015629Y-62237146D01*
X177701304Y-62237146D01*
X177711305Y-62054107D01*
X177741309Y-61901231D01*
X177791315Y-61778517D01*
X177912402Y-61640643D01*
X178095639Y-61549917D01*
X178258834Y-61512611D01*
X178462669Y-61490227D01*
X178707144Y-61482766D01*
X178948126Y-61490227D01*
X179149104Y-61512611D01*
X179310076Y-61549917D01*
X179490813Y-61640643D01*
X179610114Y-61778517D01*
X179659326Y-61901231D01*
X179688854Y-62054107D01*
X179698696Y-62237146D01*
G37*
%TO.C,kibuzzard-64503E35*%
G36*
X177278653Y-45269893D02*
G01*
X177067197Y-45269893D01*
X177067197Y-45031768D01*
X176194707Y-45031768D01*
X176194707Y-45256558D01*
X175983252Y-45256558D01*
X175983252Y-44568852D01*
X176194707Y-44568852D01*
X176194707Y-44793643D01*
X177067197Y-44793643D01*
X177067197Y-44555517D01*
X177278653Y-44555517D01*
X177278653Y-45269893D01*
G37*
G36*
X176345202Y-45828058D02*
G01*
X176239475Y-45854728D01*
X176186135Y-45920450D01*
X176169942Y-46045228D01*
X176185182Y-46169053D01*
X176235665Y-46230965D01*
X176337582Y-46249063D01*
X176425212Y-46235728D01*
X176497602Y-46186198D01*
X176578089Y-46099996D01*
X176670958Y-45989983D01*
X176726441Y-45920688D01*
X176793830Y-45834725D01*
X176873126Y-45732093D01*
X176964327Y-45612793D01*
X177278653Y-45612793D01*
X177278653Y-46504333D01*
X177065293Y-46504333D01*
X177065293Y-45858538D01*
X177048147Y-45858538D01*
X176967926Y-45971673D01*
X176897441Y-46067241D01*
X176836692Y-46145240D01*
X176748586Y-46248348D01*
X176651907Y-46350028D01*
X176575707Y-46417179D01*
X176507127Y-46458613D01*
X176433309Y-46480044D01*
X176341392Y-46487188D01*
X176209709Y-46477186D01*
X176111840Y-46447183D01*
X176042784Y-46393604D01*
X175997540Y-46312880D01*
X175972537Y-46198342D01*
X175964202Y-46043323D01*
X175972775Y-45889256D01*
X175998492Y-45773765D01*
X176044451Y-45690898D01*
X176113745Y-45634700D01*
X176212091Y-45600648D01*
X176345202Y-45584218D01*
X176345202Y-45828058D01*
G37*
G36*
X176793513Y-46741823D02*
G01*
X176927497Y-46757063D01*
X177034812Y-46782463D01*
X177155542Y-46843899D01*
X177235790Y-46936768D01*
X177269127Y-47019529D01*
X177289130Y-47123034D01*
X177295798Y-47247283D01*
X177287463Y-47399444D01*
X177262460Y-47513030D01*
X177217216Y-47594707D01*
X177148160Y-47651143D01*
X177050291Y-47686385D01*
X176918607Y-47704483D01*
X176918607Y-47466358D01*
X177052910Y-47405398D01*
X177079342Y-47343009D01*
X177088153Y-47247283D01*
X177077913Y-47154414D01*
X177047195Y-47085358D01*
X176992188Y-47036542D01*
X176909083Y-47004395D01*
X176791449Y-46986536D01*
X176632857Y-46980583D01*
X176472361Y-46986536D01*
X176352822Y-47004395D01*
X176268288Y-47036542D01*
X176212805Y-47085358D01*
X176182087Y-47154414D01*
X176171847Y-47247283D01*
X176181372Y-47333960D01*
X176209947Y-47392063D01*
X176264716Y-47429686D01*
X176352822Y-47454928D01*
X176352822Y-47693053D01*
X176217806Y-47678289D01*
X176117555Y-47645428D01*
X176046594Y-47590659D01*
X175999445Y-47510173D01*
X175973013Y-47397778D01*
X175964202Y-47247283D01*
X175970870Y-47123034D01*
X175990872Y-47019529D01*
X176024210Y-46936768D01*
X176104934Y-46843899D01*
X176227092Y-46782463D01*
X176335677Y-46757063D01*
X176470932Y-46741823D01*
X176632857Y-46736743D01*
X176793513Y-46741823D01*
G37*
%TO.C,kibuzzard-64503EF1*%
G36*
X151172672Y-66837103D02*
G01*
X151172672Y-66908541D01*
X151560816Y-67025222D01*
X151560816Y-67327641D01*
X149941566Y-66844247D01*
X149941566Y-66653747D01*
X150236841Y-66653747D01*
X150917878Y-66837103D01*
X150917878Y-66465628D01*
X150236841Y-66648984D01*
X150236841Y-66653747D01*
X149941566Y-66653747D01*
X149941566Y-66458484D01*
X151560816Y-65975091D01*
X151560816Y-66277509D01*
X151172672Y-66394191D01*
X151172672Y-66837103D01*
G37*
G36*
X151576794Y-65129747D02*
G01*
X151571664Y-65249074D01*
X151547057Y-65408618D01*
X151506047Y-65536941D01*
X151407523Y-65681602D01*
X151259587Y-65777447D01*
X151128751Y-65817134D01*
X150966429Y-65840947D01*
X150772622Y-65848884D01*
X150587281Y-65842005D01*
X150431309Y-65821368D01*
X150304706Y-65786972D01*
X150157962Y-65703330D01*
X150053484Y-65576231D01*
X150004272Y-65463386D01*
X149967759Y-65323290D01*
X149943947Y-65155941D01*
X149935017Y-65041641D01*
X149932702Y-64941628D01*
X150193978Y-64941628D01*
X150196955Y-65034497D01*
X150205884Y-65146416D01*
X150231780Y-65283635D01*
X150276131Y-65385731D01*
X150344592Y-65458062D01*
X150442819Y-65505984D01*
X150577657Y-65532773D01*
X150755953Y-65541703D01*
X150944370Y-65532476D01*
X151085756Y-65504794D01*
X151187257Y-65455085D01*
X151256016Y-65379778D01*
X151297687Y-65273217D01*
X151317928Y-65129747D01*
X151310784Y-64941628D01*
X150193978Y-64941628D01*
X149932702Y-64941628D01*
X149932041Y-64913053D01*
X149934422Y-64782084D01*
X149941566Y-64636828D01*
X151560816Y-64636828D01*
X151571399Y-64792668D01*
X151577749Y-64933161D01*
X151579866Y-65058309D01*
X151576794Y-65129747D01*
G37*
G36*
X151250063Y-63187837D02*
G01*
X151382222Y-63227128D01*
X151475686Y-63301840D01*
X151537003Y-63416437D01*
X151570936Y-63579255D01*
X151582247Y-63798628D01*
X151572127Y-64011452D01*
X151541766Y-64168912D01*
X151486997Y-64279938D01*
X151403653Y-64353459D01*
X151285781Y-64394536D01*
X151127428Y-64408228D01*
X150997352Y-64396917D01*
X150892875Y-64362984D01*
X150808043Y-64302560D01*
X150736903Y-64211775D01*
X150673205Y-64083485D01*
X150610697Y-63910547D01*
X150541938Y-63710820D01*
X150483300Y-63583125D01*
X150360666Y-63491447D01*
X150248747Y-63517641D01*
X150193978Y-63604556D01*
X150177309Y-63779578D01*
X150195169Y-63949837D01*
X150254700Y-64037944D01*
X150374953Y-64072472D01*
X150374953Y-64374891D01*
X150214814Y-64362984D01*
X150096347Y-64322503D01*
X150013003Y-64250173D01*
X149958234Y-64142719D01*
X149927873Y-63991807D01*
X149917753Y-63789103D01*
X149927576Y-63582232D01*
X149957044Y-63428344D01*
X150009729Y-63319402D01*
X150089203Y-63247369D01*
X150201122Y-63207185D01*
X150351141Y-63193791D01*
X150468417Y-63205102D01*
X150563072Y-63239034D01*
X150640760Y-63300054D01*
X150707137Y-63392625D01*
X150767562Y-63523891D01*
X150827391Y-63700997D01*
X150873527Y-63842384D01*
X150916687Y-63947456D01*
X151008366Y-64072472D01*
X151129809Y-64110572D01*
X151247681Y-64084378D01*
X151306022Y-63995081D01*
X151322691Y-63817678D01*
X151317333Y-63701890D01*
X151301259Y-63616462D01*
X151226250Y-63515259D01*
X151072659Y-63477159D01*
X151072659Y-63179503D01*
X151250063Y-63187837D01*
G37*
D15*
%TO.C,J8*%
X186150000Y-44600000D02*
X186150000Y-46800000D01*
X184250000Y-44600000D02*
X186150000Y-44600000D01*
X180650000Y-44600000D02*
X181360500Y-44600000D01*
X180650000Y-44600000D02*
X180650000Y-56600000D01*
X186150000Y-46800000D02*
X184860000Y-46800000D01*
X184860620Y-48251500D02*
X184860620Y-48950000D01*
X184860620Y-50251500D02*
X184860620Y-50950000D01*
X184860620Y-52248960D02*
X184860620Y-52950000D01*
X186150000Y-54400000D02*
X186150000Y-56600000D01*
X184860620Y-54400000D02*
X186150000Y-54400000D01*
X184225000Y-56600000D02*
X186150000Y-56600000D01*
X180650000Y-56600000D02*
X181360500Y-56600000D01*
%TO.C,J7*%
X117950000Y-70100000D02*
X117950000Y-67900000D01*
X119850000Y-70100000D02*
X117950000Y-70100000D01*
X123450000Y-70100000D02*
X122739500Y-70100000D01*
X123450000Y-70100000D02*
X123450000Y-58100000D01*
X117950000Y-67900000D02*
X119240000Y-67900000D01*
X119239380Y-66448500D02*
X119239380Y-65750000D01*
X119239380Y-64448500D02*
X119239380Y-63750000D01*
X119239380Y-62451040D02*
X119239380Y-61750000D01*
X117950000Y-60300000D02*
X117950000Y-58100000D01*
X119239380Y-60300000D02*
X117950000Y-60300000D01*
X119875000Y-58100000D02*
X117950000Y-58100000D01*
X123450000Y-58100000D02*
X122739500Y-58100000D01*
D10*
%TO.C,J2*%
X123125000Y-91100000D02*
X120125000Y-91100000D01*
D16*
X124425000Y-76200000D02*
X124425000Y-76200000D01*
X124425000Y-76000000D02*
X124425000Y-76000000D01*
D10*
X123125000Y-75100000D02*
X120125000Y-75100000D01*
D16*
X124425000Y-76000000D02*
G75*
G03*
X124425000Y-76200000I0J-100000D01*
G01*
X124425000Y-76200000D02*
G75*
G03*
X124425000Y-76000000I0J100000D01*
G01*
D10*
%TO.C,J3*%
X123075000Y-53100000D02*
X120075000Y-53100000D01*
D16*
X124375000Y-38200000D02*
X124375000Y-38200000D01*
X124375000Y-38000000D02*
X124375000Y-38000000D01*
D10*
X123075000Y-37100000D02*
X120075000Y-37100000D01*
D16*
X124375000Y-38000000D02*
G75*
G03*
X124375000Y-38200000I0J-100000D01*
G01*
X124375000Y-38200000D02*
G75*
G03*
X124375000Y-38000000I0J100000D01*
G01*
%TO.C,kibuzzard-64503E35*%
G36*
X175548653Y-76079893D02*
G01*
X175337197Y-76079893D01*
X175337197Y-75841768D01*
X174464707Y-75841768D01*
X174464707Y-76066558D01*
X174253252Y-76066558D01*
X174253252Y-75378852D01*
X174464707Y-75378852D01*
X174464707Y-75603643D01*
X175337197Y-75603643D01*
X175337197Y-75365517D01*
X175548653Y-75365517D01*
X175548653Y-76079893D01*
G37*
G36*
X174615202Y-76638058D02*
G01*
X174509475Y-76664728D01*
X174456135Y-76730450D01*
X174439942Y-76855228D01*
X174455182Y-76979053D01*
X174505665Y-77040965D01*
X174607582Y-77059063D01*
X174695212Y-77045728D01*
X174767602Y-76996198D01*
X174848089Y-76909996D01*
X174940958Y-76799983D01*
X174996441Y-76730688D01*
X175063830Y-76644725D01*
X175143126Y-76542093D01*
X175234327Y-76422793D01*
X175548653Y-76422793D01*
X175548653Y-77314333D01*
X175335293Y-77314333D01*
X175335293Y-76668538D01*
X175318147Y-76668538D01*
X175237926Y-76781673D01*
X175167441Y-76877241D01*
X175106692Y-76955240D01*
X175018586Y-77058348D01*
X174921907Y-77160028D01*
X174845707Y-77227179D01*
X174777127Y-77268613D01*
X174703309Y-77290044D01*
X174611392Y-77297188D01*
X174479709Y-77287186D01*
X174381840Y-77257183D01*
X174312784Y-77203604D01*
X174267540Y-77122880D01*
X174242537Y-77008342D01*
X174234202Y-76853323D01*
X174242775Y-76699256D01*
X174268492Y-76583765D01*
X174314451Y-76500898D01*
X174383745Y-76444700D01*
X174482091Y-76410648D01*
X174615202Y-76394218D01*
X174615202Y-76638058D01*
G37*
G36*
X175063513Y-77551823D02*
G01*
X175197497Y-77567063D01*
X175304812Y-77592463D01*
X175425542Y-77653899D01*
X175505790Y-77746768D01*
X175539127Y-77829529D01*
X175559130Y-77933034D01*
X175565798Y-78057283D01*
X175557463Y-78209444D01*
X175532460Y-78323030D01*
X175487216Y-78404707D01*
X175418160Y-78461143D01*
X175320291Y-78496385D01*
X175188607Y-78514483D01*
X175188607Y-78276358D01*
X175322910Y-78215398D01*
X175349342Y-78153009D01*
X175358153Y-78057283D01*
X175347913Y-77964414D01*
X175317195Y-77895358D01*
X175262188Y-77846542D01*
X175179083Y-77814395D01*
X175061449Y-77796536D01*
X174902857Y-77790583D01*
X174742361Y-77796536D01*
X174622822Y-77814395D01*
X174538288Y-77846542D01*
X174482805Y-77895358D01*
X174452087Y-77964414D01*
X174441847Y-78057283D01*
X174451372Y-78143960D01*
X174479947Y-78202063D01*
X174534716Y-78239686D01*
X174622822Y-78264928D01*
X174622822Y-78503053D01*
X174487806Y-78488289D01*
X174387555Y-78455428D01*
X174316594Y-78400659D01*
X174269445Y-78320173D01*
X174243013Y-78207778D01*
X174234202Y-78057283D01*
X174240870Y-77933034D01*
X174260872Y-77829529D01*
X174294210Y-77746768D01*
X174374934Y-77653899D01*
X174497092Y-77592463D01*
X174605677Y-77567063D01*
X174740932Y-77551823D01*
X174902857Y-77546743D01*
X175063513Y-77551823D01*
G37*
%TO.C,kibuzzard-645046F2*%
G36*
X178641033Y-89629095D02*
G01*
X178641033Y-89928180D01*
X177345632Y-90312990D01*
X177345632Y-90065340D01*
X178355282Y-89783400D01*
X178355282Y-89773875D01*
X177345632Y-89491935D01*
X177345632Y-89244285D01*
X178641033Y-89629095D01*
G37*
G36*
X178613410Y-88276069D02*
G01*
X178637223Y-88360365D01*
X178650081Y-88450376D01*
X178654368Y-88556580D01*
X178643652Y-88727078D01*
X178611505Y-88857570D01*
X178554831Y-88952582D01*
X178470535Y-89016638D01*
X178354092Y-89053071D01*
X178200978Y-89065215D01*
X178077391Y-89055928D01*
X177980950Y-89028068D01*
X177907608Y-88979014D01*
X177853315Y-88906148D01*
X177815453Y-88805421D01*
X177791402Y-88672785D01*
X177783782Y-88552770D01*
X177787592Y-88468950D01*
X177551373Y-88488000D01*
X177547563Y-89009970D01*
X177345632Y-89009970D01*
X177345632Y-88276545D01*
X178021907Y-88219395D01*
X178004974Y-88349358D01*
X177994814Y-88457308D01*
X177991427Y-88543245D01*
X177997143Y-88646115D01*
X178015478Y-88732078D01*
X178051435Y-88788038D01*
X178109776Y-88818756D01*
X178195263Y-88828995D01*
X178315039Y-88814231D01*
X178392430Y-88769940D01*
X178434578Y-88688025D01*
X178448628Y-88560390D01*
X178442436Y-88475379D01*
X178423863Y-88391797D01*
X178390049Y-88299167D01*
X178338138Y-88187010D01*
X178576263Y-88187010D01*
X178613410Y-88276069D01*
G37*
%TD*%
M02*
