%TF.GenerationSoftware,KiCad,Pcbnew,7.0.1*%
%TF.CreationDate,2023-05-02T11:52:05+02:00*%
%TF.ProjectId,Payload_cm4_23,5061796c-6f61-4645-9f63-6d345f32332e,rev?*%
%TF.SameCoordinates,Original*%
%TF.FileFunction,Drillmap*%
%TF.FilePolarity,Positive*%
%FSLAX45Y45*%
G04 Gerber Fmt 4.5, Leading zero omitted, Abs format (unit mm)*
G04 Created by KiCad (PCBNEW 7.0.1) date 2023-05-02 11:52:05*
%MOMM*%
%LPD*%
G01*
G04 APERTURE LIST*
%ADD10C,0.100000*%
%ADD11C,0.200000*%
%ADD12C,0.030000*%
%ADD13C,0.040000*%
%ADD14C,0.060000*%
%ADD15C,0.065000*%
%ADD16C,0.115000*%
%ADD17C,0.165000*%
%ADD18C,0.270000*%
%ADD19C,0.422000*%
G04 APERTURE END LIST*
D10*
X10930000Y-2810000D02*
X10930000Y-10010000D01*
X18930000Y-10010000D02*
X18930000Y-2810000D01*
X18530000Y-10410000D02*
G75*
G03*
X18930000Y-10010000I0J400000D01*
G01*
X10930000Y-10010000D02*
G75*
G03*
X11330000Y-10410000I400000J0D01*
G01*
X18530000Y-2410000D02*
X11330000Y-2410000D01*
X18930000Y-2810000D02*
G75*
G03*
X18530000Y-2410000I-400000J0D01*
G01*
X11330000Y-10410000D02*
X18530000Y-10410000D01*
X11330000Y-2410000D02*
G75*
G03*
X10930000Y-2810000I0J-400000D01*
G01*
D11*
D12*
X11105000Y-8825000D02*
X11135000Y-8855000D01*
X11135000Y-8825000D02*
X11105000Y-8855000D01*
X11125000Y-7797000D02*
X11155000Y-7827000D01*
X11155000Y-7797000D02*
X11125000Y-7827000D01*
X11125000Y-7935000D02*
X11155000Y-7965000D01*
X11155000Y-7935000D02*
X11125000Y-7965000D01*
X11150000Y-8335000D02*
X11180000Y-8365000D01*
X11180000Y-8335000D02*
X11150000Y-8365000D01*
X11265000Y-7725000D02*
X11295000Y-7755000D01*
X11295000Y-7725000D02*
X11265000Y-7755000D01*
X11485000Y-8075000D02*
X11515000Y-8105000D01*
X11515000Y-8075000D02*
X11485000Y-8105000D01*
X11605000Y-8310000D02*
X11635000Y-8340000D01*
X11635000Y-8310000D02*
X11605000Y-8340000D01*
X11660000Y-6095000D02*
X11690000Y-6125000D01*
X11690000Y-6095000D02*
X11660000Y-6125000D01*
X11660000Y-6295000D02*
X11690000Y-6325000D01*
X11690000Y-6295000D02*
X11660000Y-6325000D01*
X11685000Y-8310000D02*
X11715000Y-8340000D01*
X11715000Y-8310000D02*
X11685000Y-8340000D01*
X11695000Y-9100000D02*
X11725000Y-9130000D01*
X11725000Y-9100000D02*
X11695000Y-9130000D01*
X11720000Y-8855000D02*
X11750000Y-8885000D01*
X11750000Y-8855000D02*
X11720000Y-8885000D01*
X11745000Y-7495000D02*
X11775000Y-7525000D01*
X11775000Y-7495000D02*
X11745000Y-7525000D01*
X12045000Y-9585000D02*
X12075000Y-9615000D01*
X12075000Y-9585000D02*
X12045000Y-9615000D01*
X12045000Y-9677000D02*
X12075000Y-9707000D01*
X12075000Y-9677000D02*
X12045000Y-9707000D01*
X12075000Y-6495000D02*
X12105000Y-6525000D01*
X12105000Y-6495000D02*
X12075000Y-6525000D01*
X12155000Y-6695000D02*
X12185000Y-6725000D01*
X12185000Y-6695000D02*
X12155000Y-6725000D01*
X12157000Y-9016000D02*
X12187000Y-9046000D01*
X12187000Y-9016000D02*
X12157000Y-9046000D01*
X12165000Y-9995000D02*
X12195000Y-10025000D01*
X12195000Y-9995000D02*
X12165000Y-10025000D01*
X12174000Y-9134000D02*
X12204000Y-9164000D01*
X12204000Y-9134000D02*
X12174000Y-9164000D01*
X12235000Y-8795000D02*
X12265000Y-8825000D01*
X12265000Y-8795000D02*
X12235000Y-8825000D01*
X12255000Y-4695000D02*
X12285000Y-4725000D01*
X12285000Y-4695000D02*
X12255000Y-4725000D01*
X12255000Y-5195000D02*
X12285000Y-5225000D01*
X12285000Y-5195000D02*
X12255000Y-5225000D01*
X12290000Y-3795000D02*
X12320000Y-3825000D01*
X12320000Y-3795000D02*
X12290000Y-3825000D01*
X12295000Y-4795000D02*
X12325000Y-4825000D01*
X12325000Y-4795000D02*
X12295000Y-4825000D01*
X12325000Y-8895000D02*
X12355000Y-8925000D01*
X12355000Y-8895000D02*
X12325000Y-8925000D01*
X12345000Y-4695000D02*
X12375000Y-4725000D01*
X12375000Y-4695000D02*
X12345000Y-4725000D01*
X12345000Y-5195000D02*
X12375000Y-5225000D01*
X12375000Y-5195000D02*
X12345000Y-5225000D01*
X12425000Y-7595000D02*
X12455000Y-7625000D01*
X12455000Y-7595000D02*
X12425000Y-7625000D01*
X12425000Y-7895000D02*
X12455000Y-7925000D01*
X12455000Y-7895000D02*
X12425000Y-7925000D01*
X12425000Y-8195000D02*
X12455000Y-8225000D01*
X12455000Y-8195000D02*
X12425000Y-8225000D01*
X12425000Y-8495000D02*
X12455000Y-8525000D01*
X12455000Y-8495000D02*
X12425000Y-8525000D01*
X12455000Y-5095000D02*
X12485000Y-5125000D01*
X12485000Y-5095000D02*
X12455000Y-5125000D01*
X12485000Y-4095000D02*
X12515000Y-4125000D01*
X12515000Y-4095000D02*
X12485000Y-4125000D01*
X12485000Y-4395000D02*
X12515000Y-4425000D01*
X12515000Y-4395000D02*
X12485000Y-4425000D01*
X12525000Y-3885000D02*
X12555000Y-3915000D01*
X12555000Y-3885000D02*
X12525000Y-3915000D01*
X12525000Y-6985000D02*
X12555000Y-7015000D01*
X12555000Y-6985000D02*
X12525000Y-7015000D01*
X12525000Y-7085000D02*
X12555000Y-7115000D01*
X12555000Y-7085000D02*
X12525000Y-7115000D01*
X12555000Y-3685000D02*
X12585000Y-3715000D01*
X12585000Y-3685000D02*
X12555000Y-3715000D01*
X12560000Y-3590000D02*
X12590000Y-3620000D01*
X12590000Y-3590000D02*
X12560000Y-3620000D01*
X12605000Y-3395000D02*
X12635000Y-3425000D01*
X12635000Y-3395000D02*
X12605000Y-3425000D01*
X12645000Y-6985000D02*
X12675000Y-7015000D01*
X12675000Y-6985000D02*
X12645000Y-7015000D01*
X12645000Y-7085000D02*
X12675000Y-7115000D01*
X12675000Y-7085000D02*
X12645000Y-7115000D01*
X12655000Y-3585000D02*
X12685000Y-3615000D01*
X12685000Y-3585000D02*
X12655000Y-3615000D01*
X12655000Y-3685000D02*
X12685000Y-3715000D01*
X12685000Y-3685000D02*
X12655000Y-3715000D01*
X12685000Y-9585000D02*
X12715000Y-9615000D01*
X12715000Y-9585000D02*
X12685000Y-9615000D01*
X12685000Y-9677000D02*
X12715000Y-9707000D01*
X12715000Y-9677000D02*
X12685000Y-9707000D01*
X12705000Y-4995000D02*
X12735000Y-5025000D01*
X12735000Y-4995000D02*
X12705000Y-5025000D01*
X12752500Y-3885000D02*
X12782500Y-3915000D01*
X12782500Y-3885000D02*
X12752500Y-3915000D01*
X12754000Y-3968000D02*
X12784000Y-3998000D01*
X12784000Y-3968000D02*
X12754000Y-3998000D01*
X12765000Y-6985000D02*
X12795000Y-7015000D01*
X12795000Y-6985000D02*
X12765000Y-7015000D01*
X12765000Y-7085000D02*
X12795000Y-7115000D01*
X12795000Y-7085000D02*
X12765000Y-7115000D01*
X12785000Y-3585000D02*
X12815000Y-3615000D01*
X12815000Y-3585000D02*
X12785000Y-3615000D01*
X12885000Y-3585000D02*
X12915000Y-3615000D01*
X12915000Y-3585000D02*
X12885000Y-3615000D01*
X12885000Y-6985000D02*
X12915000Y-7015000D01*
X12915000Y-6985000D02*
X12885000Y-7015000D01*
X12885000Y-7085000D02*
X12915000Y-7115000D01*
X12915000Y-7085000D02*
X12885000Y-7115000D01*
X12985000Y-3585000D02*
X13015000Y-3615000D01*
X13015000Y-3585000D02*
X12985000Y-3615000D01*
X12985000Y-3685000D02*
X13015000Y-3715000D01*
X13015000Y-3685000D02*
X12985000Y-3715000D01*
X13010000Y-6985000D02*
X13040000Y-7015000D01*
X13040000Y-6985000D02*
X13010000Y-7015000D01*
X13010000Y-7085000D02*
X13040000Y-7115000D01*
X13040000Y-7085000D02*
X13010000Y-7115000D01*
X13045000Y-3420000D02*
X13075000Y-3450000D01*
X13075000Y-3420000D02*
X13045000Y-3450000D01*
X13060000Y-8600000D02*
X13090000Y-8630000D01*
X13090000Y-8600000D02*
X13060000Y-8630000D01*
X13085000Y-3585000D02*
X13115000Y-3615000D01*
X13115000Y-3585000D02*
X13085000Y-3615000D01*
X13085000Y-3685000D02*
X13115000Y-3715000D01*
X13115000Y-3685000D02*
X13085000Y-3715000D01*
X13140000Y-8665000D02*
X13170000Y-8695000D01*
X13170000Y-8665000D02*
X13140000Y-8695000D01*
X13165000Y-3420000D02*
X13195000Y-3450000D01*
X13195000Y-3420000D02*
X13165000Y-3450000D01*
X13195000Y-7032361D02*
X13225000Y-7062361D01*
X13225000Y-7032361D02*
X13195000Y-7062361D01*
X13225000Y-3585000D02*
X13255000Y-3615000D01*
X13255000Y-3585000D02*
X13225000Y-3615000D01*
X13245000Y-6815000D02*
X13275000Y-6845000D01*
X13275000Y-6815000D02*
X13245000Y-6845000D01*
X13275000Y-3895000D02*
X13305000Y-3925000D01*
X13305000Y-3895000D02*
X13275000Y-3925000D01*
X13275000Y-7032361D02*
X13305000Y-7062361D01*
X13305000Y-7032361D02*
X13275000Y-7062361D01*
X13325000Y-3175000D02*
X13355000Y-3205000D01*
X13355000Y-3175000D02*
X13325000Y-3205000D01*
X13345000Y-3725000D02*
X13375000Y-3755000D01*
X13375000Y-3725000D02*
X13345000Y-3755000D01*
X13365000Y-7130000D02*
X13395000Y-7160000D01*
X13395000Y-7130000D02*
X13365000Y-7160000D01*
X13370000Y-6955000D02*
X13400000Y-6985000D01*
X13400000Y-6955000D02*
X13370000Y-6985000D01*
X13380000Y-9625000D02*
X13410000Y-9655000D01*
X13410000Y-9625000D02*
X13380000Y-9655000D01*
X13406450Y-3885000D02*
X13436450Y-3915000D01*
X13436450Y-3885000D02*
X13406450Y-3915000D01*
X13442000Y-4070000D02*
X13472000Y-4100000D01*
X13472000Y-4070000D02*
X13442000Y-4100000D01*
X13480000Y-3977500D02*
X13510000Y-4007500D01*
X13510000Y-3977500D02*
X13480000Y-4007500D01*
X13480000Y-9625000D02*
X13510000Y-9655000D01*
X13510000Y-9625000D02*
X13480000Y-9655000D01*
X13485000Y-3885000D02*
X13515000Y-3915000D01*
X13515000Y-3885000D02*
X13485000Y-3915000D01*
X13485000Y-7130000D02*
X13515000Y-7160000D01*
X13515000Y-7130000D02*
X13485000Y-7160000D01*
X13485000Y-8605000D02*
X13515000Y-8635000D01*
X13515000Y-8605000D02*
X13485000Y-8635000D01*
X13505000Y-3725000D02*
X13535000Y-3755000D01*
X13535000Y-3725000D02*
X13505000Y-3755000D01*
X13526716Y-7633284D02*
X13556716Y-7663284D01*
X13556716Y-7633284D02*
X13526716Y-7663284D01*
X13529000Y-9188000D02*
X13559000Y-9218000D01*
X13559000Y-9188000D02*
X13529000Y-9218000D01*
X13530000Y-9105000D02*
X13560000Y-9135000D01*
X13560000Y-9105000D02*
X13530000Y-9135000D01*
X13535000Y-4195000D02*
X13565000Y-4225000D01*
X13565000Y-4195000D02*
X13535000Y-4225000D01*
X13565000Y-3885000D02*
X13595000Y-3915000D01*
X13595000Y-3885000D02*
X13565000Y-3915000D01*
X13583284Y-7576716D02*
X13613284Y-7606716D01*
X13613284Y-7576716D02*
X13583284Y-7606716D01*
X13605000Y-3645000D02*
X13635000Y-3675000D01*
X13635000Y-3645000D02*
X13605000Y-3675000D01*
X13605000Y-7130000D02*
X13635000Y-7160000D01*
X13635000Y-7130000D02*
X13605000Y-7160000D01*
X13645000Y-3885000D02*
X13675000Y-3915000D01*
X13675000Y-3885000D02*
X13645000Y-3915000D01*
X13645000Y-4195000D02*
X13675000Y-4225000D01*
X13675000Y-4195000D02*
X13645000Y-4225000D01*
X13685000Y-3715000D02*
X13715000Y-3745000D01*
X13715000Y-3715000D02*
X13685000Y-3745000D01*
X13706716Y-7533284D02*
X13736716Y-7563284D01*
X13736716Y-7533284D02*
X13706716Y-7563284D01*
X13720000Y-3920000D02*
X13750000Y-3950000D01*
X13750000Y-3920000D02*
X13720000Y-3950000D01*
X13725000Y-6955000D02*
X13755000Y-6985000D01*
X13755000Y-6955000D02*
X13725000Y-6985000D01*
X13725000Y-7130000D02*
X13755000Y-7160000D01*
X13755000Y-7130000D02*
X13725000Y-7160000D01*
X13763284Y-7476716D02*
X13793284Y-7506716D01*
X13793284Y-7476716D02*
X13763284Y-7506716D01*
X13765000Y-3615000D02*
X13795000Y-3645000D01*
X13795000Y-3615000D02*
X13765000Y-3645000D01*
X13836734Y-6695000D02*
X13866734Y-6725000D01*
X13866734Y-6695000D02*
X13836734Y-6725000D01*
X13836734Y-6775000D02*
X13866734Y-6805000D01*
X13866734Y-6775000D02*
X13836734Y-6805000D01*
X13845000Y-3975000D02*
X13875000Y-4005000D01*
X13875000Y-3975000D02*
X13845000Y-4005000D01*
X13845000Y-4075000D02*
X13875000Y-4105000D01*
X13875000Y-4075000D02*
X13845000Y-4105000D01*
X13845000Y-6955000D02*
X13875000Y-6985000D01*
X13875000Y-6955000D02*
X13845000Y-6985000D01*
X13845000Y-7130000D02*
X13875000Y-7160000D01*
X13875000Y-7130000D02*
X13845000Y-7160000D01*
X13865000Y-3685000D02*
X13895000Y-3715000D01*
X13895000Y-3685000D02*
X13865000Y-3715000D01*
X13876716Y-7443284D02*
X13906716Y-7473284D01*
X13906716Y-7443284D02*
X13876716Y-7473284D01*
X13933284Y-7386716D02*
X13963284Y-7416716D01*
X13963284Y-7386716D02*
X13933284Y-7416716D01*
X13945000Y-3695000D02*
X13975000Y-3725000D01*
X13975000Y-3695000D02*
X13945000Y-3725000D01*
X13965000Y-6955000D02*
X13995000Y-6985000D01*
X13995000Y-6955000D02*
X13965000Y-6985000D01*
X13965000Y-7130000D02*
X13995000Y-7160000D01*
X13995000Y-7130000D02*
X13965000Y-7160000D01*
X13985000Y-4150000D02*
X14015000Y-4180000D01*
X14015000Y-4150000D02*
X13985000Y-4180000D01*
X13986734Y-6545000D02*
X14016734Y-6575000D01*
X14016734Y-6545000D02*
X13986734Y-6575000D01*
X13986734Y-6625000D02*
X14016734Y-6655000D01*
X14016734Y-6625000D02*
X13986734Y-6655000D01*
X13995000Y-7285000D02*
X14025000Y-7315000D01*
X14025000Y-7285000D02*
X13995000Y-7315000D01*
X14025000Y-3605000D02*
X14055000Y-3635000D01*
X14055000Y-3605000D02*
X14025000Y-3635000D01*
X14040000Y-4435000D02*
X14070000Y-4465000D01*
X14070000Y-4435000D02*
X14040000Y-4465000D01*
X14056716Y-7406716D02*
X14086716Y-7436716D01*
X14086716Y-7406716D02*
X14056716Y-7436716D01*
X14075000Y-7285000D02*
X14105000Y-7315000D01*
X14105000Y-7285000D02*
X14075000Y-7315000D01*
X14085000Y-6955000D02*
X14115000Y-6985000D01*
X14115000Y-6955000D02*
X14085000Y-6985000D01*
X14105000Y-3583550D02*
X14135000Y-3613550D01*
X14135000Y-3583550D02*
X14105000Y-3613550D01*
X14113284Y-7463284D02*
X14143284Y-7493284D01*
X14143284Y-7463284D02*
X14113284Y-7493284D01*
X14115000Y-3890000D02*
X14145000Y-3920000D01*
X14145000Y-3890000D02*
X14115000Y-3920000D01*
X14125000Y-4225000D02*
X14155000Y-4255000D01*
X14155000Y-4225000D02*
X14125000Y-4255000D01*
X14156716Y-6413284D02*
X14186716Y-6443284D01*
X14186716Y-6413284D02*
X14156716Y-6443284D01*
X14165000Y-4435000D02*
X14195000Y-4465000D01*
X14195000Y-4435000D02*
X14165000Y-4465000D01*
X14205000Y-3585000D02*
X14235000Y-3615000D01*
X14235000Y-3585000D02*
X14205000Y-3615000D01*
X14205000Y-3875000D02*
X14235000Y-3905000D01*
X14235000Y-3875000D02*
X14205000Y-3905000D01*
X14205000Y-7130000D02*
X14235000Y-7160000D01*
X14235000Y-7130000D02*
X14205000Y-7160000D01*
X14213284Y-6356716D02*
X14243284Y-6386716D01*
X14243284Y-6356716D02*
X14213284Y-6386716D01*
X14215000Y-4065000D02*
X14245000Y-4095000D01*
X14245000Y-4065000D02*
X14215000Y-4095000D01*
X14215000Y-6775000D02*
X14245000Y-6805000D01*
X14245000Y-6775000D02*
X14215000Y-6805000D01*
X14285000Y-4435000D02*
X14315000Y-4465000D01*
X14315000Y-4435000D02*
X14285000Y-4465000D01*
X14305000Y-3585000D02*
X14335000Y-3615000D01*
X14335000Y-3585000D02*
X14305000Y-3615000D01*
X14325000Y-7130000D02*
X14355000Y-7160000D01*
X14355000Y-7130000D02*
X14325000Y-7160000D01*
X14340000Y-6775000D02*
X14370000Y-6805000D01*
X14370000Y-6775000D02*
X14340000Y-6805000D01*
X14395000Y-4085000D02*
X14425000Y-4115000D01*
X14425000Y-4085000D02*
X14395000Y-4115000D01*
X14415000Y-3585000D02*
X14445000Y-3615000D01*
X14445000Y-3585000D02*
X14415000Y-3615000D01*
X14445000Y-6565000D02*
X14475000Y-6595000D01*
X14475000Y-6565000D02*
X14445000Y-6595000D01*
X14485000Y-3985000D02*
X14515000Y-4015000D01*
X14515000Y-3985000D02*
X14485000Y-4015000D01*
X14485000Y-4085000D02*
X14515000Y-4115000D01*
X14515000Y-4085000D02*
X14485000Y-4115000D01*
X14485000Y-4435000D02*
X14515000Y-4465000D01*
X14515000Y-4435000D02*
X14485000Y-4465000D01*
X14505000Y-4225000D02*
X14535000Y-4255000D01*
X14535000Y-4225000D02*
X14505000Y-4255000D01*
X14565000Y-3555000D02*
X14595000Y-3585000D01*
X14595000Y-3555000D02*
X14565000Y-3585000D01*
X14575000Y-4085000D02*
X14605000Y-4115000D01*
X14605000Y-4085000D02*
X14575000Y-4115000D01*
X14585000Y-4430000D02*
X14615000Y-4460000D01*
X14615000Y-4430000D02*
X14585000Y-4460000D01*
X14645000Y-7485000D02*
X14675000Y-7515000D01*
X14675000Y-7485000D02*
X14645000Y-7515000D01*
X14655000Y-5925000D02*
X14685000Y-5955000D01*
X14685000Y-5925000D02*
X14655000Y-5955000D01*
X14725000Y-7485000D02*
X14755000Y-7515000D01*
X14755000Y-7485000D02*
X14725000Y-7515000D01*
X14735000Y-6045000D02*
X14765000Y-6075000D01*
X14765000Y-6045000D02*
X14735000Y-6075000D01*
X14745000Y-3695000D02*
X14775000Y-3725000D01*
X14775000Y-3695000D02*
X14745000Y-3725000D01*
X14900000Y-4980000D02*
X14930000Y-5010000D01*
X14930000Y-4980000D02*
X14900000Y-5010000D01*
X14900000Y-5080000D02*
X14930000Y-5110000D01*
X14930000Y-5080000D02*
X14900000Y-5110000D01*
X14900000Y-5180000D02*
X14930000Y-5210000D01*
X14930000Y-5180000D02*
X14900000Y-5210000D01*
X14900000Y-5280000D02*
X14930000Y-5310000D01*
X14930000Y-5280000D02*
X14900000Y-5310000D01*
X15000000Y-4980000D02*
X15030000Y-5010000D01*
X15030000Y-4980000D02*
X15000000Y-5010000D01*
X15000000Y-5080000D02*
X15030000Y-5110000D01*
X15030000Y-5080000D02*
X15000000Y-5110000D01*
X15000000Y-5180000D02*
X15030000Y-5210000D01*
X15030000Y-5180000D02*
X15000000Y-5210000D01*
X15000000Y-5280000D02*
X15030000Y-5310000D01*
X15030000Y-5280000D02*
X15000000Y-5310000D01*
X15235000Y-6855000D02*
X15265000Y-6885000D01*
X15265000Y-6855000D02*
X15235000Y-6885000D01*
X15355000Y-6855000D02*
X15385000Y-6885000D01*
X15385000Y-6855000D02*
X15355000Y-6885000D01*
X15525000Y-3625000D02*
X15555000Y-3655000D01*
X15555000Y-3625000D02*
X15525000Y-3655000D01*
X15640000Y-3980000D02*
X15670000Y-4010000D01*
X15670000Y-3980000D02*
X15640000Y-4010000D01*
X16370000Y-6655000D02*
X16400000Y-6685000D01*
X16400000Y-6655000D02*
X16370000Y-6685000D01*
X16425000Y-6575000D02*
X16455000Y-6605000D01*
X16455000Y-6575000D02*
X16425000Y-6605000D01*
X16565000Y-9735000D02*
X16595000Y-9765000D01*
X16595000Y-9735000D02*
X16565000Y-9765000D01*
X16610000Y-8755000D02*
X16640000Y-8785000D01*
X16640000Y-8755000D02*
X16610000Y-8785000D01*
X16610000Y-8930000D02*
X16640000Y-8960000D01*
X16640000Y-8930000D02*
X16610000Y-8960000D01*
X16625000Y-9945000D02*
X16655000Y-9975000D01*
X16655000Y-9945000D02*
X16625000Y-9975000D01*
X16685000Y-8755000D02*
X16715000Y-8785000D01*
X16715000Y-8755000D02*
X16685000Y-8785000D01*
X16685000Y-8930000D02*
X16715000Y-8960000D01*
X16715000Y-8930000D02*
X16685000Y-8960000D01*
X16695000Y-9855000D02*
X16725000Y-9885000D01*
X16725000Y-9855000D02*
X16695000Y-9885000D01*
X16740000Y-3865000D02*
X16770000Y-3895000D01*
X16770000Y-3865000D02*
X16740000Y-3895000D01*
X16765000Y-10167500D02*
X16795000Y-10197500D01*
X16795000Y-10167500D02*
X16765000Y-10197500D01*
X16780000Y-4605000D02*
X16810000Y-4635000D01*
X16810000Y-4605000D02*
X16780000Y-4635000D01*
X16780000Y-4705000D02*
X16810000Y-4735000D01*
X16810000Y-4705000D02*
X16780000Y-4735000D01*
X16795000Y-9945000D02*
X16825000Y-9975000D01*
X16825000Y-9945000D02*
X16795000Y-9975000D01*
X16845000Y-9735000D02*
X16875000Y-9765000D01*
X16875000Y-9735000D02*
X16845000Y-9765000D01*
X16880000Y-4605000D02*
X16910000Y-4635000D01*
X16910000Y-4605000D02*
X16880000Y-4635000D01*
X16880000Y-4705000D02*
X16910000Y-4735000D01*
X16910000Y-4705000D02*
X16880000Y-4735000D01*
X16940000Y-3865000D02*
X16970000Y-3895000D01*
X16970000Y-3865000D02*
X16940000Y-3895000D01*
X16980000Y-4605000D02*
X17010000Y-4635000D01*
X17010000Y-4605000D02*
X16980000Y-4635000D01*
X16980000Y-4705000D02*
X17010000Y-4735000D01*
X17010000Y-4705000D02*
X16980000Y-4735000D01*
X17005000Y-8750000D02*
X17035000Y-8780000D01*
X17035000Y-8750000D02*
X17005000Y-8780000D01*
X17005000Y-8825000D02*
X17035000Y-8855000D01*
X17035000Y-8825000D02*
X17005000Y-8855000D01*
X17005000Y-8900000D02*
X17035000Y-8930000D01*
X17035000Y-8900000D02*
X17005000Y-8930000D01*
X17005000Y-9105000D02*
X17035000Y-9135000D01*
X17035000Y-9105000D02*
X17005000Y-9135000D01*
X17005000Y-9180000D02*
X17035000Y-9210000D01*
X17035000Y-9180000D02*
X17005000Y-9210000D01*
X17080000Y-4605000D02*
X17110000Y-4635000D01*
X17110000Y-4605000D02*
X17080000Y-4635000D01*
X17080000Y-4705000D02*
X17110000Y-4735000D01*
X17110000Y-4705000D02*
X17080000Y-4735000D01*
X17080000Y-8750000D02*
X17110000Y-8780000D01*
X17110000Y-8750000D02*
X17080000Y-8780000D01*
X17080000Y-8825000D02*
X17110000Y-8855000D01*
X17110000Y-8825000D02*
X17080000Y-8855000D01*
X17080000Y-8900000D02*
X17110000Y-8930000D01*
X17110000Y-8900000D02*
X17080000Y-8930000D01*
X17080000Y-9105000D02*
X17110000Y-9135000D01*
X17110000Y-9105000D02*
X17080000Y-9135000D01*
X17090000Y-3865000D02*
X17120000Y-3895000D01*
X17120000Y-3865000D02*
X17090000Y-3895000D01*
X17155000Y-9105000D02*
X17185000Y-9135000D01*
X17185000Y-9105000D02*
X17155000Y-9135000D01*
X17180000Y-4605000D02*
X17210000Y-4635000D01*
X17210000Y-4605000D02*
X17180000Y-4635000D01*
X17180000Y-4705000D02*
X17210000Y-4735000D01*
X17210000Y-4705000D02*
X17180000Y-4735000D01*
X17230000Y-9105000D02*
X17260000Y-9135000D01*
X17260000Y-9105000D02*
X17230000Y-9135000D01*
X17240000Y-3865000D02*
X17270000Y-3895000D01*
X17270000Y-3865000D02*
X17240000Y-3895000D01*
X17285000Y-8750000D02*
X17315000Y-8780000D01*
X17315000Y-8750000D02*
X17285000Y-8780000D01*
X17285000Y-8825000D02*
X17315000Y-8855000D01*
X17315000Y-8825000D02*
X17285000Y-8855000D01*
X17285000Y-9325000D02*
X17315000Y-9355000D01*
X17315000Y-9325000D02*
X17285000Y-9355000D01*
X17305000Y-9105000D02*
X17335000Y-9135000D01*
X17335000Y-9105000D02*
X17305000Y-9135000D01*
X17345000Y-6655000D02*
X17375000Y-6685000D01*
X17375000Y-6655000D02*
X17345000Y-6685000D01*
X17380000Y-9105000D02*
X17410000Y-9135000D01*
X17410000Y-9105000D02*
X17380000Y-9135000D01*
X17390000Y-3865000D02*
X17420000Y-3895000D01*
X17420000Y-3865000D02*
X17390000Y-3895000D01*
X17405000Y-6575000D02*
X17435000Y-6605000D01*
X17435000Y-6575000D02*
X17405000Y-6605000D01*
X17540000Y-3585000D02*
X17570000Y-3615000D01*
X17570000Y-3585000D02*
X17540000Y-3615000D01*
X17600000Y-9325000D02*
X17630000Y-9355000D01*
X17630000Y-9325000D02*
X17600000Y-9355000D01*
X17600000Y-9495000D02*
X17630000Y-9525000D01*
X17630000Y-9495000D02*
X17600000Y-9525000D01*
X17676716Y-3583284D02*
X17706716Y-3613284D01*
X17706716Y-3583284D02*
X17676716Y-3613284D01*
X17686716Y-3986716D02*
X17716716Y-4016716D01*
X17716716Y-3986716D02*
X17686716Y-4016716D01*
X17714250Y-2959250D02*
X17744250Y-2989250D01*
X17744250Y-2959250D02*
X17714250Y-2989250D01*
X17720000Y-9275000D02*
X17750000Y-9305000D01*
X17750000Y-9275000D02*
X17720000Y-9305000D01*
X17720000Y-9350000D02*
X17750000Y-9380000D01*
X17750000Y-9350000D02*
X17720000Y-9380000D01*
X17733284Y-3526716D02*
X17763284Y-3556716D01*
X17763284Y-3526716D02*
X17733284Y-3556716D01*
X17743284Y-4043284D02*
X17773284Y-4073284D01*
X17773284Y-4043284D02*
X17743284Y-4073284D01*
X17795000Y-9275000D02*
X17825000Y-9305000D01*
X17825000Y-9275000D02*
X17795000Y-9305000D01*
X17795000Y-9350000D02*
X17825000Y-9380000D01*
X17825000Y-9350000D02*
X17795000Y-9380000D01*
X17840000Y-3590000D02*
X17870000Y-3620000D01*
X17870000Y-3590000D02*
X17840000Y-3620000D01*
X17875000Y-2905000D02*
X17905000Y-2935000D01*
X17905000Y-2905000D02*
X17875000Y-2935000D01*
X17885000Y-8960000D02*
X17915000Y-8990000D01*
X17915000Y-8960000D02*
X17885000Y-8990000D01*
X17885000Y-9035000D02*
X17915000Y-9065000D01*
X17915000Y-9035000D02*
X17885000Y-9065000D01*
X17885000Y-9110000D02*
X17915000Y-9140000D01*
X17915000Y-9110000D02*
X17885000Y-9140000D01*
X17965000Y-7770000D02*
X17995000Y-7800000D01*
X17995000Y-7770000D02*
X17965000Y-7800000D01*
X17965000Y-8200000D02*
X17995000Y-8230000D01*
X17995000Y-8200000D02*
X17965000Y-8230000D01*
X17990000Y-3585000D02*
X18020000Y-3615000D01*
X18020000Y-3585000D02*
X17990000Y-3615000D01*
X17995000Y-9060000D02*
X18025000Y-9090000D01*
X18025000Y-9060000D02*
X17995000Y-9090000D01*
X18016716Y-3838166D02*
X18046716Y-3868166D01*
X18046716Y-3838166D02*
X18016716Y-3868166D01*
X18070000Y-9060000D02*
X18100000Y-9090000D01*
X18100000Y-9060000D02*
X18070000Y-9090000D01*
X18073284Y-3894734D02*
X18103284Y-3924734D01*
X18103284Y-3894734D02*
X18073284Y-3924734D01*
X18112646Y-9352646D02*
X18142646Y-9382646D01*
X18142646Y-9352646D02*
X18112646Y-9382646D01*
X18140000Y-3585000D02*
X18170000Y-3615000D01*
X18170000Y-3585000D02*
X18140000Y-3615000D01*
X18190000Y-9110000D02*
X18220000Y-9140000D01*
X18220000Y-9110000D02*
X18190000Y-9140000D01*
X18280000Y-3370000D02*
X18310000Y-3400000D01*
X18310000Y-3370000D02*
X18280000Y-3400000D01*
X18285000Y-3265000D02*
X18315000Y-3295000D01*
X18315000Y-3265000D02*
X18285000Y-3295000D01*
X18375000Y-8555000D02*
X18405000Y-8585000D01*
X18405000Y-8555000D02*
X18375000Y-8585000D01*
X18375000Y-8630000D02*
X18405000Y-8660000D01*
X18405000Y-8630000D02*
X18375000Y-8660000D01*
X18375000Y-8705000D02*
X18405000Y-8735000D01*
X18405000Y-8705000D02*
X18375000Y-8735000D01*
X18375000Y-8780000D02*
X18405000Y-8810000D01*
X18405000Y-8780000D02*
X18375000Y-8810000D01*
X18375000Y-8855000D02*
X18405000Y-8885000D01*
X18405000Y-8855000D02*
X18375000Y-8885000D01*
X18400000Y-9110000D02*
X18430000Y-9140000D01*
X18430000Y-9110000D02*
X18400000Y-9140000D01*
X18425000Y-4615000D02*
X18455000Y-4645000D01*
X18455000Y-4615000D02*
X18425000Y-4645000D01*
X18450000Y-8555000D02*
X18480000Y-8585000D01*
X18480000Y-8555000D02*
X18450000Y-8585000D01*
X18450000Y-8630000D02*
X18480000Y-8660000D01*
X18480000Y-8630000D02*
X18450000Y-8660000D01*
X18450000Y-8705000D02*
X18480000Y-8735000D01*
X18480000Y-8705000D02*
X18450000Y-8735000D01*
X18450000Y-8780000D02*
X18480000Y-8810000D01*
X18480000Y-8780000D02*
X18450000Y-8810000D01*
X18450000Y-8855000D02*
X18480000Y-8885000D01*
X18480000Y-8855000D02*
X18450000Y-8885000D01*
X18475000Y-9110000D02*
X18505000Y-9140000D01*
X18505000Y-9110000D02*
X18475000Y-9140000D01*
X18495000Y-3885000D02*
X18525000Y-3915000D01*
X18525000Y-3885000D02*
X18495000Y-3915000D01*
X18505000Y-5345000D02*
X18535000Y-5375000D01*
X18535000Y-5345000D02*
X18505000Y-5375000D01*
X18505000Y-6492500D02*
X18535000Y-6522500D01*
X18535000Y-6492500D02*
X18505000Y-6522500D01*
X18505000Y-6695000D02*
X18535000Y-6725000D01*
X18535000Y-6695000D02*
X18505000Y-6725000D01*
X18505000Y-7852500D02*
X18535000Y-7882500D01*
X18535000Y-7852500D02*
X18505000Y-7882500D01*
X18505000Y-8045000D02*
X18535000Y-8075000D01*
X18535000Y-8045000D02*
X18505000Y-8075000D01*
X18525000Y-4615000D02*
X18555000Y-4645000D01*
X18555000Y-4615000D02*
X18525000Y-4645000D01*
X18613916Y-7852500D02*
X18643916Y-7882500D01*
X18643916Y-7852500D02*
X18613916Y-7882500D01*
X18615000Y-5145000D02*
X18645000Y-5175000D01*
X18645000Y-5145000D02*
X18615000Y-5175000D01*
X18615000Y-5345000D02*
X18645000Y-5375000D01*
X18645000Y-5345000D02*
X18615000Y-5375000D01*
X18615000Y-6695000D02*
X18645000Y-6725000D01*
X18645000Y-6695000D02*
X18615000Y-6725000D01*
X18620000Y-6492500D02*
X18650000Y-6522500D01*
X18650000Y-6492500D02*
X18620000Y-6522500D01*
X18625000Y-4425000D02*
X18655000Y-4455000D01*
X18655000Y-4425000D02*
X18625000Y-4455000D01*
X18625000Y-4515000D02*
X18655000Y-4545000D01*
X18655000Y-4515000D02*
X18625000Y-4545000D01*
X18625000Y-4615000D02*
X18655000Y-4645000D01*
X18655000Y-4615000D02*
X18625000Y-4645000D01*
X18722500Y-6492500D02*
X18752500Y-6522500D01*
X18752500Y-6492500D02*
X18722500Y-6522500D01*
X18725000Y-5145000D02*
X18755000Y-5175000D01*
X18755000Y-5145000D02*
X18725000Y-5175000D01*
X18725000Y-5345000D02*
X18755000Y-5375000D01*
X18755000Y-5345000D02*
X18725000Y-5375000D01*
X18725000Y-6695000D02*
X18755000Y-6725000D01*
X18755000Y-6695000D02*
X18725000Y-6725000D01*
X18725000Y-7852500D02*
X18755000Y-7882500D01*
X18755000Y-7852500D02*
X18725000Y-7882500D01*
X18725000Y-8045000D02*
X18755000Y-8075000D01*
X18755000Y-8045000D02*
X18725000Y-8075000D01*
X18802500Y-5040000D02*
X18832500Y-5070000D01*
X18832500Y-5040000D02*
X18802500Y-5070000D01*
X18805000Y-3370000D02*
X18835000Y-3400000D01*
X18835000Y-3370000D02*
X18805000Y-3400000D01*
X18805000Y-3490000D02*
X18835000Y-3520000D01*
X18835000Y-3490000D02*
X18805000Y-3520000D01*
D13*
X13845000Y-7800000D02*
G75*
G03*
X13845000Y-7800000I-20000J0D01*
G01*
X13845000Y-8000000D02*
G75*
G03*
X13845000Y-8000000I-20000J0D01*
G01*
X13845000Y-8200000D02*
G75*
G03*
X13845000Y-8200000I-20000J0D01*
G01*
X13845000Y-8400000D02*
G75*
G03*
X13845000Y-8400000I-20000J0D01*
G01*
X13845000Y-8600000D02*
G75*
G03*
X13845000Y-8600000I-20000J0D01*
G01*
X13845000Y-8800000D02*
G75*
G03*
X13845000Y-8800000I-20000J0D01*
G01*
X13845000Y-9000000D02*
G75*
G03*
X13845000Y-9000000I-20000J0D01*
G01*
X13845000Y-9200000D02*
G75*
G03*
X13845000Y-9200000I-20000J0D01*
G01*
X13845000Y-9400000D02*
G75*
G03*
X13845000Y-9400000I-20000J0D01*
G01*
X13845000Y-9600000D02*
G75*
G03*
X13845000Y-9600000I-20000J0D01*
G01*
X13845000Y-9800000D02*
G75*
G03*
X13845000Y-9800000I-20000J0D01*
G01*
X13845000Y-10000000D02*
G75*
G03*
X13845000Y-10000000I-20000J0D01*
G01*
X14055000Y-7800000D02*
G75*
G03*
X14055000Y-7800000I-20000J0D01*
G01*
X14055000Y-8000000D02*
G75*
G03*
X14055000Y-8000000I-20000J0D01*
G01*
X14055000Y-8200000D02*
G75*
G03*
X14055000Y-8200000I-20000J0D01*
G01*
X14055000Y-8400000D02*
G75*
G03*
X14055000Y-8400000I-20000J0D01*
G01*
X14055000Y-8600000D02*
G75*
G03*
X14055000Y-8600000I-20000J0D01*
G01*
X14055000Y-8800000D02*
G75*
G03*
X14055000Y-8800000I-20000J0D01*
G01*
X14055000Y-9000000D02*
G75*
G03*
X14055000Y-9000000I-20000J0D01*
G01*
X14055000Y-9200000D02*
G75*
G03*
X14055000Y-9200000I-20000J0D01*
G01*
X14055000Y-9400000D02*
G75*
G03*
X14055000Y-9400000I-20000J0D01*
G01*
X14055000Y-9600000D02*
G75*
G03*
X14055000Y-9600000I-20000J0D01*
G01*
X14055000Y-9800000D02*
G75*
G03*
X14055000Y-9800000I-20000J0D01*
G01*
X14055000Y-10000000D02*
G75*
G03*
X14055000Y-10000000I-20000J0D01*
G01*
X14255000Y-7800000D02*
G75*
G03*
X14255000Y-7800000I-20000J0D01*
G01*
X14255000Y-8000000D02*
G75*
G03*
X14255000Y-8000000I-20000J0D01*
G01*
X14255000Y-8200000D02*
G75*
G03*
X14255000Y-8200000I-20000J0D01*
G01*
X14255000Y-8400000D02*
G75*
G03*
X14255000Y-8400000I-20000J0D01*
G01*
X14255000Y-8600000D02*
G75*
G03*
X14255000Y-8600000I-20000J0D01*
G01*
X14255000Y-8800000D02*
G75*
G03*
X14255000Y-8800000I-20000J0D01*
G01*
X14255000Y-9000000D02*
G75*
G03*
X14255000Y-9000000I-20000J0D01*
G01*
X14255000Y-9200000D02*
G75*
G03*
X14255000Y-9200000I-20000J0D01*
G01*
X14255000Y-9400000D02*
G75*
G03*
X14255000Y-9400000I-20000J0D01*
G01*
X14255000Y-9600000D02*
G75*
G03*
X14255000Y-9600000I-20000J0D01*
G01*
X14255000Y-9800000D02*
G75*
G03*
X14255000Y-9800000I-20000J0D01*
G01*
X14255000Y-10000000D02*
G75*
G03*
X14255000Y-10000000I-20000J0D01*
G01*
X14455000Y-7800000D02*
G75*
G03*
X14455000Y-7800000I-20000J0D01*
G01*
X14455000Y-8000000D02*
G75*
G03*
X14455000Y-8000000I-20000J0D01*
G01*
X14455000Y-8200000D02*
G75*
G03*
X14455000Y-8200000I-20000J0D01*
G01*
X14455000Y-8400000D02*
G75*
G03*
X14455000Y-8400000I-20000J0D01*
G01*
X14455000Y-8600000D02*
G75*
G03*
X14455000Y-8600000I-20000J0D01*
G01*
X14455000Y-8800000D02*
G75*
G03*
X14455000Y-8800000I-20000J0D01*
G01*
X14455000Y-9000000D02*
G75*
G03*
X14455000Y-9000000I-20000J0D01*
G01*
X14455000Y-9200000D02*
G75*
G03*
X14455000Y-9200000I-20000J0D01*
G01*
X14455000Y-9400000D02*
G75*
G03*
X14455000Y-9400000I-20000J0D01*
G01*
X14455000Y-9600000D02*
G75*
G03*
X14455000Y-9600000I-20000J0D01*
G01*
X14455000Y-9800000D02*
G75*
G03*
X14455000Y-9800000I-20000J0D01*
G01*
X14455000Y-10000000D02*
G75*
G03*
X14455000Y-10000000I-20000J0D01*
G01*
X14655000Y-7800000D02*
G75*
G03*
X14655000Y-7800000I-20000J0D01*
G01*
X14655000Y-8000000D02*
G75*
G03*
X14655000Y-8000000I-20000J0D01*
G01*
X14655000Y-8200000D02*
G75*
G03*
X14655000Y-8200000I-20000J0D01*
G01*
X14655000Y-8400000D02*
G75*
G03*
X14655000Y-8400000I-20000J0D01*
G01*
X14655000Y-8600000D02*
G75*
G03*
X14655000Y-8600000I-20000J0D01*
G01*
X14655000Y-8800000D02*
G75*
G03*
X14655000Y-8800000I-20000J0D01*
G01*
X14655000Y-9000000D02*
G75*
G03*
X14655000Y-9000000I-20000J0D01*
G01*
X14655000Y-9200000D02*
G75*
G03*
X14655000Y-9200000I-20000J0D01*
G01*
X14655000Y-9400000D02*
G75*
G03*
X14655000Y-9400000I-20000J0D01*
G01*
X14655000Y-9600000D02*
G75*
G03*
X14655000Y-9600000I-20000J0D01*
G01*
X14655000Y-9800000D02*
G75*
G03*
X14655000Y-9800000I-20000J0D01*
G01*
X14655000Y-10000000D02*
G75*
G03*
X14655000Y-10000000I-20000J0D01*
G01*
X14855000Y-7800000D02*
G75*
G03*
X14855000Y-7800000I-20000J0D01*
G01*
X14855000Y-8000000D02*
G75*
G03*
X14855000Y-8000000I-20000J0D01*
G01*
X14855000Y-8200000D02*
G75*
G03*
X14855000Y-8200000I-20000J0D01*
G01*
X14855000Y-8400000D02*
G75*
G03*
X14855000Y-8400000I-20000J0D01*
G01*
X14855000Y-8600000D02*
G75*
G03*
X14855000Y-8600000I-20000J0D01*
G01*
X14855000Y-8800000D02*
G75*
G03*
X14855000Y-8800000I-20000J0D01*
G01*
X14855000Y-9000000D02*
G75*
G03*
X14855000Y-9000000I-20000J0D01*
G01*
X14855000Y-9200000D02*
G75*
G03*
X14855000Y-9200000I-20000J0D01*
G01*
X14855000Y-9400000D02*
G75*
G03*
X14855000Y-9400000I-20000J0D01*
G01*
X14855000Y-9600000D02*
G75*
G03*
X14855000Y-9600000I-20000J0D01*
G01*
X14855000Y-9800000D02*
G75*
G03*
X14855000Y-9800000I-20000J0D01*
G01*
X14855000Y-10000000D02*
G75*
G03*
X14855000Y-10000000I-20000J0D01*
G01*
X15055000Y-7800000D02*
G75*
G03*
X15055000Y-7800000I-20000J0D01*
G01*
X15055000Y-8000000D02*
G75*
G03*
X15055000Y-8000000I-20000J0D01*
G01*
X15055000Y-8200000D02*
G75*
G03*
X15055000Y-8200000I-20000J0D01*
G01*
X15055000Y-8400000D02*
G75*
G03*
X15055000Y-8400000I-20000J0D01*
G01*
X15055000Y-8600000D02*
G75*
G03*
X15055000Y-8600000I-20000J0D01*
G01*
X15055000Y-8800000D02*
G75*
G03*
X15055000Y-8800000I-20000J0D01*
G01*
X15055000Y-9000000D02*
G75*
G03*
X15055000Y-9000000I-20000J0D01*
G01*
X15055000Y-9200000D02*
G75*
G03*
X15055000Y-9200000I-20000J0D01*
G01*
X15055000Y-9400000D02*
G75*
G03*
X15055000Y-9400000I-20000J0D01*
G01*
X15055000Y-9600000D02*
G75*
G03*
X15055000Y-9600000I-20000J0D01*
G01*
X15055000Y-9800000D02*
G75*
G03*
X15055000Y-9800000I-20000J0D01*
G01*
X15055000Y-10000000D02*
G75*
G03*
X15055000Y-10000000I-20000J0D01*
G01*
X15255000Y-7800000D02*
G75*
G03*
X15255000Y-7800000I-20000J0D01*
G01*
X15255000Y-8000000D02*
G75*
G03*
X15255000Y-8000000I-20000J0D01*
G01*
X15255000Y-8200000D02*
G75*
G03*
X15255000Y-8200000I-20000J0D01*
G01*
X15255000Y-8400000D02*
G75*
G03*
X15255000Y-8400000I-20000J0D01*
G01*
X15255000Y-8600000D02*
G75*
G03*
X15255000Y-8600000I-20000J0D01*
G01*
X15255000Y-8800000D02*
G75*
G03*
X15255000Y-8800000I-20000J0D01*
G01*
X15255000Y-9000000D02*
G75*
G03*
X15255000Y-9000000I-20000J0D01*
G01*
X15255000Y-9200000D02*
G75*
G03*
X15255000Y-9200000I-20000J0D01*
G01*
X15255000Y-9400000D02*
G75*
G03*
X15255000Y-9400000I-20000J0D01*
G01*
X15255000Y-9600000D02*
G75*
G03*
X15255000Y-9600000I-20000J0D01*
G01*
X15255000Y-9800000D02*
G75*
G03*
X15255000Y-9800000I-20000J0D01*
G01*
X15255000Y-10000000D02*
G75*
G03*
X15255000Y-10000000I-20000J0D01*
G01*
X15455000Y-7800000D02*
G75*
G03*
X15455000Y-7800000I-20000J0D01*
G01*
X15455000Y-8000000D02*
G75*
G03*
X15455000Y-8000000I-20000J0D01*
G01*
X15455000Y-8200000D02*
G75*
G03*
X15455000Y-8200000I-20000J0D01*
G01*
X15455000Y-8400000D02*
G75*
G03*
X15455000Y-8400000I-20000J0D01*
G01*
X15455000Y-8600000D02*
G75*
G03*
X15455000Y-8600000I-20000J0D01*
G01*
X15455000Y-8800000D02*
G75*
G03*
X15455000Y-8800000I-20000J0D01*
G01*
X15455000Y-9000000D02*
G75*
G03*
X15455000Y-9000000I-20000J0D01*
G01*
X15455000Y-9200000D02*
G75*
G03*
X15455000Y-9200000I-20000J0D01*
G01*
X15455000Y-9400000D02*
G75*
G03*
X15455000Y-9400000I-20000J0D01*
G01*
X15455000Y-9600000D02*
G75*
G03*
X15455000Y-9600000I-20000J0D01*
G01*
X15455000Y-9800000D02*
G75*
G03*
X15455000Y-9800000I-20000J0D01*
G01*
X15455000Y-10000000D02*
G75*
G03*
X15455000Y-10000000I-20000J0D01*
G01*
X15655000Y-7800000D02*
G75*
G03*
X15655000Y-7800000I-20000J0D01*
G01*
X15655000Y-8000000D02*
G75*
G03*
X15655000Y-8000000I-20000J0D01*
G01*
X15655000Y-8200000D02*
G75*
G03*
X15655000Y-8200000I-20000J0D01*
G01*
X15655000Y-8400000D02*
G75*
G03*
X15655000Y-8400000I-20000J0D01*
G01*
X15655000Y-8600000D02*
G75*
G03*
X15655000Y-8600000I-20000J0D01*
G01*
X15655000Y-8800000D02*
G75*
G03*
X15655000Y-8800000I-20000J0D01*
G01*
X15655000Y-9000000D02*
G75*
G03*
X15655000Y-9000000I-20000J0D01*
G01*
X15655000Y-9200000D02*
G75*
G03*
X15655000Y-9200000I-20000J0D01*
G01*
X15655000Y-9400000D02*
G75*
G03*
X15655000Y-9400000I-20000J0D01*
G01*
X15655000Y-9600000D02*
G75*
G03*
X15655000Y-9600000I-20000J0D01*
G01*
X15655000Y-9800000D02*
G75*
G03*
X15655000Y-9800000I-20000J0D01*
G01*
X15655000Y-10000000D02*
G75*
G03*
X15655000Y-10000000I-20000J0D01*
G01*
X15855000Y-7800000D02*
G75*
G03*
X15855000Y-7800000I-20000J0D01*
G01*
X15855000Y-8000000D02*
G75*
G03*
X15855000Y-8000000I-20000J0D01*
G01*
X15855000Y-8200000D02*
G75*
G03*
X15855000Y-8200000I-20000J0D01*
G01*
X15855000Y-8400000D02*
G75*
G03*
X15855000Y-8400000I-20000J0D01*
G01*
X15855000Y-8600000D02*
G75*
G03*
X15855000Y-8600000I-20000J0D01*
G01*
X15855000Y-8800000D02*
G75*
G03*
X15855000Y-8800000I-20000J0D01*
G01*
X15855000Y-9000000D02*
G75*
G03*
X15855000Y-9000000I-20000J0D01*
G01*
X15855000Y-9200000D02*
G75*
G03*
X15855000Y-9200000I-20000J0D01*
G01*
X15855000Y-9400000D02*
G75*
G03*
X15855000Y-9400000I-20000J0D01*
G01*
X15855000Y-9600000D02*
G75*
G03*
X15855000Y-9600000I-20000J0D01*
G01*
X15855000Y-9800000D02*
G75*
G03*
X15855000Y-9800000I-20000J0D01*
G01*
X15855000Y-10000000D02*
G75*
G03*
X15855000Y-10000000I-20000J0D01*
G01*
X16045000Y-7800000D02*
G75*
G03*
X16045000Y-7800000I-20000J0D01*
G01*
X16045000Y-8000000D02*
G75*
G03*
X16045000Y-8000000I-20000J0D01*
G01*
X16045000Y-8200000D02*
G75*
G03*
X16045000Y-8200000I-20000J0D01*
G01*
X16045000Y-8400000D02*
G75*
G03*
X16045000Y-8400000I-20000J0D01*
G01*
X16045000Y-8600000D02*
G75*
G03*
X16045000Y-8600000I-20000J0D01*
G01*
X16045000Y-8800000D02*
G75*
G03*
X16045000Y-8800000I-20000J0D01*
G01*
X16045000Y-9000000D02*
G75*
G03*
X16045000Y-9000000I-20000J0D01*
G01*
X16045000Y-9200000D02*
G75*
G03*
X16045000Y-9200000I-20000J0D01*
G01*
X16045000Y-9400000D02*
G75*
G03*
X16045000Y-9400000I-20000J0D01*
G01*
X16045000Y-9600000D02*
G75*
G03*
X16045000Y-9600000I-20000J0D01*
G01*
X16045000Y-9800000D02*
G75*
G03*
X16045000Y-9800000I-20000J0D01*
G01*
X16045000Y-10000000D02*
G75*
G03*
X16045000Y-10000000I-20000J0D01*
G01*
D14*
X11948000Y-9719500D02*
X11948000Y-9779500D01*
X11918000Y-9749500D02*
X11978000Y-9749500D01*
D11*
X11918000Y-9694500D02*
X11918000Y-9804500D01*
X11918000Y-9804500D02*
G75*
G03*
X11978000Y-9804500I30000J0D01*
G01*
X11978000Y-9804500D02*
X11978000Y-9694500D01*
X11978000Y-9694500D02*
G75*
G03*
X11918000Y-9694500I-30000J0D01*
G01*
D14*
X11948000Y-10137500D02*
X11948000Y-10197500D01*
X11918000Y-10167500D02*
X11978000Y-10167500D01*
D11*
X11918000Y-10127500D02*
X11918000Y-10207500D01*
X11918000Y-10207500D02*
G75*
G03*
X11978000Y-10207500I30000J0D01*
G01*
X11978000Y-10207500D02*
X11978000Y-10127500D01*
X11978000Y-10127500D02*
G75*
G03*
X11918000Y-10127500I-30000J0D01*
G01*
D14*
X12812000Y-9719500D02*
X12812000Y-9779500D01*
X12782000Y-9749500D02*
X12842000Y-9749500D01*
D11*
X12782000Y-9694500D02*
X12782000Y-9804500D01*
X12782000Y-9804500D02*
G75*
G03*
X12842000Y-9804500I30000J0D01*
G01*
X12842000Y-9804500D02*
X12842000Y-9694500D01*
X12842000Y-9694500D02*
G75*
G03*
X12782000Y-9694500I-30000J0D01*
G01*
D14*
X12812000Y-10137500D02*
X12812000Y-10197500D01*
X12782000Y-10167500D02*
X12842000Y-10167500D01*
D11*
X12782000Y-10127500D02*
X12782000Y-10207500D01*
X12782000Y-10207500D02*
G75*
G03*
X12842000Y-10207500I30000J0D01*
G01*
X12842000Y-10207500D02*
X12842000Y-10127500D01*
X12842000Y-10127500D02*
G75*
G03*
X12782000Y-10127500I-30000J0D01*
G01*
D15*
X12025981Y-2768981D02*
X12025981Y-2723019D01*
X11980019Y-2723019D01*
X11980019Y-2768981D01*
X12025981Y-2768981D01*
X12025981Y-2895981D02*
X12025981Y-2850019D01*
X11980019Y-2850019D01*
X11980019Y-2895981D01*
X12025981Y-2895981D01*
X12025981Y-3022981D02*
X12025981Y-2977019D01*
X11980019Y-2977019D01*
X11980019Y-3022981D01*
X12025981Y-3022981D01*
X12152981Y-2768981D02*
X12152981Y-2723019D01*
X12107019Y-2723019D01*
X12107019Y-2768981D01*
X12152981Y-2768981D01*
X12152981Y-2895981D02*
X12152981Y-2850019D01*
X12107019Y-2850019D01*
X12107019Y-2895981D01*
X12152981Y-2895981D01*
X12152981Y-3022981D02*
X12152981Y-2977019D01*
X12107019Y-2977019D01*
X12107019Y-3022981D01*
X12152981Y-3022981D01*
D10*
X12517500Y-2733500D02*
X12567500Y-2683500D01*
X12517500Y-2633500D01*
X12467500Y-2683500D01*
X12517500Y-2733500D01*
X12517500Y-2987500D02*
X12567500Y-2937500D01*
X12517500Y-2887500D01*
X12467500Y-2937500D01*
X12517500Y-2987500D01*
X12771500Y-2733500D02*
X12821500Y-2683500D01*
X12771500Y-2633500D01*
X12721500Y-2683500D01*
X12771500Y-2733500D01*
X12771500Y-2987500D02*
X12821500Y-2937500D01*
X12771500Y-2887500D01*
X12721500Y-2937500D01*
X12771500Y-2987500D01*
X13025500Y-2733500D02*
X13075500Y-2683500D01*
X13025500Y-2633500D01*
X12975500Y-2683500D01*
X13025500Y-2733500D01*
X13025500Y-2987500D02*
X13075500Y-2937500D01*
X13025500Y-2887500D01*
X12975500Y-2937500D01*
X13025500Y-2987500D01*
X13279500Y-2733500D02*
X13329500Y-2683500D01*
X13279500Y-2633500D01*
X13229500Y-2683500D01*
X13279500Y-2733500D01*
X13279500Y-2987500D02*
X13329500Y-2937500D01*
X13279500Y-2887500D01*
X13229500Y-2937500D01*
X13279500Y-2987500D01*
X13533500Y-2733500D02*
X13583500Y-2683500D01*
X13533500Y-2633500D01*
X13483500Y-2683500D01*
X13533500Y-2733500D01*
X13533500Y-2987500D02*
X13583500Y-2937500D01*
X13533500Y-2887500D01*
X13483500Y-2937500D01*
X13533500Y-2987500D01*
X13787500Y-2733500D02*
X13837500Y-2683500D01*
X13787500Y-2633500D01*
X13737500Y-2683500D01*
X13787500Y-2733500D01*
X13787500Y-2987500D02*
X13837500Y-2937500D01*
X13787500Y-2887500D01*
X13737500Y-2937500D01*
X13787500Y-2987500D01*
X14041500Y-2733500D02*
X14091500Y-2683500D01*
X14041500Y-2633500D01*
X13991500Y-2683500D01*
X14041500Y-2733500D01*
X14041500Y-2987500D02*
X14091500Y-2937500D01*
X14041500Y-2887500D01*
X13991500Y-2937500D01*
X14041500Y-2987500D01*
X14295500Y-2733500D02*
X14345500Y-2683500D01*
X14295500Y-2633500D01*
X14245500Y-2683500D01*
X14295500Y-2733500D01*
X14295500Y-2987500D02*
X14345500Y-2937500D01*
X14295500Y-2887500D01*
X14245500Y-2937500D01*
X14295500Y-2987500D01*
X14549500Y-2733500D02*
X14599500Y-2683500D01*
X14549500Y-2633500D01*
X14499500Y-2683500D01*
X14549500Y-2733500D01*
X14549500Y-2987500D02*
X14599500Y-2937500D01*
X14549500Y-2887500D01*
X14499500Y-2937500D01*
X14549500Y-2987500D01*
X14803500Y-2733500D02*
X14853500Y-2683500D01*
X14803500Y-2633500D01*
X14753500Y-2683500D01*
X14803500Y-2733500D01*
X14803500Y-2987500D02*
X14853500Y-2937500D01*
X14803500Y-2887500D01*
X14753500Y-2937500D01*
X14803500Y-2987500D01*
X15057500Y-2733500D02*
X15107500Y-2683500D01*
X15057500Y-2633500D01*
X15007500Y-2683500D01*
X15057500Y-2733500D01*
X15057500Y-2987500D02*
X15107500Y-2937500D01*
X15057500Y-2887500D01*
X15007500Y-2937500D01*
X15057500Y-2987500D01*
X15311500Y-2733500D02*
X15361500Y-2683500D01*
X15311500Y-2633500D01*
X15261500Y-2683500D01*
X15311500Y-2733500D01*
X15311500Y-2987500D02*
X15361500Y-2937500D01*
X15311500Y-2887500D01*
X15261500Y-2937500D01*
X15311500Y-2987500D01*
X15565500Y-2733500D02*
X15615500Y-2683500D01*
X15565500Y-2633500D01*
X15515500Y-2683500D01*
X15565500Y-2733500D01*
X15565500Y-2987500D02*
X15615500Y-2937500D01*
X15565500Y-2887500D01*
X15515500Y-2937500D01*
X15565500Y-2987500D01*
X15819500Y-2733500D02*
X15869500Y-2683500D01*
X15819500Y-2633500D01*
X15769500Y-2683500D01*
X15819500Y-2733500D01*
X15819500Y-2987500D02*
X15869500Y-2937500D01*
X15819500Y-2887500D01*
X15769500Y-2937500D01*
X15819500Y-2987500D01*
X16073500Y-2733500D02*
X16123500Y-2683500D01*
X16073500Y-2633500D01*
X16023500Y-2683500D01*
X16073500Y-2733500D01*
X16073500Y-2987500D02*
X16123500Y-2937500D01*
X16073500Y-2887500D01*
X16023500Y-2937500D01*
X16073500Y-2987500D01*
X16327500Y-2733500D02*
X16377500Y-2683500D01*
X16327500Y-2633500D01*
X16277500Y-2683500D01*
X16327500Y-2733500D01*
X16327500Y-2987500D02*
X16377500Y-2937500D01*
X16327500Y-2887500D01*
X16277500Y-2937500D01*
X16327500Y-2987500D01*
X16581500Y-2733500D02*
X16631500Y-2683500D01*
X16581500Y-2633500D01*
X16531500Y-2683500D01*
X16581500Y-2733500D01*
X16581500Y-2987500D02*
X16631500Y-2937500D01*
X16581500Y-2887500D01*
X16531500Y-2937500D01*
X16581500Y-2987500D01*
X16835500Y-2733500D02*
X16885500Y-2683500D01*
X16835500Y-2633500D01*
X16785500Y-2683500D01*
X16835500Y-2733500D01*
X16835500Y-2987500D02*
X16885500Y-2937500D01*
X16835500Y-2887500D01*
X16785500Y-2937500D01*
X16835500Y-2987500D01*
X17089500Y-2733500D02*
X17139500Y-2683500D01*
X17089500Y-2633500D01*
X17039500Y-2683500D01*
X17089500Y-2733500D01*
X17089500Y-2987500D02*
X17139500Y-2937500D01*
X17089500Y-2887500D01*
X17039500Y-2937500D01*
X17089500Y-2987500D01*
X17343500Y-2733500D02*
X17393500Y-2683500D01*
X17343500Y-2633500D01*
X17293500Y-2683500D01*
X17343500Y-2733500D01*
X17343500Y-2987500D02*
X17393500Y-2937500D01*
X17343500Y-2887500D01*
X17293500Y-2937500D01*
X17343500Y-2987500D01*
D16*
X16622500Y-4202500D02*
X16737500Y-4317500D01*
X16737500Y-4202500D02*
X16622500Y-4317500D01*
X16737500Y-4260000D02*
G75*
G03*
X16737500Y-4260000I-57500J0D01*
G01*
D17*
X18597500Y-4177500D02*
X18762500Y-4342500D01*
X18762500Y-4177500D02*
X18597500Y-4342500D01*
X18680000Y-4177500D02*
X18680000Y-4342500D01*
X18597500Y-4260000D02*
X18762500Y-4260000D01*
D18*
X17095000Y-9875000D02*
X17365000Y-10145000D01*
X17365000Y-9875000D02*
X17095000Y-10145000D01*
X17325460Y-10105460D02*
X17325460Y-9914540D01*
X17134540Y-9914540D01*
X17134540Y-10105460D01*
X17325460Y-10105460D01*
X17595000Y-9875000D02*
X17865000Y-10145000D01*
X17865000Y-9875000D02*
X17595000Y-10145000D01*
X17825460Y-10105460D02*
X17825460Y-9914540D01*
X17634540Y-9914540D01*
X17634540Y-10105460D01*
X17825460Y-10105460D01*
D19*
X11119000Y-3499000D02*
X11541000Y-3921000D01*
X11541000Y-3499000D02*
X11119000Y-3921000D01*
X11330000Y-3921000D02*
X11541000Y-3710000D01*
X11330000Y-3499000D01*
X11119000Y-3710000D01*
X11330000Y-3921000D01*
X11119000Y-6799000D02*
X11541000Y-7221000D01*
X11541000Y-6799000D02*
X11119000Y-7221000D01*
X11330000Y-7221000D02*
X11541000Y-7010000D01*
X11330000Y-6799000D01*
X11119000Y-7010000D01*
X11330000Y-7221000D01*
X15919000Y-3499000D02*
X16341000Y-3921000D01*
X16341000Y-3499000D02*
X15919000Y-3921000D01*
X16130000Y-3921000D02*
X16341000Y-3710000D01*
X16130000Y-3499000D01*
X15919000Y-3710000D01*
X16130000Y-3921000D01*
X15919000Y-6799000D02*
X16341000Y-7221000D01*
X16341000Y-6799000D02*
X15919000Y-7221000D01*
X16130000Y-7221000D02*
X16341000Y-7010000D01*
X16130000Y-6799000D01*
X15919000Y-7010000D01*
X16130000Y-7221000D01*
X17469000Y-6799000D02*
X17891000Y-7221000D01*
X17891000Y-6799000D02*
X17469000Y-7221000D01*
X17680000Y-7221000D02*
X17891000Y-7010000D01*
X17680000Y-6799000D01*
X17469000Y-7010000D01*
X17680000Y-7221000D01*
D11*
X11172619Y-10727524D02*
X11172619Y-10527524D01*
X11172619Y-10527524D02*
X11220238Y-10527524D01*
X11220238Y-10527524D02*
X11248809Y-10537048D01*
X11248809Y-10537048D02*
X11267857Y-10556095D01*
X11267857Y-10556095D02*
X11277381Y-10575143D01*
X11277381Y-10575143D02*
X11286905Y-10613238D01*
X11286905Y-10613238D02*
X11286905Y-10641810D01*
X11286905Y-10641810D02*
X11277381Y-10679905D01*
X11277381Y-10679905D02*
X11267857Y-10698952D01*
X11267857Y-10698952D02*
X11248809Y-10718000D01*
X11248809Y-10718000D02*
X11220238Y-10727524D01*
X11220238Y-10727524D02*
X11172619Y-10727524D01*
X11372619Y-10727524D02*
X11372619Y-10594190D01*
X11372619Y-10632286D02*
X11382143Y-10613238D01*
X11382143Y-10613238D02*
X11391667Y-10603714D01*
X11391667Y-10603714D02*
X11410714Y-10594190D01*
X11410714Y-10594190D02*
X11429762Y-10594190D01*
X11496428Y-10727524D02*
X11496428Y-10594190D01*
X11496428Y-10527524D02*
X11486905Y-10537048D01*
X11486905Y-10537048D02*
X11496428Y-10546571D01*
X11496428Y-10546571D02*
X11505952Y-10537048D01*
X11505952Y-10537048D02*
X11496428Y-10527524D01*
X11496428Y-10527524D02*
X11496428Y-10546571D01*
X11620238Y-10727524D02*
X11601190Y-10718000D01*
X11601190Y-10718000D02*
X11591667Y-10698952D01*
X11591667Y-10698952D02*
X11591667Y-10527524D01*
X11725000Y-10727524D02*
X11705952Y-10718000D01*
X11705952Y-10718000D02*
X11696428Y-10698952D01*
X11696428Y-10698952D02*
X11696428Y-10527524D01*
X11953571Y-10727524D02*
X11953571Y-10527524D01*
X11953571Y-10527524D02*
X12020238Y-10670381D01*
X12020238Y-10670381D02*
X12086905Y-10527524D01*
X12086905Y-10527524D02*
X12086905Y-10727524D01*
X12267857Y-10727524D02*
X12267857Y-10622762D01*
X12267857Y-10622762D02*
X12258333Y-10603714D01*
X12258333Y-10603714D02*
X12239286Y-10594190D01*
X12239286Y-10594190D02*
X12201190Y-10594190D01*
X12201190Y-10594190D02*
X12182143Y-10603714D01*
X12267857Y-10718000D02*
X12248809Y-10727524D01*
X12248809Y-10727524D02*
X12201190Y-10727524D01*
X12201190Y-10727524D02*
X12182143Y-10718000D01*
X12182143Y-10718000D02*
X12172619Y-10698952D01*
X12172619Y-10698952D02*
X12172619Y-10679905D01*
X12172619Y-10679905D02*
X12182143Y-10660857D01*
X12182143Y-10660857D02*
X12201190Y-10651333D01*
X12201190Y-10651333D02*
X12248809Y-10651333D01*
X12248809Y-10651333D02*
X12267857Y-10641810D01*
X12363095Y-10594190D02*
X12363095Y-10794190D01*
X12363095Y-10603714D02*
X12382143Y-10594190D01*
X12382143Y-10594190D02*
X12420238Y-10594190D01*
X12420238Y-10594190D02*
X12439286Y-10603714D01*
X12439286Y-10603714D02*
X12448809Y-10613238D01*
X12448809Y-10613238D02*
X12458333Y-10632286D01*
X12458333Y-10632286D02*
X12458333Y-10689429D01*
X12458333Y-10689429D02*
X12448809Y-10708476D01*
X12448809Y-10708476D02*
X12439286Y-10718000D01*
X12439286Y-10718000D02*
X12420238Y-10727524D01*
X12420238Y-10727524D02*
X12382143Y-10727524D01*
X12382143Y-10727524D02*
X12363095Y-10718000D01*
X12544048Y-10708476D02*
X12553571Y-10718000D01*
X12553571Y-10718000D02*
X12544048Y-10727524D01*
X12544048Y-10727524D02*
X12534524Y-10718000D01*
X12534524Y-10718000D02*
X12544048Y-10708476D01*
X12544048Y-10708476D02*
X12544048Y-10727524D01*
X12544048Y-10603714D02*
X12553571Y-10613238D01*
X12553571Y-10613238D02*
X12544048Y-10622762D01*
X12544048Y-10622762D02*
X12534524Y-10613238D01*
X12534524Y-10613238D02*
X12544048Y-10603714D01*
X12544048Y-10603714D02*
X12544048Y-10622762D01*
D12*
X10895000Y-11040000D02*
X10925000Y-11070000D01*
X10925000Y-11040000D02*
X10895000Y-11070000D01*
D11*
X11210714Y-10947524D02*
X11229762Y-10947524D01*
X11229762Y-10947524D02*
X11248809Y-10957048D01*
X11248809Y-10957048D02*
X11258333Y-10966571D01*
X11258333Y-10966571D02*
X11267857Y-10985619D01*
X11267857Y-10985619D02*
X11277381Y-11023714D01*
X11277381Y-11023714D02*
X11277381Y-11071333D01*
X11277381Y-11071333D02*
X11267857Y-11109429D01*
X11267857Y-11109429D02*
X11258333Y-11128476D01*
X11258333Y-11128476D02*
X11248809Y-11138000D01*
X11248809Y-11138000D02*
X11229762Y-11147524D01*
X11229762Y-11147524D02*
X11210714Y-11147524D01*
X11210714Y-11147524D02*
X11191667Y-11138000D01*
X11191667Y-11138000D02*
X11182143Y-11128476D01*
X11182143Y-11128476D02*
X11172619Y-11109429D01*
X11172619Y-11109429D02*
X11163095Y-11071333D01*
X11163095Y-11071333D02*
X11163095Y-11023714D01*
X11163095Y-11023714D02*
X11172619Y-10985619D01*
X11172619Y-10985619D02*
X11182143Y-10966571D01*
X11182143Y-10966571D02*
X11191667Y-10957048D01*
X11191667Y-10957048D02*
X11210714Y-10947524D01*
X11363095Y-11128476D02*
X11372619Y-11138000D01*
X11372619Y-11138000D02*
X11363095Y-11147524D01*
X11363095Y-11147524D02*
X11353571Y-11138000D01*
X11353571Y-11138000D02*
X11363095Y-11128476D01*
X11363095Y-11128476D02*
X11363095Y-11147524D01*
X11439286Y-10947524D02*
X11563095Y-10947524D01*
X11563095Y-10947524D02*
X11496428Y-11023714D01*
X11496428Y-11023714D02*
X11525000Y-11023714D01*
X11525000Y-11023714D02*
X11544048Y-11033238D01*
X11544048Y-11033238D02*
X11553571Y-11042762D01*
X11553571Y-11042762D02*
X11563095Y-11061810D01*
X11563095Y-11061810D02*
X11563095Y-11109429D01*
X11563095Y-11109429D02*
X11553571Y-11128476D01*
X11553571Y-11128476D02*
X11544048Y-11138000D01*
X11544048Y-11138000D02*
X11525000Y-11147524D01*
X11525000Y-11147524D02*
X11467857Y-11147524D01*
X11467857Y-11147524D02*
X11448809Y-11138000D01*
X11448809Y-11138000D02*
X11439286Y-11128476D01*
X11686905Y-10947524D02*
X11705952Y-10947524D01*
X11705952Y-10947524D02*
X11725000Y-10957048D01*
X11725000Y-10957048D02*
X11734524Y-10966571D01*
X11734524Y-10966571D02*
X11744048Y-10985619D01*
X11744048Y-10985619D02*
X11753571Y-11023714D01*
X11753571Y-11023714D02*
X11753571Y-11071333D01*
X11753571Y-11071333D02*
X11744048Y-11109429D01*
X11744048Y-11109429D02*
X11734524Y-11128476D01*
X11734524Y-11128476D02*
X11725000Y-11138000D01*
X11725000Y-11138000D02*
X11705952Y-11147524D01*
X11705952Y-11147524D02*
X11686905Y-11147524D01*
X11686905Y-11147524D02*
X11667857Y-11138000D01*
X11667857Y-11138000D02*
X11658333Y-11128476D01*
X11658333Y-11128476D02*
X11648809Y-11109429D01*
X11648809Y-11109429D02*
X11639286Y-11071333D01*
X11639286Y-11071333D02*
X11639286Y-11023714D01*
X11639286Y-11023714D02*
X11648809Y-10985619D01*
X11648809Y-10985619D02*
X11658333Y-10966571D01*
X11658333Y-10966571D02*
X11667857Y-10957048D01*
X11667857Y-10957048D02*
X11686905Y-10947524D01*
X11877381Y-10947524D02*
X11896429Y-10947524D01*
X11896429Y-10947524D02*
X11915476Y-10957048D01*
X11915476Y-10957048D02*
X11925000Y-10966571D01*
X11925000Y-10966571D02*
X11934524Y-10985619D01*
X11934524Y-10985619D02*
X11944048Y-11023714D01*
X11944048Y-11023714D02*
X11944048Y-11071333D01*
X11944048Y-11071333D02*
X11934524Y-11109429D01*
X11934524Y-11109429D02*
X11925000Y-11128476D01*
X11925000Y-11128476D02*
X11915476Y-11138000D01*
X11915476Y-11138000D02*
X11896429Y-11147524D01*
X11896429Y-11147524D02*
X11877381Y-11147524D01*
X11877381Y-11147524D02*
X11858333Y-11138000D01*
X11858333Y-11138000D02*
X11848809Y-11128476D01*
X11848809Y-11128476D02*
X11839286Y-11109429D01*
X11839286Y-11109429D02*
X11829762Y-11071333D01*
X11829762Y-11071333D02*
X11829762Y-11023714D01*
X11829762Y-11023714D02*
X11839286Y-10985619D01*
X11839286Y-10985619D02*
X11848809Y-10966571D01*
X11848809Y-10966571D02*
X11858333Y-10957048D01*
X11858333Y-10957048D02*
X11877381Y-10947524D01*
X12029762Y-11147524D02*
X12029762Y-11014190D01*
X12029762Y-11033238D02*
X12039286Y-11023714D01*
X12039286Y-11023714D02*
X12058333Y-11014190D01*
X12058333Y-11014190D02*
X12086905Y-11014190D01*
X12086905Y-11014190D02*
X12105952Y-11023714D01*
X12105952Y-11023714D02*
X12115476Y-11042762D01*
X12115476Y-11042762D02*
X12115476Y-11147524D01*
X12115476Y-11042762D02*
X12125000Y-11023714D01*
X12125000Y-11023714D02*
X12144048Y-11014190D01*
X12144048Y-11014190D02*
X12172619Y-11014190D01*
X12172619Y-11014190D02*
X12191667Y-11023714D01*
X12191667Y-11023714D02*
X12201190Y-11042762D01*
X12201190Y-11042762D02*
X12201190Y-11147524D01*
X12296429Y-11147524D02*
X12296429Y-11014190D01*
X12296429Y-11033238D02*
X12305952Y-11023714D01*
X12305952Y-11023714D02*
X12325000Y-11014190D01*
X12325000Y-11014190D02*
X12353571Y-11014190D01*
X12353571Y-11014190D02*
X12372619Y-11023714D01*
X12372619Y-11023714D02*
X12382143Y-11042762D01*
X12382143Y-11042762D02*
X12382143Y-11147524D01*
X12382143Y-11042762D02*
X12391667Y-11023714D01*
X12391667Y-11023714D02*
X12410714Y-11014190D01*
X12410714Y-11014190D02*
X12439286Y-11014190D01*
X12439286Y-11014190D02*
X12458333Y-11023714D01*
X12458333Y-11023714D02*
X12467857Y-11042762D01*
X12467857Y-11042762D02*
X12467857Y-11147524D01*
X12858333Y-10938000D02*
X12686905Y-11195143D01*
X13115476Y-10947524D02*
X13134524Y-10947524D01*
X13134524Y-10947524D02*
X13153572Y-10957048D01*
X13153572Y-10957048D02*
X13163095Y-10966571D01*
X13163095Y-10966571D02*
X13172619Y-10985619D01*
X13172619Y-10985619D02*
X13182143Y-11023714D01*
X13182143Y-11023714D02*
X13182143Y-11071333D01*
X13182143Y-11071333D02*
X13172619Y-11109429D01*
X13172619Y-11109429D02*
X13163095Y-11128476D01*
X13163095Y-11128476D02*
X13153572Y-11138000D01*
X13153572Y-11138000D02*
X13134524Y-11147524D01*
X13134524Y-11147524D02*
X13115476Y-11147524D01*
X13115476Y-11147524D02*
X13096429Y-11138000D01*
X13096429Y-11138000D02*
X13086905Y-11128476D01*
X13086905Y-11128476D02*
X13077381Y-11109429D01*
X13077381Y-11109429D02*
X13067857Y-11071333D01*
X13067857Y-11071333D02*
X13067857Y-11023714D01*
X13067857Y-11023714D02*
X13077381Y-10985619D01*
X13077381Y-10985619D02*
X13086905Y-10966571D01*
X13086905Y-10966571D02*
X13096429Y-10957048D01*
X13096429Y-10957048D02*
X13115476Y-10947524D01*
X13267857Y-11128476D02*
X13277381Y-11138000D01*
X13277381Y-11138000D02*
X13267857Y-11147524D01*
X13267857Y-11147524D02*
X13258333Y-11138000D01*
X13258333Y-11138000D02*
X13267857Y-11128476D01*
X13267857Y-11128476D02*
X13267857Y-11147524D01*
X13401191Y-10947524D02*
X13420238Y-10947524D01*
X13420238Y-10947524D02*
X13439286Y-10957048D01*
X13439286Y-10957048D02*
X13448810Y-10966571D01*
X13448810Y-10966571D02*
X13458333Y-10985619D01*
X13458333Y-10985619D02*
X13467857Y-11023714D01*
X13467857Y-11023714D02*
X13467857Y-11071333D01*
X13467857Y-11071333D02*
X13458333Y-11109429D01*
X13458333Y-11109429D02*
X13448810Y-11128476D01*
X13448810Y-11128476D02*
X13439286Y-11138000D01*
X13439286Y-11138000D02*
X13420238Y-11147524D01*
X13420238Y-11147524D02*
X13401191Y-11147524D01*
X13401191Y-11147524D02*
X13382143Y-11138000D01*
X13382143Y-11138000D02*
X13372619Y-11128476D01*
X13372619Y-11128476D02*
X13363095Y-11109429D01*
X13363095Y-11109429D02*
X13353572Y-11071333D01*
X13353572Y-11071333D02*
X13353572Y-11023714D01*
X13353572Y-11023714D02*
X13363095Y-10985619D01*
X13363095Y-10985619D02*
X13372619Y-10966571D01*
X13372619Y-10966571D02*
X13382143Y-10957048D01*
X13382143Y-10957048D02*
X13401191Y-10947524D01*
X13658333Y-11147524D02*
X13544048Y-11147524D01*
X13601191Y-11147524D02*
X13601191Y-10947524D01*
X13601191Y-10947524D02*
X13582143Y-10976095D01*
X13582143Y-10976095D02*
X13563095Y-10995143D01*
X13563095Y-10995143D02*
X13544048Y-11004667D01*
X13848810Y-11147524D02*
X13734524Y-11147524D01*
X13791667Y-11147524D02*
X13791667Y-10947524D01*
X13791667Y-10947524D02*
X13772619Y-10976095D01*
X13772619Y-10976095D02*
X13753572Y-10995143D01*
X13753572Y-10995143D02*
X13734524Y-11004667D01*
X13963095Y-11033238D02*
X13944048Y-11023714D01*
X13944048Y-11023714D02*
X13934524Y-11014190D01*
X13934524Y-11014190D02*
X13925000Y-10995143D01*
X13925000Y-10995143D02*
X13925000Y-10985619D01*
X13925000Y-10985619D02*
X13934524Y-10966571D01*
X13934524Y-10966571D02*
X13944048Y-10957048D01*
X13944048Y-10957048D02*
X13963095Y-10947524D01*
X13963095Y-10947524D02*
X14001191Y-10947524D01*
X14001191Y-10947524D02*
X14020238Y-10957048D01*
X14020238Y-10957048D02*
X14029762Y-10966571D01*
X14029762Y-10966571D02*
X14039286Y-10985619D01*
X14039286Y-10985619D02*
X14039286Y-10995143D01*
X14039286Y-10995143D02*
X14029762Y-11014190D01*
X14029762Y-11014190D02*
X14020238Y-11023714D01*
X14020238Y-11023714D02*
X14001191Y-11033238D01*
X14001191Y-11033238D02*
X13963095Y-11033238D01*
X13963095Y-11033238D02*
X13944048Y-11042762D01*
X13944048Y-11042762D02*
X13934524Y-11052286D01*
X13934524Y-11052286D02*
X13925000Y-11071333D01*
X13925000Y-11071333D02*
X13925000Y-11109429D01*
X13925000Y-11109429D02*
X13934524Y-11128476D01*
X13934524Y-11128476D02*
X13944048Y-11138000D01*
X13944048Y-11138000D02*
X13963095Y-11147524D01*
X13963095Y-11147524D02*
X14001191Y-11147524D01*
X14001191Y-11147524D02*
X14020238Y-11138000D01*
X14020238Y-11138000D02*
X14029762Y-11128476D01*
X14029762Y-11128476D02*
X14039286Y-11109429D01*
X14039286Y-11109429D02*
X14039286Y-11071333D01*
X14039286Y-11071333D02*
X14029762Y-11052286D01*
X14029762Y-11052286D02*
X14020238Y-11042762D01*
X14020238Y-11042762D02*
X14001191Y-11033238D01*
X14115476Y-10947524D02*
X14115476Y-10985619D01*
X14191667Y-10947524D02*
X14191667Y-10985619D01*
X14486905Y-11223714D02*
X14477381Y-11214190D01*
X14477381Y-11214190D02*
X14458334Y-11185619D01*
X14458334Y-11185619D02*
X14448810Y-11166571D01*
X14448810Y-11166571D02*
X14439286Y-11138000D01*
X14439286Y-11138000D02*
X14429762Y-11090381D01*
X14429762Y-11090381D02*
X14429762Y-11052286D01*
X14429762Y-11052286D02*
X14439286Y-11004667D01*
X14439286Y-11004667D02*
X14448810Y-10976095D01*
X14448810Y-10976095D02*
X14458334Y-10957048D01*
X14458334Y-10957048D02*
X14477381Y-10928476D01*
X14477381Y-10928476D02*
X14486905Y-10918952D01*
X14553572Y-10966571D02*
X14563095Y-10957048D01*
X14563095Y-10957048D02*
X14582143Y-10947524D01*
X14582143Y-10947524D02*
X14629762Y-10947524D01*
X14629762Y-10947524D02*
X14648810Y-10957048D01*
X14648810Y-10957048D02*
X14658334Y-10966571D01*
X14658334Y-10966571D02*
X14667857Y-10985619D01*
X14667857Y-10985619D02*
X14667857Y-11004667D01*
X14667857Y-11004667D02*
X14658334Y-11033238D01*
X14658334Y-11033238D02*
X14544048Y-11147524D01*
X14544048Y-11147524D02*
X14667857Y-11147524D01*
X14734524Y-10947524D02*
X14867857Y-10947524D01*
X14867857Y-10947524D02*
X14782143Y-11147524D01*
X15029762Y-10947524D02*
X14991667Y-10947524D01*
X14991667Y-10947524D02*
X14972619Y-10957048D01*
X14972619Y-10957048D02*
X14963095Y-10966571D01*
X14963095Y-10966571D02*
X14944048Y-10995143D01*
X14944048Y-10995143D02*
X14934524Y-11033238D01*
X14934524Y-11033238D02*
X14934524Y-11109429D01*
X14934524Y-11109429D02*
X14944048Y-11128476D01*
X14944048Y-11128476D02*
X14953572Y-11138000D01*
X14953572Y-11138000D02*
X14972619Y-11147524D01*
X14972619Y-11147524D02*
X15010715Y-11147524D01*
X15010715Y-11147524D02*
X15029762Y-11138000D01*
X15029762Y-11138000D02*
X15039286Y-11128476D01*
X15039286Y-11128476D02*
X15048810Y-11109429D01*
X15048810Y-11109429D02*
X15048810Y-11061810D01*
X15048810Y-11061810D02*
X15039286Y-11042762D01*
X15039286Y-11042762D02*
X15029762Y-11033238D01*
X15029762Y-11033238D02*
X15010715Y-11023714D01*
X15010715Y-11023714D02*
X14972619Y-11023714D01*
X14972619Y-11023714D02*
X14953572Y-11033238D01*
X14953572Y-11033238D02*
X14944048Y-11042762D01*
X14944048Y-11042762D02*
X14934524Y-11061810D01*
X15286905Y-11147524D02*
X15286905Y-10947524D01*
X15372619Y-11147524D02*
X15372619Y-11042762D01*
X15372619Y-11042762D02*
X15363096Y-11023714D01*
X15363096Y-11023714D02*
X15344048Y-11014190D01*
X15344048Y-11014190D02*
X15315476Y-11014190D01*
X15315476Y-11014190D02*
X15296429Y-11023714D01*
X15296429Y-11023714D02*
X15286905Y-11033238D01*
X15496429Y-11147524D02*
X15477381Y-11138000D01*
X15477381Y-11138000D02*
X15467857Y-11128476D01*
X15467857Y-11128476D02*
X15458334Y-11109429D01*
X15458334Y-11109429D02*
X15458334Y-11052286D01*
X15458334Y-11052286D02*
X15467857Y-11033238D01*
X15467857Y-11033238D02*
X15477381Y-11023714D01*
X15477381Y-11023714D02*
X15496429Y-11014190D01*
X15496429Y-11014190D02*
X15525000Y-11014190D01*
X15525000Y-11014190D02*
X15544048Y-11023714D01*
X15544048Y-11023714D02*
X15553572Y-11033238D01*
X15553572Y-11033238D02*
X15563096Y-11052286D01*
X15563096Y-11052286D02*
X15563096Y-11109429D01*
X15563096Y-11109429D02*
X15553572Y-11128476D01*
X15553572Y-11128476D02*
X15544048Y-11138000D01*
X15544048Y-11138000D02*
X15525000Y-11147524D01*
X15525000Y-11147524D02*
X15496429Y-11147524D01*
X15677381Y-11147524D02*
X15658334Y-11138000D01*
X15658334Y-11138000D02*
X15648810Y-11118952D01*
X15648810Y-11118952D02*
X15648810Y-10947524D01*
X15829762Y-11138000D02*
X15810715Y-11147524D01*
X15810715Y-11147524D02*
X15772619Y-11147524D01*
X15772619Y-11147524D02*
X15753572Y-11138000D01*
X15753572Y-11138000D02*
X15744048Y-11118952D01*
X15744048Y-11118952D02*
X15744048Y-11042762D01*
X15744048Y-11042762D02*
X15753572Y-11023714D01*
X15753572Y-11023714D02*
X15772619Y-11014190D01*
X15772619Y-11014190D02*
X15810715Y-11014190D01*
X15810715Y-11014190D02*
X15829762Y-11023714D01*
X15829762Y-11023714D02*
X15839286Y-11042762D01*
X15839286Y-11042762D02*
X15839286Y-11061810D01*
X15839286Y-11061810D02*
X15744048Y-11080857D01*
X15915477Y-11138000D02*
X15934524Y-11147524D01*
X15934524Y-11147524D02*
X15972619Y-11147524D01*
X15972619Y-11147524D02*
X15991667Y-11138000D01*
X15991667Y-11138000D02*
X16001191Y-11118952D01*
X16001191Y-11118952D02*
X16001191Y-11109429D01*
X16001191Y-11109429D02*
X15991667Y-11090381D01*
X15991667Y-11090381D02*
X15972619Y-11080857D01*
X15972619Y-11080857D02*
X15944048Y-11080857D01*
X15944048Y-11080857D02*
X15925000Y-11071333D01*
X15925000Y-11071333D02*
X15915477Y-11052286D01*
X15915477Y-11052286D02*
X15915477Y-11042762D01*
X15915477Y-11042762D02*
X15925000Y-11023714D01*
X15925000Y-11023714D02*
X15944048Y-11014190D01*
X15944048Y-11014190D02*
X15972619Y-11014190D01*
X15972619Y-11014190D02*
X15991667Y-11023714D01*
X16067858Y-11223714D02*
X16077381Y-11214190D01*
X16077381Y-11214190D02*
X16096429Y-11185619D01*
X16096429Y-11185619D02*
X16105953Y-11166571D01*
X16105953Y-11166571D02*
X16115477Y-11138000D01*
X16115477Y-11138000D02*
X16125000Y-11090381D01*
X16125000Y-11090381D02*
X16125000Y-11052286D01*
X16125000Y-11052286D02*
X16115477Y-11004667D01*
X16115477Y-11004667D02*
X16105953Y-10976095D01*
X16105953Y-10976095D02*
X16096429Y-10957048D01*
X16096429Y-10957048D02*
X16077381Y-10928476D01*
X16077381Y-10928476D02*
X16067858Y-10918952D01*
D13*
X10925000Y-11319000D02*
G75*
G03*
X10925000Y-11319000I-20000J0D01*
G01*
D11*
X11210714Y-11211524D02*
X11229762Y-11211524D01*
X11229762Y-11211524D02*
X11248809Y-11221048D01*
X11248809Y-11221048D02*
X11258333Y-11230571D01*
X11258333Y-11230571D02*
X11267857Y-11249619D01*
X11267857Y-11249619D02*
X11277381Y-11287714D01*
X11277381Y-11287714D02*
X11277381Y-11335333D01*
X11277381Y-11335333D02*
X11267857Y-11373428D01*
X11267857Y-11373428D02*
X11258333Y-11392476D01*
X11258333Y-11392476D02*
X11248809Y-11402000D01*
X11248809Y-11402000D02*
X11229762Y-11411524D01*
X11229762Y-11411524D02*
X11210714Y-11411524D01*
X11210714Y-11411524D02*
X11191667Y-11402000D01*
X11191667Y-11402000D02*
X11182143Y-11392476D01*
X11182143Y-11392476D02*
X11172619Y-11373428D01*
X11172619Y-11373428D02*
X11163095Y-11335333D01*
X11163095Y-11335333D02*
X11163095Y-11287714D01*
X11163095Y-11287714D02*
X11172619Y-11249619D01*
X11172619Y-11249619D02*
X11182143Y-11230571D01*
X11182143Y-11230571D02*
X11191667Y-11221048D01*
X11191667Y-11221048D02*
X11210714Y-11211524D01*
X11363095Y-11392476D02*
X11372619Y-11402000D01*
X11372619Y-11402000D02*
X11363095Y-11411524D01*
X11363095Y-11411524D02*
X11353571Y-11402000D01*
X11353571Y-11402000D02*
X11363095Y-11392476D01*
X11363095Y-11392476D02*
X11363095Y-11411524D01*
X11544048Y-11278190D02*
X11544048Y-11411524D01*
X11496428Y-11202000D02*
X11448809Y-11344857D01*
X11448809Y-11344857D02*
X11572619Y-11344857D01*
X11686905Y-11211524D02*
X11705952Y-11211524D01*
X11705952Y-11211524D02*
X11725000Y-11221048D01*
X11725000Y-11221048D02*
X11734524Y-11230571D01*
X11734524Y-11230571D02*
X11744048Y-11249619D01*
X11744048Y-11249619D02*
X11753571Y-11287714D01*
X11753571Y-11287714D02*
X11753571Y-11335333D01*
X11753571Y-11335333D02*
X11744048Y-11373428D01*
X11744048Y-11373428D02*
X11734524Y-11392476D01*
X11734524Y-11392476D02*
X11725000Y-11402000D01*
X11725000Y-11402000D02*
X11705952Y-11411524D01*
X11705952Y-11411524D02*
X11686905Y-11411524D01*
X11686905Y-11411524D02*
X11667857Y-11402000D01*
X11667857Y-11402000D02*
X11658333Y-11392476D01*
X11658333Y-11392476D02*
X11648809Y-11373428D01*
X11648809Y-11373428D02*
X11639286Y-11335333D01*
X11639286Y-11335333D02*
X11639286Y-11287714D01*
X11639286Y-11287714D02*
X11648809Y-11249619D01*
X11648809Y-11249619D02*
X11658333Y-11230571D01*
X11658333Y-11230571D02*
X11667857Y-11221048D01*
X11667857Y-11221048D02*
X11686905Y-11211524D01*
X11877381Y-11211524D02*
X11896429Y-11211524D01*
X11896429Y-11211524D02*
X11915476Y-11221048D01*
X11915476Y-11221048D02*
X11925000Y-11230571D01*
X11925000Y-11230571D02*
X11934524Y-11249619D01*
X11934524Y-11249619D02*
X11944048Y-11287714D01*
X11944048Y-11287714D02*
X11944048Y-11335333D01*
X11944048Y-11335333D02*
X11934524Y-11373428D01*
X11934524Y-11373428D02*
X11925000Y-11392476D01*
X11925000Y-11392476D02*
X11915476Y-11402000D01*
X11915476Y-11402000D02*
X11896429Y-11411524D01*
X11896429Y-11411524D02*
X11877381Y-11411524D01*
X11877381Y-11411524D02*
X11858333Y-11402000D01*
X11858333Y-11402000D02*
X11848809Y-11392476D01*
X11848809Y-11392476D02*
X11839286Y-11373428D01*
X11839286Y-11373428D02*
X11829762Y-11335333D01*
X11829762Y-11335333D02*
X11829762Y-11287714D01*
X11829762Y-11287714D02*
X11839286Y-11249619D01*
X11839286Y-11249619D02*
X11848809Y-11230571D01*
X11848809Y-11230571D02*
X11858333Y-11221048D01*
X11858333Y-11221048D02*
X11877381Y-11211524D01*
X12029762Y-11411524D02*
X12029762Y-11278190D01*
X12029762Y-11297238D02*
X12039286Y-11287714D01*
X12039286Y-11287714D02*
X12058333Y-11278190D01*
X12058333Y-11278190D02*
X12086905Y-11278190D01*
X12086905Y-11278190D02*
X12105952Y-11287714D01*
X12105952Y-11287714D02*
X12115476Y-11306762D01*
X12115476Y-11306762D02*
X12115476Y-11411524D01*
X12115476Y-11306762D02*
X12125000Y-11287714D01*
X12125000Y-11287714D02*
X12144048Y-11278190D01*
X12144048Y-11278190D02*
X12172619Y-11278190D01*
X12172619Y-11278190D02*
X12191667Y-11287714D01*
X12191667Y-11287714D02*
X12201190Y-11306762D01*
X12201190Y-11306762D02*
X12201190Y-11411524D01*
X12296429Y-11411524D02*
X12296429Y-11278190D01*
X12296429Y-11297238D02*
X12305952Y-11287714D01*
X12305952Y-11287714D02*
X12325000Y-11278190D01*
X12325000Y-11278190D02*
X12353571Y-11278190D01*
X12353571Y-11278190D02*
X12372619Y-11287714D01*
X12372619Y-11287714D02*
X12382143Y-11306762D01*
X12382143Y-11306762D02*
X12382143Y-11411524D01*
X12382143Y-11306762D02*
X12391667Y-11287714D01*
X12391667Y-11287714D02*
X12410714Y-11278190D01*
X12410714Y-11278190D02*
X12439286Y-11278190D01*
X12439286Y-11278190D02*
X12458333Y-11287714D01*
X12458333Y-11287714D02*
X12467857Y-11306762D01*
X12467857Y-11306762D02*
X12467857Y-11411524D01*
X12858333Y-11202000D02*
X12686905Y-11459143D01*
X13115476Y-11211524D02*
X13134524Y-11211524D01*
X13134524Y-11211524D02*
X13153572Y-11221048D01*
X13153572Y-11221048D02*
X13163095Y-11230571D01*
X13163095Y-11230571D02*
X13172619Y-11249619D01*
X13172619Y-11249619D02*
X13182143Y-11287714D01*
X13182143Y-11287714D02*
X13182143Y-11335333D01*
X13182143Y-11335333D02*
X13172619Y-11373428D01*
X13172619Y-11373428D02*
X13163095Y-11392476D01*
X13163095Y-11392476D02*
X13153572Y-11402000D01*
X13153572Y-11402000D02*
X13134524Y-11411524D01*
X13134524Y-11411524D02*
X13115476Y-11411524D01*
X13115476Y-11411524D02*
X13096429Y-11402000D01*
X13096429Y-11402000D02*
X13086905Y-11392476D01*
X13086905Y-11392476D02*
X13077381Y-11373428D01*
X13077381Y-11373428D02*
X13067857Y-11335333D01*
X13067857Y-11335333D02*
X13067857Y-11287714D01*
X13067857Y-11287714D02*
X13077381Y-11249619D01*
X13077381Y-11249619D02*
X13086905Y-11230571D01*
X13086905Y-11230571D02*
X13096429Y-11221048D01*
X13096429Y-11221048D02*
X13115476Y-11211524D01*
X13267857Y-11392476D02*
X13277381Y-11402000D01*
X13277381Y-11402000D02*
X13267857Y-11411524D01*
X13267857Y-11411524D02*
X13258333Y-11402000D01*
X13258333Y-11402000D02*
X13267857Y-11392476D01*
X13267857Y-11392476D02*
X13267857Y-11411524D01*
X13401191Y-11211524D02*
X13420238Y-11211524D01*
X13420238Y-11211524D02*
X13439286Y-11221048D01*
X13439286Y-11221048D02*
X13448810Y-11230571D01*
X13448810Y-11230571D02*
X13458333Y-11249619D01*
X13458333Y-11249619D02*
X13467857Y-11287714D01*
X13467857Y-11287714D02*
X13467857Y-11335333D01*
X13467857Y-11335333D02*
X13458333Y-11373428D01*
X13458333Y-11373428D02*
X13448810Y-11392476D01*
X13448810Y-11392476D02*
X13439286Y-11402000D01*
X13439286Y-11402000D02*
X13420238Y-11411524D01*
X13420238Y-11411524D02*
X13401191Y-11411524D01*
X13401191Y-11411524D02*
X13382143Y-11402000D01*
X13382143Y-11402000D02*
X13372619Y-11392476D01*
X13372619Y-11392476D02*
X13363095Y-11373428D01*
X13363095Y-11373428D02*
X13353572Y-11335333D01*
X13353572Y-11335333D02*
X13353572Y-11287714D01*
X13353572Y-11287714D02*
X13363095Y-11249619D01*
X13363095Y-11249619D02*
X13372619Y-11230571D01*
X13372619Y-11230571D02*
X13382143Y-11221048D01*
X13382143Y-11221048D02*
X13401191Y-11211524D01*
X13658333Y-11411524D02*
X13544048Y-11411524D01*
X13601191Y-11411524D02*
X13601191Y-11211524D01*
X13601191Y-11211524D02*
X13582143Y-11240095D01*
X13582143Y-11240095D02*
X13563095Y-11259143D01*
X13563095Y-11259143D02*
X13544048Y-11268667D01*
X13839286Y-11211524D02*
X13744048Y-11211524D01*
X13744048Y-11211524D02*
X13734524Y-11306762D01*
X13734524Y-11306762D02*
X13744048Y-11297238D01*
X13744048Y-11297238D02*
X13763095Y-11287714D01*
X13763095Y-11287714D02*
X13810714Y-11287714D01*
X13810714Y-11287714D02*
X13829762Y-11297238D01*
X13829762Y-11297238D02*
X13839286Y-11306762D01*
X13839286Y-11306762D02*
X13848810Y-11325809D01*
X13848810Y-11325809D02*
X13848810Y-11373428D01*
X13848810Y-11373428D02*
X13839286Y-11392476D01*
X13839286Y-11392476D02*
X13829762Y-11402000D01*
X13829762Y-11402000D02*
X13810714Y-11411524D01*
X13810714Y-11411524D02*
X13763095Y-11411524D01*
X13763095Y-11411524D02*
X13744048Y-11402000D01*
X13744048Y-11402000D02*
X13734524Y-11392476D01*
X13915476Y-11211524D02*
X14048810Y-11211524D01*
X14048810Y-11211524D02*
X13963095Y-11411524D01*
X14115476Y-11211524D02*
X14115476Y-11249619D01*
X14191667Y-11211524D02*
X14191667Y-11249619D01*
X14486905Y-11487714D02*
X14477381Y-11478190D01*
X14477381Y-11478190D02*
X14458334Y-11449619D01*
X14458334Y-11449619D02*
X14448810Y-11430571D01*
X14448810Y-11430571D02*
X14439286Y-11402000D01*
X14439286Y-11402000D02*
X14429762Y-11354381D01*
X14429762Y-11354381D02*
X14429762Y-11316286D01*
X14429762Y-11316286D02*
X14439286Y-11268667D01*
X14439286Y-11268667D02*
X14448810Y-11240095D01*
X14448810Y-11240095D02*
X14458334Y-11221048D01*
X14458334Y-11221048D02*
X14477381Y-11192476D01*
X14477381Y-11192476D02*
X14486905Y-11182952D01*
X14667857Y-11411524D02*
X14553572Y-11411524D01*
X14610714Y-11411524D02*
X14610714Y-11211524D01*
X14610714Y-11211524D02*
X14591667Y-11240095D01*
X14591667Y-11240095D02*
X14572619Y-11259143D01*
X14572619Y-11259143D02*
X14553572Y-11268667D01*
X14839286Y-11278190D02*
X14839286Y-11411524D01*
X14791667Y-11202000D02*
X14744048Y-11344857D01*
X14744048Y-11344857D02*
X14867857Y-11344857D01*
X15029762Y-11278190D02*
X15029762Y-11411524D01*
X14982143Y-11202000D02*
X14934524Y-11344857D01*
X14934524Y-11344857D02*
X15058334Y-11344857D01*
X15286905Y-11411524D02*
X15286905Y-11211524D01*
X15372619Y-11411524D02*
X15372619Y-11306762D01*
X15372619Y-11306762D02*
X15363096Y-11287714D01*
X15363096Y-11287714D02*
X15344048Y-11278190D01*
X15344048Y-11278190D02*
X15315476Y-11278190D01*
X15315476Y-11278190D02*
X15296429Y-11287714D01*
X15296429Y-11287714D02*
X15286905Y-11297238D01*
X15496429Y-11411524D02*
X15477381Y-11402000D01*
X15477381Y-11402000D02*
X15467857Y-11392476D01*
X15467857Y-11392476D02*
X15458334Y-11373428D01*
X15458334Y-11373428D02*
X15458334Y-11316286D01*
X15458334Y-11316286D02*
X15467857Y-11297238D01*
X15467857Y-11297238D02*
X15477381Y-11287714D01*
X15477381Y-11287714D02*
X15496429Y-11278190D01*
X15496429Y-11278190D02*
X15525000Y-11278190D01*
X15525000Y-11278190D02*
X15544048Y-11287714D01*
X15544048Y-11287714D02*
X15553572Y-11297238D01*
X15553572Y-11297238D02*
X15563096Y-11316286D01*
X15563096Y-11316286D02*
X15563096Y-11373428D01*
X15563096Y-11373428D02*
X15553572Y-11392476D01*
X15553572Y-11392476D02*
X15544048Y-11402000D01*
X15544048Y-11402000D02*
X15525000Y-11411524D01*
X15525000Y-11411524D02*
X15496429Y-11411524D01*
X15677381Y-11411524D02*
X15658334Y-11402000D01*
X15658334Y-11402000D02*
X15648810Y-11382952D01*
X15648810Y-11382952D02*
X15648810Y-11211524D01*
X15829762Y-11402000D02*
X15810715Y-11411524D01*
X15810715Y-11411524D02*
X15772619Y-11411524D01*
X15772619Y-11411524D02*
X15753572Y-11402000D01*
X15753572Y-11402000D02*
X15744048Y-11382952D01*
X15744048Y-11382952D02*
X15744048Y-11306762D01*
X15744048Y-11306762D02*
X15753572Y-11287714D01*
X15753572Y-11287714D02*
X15772619Y-11278190D01*
X15772619Y-11278190D02*
X15810715Y-11278190D01*
X15810715Y-11278190D02*
X15829762Y-11287714D01*
X15829762Y-11287714D02*
X15839286Y-11306762D01*
X15839286Y-11306762D02*
X15839286Y-11325809D01*
X15839286Y-11325809D02*
X15744048Y-11344857D01*
X15915477Y-11402000D02*
X15934524Y-11411524D01*
X15934524Y-11411524D02*
X15972619Y-11411524D01*
X15972619Y-11411524D02*
X15991667Y-11402000D01*
X15991667Y-11402000D02*
X16001191Y-11382952D01*
X16001191Y-11382952D02*
X16001191Y-11373428D01*
X16001191Y-11373428D02*
X15991667Y-11354381D01*
X15991667Y-11354381D02*
X15972619Y-11344857D01*
X15972619Y-11344857D02*
X15944048Y-11344857D01*
X15944048Y-11344857D02*
X15925000Y-11335333D01*
X15925000Y-11335333D02*
X15915477Y-11316286D01*
X15915477Y-11316286D02*
X15915477Y-11306762D01*
X15915477Y-11306762D02*
X15925000Y-11287714D01*
X15925000Y-11287714D02*
X15944048Y-11278190D01*
X15944048Y-11278190D02*
X15972619Y-11278190D01*
X15972619Y-11278190D02*
X15991667Y-11287714D01*
X16067858Y-11487714D02*
X16077381Y-11478190D01*
X16077381Y-11478190D02*
X16096429Y-11449619D01*
X16096429Y-11449619D02*
X16105953Y-11430571D01*
X16105953Y-11430571D02*
X16115477Y-11402000D01*
X16115477Y-11402000D02*
X16125000Y-11354381D01*
X16125000Y-11354381D02*
X16125000Y-11316286D01*
X16125000Y-11316286D02*
X16115477Y-11268667D01*
X16115477Y-11268667D02*
X16105953Y-11240095D01*
X16105953Y-11240095D02*
X16096429Y-11221048D01*
X16096429Y-11221048D02*
X16077381Y-11192476D01*
X16077381Y-11192476D02*
X16067858Y-11182952D01*
D14*
X10895000Y-11553000D02*
X10895000Y-11613000D01*
X10865000Y-11583000D02*
X10925000Y-11583000D01*
D11*
X11210714Y-11475524D02*
X11229762Y-11475524D01*
X11229762Y-11475524D02*
X11248809Y-11485048D01*
X11248809Y-11485048D02*
X11258333Y-11494571D01*
X11258333Y-11494571D02*
X11267857Y-11513619D01*
X11267857Y-11513619D02*
X11277381Y-11551714D01*
X11277381Y-11551714D02*
X11277381Y-11599333D01*
X11277381Y-11599333D02*
X11267857Y-11637428D01*
X11267857Y-11637428D02*
X11258333Y-11656476D01*
X11258333Y-11656476D02*
X11248809Y-11666000D01*
X11248809Y-11666000D02*
X11229762Y-11675524D01*
X11229762Y-11675524D02*
X11210714Y-11675524D01*
X11210714Y-11675524D02*
X11191667Y-11666000D01*
X11191667Y-11666000D02*
X11182143Y-11656476D01*
X11182143Y-11656476D02*
X11172619Y-11637428D01*
X11172619Y-11637428D02*
X11163095Y-11599333D01*
X11163095Y-11599333D02*
X11163095Y-11551714D01*
X11163095Y-11551714D02*
X11172619Y-11513619D01*
X11172619Y-11513619D02*
X11182143Y-11494571D01*
X11182143Y-11494571D02*
X11191667Y-11485048D01*
X11191667Y-11485048D02*
X11210714Y-11475524D01*
X11363095Y-11656476D02*
X11372619Y-11666000D01*
X11372619Y-11666000D02*
X11363095Y-11675524D01*
X11363095Y-11675524D02*
X11353571Y-11666000D01*
X11353571Y-11666000D02*
X11363095Y-11656476D01*
X11363095Y-11656476D02*
X11363095Y-11675524D01*
X11544048Y-11475524D02*
X11505952Y-11475524D01*
X11505952Y-11475524D02*
X11486905Y-11485048D01*
X11486905Y-11485048D02*
X11477381Y-11494571D01*
X11477381Y-11494571D02*
X11458333Y-11523143D01*
X11458333Y-11523143D02*
X11448809Y-11561238D01*
X11448809Y-11561238D02*
X11448809Y-11637428D01*
X11448809Y-11637428D02*
X11458333Y-11656476D01*
X11458333Y-11656476D02*
X11467857Y-11666000D01*
X11467857Y-11666000D02*
X11486905Y-11675524D01*
X11486905Y-11675524D02*
X11525000Y-11675524D01*
X11525000Y-11675524D02*
X11544048Y-11666000D01*
X11544048Y-11666000D02*
X11553571Y-11656476D01*
X11553571Y-11656476D02*
X11563095Y-11637428D01*
X11563095Y-11637428D02*
X11563095Y-11589809D01*
X11563095Y-11589809D02*
X11553571Y-11570762D01*
X11553571Y-11570762D02*
X11544048Y-11561238D01*
X11544048Y-11561238D02*
X11525000Y-11551714D01*
X11525000Y-11551714D02*
X11486905Y-11551714D01*
X11486905Y-11551714D02*
X11467857Y-11561238D01*
X11467857Y-11561238D02*
X11458333Y-11570762D01*
X11458333Y-11570762D02*
X11448809Y-11589809D01*
X11686905Y-11475524D02*
X11705952Y-11475524D01*
X11705952Y-11475524D02*
X11725000Y-11485048D01*
X11725000Y-11485048D02*
X11734524Y-11494571D01*
X11734524Y-11494571D02*
X11744048Y-11513619D01*
X11744048Y-11513619D02*
X11753571Y-11551714D01*
X11753571Y-11551714D02*
X11753571Y-11599333D01*
X11753571Y-11599333D02*
X11744048Y-11637428D01*
X11744048Y-11637428D02*
X11734524Y-11656476D01*
X11734524Y-11656476D02*
X11725000Y-11666000D01*
X11725000Y-11666000D02*
X11705952Y-11675524D01*
X11705952Y-11675524D02*
X11686905Y-11675524D01*
X11686905Y-11675524D02*
X11667857Y-11666000D01*
X11667857Y-11666000D02*
X11658333Y-11656476D01*
X11658333Y-11656476D02*
X11648809Y-11637428D01*
X11648809Y-11637428D02*
X11639286Y-11599333D01*
X11639286Y-11599333D02*
X11639286Y-11551714D01*
X11639286Y-11551714D02*
X11648809Y-11513619D01*
X11648809Y-11513619D02*
X11658333Y-11494571D01*
X11658333Y-11494571D02*
X11667857Y-11485048D01*
X11667857Y-11485048D02*
X11686905Y-11475524D01*
X11877381Y-11475524D02*
X11896429Y-11475524D01*
X11896429Y-11475524D02*
X11915476Y-11485048D01*
X11915476Y-11485048D02*
X11925000Y-11494571D01*
X11925000Y-11494571D02*
X11934524Y-11513619D01*
X11934524Y-11513619D02*
X11944048Y-11551714D01*
X11944048Y-11551714D02*
X11944048Y-11599333D01*
X11944048Y-11599333D02*
X11934524Y-11637428D01*
X11934524Y-11637428D02*
X11925000Y-11656476D01*
X11925000Y-11656476D02*
X11915476Y-11666000D01*
X11915476Y-11666000D02*
X11896429Y-11675524D01*
X11896429Y-11675524D02*
X11877381Y-11675524D01*
X11877381Y-11675524D02*
X11858333Y-11666000D01*
X11858333Y-11666000D02*
X11848809Y-11656476D01*
X11848809Y-11656476D02*
X11839286Y-11637428D01*
X11839286Y-11637428D02*
X11829762Y-11599333D01*
X11829762Y-11599333D02*
X11829762Y-11551714D01*
X11829762Y-11551714D02*
X11839286Y-11513619D01*
X11839286Y-11513619D02*
X11848809Y-11494571D01*
X11848809Y-11494571D02*
X11858333Y-11485048D01*
X11858333Y-11485048D02*
X11877381Y-11475524D01*
X12029762Y-11675524D02*
X12029762Y-11542190D01*
X12029762Y-11561238D02*
X12039286Y-11551714D01*
X12039286Y-11551714D02*
X12058333Y-11542190D01*
X12058333Y-11542190D02*
X12086905Y-11542190D01*
X12086905Y-11542190D02*
X12105952Y-11551714D01*
X12105952Y-11551714D02*
X12115476Y-11570762D01*
X12115476Y-11570762D02*
X12115476Y-11675524D01*
X12115476Y-11570762D02*
X12125000Y-11551714D01*
X12125000Y-11551714D02*
X12144048Y-11542190D01*
X12144048Y-11542190D02*
X12172619Y-11542190D01*
X12172619Y-11542190D02*
X12191667Y-11551714D01*
X12191667Y-11551714D02*
X12201190Y-11570762D01*
X12201190Y-11570762D02*
X12201190Y-11675524D01*
X12296429Y-11675524D02*
X12296429Y-11542190D01*
X12296429Y-11561238D02*
X12305952Y-11551714D01*
X12305952Y-11551714D02*
X12325000Y-11542190D01*
X12325000Y-11542190D02*
X12353571Y-11542190D01*
X12353571Y-11542190D02*
X12372619Y-11551714D01*
X12372619Y-11551714D02*
X12382143Y-11570762D01*
X12382143Y-11570762D02*
X12382143Y-11675524D01*
X12382143Y-11570762D02*
X12391667Y-11551714D01*
X12391667Y-11551714D02*
X12410714Y-11542190D01*
X12410714Y-11542190D02*
X12439286Y-11542190D01*
X12439286Y-11542190D02*
X12458333Y-11551714D01*
X12458333Y-11551714D02*
X12467857Y-11570762D01*
X12467857Y-11570762D02*
X12467857Y-11675524D01*
X12858333Y-11466000D02*
X12686905Y-11723143D01*
X13115476Y-11475524D02*
X13134524Y-11475524D01*
X13134524Y-11475524D02*
X13153572Y-11485048D01*
X13153572Y-11485048D02*
X13163095Y-11494571D01*
X13163095Y-11494571D02*
X13172619Y-11513619D01*
X13172619Y-11513619D02*
X13182143Y-11551714D01*
X13182143Y-11551714D02*
X13182143Y-11599333D01*
X13182143Y-11599333D02*
X13172619Y-11637428D01*
X13172619Y-11637428D02*
X13163095Y-11656476D01*
X13163095Y-11656476D02*
X13153572Y-11666000D01*
X13153572Y-11666000D02*
X13134524Y-11675524D01*
X13134524Y-11675524D02*
X13115476Y-11675524D01*
X13115476Y-11675524D02*
X13096429Y-11666000D01*
X13096429Y-11666000D02*
X13086905Y-11656476D01*
X13086905Y-11656476D02*
X13077381Y-11637428D01*
X13077381Y-11637428D02*
X13067857Y-11599333D01*
X13067857Y-11599333D02*
X13067857Y-11551714D01*
X13067857Y-11551714D02*
X13077381Y-11513619D01*
X13077381Y-11513619D02*
X13086905Y-11494571D01*
X13086905Y-11494571D02*
X13096429Y-11485048D01*
X13096429Y-11485048D02*
X13115476Y-11475524D01*
X13267857Y-11656476D02*
X13277381Y-11666000D01*
X13277381Y-11666000D02*
X13267857Y-11675524D01*
X13267857Y-11675524D02*
X13258333Y-11666000D01*
X13258333Y-11666000D02*
X13267857Y-11656476D01*
X13267857Y-11656476D02*
X13267857Y-11675524D01*
X13401191Y-11475524D02*
X13420238Y-11475524D01*
X13420238Y-11475524D02*
X13439286Y-11485048D01*
X13439286Y-11485048D02*
X13448810Y-11494571D01*
X13448810Y-11494571D02*
X13458333Y-11513619D01*
X13458333Y-11513619D02*
X13467857Y-11551714D01*
X13467857Y-11551714D02*
X13467857Y-11599333D01*
X13467857Y-11599333D02*
X13458333Y-11637428D01*
X13458333Y-11637428D02*
X13448810Y-11656476D01*
X13448810Y-11656476D02*
X13439286Y-11666000D01*
X13439286Y-11666000D02*
X13420238Y-11675524D01*
X13420238Y-11675524D02*
X13401191Y-11675524D01*
X13401191Y-11675524D02*
X13382143Y-11666000D01*
X13382143Y-11666000D02*
X13372619Y-11656476D01*
X13372619Y-11656476D02*
X13363095Y-11637428D01*
X13363095Y-11637428D02*
X13353572Y-11599333D01*
X13353572Y-11599333D02*
X13353572Y-11551714D01*
X13353572Y-11551714D02*
X13363095Y-11513619D01*
X13363095Y-11513619D02*
X13372619Y-11494571D01*
X13372619Y-11494571D02*
X13382143Y-11485048D01*
X13382143Y-11485048D02*
X13401191Y-11475524D01*
X13544048Y-11494571D02*
X13553572Y-11485048D01*
X13553572Y-11485048D02*
X13572619Y-11475524D01*
X13572619Y-11475524D02*
X13620238Y-11475524D01*
X13620238Y-11475524D02*
X13639286Y-11485048D01*
X13639286Y-11485048D02*
X13648810Y-11494571D01*
X13648810Y-11494571D02*
X13658333Y-11513619D01*
X13658333Y-11513619D02*
X13658333Y-11532667D01*
X13658333Y-11532667D02*
X13648810Y-11561238D01*
X13648810Y-11561238D02*
X13534524Y-11675524D01*
X13534524Y-11675524D02*
X13658333Y-11675524D01*
X13725000Y-11475524D02*
X13848810Y-11475524D01*
X13848810Y-11475524D02*
X13782143Y-11551714D01*
X13782143Y-11551714D02*
X13810714Y-11551714D01*
X13810714Y-11551714D02*
X13829762Y-11561238D01*
X13829762Y-11561238D02*
X13839286Y-11570762D01*
X13839286Y-11570762D02*
X13848810Y-11589809D01*
X13848810Y-11589809D02*
X13848810Y-11637428D01*
X13848810Y-11637428D02*
X13839286Y-11656476D01*
X13839286Y-11656476D02*
X13829762Y-11666000D01*
X13829762Y-11666000D02*
X13810714Y-11675524D01*
X13810714Y-11675524D02*
X13753572Y-11675524D01*
X13753572Y-11675524D02*
X13734524Y-11666000D01*
X13734524Y-11666000D02*
X13725000Y-11656476D01*
X14020238Y-11475524D02*
X13982143Y-11475524D01*
X13982143Y-11475524D02*
X13963095Y-11485048D01*
X13963095Y-11485048D02*
X13953572Y-11494571D01*
X13953572Y-11494571D02*
X13934524Y-11523143D01*
X13934524Y-11523143D02*
X13925000Y-11561238D01*
X13925000Y-11561238D02*
X13925000Y-11637428D01*
X13925000Y-11637428D02*
X13934524Y-11656476D01*
X13934524Y-11656476D02*
X13944048Y-11666000D01*
X13944048Y-11666000D02*
X13963095Y-11675524D01*
X13963095Y-11675524D02*
X14001191Y-11675524D01*
X14001191Y-11675524D02*
X14020238Y-11666000D01*
X14020238Y-11666000D02*
X14029762Y-11656476D01*
X14029762Y-11656476D02*
X14039286Y-11637428D01*
X14039286Y-11637428D02*
X14039286Y-11589809D01*
X14039286Y-11589809D02*
X14029762Y-11570762D01*
X14029762Y-11570762D02*
X14020238Y-11561238D01*
X14020238Y-11561238D02*
X14001191Y-11551714D01*
X14001191Y-11551714D02*
X13963095Y-11551714D01*
X13963095Y-11551714D02*
X13944048Y-11561238D01*
X13944048Y-11561238D02*
X13934524Y-11570762D01*
X13934524Y-11570762D02*
X13925000Y-11589809D01*
X14115476Y-11475524D02*
X14115476Y-11513619D01*
X14191667Y-11475524D02*
X14191667Y-11513619D01*
X14486905Y-11751714D02*
X14477381Y-11742190D01*
X14477381Y-11742190D02*
X14458334Y-11713619D01*
X14458334Y-11713619D02*
X14448810Y-11694571D01*
X14448810Y-11694571D02*
X14439286Y-11666000D01*
X14439286Y-11666000D02*
X14429762Y-11618381D01*
X14429762Y-11618381D02*
X14429762Y-11580286D01*
X14429762Y-11580286D02*
X14439286Y-11532667D01*
X14439286Y-11532667D02*
X14448810Y-11504095D01*
X14448810Y-11504095D02*
X14458334Y-11485048D01*
X14458334Y-11485048D02*
X14477381Y-11456476D01*
X14477381Y-11456476D02*
X14486905Y-11446952D01*
X14601191Y-11475524D02*
X14620238Y-11475524D01*
X14620238Y-11475524D02*
X14639286Y-11485048D01*
X14639286Y-11485048D02*
X14648810Y-11494571D01*
X14648810Y-11494571D02*
X14658334Y-11513619D01*
X14658334Y-11513619D02*
X14667857Y-11551714D01*
X14667857Y-11551714D02*
X14667857Y-11599333D01*
X14667857Y-11599333D02*
X14658334Y-11637428D01*
X14658334Y-11637428D02*
X14648810Y-11656476D01*
X14648810Y-11656476D02*
X14639286Y-11666000D01*
X14639286Y-11666000D02*
X14620238Y-11675524D01*
X14620238Y-11675524D02*
X14601191Y-11675524D01*
X14601191Y-11675524D02*
X14582143Y-11666000D01*
X14582143Y-11666000D02*
X14572619Y-11656476D01*
X14572619Y-11656476D02*
X14563095Y-11637428D01*
X14563095Y-11637428D02*
X14553572Y-11599333D01*
X14553572Y-11599333D02*
X14553572Y-11551714D01*
X14553572Y-11551714D02*
X14563095Y-11513619D01*
X14563095Y-11513619D02*
X14572619Y-11494571D01*
X14572619Y-11494571D02*
X14582143Y-11485048D01*
X14582143Y-11485048D02*
X14601191Y-11475524D01*
X14905953Y-11675524D02*
X14905953Y-11475524D01*
X14991667Y-11675524D02*
X14991667Y-11570762D01*
X14991667Y-11570762D02*
X14982143Y-11551714D01*
X14982143Y-11551714D02*
X14963096Y-11542190D01*
X14963096Y-11542190D02*
X14934524Y-11542190D01*
X14934524Y-11542190D02*
X14915476Y-11551714D01*
X14915476Y-11551714D02*
X14905953Y-11561238D01*
X15115476Y-11675524D02*
X15096429Y-11666000D01*
X15096429Y-11666000D02*
X15086905Y-11656476D01*
X15086905Y-11656476D02*
X15077381Y-11637428D01*
X15077381Y-11637428D02*
X15077381Y-11580286D01*
X15077381Y-11580286D02*
X15086905Y-11561238D01*
X15086905Y-11561238D02*
X15096429Y-11551714D01*
X15096429Y-11551714D02*
X15115476Y-11542190D01*
X15115476Y-11542190D02*
X15144048Y-11542190D01*
X15144048Y-11542190D02*
X15163096Y-11551714D01*
X15163096Y-11551714D02*
X15172619Y-11561238D01*
X15172619Y-11561238D02*
X15182143Y-11580286D01*
X15182143Y-11580286D02*
X15182143Y-11637428D01*
X15182143Y-11637428D02*
X15172619Y-11656476D01*
X15172619Y-11656476D02*
X15163096Y-11666000D01*
X15163096Y-11666000D02*
X15144048Y-11675524D01*
X15144048Y-11675524D02*
X15115476Y-11675524D01*
X15296429Y-11675524D02*
X15277381Y-11666000D01*
X15277381Y-11666000D02*
X15267857Y-11646952D01*
X15267857Y-11646952D02*
X15267857Y-11475524D01*
X15448810Y-11666000D02*
X15429762Y-11675524D01*
X15429762Y-11675524D02*
X15391667Y-11675524D01*
X15391667Y-11675524D02*
X15372619Y-11666000D01*
X15372619Y-11666000D02*
X15363096Y-11646952D01*
X15363096Y-11646952D02*
X15363096Y-11570762D01*
X15363096Y-11570762D02*
X15372619Y-11551714D01*
X15372619Y-11551714D02*
X15391667Y-11542190D01*
X15391667Y-11542190D02*
X15429762Y-11542190D01*
X15429762Y-11542190D02*
X15448810Y-11551714D01*
X15448810Y-11551714D02*
X15458334Y-11570762D01*
X15458334Y-11570762D02*
X15458334Y-11589809D01*
X15458334Y-11589809D02*
X15363096Y-11608857D01*
X15534524Y-11666000D02*
X15553572Y-11675524D01*
X15553572Y-11675524D02*
X15591667Y-11675524D01*
X15591667Y-11675524D02*
X15610715Y-11666000D01*
X15610715Y-11666000D02*
X15620238Y-11646952D01*
X15620238Y-11646952D02*
X15620238Y-11637428D01*
X15620238Y-11637428D02*
X15610715Y-11618381D01*
X15610715Y-11618381D02*
X15591667Y-11608857D01*
X15591667Y-11608857D02*
X15563096Y-11608857D01*
X15563096Y-11608857D02*
X15544048Y-11599333D01*
X15544048Y-11599333D02*
X15534524Y-11580286D01*
X15534524Y-11580286D02*
X15534524Y-11570762D01*
X15534524Y-11570762D02*
X15544048Y-11551714D01*
X15544048Y-11551714D02*
X15563096Y-11542190D01*
X15563096Y-11542190D02*
X15591667Y-11542190D01*
X15591667Y-11542190D02*
X15610715Y-11551714D01*
X15858334Y-11599333D02*
X16010715Y-11599333D01*
X15934524Y-11675524D02*
X15934524Y-11523143D01*
X16344048Y-11542190D02*
X16344048Y-11675524D01*
X16296429Y-11466000D02*
X16248810Y-11608857D01*
X16248810Y-11608857D02*
X16372619Y-11608857D01*
X16591667Y-11666000D02*
X16610715Y-11675524D01*
X16610715Y-11675524D02*
X16648810Y-11675524D01*
X16648810Y-11675524D02*
X16667858Y-11666000D01*
X16667858Y-11666000D02*
X16677381Y-11646952D01*
X16677381Y-11646952D02*
X16677381Y-11637428D01*
X16677381Y-11637428D02*
X16667858Y-11618381D01*
X16667858Y-11618381D02*
X16648810Y-11608857D01*
X16648810Y-11608857D02*
X16620239Y-11608857D01*
X16620239Y-11608857D02*
X16601191Y-11599333D01*
X16601191Y-11599333D02*
X16591667Y-11580286D01*
X16591667Y-11580286D02*
X16591667Y-11570762D01*
X16591667Y-11570762D02*
X16601191Y-11551714D01*
X16601191Y-11551714D02*
X16620239Y-11542190D01*
X16620239Y-11542190D02*
X16648810Y-11542190D01*
X16648810Y-11542190D02*
X16667858Y-11551714D01*
X16791667Y-11675524D02*
X16772620Y-11666000D01*
X16772620Y-11666000D02*
X16763096Y-11646952D01*
X16763096Y-11646952D02*
X16763096Y-11475524D01*
X16896429Y-11675524D02*
X16877382Y-11666000D01*
X16877382Y-11666000D02*
X16867858Y-11656476D01*
X16867858Y-11656476D02*
X16858334Y-11637428D01*
X16858334Y-11637428D02*
X16858334Y-11580286D01*
X16858334Y-11580286D02*
X16867858Y-11561238D01*
X16867858Y-11561238D02*
X16877382Y-11551714D01*
X16877382Y-11551714D02*
X16896429Y-11542190D01*
X16896429Y-11542190D02*
X16925001Y-11542190D01*
X16925001Y-11542190D02*
X16944048Y-11551714D01*
X16944048Y-11551714D02*
X16953572Y-11561238D01*
X16953572Y-11561238D02*
X16963096Y-11580286D01*
X16963096Y-11580286D02*
X16963096Y-11637428D01*
X16963096Y-11637428D02*
X16953572Y-11656476D01*
X16953572Y-11656476D02*
X16944048Y-11666000D01*
X16944048Y-11666000D02*
X16925001Y-11675524D01*
X16925001Y-11675524D02*
X16896429Y-11675524D01*
X17020239Y-11542190D02*
X17096429Y-11542190D01*
X17048810Y-11475524D02*
X17048810Y-11646952D01*
X17048810Y-11646952D02*
X17058334Y-11666000D01*
X17058334Y-11666000D02*
X17077382Y-11675524D01*
X17077382Y-11675524D02*
X17096429Y-11675524D01*
X17153572Y-11666000D02*
X17172620Y-11675524D01*
X17172620Y-11675524D02*
X17210715Y-11675524D01*
X17210715Y-11675524D02*
X17229763Y-11666000D01*
X17229763Y-11666000D02*
X17239286Y-11646952D01*
X17239286Y-11646952D02*
X17239286Y-11637428D01*
X17239286Y-11637428D02*
X17229763Y-11618381D01*
X17229763Y-11618381D02*
X17210715Y-11608857D01*
X17210715Y-11608857D02*
X17182143Y-11608857D01*
X17182143Y-11608857D02*
X17163096Y-11599333D01*
X17163096Y-11599333D02*
X17153572Y-11580286D01*
X17153572Y-11580286D02*
X17153572Y-11570762D01*
X17153572Y-11570762D02*
X17163096Y-11551714D01*
X17163096Y-11551714D02*
X17182143Y-11542190D01*
X17182143Y-11542190D02*
X17210715Y-11542190D01*
X17210715Y-11542190D02*
X17229763Y-11551714D01*
X17305953Y-11751714D02*
X17315477Y-11742190D01*
X17315477Y-11742190D02*
X17334524Y-11713619D01*
X17334524Y-11713619D02*
X17344048Y-11694571D01*
X17344048Y-11694571D02*
X17353572Y-11666000D01*
X17353572Y-11666000D02*
X17363096Y-11618381D01*
X17363096Y-11618381D02*
X17363096Y-11580286D01*
X17363096Y-11580286D02*
X17353572Y-11532667D01*
X17353572Y-11532667D02*
X17344048Y-11504095D01*
X17344048Y-11504095D02*
X17334524Y-11485048D01*
X17334524Y-11485048D02*
X17315477Y-11456476D01*
X17315477Y-11456476D02*
X17305953Y-11446952D01*
D15*
X10915481Y-11869981D02*
X10915481Y-11824019D01*
X10869519Y-11824019D01*
X10869519Y-11869981D01*
X10915481Y-11869981D01*
D11*
X11210714Y-11739524D02*
X11229762Y-11739524D01*
X11229762Y-11739524D02*
X11248809Y-11749048D01*
X11248809Y-11749048D02*
X11258333Y-11758571D01*
X11258333Y-11758571D02*
X11267857Y-11777619D01*
X11267857Y-11777619D02*
X11277381Y-11815714D01*
X11277381Y-11815714D02*
X11277381Y-11863333D01*
X11277381Y-11863333D02*
X11267857Y-11901428D01*
X11267857Y-11901428D02*
X11258333Y-11920476D01*
X11258333Y-11920476D02*
X11248809Y-11930000D01*
X11248809Y-11930000D02*
X11229762Y-11939524D01*
X11229762Y-11939524D02*
X11210714Y-11939524D01*
X11210714Y-11939524D02*
X11191667Y-11930000D01*
X11191667Y-11930000D02*
X11182143Y-11920476D01*
X11182143Y-11920476D02*
X11172619Y-11901428D01*
X11172619Y-11901428D02*
X11163095Y-11863333D01*
X11163095Y-11863333D02*
X11163095Y-11815714D01*
X11163095Y-11815714D02*
X11172619Y-11777619D01*
X11172619Y-11777619D02*
X11182143Y-11758571D01*
X11182143Y-11758571D02*
X11191667Y-11749048D01*
X11191667Y-11749048D02*
X11210714Y-11739524D01*
X11363095Y-11920476D02*
X11372619Y-11930000D01*
X11372619Y-11930000D02*
X11363095Y-11939524D01*
X11363095Y-11939524D02*
X11353571Y-11930000D01*
X11353571Y-11930000D02*
X11363095Y-11920476D01*
X11363095Y-11920476D02*
X11363095Y-11939524D01*
X11544048Y-11739524D02*
X11505952Y-11739524D01*
X11505952Y-11739524D02*
X11486905Y-11749048D01*
X11486905Y-11749048D02*
X11477381Y-11758571D01*
X11477381Y-11758571D02*
X11458333Y-11787143D01*
X11458333Y-11787143D02*
X11448809Y-11825238D01*
X11448809Y-11825238D02*
X11448809Y-11901428D01*
X11448809Y-11901428D02*
X11458333Y-11920476D01*
X11458333Y-11920476D02*
X11467857Y-11930000D01*
X11467857Y-11930000D02*
X11486905Y-11939524D01*
X11486905Y-11939524D02*
X11525000Y-11939524D01*
X11525000Y-11939524D02*
X11544048Y-11930000D01*
X11544048Y-11930000D02*
X11553571Y-11920476D01*
X11553571Y-11920476D02*
X11563095Y-11901428D01*
X11563095Y-11901428D02*
X11563095Y-11853809D01*
X11563095Y-11853809D02*
X11553571Y-11834762D01*
X11553571Y-11834762D02*
X11544048Y-11825238D01*
X11544048Y-11825238D02*
X11525000Y-11815714D01*
X11525000Y-11815714D02*
X11486905Y-11815714D01*
X11486905Y-11815714D02*
X11467857Y-11825238D01*
X11467857Y-11825238D02*
X11458333Y-11834762D01*
X11458333Y-11834762D02*
X11448809Y-11853809D01*
X11744048Y-11739524D02*
X11648809Y-11739524D01*
X11648809Y-11739524D02*
X11639286Y-11834762D01*
X11639286Y-11834762D02*
X11648809Y-11825238D01*
X11648809Y-11825238D02*
X11667857Y-11815714D01*
X11667857Y-11815714D02*
X11715476Y-11815714D01*
X11715476Y-11815714D02*
X11734524Y-11825238D01*
X11734524Y-11825238D02*
X11744048Y-11834762D01*
X11744048Y-11834762D02*
X11753571Y-11853809D01*
X11753571Y-11853809D02*
X11753571Y-11901428D01*
X11753571Y-11901428D02*
X11744048Y-11920476D01*
X11744048Y-11920476D02*
X11734524Y-11930000D01*
X11734524Y-11930000D02*
X11715476Y-11939524D01*
X11715476Y-11939524D02*
X11667857Y-11939524D01*
X11667857Y-11939524D02*
X11648809Y-11930000D01*
X11648809Y-11930000D02*
X11639286Y-11920476D01*
X11877381Y-11739524D02*
X11896429Y-11739524D01*
X11896429Y-11739524D02*
X11915476Y-11749048D01*
X11915476Y-11749048D02*
X11925000Y-11758571D01*
X11925000Y-11758571D02*
X11934524Y-11777619D01*
X11934524Y-11777619D02*
X11944048Y-11815714D01*
X11944048Y-11815714D02*
X11944048Y-11863333D01*
X11944048Y-11863333D02*
X11934524Y-11901428D01*
X11934524Y-11901428D02*
X11925000Y-11920476D01*
X11925000Y-11920476D02*
X11915476Y-11930000D01*
X11915476Y-11930000D02*
X11896429Y-11939524D01*
X11896429Y-11939524D02*
X11877381Y-11939524D01*
X11877381Y-11939524D02*
X11858333Y-11930000D01*
X11858333Y-11930000D02*
X11848809Y-11920476D01*
X11848809Y-11920476D02*
X11839286Y-11901428D01*
X11839286Y-11901428D02*
X11829762Y-11863333D01*
X11829762Y-11863333D02*
X11829762Y-11815714D01*
X11829762Y-11815714D02*
X11839286Y-11777619D01*
X11839286Y-11777619D02*
X11848809Y-11758571D01*
X11848809Y-11758571D02*
X11858333Y-11749048D01*
X11858333Y-11749048D02*
X11877381Y-11739524D01*
X12029762Y-11939524D02*
X12029762Y-11806190D01*
X12029762Y-11825238D02*
X12039286Y-11815714D01*
X12039286Y-11815714D02*
X12058333Y-11806190D01*
X12058333Y-11806190D02*
X12086905Y-11806190D01*
X12086905Y-11806190D02*
X12105952Y-11815714D01*
X12105952Y-11815714D02*
X12115476Y-11834762D01*
X12115476Y-11834762D02*
X12115476Y-11939524D01*
X12115476Y-11834762D02*
X12125000Y-11815714D01*
X12125000Y-11815714D02*
X12144048Y-11806190D01*
X12144048Y-11806190D02*
X12172619Y-11806190D01*
X12172619Y-11806190D02*
X12191667Y-11815714D01*
X12191667Y-11815714D02*
X12201190Y-11834762D01*
X12201190Y-11834762D02*
X12201190Y-11939524D01*
X12296429Y-11939524D02*
X12296429Y-11806190D01*
X12296429Y-11825238D02*
X12305952Y-11815714D01*
X12305952Y-11815714D02*
X12325000Y-11806190D01*
X12325000Y-11806190D02*
X12353571Y-11806190D01*
X12353571Y-11806190D02*
X12372619Y-11815714D01*
X12372619Y-11815714D02*
X12382143Y-11834762D01*
X12382143Y-11834762D02*
X12382143Y-11939524D01*
X12382143Y-11834762D02*
X12391667Y-11815714D01*
X12391667Y-11815714D02*
X12410714Y-11806190D01*
X12410714Y-11806190D02*
X12439286Y-11806190D01*
X12439286Y-11806190D02*
X12458333Y-11815714D01*
X12458333Y-11815714D02*
X12467857Y-11834762D01*
X12467857Y-11834762D02*
X12467857Y-11939524D01*
X12858333Y-11730000D02*
X12686905Y-11987143D01*
X13115476Y-11739524D02*
X13134524Y-11739524D01*
X13134524Y-11739524D02*
X13153572Y-11749048D01*
X13153572Y-11749048D02*
X13163095Y-11758571D01*
X13163095Y-11758571D02*
X13172619Y-11777619D01*
X13172619Y-11777619D02*
X13182143Y-11815714D01*
X13182143Y-11815714D02*
X13182143Y-11863333D01*
X13182143Y-11863333D02*
X13172619Y-11901428D01*
X13172619Y-11901428D02*
X13163095Y-11920476D01*
X13163095Y-11920476D02*
X13153572Y-11930000D01*
X13153572Y-11930000D02*
X13134524Y-11939524D01*
X13134524Y-11939524D02*
X13115476Y-11939524D01*
X13115476Y-11939524D02*
X13096429Y-11930000D01*
X13096429Y-11930000D02*
X13086905Y-11920476D01*
X13086905Y-11920476D02*
X13077381Y-11901428D01*
X13077381Y-11901428D02*
X13067857Y-11863333D01*
X13067857Y-11863333D02*
X13067857Y-11815714D01*
X13067857Y-11815714D02*
X13077381Y-11777619D01*
X13077381Y-11777619D02*
X13086905Y-11758571D01*
X13086905Y-11758571D02*
X13096429Y-11749048D01*
X13096429Y-11749048D02*
X13115476Y-11739524D01*
X13267857Y-11920476D02*
X13277381Y-11930000D01*
X13277381Y-11930000D02*
X13267857Y-11939524D01*
X13267857Y-11939524D02*
X13258333Y-11930000D01*
X13258333Y-11930000D02*
X13267857Y-11920476D01*
X13267857Y-11920476D02*
X13267857Y-11939524D01*
X13401191Y-11739524D02*
X13420238Y-11739524D01*
X13420238Y-11739524D02*
X13439286Y-11749048D01*
X13439286Y-11749048D02*
X13448810Y-11758571D01*
X13448810Y-11758571D02*
X13458333Y-11777619D01*
X13458333Y-11777619D02*
X13467857Y-11815714D01*
X13467857Y-11815714D02*
X13467857Y-11863333D01*
X13467857Y-11863333D02*
X13458333Y-11901428D01*
X13458333Y-11901428D02*
X13448810Y-11920476D01*
X13448810Y-11920476D02*
X13439286Y-11930000D01*
X13439286Y-11930000D02*
X13420238Y-11939524D01*
X13420238Y-11939524D02*
X13401191Y-11939524D01*
X13401191Y-11939524D02*
X13382143Y-11930000D01*
X13382143Y-11930000D02*
X13372619Y-11920476D01*
X13372619Y-11920476D02*
X13363095Y-11901428D01*
X13363095Y-11901428D02*
X13353572Y-11863333D01*
X13353572Y-11863333D02*
X13353572Y-11815714D01*
X13353572Y-11815714D02*
X13363095Y-11777619D01*
X13363095Y-11777619D02*
X13372619Y-11758571D01*
X13372619Y-11758571D02*
X13382143Y-11749048D01*
X13382143Y-11749048D02*
X13401191Y-11739524D01*
X13544048Y-11758571D02*
X13553572Y-11749048D01*
X13553572Y-11749048D02*
X13572619Y-11739524D01*
X13572619Y-11739524D02*
X13620238Y-11739524D01*
X13620238Y-11739524D02*
X13639286Y-11749048D01*
X13639286Y-11749048D02*
X13648810Y-11758571D01*
X13648810Y-11758571D02*
X13658333Y-11777619D01*
X13658333Y-11777619D02*
X13658333Y-11796667D01*
X13658333Y-11796667D02*
X13648810Y-11825238D01*
X13648810Y-11825238D02*
X13534524Y-11939524D01*
X13534524Y-11939524D02*
X13658333Y-11939524D01*
X13839286Y-11739524D02*
X13744048Y-11739524D01*
X13744048Y-11739524D02*
X13734524Y-11834762D01*
X13734524Y-11834762D02*
X13744048Y-11825238D01*
X13744048Y-11825238D02*
X13763095Y-11815714D01*
X13763095Y-11815714D02*
X13810714Y-11815714D01*
X13810714Y-11815714D02*
X13829762Y-11825238D01*
X13829762Y-11825238D02*
X13839286Y-11834762D01*
X13839286Y-11834762D02*
X13848810Y-11853809D01*
X13848810Y-11853809D02*
X13848810Y-11901428D01*
X13848810Y-11901428D02*
X13839286Y-11920476D01*
X13839286Y-11920476D02*
X13829762Y-11930000D01*
X13829762Y-11930000D02*
X13810714Y-11939524D01*
X13810714Y-11939524D02*
X13763095Y-11939524D01*
X13763095Y-11939524D02*
X13744048Y-11930000D01*
X13744048Y-11930000D02*
X13734524Y-11920476D01*
X14020238Y-11739524D02*
X13982143Y-11739524D01*
X13982143Y-11739524D02*
X13963095Y-11749048D01*
X13963095Y-11749048D02*
X13953572Y-11758571D01*
X13953572Y-11758571D02*
X13934524Y-11787143D01*
X13934524Y-11787143D02*
X13925000Y-11825238D01*
X13925000Y-11825238D02*
X13925000Y-11901428D01*
X13925000Y-11901428D02*
X13934524Y-11920476D01*
X13934524Y-11920476D02*
X13944048Y-11930000D01*
X13944048Y-11930000D02*
X13963095Y-11939524D01*
X13963095Y-11939524D02*
X14001191Y-11939524D01*
X14001191Y-11939524D02*
X14020238Y-11930000D01*
X14020238Y-11930000D02*
X14029762Y-11920476D01*
X14029762Y-11920476D02*
X14039286Y-11901428D01*
X14039286Y-11901428D02*
X14039286Y-11853809D01*
X14039286Y-11853809D02*
X14029762Y-11834762D01*
X14029762Y-11834762D02*
X14020238Y-11825238D01*
X14020238Y-11825238D02*
X14001191Y-11815714D01*
X14001191Y-11815714D02*
X13963095Y-11815714D01*
X13963095Y-11815714D02*
X13944048Y-11825238D01*
X13944048Y-11825238D02*
X13934524Y-11834762D01*
X13934524Y-11834762D02*
X13925000Y-11853809D01*
X14115476Y-11739524D02*
X14115476Y-11777619D01*
X14191667Y-11739524D02*
X14191667Y-11777619D01*
X14486905Y-12015714D02*
X14477381Y-12006190D01*
X14477381Y-12006190D02*
X14458334Y-11977619D01*
X14458334Y-11977619D02*
X14448810Y-11958571D01*
X14448810Y-11958571D02*
X14439286Y-11930000D01*
X14439286Y-11930000D02*
X14429762Y-11882381D01*
X14429762Y-11882381D02*
X14429762Y-11844286D01*
X14429762Y-11844286D02*
X14439286Y-11796667D01*
X14439286Y-11796667D02*
X14448810Y-11768095D01*
X14448810Y-11768095D02*
X14458334Y-11749048D01*
X14458334Y-11749048D02*
X14477381Y-11720476D01*
X14477381Y-11720476D02*
X14486905Y-11710952D01*
X14648810Y-11739524D02*
X14610714Y-11739524D01*
X14610714Y-11739524D02*
X14591667Y-11749048D01*
X14591667Y-11749048D02*
X14582143Y-11758571D01*
X14582143Y-11758571D02*
X14563095Y-11787143D01*
X14563095Y-11787143D02*
X14553572Y-11825238D01*
X14553572Y-11825238D02*
X14553572Y-11901428D01*
X14553572Y-11901428D02*
X14563095Y-11920476D01*
X14563095Y-11920476D02*
X14572619Y-11930000D01*
X14572619Y-11930000D02*
X14591667Y-11939524D01*
X14591667Y-11939524D02*
X14629762Y-11939524D01*
X14629762Y-11939524D02*
X14648810Y-11930000D01*
X14648810Y-11930000D02*
X14658334Y-11920476D01*
X14658334Y-11920476D02*
X14667857Y-11901428D01*
X14667857Y-11901428D02*
X14667857Y-11853809D01*
X14667857Y-11853809D02*
X14658334Y-11834762D01*
X14658334Y-11834762D02*
X14648810Y-11825238D01*
X14648810Y-11825238D02*
X14629762Y-11815714D01*
X14629762Y-11815714D02*
X14591667Y-11815714D01*
X14591667Y-11815714D02*
X14572619Y-11825238D01*
X14572619Y-11825238D02*
X14563095Y-11834762D01*
X14563095Y-11834762D02*
X14553572Y-11853809D01*
X14905953Y-11939524D02*
X14905953Y-11739524D01*
X14991667Y-11939524D02*
X14991667Y-11834762D01*
X14991667Y-11834762D02*
X14982143Y-11815714D01*
X14982143Y-11815714D02*
X14963096Y-11806190D01*
X14963096Y-11806190D02*
X14934524Y-11806190D01*
X14934524Y-11806190D02*
X14915476Y-11815714D01*
X14915476Y-11815714D02*
X14905953Y-11825238D01*
X15115476Y-11939524D02*
X15096429Y-11930000D01*
X15096429Y-11930000D02*
X15086905Y-11920476D01*
X15086905Y-11920476D02*
X15077381Y-11901428D01*
X15077381Y-11901428D02*
X15077381Y-11844286D01*
X15077381Y-11844286D02*
X15086905Y-11825238D01*
X15086905Y-11825238D02*
X15096429Y-11815714D01*
X15096429Y-11815714D02*
X15115476Y-11806190D01*
X15115476Y-11806190D02*
X15144048Y-11806190D01*
X15144048Y-11806190D02*
X15163096Y-11815714D01*
X15163096Y-11815714D02*
X15172619Y-11825238D01*
X15172619Y-11825238D02*
X15182143Y-11844286D01*
X15182143Y-11844286D02*
X15182143Y-11901428D01*
X15182143Y-11901428D02*
X15172619Y-11920476D01*
X15172619Y-11920476D02*
X15163096Y-11930000D01*
X15163096Y-11930000D02*
X15144048Y-11939524D01*
X15144048Y-11939524D02*
X15115476Y-11939524D01*
X15296429Y-11939524D02*
X15277381Y-11930000D01*
X15277381Y-11930000D02*
X15267857Y-11910952D01*
X15267857Y-11910952D02*
X15267857Y-11739524D01*
X15448810Y-11930000D02*
X15429762Y-11939524D01*
X15429762Y-11939524D02*
X15391667Y-11939524D01*
X15391667Y-11939524D02*
X15372619Y-11930000D01*
X15372619Y-11930000D02*
X15363096Y-11910952D01*
X15363096Y-11910952D02*
X15363096Y-11834762D01*
X15363096Y-11834762D02*
X15372619Y-11815714D01*
X15372619Y-11815714D02*
X15391667Y-11806190D01*
X15391667Y-11806190D02*
X15429762Y-11806190D01*
X15429762Y-11806190D02*
X15448810Y-11815714D01*
X15448810Y-11815714D02*
X15458334Y-11834762D01*
X15458334Y-11834762D02*
X15458334Y-11853809D01*
X15458334Y-11853809D02*
X15363096Y-11872857D01*
X15534524Y-11930000D02*
X15553572Y-11939524D01*
X15553572Y-11939524D02*
X15591667Y-11939524D01*
X15591667Y-11939524D02*
X15610715Y-11930000D01*
X15610715Y-11930000D02*
X15620238Y-11910952D01*
X15620238Y-11910952D02*
X15620238Y-11901428D01*
X15620238Y-11901428D02*
X15610715Y-11882381D01*
X15610715Y-11882381D02*
X15591667Y-11872857D01*
X15591667Y-11872857D02*
X15563096Y-11872857D01*
X15563096Y-11872857D02*
X15544048Y-11863333D01*
X15544048Y-11863333D02*
X15534524Y-11844286D01*
X15534524Y-11844286D02*
X15534524Y-11834762D01*
X15534524Y-11834762D02*
X15544048Y-11815714D01*
X15544048Y-11815714D02*
X15563096Y-11806190D01*
X15563096Y-11806190D02*
X15591667Y-11806190D01*
X15591667Y-11806190D02*
X15610715Y-11815714D01*
X15686905Y-12015714D02*
X15696429Y-12006190D01*
X15696429Y-12006190D02*
X15715477Y-11977619D01*
X15715477Y-11977619D02*
X15725000Y-11958571D01*
X15725000Y-11958571D02*
X15734524Y-11930000D01*
X15734524Y-11930000D02*
X15744048Y-11882381D01*
X15744048Y-11882381D02*
X15744048Y-11844286D01*
X15744048Y-11844286D02*
X15734524Y-11796667D01*
X15734524Y-11796667D02*
X15725000Y-11768095D01*
X15725000Y-11768095D02*
X15715477Y-11749048D01*
X15715477Y-11749048D02*
X15696429Y-11720476D01*
X15696429Y-11720476D02*
X15686905Y-11710952D01*
D10*
X10875000Y-12161000D02*
X10925000Y-12111000D01*
X10875000Y-12061000D01*
X10825000Y-12111000D01*
X10875000Y-12161000D01*
D11*
X11277381Y-12203524D02*
X11163095Y-12203524D01*
X11220238Y-12203524D02*
X11220238Y-12003524D01*
X11220238Y-12003524D02*
X11201190Y-12032095D01*
X11201190Y-12032095D02*
X11182143Y-12051143D01*
X11182143Y-12051143D02*
X11163095Y-12060667D01*
X11363095Y-12184476D02*
X11372619Y-12194000D01*
X11372619Y-12194000D02*
X11363095Y-12203524D01*
X11363095Y-12203524D02*
X11353571Y-12194000D01*
X11353571Y-12194000D02*
X11363095Y-12184476D01*
X11363095Y-12184476D02*
X11363095Y-12203524D01*
X11496428Y-12003524D02*
X11515476Y-12003524D01*
X11515476Y-12003524D02*
X11534524Y-12013048D01*
X11534524Y-12013048D02*
X11544048Y-12022571D01*
X11544048Y-12022571D02*
X11553571Y-12041619D01*
X11553571Y-12041619D02*
X11563095Y-12079714D01*
X11563095Y-12079714D02*
X11563095Y-12127333D01*
X11563095Y-12127333D02*
X11553571Y-12165428D01*
X11553571Y-12165428D02*
X11544048Y-12184476D01*
X11544048Y-12184476D02*
X11534524Y-12194000D01*
X11534524Y-12194000D02*
X11515476Y-12203524D01*
X11515476Y-12203524D02*
X11496428Y-12203524D01*
X11496428Y-12203524D02*
X11477381Y-12194000D01*
X11477381Y-12194000D02*
X11467857Y-12184476D01*
X11467857Y-12184476D02*
X11458333Y-12165428D01*
X11458333Y-12165428D02*
X11448809Y-12127333D01*
X11448809Y-12127333D02*
X11448809Y-12079714D01*
X11448809Y-12079714D02*
X11458333Y-12041619D01*
X11458333Y-12041619D02*
X11467857Y-12022571D01*
X11467857Y-12022571D02*
X11477381Y-12013048D01*
X11477381Y-12013048D02*
X11496428Y-12003524D01*
X11686905Y-12003524D02*
X11705952Y-12003524D01*
X11705952Y-12003524D02*
X11725000Y-12013048D01*
X11725000Y-12013048D02*
X11734524Y-12022571D01*
X11734524Y-12022571D02*
X11744048Y-12041619D01*
X11744048Y-12041619D02*
X11753571Y-12079714D01*
X11753571Y-12079714D02*
X11753571Y-12127333D01*
X11753571Y-12127333D02*
X11744048Y-12165428D01*
X11744048Y-12165428D02*
X11734524Y-12184476D01*
X11734524Y-12184476D02*
X11725000Y-12194000D01*
X11725000Y-12194000D02*
X11705952Y-12203524D01*
X11705952Y-12203524D02*
X11686905Y-12203524D01*
X11686905Y-12203524D02*
X11667857Y-12194000D01*
X11667857Y-12194000D02*
X11658333Y-12184476D01*
X11658333Y-12184476D02*
X11648809Y-12165428D01*
X11648809Y-12165428D02*
X11639286Y-12127333D01*
X11639286Y-12127333D02*
X11639286Y-12079714D01*
X11639286Y-12079714D02*
X11648809Y-12041619D01*
X11648809Y-12041619D02*
X11658333Y-12022571D01*
X11658333Y-12022571D02*
X11667857Y-12013048D01*
X11667857Y-12013048D02*
X11686905Y-12003524D01*
X11877381Y-12003524D02*
X11896429Y-12003524D01*
X11896429Y-12003524D02*
X11915476Y-12013048D01*
X11915476Y-12013048D02*
X11925000Y-12022571D01*
X11925000Y-12022571D02*
X11934524Y-12041619D01*
X11934524Y-12041619D02*
X11944048Y-12079714D01*
X11944048Y-12079714D02*
X11944048Y-12127333D01*
X11944048Y-12127333D02*
X11934524Y-12165428D01*
X11934524Y-12165428D02*
X11925000Y-12184476D01*
X11925000Y-12184476D02*
X11915476Y-12194000D01*
X11915476Y-12194000D02*
X11896429Y-12203524D01*
X11896429Y-12203524D02*
X11877381Y-12203524D01*
X11877381Y-12203524D02*
X11858333Y-12194000D01*
X11858333Y-12194000D02*
X11848809Y-12184476D01*
X11848809Y-12184476D02*
X11839286Y-12165428D01*
X11839286Y-12165428D02*
X11829762Y-12127333D01*
X11829762Y-12127333D02*
X11829762Y-12079714D01*
X11829762Y-12079714D02*
X11839286Y-12041619D01*
X11839286Y-12041619D02*
X11848809Y-12022571D01*
X11848809Y-12022571D02*
X11858333Y-12013048D01*
X11858333Y-12013048D02*
X11877381Y-12003524D01*
X12029762Y-12203524D02*
X12029762Y-12070190D01*
X12029762Y-12089238D02*
X12039286Y-12079714D01*
X12039286Y-12079714D02*
X12058333Y-12070190D01*
X12058333Y-12070190D02*
X12086905Y-12070190D01*
X12086905Y-12070190D02*
X12105952Y-12079714D01*
X12105952Y-12079714D02*
X12115476Y-12098762D01*
X12115476Y-12098762D02*
X12115476Y-12203524D01*
X12115476Y-12098762D02*
X12125000Y-12079714D01*
X12125000Y-12079714D02*
X12144048Y-12070190D01*
X12144048Y-12070190D02*
X12172619Y-12070190D01*
X12172619Y-12070190D02*
X12191667Y-12079714D01*
X12191667Y-12079714D02*
X12201190Y-12098762D01*
X12201190Y-12098762D02*
X12201190Y-12203524D01*
X12296429Y-12203524D02*
X12296429Y-12070190D01*
X12296429Y-12089238D02*
X12305952Y-12079714D01*
X12305952Y-12079714D02*
X12325000Y-12070190D01*
X12325000Y-12070190D02*
X12353571Y-12070190D01*
X12353571Y-12070190D02*
X12372619Y-12079714D01*
X12372619Y-12079714D02*
X12382143Y-12098762D01*
X12382143Y-12098762D02*
X12382143Y-12203524D01*
X12382143Y-12098762D02*
X12391667Y-12079714D01*
X12391667Y-12079714D02*
X12410714Y-12070190D01*
X12410714Y-12070190D02*
X12439286Y-12070190D01*
X12439286Y-12070190D02*
X12458333Y-12079714D01*
X12458333Y-12079714D02*
X12467857Y-12098762D01*
X12467857Y-12098762D02*
X12467857Y-12203524D01*
X12858333Y-11994000D02*
X12686905Y-12251143D01*
X13115476Y-12003524D02*
X13134524Y-12003524D01*
X13134524Y-12003524D02*
X13153572Y-12013048D01*
X13153572Y-12013048D02*
X13163095Y-12022571D01*
X13163095Y-12022571D02*
X13172619Y-12041619D01*
X13172619Y-12041619D02*
X13182143Y-12079714D01*
X13182143Y-12079714D02*
X13182143Y-12127333D01*
X13182143Y-12127333D02*
X13172619Y-12165428D01*
X13172619Y-12165428D02*
X13163095Y-12184476D01*
X13163095Y-12184476D02*
X13153572Y-12194000D01*
X13153572Y-12194000D02*
X13134524Y-12203524D01*
X13134524Y-12203524D02*
X13115476Y-12203524D01*
X13115476Y-12203524D02*
X13096429Y-12194000D01*
X13096429Y-12194000D02*
X13086905Y-12184476D01*
X13086905Y-12184476D02*
X13077381Y-12165428D01*
X13077381Y-12165428D02*
X13067857Y-12127333D01*
X13067857Y-12127333D02*
X13067857Y-12079714D01*
X13067857Y-12079714D02*
X13077381Y-12041619D01*
X13077381Y-12041619D02*
X13086905Y-12022571D01*
X13086905Y-12022571D02*
X13096429Y-12013048D01*
X13096429Y-12013048D02*
X13115476Y-12003524D01*
X13267857Y-12184476D02*
X13277381Y-12194000D01*
X13277381Y-12194000D02*
X13267857Y-12203524D01*
X13267857Y-12203524D02*
X13258333Y-12194000D01*
X13258333Y-12194000D02*
X13267857Y-12184476D01*
X13267857Y-12184476D02*
X13267857Y-12203524D01*
X13401191Y-12003524D02*
X13420238Y-12003524D01*
X13420238Y-12003524D02*
X13439286Y-12013048D01*
X13439286Y-12013048D02*
X13448810Y-12022571D01*
X13448810Y-12022571D02*
X13458333Y-12041619D01*
X13458333Y-12041619D02*
X13467857Y-12079714D01*
X13467857Y-12079714D02*
X13467857Y-12127333D01*
X13467857Y-12127333D02*
X13458333Y-12165428D01*
X13458333Y-12165428D02*
X13448810Y-12184476D01*
X13448810Y-12184476D02*
X13439286Y-12194000D01*
X13439286Y-12194000D02*
X13420238Y-12203524D01*
X13420238Y-12203524D02*
X13401191Y-12203524D01*
X13401191Y-12203524D02*
X13382143Y-12194000D01*
X13382143Y-12194000D02*
X13372619Y-12184476D01*
X13372619Y-12184476D02*
X13363095Y-12165428D01*
X13363095Y-12165428D02*
X13353572Y-12127333D01*
X13353572Y-12127333D02*
X13353572Y-12079714D01*
X13353572Y-12079714D02*
X13363095Y-12041619D01*
X13363095Y-12041619D02*
X13372619Y-12022571D01*
X13372619Y-12022571D02*
X13382143Y-12013048D01*
X13382143Y-12013048D02*
X13401191Y-12003524D01*
X13534524Y-12003524D02*
X13658333Y-12003524D01*
X13658333Y-12003524D02*
X13591667Y-12079714D01*
X13591667Y-12079714D02*
X13620238Y-12079714D01*
X13620238Y-12079714D02*
X13639286Y-12089238D01*
X13639286Y-12089238D02*
X13648810Y-12098762D01*
X13648810Y-12098762D02*
X13658333Y-12117809D01*
X13658333Y-12117809D02*
X13658333Y-12165428D01*
X13658333Y-12165428D02*
X13648810Y-12184476D01*
X13648810Y-12184476D02*
X13639286Y-12194000D01*
X13639286Y-12194000D02*
X13620238Y-12203524D01*
X13620238Y-12203524D02*
X13563095Y-12203524D01*
X13563095Y-12203524D02*
X13544048Y-12194000D01*
X13544048Y-12194000D02*
X13534524Y-12184476D01*
X13753572Y-12203524D02*
X13791667Y-12203524D01*
X13791667Y-12203524D02*
X13810714Y-12194000D01*
X13810714Y-12194000D02*
X13820238Y-12184476D01*
X13820238Y-12184476D02*
X13839286Y-12155905D01*
X13839286Y-12155905D02*
X13848810Y-12117809D01*
X13848810Y-12117809D02*
X13848810Y-12041619D01*
X13848810Y-12041619D02*
X13839286Y-12022571D01*
X13839286Y-12022571D02*
X13829762Y-12013048D01*
X13829762Y-12013048D02*
X13810714Y-12003524D01*
X13810714Y-12003524D02*
X13772619Y-12003524D01*
X13772619Y-12003524D02*
X13753572Y-12013048D01*
X13753572Y-12013048D02*
X13744048Y-12022571D01*
X13744048Y-12022571D02*
X13734524Y-12041619D01*
X13734524Y-12041619D02*
X13734524Y-12089238D01*
X13734524Y-12089238D02*
X13744048Y-12108286D01*
X13744048Y-12108286D02*
X13753572Y-12117809D01*
X13753572Y-12117809D02*
X13772619Y-12127333D01*
X13772619Y-12127333D02*
X13810714Y-12127333D01*
X13810714Y-12127333D02*
X13829762Y-12117809D01*
X13829762Y-12117809D02*
X13839286Y-12108286D01*
X13839286Y-12108286D02*
X13848810Y-12089238D01*
X14020238Y-12070190D02*
X14020238Y-12203524D01*
X13972619Y-11994000D02*
X13925000Y-12136857D01*
X13925000Y-12136857D02*
X14048810Y-12136857D01*
X14115476Y-12003524D02*
X14115476Y-12041619D01*
X14191667Y-12003524D02*
X14191667Y-12041619D01*
X14486905Y-12279714D02*
X14477381Y-12270190D01*
X14477381Y-12270190D02*
X14458334Y-12241619D01*
X14458334Y-12241619D02*
X14448810Y-12222571D01*
X14448810Y-12222571D02*
X14439286Y-12194000D01*
X14439286Y-12194000D02*
X14429762Y-12146381D01*
X14429762Y-12146381D02*
X14429762Y-12108286D01*
X14429762Y-12108286D02*
X14439286Y-12060667D01*
X14439286Y-12060667D02*
X14448810Y-12032095D01*
X14448810Y-12032095D02*
X14458334Y-12013048D01*
X14458334Y-12013048D02*
X14477381Y-11984476D01*
X14477381Y-11984476D02*
X14486905Y-11974952D01*
X14648810Y-12070190D02*
X14648810Y-12203524D01*
X14601191Y-11994000D02*
X14553572Y-12136857D01*
X14553572Y-12136857D02*
X14677381Y-12136857D01*
X14791667Y-12003524D02*
X14810715Y-12003524D01*
X14810715Y-12003524D02*
X14829762Y-12013048D01*
X14829762Y-12013048D02*
X14839286Y-12022571D01*
X14839286Y-12022571D02*
X14848810Y-12041619D01*
X14848810Y-12041619D02*
X14858334Y-12079714D01*
X14858334Y-12079714D02*
X14858334Y-12127333D01*
X14858334Y-12127333D02*
X14848810Y-12165428D01*
X14848810Y-12165428D02*
X14839286Y-12184476D01*
X14839286Y-12184476D02*
X14829762Y-12194000D01*
X14829762Y-12194000D02*
X14810715Y-12203524D01*
X14810715Y-12203524D02*
X14791667Y-12203524D01*
X14791667Y-12203524D02*
X14772619Y-12194000D01*
X14772619Y-12194000D02*
X14763095Y-12184476D01*
X14763095Y-12184476D02*
X14753572Y-12165428D01*
X14753572Y-12165428D02*
X14744048Y-12127333D01*
X14744048Y-12127333D02*
X14744048Y-12079714D01*
X14744048Y-12079714D02*
X14753572Y-12041619D01*
X14753572Y-12041619D02*
X14763095Y-12022571D01*
X14763095Y-12022571D02*
X14772619Y-12013048D01*
X14772619Y-12013048D02*
X14791667Y-12003524D01*
X15096429Y-12203524D02*
X15096429Y-12003524D01*
X15182143Y-12203524D02*
X15182143Y-12098762D01*
X15182143Y-12098762D02*
X15172619Y-12079714D01*
X15172619Y-12079714D02*
X15153572Y-12070190D01*
X15153572Y-12070190D02*
X15125000Y-12070190D01*
X15125000Y-12070190D02*
X15105953Y-12079714D01*
X15105953Y-12079714D02*
X15096429Y-12089238D01*
X15305953Y-12203524D02*
X15286905Y-12194000D01*
X15286905Y-12194000D02*
X15277381Y-12184476D01*
X15277381Y-12184476D02*
X15267857Y-12165428D01*
X15267857Y-12165428D02*
X15267857Y-12108286D01*
X15267857Y-12108286D02*
X15277381Y-12089238D01*
X15277381Y-12089238D02*
X15286905Y-12079714D01*
X15286905Y-12079714D02*
X15305953Y-12070190D01*
X15305953Y-12070190D02*
X15334524Y-12070190D01*
X15334524Y-12070190D02*
X15353572Y-12079714D01*
X15353572Y-12079714D02*
X15363096Y-12089238D01*
X15363096Y-12089238D02*
X15372619Y-12108286D01*
X15372619Y-12108286D02*
X15372619Y-12165428D01*
X15372619Y-12165428D02*
X15363096Y-12184476D01*
X15363096Y-12184476D02*
X15353572Y-12194000D01*
X15353572Y-12194000D02*
X15334524Y-12203524D01*
X15334524Y-12203524D02*
X15305953Y-12203524D01*
X15486905Y-12203524D02*
X15467857Y-12194000D01*
X15467857Y-12194000D02*
X15458334Y-12174952D01*
X15458334Y-12174952D02*
X15458334Y-12003524D01*
X15639286Y-12194000D02*
X15620238Y-12203524D01*
X15620238Y-12203524D02*
X15582143Y-12203524D01*
X15582143Y-12203524D02*
X15563096Y-12194000D01*
X15563096Y-12194000D02*
X15553572Y-12174952D01*
X15553572Y-12174952D02*
X15553572Y-12098762D01*
X15553572Y-12098762D02*
X15563096Y-12079714D01*
X15563096Y-12079714D02*
X15582143Y-12070190D01*
X15582143Y-12070190D02*
X15620238Y-12070190D01*
X15620238Y-12070190D02*
X15639286Y-12079714D01*
X15639286Y-12079714D02*
X15648810Y-12098762D01*
X15648810Y-12098762D02*
X15648810Y-12117809D01*
X15648810Y-12117809D02*
X15553572Y-12136857D01*
X15725000Y-12194000D02*
X15744048Y-12203524D01*
X15744048Y-12203524D02*
X15782143Y-12203524D01*
X15782143Y-12203524D02*
X15801191Y-12194000D01*
X15801191Y-12194000D02*
X15810715Y-12174952D01*
X15810715Y-12174952D02*
X15810715Y-12165428D01*
X15810715Y-12165428D02*
X15801191Y-12146381D01*
X15801191Y-12146381D02*
X15782143Y-12136857D01*
X15782143Y-12136857D02*
X15753572Y-12136857D01*
X15753572Y-12136857D02*
X15734524Y-12127333D01*
X15734524Y-12127333D02*
X15725000Y-12108286D01*
X15725000Y-12108286D02*
X15725000Y-12098762D01*
X15725000Y-12098762D02*
X15734524Y-12079714D01*
X15734524Y-12079714D02*
X15753572Y-12070190D01*
X15753572Y-12070190D02*
X15782143Y-12070190D01*
X15782143Y-12070190D02*
X15801191Y-12079714D01*
X15877381Y-12279714D02*
X15886905Y-12270190D01*
X15886905Y-12270190D02*
X15905953Y-12241619D01*
X15905953Y-12241619D02*
X15915477Y-12222571D01*
X15915477Y-12222571D02*
X15925000Y-12194000D01*
X15925000Y-12194000D02*
X15934524Y-12146381D01*
X15934524Y-12146381D02*
X15934524Y-12108286D01*
X15934524Y-12108286D02*
X15925000Y-12060667D01*
X15925000Y-12060667D02*
X15915477Y-12032095D01*
X15915477Y-12032095D02*
X15905953Y-12013048D01*
X15905953Y-12013048D02*
X15886905Y-11984476D01*
X15886905Y-11984476D02*
X15877381Y-11974952D01*
D16*
X10810000Y-12317500D02*
X10925000Y-12432500D01*
X10925000Y-12317500D02*
X10810000Y-12432500D01*
X10925000Y-12375000D02*
G75*
G03*
X10925000Y-12375000I-57500J0D01*
G01*
D11*
X11277381Y-12467524D02*
X11163095Y-12467524D01*
X11220238Y-12467524D02*
X11220238Y-12267524D01*
X11220238Y-12267524D02*
X11201190Y-12296095D01*
X11201190Y-12296095D02*
X11182143Y-12315143D01*
X11182143Y-12315143D02*
X11163095Y-12324667D01*
X11363095Y-12448476D02*
X11372619Y-12458000D01*
X11372619Y-12458000D02*
X11363095Y-12467524D01*
X11363095Y-12467524D02*
X11353571Y-12458000D01*
X11353571Y-12458000D02*
X11363095Y-12448476D01*
X11363095Y-12448476D02*
X11363095Y-12467524D01*
X11563095Y-12467524D02*
X11448809Y-12467524D01*
X11505952Y-12467524D02*
X11505952Y-12267524D01*
X11505952Y-12267524D02*
X11486905Y-12296095D01*
X11486905Y-12296095D02*
X11467857Y-12315143D01*
X11467857Y-12315143D02*
X11448809Y-12324667D01*
X11744048Y-12267524D02*
X11648809Y-12267524D01*
X11648809Y-12267524D02*
X11639286Y-12362762D01*
X11639286Y-12362762D02*
X11648809Y-12353238D01*
X11648809Y-12353238D02*
X11667857Y-12343714D01*
X11667857Y-12343714D02*
X11715476Y-12343714D01*
X11715476Y-12343714D02*
X11734524Y-12353238D01*
X11734524Y-12353238D02*
X11744048Y-12362762D01*
X11744048Y-12362762D02*
X11753571Y-12381809D01*
X11753571Y-12381809D02*
X11753571Y-12429428D01*
X11753571Y-12429428D02*
X11744048Y-12448476D01*
X11744048Y-12448476D02*
X11734524Y-12458000D01*
X11734524Y-12458000D02*
X11715476Y-12467524D01*
X11715476Y-12467524D02*
X11667857Y-12467524D01*
X11667857Y-12467524D02*
X11648809Y-12458000D01*
X11648809Y-12458000D02*
X11639286Y-12448476D01*
X11877381Y-12267524D02*
X11896429Y-12267524D01*
X11896429Y-12267524D02*
X11915476Y-12277048D01*
X11915476Y-12277048D02*
X11925000Y-12286571D01*
X11925000Y-12286571D02*
X11934524Y-12305619D01*
X11934524Y-12305619D02*
X11944048Y-12343714D01*
X11944048Y-12343714D02*
X11944048Y-12391333D01*
X11944048Y-12391333D02*
X11934524Y-12429428D01*
X11934524Y-12429428D02*
X11925000Y-12448476D01*
X11925000Y-12448476D02*
X11915476Y-12458000D01*
X11915476Y-12458000D02*
X11896429Y-12467524D01*
X11896429Y-12467524D02*
X11877381Y-12467524D01*
X11877381Y-12467524D02*
X11858333Y-12458000D01*
X11858333Y-12458000D02*
X11848809Y-12448476D01*
X11848809Y-12448476D02*
X11839286Y-12429428D01*
X11839286Y-12429428D02*
X11829762Y-12391333D01*
X11829762Y-12391333D02*
X11829762Y-12343714D01*
X11829762Y-12343714D02*
X11839286Y-12305619D01*
X11839286Y-12305619D02*
X11848809Y-12286571D01*
X11848809Y-12286571D02*
X11858333Y-12277048D01*
X11858333Y-12277048D02*
X11877381Y-12267524D01*
X12029762Y-12467524D02*
X12029762Y-12334190D01*
X12029762Y-12353238D02*
X12039286Y-12343714D01*
X12039286Y-12343714D02*
X12058333Y-12334190D01*
X12058333Y-12334190D02*
X12086905Y-12334190D01*
X12086905Y-12334190D02*
X12105952Y-12343714D01*
X12105952Y-12343714D02*
X12115476Y-12362762D01*
X12115476Y-12362762D02*
X12115476Y-12467524D01*
X12115476Y-12362762D02*
X12125000Y-12343714D01*
X12125000Y-12343714D02*
X12144048Y-12334190D01*
X12144048Y-12334190D02*
X12172619Y-12334190D01*
X12172619Y-12334190D02*
X12191667Y-12343714D01*
X12191667Y-12343714D02*
X12201190Y-12362762D01*
X12201190Y-12362762D02*
X12201190Y-12467524D01*
X12296429Y-12467524D02*
X12296429Y-12334190D01*
X12296429Y-12353238D02*
X12305952Y-12343714D01*
X12305952Y-12343714D02*
X12325000Y-12334190D01*
X12325000Y-12334190D02*
X12353571Y-12334190D01*
X12353571Y-12334190D02*
X12372619Y-12343714D01*
X12372619Y-12343714D02*
X12382143Y-12362762D01*
X12382143Y-12362762D02*
X12382143Y-12467524D01*
X12382143Y-12362762D02*
X12391667Y-12343714D01*
X12391667Y-12343714D02*
X12410714Y-12334190D01*
X12410714Y-12334190D02*
X12439286Y-12334190D01*
X12439286Y-12334190D02*
X12458333Y-12343714D01*
X12458333Y-12343714D02*
X12467857Y-12362762D01*
X12467857Y-12362762D02*
X12467857Y-12467524D01*
X12858333Y-12258000D02*
X12686905Y-12515143D01*
X13115476Y-12267524D02*
X13134524Y-12267524D01*
X13134524Y-12267524D02*
X13153572Y-12277048D01*
X13153572Y-12277048D02*
X13163095Y-12286571D01*
X13163095Y-12286571D02*
X13172619Y-12305619D01*
X13172619Y-12305619D02*
X13182143Y-12343714D01*
X13182143Y-12343714D02*
X13182143Y-12391333D01*
X13182143Y-12391333D02*
X13172619Y-12429428D01*
X13172619Y-12429428D02*
X13163095Y-12448476D01*
X13163095Y-12448476D02*
X13153572Y-12458000D01*
X13153572Y-12458000D02*
X13134524Y-12467524D01*
X13134524Y-12467524D02*
X13115476Y-12467524D01*
X13115476Y-12467524D02*
X13096429Y-12458000D01*
X13096429Y-12458000D02*
X13086905Y-12448476D01*
X13086905Y-12448476D02*
X13077381Y-12429428D01*
X13077381Y-12429428D02*
X13067857Y-12391333D01*
X13067857Y-12391333D02*
X13067857Y-12343714D01*
X13067857Y-12343714D02*
X13077381Y-12305619D01*
X13077381Y-12305619D02*
X13086905Y-12286571D01*
X13086905Y-12286571D02*
X13096429Y-12277048D01*
X13096429Y-12277048D02*
X13115476Y-12267524D01*
X13267857Y-12448476D02*
X13277381Y-12458000D01*
X13277381Y-12458000D02*
X13267857Y-12467524D01*
X13267857Y-12467524D02*
X13258333Y-12458000D01*
X13258333Y-12458000D02*
X13267857Y-12448476D01*
X13267857Y-12448476D02*
X13267857Y-12467524D01*
X13401191Y-12267524D02*
X13420238Y-12267524D01*
X13420238Y-12267524D02*
X13439286Y-12277048D01*
X13439286Y-12277048D02*
X13448810Y-12286571D01*
X13448810Y-12286571D02*
X13458333Y-12305619D01*
X13458333Y-12305619D02*
X13467857Y-12343714D01*
X13467857Y-12343714D02*
X13467857Y-12391333D01*
X13467857Y-12391333D02*
X13458333Y-12429428D01*
X13458333Y-12429428D02*
X13448810Y-12448476D01*
X13448810Y-12448476D02*
X13439286Y-12458000D01*
X13439286Y-12458000D02*
X13420238Y-12467524D01*
X13420238Y-12467524D02*
X13401191Y-12467524D01*
X13401191Y-12467524D02*
X13382143Y-12458000D01*
X13382143Y-12458000D02*
X13372619Y-12448476D01*
X13372619Y-12448476D02*
X13363095Y-12429428D01*
X13363095Y-12429428D02*
X13353572Y-12391333D01*
X13353572Y-12391333D02*
X13353572Y-12343714D01*
X13353572Y-12343714D02*
X13363095Y-12305619D01*
X13363095Y-12305619D02*
X13372619Y-12286571D01*
X13372619Y-12286571D02*
X13382143Y-12277048D01*
X13382143Y-12277048D02*
X13401191Y-12267524D01*
X13639286Y-12334190D02*
X13639286Y-12467524D01*
X13591667Y-12258000D02*
X13544048Y-12400857D01*
X13544048Y-12400857D02*
X13667857Y-12400857D01*
X13839286Y-12267524D02*
X13744048Y-12267524D01*
X13744048Y-12267524D02*
X13734524Y-12362762D01*
X13734524Y-12362762D02*
X13744048Y-12353238D01*
X13744048Y-12353238D02*
X13763095Y-12343714D01*
X13763095Y-12343714D02*
X13810714Y-12343714D01*
X13810714Y-12343714D02*
X13829762Y-12353238D01*
X13829762Y-12353238D02*
X13839286Y-12362762D01*
X13839286Y-12362762D02*
X13848810Y-12381809D01*
X13848810Y-12381809D02*
X13848810Y-12429428D01*
X13848810Y-12429428D02*
X13839286Y-12448476D01*
X13839286Y-12448476D02*
X13829762Y-12458000D01*
X13829762Y-12458000D02*
X13810714Y-12467524D01*
X13810714Y-12467524D02*
X13763095Y-12467524D01*
X13763095Y-12467524D02*
X13744048Y-12458000D01*
X13744048Y-12458000D02*
X13734524Y-12448476D01*
X13915476Y-12267524D02*
X14039286Y-12267524D01*
X14039286Y-12267524D02*
X13972619Y-12343714D01*
X13972619Y-12343714D02*
X14001191Y-12343714D01*
X14001191Y-12343714D02*
X14020238Y-12353238D01*
X14020238Y-12353238D02*
X14029762Y-12362762D01*
X14029762Y-12362762D02*
X14039286Y-12381809D01*
X14039286Y-12381809D02*
X14039286Y-12429428D01*
X14039286Y-12429428D02*
X14029762Y-12448476D01*
X14029762Y-12448476D02*
X14020238Y-12458000D01*
X14020238Y-12458000D02*
X14001191Y-12467524D01*
X14001191Y-12467524D02*
X13944048Y-12467524D01*
X13944048Y-12467524D02*
X13925000Y-12458000D01*
X13925000Y-12458000D02*
X13915476Y-12448476D01*
X14115476Y-12267524D02*
X14115476Y-12305619D01*
X14191667Y-12267524D02*
X14191667Y-12305619D01*
X14486905Y-12543714D02*
X14477381Y-12534190D01*
X14477381Y-12534190D02*
X14458334Y-12505619D01*
X14458334Y-12505619D02*
X14448810Y-12486571D01*
X14448810Y-12486571D02*
X14439286Y-12458000D01*
X14439286Y-12458000D02*
X14429762Y-12410381D01*
X14429762Y-12410381D02*
X14429762Y-12372286D01*
X14429762Y-12372286D02*
X14439286Y-12324667D01*
X14439286Y-12324667D02*
X14448810Y-12296095D01*
X14448810Y-12296095D02*
X14458334Y-12277048D01*
X14458334Y-12277048D02*
X14477381Y-12248476D01*
X14477381Y-12248476D02*
X14486905Y-12238952D01*
X14667857Y-12467524D02*
X14553572Y-12467524D01*
X14610714Y-12467524D02*
X14610714Y-12267524D01*
X14610714Y-12267524D02*
X14591667Y-12296095D01*
X14591667Y-12296095D02*
X14572619Y-12315143D01*
X14572619Y-12315143D02*
X14553572Y-12324667D01*
X14905953Y-12467524D02*
X14905953Y-12267524D01*
X14991667Y-12467524D02*
X14991667Y-12362762D01*
X14991667Y-12362762D02*
X14982143Y-12343714D01*
X14982143Y-12343714D02*
X14963096Y-12334190D01*
X14963096Y-12334190D02*
X14934524Y-12334190D01*
X14934524Y-12334190D02*
X14915476Y-12343714D01*
X14915476Y-12343714D02*
X14905953Y-12353238D01*
X15115476Y-12467524D02*
X15096429Y-12458000D01*
X15096429Y-12458000D02*
X15086905Y-12448476D01*
X15086905Y-12448476D02*
X15077381Y-12429428D01*
X15077381Y-12429428D02*
X15077381Y-12372286D01*
X15077381Y-12372286D02*
X15086905Y-12353238D01*
X15086905Y-12353238D02*
X15096429Y-12343714D01*
X15096429Y-12343714D02*
X15115476Y-12334190D01*
X15115476Y-12334190D02*
X15144048Y-12334190D01*
X15144048Y-12334190D02*
X15163096Y-12343714D01*
X15163096Y-12343714D02*
X15172619Y-12353238D01*
X15172619Y-12353238D02*
X15182143Y-12372286D01*
X15182143Y-12372286D02*
X15182143Y-12429428D01*
X15182143Y-12429428D02*
X15172619Y-12448476D01*
X15172619Y-12448476D02*
X15163096Y-12458000D01*
X15163096Y-12458000D02*
X15144048Y-12467524D01*
X15144048Y-12467524D02*
X15115476Y-12467524D01*
X15296429Y-12467524D02*
X15277381Y-12458000D01*
X15277381Y-12458000D02*
X15267857Y-12438952D01*
X15267857Y-12438952D02*
X15267857Y-12267524D01*
X15448810Y-12458000D02*
X15429762Y-12467524D01*
X15429762Y-12467524D02*
X15391667Y-12467524D01*
X15391667Y-12467524D02*
X15372619Y-12458000D01*
X15372619Y-12458000D02*
X15363096Y-12438952D01*
X15363096Y-12438952D02*
X15363096Y-12362762D01*
X15363096Y-12362762D02*
X15372619Y-12343714D01*
X15372619Y-12343714D02*
X15391667Y-12334190D01*
X15391667Y-12334190D02*
X15429762Y-12334190D01*
X15429762Y-12334190D02*
X15448810Y-12343714D01*
X15448810Y-12343714D02*
X15458334Y-12362762D01*
X15458334Y-12362762D02*
X15458334Y-12381809D01*
X15458334Y-12381809D02*
X15363096Y-12400857D01*
X15525000Y-12543714D02*
X15534524Y-12534190D01*
X15534524Y-12534190D02*
X15553572Y-12505619D01*
X15553572Y-12505619D02*
X15563096Y-12486571D01*
X15563096Y-12486571D02*
X15572619Y-12458000D01*
X15572619Y-12458000D02*
X15582143Y-12410381D01*
X15582143Y-12410381D02*
X15582143Y-12372286D01*
X15582143Y-12372286D02*
X15572619Y-12324667D01*
X15572619Y-12324667D02*
X15563096Y-12296095D01*
X15563096Y-12296095D02*
X15553572Y-12277048D01*
X15553572Y-12277048D02*
X15534524Y-12248476D01*
X15534524Y-12248476D02*
X15525000Y-12238952D01*
D17*
X10760000Y-12556500D02*
X10925000Y-12721500D01*
X10925000Y-12556500D02*
X10760000Y-12721500D01*
X10842500Y-12556500D02*
X10842500Y-12721500D01*
X10760000Y-12639000D02*
X10925000Y-12639000D01*
D11*
X11277381Y-12731524D02*
X11163095Y-12731524D01*
X11220238Y-12731524D02*
X11220238Y-12531524D01*
X11220238Y-12531524D02*
X11201190Y-12560095D01*
X11201190Y-12560095D02*
X11182143Y-12579143D01*
X11182143Y-12579143D02*
X11163095Y-12588667D01*
X11363095Y-12712476D02*
X11372619Y-12722000D01*
X11372619Y-12722000D02*
X11363095Y-12731524D01*
X11363095Y-12731524D02*
X11353571Y-12722000D01*
X11353571Y-12722000D02*
X11363095Y-12712476D01*
X11363095Y-12712476D02*
X11363095Y-12731524D01*
X11544048Y-12531524D02*
X11505952Y-12531524D01*
X11505952Y-12531524D02*
X11486905Y-12541048D01*
X11486905Y-12541048D02*
X11477381Y-12550571D01*
X11477381Y-12550571D02*
X11458333Y-12579143D01*
X11458333Y-12579143D02*
X11448809Y-12617238D01*
X11448809Y-12617238D02*
X11448809Y-12693428D01*
X11448809Y-12693428D02*
X11458333Y-12712476D01*
X11458333Y-12712476D02*
X11467857Y-12722000D01*
X11467857Y-12722000D02*
X11486905Y-12731524D01*
X11486905Y-12731524D02*
X11525000Y-12731524D01*
X11525000Y-12731524D02*
X11544048Y-12722000D01*
X11544048Y-12722000D02*
X11553571Y-12712476D01*
X11553571Y-12712476D02*
X11563095Y-12693428D01*
X11563095Y-12693428D02*
X11563095Y-12645809D01*
X11563095Y-12645809D02*
X11553571Y-12626762D01*
X11553571Y-12626762D02*
X11544048Y-12617238D01*
X11544048Y-12617238D02*
X11525000Y-12607714D01*
X11525000Y-12607714D02*
X11486905Y-12607714D01*
X11486905Y-12607714D02*
X11467857Y-12617238D01*
X11467857Y-12617238D02*
X11458333Y-12626762D01*
X11458333Y-12626762D02*
X11448809Y-12645809D01*
X11744048Y-12531524D02*
X11648809Y-12531524D01*
X11648809Y-12531524D02*
X11639286Y-12626762D01*
X11639286Y-12626762D02*
X11648809Y-12617238D01*
X11648809Y-12617238D02*
X11667857Y-12607714D01*
X11667857Y-12607714D02*
X11715476Y-12607714D01*
X11715476Y-12607714D02*
X11734524Y-12617238D01*
X11734524Y-12617238D02*
X11744048Y-12626762D01*
X11744048Y-12626762D02*
X11753571Y-12645809D01*
X11753571Y-12645809D02*
X11753571Y-12693428D01*
X11753571Y-12693428D02*
X11744048Y-12712476D01*
X11744048Y-12712476D02*
X11734524Y-12722000D01*
X11734524Y-12722000D02*
X11715476Y-12731524D01*
X11715476Y-12731524D02*
X11667857Y-12731524D01*
X11667857Y-12731524D02*
X11648809Y-12722000D01*
X11648809Y-12722000D02*
X11639286Y-12712476D01*
X11877381Y-12531524D02*
X11896429Y-12531524D01*
X11896429Y-12531524D02*
X11915476Y-12541048D01*
X11915476Y-12541048D02*
X11925000Y-12550571D01*
X11925000Y-12550571D02*
X11934524Y-12569619D01*
X11934524Y-12569619D02*
X11944048Y-12607714D01*
X11944048Y-12607714D02*
X11944048Y-12655333D01*
X11944048Y-12655333D02*
X11934524Y-12693428D01*
X11934524Y-12693428D02*
X11925000Y-12712476D01*
X11925000Y-12712476D02*
X11915476Y-12722000D01*
X11915476Y-12722000D02*
X11896429Y-12731524D01*
X11896429Y-12731524D02*
X11877381Y-12731524D01*
X11877381Y-12731524D02*
X11858333Y-12722000D01*
X11858333Y-12722000D02*
X11848809Y-12712476D01*
X11848809Y-12712476D02*
X11839286Y-12693428D01*
X11839286Y-12693428D02*
X11829762Y-12655333D01*
X11829762Y-12655333D02*
X11829762Y-12607714D01*
X11829762Y-12607714D02*
X11839286Y-12569619D01*
X11839286Y-12569619D02*
X11848809Y-12550571D01*
X11848809Y-12550571D02*
X11858333Y-12541048D01*
X11858333Y-12541048D02*
X11877381Y-12531524D01*
X12029762Y-12731524D02*
X12029762Y-12598190D01*
X12029762Y-12617238D02*
X12039286Y-12607714D01*
X12039286Y-12607714D02*
X12058333Y-12598190D01*
X12058333Y-12598190D02*
X12086905Y-12598190D01*
X12086905Y-12598190D02*
X12105952Y-12607714D01*
X12105952Y-12607714D02*
X12115476Y-12626762D01*
X12115476Y-12626762D02*
X12115476Y-12731524D01*
X12115476Y-12626762D02*
X12125000Y-12607714D01*
X12125000Y-12607714D02*
X12144048Y-12598190D01*
X12144048Y-12598190D02*
X12172619Y-12598190D01*
X12172619Y-12598190D02*
X12191667Y-12607714D01*
X12191667Y-12607714D02*
X12201190Y-12626762D01*
X12201190Y-12626762D02*
X12201190Y-12731524D01*
X12296429Y-12731524D02*
X12296429Y-12598190D01*
X12296429Y-12617238D02*
X12305952Y-12607714D01*
X12305952Y-12607714D02*
X12325000Y-12598190D01*
X12325000Y-12598190D02*
X12353571Y-12598190D01*
X12353571Y-12598190D02*
X12372619Y-12607714D01*
X12372619Y-12607714D02*
X12382143Y-12626762D01*
X12382143Y-12626762D02*
X12382143Y-12731524D01*
X12382143Y-12626762D02*
X12391667Y-12607714D01*
X12391667Y-12607714D02*
X12410714Y-12598190D01*
X12410714Y-12598190D02*
X12439286Y-12598190D01*
X12439286Y-12598190D02*
X12458333Y-12607714D01*
X12458333Y-12607714D02*
X12467857Y-12626762D01*
X12467857Y-12626762D02*
X12467857Y-12731524D01*
X12858333Y-12522000D02*
X12686905Y-12779143D01*
X13115476Y-12531524D02*
X13134524Y-12531524D01*
X13134524Y-12531524D02*
X13153572Y-12541048D01*
X13153572Y-12541048D02*
X13163095Y-12550571D01*
X13163095Y-12550571D02*
X13172619Y-12569619D01*
X13172619Y-12569619D02*
X13182143Y-12607714D01*
X13182143Y-12607714D02*
X13182143Y-12655333D01*
X13182143Y-12655333D02*
X13172619Y-12693428D01*
X13172619Y-12693428D02*
X13163095Y-12712476D01*
X13163095Y-12712476D02*
X13153572Y-12722000D01*
X13153572Y-12722000D02*
X13134524Y-12731524D01*
X13134524Y-12731524D02*
X13115476Y-12731524D01*
X13115476Y-12731524D02*
X13096429Y-12722000D01*
X13096429Y-12722000D02*
X13086905Y-12712476D01*
X13086905Y-12712476D02*
X13077381Y-12693428D01*
X13077381Y-12693428D02*
X13067857Y-12655333D01*
X13067857Y-12655333D02*
X13067857Y-12607714D01*
X13067857Y-12607714D02*
X13077381Y-12569619D01*
X13077381Y-12569619D02*
X13086905Y-12550571D01*
X13086905Y-12550571D02*
X13096429Y-12541048D01*
X13096429Y-12541048D02*
X13115476Y-12531524D01*
X13267857Y-12712476D02*
X13277381Y-12722000D01*
X13277381Y-12722000D02*
X13267857Y-12731524D01*
X13267857Y-12731524D02*
X13258333Y-12722000D01*
X13258333Y-12722000D02*
X13267857Y-12712476D01*
X13267857Y-12712476D02*
X13267857Y-12731524D01*
X13401191Y-12531524D02*
X13420238Y-12531524D01*
X13420238Y-12531524D02*
X13439286Y-12541048D01*
X13439286Y-12541048D02*
X13448810Y-12550571D01*
X13448810Y-12550571D02*
X13458333Y-12569619D01*
X13458333Y-12569619D02*
X13467857Y-12607714D01*
X13467857Y-12607714D02*
X13467857Y-12655333D01*
X13467857Y-12655333D02*
X13458333Y-12693428D01*
X13458333Y-12693428D02*
X13448810Y-12712476D01*
X13448810Y-12712476D02*
X13439286Y-12722000D01*
X13439286Y-12722000D02*
X13420238Y-12731524D01*
X13420238Y-12731524D02*
X13401191Y-12731524D01*
X13401191Y-12731524D02*
X13382143Y-12722000D01*
X13382143Y-12722000D02*
X13372619Y-12712476D01*
X13372619Y-12712476D02*
X13363095Y-12693428D01*
X13363095Y-12693428D02*
X13353572Y-12655333D01*
X13353572Y-12655333D02*
X13353572Y-12607714D01*
X13353572Y-12607714D02*
X13363095Y-12569619D01*
X13363095Y-12569619D02*
X13372619Y-12550571D01*
X13372619Y-12550571D02*
X13382143Y-12541048D01*
X13382143Y-12541048D02*
X13401191Y-12531524D01*
X13639286Y-12531524D02*
X13601191Y-12531524D01*
X13601191Y-12531524D02*
X13582143Y-12541048D01*
X13582143Y-12541048D02*
X13572619Y-12550571D01*
X13572619Y-12550571D02*
X13553572Y-12579143D01*
X13553572Y-12579143D02*
X13544048Y-12617238D01*
X13544048Y-12617238D02*
X13544048Y-12693428D01*
X13544048Y-12693428D02*
X13553572Y-12712476D01*
X13553572Y-12712476D02*
X13563095Y-12722000D01*
X13563095Y-12722000D02*
X13582143Y-12731524D01*
X13582143Y-12731524D02*
X13620238Y-12731524D01*
X13620238Y-12731524D02*
X13639286Y-12722000D01*
X13639286Y-12722000D02*
X13648810Y-12712476D01*
X13648810Y-12712476D02*
X13658333Y-12693428D01*
X13658333Y-12693428D02*
X13658333Y-12645809D01*
X13658333Y-12645809D02*
X13648810Y-12626762D01*
X13648810Y-12626762D02*
X13639286Y-12617238D01*
X13639286Y-12617238D02*
X13620238Y-12607714D01*
X13620238Y-12607714D02*
X13582143Y-12607714D01*
X13582143Y-12607714D02*
X13563095Y-12617238D01*
X13563095Y-12617238D02*
X13553572Y-12626762D01*
X13553572Y-12626762D02*
X13544048Y-12645809D01*
X13839286Y-12531524D02*
X13744048Y-12531524D01*
X13744048Y-12531524D02*
X13734524Y-12626762D01*
X13734524Y-12626762D02*
X13744048Y-12617238D01*
X13744048Y-12617238D02*
X13763095Y-12607714D01*
X13763095Y-12607714D02*
X13810714Y-12607714D01*
X13810714Y-12607714D02*
X13829762Y-12617238D01*
X13829762Y-12617238D02*
X13839286Y-12626762D01*
X13839286Y-12626762D02*
X13848810Y-12645809D01*
X13848810Y-12645809D02*
X13848810Y-12693428D01*
X13848810Y-12693428D02*
X13839286Y-12712476D01*
X13839286Y-12712476D02*
X13829762Y-12722000D01*
X13829762Y-12722000D02*
X13810714Y-12731524D01*
X13810714Y-12731524D02*
X13763095Y-12731524D01*
X13763095Y-12731524D02*
X13744048Y-12722000D01*
X13744048Y-12722000D02*
X13734524Y-12712476D01*
X13972619Y-12531524D02*
X13991667Y-12531524D01*
X13991667Y-12531524D02*
X14010714Y-12541048D01*
X14010714Y-12541048D02*
X14020238Y-12550571D01*
X14020238Y-12550571D02*
X14029762Y-12569619D01*
X14029762Y-12569619D02*
X14039286Y-12607714D01*
X14039286Y-12607714D02*
X14039286Y-12655333D01*
X14039286Y-12655333D02*
X14029762Y-12693428D01*
X14029762Y-12693428D02*
X14020238Y-12712476D01*
X14020238Y-12712476D02*
X14010714Y-12722000D01*
X14010714Y-12722000D02*
X13991667Y-12731524D01*
X13991667Y-12731524D02*
X13972619Y-12731524D01*
X13972619Y-12731524D02*
X13953572Y-12722000D01*
X13953572Y-12722000D02*
X13944048Y-12712476D01*
X13944048Y-12712476D02*
X13934524Y-12693428D01*
X13934524Y-12693428D02*
X13925000Y-12655333D01*
X13925000Y-12655333D02*
X13925000Y-12607714D01*
X13925000Y-12607714D02*
X13934524Y-12569619D01*
X13934524Y-12569619D02*
X13944048Y-12550571D01*
X13944048Y-12550571D02*
X13953572Y-12541048D01*
X13953572Y-12541048D02*
X13972619Y-12531524D01*
X14115476Y-12531524D02*
X14115476Y-12569619D01*
X14191667Y-12531524D02*
X14191667Y-12569619D01*
X14486905Y-12807714D02*
X14477381Y-12798190D01*
X14477381Y-12798190D02*
X14458334Y-12769619D01*
X14458334Y-12769619D02*
X14448810Y-12750571D01*
X14448810Y-12750571D02*
X14439286Y-12722000D01*
X14439286Y-12722000D02*
X14429762Y-12674381D01*
X14429762Y-12674381D02*
X14429762Y-12636286D01*
X14429762Y-12636286D02*
X14439286Y-12588667D01*
X14439286Y-12588667D02*
X14448810Y-12560095D01*
X14448810Y-12560095D02*
X14458334Y-12541048D01*
X14458334Y-12541048D02*
X14477381Y-12512476D01*
X14477381Y-12512476D02*
X14486905Y-12502952D01*
X14667857Y-12731524D02*
X14553572Y-12731524D01*
X14610714Y-12731524D02*
X14610714Y-12531524D01*
X14610714Y-12531524D02*
X14591667Y-12560095D01*
X14591667Y-12560095D02*
X14572619Y-12579143D01*
X14572619Y-12579143D02*
X14553572Y-12588667D01*
X14905953Y-12731524D02*
X14905953Y-12531524D01*
X14991667Y-12731524D02*
X14991667Y-12626762D01*
X14991667Y-12626762D02*
X14982143Y-12607714D01*
X14982143Y-12607714D02*
X14963096Y-12598190D01*
X14963096Y-12598190D02*
X14934524Y-12598190D01*
X14934524Y-12598190D02*
X14915476Y-12607714D01*
X14915476Y-12607714D02*
X14905953Y-12617238D01*
X15115476Y-12731524D02*
X15096429Y-12722000D01*
X15096429Y-12722000D02*
X15086905Y-12712476D01*
X15086905Y-12712476D02*
X15077381Y-12693428D01*
X15077381Y-12693428D02*
X15077381Y-12636286D01*
X15077381Y-12636286D02*
X15086905Y-12617238D01*
X15086905Y-12617238D02*
X15096429Y-12607714D01*
X15096429Y-12607714D02*
X15115476Y-12598190D01*
X15115476Y-12598190D02*
X15144048Y-12598190D01*
X15144048Y-12598190D02*
X15163096Y-12607714D01*
X15163096Y-12607714D02*
X15172619Y-12617238D01*
X15172619Y-12617238D02*
X15182143Y-12636286D01*
X15182143Y-12636286D02*
X15182143Y-12693428D01*
X15182143Y-12693428D02*
X15172619Y-12712476D01*
X15172619Y-12712476D02*
X15163096Y-12722000D01*
X15163096Y-12722000D02*
X15144048Y-12731524D01*
X15144048Y-12731524D02*
X15115476Y-12731524D01*
X15296429Y-12731524D02*
X15277381Y-12722000D01*
X15277381Y-12722000D02*
X15267857Y-12702952D01*
X15267857Y-12702952D02*
X15267857Y-12531524D01*
X15448810Y-12722000D02*
X15429762Y-12731524D01*
X15429762Y-12731524D02*
X15391667Y-12731524D01*
X15391667Y-12731524D02*
X15372619Y-12722000D01*
X15372619Y-12722000D02*
X15363096Y-12702952D01*
X15363096Y-12702952D02*
X15363096Y-12626762D01*
X15363096Y-12626762D02*
X15372619Y-12607714D01*
X15372619Y-12607714D02*
X15391667Y-12598190D01*
X15391667Y-12598190D02*
X15429762Y-12598190D01*
X15429762Y-12598190D02*
X15448810Y-12607714D01*
X15448810Y-12607714D02*
X15458334Y-12626762D01*
X15458334Y-12626762D02*
X15458334Y-12645809D01*
X15458334Y-12645809D02*
X15363096Y-12664857D01*
X15525000Y-12807714D02*
X15534524Y-12798190D01*
X15534524Y-12798190D02*
X15553572Y-12769619D01*
X15553572Y-12769619D02*
X15563096Y-12750571D01*
X15563096Y-12750571D02*
X15572619Y-12722000D01*
X15572619Y-12722000D02*
X15582143Y-12674381D01*
X15582143Y-12674381D02*
X15582143Y-12636286D01*
X15582143Y-12636286D02*
X15572619Y-12588667D01*
X15572619Y-12588667D02*
X15563096Y-12560095D01*
X15563096Y-12560095D02*
X15553572Y-12541048D01*
X15553572Y-12541048D02*
X15534524Y-12512476D01*
X15534524Y-12512476D02*
X15525000Y-12502952D01*
X10725000Y-12824000D02*
X10925000Y-13024000D01*
X10925000Y-12824000D02*
X10725000Y-13024000D01*
X10895711Y-12994711D02*
X10895711Y-12853289D01*
X10754289Y-12853289D01*
X10754289Y-12994711D01*
X10895711Y-12994711D01*
X11163095Y-12835571D02*
X11172619Y-12826048D01*
X11172619Y-12826048D02*
X11191667Y-12816524D01*
X11191667Y-12816524D02*
X11239286Y-12816524D01*
X11239286Y-12816524D02*
X11258333Y-12826048D01*
X11258333Y-12826048D02*
X11267857Y-12835571D01*
X11267857Y-12835571D02*
X11277381Y-12854619D01*
X11277381Y-12854619D02*
X11277381Y-12873667D01*
X11277381Y-12873667D02*
X11267857Y-12902238D01*
X11267857Y-12902238D02*
X11153571Y-13016524D01*
X11153571Y-13016524D02*
X11277381Y-13016524D01*
X11363095Y-12997476D02*
X11372619Y-13007000D01*
X11372619Y-13007000D02*
X11363095Y-13016524D01*
X11363095Y-13016524D02*
X11353571Y-13007000D01*
X11353571Y-13007000D02*
X11363095Y-12997476D01*
X11363095Y-12997476D02*
X11363095Y-13016524D01*
X11439286Y-12816524D02*
X11572619Y-12816524D01*
X11572619Y-12816524D02*
X11486905Y-13016524D01*
X11686905Y-12816524D02*
X11705952Y-12816524D01*
X11705952Y-12816524D02*
X11725000Y-12826048D01*
X11725000Y-12826048D02*
X11734524Y-12835571D01*
X11734524Y-12835571D02*
X11744048Y-12854619D01*
X11744048Y-12854619D02*
X11753571Y-12892714D01*
X11753571Y-12892714D02*
X11753571Y-12940333D01*
X11753571Y-12940333D02*
X11744048Y-12978428D01*
X11744048Y-12978428D02*
X11734524Y-12997476D01*
X11734524Y-12997476D02*
X11725000Y-13007000D01*
X11725000Y-13007000D02*
X11705952Y-13016524D01*
X11705952Y-13016524D02*
X11686905Y-13016524D01*
X11686905Y-13016524D02*
X11667857Y-13007000D01*
X11667857Y-13007000D02*
X11658333Y-12997476D01*
X11658333Y-12997476D02*
X11648809Y-12978428D01*
X11648809Y-12978428D02*
X11639286Y-12940333D01*
X11639286Y-12940333D02*
X11639286Y-12892714D01*
X11639286Y-12892714D02*
X11648809Y-12854619D01*
X11648809Y-12854619D02*
X11658333Y-12835571D01*
X11658333Y-12835571D02*
X11667857Y-12826048D01*
X11667857Y-12826048D02*
X11686905Y-12816524D01*
X11877381Y-12816524D02*
X11896429Y-12816524D01*
X11896429Y-12816524D02*
X11915476Y-12826048D01*
X11915476Y-12826048D02*
X11925000Y-12835571D01*
X11925000Y-12835571D02*
X11934524Y-12854619D01*
X11934524Y-12854619D02*
X11944048Y-12892714D01*
X11944048Y-12892714D02*
X11944048Y-12940333D01*
X11944048Y-12940333D02*
X11934524Y-12978428D01*
X11934524Y-12978428D02*
X11925000Y-12997476D01*
X11925000Y-12997476D02*
X11915476Y-13007000D01*
X11915476Y-13007000D02*
X11896429Y-13016524D01*
X11896429Y-13016524D02*
X11877381Y-13016524D01*
X11877381Y-13016524D02*
X11858333Y-13007000D01*
X11858333Y-13007000D02*
X11848809Y-12997476D01*
X11848809Y-12997476D02*
X11839286Y-12978428D01*
X11839286Y-12978428D02*
X11829762Y-12940333D01*
X11829762Y-12940333D02*
X11829762Y-12892714D01*
X11829762Y-12892714D02*
X11839286Y-12854619D01*
X11839286Y-12854619D02*
X11848809Y-12835571D01*
X11848809Y-12835571D02*
X11858333Y-12826048D01*
X11858333Y-12826048D02*
X11877381Y-12816524D01*
X12029762Y-13016524D02*
X12029762Y-12883190D01*
X12029762Y-12902238D02*
X12039286Y-12892714D01*
X12039286Y-12892714D02*
X12058333Y-12883190D01*
X12058333Y-12883190D02*
X12086905Y-12883190D01*
X12086905Y-12883190D02*
X12105952Y-12892714D01*
X12105952Y-12892714D02*
X12115476Y-12911762D01*
X12115476Y-12911762D02*
X12115476Y-13016524D01*
X12115476Y-12911762D02*
X12125000Y-12892714D01*
X12125000Y-12892714D02*
X12144048Y-12883190D01*
X12144048Y-12883190D02*
X12172619Y-12883190D01*
X12172619Y-12883190D02*
X12191667Y-12892714D01*
X12191667Y-12892714D02*
X12201190Y-12911762D01*
X12201190Y-12911762D02*
X12201190Y-13016524D01*
X12296429Y-13016524D02*
X12296429Y-12883190D01*
X12296429Y-12902238D02*
X12305952Y-12892714D01*
X12305952Y-12892714D02*
X12325000Y-12883190D01*
X12325000Y-12883190D02*
X12353571Y-12883190D01*
X12353571Y-12883190D02*
X12372619Y-12892714D01*
X12372619Y-12892714D02*
X12382143Y-12911762D01*
X12382143Y-12911762D02*
X12382143Y-13016524D01*
X12382143Y-12911762D02*
X12391667Y-12892714D01*
X12391667Y-12892714D02*
X12410714Y-12883190D01*
X12410714Y-12883190D02*
X12439286Y-12883190D01*
X12439286Y-12883190D02*
X12458333Y-12892714D01*
X12458333Y-12892714D02*
X12467857Y-12911762D01*
X12467857Y-12911762D02*
X12467857Y-13016524D01*
X12858333Y-12807000D02*
X12686905Y-13064143D01*
X13115476Y-12816524D02*
X13134524Y-12816524D01*
X13134524Y-12816524D02*
X13153572Y-12826048D01*
X13153572Y-12826048D02*
X13163095Y-12835571D01*
X13163095Y-12835571D02*
X13172619Y-12854619D01*
X13172619Y-12854619D02*
X13182143Y-12892714D01*
X13182143Y-12892714D02*
X13182143Y-12940333D01*
X13182143Y-12940333D02*
X13172619Y-12978428D01*
X13172619Y-12978428D02*
X13163095Y-12997476D01*
X13163095Y-12997476D02*
X13153572Y-13007000D01*
X13153572Y-13007000D02*
X13134524Y-13016524D01*
X13134524Y-13016524D02*
X13115476Y-13016524D01*
X13115476Y-13016524D02*
X13096429Y-13007000D01*
X13096429Y-13007000D02*
X13086905Y-12997476D01*
X13086905Y-12997476D02*
X13077381Y-12978428D01*
X13077381Y-12978428D02*
X13067857Y-12940333D01*
X13067857Y-12940333D02*
X13067857Y-12892714D01*
X13067857Y-12892714D02*
X13077381Y-12854619D01*
X13077381Y-12854619D02*
X13086905Y-12835571D01*
X13086905Y-12835571D02*
X13096429Y-12826048D01*
X13096429Y-12826048D02*
X13115476Y-12816524D01*
X13267857Y-12997476D02*
X13277381Y-13007000D01*
X13277381Y-13007000D02*
X13267857Y-13016524D01*
X13267857Y-13016524D02*
X13258333Y-13007000D01*
X13258333Y-13007000D02*
X13267857Y-12997476D01*
X13267857Y-12997476D02*
X13267857Y-13016524D01*
X13467857Y-13016524D02*
X13353572Y-13016524D01*
X13410714Y-13016524D02*
X13410714Y-12816524D01*
X13410714Y-12816524D02*
X13391667Y-12845095D01*
X13391667Y-12845095D02*
X13372619Y-12864143D01*
X13372619Y-12864143D02*
X13353572Y-12873667D01*
X13591667Y-12816524D02*
X13610714Y-12816524D01*
X13610714Y-12816524D02*
X13629762Y-12826048D01*
X13629762Y-12826048D02*
X13639286Y-12835571D01*
X13639286Y-12835571D02*
X13648810Y-12854619D01*
X13648810Y-12854619D02*
X13658333Y-12892714D01*
X13658333Y-12892714D02*
X13658333Y-12940333D01*
X13658333Y-12940333D02*
X13648810Y-12978428D01*
X13648810Y-12978428D02*
X13639286Y-12997476D01*
X13639286Y-12997476D02*
X13629762Y-13007000D01*
X13629762Y-13007000D02*
X13610714Y-13016524D01*
X13610714Y-13016524D02*
X13591667Y-13016524D01*
X13591667Y-13016524D02*
X13572619Y-13007000D01*
X13572619Y-13007000D02*
X13563095Y-12997476D01*
X13563095Y-12997476D02*
X13553572Y-12978428D01*
X13553572Y-12978428D02*
X13544048Y-12940333D01*
X13544048Y-12940333D02*
X13544048Y-12892714D01*
X13544048Y-12892714D02*
X13553572Y-12854619D01*
X13553572Y-12854619D02*
X13563095Y-12835571D01*
X13563095Y-12835571D02*
X13572619Y-12826048D01*
X13572619Y-12826048D02*
X13591667Y-12816524D01*
X13829762Y-12816524D02*
X13791667Y-12816524D01*
X13791667Y-12816524D02*
X13772619Y-12826048D01*
X13772619Y-12826048D02*
X13763095Y-12835571D01*
X13763095Y-12835571D02*
X13744048Y-12864143D01*
X13744048Y-12864143D02*
X13734524Y-12902238D01*
X13734524Y-12902238D02*
X13734524Y-12978428D01*
X13734524Y-12978428D02*
X13744048Y-12997476D01*
X13744048Y-12997476D02*
X13753572Y-13007000D01*
X13753572Y-13007000D02*
X13772619Y-13016524D01*
X13772619Y-13016524D02*
X13810714Y-13016524D01*
X13810714Y-13016524D02*
X13829762Y-13007000D01*
X13829762Y-13007000D02*
X13839286Y-12997476D01*
X13839286Y-12997476D02*
X13848810Y-12978428D01*
X13848810Y-12978428D02*
X13848810Y-12930809D01*
X13848810Y-12930809D02*
X13839286Y-12911762D01*
X13839286Y-12911762D02*
X13829762Y-12902238D01*
X13829762Y-12902238D02*
X13810714Y-12892714D01*
X13810714Y-12892714D02*
X13772619Y-12892714D01*
X13772619Y-12892714D02*
X13753572Y-12902238D01*
X13753572Y-12902238D02*
X13744048Y-12911762D01*
X13744048Y-12911762D02*
X13734524Y-12930809D01*
X13915476Y-12816524D02*
X14039286Y-12816524D01*
X14039286Y-12816524D02*
X13972619Y-12892714D01*
X13972619Y-12892714D02*
X14001191Y-12892714D01*
X14001191Y-12892714D02*
X14020238Y-12902238D01*
X14020238Y-12902238D02*
X14029762Y-12911762D01*
X14029762Y-12911762D02*
X14039286Y-12930809D01*
X14039286Y-12930809D02*
X14039286Y-12978428D01*
X14039286Y-12978428D02*
X14029762Y-12997476D01*
X14029762Y-12997476D02*
X14020238Y-13007000D01*
X14020238Y-13007000D02*
X14001191Y-13016524D01*
X14001191Y-13016524D02*
X13944048Y-13016524D01*
X13944048Y-13016524D02*
X13925000Y-13007000D01*
X13925000Y-13007000D02*
X13915476Y-12997476D01*
X14115476Y-12816524D02*
X14115476Y-12854619D01*
X14191667Y-12816524D02*
X14191667Y-12854619D01*
X14486905Y-13092714D02*
X14477381Y-13083190D01*
X14477381Y-13083190D02*
X14458334Y-13054619D01*
X14458334Y-13054619D02*
X14448810Y-13035571D01*
X14448810Y-13035571D02*
X14439286Y-13007000D01*
X14439286Y-13007000D02*
X14429762Y-12959381D01*
X14429762Y-12959381D02*
X14429762Y-12921286D01*
X14429762Y-12921286D02*
X14439286Y-12873667D01*
X14439286Y-12873667D02*
X14448810Y-12845095D01*
X14448810Y-12845095D02*
X14458334Y-12826048D01*
X14458334Y-12826048D02*
X14477381Y-12797476D01*
X14477381Y-12797476D02*
X14486905Y-12787952D01*
X14553572Y-12835571D02*
X14563095Y-12826048D01*
X14563095Y-12826048D02*
X14582143Y-12816524D01*
X14582143Y-12816524D02*
X14629762Y-12816524D01*
X14629762Y-12816524D02*
X14648810Y-12826048D01*
X14648810Y-12826048D02*
X14658334Y-12835571D01*
X14658334Y-12835571D02*
X14667857Y-12854619D01*
X14667857Y-12854619D02*
X14667857Y-12873667D01*
X14667857Y-12873667D02*
X14658334Y-12902238D01*
X14658334Y-12902238D02*
X14544048Y-13016524D01*
X14544048Y-13016524D02*
X14667857Y-13016524D01*
X14905953Y-13016524D02*
X14905953Y-12816524D01*
X14991667Y-13016524D02*
X14991667Y-12911762D01*
X14991667Y-12911762D02*
X14982143Y-12892714D01*
X14982143Y-12892714D02*
X14963096Y-12883190D01*
X14963096Y-12883190D02*
X14934524Y-12883190D01*
X14934524Y-12883190D02*
X14915476Y-12892714D01*
X14915476Y-12892714D02*
X14905953Y-12902238D01*
X15115476Y-13016524D02*
X15096429Y-13007000D01*
X15096429Y-13007000D02*
X15086905Y-12997476D01*
X15086905Y-12997476D02*
X15077381Y-12978428D01*
X15077381Y-12978428D02*
X15077381Y-12921286D01*
X15077381Y-12921286D02*
X15086905Y-12902238D01*
X15086905Y-12902238D02*
X15096429Y-12892714D01*
X15096429Y-12892714D02*
X15115476Y-12883190D01*
X15115476Y-12883190D02*
X15144048Y-12883190D01*
X15144048Y-12883190D02*
X15163096Y-12892714D01*
X15163096Y-12892714D02*
X15172619Y-12902238D01*
X15172619Y-12902238D02*
X15182143Y-12921286D01*
X15182143Y-12921286D02*
X15182143Y-12978428D01*
X15182143Y-12978428D02*
X15172619Y-12997476D01*
X15172619Y-12997476D02*
X15163096Y-13007000D01*
X15163096Y-13007000D02*
X15144048Y-13016524D01*
X15144048Y-13016524D02*
X15115476Y-13016524D01*
X15296429Y-13016524D02*
X15277381Y-13007000D01*
X15277381Y-13007000D02*
X15267857Y-12987952D01*
X15267857Y-12987952D02*
X15267857Y-12816524D01*
X15448810Y-13007000D02*
X15429762Y-13016524D01*
X15429762Y-13016524D02*
X15391667Y-13016524D01*
X15391667Y-13016524D02*
X15372619Y-13007000D01*
X15372619Y-13007000D02*
X15363096Y-12987952D01*
X15363096Y-12987952D02*
X15363096Y-12911762D01*
X15363096Y-12911762D02*
X15372619Y-12892714D01*
X15372619Y-12892714D02*
X15391667Y-12883190D01*
X15391667Y-12883190D02*
X15429762Y-12883190D01*
X15429762Y-12883190D02*
X15448810Y-12892714D01*
X15448810Y-12892714D02*
X15458334Y-12911762D01*
X15458334Y-12911762D02*
X15458334Y-12930809D01*
X15458334Y-12930809D02*
X15363096Y-12949857D01*
X15534524Y-13007000D02*
X15553572Y-13016524D01*
X15553572Y-13016524D02*
X15591667Y-13016524D01*
X15591667Y-13016524D02*
X15610715Y-13007000D01*
X15610715Y-13007000D02*
X15620238Y-12987952D01*
X15620238Y-12987952D02*
X15620238Y-12978428D01*
X15620238Y-12978428D02*
X15610715Y-12959381D01*
X15610715Y-12959381D02*
X15591667Y-12949857D01*
X15591667Y-12949857D02*
X15563096Y-12949857D01*
X15563096Y-12949857D02*
X15544048Y-12940333D01*
X15544048Y-12940333D02*
X15534524Y-12921286D01*
X15534524Y-12921286D02*
X15534524Y-12911762D01*
X15534524Y-12911762D02*
X15544048Y-12892714D01*
X15544048Y-12892714D02*
X15563096Y-12883190D01*
X15563096Y-12883190D02*
X15591667Y-12883190D01*
X15591667Y-12883190D02*
X15610715Y-12892714D01*
X15686905Y-13092714D02*
X15696429Y-13083190D01*
X15696429Y-13083190D02*
X15715477Y-13054619D01*
X15715477Y-13054619D02*
X15725000Y-13035571D01*
X15725000Y-13035571D02*
X15734524Y-13007000D01*
X15734524Y-13007000D02*
X15744048Y-12959381D01*
X15744048Y-12959381D02*
X15744048Y-12921286D01*
X15744048Y-12921286D02*
X15734524Y-12873667D01*
X15734524Y-12873667D02*
X15725000Y-12845095D01*
X15725000Y-12845095D02*
X15715477Y-12826048D01*
X15715477Y-12826048D02*
X15696429Y-12797476D01*
X15696429Y-12797476D02*
X15686905Y-12787952D01*
X10725000Y-13144000D02*
X10925000Y-13344000D01*
X10925000Y-13144000D02*
X10725000Y-13344000D01*
X10825000Y-13344000D02*
X10925000Y-13244000D01*
X10825000Y-13144000D01*
X10725000Y-13244000D01*
X10825000Y-13344000D01*
X11258333Y-13203190D02*
X11258333Y-13336524D01*
X11210714Y-13127000D02*
X11163095Y-13269857D01*
X11163095Y-13269857D02*
X11286905Y-13269857D01*
X11363095Y-13317476D02*
X11372619Y-13327000D01*
X11372619Y-13327000D02*
X11363095Y-13336524D01*
X11363095Y-13336524D02*
X11353571Y-13327000D01*
X11353571Y-13327000D02*
X11363095Y-13317476D01*
X11363095Y-13317476D02*
X11363095Y-13336524D01*
X11448809Y-13155571D02*
X11458333Y-13146048D01*
X11458333Y-13146048D02*
X11477381Y-13136524D01*
X11477381Y-13136524D02*
X11525000Y-13136524D01*
X11525000Y-13136524D02*
X11544048Y-13146048D01*
X11544048Y-13146048D02*
X11553571Y-13155571D01*
X11553571Y-13155571D02*
X11563095Y-13174619D01*
X11563095Y-13174619D02*
X11563095Y-13193667D01*
X11563095Y-13193667D02*
X11553571Y-13222238D01*
X11553571Y-13222238D02*
X11439286Y-13336524D01*
X11439286Y-13336524D02*
X11563095Y-13336524D01*
X11639286Y-13155571D02*
X11648809Y-13146048D01*
X11648809Y-13146048D02*
X11667857Y-13136524D01*
X11667857Y-13136524D02*
X11715476Y-13136524D01*
X11715476Y-13136524D02*
X11734524Y-13146048D01*
X11734524Y-13146048D02*
X11744048Y-13155571D01*
X11744048Y-13155571D02*
X11753571Y-13174619D01*
X11753571Y-13174619D02*
X11753571Y-13193667D01*
X11753571Y-13193667D02*
X11744048Y-13222238D01*
X11744048Y-13222238D02*
X11629762Y-13336524D01*
X11629762Y-13336524D02*
X11753571Y-13336524D01*
X11877381Y-13136524D02*
X11896429Y-13136524D01*
X11896429Y-13136524D02*
X11915476Y-13146048D01*
X11915476Y-13146048D02*
X11925000Y-13155571D01*
X11925000Y-13155571D02*
X11934524Y-13174619D01*
X11934524Y-13174619D02*
X11944048Y-13212714D01*
X11944048Y-13212714D02*
X11944048Y-13260333D01*
X11944048Y-13260333D02*
X11934524Y-13298428D01*
X11934524Y-13298428D02*
X11925000Y-13317476D01*
X11925000Y-13317476D02*
X11915476Y-13327000D01*
X11915476Y-13327000D02*
X11896429Y-13336524D01*
X11896429Y-13336524D02*
X11877381Y-13336524D01*
X11877381Y-13336524D02*
X11858333Y-13327000D01*
X11858333Y-13327000D02*
X11848809Y-13317476D01*
X11848809Y-13317476D02*
X11839286Y-13298428D01*
X11839286Y-13298428D02*
X11829762Y-13260333D01*
X11829762Y-13260333D02*
X11829762Y-13212714D01*
X11829762Y-13212714D02*
X11839286Y-13174619D01*
X11839286Y-13174619D02*
X11848809Y-13155571D01*
X11848809Y-13155571D02*
X11858333Y-13146048D01*
X11858333Y-13146048D02*
X11877381Y-13136524D01*
X12029762Y-13336524D02*
X12029762Y-13203190D01*
X12029762Y-13222238D02*
X12039286Y-13212714D01*
X12039286Y-13212714D02*
X12058333Y-13203190D01*
X12058333Y-13203190D02*
X12086905Y-13203190D01*
X12086905Y-13203190D02*
X12105952Y-13212714D01*
X12105952Y-13212714D02*
X12115476Y-13231762D01*
X12115476Y-13231762D02*
X12115476Y-13336524D01*
X12115476Y-13231762D02*
X12125000Y-13212714D01*
X12125000Y-13212714D02*
X12144048Y-13203190D01*
X12144048Y-13203190D02*
X12172619Y-13203190D01*
X12172619Y-13203190D02*
X12191667Y-13212714D01*
X12191667Y-13212714D02*
X12201190Y-13231762D01*
X12201190Y-13231762D02*
X12201190Y-13336524D01*
X12296429Y-13336524D02*
X12296429Y-13203190D01*
X12296429Y-13222238D02*
X12305952Y-13212714D01*
X12305952Y-13212714D02*
X12325000Y-13203190D01*
X12325000Y-13203190D02*
X12353571Y-13203190D01*
X12353571Y-13203190D02*
X12372619Y-13212714D01*
X12372619Y-13212714D02*
X12382143Y-13231762D01*
X12382143Y-13231762D02*
X12382143Y-13336524D01*
X12382143Y-13231762D02*
X12391667Y-13212714D01*
X12391667Y-13212714D02*
X12410714Y-13203190D01*
X12410714Y-13203190D02*
X12439286Y-13203190D01*
X12439286Y-13203190D02*
X12458333Y-13212714D01*
X12458333Y-13212714D02*
X12467857Y-13231762D01*
X12467857Y-13231762D02*
X12467857Y-13336524D01*
X12858333Y-13127000D02*
X12686905Y-13384143D01*
X13115476Y-13136524D02*
X13134524Y-13136524D01*
X13134524Y-13136524D02*
X13153572Y-13146048D01*
X13153572Y-13146048D02*
X13163095Y-13155571D01*
X13163095Y-13155571D02*
X13172619Y-13174619D01*
X13172619Y-13174619D02*
X13182143Y-13212714D01*
X13182143Y-13212714D02*
X13182143Y-13260333D01*
X13182143Y-13260333D02*
X13172619Y-13298428D01*
X13172619Y-13298428D02*
X13163095Y-13317476D01*
X13163095Y-13317476D02*
X13153572Y-13327000D01*
X13153572Y-13327000D02*
X13134524Y-13336524D01*
X13134524Y-13336524D02*
X13115476Y-13336524D01*
X13115476Y-13336524D02*
X13096429Y-13327000D01*
X13096429Y-13327000D02*
X13086905Y-13317476D01*
X13086905Y-13317476D02*
X13077381Y-13298428D01*
X13077381Y-13298428D02*
X13067857Y-13260333D01*
X13067857Y-13260333D02*
X13067857Y-13212714D01*
X13067857Y-13212714D02*
X13077381Y-13174619D01*
X13077381Y-13174619D02*
X13086905Y-13155571D01*
X13086905Y-13155571D02*
X13096429Y-13146048D01*
X13096429Y-13146048D02*
X13115476Y-13136524D01*
X13267857Y-13317476D02*
X13277381Y-13327000D01*
X13277381Y-13327000D02*
X13267857Y-13336524D01*
X13267857Y-13336524D02*
X13258333Y-13327000D01*
X13258333Y-13327000D02*
X13267857Y-13317476D01*
X13267857Y-13317476D02*
X13267857Y-13336524D01*
X13467857Y-13336524D02*
X13353572Y-13336524D01*
X13410714Y-13336524D02*
X13410714Y-13136524D01*
X13410714Y-13136524D02*
X13391667Y-13165095D01*
X13391667Y-13165095D02*
X13372619Y-13184143D01*
X13372619Y-13184143D02*
X13353572Y-13193667D01*
X13639286Y-13136524D02*
X13601191Y-13136524D01*
X13601191Y-13136524D02*
X13582143Y-13146048D01*
X13582143Y-13146048D02*
X13572619Y-13155571D01*
X13572619Y-13155571D02*
X13553572Y-13184143D01*
X13553572Y-13184143D02*
X13544048Y-13222238D01*
X13544048Y-13222238D02*
X13544048Y-13298428D01*
X13544048Y-13298428D02*
X13553572Y-13317476D01*
X13553572Y-13317476D02*
X13563095Y-13327000D01*
X13563095Y-13327000D02*
X13582143Y-13336524D01*
X13582143Y-13336524D02*
X13620238Y-13336524D01*
X13620238Y-13336524D02*
X13639286Y-13327000D01*
X13639286Y-13327000D02*
X13648810Y-13317476D01*
X13648810Y-13317476D02*
X13658333Y-13298428D01*
X13658333Y-13298428D02*
X13658333Y-13250809D01*
X13658333Y-13250809D02*
X13648810Y-13231762D01*
X13648810Y-13231762D02*
X13639286Y-13222238D01*
X13639286Y-13222238D02*
X13620238Y-13212714D01*
X13620238Y-13212714D02*
X13582143Y-13212714D01*
X13582143Y-13212714D02*
X13563095Y-13222238D01*
X13563095Y-13222238D02*
X13553572Y-13231762D01*
X13553572Y-13231762D02*
X13544048Y-13250809D01*
X13829762Y-13136524D02*
X13791667Y-13136524D01*
X13791667Y-13136524D02*
X13772619Y-13146048D01*
X13772619Y-13146048D02*
X13763095Y-13155571D01*
X13763095Y-13155571D02*
X13744048Y-13184143D01*
X13744048Y-13184143D02*
X13734524Y-13222238D01*
X13734524Y-13222238D02*
X13734524Y-13298428D01*
X13734524Y-13298428D02*
X13744048Y-13317476D01*
X13744048Y-13317476D02*
X13753572Y-13327000D01*
X13753572Y-13327000D02*
X13772619Y-13336524D01*
X13772619Y-13336524D02*
X13810714Y-13336524D01*
X13810714Y-13336524D02*
X13829762Y-13327000D01*
X13829762Y-13327000D02*
X13839286Y-13317476D01*
X13839286Y-13317476D02*
X13848810Y-13298428D01*
X13848810Y-13298428D02*
X13848810Y-13250809D01*
X13848810Y-13250809D02*
X13839286Y-13231762D01*
X13839286Y-13231762D02*
X13829762Y-13222238D01*
X13829762Y-13222238D02*
X13810714Y-13212714D01*
X13810714Y-13212714D02*
X13772619Y-13212714D01*
X13772619Y-13212714D02*
X13753572Y-13222238D01*
X13753572Y-13222238D02*
X13744048Y-13231762D01*
X13744048Y-13231762D02*
X13734524Y-13250809D01*
X14039286Y-13336524D02*
X13925000Y-13336524D01*
X13982143Y-13336524D02*
X13982143Y-13136524D01*
X13982143Y-13136524D02*
X13963095Y-13165095D01*
X13963095Y-13165095D02*
X13944048Y-13184143D01*
X13944048Y-13184143D02*
X13925000Y-13193667D01*
X14115476Y-13136524D02*
X14115476Y-13174619D01*
X14191667Y-13136524D02*
X14191667Y-13174619D01*
X14486905Y-13412714D02*
X14477381Y-13403190D01*
X14477381Y-13403190D02*
X14458334Y-13374619D01*
X14458334Y-13374619D02*
X14448810Y-13355571D01*
X14448810Y-13355571D02*
X14439286Y-13327000D01*
X14439286Y-13327000D02*
X14429762Y-13279381D01*
X14429762Y-13279381D02*
X14429762Y-13241286D01*
X14429762Y-13241286D02*
X14439286Y-13193667D01*
X14439286Y-13193667D02*
X14448810Y-13165095D01*
X14448810Y-13165095D02*
X14458334Y-13146048D01*
X14458334Y-13146048D02*
X14477381Y-13117476D01*
X14477381Y-13117476D02*
X14486905Y-13107952D01*
X14658334Y-13136524D02*
X14563095Y-13136524D01*
X14563095Y-13136524D02*
X14553572Y-13231762D01*
X14553572Y-13231762D02*
X14563095Y-13222238D01*
X14563095Y-13222238D02*
X14582143Y-13212714D01*
X14582143Y-13212714D02*
X14629762Y-13212714D01*
X14629762Y-13212714D02*
X14648810Y-13222238D01*
X14648810Y-13222238D02*
X14658334Y-13231762D01*
X14658334Y-13231762D02*
X14667857Y-13250809D01*
X14667857Y-13250809D02*
X14667857Y-13298428D01*
X14667857Y-13298428D02*
X14658334Y-13317476D01*
X14658334Y-13317476D02*
X14648810Y-13327000D01*
X14648810Y-13327000D02*
X14629762Y-13336524D01*
X14629762Y-13336524D02*
X14582143Y-13336524D01*
X14582143Y-13336524D02*
X14563095Y-13327000D01*
X14563095Y-13327000D02*
X14553572Y-13317476D01*
X14905953Y-13336524D02*
X14905953Y-13136524D01*
X14991667Y-13336524D02*
X14991667Y-13231762D01*
X14991667Y-13231762D02*
X14982143Y-13212714D01*
X14982143Y-13212714D02*
X14963096Y-13203190D01*
X14963096Y-13203190D02*
X14934524Y-13203190D01*
X14934524Y-13203190D02*
X14915476Y-13212714D01*
X14915476Y-13212714D02*
X14905953Y-13222238D01*
X15115476Y-13336524D02*
X15096429Y-13327000D01*
X15096429Y-13327000D02*
X15086905Y-13317476D01*
X15086905Y-13317476D02*
X15077381Y-13298428D01*
X15077381Y-13298428D02*
X15077381Y-13241286D01*
X15077381Y-13241286D02*
X15086905Y-13222238D01*
X15086905Y-13222238D02*
X15096429Y-13212714D01*
X15096429Y-13212714D02*
X15115476Y-13203190D01*
X15115476Y-13203190D02*
X15144048Y-13203190D01*
X15144048Y-13203190D02*
X15163096Y-13212714D01*
X15163096Y-13212714D02*
X15172619Y-13222238D01*
X15172619Y-13222238D02*
X15182143Y-13241286D01*
X15182143Y-13241286D02*
X15182143Y-13298428D01*
X15182143Y-13298428D02*
X15172619Y-13317476D01*
X15172619Y-13317476D02*
X15163096Y-13327000D01*
X15163096Y-13327000D02*
X15144048Y-13336524D01*
X15144048Y-13336524D02*
X15115476Y-13336524D01*
X15296429Y-13336524D02*
X15277381Y-13327000D01*
X15277381Y-13327000D02*
X15267857Y-13307952D01*
X15267857Y-13307952D02*
X15267857Y-13136524D01*
X15448810Y-13327000D02*
X15429762Y-13336524D01*
X15429762Y-13336524D02*
X15391667Y-13336524D01*
X15391667Y-13336524D02*
X15372619Y-13327000D01*
X15372619Y-13327000D02*
X15363096Y-13307952D01*
X15363096Y-13307952D02*
X15363096Y-13231762D01*
X15363096Y-13231762D02*
X15372619Y-13212714D01*
X15372619Y-13212714D02*
X15391667Y-13203190D01*
X15391667Y-13203190D02*
X15429762Y-13203190D01*
X15429762Y-13203190D02*
X15448810Y-13212714D01*
X15448810Y-13212714D02*
X15458334Y-13231762D01*
X15458334Y-13231762D02*
X15458334Y-13250809D01*
X15458334Y-13250809D02*
X15363096Y-13269857D01*
X15534524Y-13327000D02*
X15553572Y-13336524D01*
X15553572Y-13336524D02*
X15591667Y-13336524D01*
X15591667Y-13336524D02*
X15610715Y-13327000D01*
X15610715Y-13327000D02*
X15620238Y-13307952D01*
X15620238Y-13307952D02*
X15620238Y-13298428D01*
X15620238Y-13298428D02*
X15610715Y-13279381D01*
X15610715Y-13279381D02*
X15591667Y-13269857D01*
X15591667Y-13269857D02*
X15563096Y-13269857D01*
X15563096Y-13269857D02*
X15544048Y-13260333D01*
X15544048Y-13260333D02*
X15534524Y-13241286D01*
X15534524Y-13241286D02*
X15534524Y-13231762D01*
X15534524Y-13231762D02*
X15544048Y-13212714D01*
X15544048Y-13212714D02*
X15563096Y-13203190D01*
X15563096Y-13203190D02*
X15591667Y-13203190D01*
X15591667Y-13203190D02*
X15610715Y-13212714D01*
X15686905Y-13412714D02*
X15696429Y-13403190D01*
X15696429Y-13403190D02*
X15715477Y-13374619D01*
X15715477Y-13374619D02*
X15725000Y-13355571D01*
X15725000Y-13355571D02*
X15734524Y-13327000D01*
X15734524Y-13327000D02*
X15744048Y-13279381D01*
X15744048Y-13279381D02*
X15744048Y-13241286D01*
X15744048Y-13241286D02*
X15734524Y-13193667D01*
X15734524Y-13193667D02*
X15725000Y-13165095D01*
X15725000Y-13165095D02*
X15715477Y-13146048D01*
X15715477Y-13146048D02*
X15696429Y-13117476D01*
X15696429Y-13117476D02*
X15686905Y-13107952D01*
M02*
