%TF.GenerationSoftware,Altium Limited,Altium Designer,21.6.1 (37)*%
G04 Layer_Color=16711935*
%FSLAX45Y45*%
%MOMM*%
%TF.SameCoordinates,713E3131-B0EE-4415-9D9D-843BC13DAD56*%
%TF.FilePolarity,Positive*%
%TF.FileFunction,Other,Components*%
%TF.Part,Single*%
G01*
G75*
%TA.AperFunction,NonConductor*%
%ADD38C,0.10160*%
%ADD55C,0.25600*%
%ADD59C,0.05000*%
D38*
X2089995Y138497D02*
X3109994D01*
Y658493D01*
X2089995D02*
X3109994D01*
X2089995Y138497D02*
Y658493D01*
X2900977Y4920003D02*
Y5120001D01*
X2698980Y4920003D02*
X2900977D01*
X2698980D02*
Y5120001D01*
X2900977D01*
X839995Y138497D02*
X1859994D01*
Y658493D01*
X839995D02*
X1859994D01*
X839995Y138497D02*
Y658493D01*
D55*
X146805Y5147476D02*
Y7212492D01*
X7853157D01*
X146805Y5147476D02*
X7853157D01*
Y7212492D01*
X146805Y3007475D02*
Y5072491D01*
X7853157D01*
X146805Y3007475D02*
X7853157D01*
Y5072491D01*
X146805Y867476D02*
Y2932491D01*
X7853157D01*
X146805Y867476D02*
X7853157D01*
Y2932491D01*
D59*
X3787523Y3627499D02*
Y3712502D01*
X3632522Y3627499D02*
Y3712502D01*
Y3627499D02*
X3787523D01*
X3632522Y3712502D02*
X3787523D01*
X3632477Y3777498D02*
Y3862501D01*
X3787478Y3777498D02*
Y3862501D01*
X3632477D02*
X3787478D01*
X3632477Y3777498D02*
X3787478D01*
X3340000Y4940000D02*
Y5100000D01*
X3260000Y4940000D02*
Y5100000D01*
X3340000D01*
X3260000Y4940000D02*
X3340000D01*
X3037503Y4910004D02*
X3182506D01*
Y5130005D01*
X3037503Y4910004D02*
Y5130005D01*
X3182506D01*
X2430000Y4940000D02*
Y5100000D01*
X2350000Y4940000D02*
Y5100000D01*
X2430000D01*
X2350000Y4940000D02*
X2430000D01*
X2580000D02*
Y5100000D01*
X2500000Y4940000D02*
Y5100000D01*
X2580000D01*
X2500000Y4940000D02*
X2580000D01*
X2722500Y4770000D02*
X2882500D01*
X2722500Y4690000D02*
X2882500D01*
X2722500D02*
Y4770000D01*
X2882500Y4690000D02*
Y4770000D01*
X3152477Y3097499D02*
Y3182501D01*
X3307478Y3097499D02*
Y3182501D01*
X3152477D02*
X3307478D01*
X3152477Y3097499D02*
X3307478D01*
X3150000Y2960000D02*
X3310000D01*
X3150000Y3040000D02*
X3310000D01*
Y2960000D02*
Y3040000D01*
X3150000Y2960000D02*
Y3040000D01*
X3307523Y3237499D02*
Y3322502D01*
X3152522Y3237499D02*
Y3322502D01*
Y3237499D02*
X3307523D01*
X3152522Y3322502D02*
X3307523D01*
X3150000Y4140000D02*
X3310000D01*
X3150000Y4060000D02*
X3310000D01*
X3150000D02*
Y4140000D01*
X3310000Y4060000D02*
Y4140000D01*
X2495016Y4449990D02*
X2545019D01*
X2495016Y4349983D02*
Y4449990D01*
X2545019Y4349983D02*
Y4449990D01*
X2495016Y4349983D02*
X2545019D01*
X2810000Y3510000D02*
X2970000D01*
X2810000Y3590000D02*
X2970000D01*
Y3510000D02*
Y3590000D01*
X2810000Y3510000D02*
Y3590000D01*
X2597523Y3787499D02*
Y3872502D01*
X2442522Y3787499D02*
Y3872502D01*
Y3787499D02*
X2597523D01*
X2442522Y3872502D02*
X2597523D01*
Y3517499D02*
Y3602502D01*
X2442522Y3517499D02*
Y3602502D01*
Y3517499D02*
X2597523D01*
X2442522Y3602502D02*
X2597523D01*
X2810000Y3890000D02*
X2970000D01*
X2810000Y3810000D02*
X2970000D01*
X2810000D02*
Y3890000D01*
X2970000Y3810000D02*
Y3890000D01*
X1958500Y4367500D02*
X2288500D01*
X1958500Y4037500D02*
X2288500D01*
X1958500D02*
Y4367500D01*
X2288500Y4037500D02*
Y4367500D01*
X2049996Y3539982D02*
X2210004D01*
X2049996Y3859981D02*
X2210004D01*
X2049996Y3539982D02*
Y3859981D01*
X2210004Y3539982D02*
Y3859981D01*
X2477498Y4237523D02*
X2562501D01*
X2477498Y4082522D02*
X2562501D01*
Y4237523D01*
X2477498Y4082522D02*
Y4237523D01*
X2810000Y3660000D02*
X2970000D01*
X2810000Y3740000D02*
X2970000D01*
Y3660000D02*
Y3740000D01*
X2810000Y3660000D02*
Y3740000D01*
X3307523Y4217499D02*
Y4302502D01*
X3152522Y4217499D02*
Y4302502D01*
Y4217499D02*
X3307523D01*
X3152522Y4302502D02*
X3307523D01*
X3075000Y3457500D02*
X3385000D01*
X3075000Y3962500D02*
X3385000D01*
Y3457500D02*
Y3962500D01*
X3075000Y3457500D02*
Y3962500D01*
X2645000Y4057500D02*
X2955000D01*
X2645000Y4562500D02*
X2955000D01*
Y4057500D02*
Y4562500D01*
X2645000Y4057500D02*
Y4562500D01*
%TF.MD5,d45082004944f6c66febdd6430c06ef7*%
M02*
