%TF.GenerationSoftware,Altium Limited,Altium Designer,21.6.1 (37)*%
G04 Layer_Color=65535*
%FSLAX45Y45*%
%MOMM*%
%TF.SameCoordinates,713E3131-B0EE-4415-9D9D-843BC13DAD56*%
%TF.FilePolarity,Positive*%
%TF.FileFunction,Legend,Top*%
%TF.Part,Single*%
G01*
G75*
%TA.AperFunction,NonConductor*%
%ADD38C,0.10160*%
%ADD55C,0.25600*%
D38*
X3110000Y240000D02*
Y560000D01*
X2089995Y138497D02*
X3010000D01*
X3011879Y658121D02*
X3110000Y560000D01*
X3010000Y140000D02*
X3110000Y240000D01*
X2089995Y658494D02*
X3011879D01*
X2089995Y138497D02*
Y658494D01*
X1860000Y240000D02*
Y560000D01*
X839995Y138497D02*
X1760000D01*
X1761879Y658121D02*
X1860000Y560000D01*
X1760000Y140000D02*
X1860000Y240000D01*
X839995Y658494D02*
X1761879D01*
X839995Y138497D02*
Y658494D01*
D55*
X147705Y5147499D02*
Y7212515D01*
X7854057D01*
X147705Y5147499D02*
X7854057D01*
Y7212515D01*
X147705Y3007499D02*
Y5072515D01*
X7854057D01*
X147705Y3007499D02*
X7854057D01*
Y5072515D01*
X147705Y867499D02*
Y2932515D01*
X7854057D01*
X147705Y867499D02*
X7854057D01*
Y2932515D01*
X2100000Y7800000D02*
X6200000D01*
Y7400000D02*
Y7800000D01*
X2100000Y7400000D02*
X6200000D01*
X2000000Y7500000D02*
X2100000Y7400000D01*
X2000000Y7500000D02*
Y7700000D01*
X2100000Y7800000D01*
X5800000Y7600000D02*
X6000000D01*
X2100000D02*
X2300000D01*
X2200000D02*
X2300000D01*
X2200000Y7500000D02*
Y7700000D01*
%TF.MD5,5204b57d3bba406b767cfce784545c99*%
M02*
