%TF.GenerationSoftware,Altium Limited,Altium Designer,21.6.1 (37)*%
G04 Layer_Color=128*
%FSLAX45Y45*%
%MOMM*%
%TF.SameCoordinates,713E3131-B0EE-4415-9D9D-843BC13DAD56*%
%TF.FilePolarity,Positive*%
%TF.FileFunction,Paste,Bot*%
%TF.Part,Single*%
G01*
G75*
%TA.AperFunction,SMDPad,CuDef*%
%ADD16R,0.95000X1.00000*%
G04:AMPARAMS|DCode=18|XSize=0.45mm|YSize=0.3mm|CornerRadius=0.06mm|HoleSize=0mm|Usage=FLASHONLY|Rotation=180.000|XOffset=0mm|YOffset=0mm|HoleType=Round|Shape=RoundedRectangle|*
%AMROUNDEDRECTD18*
21,1,0.45000,0.18000,0,0,180.0*
21,1,0.33000,0.30000,0,0,180.0*
1,1,0.12000,-0.16500,0.09000*
1,1,0.12000,0.16500,0.09000*
1,1,0.12000,0.16500,-0.09000*
1,1,0.12000,-0.16500,-0.09000*
%
%ADD18ROUNDEDRECTD18*%
G04:AMPARAMS|DCode=19|XSize=1mm|YSize=1.6mm|CornerRadius=0.06mm|HoleSize=0mm|Usage=FLASHONLY|Rotation=180.000|XOffset=0mm|YOffset=0mm|HoleType=Round|Shape=RoundedRectangle|*
%AMROUNDEDRECTD19*
21,1,1.00000,1.48000,0,0,180.0*
21,1,0.88000,1.60000,0,0,180.0*
1,1,0.12000,-0.44000,0.74000*
1,1,0.12000,0.44000,0.74000*
1,1,0.12000,0.44000,-0.74000*
1,1,0.12000,-0.44000,-0.74000*
%
%ADD19ROUNDEDRECTD19*%
%ADD20R,1.00000X0.95000*%
%ADD21R,1.50000X0.90000*%
%ADD23R,0.42000X0.66000*%
%ADD24R,0.48000X0.48000*%
%ADD25R,1.85000X1.25000*%
G04:AMPARAMS|DCode=26|XSize=0.3mm|YSize=1.45mm|CornerRadius=0.033mm|HoleSize=0mm|Usage=FLASHONLY|Rotation=0.000|XOffset=0mm|YOffset=0mm|HoleType=Round|Shape=RoundedRectangle|*
%AMROUNDEDRECTD26*
21,1,0.30000,1.38400,0,0,0.0*
21,1,0.23400,1.45000,0,0,0.0*
1,1,0.06600,0.11700,-0.69200*
1,1,0.06600,-0.11700,-0.69200*
1,1,0.06600,-0.11700,0.69200*
1,1,0.06600,0.11700,0.69200*
%
%ADD26ROUNDEDRECTD26*%
G04:AMPARAMS|DCode=27|XSize=0.45mm|YSize=1.4mm|CornerRadius=0.0495mm|HoleSize=0mm|Usage=FLASHONLY|Rotation=0.000|XOffset=0mm|YOffset=0mm|HoleType=Round|Shape=RoundedRectangle|*
%AMROUNDEDRECTD27*
21,1,0.45000,1.30100,0,0,0.0*
21,1,0.35100,1.40000,0,0,0.0*
1,1,0.09900,0.17550,-0.65050*
1,1,0.09900,-0.17550,-0.65050*
1,1,0.09900,-0.17550,0.65050*
1,1,0.09900,0.17550,0.65050*
%
%ADD27ROUNDEDRECTD27*%
%TA.AperFunction,SMDPad,SMDef*%
G04:AMPARAMS|DCode=51|XSize=2mm|YSize=1.9mm|CornerRadius=0.05mm|HoleSize=0mm|Usage=FLASHONLY|Rotation=180.000|XOffset=0mm|YOffset=0mm|HoleType=Round|Shape=RoundedRectangle|*
%AMROUNDEDRECTD51*
21,1,2.00000,1.80000,0,0,180.0*
21,1,1.90000,1.90000,0,0,180.0*
1,1,0.10000,-0.95000,0.90000*
1,1,0.10000,0.95000,0.90000*
1,1,0.10000,0.95000,-0.90000*
1,1,0.10000,-0.95000,-0.90000*
%
%ADD51ROUNDEDRECTD51*%
%TA.AperFunction,SMDPad,CuDef*%
%ADD56R,0.87400X0.92400*%
%ADD57R,0.57000X0.47000*%
%ADD58R,0.92400X0.87400*%
G36*
X2242000Y4231000D02*
X2296500D01*
Y4174000D01*
X2242000D01*
Y4019000D01*
X2200000D01*
Y4066000D01*
X2177000D01*
Y4019000D01*
X2135000D01*
Y4066000D01*
X2112000D01*
Y4019000D01*
X2070000D01*
Y4066000D01*
X2047000D01*
Y4019000D01*
X2005000D01*
Y4174000D01*
X1950500D01*
Y4231000D01*
X2005000D01*
Y4249000D01*
X2242000D01*
Y4231000D01*
D02*
G37*
D16*
X2740000Y4730000D02*
D03*
X2865000D02*
D03*
X3292500Y3000000D02*
D03*
X3167500D02*
D03*
Y4100000D02*
D03*
X3292500D02*
D03*
X2952500Y3550000D02*
D03*
X2827500D02*
D03*
Y3850000D02*
D03*
X2952500D02*
D03*
Y3700000D02*
D03*
X2827500D02*
D03*
D18*
X2897500Y5020000D02*
D03*
Y4955000D02*
D03*
X2702500D02*
D03*
Y5085000D02*
D03*
X2897500D02*
D03*
X2702500Y5020000D02*
D03*
D19*
X2800000D02*
D03*
D20*
X3300000Y5082500D02*
D03*
Y4957500D02*
D03*
X2390000Y5082500D02*
D03*
Y4957500D02*
D03*
X2540000Y5082500D02*
D03*
Y4957500D02*
D03*
D21*
X3110000Y5100000D02*
D03*
Y4940000D02*
D03*
D23*
X2091000Y4346000D02*
D03*
X2221000D02*
D03*
X2156000D02*
D03*
X2026000D02*
D03*
D24*
X2123500Y4202500D02*
D03*
D25*
X2130000Y3827500D02*
D03*
Y3572500D02*
D03*
D26*
X3130000Y3490000D02*
D03*
X3180000D02*
D03*
X3330000Y3930000D02*
D03*
Y3490000D02*
D03*
X3280000D02*
D03*
X3230000D02*
D03*
Y3930000D02*
D03*
X3280000D02*
D03*
X3180000D02*
D03*
X3130000D02*
D03*
D27*
X2897500Y4090000D02*
D03*
X2832500D02*
D03*
X2767500D02*
D03*
X2702500D02*
D03*
X2832500Y4530000D02*
D03*
X2897500D02*
D03*
X2767500D02*
D03*
X2702500D02*
D03*
D51*
X2800000Y4310000D02*
D03*
D56*
X3647500Y3670000D02*
D03*
X3772500D02*
D03*
Y3820000D02*
D03*
X3647500D02*
D03*
X3292500Y3140000D02*
D03*
X3167500D02*
D03*
Y3280000D02*
D03*
X3292500D02*
D03*
X2457500Y3830000D02*
D03*
X2582500D02*
D03*
X2457500Y3560000D02*
D03*
X2582500D02*
D03*
X3167500Y4260000D02*
D03*
X3292500D02*
D03*
D57*
X2520000Y4442500D02*
D03*
Y4357500D02*
D03*
D58*
Y4097500D02*
D03*
Y4222500D02*
D03*
%TF.MD5,bb671bd0115b70bd0256574232390efd*%
M02*
