%TF.GenerationSoftware,Altium Limited,Altium Designer,21.6.1 (37)*%
G04 Layer_Color=16711935*
%FSLAX45Y45*%
%MOMM*%
%TF.SameCoordinates,713E3131-B0EE-4415-9D9D-843BC13DAD56*%
%TF.FilePolarity,Positive*%
%TF.FileFunction,Other,Outline*%
%TF.Part,Single*%
G01*
G75*
%TA.AperFunction,NonConductor*%
%ADD60C,0.01270*%
D60*
X3400635Y600635D02*
G03*
X3200635Y400635I0J-200000D01*
G01*
X3000635Y635D02*
G03*
X3200635Y200635I-0J200000D01*
G01*
X635Y200635D02*
G03*
X200635Y635I200000J0D01*
G01*
X7760635Y400635D02*
G03*
X7760635Y400635I-160000J0D01*
G01*
X7200635Y200635D02*
G03*
X7400635Y635I200000J0D01*
G01*
X7800636D02*
G03*
X8000636Y200635I-0J200000D01*
G01*
X8000635Y7800635D02*
G03*
X7800635Y8000635I-200000J0D01*
G01*
X200636D02*
G03*
X635Y7800635I-0J-200000D01*
G01*
X560635Y7600635D02*
G03*
X560635Y7600635I-160000J0D01*
G01*
X7760635D02*
G03*
X7760635Y7600635I-160000J0D01*
G01*
X7200635Y400634D02*
G03*
X7000635Y600635I-200000J0D01*
G01*
X560635Y400635D02*
G03*
X560635Y400635I-160000J0D01*
G01*
X3200635Y200635D02*
Y400000D01*
X200635Y635D02*
X3000000D01*
X8000635Y200635D02*
Y7800635D01*
X7200635Y200635D02*
Y400635D01*
X7400635Y635D02*
X7800635D01*
X200635Y8000635D02*
X7800635D01*
X3400000Y600635D02*
X7000635Y600635D01*
X635Y200635D02*
Y7800635D01*
%TF.MD5,d4a3e860e6b45b13048398b0426515a1*%
M02*
