%TF.GenerationSoftware,Altium Limited,Altium Designer,21.6.1 (37)*%
G04 Layer_Color=0*
%FSLAX45Y45*%
%MOMM*%
%TF.SameCoordinates,713E3131-B0EE-4415-9D9D-843BC13DAD56*%
%TF.FilePolarity,Positive*%
%TF.FileFunction,NonPlated,1,4,NPTH,Drill*%
%TF.Part,Single*%
G01*
G75*
%TA.AperFunction,ComponentDrill*%
%ADD62C,2.39000*%
%ADD63C,3.55000*%
G36*
X7600635Y7440635D02*
X7584877D01*
X7553965Y7446783D01*
X7524847Y7458845D01*
X7498641Y7476355D01*
X7476355Y7498641D01*
X7458845Y7524846D01*
X7446784Y7553964D01*
X7440635Y7584876D01*
Y7600635D01*
Y7616393D01*
X7446784Y7647305D01*
X7458845Y7676423D01*
X7476355Y7702629D01*
X7498641Y7724915D01*
X7524847Y7742425D01*
X7553965Y7754486D01*
X7584877Y7760635D01*
X7600635D01*
X7616394D01*
X7647306Y7754486D01*
X7676424Y7742425D01*
X7702629Y7724915D01*
X7724915Y7702629D01*
X7742425Y7676423D01*
X7754486Y7647305D01*
X7760635Y7616393D01*
Y7600635D01*
Y7584876D01*
X7754486Y7553964D01*
X7742425Y7524846D01*
X7724915Y7498641D01*
X7702629Y7476355D01*
X7676424Y7458845D01*
X7647306Y7446783D01*
X7616394Y7440635D01*
X7600635D01*
D01*
D02*
G37*
G36*
X400635D02*
X384877D01*
X353965Y7446783D01*
X324847Y7458845D01*
X298641Y7476355D01*
X276355Y7498641D01*
X258845Y7524846D01*
X246784Y7553964D01*
X240635Y7584876D01*
X240635Y7600635D01*
Y7616393D01*
X246784Y7647305D01*
X258845Y7676423D01*
X276355Y7702629D01*
X298641Y7724915D01*
X324847Y7742425D01*
X353965Y7754486D01*
X384877Y7760635D01*
X400635D01*
X416394D01*
X447305Y7754486D01*
X476423Y7742425D01*
X502629Y7724915D01*
X524915Y7702629D01*
X542425Y7676423D01*
X554486Y7647305D01*
X560635Y7616393D01*
Y7600635D01*
Y7584876D01*
X554486Y7553964D01*
X542425Y7524846D01*
X524915Y7498641D01*
X502629Y7476355D01*
X476423Y7458845D01*
X447305Y7446783D01*
X416394Y7440635D01*
X400635D01*
D01*
D02*
G37*
G36*
X240635Y400635D02*
Y384876D01*
X246784Y353964D01*
X258845Y324846D01*
X276355Y298640D01*
X298641Y276355D01*
X324847Y258845D01*
X353965Y246783D01*
X384877Y240635D01*
X400635Y240635D01*
X416394D01*
X447305Y246783D01*
X476423Y258845D01*
X502629Y276355D01*
X524915Y298640D01*
X542425Y324846D01*
X554486Y353964D01*
X560635Y384876D01*
Y400634D01*
Y416393D01*
X554486Y447305D01*
X542425Y476423D01*
X524915Y502629D01*
X502629Y524915D01*
X476423Y542425D01*
X447305Y554486D01*
X416394Y560635D01*
X400635D01*
X384877D01*
X353965Y554486D01*
X324847Y542425D01*
X298641Y524915D01*
X276355Y502629D01*
X258845Y476423D01*
X246784Y447305D01*
X240635Y416393D01*
X240635Y400635D01*
D01*
D02*
G37*
G36*
X7440635D02*
Y384876D01*
X7446784Y353964D01*
X7458845Y324846D01*
X7476355Y298640D01*
X7498641Y276355D01*
X7524847Y258845D01*
X7553965Y246783D01*
X7584877Y240635D01*
X7600635Y240635D01*
X7616394D01*
X7647306Y246783D01*
X7676424Y258845D01*
X7702629Y276355D01*
X7724915Y298640D01*
X7742425Y324846D01*
X7754486Y353964D01*
X7760635Y384876D01*
Y400634D01*
Y416393D01*
X7754486Y447305D01*
X7742425Y476423D01*
X7724915Y502629D01*
X7702629Y524915D01*
X7676424Y542425D01*
X7647306Y554486D01*
X7616394Y560635D01*
X7600635D01*
X7584877D01*
X7553965Y554486D01*
X7524847Y542425D01*
X7498641Y524915D01*
X7476355Y502629D01*
X7458845Y476423D01*
X7446784Y447305D01*
X7440635Y416393D01*
Y400635D01*
D01*
D02*
G37*
D62*
X389000Y6967000D02*
D03*
Y4826999D02*
D03*
Y2687000D02*
D03*
D63*
X1227000Y5393000D02*
D03*
X6747000Y6967000D02*
D03*
X1227000Y3253000D02*
D03*
X6747000Y4826999D02*
D03*
X1227000Y1113000D02*
D03*
X6747000Y2687000D02*
D03*
%TF.MD5,834c361d2b6080b836c219a8a9dae778*%
M02*
