%TF.GenerationSoftware,Altium Limited,Altium Designer,21.6.1 (37)*%
G04 Layer_Color=32896*
%FSLAX45Y45*%
%MOMM*%
%TF.SameCoordinates,713E3131-B0EE-4415-9D9D-843BC13DAD56*%
%TF.FilePolarity,Positive*%
%TF.FileFunction,Legend,Bot*%
%TF.Part,Single*%
G01*
G75*
%TA.AperFunction,NonConductor*%
%ADD35C,0.20000*%
%ADD36C,0.25400*%
%ADD37C,0.10000*%
%ADD38C,0.10160*%
G36*
X914302Y7799461D02*
X916980D01*
Y7796783D01*
X919658D01*
Y7794105D01*
X922336D01*
Y7791427D01*
X925014D01*
Y7786071D01*
X919658D01*
Y7783393D01*
X916980D01*
Y7778037D01*
X914302D01*
Y7770002D01*
X911624D01*
Y7767324D01*
X908945D01*
Y7772680D01*
X906267D01*
Y7778037D01*
Y7780715D01*
X903589D01*
Y7783393D01*
X900911D01*
Y7786071D01*
X898233D01*
Y7791427D01*
X900911D01*
Y7796783D01*
X903589D01*
Y7799461D01*
X906267D01*
Y7807495D01*
X908945D01*
Y7810173D01*
X914302D01*
Y7799461D01*
D02*
G37*
G36*
X1182109Y7724475D02*
X1184787D01*
Y7721797D01*
X1187465D01*
Y7713763D01*
X1190143D01*
Y7708406D01*
X1192822D01*
Y7705728D01*
X1195500D01*
Y7703050D01*
X1198178D01*
Y7700372D01*
X1200856D01*
Y7695016D01*
X1198178D01*
Y7692338D01*
X1195500D01*
Y7689660D01*
X1192822D01*
Y7686982D01*
X1190143D01*
Y7681626D01*
X1187465D01*
Y7673591D01*
X1184787D01*
Y7670913D01*
X1182109D01*
Y7668235D01*
X1179431D01*
Y7676270D01*
X1176753D01*
Y7684304D01*
X1174075D01*
Y7689660D01*
X1171397D01*
Y7692338D01*
X1168719D01*
Y7695016D01*
X1166041D01*
Y7703050D01*
X1171397D01*
Y7705728D01*
X1174075D01*
Y7708406D01*
X1176753D01*
Y7721797D01*
X1179431D01*
Y7727153D01*
X1182109D01*
Y7724475D01*
D02*
G37*
G36*
X1557040Y7641455D02*
X1581143D01*
Y7638776D01*
X1610602D01*
Y7636099D01*
X1626670D01*
Y7633420D01*
X1640060D01*
Y7630742D01*
X1661485D01*
Y7628064D01*
X1664163D01*
Y7625386D01*
X1677553D01*
Y7622708D01*
X1685588D01*
Y7620030D01*
X1666841D01*
Y7622708D01*
X1658807D01*
Y7625386D01*
X1621314D01*
Y7628064D01*
X1602568D01*
Y7630742D01*
X1551684D01*
Y7633420D01*
X1468664D01*
Y7630742D01*
X1431170D01*
Y7628064D01*
X1409746D01*
Y7625386D01*
X1377609D01*
Y7622708D01*
X1369575D01*
Y7620030D01*
X1345472D01*
Y7617352D01*
X1337438D01*
Y7614674D01*
X1324047D01*
Y7611996D01*
X1310657D01*
Y7609318D01*
X1302623D01*
Y7606640D01*
X1286554D01*
Y7603961D01*
X1281198D01*
Y7601284D01*
X1270486D01*
Y7598605D01*
X1259774D01*
Y7595927D01*
X1254417D01*
Y7593249D01*
X1243705D01*
Y7590571D01*
X1238349D01*
Y7587893D01*
X1227637D01*
Y7585215D01*
X1222281D01*
Y7582537D01*
X1216924D01*
Y7579859D01*
X1206212D01*
Y7577181D01*
X1203534D01*
Y7574503D01*
X1192822D01*
Y7571825D01*
X1187465D01*
Y7569146D01*
X1182109D01*
Y7566468D01*
X1176753D01*
Y7563790D01*
X1171397D01*
Y7561112D01*
X1163363D01*
Y7558434D01*
X1160685D01*
Y7555756D01*
X1152650D01*
Y7553078D01*
X1149972D01*
Y7550400D01*
X1144616D01*
Y7547722D01*
X1136582D01*
Y7545044D01*
X1133904D01*
Y7542366D01*
X1128548D01*
Y7539687D01*
X1123192D01*
Y7537010D01*
X1120514D01*
Y7534331D01*
X1115158D01*
Y7531653D01*
X1112479D01*
Y7528975D01*
X1104445D01*
Y7526297D01*
X1101767D01*
Y7523619D01*
X1099089D01*
Y7520941D01*
X1091055D01*
Y7523619D01*
X1088377D01*
Y7539687D01*
X1091055D01*
Y7542366D01*
X1096411D01*
Y7545044D01*
X1099089D01*
Y7547722D01*
X1107123D01*
Y7550400D01*
X1109801D01*
Y7553078D01*
X1115158D01*
Y7555756D01*
X1120514D01*
Y7558434D01*
X1123192D01*
Y7561112D01*
X1131226D01*
Y7563790D01*
X1133904D01*
Y7566468D01*
X1139260D01*
Y7569146D01*
X1144616D01*
Y7571825D01*
X1149972D01*
Y7574503D01*
X1155329D01*
Y7577181D01*
X1160685D01*
Y7579859D01*
X1168719D01*
Y7582537D01*
X1171397D01*
Y7585215D01*
X1179431D01*
Y7587893D01*
X1184787D01*
Y7590571D01*
X1190143D01*
Y7593249D01*
X1198178D01*
Y7595927D01*
X1203534D01*
Y7598605D01*
X1214246D01*
Y7601284D01*
X1219602D01*
Y7603961D01*
X1227637D01*
Y7606640D01*
X1235671D01*
Y7609318D01*
X1241027D01*
Y7611996D01*
X1254417D01*
Y7614674D01*
X1259774D01*
Y7617352D01*
X1270486D01*
Y7620030D01*
X1281198D01*
Y7622708D01*
X1289232D01*
Y7625386D01*
X1307979D01*
Y7628064D01*
X1313335D01*
Y7630742D01*
X1334760D01*
Y7633420D01*
X1345472D01*
Y7636099D01*
X1361541D01*
Y7638776D01*
X1388321D01*
Y7641455D01*
X1407068D01*
Y7644133D01*
X1557040D01*
Y7641455D01*
D02*
G37*
G36*
X900911Y7539687D02*
X903589D01*
Y7534331D01*
X906267D01*
Y7528975D01*
X908945D01*
Y7526297D01*
X911624D01*
Y7523619D01*
X916980D01*
Y7520941D01*
X919658D01*
Y7515585D01*
X914302D01*
Y7512907D01*
X911624D01*
Y7510229D01*
X908945D01*
Y7507551D01*
X906267D01*
Y7499516D01*
X903589D01*
Y7496838D01*
X900911D01*
Y7480770D01*
X895555D01*
Y7483448D01*
X892877D01*
Y7491482D01*
X890199D01*
Y7499516D01*
X887521D01*
Y7504873D01*
X884843D01*
Y7507551D01*
X882165D01*
Y7510229D01*
X879487D01*
Y7512907D01*
X876809D01*
Y7515585D01*
X874130D01*
Y7520941D01*
X876809D01*
Y7523619D01*
X882165D01*
Y7528975D01*
X884843D01*
Y7531653D01*
X887521D01*
Y7537010D01*
X890199D01*
Y7545044D01*
X892877D01*
Y7550400D01*
X895555D01*
Y7555756D01*
X900911D01*
Y7539687D01*
D02*
G37*
G36*
X1449917Y7416496D02*
X1457951D01*
Y7413818D01*
X1465985D01*
Y7411140D01*
X1468664D01*
Y7395071D01*
X1457951D01*
Y7397749D01*
X1449917D01*
Y7400428D01*
X1423136D01*
Y7397749D01*
X1417780D01*
Y7395071D01*
X1412424D01*
Y7392393D01*
X1409746D01*
Y7387037D01*
X1407068D01*
Y7370969D01*
X1409746D01*
Y7368291D01*
X1415102D01*
Y7370969D01*
X1447239D01*
Y7368291D01*
X1460629D01*
Y7365613D01*
X1463307D01*
Y7362935D01*
X1465985D01*
Y7360257D01*
X1468664D01*
Y7357578D01*
X1471341D01*
Y7352222D01*
X1474020D01*
Y7346866D01*
X1476698D01*
Y7320085D01*
X1474020D01*
Y7314729D01*
X1471341D01*
Y7309373D01*
X1468664D01*
Y7306695D01*
X1465985D01*
Y7304017D01*
X1460629D01*
Y7301339D01*
X1457951D01*
Y7298661D01*
X1420458D01*
Y7301339D01*
X1415102D01*
Y7304017D01*
X1409746D01*
Y7306695D01*
X1404390D01*
Y7304017D01*
X1401712D01*
Y7298661D01*
X1388321D01*
Y7395071D01*
X1390999D01*
Y7400428D01*
X1393677D01*
Y7403106D01*
X1396355D01*
Y7405784D01*
X1399034D01*
Y7408462D01*
X1401712D01*
Y7411140D01*
X1404390D01*
Y7413818D01*
X1412424D01*
Y7416496D01*
X1420458D01*
Y7419174D01*
X1449917D01*
Y7416496D01*
D02*
G37*
G36*
X1779320Y7405784D02*
X1781998D01*
Y7338832D01*
X1779320D01*
Y7336154D01*
X1771286D01*
Y7338832D01*
X1768608D01*
Y7368291D01*
X1733793D01*
Y7338832D01*
X1731115D01*
Y7336154D01*
X1723081D01*
Y7338832D01*
X1720403D01*
Y7405784D01*
X1723081D01*
Y7408462D01*
X1731115D01*
Y7405784D01*
X1733793D01*
Y7381681D01*
X1736471D01*
Y7379003D01*
X1765930D01*
Y7381681D01*
X1768608D01*
Y7408462D01*
X1779320D01*
Y7405784D01*
D02*
G37*
G36*
X1827526D02*
X1835560D01*
Y7403106D01*
X1838238D01*
Y7400428D01*
X1843594D01*
Y7395071D01*
X1846272D01*
Y7389715D01*
X1848951D01*
Y7381681D01*
X1851629D01*
Y7365613D01*
X1848951D01*
Y7362935D01*
Y7360257D01*
Y7357578D01*
X1846272D01*
Y7352222D01*
X1843594D01*
Y7349544D01*
X1840916D01*
Y7346866D01*
X1838238D01*
Y7344188D01*
X1835560D01*
Y7341510D01*
X1830204D01*
Y7338832D01*
X1822170D01*
Y7336154D01*
X1800745D01*
Y7338832D01*
X1795389D01*
Y7341510D01*
X1792711D01*
Y7370969D01*
X1795389D01*
Y7373647D01*
X1803423D01*
Y7368291D01*
X1806101D01*
Y7349544D01*
X1827526D01*
Y7352222D01*
X1830204D01*
Y7354900D01*
X1832882D01*
Y7357578D01*
X1835560D01*
Y7362935D01*
X1838238D01*
Y7384359D01*
X1835560D01*
Y7389715D01*
X1832882D01*
Y7392393D01*
X1830204D01*
Y7395071D01*
X1824848D01*
Y7397749D01*
X1800745D01*
Y7395071D01*
X1795389D01*
Y7397749D01*
X1792711D01*
Y7405784D01*
X1795389D01*
Y7408462D01*
X1827526D01*
Y7405784D01*
D02*
G37*
G36*
X1894478Y7403106D02*
X1897156D01*
Y7397749D01*
X1899834D01*
Y7392393D01*
X1902512D01*
Y7384359D01*
X1905190D01*
Y7379003D01*
X1907868D01*
Y7370969D01*
X1910546D01*
Y7365613D01*
X1913224D01*
Y7360257D01*
X1915902D01*
Y7352222D01*
X1918581D01*
Y7349544D01*
X1921259D01*
Y7336154D01*
X1913224D01*
Y7338832D01*
X1910546D01*
Y7344188D01*
X1907868D01*
Y7349544D01*
X1905190D01*
Y7354900D01*
X1902512D01*
Y7365613D01*
X1897156D01*
Y7362935D01*
X1894478D01*
Y7357578D01*
X1873053D01*
Y7354900D01*
X1870375D01*
Y7346866D01*
X1867697D01*
Y7341510D01*
X1865019D01*
Y7338832D01*
X1862341D01*
Y7336154D01*
X1854307D01*
Y7338832D01*
X1851629D01*
Y7344188D01*
X1854307D01*
Y7346866D01*
X1856985D01*
Y7354900D01*
X1859663D01*
Y7360257D01*
X1862341D01*
Y7365613D01*
X1865019D01*
Y7373647D01*
X1867697D01*
Y7379003D01*
X1870375D01*
Y7387037D01*
X1873053D01*
Y7392393D01*
X1875731D01*
Y7397749D01*
X1878410D01*
Y7405784D01*
X1881087D01*
Y7408462D01*
X1894478D01*
Y7403106D01*
D02*
G37*
G36*
X1672197Y7416496D02*
X1677553D01*
Y7413818D01*
X1685588D01*
Y7411140D01*
X1688266D01*
Y7408462D01*
X1690944D01*
Y7405784D01*
X1693622D01*
Y7403106D01*
X1696300D01*
Y7395071D01*
X1698978D01*
Y7387037D01*
X1701656D01*
Y7384359D01*
X1698978D01*
Y7368291D01*
X1696300D01*
Y7360257D01*
X1693622D01*
Y7357578D01*
X1690944D01*
Y7354900D01*
X1688266D01*
Y7352222D01*
X1682910D01*
Y7349544D01*
X1669519D01*
Y7346866D01*
X1642739D01*
Y7344188D01*
X1637382D01*
Y7341510D01*
X1634704D01*
Y7333476D01*
X1632026D01*
Y7328119D01*
X1634704D01*
Y7325441D01*
X1637382D01*
Y7320085D01*
X1640060D01*
Y7317407D01*
X1685588D01*
Y7320085D01*
X1690944D01*
Y7322763D01*
X1693622D01*
Y7320085D01*
X1696300D01*
Y7304017D01*
X1693622D01*
Y7301339D01*
X1688266D01*
Y7298661D01*
X1634704D01*
Y7301339D01*
X1632026D01*
Y7304017D01*
X1626670D01*
Y7306695D01*
X1623992D01*
Y7309373D01*
X1621314D01*
Y7312051D01*
X1618636D01*
Y7317407D01*
X1615958D01*
Y7322763D01*
X1613280D01*
Y7341510D01*
X1615958D01*
Y7349544D01*
X1618636D01*
Y7354900D01*
X1621314D01*
Y7357578D01*
X1623992D01*
Y7360257D01*
X1626670D01*
Y7362935D01*
X1632026D01*
Y7365613D01*
X1634704D01*
Y7368291D01*
X1674875D01*
Y7370969D01*
X1677553D01*
Y7373647D01*
X1680232D01*
Y7392393D01*
X1677553D01*
Y7395071D01*
X1672197D01*
Y7397749D01*
X1669519D01*
Y7400428D01*
X1640060D01*
Y7397749D01*
X1632026D01*
Y7395071D01*
X1618636D01*
Y7411140D01*
X1621314D01*
Y7413818D01*
X1629348D01*
Y7416496D01*
X1637382D01*
Y7419174D01*
X1672197D01*
Y7416496D01*
D02*
G37*
G36*
X1324047D02*
X1329403D01*
Y7413818D01*
X1337438D01*
Y7411140D01*
X1342794D01*
Y7408462D01*
X1345472D01*
Y7405784D01*
X1348150D01*
Y7403106D01*
X1350828D01*
Y7400428D01*
X1353506D01*
Y7397749D01*
X1356184D01*
Y7392393D01*
X1358862D01*
Y7387037D01*
X1361541D01*
Y7376325D01*
X1364219D01*
Y7344188D01*
X1361541D01*
Y7330798D01*
X1358862D01*
Y7325441D01*
X1356184D01*
Y7320085D01*
X1353506D01*
Y7317407D01*
X1350828D01*
Y7312051D01*
X1348150D01*
Y7309373D01*
X1342794D01*
Y7306695D01*
X1340116D01*
Y7304017D01*
X1334760D01*
Y7301339D01*
X1329403D01*
Y7298661D01*
X1281198D01*
Y7304017D01*
X1278520D01*
Y7314729D01*
X1281198D01*
Y7317407D01*
X1326725D01*
Y7320085D01*
X1329403D01*
Y7322763D01*
X1332082D01*
Y7325441D01*
X1334760D01*
Y7328119D01*
X1337438D01*
Y7333476D01*
X1340116D01*
Y7338832D01*
X1342794D01*
Y7349544D01*
X1345472D01*
Y7368291D01*
X1342794D01*
Y7379003D01*
X1340116D01*
Y7384359D01*
X1337438D01*
Y7389715D01*
X1334760D01*
Y7392393D01*
X1329403D01*
Y7395071D01*
X1326725D01*
Y7397749D01*
X1321369D01*
Y7400428D01*
X1289232D01*
Y7397749D01*
X1281198D01*
Y7400428D01*
X1278520D01*
Y7405784D01*
Y7408462D01*
Y7411140D01*
X1281198D01*
Y7416496D01*
X1289232D01*
Y7419174D01*
X1324047D01*
Y7416496D01*
D02*
G37*
G36*
X1227637D02*
X1232993D01*
Y7413818D01*
X1238349D01*
Y7411140D01*
X1243705D01*
Y7408462D01*
X1246383D01*
Y7405784D01*
X1249061D01*
Y7403106D01*
X1251739D01*
Y7400428D01*
X1254417D01*
Y7392393D01*
X1257096D01*
Y7389715D01*
X1259774D01*
Y7368291D01*
X1262452D01*
Y7349544D01*
X1259774D01*
Y7330798D01*
X1257096D01*
Y7325441D01*
X1254417D01*
Y7320085D01*
X1251739D01*
Y7314729D01*
X1249061D01*
Y7312051D01*
X1246383D01*
Y7309373D01*
X1243705D01*
Y7306695D01*
X1241027D01*
Y7304017D01*
X1232993D01*
Y7301339D01*
X1230315D01*
Y7298661D01*
X1176753D01*
Y7301339D01*
X1174075D01*
Y7306695D01*
X1171397D01*
Y7314729D01*
X1174075D01*
Y7317407D01*
X1224958D01*
Y7320085D01*
X1227637D01*
Y7322763D01*
X1232993D01*
Y7325441D01*
X1235671D01*
Y7330798D01*
X1238349D01*
Y7333476D01*
X1241027D01*
Y7349544D01*
X1171397D01*
Y7352222D01*
X1168719D01*
Y7384359D01*
X1171397D01*
Y7395071D01*
X1174075D01*
Y7400428D01*
X1176753D01*
Y7403106D01*
X1179431D01*
Y7405784D01*
X1182109D01*
Y7408462D01*
X1184787D01*
Y7411140D01*
X1187465D01*
Y7413818D01*
X1195500D01*
Y7416496D01*
X1200856D01*
Y7419174D01*
X1227637D01*
Y7416496D01*
D02*
G37*
G36*
X1570430D02*
X1578465D01*
Y7413818D01*
X1589177D01*
Y7253133D01*
X1573109D01*
Y7255811D01*
X1570430D01*
Y7298661D01*
X1527581D01*
Y7301339D01*
X1522225D01*
Y7304017D01*
X1516869D01*
Y7306695D01*
X1514191D01*
Y7309373D01*
X1511513D01*
Y7312051D01*
X1508835D01*
Y7314729D01*
X1506156D01*
Y7320085D01*
X1503479D01*
Y7325441D01*
X1500800D01*
Y7328119D01*
X1498122D01*
Y7344188D01*
Y7346866D01*
Y7349544D01*
X1495444D01*
Y7370969D01*
X1498122D01*
Y7389715D01*
X1500800D01*
Y7392393D01*
X1503479D01*
Y7397749D01*
X1506156D01*
Y7403106D01*
X1508835D01*
Y7405784D01*
X1511513D01*
Y7408462D01*
X1514191D01*
Y7411140D01*
X1519547D01*
Y7413818D01*
X1527581D01*
Y7416496D01*
X1532937D01*
Y7419174D01*
X1570430D01*
Y7416496D01*
D02*
G37*
G36*
X1412424Y7199572D02*
X1415102D01*
Y7081736D01*
X1412424D01*
Y7079058D01*
X1401712D01*
Y7076380D01*
X1399034D01*
Y7079058D01*
X1396355D01*
Y7081736D01*
X1393677D01*
Y7162079D01*
X1396355D01*
Y7164757D01*
X1393677D01*
Y7170113D01*
X1390999D01*
Y7172791D01*
X1388321D01*
Y7175469D01*
X1385643D01*
Y7178147D01*
X1380287D01*
Y7180825D01*
X1374931D01*
Y7183503D01*
X1358862D01*
Y7180825D01*
X1356184D01*
Y7178147D01*
X1353506D01*
Y7175469D01*
X1350828D01*
Y7164757D01*
X1348150D01*
Y7087093D01*
Y7084415D01*
Y7079058D01*
X1329403D01*
Y7081736D01*
X1326725D01*
Y7089771D01*
X1329403D01*
Y7156723D01*
X1326725D01*
Y7159401D01*
X1329403D01*
Y7167435D01*
X1326725D01*
Y7170113D01*
X1324047D01*
Y7175469D01*
X1318691D01*
Y7178147D01*
X1316013D01*
Y7180825D01*
X1310657D01*
Y7183503D01*
X1294588D01*
Y7180825D01*
X1289232D01*
Y7178147D01*
X1286554D01*
Y7172791D01*
X1283876D01*
Y7162079D01*
X1281198D01*
Y7087093D01*
X1283876D01*
Y7084415D01*
X1281198D01*
Y7079058D01*
X1275842D01*
Y7076380D01*
X1273164D01*
Y7079058D01*
X1262452D01*
Y7172791D01*
X1265130D01*
Y7178147D01*
X1267808D01*
Y7186181D01*
X1270486D01*
Y7188860D01*
X1273164D01*
Y7194216D01*
X1278520D01*
Y7196894D01*
X1281198D01*
Y7199572D01*
X1283876D01*
Y7202250D01*
X1313335D01*
Y7199572D01*
X1316013D01*
Y7196894D01*
X1321369D01*
Y7194216D01*
X1326725D01*
Y7191538D01*
X1329403D01*
Y7188860D01*
X1337438D01*
Y7194216D01*
X1342794D01*
Y7196894D01*
X1345472D01*
Y7199572D01*
X1350828D01*
Y7202250D01*
X1377609D01*
Y7199572D01*
X1382965D01*
Y7196894D01*
X1385643D01*
Y7194216D01*
X1390999D01*
Y7191538D01*
X1399034D01*
Y7199572D01*
X1401712D01*
Y7202250D01*
X1412424D01*
Y7199572D01*
D02*
G37*
G36*
X1814136Y7191538D02*
X1811457D01*
Y7183503D01*
X1808779D01*
Y7178147D01*
X1806101D01*
Y7164757D01*
X1803423D01*
Y7159401D01*
X1800745D01*
Y7151366D01*
X1798067D01*
Y7140654D01*
X1795389D01*
Y7135298D01*
X1792711D01*
Y7124586D01*
X1790033D01*
Y7119230D01*
X1787355D01*
Y7108517D01*
X1784677D01*
Y7100483D01*
X1781998D01*
Y7092449D01*
X1779320D01*
Y7084415D01*
Y7081736D01*
X1776642D01*
Y7073702D01*
X1779320D01*
Y7068346D01*
X1781998D01*
Y7062990D01*
X1784677D01*
Y7060312D01*
X1787355D01*
Y7057634D01*
X1790033D01*
Y7054956D01*
X1792711D01*
Y7052277D01*
X1798067D01*
Y7046921D01*
X1800745D01*
Y7041565D01*
X1798067D01*
Y7036209D01*
X1795389D01*
Y7033531D01*
X1787355D01*
Y7036209D01*
X1781998D01*
Y7038887D01*
X1779320D01*
Y7041565D01*
X1776642D01*
Y7044243D01*
X1773964D01*
Y7046921D01*
X1771286D01*
Y7049600D01*
X1768608D01*
Y7054956D01*
X1765930D01*
Y7060312D01*
X1763252D01*
Y7065668D01*
X1760574D01*
Y7073702D01*
X1757896D01*
Y7079058D01*
X1755218D01*
Y7089771D01*
X1752540D01*
Y7095127D01*
X1749862D01*
Y7105839D01*
X1747184D01*
Y7111195D01*
X1744506D01*
Y7119230D01*
X1741827D01*
Y7129942D01*
X1739149D01*
Y7132620D01*
X1736471D01*
Y7146010D01*
X1733793D01*
Y7151366D01*
X1731115D01*
Y7159401D01*
X1728437D01*
Y7167435D01*
X1725759D01*
Y7172791D01*
X1723081D01*
Y7183503D01*
X1720403D01*
Y7188860D01*
X1717725D01*
Y7202250D01*
X1733793D01*
Y7199572D01*
X1736471D01*
Y7194216D01*
X1739149D01*
Y7191538D01*
X1741827D01*
Y7175469D01*
X1744506D01*
Y7172791D01*
X1747184D01*
Y7159401D01*
X1749862D01*
Y7154045D01*
X1752540D01*
Y7146010D01*
X1755218D01*
Y7135298D01*
X1757896D01*
Y7129942D01*
X1760574D01*
Y7113874D01*
X1763252D01*
Y7111195D01*
X1765930D01*
Y7113874D01*
X1768608D01*
Y7121908D01*
X1771286D01*
Y7127264D01*
X1773964D01*
Y7140654D01*
X1776642D01*
Y7146010D01*
X1779320D01*
Y7154045D01*
X1781998D01*
Y7164757D01*
X1784677D01*
Y7170113D01*
X1787355D01*
Y7183503D01*
X1790033D01*
Y7188860D01*
X1792711D01*
Y7199572D01*
X1795389D01*
Y7202250D01*
X1814136D01*
Y7191538D01*
D02*
G37*
G36*
X1498122Y7199572D02*
X1506156D01*
Y7196894D01*
X1508835D01*
Y7194216D01*
X1514191D01*
Y7191538D01*
X1516869D01*
Y7188860D01*
X1519547D01*
Y7186181D01*
X1522225D01*
Y7180825D01*
X1524903D01*
Y7175469D01*
X1527581D01*
Y7170113D01*
X1530259D01*
Y7113874D01*
X1527581D01*
Y7108517D01*
X1524903D01*
Y7103161D01*
X1522225D01*
Y7097805D01*
X1519547D01*
Y7095127D01*
X1516869D01*
Y7092449D01*
X1514191D01*
Y7089771D01*
X1511513D01*
Y7087093D01*
X1508835D01*
Y7084415D01*
X1503479D01*
Y7081736D01*
X1498122D01*
Y7079058D01*
X1447239D01*
Y7081736D01*
X1444561D01*
Y7084415D01*
X1441883D01*
Y7097805D01*
X1444561D01*
Y7100483D01*
X1449917D01*
Y7097805D01*
X1492766D01*
Y7100483D01*
X1498122D01*
Y7103161D01*
X1500800D01*
Y7105839D01*
X1503479D01*
Y7108517D01*
X1506156D01*
Y7113874D01*
X1508835D01*
Y7116551D01*
X1511513D01*
Y7129942D01*
X1508835D01*
Y7132620D01*
X1441883D01*
Y7135298D01*
X1439205D01*
Y7140654D01*
X1436526D01*
Y7154045D01*
X1439205D01*
Y7172791D01*
X1441883D01*
Y7180825D01*
X1444561D01*
Y7183503D01*
X1447239D01*
Y7188860D01*
X1449917D01*
Y7191538D01*
X1452595D01*
Y7194216D01*
X1457951D01*
Y7196894D01*
X1460629D01*
Y7199572D01*
X1465985D01*
Y7202250D01*
X1498122D01*
Y7199572D01*
D02*
G37*
G36*
X1889122D02*
X1894478D01*
Y7196894D01*
X1899834D01*
Y7194216D01*
X1902512D01*
Y7191538D01*
X1905190D01*
Y7188860D01*
X1907868D01*
Y7183503D01*
X1910546D01*
Y7178147D01*
X1913224D01*
Y7154045D01*
X1910546D01*
Y7146010D01*
X1907868D01*
Y7140654D01*
X1905190D01*
Y7137976D01*
X1902512D01*
Y7135298D01*
X1899834D01*
Y7132620D01*
X1891800D01*
Y7129942D01*
X1856985D01*
Y7127264D01*
X1851629D01*
Y7124586D01*
X1848951D01*
Y7119230D01*
X1846272D01*
Y7108517D01*
X1848951D01*
Y7105839D01*
X1851629D01*
Y7100483D01*
X1854307D01*
Y7097805D01*
X1897156D01*
Y7100483D01*
X1902512D01*
Y7103161D01*
X1907868D01*
Y7081736D01*
X1899834D01*
Y7079058D01*
X1848951D01*
Y7081736D01*
X1843594D01*
Y7084415D01*
X1840916D01*
Y7087093D01*
X1838238D01*
Y7089771D01*
X1835560D01*
Y7092449D01*
X1832882D01*
Y7097805D01*
X1830204D01*
Y7100483D01*
X1827526D01*
Y7127264D01*
X1830204D01*
Y7132620D01*
X1832882D01*
Y7137976D01*
X1835560D01*
Y7140654D01*
X1838238D01*
Y7143332D01*
X1840916D01*
Y7146010D01*
X1846272D01*
Y7148689D01*
X1854307D01*
Y7151366D01*
X1889122D01*
Y7156723D01*
X1891800D01*
Y7159401D01*
X1894478D01*
Y7172791D01*
X1891800D01*
Y7175469D01*
X1889122D01*
Y7180825D01*
X1883765D01*
Y7183503D01*
X1848951D01*
Y7180825D01*
X1840916D01*
Y7178147D01*
X1832882D01*
Y7196894D01*
X1835560D01*
Y7199572D01*
X1846272D01*
Y7202250D01*
X1889122D01*
Y7199572D01*
D02*
G37*
G36*
X1680232D02*
X1685588D01*
Y7196894D01*
X1688266D01*
Y7194216D01*
X1693622D01*
Y7191538D01*
X1696300D01*
Y7188860D01*
X1698978D01*
Y7183503D01*
X1701656D01*
Y7178147D01*
X1704334D01*
Y7156723D01*
X1701656D01*
Y7146010D01*
X1698978D01*
Y7143332D01*
X1696300D01*
Y7137976D01*
X1690944D01*
Y7135298D01*
X1688266D01*
Y7132620D01*
X1682910D01*
Y7129942D01*
X1648095D01*
Y7127264D01*
X1642739D01*
Y7124586D01*
X1640060D01*
Y7119230D01*
X1637382D01*
Y7108517D01*
X1640060D01*
Y7103161D01*
X1642739D01*
Y7100483D01*
X1645417D01*
Y7097805D01*
X1688266D01*
Y7100483D01*
X1693622D01*
Y7103161D01*
X1698978D01*
Y7084415D01*
X1696300D01*
Y7081736D01*
X1690944D01*
Y7079058D01*
X1640060D01*
Y7081736D01*
X1634704D01*
Y7084415D01*
X1632026D01*
Y7087093D01*
X1626670D01*
Y7092449D01*
X1621314D01*
Y7100483D01*
X1618636D01*
Y7127264D01*
X1621314D01*
Y7135298D01*
X1623992D01*
Y7137976D01*
X1626670D01*
Y7143332D01*
X1632026D01*
Y7146010D01*
X1634704D01*
Y7148689D01*
X1645417D01*
Y7151366D01*
X1677553D01*
Y7154045D01*
X1680232D01*
Y7156723D01*
X1682910D01*
Y7159401D01*
X1685588D01*
Y7172791D01*
X1682910D01*
Y7178147D01*
X1677553D01*
Y7180825D01*
X1674875D01*
Y7183503D01*
X1640060D01*
Y7180825D01*
X1632026D01*
Y7178147D01*
X1621314D01*
Y7194216D01*
X1623992D01*
Y7196894D01*
X1626670D01*
Y7199572D01*
X1637382D01*
Y7202250D01*
X1680232D01*
Y7199572D01*
D02*
G37*
G36*
X1589177Y7220996D02*
X1594533D01*
Y7164757D01*
Y7162079D01*
Y7097805D01*
X1591855D01*
Y7092449D01*
X1589177D01*
Y7087093D01*
X1586499D01*
Y7084415D01*
X1583821D01*
Y7081736D01*
X1581143D01*
Y7079058D01*
X1549006D01*
Y7095127D01*
X1551684D01*
Y7097805D01*
X1567752D01*
Y7100483D01*
X1570430D01*
Y7103161D01*
X1573109D01*
Y7105839D01*
X1575787D01*
Y7180825D01*
X1573109D01*
Y7183503D01*
X1551684D01*
Y7186181D01*
X1549006D01*
Y7199572D01*
X1551684D01*
Y7202250D01*
X1575787D01*
Y7204928D01*
X1578465D01*
Y7212962D01*
X1581143D01*
Y7220996D01*
X1583821D01*
Y7223674D01*
X1589177D01*
Y7220996D01*
D02*
G37*
G36*
X1214246Y7199572D02*
X1219602D01*
Y7196894D01*
X1224958D01*
Y7194216D01*
X1227637D01*
Y7191538D01*
X1230315D01*
Y7188860D01*
X1232993D01*
Y7186181D01*
X1235671D01*
Y7180825D01*
X1238349D01*
Y7172791D01*
X1241027D01*
Y7159401D01*
X1238349D01*
Y7151366D01*
X1235671D01*
Y7143332D01*
X1232993D01*
Y7140654D01*
X1230315D01*
Y7137976D01*
X1227637D01*
Y7135298D01*
X1224958D01*
Y7132620D01*
X1219602D01*
Y7129942D01*
X1182109D01*
Y7127264D01*
X1179431D01*
Y7124586D01*
X1176753D01*
Y7121908D01*
X1174075D01*
Y7105839D01*
X1176753D01*
Y7100483D01*
X1182109D01*
Y7097805D01*
X1222281D01*
Y7100483D01*
X1227637D01*
Y7103161D01*
X1232993D01*
Y7100483D01*
X1235671D01*
Y7084415D01*
X1232993D01*
Y7081736D01*
X1224958D01*
Y7079058D01*
X1174075D01*
Y7081736D01*
X1171397D01*
Y7084415D01*
X1166041D01*
Y7087093D01*
X1163363D01*
Y7089771D01*
X1160685D01*
Y7092449D01*
X1158007D01*
Y7097805D01*
X1155329D01*
Y7103161D01*
X1152650D01*
Y7124586D01*
X1155329D01*
Y7129942D01*
X1158007D01*
Y7137976D01*
X1160685D01*
Y7140654D01*
X1163363D01*
Y7143332D01*
X1166041D01*
Y7146010D01*
X1171397D01*
Y7148689D01*
X1182109D01*
Y7151366D01*
X1214246D01*
Y7154045D01*
X1216924D01*
Y7156723D01*
X1219602D01*
Y7162079D01*
X1222281D01*
Y7170113D01*
X1219602D01*
Y7175469D01*
X1216924D01*
Y7178147D01*
X1214246D01*
Y7180825D01*
X1208890D01*
Y7183503D01*
X1174075D01*
Y7180825D01*
X1166041D01*
Y7178147D01*
X1158007D01*
Y7196894D01*
X1163363D01*
Y7199572D01*
X1171397D01*
Y7202250D01*
X1214246D01*
Y7199572D01*
D02*
G37*
G36*
X975897Y7440599D02*
X978575D01*
Y7435243D01*
X975897D01*
Y7416496D01*
X973219D01*
Y7413818D01*
X970541D01*
Y7411140D01*
X967863D01*
Y7408462D01*
X965185D01*
Y7405784D01*
X962507D01*
Y7403106D01*
X959829D01*
Y7397749D01*
X957151D01*
Y7395071D01*
X954473D01*
Y7392393D01*
X951795D01*
Y7389715D01*
X949116D01*
Y7387037D01*
X946439D01*
Y7381681D01*
X943760D01*
Y7379003D01*
X941082D01*
Y7376325D01*
X938404D01*
Y7370969D01*
X935726D01*
Y7368291D01*
X933048D01*
Y7362935D01*
X930370D01*
Y7360257D01*
X927692D01*
Y7357578D01*
X925014D01*
Y7352222D01*
X922336D01*
Y7349544D01*
X919658D01*
Y7344188D01*
X916980D01*
Y7341510D01*
X914302D01*
Y7336154D01*
X911624D01*
Y7333476D01*
X908945D01*
Y7328119D01*
X906267D01*
Y7322763D01*
X903589D01*
Y7320085D01*
X900911D01*
Y7314729D01*
X898233D01*
Y7312051D01*
X895555D01*
Y7306695D01*
X892877D01*
Y7301339D01*
X890199D01*
Y7298661D01*
X887521D01*
Y7290627D01*
X884843D01*
Y7287948D01*
X882165D01*
Y7282592D01*
X879487D01*
Y7277236D01*
X876809D01*
Y7271880D01*
X874130D01*
Y7266524D01*
X871452D01*
Y7263846D01*
X868774D01*
Y7255811D01*
X866096D01*
Y7253133D01*
X863418D01*
Y7245099D01*
X860740D01*
Y7239743D01*
X858062D01*
Y7237065D01*
X855384D01*
Y7229031D01*
X852706D01*
Y7223674D01*
X850028D01*
Y7215640D01*
X847350D01*
Y7210284D01*
X844672D01*
Y7204928D01*
X841993D01*
Y7196894D01*
X839316D01*
Y7191538D01*
X836637D01*
Y7180825D01*
X833959D01*
Y7178147D01*
X831281D01*
Y7170113D01*
X828603D01*
Y7162079D01*
X825925D01*
Y7154045D01*
X823247D01*
Y7146010D01*
X820569D01*
Y7140654D01*
X817891D01*
Y7127264D01*
X815213D01*
Y7121908D01*
X812535D01*
Y7113874D01*
X809857D01*
Y7103161D01*
X807178D01*
Y7097805D01*
X804500D01*
Y7081736D01*
X801822D01*
Y7076380D01*
X799144D01*
Y7060312D01*
X796466D01*
Y7054956D01*
X793788D01*
Y7049600D01*
X791110D01*
Y7028175D01*
X785754D01*
Y7052277D01*
X788432D01*
Y7057634D01*
X791110D01*
Y7076380D01*
X793788D01*
Y7084415D01*
X796466D01*
Y7095127D01*
X799144D01*
Y7108517D01*
X801822D01*
Y7116551D01*
X804500D01*
Y7129942D01*
X807178D01*
Y7137976D01*
X809857D01*
Y7146010D01*
X812535D01*
Y7156723D01*
X815213D01*
Y7162079D01*
X817891D01*
Y7172791D01*
X820569D01*
Y7180825D01*
X823247D01*
Y7188860D01*
X825925D01*
Y7196894D01*
X828603D01*
Y7202250D01*
X831281D01*
Y7210284D01*
X833959D01*
Y7215640D01*
X836637D01*
Y7226353D01*
X839316D01*
Y7231709D01*
X841993D01*
Y7237065D01*
X844672D01*
Y7245099D01*
X847350D01*
Y7247777D01*
X850028D01*
Y7255811D01*
X852706D01*
Y7261168D01*
X855384D01*
Y7266524D01*
X858062D01*
Y7271880D01*
X860740D01*
Y7277236D01*
X863418D01*
Y7285270D01*
X866096D01*
Y7287948D01*
X868774D01*
Y7295983D01*
X871452D01*
Y7298661D01*
X874130D01*
Y7304017D01*
X876809D01*
Y7309373D01*
X879487D01*
Y7314729D01*
X882165D01*
Y7320085D01*
X884843D01*
Y7322763D01*
X887521D01*
Y7328119D01*
X890199D01*
Y7333476D01*
X892877D01*
Y7336154D01*
X895555D01*
Y7341510D01*
X898233D01*
Y7344188D01*
X900911D01*
Y7352222D01*
X903589D01*
Y7354900D01*
X906267D01*
Y7357578D01*
X908945D01*
Y7362935D01*
X911624D01*
Y7365613D01*
X914302D01*
Y7370969D01*
X916980D01*
Y7373647D01*
X919658D01*
Y7379003D01*
X922336D01*
Y7381681D01*
X925014D01*
Y7384359D01*
X927692D01*
Y7389715D01*
X930370D01*
Y7392393D01*
X933048D01*
Y7397749D01*
X935726D01*
Y7400428D01*
X938404D01*
Y7403106D01*
X941082D01*
Y7405784D01*
X943760D01*
Y7408462D01*
X946439D01*
Y7413818D01*
X949116D01*
Y7416496D01*
X951795D01*
Y7419174D01*
X954473D01*
Y7421852D01*
X957151D01*
Y7427208D01*
X959829D01*
Y7429886D01*
X962507D01*
Y7432565D01*
X965185D01*
Y7435243D01*
X967863D01*
Y7437921D01*
X970541D01*
Y7440599D01*
X973219D01*
Y7443277D01*
X975897D01*
Y7440599D01*
D02*
G37*
G36*
X1034815Y7761968D02*
X1037493D01*
Y7759290D01*
X1040171D01*
Y7748578D01*
X1042849D01*
Y7732509D01*
X1045528D01*
Y7727153D01*
X1048205D01*
Y7703050D01*
X1050884D01*
Y7692338D01*
X1053562D01*
Y7668235D01*
X1056240D01*
Y7644133D01*
X1058918D01*
Y7628064D01*
X1061596D01*
Y7582537D01*
X1064274D01*
Y7561112D01*
X1066952D01*
Y7496838D01*
X1069630D01*
Y7445955D01*
X1072308D01*
Y7365613D01*
Y7362935D01*
Y7325441D01*
X1074986D01*
Y7218319D01*
X1072308D01*
Y7071024D01*
X1074986D01*
Y7062990D01*
X1077664D01*
Y7057634D01*
X1080343D01*
Y7049600D01*
X1083020D01*
Y7044243D01*
X1085699D01*
Y7036209D01*
X1088377D01*
Y7030853D01*
X1091055D01*
Y7025497D01*
X1093733D01*
Y7017463D01*
X1096411D01*
Y7012106D01*
X1099089D01*
Y7004072D01*
X1101767D01*
Y6998716D01*
X1104445D01*
Y6996038D01*
X1107123D01*
Y6977292D01*
X1109801D01*
Y6963901D01*
X1112479D01*
Y6934442D01*
X1107123D01*
Y6937120D01*
X1104445D01*
Y6939798D01*
X1101767D01*
Y6942476D01*
X1099089D01*
Y6945155D01*
X1096411D01*
Y6947833D01*
X1093733D01*
Y6950511D01*
X1091055D01*
Y6953189D01*
X1088377D01*
Y6955867D01*
X1085699D01*
Y6958545D01*
X1080343D01*
Y6961223D01*
X1077664D01*
Y6963901D01*
X1074986D01*
Y6966579D01*
X1072308D01*
Y6969257D01*
X1066952D01*
Y6945155D01*
X1010712D01*
Y6947833D01*
X1008034D01*
Y6969257D01*
X1002678D01*
Y6966579D01*
X1000000D01*
Y6963901D01*
X997322D01*
Y6961223D01*
X994644D01*
Y6958545D01*
X989288D01*
Y6955867D01*
X986610D01*
Y6953189D01*
X983932D01*
Y6950511D01*
X978575D01*
Y6947833D01*
X975897D01*
Y6945155D01*
X973219D01*
Y6942476D01*
X970541D01*
Y6939798D01*
X967863D01*
Y6937120D01*
X965185D01*
Y6934442D01*
X959829D01*
Y6947833D01*
X962507D01*
Y6961223D01*
X965185D01*
Y6988004D01*
X967863D01*
Y6993360D01*
X970541D01*
Y7001394D01*
X973219D01*
Y7006750D01*
X975897D01*
Y7012106D01*
X978575D01*
Y7022819D01*
X981254D01*
Y7025497D01*
X983932D01*
Y7033531D01*
X986610D01*
Y7038887D01*
X989288D01*
Y7044243D01*
X991966D01*
Y7052277D01*
X994644D01*
Y7057634D01*
X997322D01*
Y7065668D01*
X1000000D01*
Y7071024D01*
X1002678D01*
Y7159401D01*
X1000000D01*
Y7440599D01*
X1002678D01*
Y7512907D01*
X1005356D01*
Y7569146D01*
X1008034D01*
Y7595927D01*
X1010712D01*
Y7638776D01*
X1013390D01*
Y7657523D01*
X1016069D01*
Y7681626D01*
X1018747D01*
Y7700372D01*
X1021425D01*
Y7713763D01*
X1024103D01*
Y7735187D01*
X1026781D01*
Y7740543D01*
X1029459D01*
Y7761968D01*
X1032137D01*
Y7764646D01*
X1034815D01*
Y7761968D01*
D02*
G37*
%LPC*%
G36*
X1447239Y7352222D02*
X1412424D01*
Y7349544D01*
X1409746D01*
Y7346866D01*
X1407068D01*
Y7325441D01*
X1409746D01*
Y7322763D01*
X1415102D01*
Y7320085D01*
X1420458D01*
Y7317407D01*
X1452595D01*
Y7322763D01*
X1455273D01*
Y7328119D01*
X1457951D01*
Y7341510D01*
X1455273D01*
Y7346866D01*
X1452595D01*
Y7349544D01*
X1447239D01*
Y7352222D01*
D02*
G37*
G36*
X1889122Y7389715D02*
X1883765D01*
Y7379003D01*
X1881087D01*
Y7373647D01*
X1878410D01*
Y7370969D01*
X1886444D01*
Y7368291D01*
X1897156D01*
Y7376325D01*
X1894478D01*
Y7381681D01*
X1891800D01*
Y7387037D01*
X1889122D01*
Y7389715D01*
D02*
G37*
G36*
X1224958Y7400428D02*
X1203534D01*
Y7397749D01*
X1198178D01*
Y7395071D01*
X1195500D01*
Y7392393D01*
X1192822D01*
Y7389715D01*
X1190143D01*
Y7387037D01*
Y7381681D01*
X1187465D01*
Y7370969D01*
X1190143D01*
Y7368291D01*
X1238349D01*
Y7370969D01*
X1241027D01*
Y7384359D01*
X1238349D01*
Y7387037D01*
X1235671D01*
Y7392393D01*
X1232993D01*
Y7395071D01*
X1227637D01*
Y7397749D01*
X1224958D01*
Y7400428D01*
D02*
G37*
G36*
X1562396D02*
X1538294D01*
Y7397749D01*
X1532937D01*
Y7395071D01*
X1527581D01*
Y7392393D01*
X1524903D01*
Y7389715D01*
X1522225D01*
Y7387037D01*
X1519547D01*
Y7381681D01*
X1516869D01*
Y7360257D01*
Y7357578D01*
Y7336154D01*
X1519547D01*
Y7330798D01*
X1522225D01*
Y7325441D01*
X1524903D01*
Y7322763D01*
X1530259D01*
Y7320085D01*
X1532937D01*
Y7317407D01*
X1562396D01*
Y7320085D01*
X1567752D01*
Y7325441D01*
X1570430D01*
Y7395071D01*
X1567752D01*
Y7397749D01*
X1562396D01*
Y7400428D01*
D02*
G37*
G36*
X1495444Y7183503D02*
X1471341D01*
Y7180825D01*
X1465985D01*
Y7175469D01*
X1460629D01*
Y7167435D01*
X1457951D01*
Y7154045D01*
X1460629D01*
Y7151366D01*
X1471341D01*
Y7154045D01*
X1474020D01*
Y7151366D01*
X1498122D01*
Y7154045D01*
X1500800D01*
Y7151366D01*
X1508835D01*
Y7154045D01*
X1511513D01*
Y7164757D01*
X1508835D01*
Y7170113D01*
X1506156D01*
Y7175469D01*
X1503479D01*
Y7178147D01*
X1500800D01*
Y7180825D01*
X1495444D01*
Y7183503D01*
D02*
G37*
%LPD*%
D35*
X2930000Y5170000D02*
G03*
X2930000Y5170000I-5000J0D01*
G01*
D36*
X3055590Y3815000D02*
G03*
X3055590Y3815000I-5590J0D01*
G01*
X2625590Y4415000D02*
G03*
X2625590Y4415000I-5590J0D01*
G01*
X5249600Y7356183D02*
Y7457751D01*
X5198817Y7508534D01*
X5148033Y7457751D01*
Y7356183D01*
Y7432359D01*
X5249600D01*
X4995682Y7483142D02*
X5021074Y7508534D01*
X5071858D01*
X5097249Y7483142D01*
Y7381575D01*
X5071858Y7356183D01*
X5021074D01*
X4995682Y7381575D01*
Y7432359D01*
X5046466D01*
X4944899Y7508534D02*
Y7356183D01*
Y7432359D01*
X4843331D01*
Y7508534D01*
Y7356183D01*
X4538630Y7483142D02*
X4564022Y7508534D01*
X4614805D01*
X4640197Y7483142D01*
Y7457751D01*
X4614805Y7432359D01*
X4564022D01*
X4538630Y7406967D01*
Y7381575D01*
X4564022Y7356183D01*
X4614805D01*
X4640197Y7381575D01*
X4487846Y7305400D02*
Y7457751D01*
X4411671D01*
X4386279Y7432359D01*
Y7381575D01*
X4411671Y7356183D01*
X4487846D01*
X4310104Y7457751D02*
X4259320D01*
X4233929Y7432359D01*
Y7356183D01*
X4310104D01*
X4335496Y7381575D01*
X4310104Y7406967D01*
X4233929D01*
X4081578Y7457751D02*
X4157753D01*
X4183145Y7432359D01*
Y7381575D01*
X4157753Y7356183D01*
X4081578D01*
X3954619D02*
X4005402D01*
X4030794Y7381575D01*
Y7432359D01*
X4005402Y7457751D01*
X3954619D01*
X3929227Y7432359D01*
Y7406967D01*
X4030794D01*
X3624526Y7483142D02*
X3649918Y7508534D01*
X3700701D01*
X3726093Y7483142D01*
Y7457751D01*
X3700701Y7432359D01*
X3649918D01*
X3624526Y7406967D01*
Y7381575D01*
X3649918Y7356183D01*
X3700701D01*
X3726093Y7381575D01*
X3573742Y7457751D02*
Y7381575D01*
X3548350Y7356183D01*
X3472175D01*
Y7330792D01*
X3497567Y7305400D01*
X3522959D01*
X3472175Y7356183D02*
Y7457751D01*
X3421391Y7356183D02*
X3345216D01*
X3319824Y7381575D01*
X3345216Y7406967D01*
X3396000D01*
X3421391Y7432359D01*
X3396000Y7457751D01*
X3319824D01*
X3243649Y7483142D02*
Y7457751D01*
X3269041D01*
X3218257D01*
X3243649D01*
Y7381575D01*
X3218257Y7356183D01*
X3065906D02*
X3116690D01*
X3142082Y7381575D01*
Y7432359D01*
X3116690Y7457751D01*
X3065906D01*
X3040515Y7432359D01*
Y7406967D01*
X3142082D01*
X2989731Y7356183D02*
Y7457751D01*
X2964339D01*
X2938948Y7432359D01*
Y7356183D01*
Y7432359D01*
X2913556Y7457751D01*
X2888164Y7432359D01*
Y7356183D01*
X2837380D02*
X2761205D01*
X2735813Y7381575D01*
X2761205Y7406967D01*
X2811989D01*
X2837380Y7432359D01*
X2811989Y7457751D01*
X2735813D01*
X4623033Y7152751D02*
X4724600D01*
Y7000400D01*
X4623033D01*
X4724600Y7076575D02*
X4673817D01*
X4572249Y7000400D02*
Y7152751D01*
X4496074D01*
X4470682Y7127359D01*
Y7076575D01*
X4496074Y7051184D01*
X4572249D01*
X4318331Y7127359D02*
X4343723Y7152751D01*
X4394507D01*
X4419899Y7127359D01*
Y7101967D01*
X4394507Y7076575D01*
X4343723D01*
X4318331Y7051184D01*
Y7025792D01*
X4343723Y7000400D01*
X4394507D01*
X4419899Y7025792D01*
X4013630D02*
Y7127359D01*
X4039022Y7152751D01*
X4089805D01*
X4115197Y7127359D01*
Y7025792D01*
X4089805Y7000400D01*
X4039022D01*
X4064414Y7051184D02*
X4013630Y7000400D01*
X4039022D02*
X4013630Y7025792D01*
X3861279Y7000400D02*
X3962847D01*
X3861279Y7101967D01*
Y7127359D01*
X3886671Y7152751D01*
X3937455D01*
X3962847Y7127359D01*
X3556578Y7000400D02*
X3658145D01*
X3556578Y7101967D01*
Y7127359D01*
X3581970Y7152751D01*
X3632753D01*
X3658145Y7127359D01*
X3505794D02*
X3480402Y7152751D01*
X3429619D01*
X3404227Y7127359D01*
Y7025792D01*
X3429619Y7000400D01*
X3480402D01*
X3505794Y7025792D01*
Y7127359D01*
X3251876Y7000400D02*
X3353444D01*
X3251876Y7101967D01*
Y7127359D01*
X3277268Y7152751D01*
X3328052D01*
X3353444Y7127359D01*
X3201093D02*
X3175701Y7152751D01*
X3124918D01*
X3099526Y7127359D01*
Y7101967D01*
X3124918Y7076575D01*
X3150309D01*
X3124918D01*
X3099526Y7051184D01*
Y7025792D01*
X3124918Y7000400D01*
X3175701D01*
X3201093Y7025792D01*
D37*
X3584878Y3735000D02*
X3835100D01*
X3584878Y3604952D02*
Y3735000D01*
X3835100Y3604952D02*
Y3735000D01*
X3584878Y3604952D02*
X3835100D01*
X3584900Y3755000D02*
X3835122D01*
Y3885048D01*
X3584900Y3755000D02*
Y3885048D01*
X3835122D01*
X3365000Y4895000D02*
Y5145000D01*
X3235000Y4895000D02*
Y5145000D01*
Y4895000D02*
X3365000D01*
X3235000Y5145000D02*
X3365000D01*
X3200000Y4880000D02*
Y5160000D01*
X3020000Y4880000D02*
Y5160000D01*
Y4880000D02*
X3200000D01*
X3020000Y5160000D02*
X3200000D01*
X2455000Y4895000D02*
Y5145000D01*
X2325000Y4895000D02*
Y5145000D01*
Y4895000D02*
X2455000D01*
X2325000Y5145000D02*
X2455000D01*
X2605000Y4895000D02*
Y5145000D01*
X2475000Y4895000D02*
Y5145000D01*
Y4895000D02*
X2605000D01*
X2475000Y5145000D02*
X2605000D01*
X2677500Y4795000D02*
X2927500D01*
X2677500Y4665000D02*
X2927500D01*
Y4795000D01*
X2677500Y4665000D02*
Y4795000D01*
X3104900Y3075000D02*
X3355122D01*
Y3205048D01*
X3104900Y3075000D02*
Y3205048D01*
X3355122D01*
X3105000Y2935000D02*
X3355000D01*
X3105000Y3065000D02*
X3355000D01*
X3105000Y2935000D02*
Y3065000D01*
X3355000Y2935000D02*
Y3065000D01*
X3104877Y3345000D02*
X3355100D01*
X3104877Y3214952D02*
Y3345000D01*
X3355100Y3214952D02*
Y3345000D01*
X3104877Y3214952D02*
X3355100D01*
X3105000Y4165000D02*
X3355000D01*
X3105000Y4035000D02*
X3355000D01*
Y4165000D01*
X3105000Y4035000D02*
Y4165000D01*
X2765000Y3485000D02*
X3015000D01*
X2765000Y3615000D02*
X3015000D01*
X2765000Y3485000D02*
Y3615000D01*
X3015000Y3485000D02*
Y3615000D01*
X2394878Y3895000D02*
X2645100D01*
X2394878Y3764952D02*
Y3895000D01*
X2645100Y3764952D02*
Y3895000D01*
X2394878Y3764952D02*
X2645100D01*
X2394878Y3625000D02*
X2645100D01*
X2394878Y3494952D02*
Y3625000D01*
X2645100Y3494952D02*
Y3625000D01*
X2394878Y3494952D02*
X2645100D01*
X2765000Y3915000D02*
X3015000D01*
X2765000Y3785000D02*
X3015000D01*
Y3915000D01*
X2765000Y3785000D02*
Y3915000D01*
X1936000Y4002500D02*
Y4402500D01*
X2311000D01*
X1936000Y4002500D02*
X2311000D01*
Y4402500D01*
X2022500Y3905000D02*
X2237500D01*
X2022500Y3495000D02*
X2237500D01*
X2022500D02*
Y3905000D01*
X2237500Y3495000D02*
Y3905000D01*
X2455000Y4034878D02*
Y4285100D01*
Y4034878D02*
X2585048D01*
X2455000Y4285100D02*
X2585048D01*
Y4034878D02*
Y4285100D01*
X2765000Y3635000D02*
X3015000D01*
X2765000Y3765000D02*
X3015000D01*
X2765000Y3635000D02*
Y3765000D01*
X3015000Y3635000D02*
Y3765000D01*
X3104877Y4325000D02*
X3355100D01*
X3104877Y4194952D02*
Y4325000D01*
X3355100Y4194952D02*
Y4325000D01*
X3104877Y4194952D02*
X3355100D01*
X3080000Y3585000D02*
Y3835000D01*
X3380000D01*
Y3585000D02*
Y3835000D01*
X3080000Y3585000D02*
X3380000D01*
X2650000Y4185000D02*
Y4435000D01*
X2950000D01*
Y4185000D02*
Y4435000D01*
X2650000Y4185000D02*
X2950000D01*
D38*
X2950000Y4895000D02*
Y5145000D01*
X2650000Y4895000D02*
X2950000D01*
X2650000D02*
Y5145000D01*
X2950000D01*
%TF.MD5,434a854c4ced360eb50ae40f3290c17d*%
M02*
