%TF.GenerationSoftware,Altium Limited,Altium Designer,21.6.1 (37)*%
G04 Layer_Color=0*
%FSLAX45Y45*%
%MOMM*%
%TF.SameCoordinates,713E3131-B0EE-4415-9D9D-843BC13DAD56*%
%TF.FilePolarity,Positive*%
%TF.FileFunction,Plated,1,4,PTH,Drill*%
%TF.Part,Single*%
G01*
G75*
%TA.AperFunction,ComponentDrill*%
%ADD64C,1.32000*%
%ADD65C,1.80000*%
%TA.AperFunction,ViaDrill,NotFilled*%
%ADD66C,0.30000*%
%ADD67C,0.20000*%
D64*
X7611000Y6180000D02*
D03*
X389000Y6180000D02*
D03*
X7611000Y4040000D02*
D03*
X389000Y4040000D02*
D03*
X7611000Y1900000D02*
D03*
X389000Y1900000D02*
D03*
D65*
X2850000Y400000D02*
D03*
X2350000D02*
D03*
X1600000D02*
D03*
X1100000D02*
D03*
D66*
X2610000Y3700000D02*
D03*
X2700000D02*
D03*
X3770000Y4000000D02*
D03*
X3650000D02*
D03*
X3770000Y3930000D02*
D03*
X3440000Y4000000D02*
D03*
Y4100000D02*
D03*
X3650000Y3930000D02*
D03*
X3440000Y3840000D02*
D03*
X2970000Y3320000D02*
D03*
Y3230000D02*
D03*
X3070000Y4420000D02*
D03*
X3160000D02*
D03*
X3530000Y5170000D02*
D03*
Y5080000D02*
D03*
X3450000D02*
D03*
Y5170000D02*
D03*
X2250000Y4870000D02*
D03*
Y4950000D02*
D03*
D67*
X2800000Y5075000D02*
D03*
Y4965000D02*
D03*
X2800000Y4365000D02*
D03*
Y4255000D02*
D03*
%TF.MD5,4408596e32dec45494480431d7591496*%
M02*
