%TF.GenerationSoftware,Altium Limited,Altium Designer,21.6.1 (37)*%
G04 Layer_Color=128*
%FSLAX45Y45*%
%MOMM*%
%TF.SameCoordinates,713E3131-B0EE-4415-9D9D-843BC13DAD56*%
%TF.FilePolarity,Positive*%
%TF.FileFunction,Drillmap*%
%TF.Part,Single*%
G01*
G75*
%TA.AperFunction,NonConductor*%
%ADD69C,0.12700*%
D69*
X7545000Y6180000D02*
X7677000D01*
X7611000Y6114000D02*
Y6246000D01*
X269500Y6967000D02*
X508500D01*
X389000Y6847500D02*
Y7086500D01*
X1049500Y5393000D02*
X1404500D01*
X1227000Y5215500D02*
Y5570500D01*
X6569500Y6967000D02*
X6924500D01*
X6747000Y6789500D02*
Y7144500D01*
X323000Y6180000D02*
X455000D01*
X389000Y6114000D02*
Y6246000D01*
X7545000Y4040000D02*
X7677000D01*
X7611000Y3974000D02*
Y4106000D01*
X269500Y4826999D02*
X508500D01*
X389000Y4707500D02*
Y4946499D01*
X1049500Y3253000D02*
X1404500D01*
X1227000Y3075500D02*
Y3430500D01*
X6569500Y4826999D02*
X6924500D01*
X6747000Y4649499D02*
Y5004500D01*
X323000Y4040000D02*
X455000D01*
X389000Y3974000D02*
Y4105999D01*
X7545000Y1900000D02*
X7677000D01*
X7611000Y1834000D02*
Y1966000D01*
X269500Y2687000D02*
X508500D01*
X389000Y2567500D02*
Y2806500D01*
X1049500Y1113000D02*
X1404500D01*
X1227000Y935500D02*
Y1290500D01*
X6569500Y2687000D02*
X6924500D01*
X6747000Y2509500D02*
Y2864500D01*
X323000Y1900000D02*
X455000D01*
X389000Y1834000D02*
Y1966000D01*
X2760000Y400000D02*
X2940000D01*
X2850000Y310000D02*
Y490000D01*
X2260000Y400000D02*
X2440000D01*
X2350000Y310000D02*
Y490000D01*
X1510000Y400000D02*
X1690000D01*
X1600000Y310000D02*
Y490000D01*
X1010000Y400000D02*
X1190000D01*
X1100000Y310000D02*
Y490000D01*
X2595000Y3700000D02*
X2625000D01*
X2610000Y3685000D02*
Y3715000D01*
X2685000Y3700000D02*
X2715000D01*
X2700000Y3685000D02*
Y3715000D01*
X3755000Y4000000D02*
X3785000D01*
X3770000Y3985000D02*
Y4015000D01*
X3635000Y4000000D02*
X3665000D01*
X3650000Y3985000D02*
Y4015000D01*
X3755000Y3930000D02*
X3785000D01*
X3770000Y3915000D02*
Y3945000D01*
X3425000Y4000000D02*
X3455000D01*
X3440000Y3985000D02*
Y4015000D01*
X3425000Y4100000D02*
X3455000D01*
X3440000Y4085000D02*
Y4115000D01*
X3635000Y3930000D02*
X3665000D01*
X3650000Y3915000D02*
Y3945000D01*
X3425000Y3840000D02*
X3455000D01*
X3440000Y3825000D02*
Y3855000D01*
X2955000Y3320000D02*
X2985000D01*
X2970000Y3305000D02*
Y3335000D01*
X2955000Y3230000D02*
X2985000D01*
X2970000Y3215000D02*
Y3245000D01*
X3055000Y4420000D02*
X3085000D01*
X3070000Y4405000D02*
Y4435000D01*
X3145000Y4420000D02*
X3175000D01*
X3160000Y4405000D02*
Y4435000D01*
X3515000Y5170000D02*
X3545000D01*
X3530000Y5155000D02*
Y5185000D01*
X3515000Y5080000D02*
X3545000D01*
X3530000Y5065000D02*
Y5095000D01*
X3435000Y5080000D02*
X3465000D01*
X3450000Y5065000D02*
Y5095000D01*
X3435000Y5170000D02*
X3465000D01*
X3450000Y5155000D02*
Y5185000D01*
X2235000Y4870000D02*
X2265000D01*
X2250000Y4855000D02*
Y4885000D01*
X2235000Y4950000D02*
X2265000D01*
X2250000Y4935000D02*
Y4965000D01*
X2790000Y5075000D02*
X2810000D01*
X2800000Y5065000D02*
Y5085000D01*
X2790000Y4965000D02*
X2810000D01*
X2800000Y4955000D02*
Y4975000D01*
X2790000Y4365000D02*
X2810000D01*
X2800000Y4355000D02*
Y4375000D01*
X2790000Y4255000D02*
X2810000D01*
X2800000Y4245000D02*
Y4265000D01*
%TF.MD5,acba06d9fba9c673ce120c06c4214ff3*%
M02*
