M48
; DRILL file {KiCad 7.0.1} date Tue May  2 11:52:04 2023
; FORMAT={-:-/ absolute / inch / decimal}
; #@! TF.CreationDate,2023-05-02T11:52:04+02:00
; #@! TF.GenerationSoftware,Kicad,Pcbnew,7.0.1
; #@! TF.FileFunction,Plated,1,4,PTH
FMAT,2
INCH
; #@! TA.AperFunction,Plated,PTH,ViaDrill
T1C0.0118
; #@! TA.AperFunction,Plated,PTH,ViaDrill
T2C0.0157
; #@! TA.AperFunction,Plated,PTH,ComponentDrill
T3C0.0236
; #@! TA.AperFunction,Plated,PTH,ComponentDrill
T4C0.0256
; #@! TA.AperFunction,Plated,PTH,ComponentDrill
T5C0.0394
; #@! TA.AperFunction,Plated,PTH,ComponentDrill
T6C0.0453
; #@! TA.AperFunction,Plated,PTH,ComponentDrill
T7C0.0650
; #@! TA.AperFunction,Plated,PTH,ComponentDrill
T8C0.1063
; #@! TA.AperFunction,Plated,PTH,ComponentDrill
T9C0.1661
%
G90
G05
T1
X4.378Y-3.4803
X4.3858Y-3.0756
X4.3858Y-3.1299
X4.3957Y-3.2874
X4.4409Y-3.0472
X4.5276Y-3.185
X4.5748Y-3.2776
X4.5965Y-2.4055
X4.5965Y-2.4843
X4.6063Y-3.2776
X4.6102Y-3.5886
X4.6201Y-3.4921
X4.6299Y-2.9567
X4.748Y-3.7795
X4.748Y-3.8157
X4.7598Y-2.563
X4.7913Y-2.6417
X4.7921Y-3.5555
X4.7953Y-3.9409
X4.7988Y-3.602
X4.8228Y-3.4685
X4.8307Y-1.8543
X4.8307Y-2.0512
X4.8445Y-1.5
X4.8465Y-1.8937
X4.8583Y-3.5079
X4.8661Y-1.8543
X4.8661Y-2.0512
X4.8976Y-2.9961
X4.8976Y-3.1142
X4.8976Y-3.2323
X4.8976Y-3.3504
X4.9094Y-2.0118
X4.9213Y-1.6181
X4.9213Y-1.7362
X4.937Y-1.5354
X4.937Y-2.7559
X4.937Y-2.7953
X4.9488Y-1.4567
X4.9508Y-1.4193
X4.9685Y-1.3425
X4.9843Y-2.7559
X4.9843Y-2.7953
X4.9882Y-1.4173
X4.9882Y-1.4567
X5.0Y-3.7795
X5.0Y-3.8157
X5.0079Y-1.9724
X5.0266Y-1.5354
X5.0272Y-1.5681
X5.0315Y-2.7559
X5.0315Y-2.7953
X5.0394Y-1.4173
X5.0787Y-1.4173
X5.0787Y-2.7559
X5.0787Y-2.7953
X5.1181Y-1.4173
X5.1181Y-1.4567
X5.128Y-2.7559
X5.128Y-2.7953
X5.1417Y-1.3524
X5.1476Y-3.3917
X5.1575Y-1.4173
X5.1575Y-1.4567
X5.1791Y-3.4173
X5.189Y-1.3524
X5.2008Y-2.7746
X5.2126Y-1.4173
X5.2205Y-2.689
X5.2323Y-1.5394
X5.2323Y-2.7746
X5.252Y-1.2559
X5.2598Y-1.4724
X5.2677Y-2.813
X5.2697Y-2.7441
X5.2736Y-3.7953
X5.284Y-1.5354
X5.298Y-1.6083
X5.313Y-1.5719
X5.313Y-3.7953
X5.315Y-1.5354
X5.315Y-2.813
X5.315Y-3.3937
X5.3228Y-1.4724
X5.3314Y-3.0111
X5.3323Y-3.6232
X5.3327Y-3.5906
X5.3346Y-1.6575
X5.3465Y-1.5354
X5.3537Y-2.9889
X5.3622Y-1.4409
X5.3622Y-2.813
X5.378Y-1.5354
X5.378Y-1.6575
X5.3937Y-1.4685
X5.4023Y-2.9718
X5.4075Y-1.5492
X5.4094Y-2.7441
X5.4094Y-2.813
X5.4245Y-2.9495
X5.4252Y-1.4291
X5.4534Y-2.6417
X5.4534Y-2.6732
X5.4567Y-1.5709
X5.4567Y-1.6102
X5.4567Y-2.7441
X5.4567Y-2.813
X5.4646Y-1.4567
X5.4692Y-2.9363
X5.4915Y-2.9141
X5.4961Y-1.4606
X5.5039Y-2.7441
X5.5039Y-2.813
X5.5118Y-1.6398
X5.5125Y-2.5827
X5.5125Y-2.6142
X5.5157Y-2.874
X5.5276Y-1.4252
X5.5335Y-1.752
X5.54Y-2.9219
X5.5472Y-2.874
X5.5512Y-2.7441
X5.5591Y-1.4168
X5.5623Y-2.9442
X5.563Y-1.5374
X5.5669Y-1.6693
X5.5794Y-2.5308
X5.5827Y-1.752
X5.5984Y-1.4173
X5.5984Y-1.5315
X5.5984Y-2.813
X5.6017Y-2.5085
X5.6024Y-1.6063
X5.6024Y-2.6732
X5.6299Y-1.752
X5.6378Y-1.4173
X5.6457Y-2.813
X5.6516Y-2.6732
X5.6732Y-1.6142
X5.6811Y-1.4173
X5.6929Y-2.5906
X5.7087Y-1.5748
X5.7087Y-1.6142
X5.7087Y-1.752
X5.7165Y-1.6693
X5.7402Y-1.4055
X5.7441Y-1.6142
X5.748Y-1.75
X5.7717Y-2.9528
X5.7756Y-2.3386
X5.8031Y-2.9528
X5.8071Y-2.3858
X5.811Y-1.4606
X5.872Y-1.9665
X5.872Y-2.0059
X5.872Y-2.0453
X5.872Y-2.0846
X5.9114Y-1.9665
X5.9114Y-2.0059
X5.9114Y-2.0453
X5.9114Y-2.0846
X6.0039Y-2.7047
X6.0512Y-2.7047
X6.1181Y-1.4331
X6.1634Y-1.5728
X6.4508Y-2.626
X6.4724Y-2.5945
X6.5276Y-3.8386
X6.5453Y-3.4528
X6.5453Y-3.5217
X6.5512Y-3.9213
X6.5748Y-3.4528
X6.5748Y-3.5217
X6.5787Y-3.8858
X6.5965Y-1.5276
X6.6063Y-4.0089
X6.6122Y-1.8189
X6.6122Y-1.8583
X6.6181Y-3.9213
X6.6378Y-3.8386
X6.6516Y-1.8189
X6.6516Y-1.8583
X6.6752Y-1.5276
X6.6909Y-1.8189
X6.6909Y-1.8583
X6.7008Y-3.4508
X6.7008Y-3.4803
X6.7008Y-3.5098
X6.7008Y-3.5906
X6.7008Y-3.6201
X6.7303Y-1.8189
X6.7303Y-1.8583
X6.7303Y-3.4508
X6.7303Y-3.4803
X6.7303Y-3.5098
X6.7303Y-3.5906
X6.7343Y-1.5276
X6.7598Y-3.5906
X6.7697Y-1.8189
X6.7697Y-1.8583
X6.7894Y-3.5906
X6.7933Y-1.5276
X6.811Y-3.4508
X6.811Y-3.4803
X6.811Y-3.6772
X6.8189Y-3.5906
X6.8346Y-2.626
X6.8484Y-3.5906
X6.8524Y-1.5276
X6.8583Y-2.5945
X6.9114Y-1.4173
X6.935Y-3.6772
X6.935Y-3.7441
X6.9652Y-1.4166
X6.9692Y-1.5755
X6.98Y-1.171
X6.9823Y-3.6575
X6.9823Y-3.687
X6.9875Y-1.3944
X6.9915Y-1.5977
X7.0118Y-3.6575
X7.0118Y-3.687
X7.0295Y-1.4193
X7.0433Y-1.1496
X7.0472Y-3.5335
X7.0472Y-3.563
X7.0472Y-3.5925
X7.0787Y-3.065
X7.0787Y-3.2343
X7.0886Y-1.4173
X7.0906Y-3.5728
X7.0991Y-1.517
X7.1201Y-3.5728
X7.1214Y-1.5393
X7.1369Y-3.688
X7.1476Y-1.4173
X7.1673Y-3.5925
X7.2028Y-1.3327
X7.2047Y-1.2913
X7.2402Y-3.374
X7.2402Y-3.4035
X7.2402Y-3.4331
X7.2402Y-3.4626
X7.2402Y-3.4921
X7.25Y-3.5925
X7.2598Y-1.8228
X7.2697Y-3.374
X7.2697Y-3.4035
X7.2697Y-3.4331
X7.2697Y-3.4626
X7.2697Y-3.4921
X7.2795Y-3.5925
X7.2874Y-1.5354
X7.2913Y-2.1102
X7.2913Y-2.562
X7.2913Y-2.6417
X7.2913Y-3.0974
X7.2913Y-3.1732
X7.2992Y-1.8228
X7.3342Y-3.0974
X7.3346Y-2.0315
X7.3346Y-2.1102
X7.3346Y-2.6417
X7.3366Y-2.562
X7.3386Y-1.748
X7.3386Y-1.7835
X7.3386Y-1.8228
X7.377Y-2.562
X7.378Y-2.0315
X7.378Y-2.1102
X7.378Y-2.6417
X7.378Y-3.0974
X7.378Y-3.1732
X7.4085Y-1.9902
X7.4094Y-1.3327
X7.4094Y-1.3799
T2
X5.4429Y-3.0709
X5.4429Y-3.1496
X5.4429Y-3.2283
X5.4429Y-3.3071
X5.4429Y-3.3858
X5.4429Y-3.4646
X5.4429Y-3.5433
X5.4429Y-3.622
X5.4429Y-3.7008
X5.4429Y-3.7795
X5.4429Y-3.8583
X5.4429Y-3.937
X5.5256Y-3.0709
X5.5256Y-3.1496
X5.5256Y-3.2283
X5.5256Y-3.3071
X5.5256Y-3.3858
X5.5256Y-3.4646
X5.5256Y-3.5433
X5.5256Y-3.622
X5.5256Y-3.7008
X5.5256Y-3.7795
X5.5256Y-3.8583
X5.5256Y-3.937
X5.6043Y-3.0709
X5.6043Y-3.1496
X5.6043Y-3.2283
X5.6043Y-3.3071
X5.6043Y-3.3858
X5.6043Y-3.4646
X5.6043Y-3.5433
X5.6043Y-3.622
X5.6043Y-3.7008
X5.6043Y-3.7795
X5.6043Y-3.8583
X5.6043Y-3.937
X5.6831Y-3.0709
X5.6831Y-3.1496
X5.6831Y-3.2283
X5.6831Y-3.3071
X5.6831Y-3.3858
X5.6831Y-3.4646
X5.6831Y-3.5433
X5.6831Y-3.622
X5.6831Y-3.7008
X5.6831Y-3.7795
X5.6831Y-3.8583
X5.6831Y-3.937
X5.7618Y-3.0709
X5.7618Y-3.1496
X5.7618Y-3.2283
X5.7618Y-3.3071
X5.7618Y-3.3858
X5.7618Y-3.4646
X5.7618Y-3.5433
X5.7618Y-3.622
X5.7618Y-3.7008
X5.7618Y-3.7795
X5.7618Y-3.8583
X5.7618Y-3.937
X5.8406Y-3.0709
X5.8406Y-3.1496
X5.8406Y-3.2283
X5.8406Y-3.3071
X5.8406Y-3.3858
X5.8406Y-3.4646
X5.8406Y-3.5433
X5.8406Y-3.622
X5.8406Y-3.7008
X5.8406Y-3.7795
X5.8406Y-3.8583
X5.8406Y-3.937
X5.9193Y-3.0709
X5.9193Y-3.1496
X5.9193Y-3.2283
X5.9193Y-3.3071
X5.9193Y-3.3858
X5.9193Y-3.4646
X5.9193Y-3.5433
X5.9193Y-3.622
X5.9193Y-3.7008
X5.9193Y-3.7795
X5.9193Y-3.8583
X5.9193Y-3.937
X5.998Y-3.0709
X5.998Y-3.1496
X5.998Y-3.2283
X5.998Y-3.3071
X5.998Y-3.3858
X5.998Y-3.4646
X5.998Y-3.5433
X5.998Y-3.622
X5.998Y-3.7008
X5.998Y-3.7795
X5.998Y-3.8583
X5.998Y-3.937
X6.0768Y-3.0709
X6.0768Y-3.1496
X6.0768Y-3.2283
X6.0768Y-3.3071
X6.0768Y-3.3858
X6.0768Y-3.4646
X6.0768Y-3.5433
X6.0768Y-3.622
X6.0768Y-3.7008
X6.0768Y-3.7795
X6.0768Y-3.8583
X6.0768Y-3.937
X6.1555Y-3.0709
X6.1555Y-3.1496
X6.1555Y-3.2283
X6.1555Y-3.3071
X6.1555Y-3.3858
X6.1555Y-3.4646
X6.1555Y-3.5433
X6.1555Y-3.622
X6.1555Y-3.7008
X6.1555Y-3.7795
X6.1555Y-3.8583
X6.1555Y-3.937
X6.2343Y-3.0709
X6.2343Y-3.1496
X6.2343Y-3.2283
X6.2343Y-3.3071
X6.2343Y-3.3858
X6.2343Y-3.4646
X6.2343Y-3.5433
X6.2343Y-3.622
X6.2343Y-3.7008
X6.2343Y-3.7795
X6.2343Y-3.8583
X6.2343Y-3.937
X6.3091Y-3.0709
X6.3091Y-3.1496
X6.3091Y-3.2283
X6.3091Y-3.3071
X6.3091Y-3.3858
X6.3091Y-3.4646
X6.3091Y-3.5433
X6.3091Y-3.622
X6.3091Y-3.7008
X6.3091Y-3.7795
X6.3091Y-3.8583
X6.3091Y-3.937
T4
X4.7256Y-1.0811
X4.7256Y-1.1311
X4.7256Y-1.1811
X4.7756Y-1.0811
X4.7756Y-1.1311
X4.7756Y-1.1811
T5
X4.9281Y-1.0565
X4.9281Y-1.1565
X5.0281Y-1.0565
X5.0281Y-1.1565
X5.1281Y-1.0565
X5.1281Y-1.1565
X5.2281Y-1.0565
X5.2281Y-1.1565
X5.3281Y-1.0565
X5.3281Y-1.1565
X5.4281Y-1.0565
X5.4281Y-1.1565
X5.5281Y-1.0565
X5.5281Y-1.1565
X5.6281Y-1.0565
X5.6281Y-1.1565
X5.7281Y-1.0565
X5.7281Y-1.1565
X5.8281Y-1.0565
X5.8281Y-1.1565
X5.9281Y-1.0565
X5.9281Y-1.1565
X6.0281Y-1.0565
X6.0281Y-1.1565
X6.1281Y-1.0565
X6.1281Y-1.1565
X6.2281Y-1.0565
X6.2281Y-1.1565
X6.3281Y-1.0565
X6.3281Y-1.1565
X6.4281Y-1.0565
X6.4281Y-1.1565
X6.5281Y-1.0565
X6.5281Y-1.1565
X6.6281Y-1.0565
X6.6281Y-1.1565
X6.7281Y-1.0565
X6.7281Y-1.1565
X6.8281Y-1.0565
X6.8281Y-1.1565
T6
X6.5669Y-1.6772
T7
X7.3543Y-1.6772
T8
X6.7835Y-3.9409
X6.9803Y-3.9409
T9
X4.4606Y-1.4606
X4.4606Y-2.7598
X6.3504Y-1.4606
X6.3504Y-2.7598
X6.9606Y-2.7598
T3
G00X4.7039Y-3.8167
M15
G01X4.7039Y-3.86
M16
G05
G00X4.7039Y-3.9872
M15
G01X4.7039Y-4.0187
M16
G05
G00X5.0441Y-3.8167
M15
G01X5.0441Y-3.86
M16
G05
G00X5.0441Y-3.9872
M15
G01X5.0441Y-4.0187
M16
G05
T0
M30
