%TF.GenerationSoftware,KiCad,Pcbnew,7.0.1*%
%TF.CreationDate,2023-05-02T11:52:01+02:00*%
%TF.ProjectId,Payload_cm4_23,5061796c-6f61-4645-9f63-6d345f32332e,rev?*%
%TF.SameCoordinates,Original*%
%TF.FileFunction,Soldermask,Bot*%
%TF.FilePolarity,Negative*%
%FSLAX46Y46*%
G04 Gerber Fmt 4.6, Leading zero omitted, Abs format (unit mm)*
G04 Created by KiCad (PCBNEW 7.0.1) date 2023-05-02 11:52:01*
%MOMM*%
%LPD*%
G01*
G04 APERTURE LIST*
G04 Aperture macros list*
%AMRoundRect*
0 Rectangle with rounded corners*
0 $1 Rounding radius*
0 $2 $3 $4 $5 $6 $7 $8 $9 X,Y pos of 4 corners*
0 Add a 4 corners polygon primitive as box body*
4,1,4,$2,$3,$4,$5,$6,$7,$8,$9,$2,$3,0*
0 Add four circle primitives for the rounded corners*
1,1,$1+$1,$2,$3*
1,1,$1+$1,$4,$5*
1,1,$1+$1,$6,$7*
1,1,$1+$1,$8,$9*
0 Add four rect primitives between the rounded corners*
20,1,$1+$1,$2,$3,$4,$5,0*
20,1,$1+$1,$4,$5,$6,$7,0*
20,1,$1+$1,$6,$7,$8,$9,0*
20,1,$1+$1,$8,$9,$2,$3,0*%
G04 Aperture macros list end*
%ADD10C,6.330000*%
%ADD11C,1.000000*%
%ADD12O,1.000000X1.000000*%
%ADD13C,1.700000*%
%ADD14O,1.700000X1.700000*%
%ADD15R,25.000000X25.000000*%
%ADD16C,8.000000*%
%ADD17C,1.750000*%
%ADD18C,2.450000*%
%ADD19C,0.650000*%
%ADD20O,1.000000X2.100000*%
%ADD21O,1.000000X1.800000*%
%ADD22C,3.800000*%
%ADD23C,2.000000*%
%ADD24R,3.000000X1.000000*%
%ADD25R,2.600000X1.550000*%
%ADD26RoundRect,0.062500X-0.062500X0.337500X-0.062500X-0.337500X0.062500X-0.337500X0.062500X0.337500X0*%
%ADD27R,1.400000X1.700000*%
%ADD28R,1.850000X0.600000*%
%ADD29R,1.650000X0.600000*%
G04 APERTURE END LIST*
D10*
%TO.C,H4*%
X113300000Y-70100000D03*
%TD*%
D11*
%TO.C,J6*%
X121300000Y-30000000D03*
D12*
X120030000Y-30000000D03*
X121300000Y-28730000D03*
X120030000Y-28730000D03*
X121300000Y-27460000D03*
X120030000Y-27460000D03*
%TD*%
D13*
%TO.C,J5*%
X125175000Y-29375000D03*
D14*
X125175000Y-26835000D03*
X127715000Y-29375000D03*
X127715000Y-26835000D03*
X130255000Y-29375000D03*
X130255000Y-26835000D03*
X132795000Y-29375000D03*
X132795000Y-26835000D03*
X135335000Y-29375000D03*
X135335000Y-26835000D03*
X137875000Y-29375000D03*
X137875000Y-26835000D03*
X140415000Y-29375000D03*
X140415000Y-26835000D03*
X142955000Y-29375000D03*
X142955000Y-26835000D03*
X145495000Y-29375000D03*
X145495000Y-26835000D03*
X148035000Y-29375000D03*
X148035000Y-26835000D03*
X150575000Y-29375000D03*
X150575000Y-26835000D03*
X153115000Y-29375000D03*
X153115000Y-26835000D03*
X155655000Y-29375000D03*
X155655000Y-26835000D03*
X158195000Y-29375000D03*
X158195000Y-26835000D03*
X160735000Y-29375000D03*
X160735000Y-26835000D03*
X163275000Y-29375000D03*
X163275000Y-26835000D03*
X165815000Y-29375000D03*
X165815000Y-26835000D03*
X168355000Y-29375000D03*
X168355000Y-26835000D03*
X170895000Y-29375000D03*
X170895000Y-26835000D03*
X173435000Y-29375000D03*
X173435000Y-26835000D03*
%TD*%
D15*
%TO.C,HS1*%
X149300000Y-89100000D03*
%TD*%
D10*
%TO.C,H1*%
X161300000Y-37100000D03*
%TD*%
D16*
%TO.C,H6*%
X185300000Y-28100000D03*
%TD*%
D10*
%TO.C,H9*%
X176800000Y-70100000D03*
%TD*%
D17*
%TO.C,J4*%
X166800000Y-42600000D03*
D18*
X186800000Y-42600000D03*
%TD*%
D16*
%TO.C,H7*%
X113300000Y-28100000D03*
%TD*%
D10*
%TO.C,H3*%
X161300000Y-70100000D03*
%TD*%
D19*
%TO.C,J1*%
X120910000Y-97995000D03*
X126690000Y-97995000D03*
D20*
X119480000Y-97495000D03*
D21*
X119480000Y-101675000D03*
D20*
X128120000Y-97495000D03*
D21*
X128120000Y-101675000D03*
%TD*%
D22*
%TO.C,J11*%
X177300000Y-100100000D03*
X172300000Y-100100000D03*
%TD*%
D16*
%TO.C,H8*%
X113300000Y-100100000D03*
%TD*%
D10*
%TO.C,H2*%
X113300000Y-37100000D03*
%TD*%
D16*
%TO.C,H5*%
X185300000Y-100100000D03*
%TD*%
D23*
%TO.C,TP3*%
X186600000Y-86500000D03*
%TD*%
D24*
%TO.C,J10*%
X186289160Y-74675000D03*
X186289160Y-76675000D03*
X186289160Y-78675000D03*
X186289160Y-80675000D03*
D25*
X182800000Y-72100000D03*
X182800000Y-83250000D03*
%TD*%
D24*
%TO.C,J9*%
X186300000Y-61100000D03*
X186300000Y-63100000D03*
X186300000Y-65100000D03*
X186300000Y-67100000D03*
D25*
X182810840Y-58525000D03*
X182810840Y-69675000D03*
%TD*%
D26*
%TO.C,U6*%
X133950000Y-92575000D03*
X134450000Y-92575000D03*
X134950000Y-92575000D03*
X135450000Y-92575000D03*
X135450000Y-95475000D03*
X134950000Y-95475000D03*
X134450000Y-95475000D03*
X133950000Y-95475000D03*
D27*
X134700000Y-94025000D03*
%TD*%
D23*
%TO.C,TP2*%
X177400000Y-86500000D03*
%TD*%
D24*
%TO.C,J8*%
X186300000Y-47600000D03*
X186300000Y-49600000D03*
X186300000Y-51600000D03*
X186300000Y-53600000D03*
D25*
X182810840Y-45025000D03*
X182810840Y-56175000D03*
%TD*%
D24*
%TO.C,J7*%
X117800000Y-67100000D03*
X117800000Y-65100000D03*
X117800000Y-63100000D03*
X117800000Y-61100000D03*
D25*
X121289160Y-69675000D03*
X121289160Y-58525000D03*
%TD*%
D28*
%TO.C,J2*%
X123100000Y-76100000D03*
X123100000Y-77100000D03*
X123100000Y-78100000D03*
X123100000Y-79100000D03*
X123100000Y-80100000D03*
X123100000Y-81100000D03*
X123100000Y-82100000D03*
X123100000Y-83100000D03*
X123100000Y-84100000D03*
X123100000Y-85100000D03*
X123100000Y-86100000D03*
X123100000Y-87100000D03*
X123100000Y-88100000D03*
X123100000Y-89100000D03*
X123100000Y-90100000D03*
D29*
X119350000Y-76100000D03*
X119350000Y-77100000D03*
X119350000Y-78100000D03*
X119350000Y-79100000D03*
X119350000Y-80100000D03*
X119350000Y-81100000D03*
X119350000Y-82100000D03*
X119350000Y-83100000D03*
X119350000Y-84100000D03*
X119350000Y-85100000D03*
X119350000Y-86100000D03*
X119350000Y-87100000D03*
X119350000Y-88100000D03*
X119350000Y-89100000D03*
X119350000Y-90100000D03*
%TD*%
D28*
%TO.C,J3*%
X123050000Y-38100000D03*
X123050000Y-39100000D03*
X123050000Y-40100000D03*
X123050000Y-41100000D03*
X123050000Y-42100000D03*
X123050000Y-43100000D03*
X123050000Y-44100000D03*
X123050000Y-45100000D03*
X123050000Y-46100000D03*
X123050000Y-47100000D03*
X123050000Y-48100000D03*
X123050000Y-49100000D03*
X123050000Y-50100000D03*
X123050000Y-51100000D03*
X123050000Y-52100000D03*
D29*
X119300000Y-38100000D03*
X119300000Y-39100000D03*
X119300000Y-40100000D03*
X119300000Y-41100000D03*
X119300000Y-42100000D03*
X119300000Y-43100000D03*
X119300000Y-44100000D03*
X119300000Y-45100000D03*
X119300000Y-46100000D03*
X119300000Y-47100000D03*
X119300000Y-48100000D03*
X119300000Y-49100000D03*
X119300000Y-50100000D03*
X119300000Y-51100000D03*
X119300000Y-52100000D03*
%TD*%
M02*
